<?xml version="1.0" encoding="utf-8"?>
<svg xmlns="http://www.w3.org/2000/svg" xmlns:xlink="http://www.w3.org/1999/xlink" width="600" height="400" viewBox="0 0 2400 1600">
<defs>
  <clipPath id="clip920">
    <rect x="0" y="0" width="2400" height="1600"/>
  </clipPath>
</defs>
<path clip-path="url(#clip920)" d="
M0 1600 L2400 1600 L2400 0 L0 0  Z
  " fill="#ffffff" fill-rule="evenodd" fill-opacity="1"/>
<defs>
  <clipPath id="clip921">
    <rect x="480" y="0" width="1681" height="1600"/>
  </clipPath>
</defs>
<path clip-path="url(#clip920)" d="
M447.244 1552.76 L1952.76 1552.76 L1952.76 47.2441 L447.244 47.2441  Z
  " fill="#ffffff" fill-rule="evenodd" fill-opacity="1"/>
<defs>
  <clipPath id="clip922">
    <rect x="447" y="47" width="1507" height="1507"/>
  </clipPath>
</defs>
<polyline clip-path="url(#clip922)" style="stroke:#000000; stroke-linecap:butt; stroke-linejoin:round; stroke-width:4; stroke-opacity:1; fill:none" points="
  1622.36,262.317 1621.05,270.895 1617.26,278.903 1611.17,286.383 1602.97,293.378 1592.83,299.929 1580.94,306.08 1567.49,311.871 1552.65,317.346 1536.62,322.546 
  1519.58,327.514 1501.71,332.292 1483.19,336.923 1464.22,341.447 1444.97,345.909 1425.62,350.349 1406.37,354.81 1387.4,359.335 1368.88,363.965 1351.01,368.743 
  1333.97,373.711 1317.94,378.912 1303.1,384.386 1289.65,390.178 1277.76,396.328 1267.62,402.879 1259.42,409.874 1253.33,417.354 1249.54,425.362 1248.23,433.94 
  
  "/>
<polyline clip-path="url(#clip922)" style="stroke:#000000; stroke-linecap:butt; stroke-linejoin:round; stroke-width:4; stroke-opacity:1; fill:none" points="
  1248.23,433.94 1248.28,444.438 1248.43,455.156 1248.66,466.077 1248.97,477.187 1249.36,488.467 1249.81,499.902 1250.32,511.476 1250.89,523.173 1251.5,534.975 
  1252.15,546.867 1252.83,558.833 1253.53,570.855 1254.26,582.919 1254.99,595.007 1255.73,607.103 1256.46,619.19 1257.18,631.254 1257.89,643.276 1258.57,655.242 
  1259.22,667.134 1259.83,678.936 1260.39,690.633 1260.9,702.207 1261.36,713.642 1261.74,724.923 1262.06,736.032 1262.29,746.953 1262.43,757.671 1262.48,768.169 
  
  "/>
<polyline clip-path="url(#clip922)" style="stroke:#000000; stroke-linecap:butt; stroke-linejoin:round; stroke-width:4; stroke-opacity:1; fill:none" points="
  1262.48,768.169 1262.28,775.787 1261.68,783.519 1260.72,791.357 1259.43,799.291 1257.84,807.315 1255.97,815.418 1253.85,823.593 1251.52,831.831 1248.99,840.124 
  1246.31,848.463 1243.5,856.84 1240.59,865.247 1237.6,873.675 1234.58,882.116 1231.53,890.56 1228.51,899.001 1225.52,907.429 1222.61,915.836 1219.8,924.213 
  1217.12,932.552 1214.59,940.845 1212.26,949.083 1210.14,957.258 1208.27,965.361 1206.68,973.385 1205.39,981.319 1204.43,989.157 1203.83,996.889 1203.63,1004.51 
  
  "/>
<polyline clip-path="url(#clip922)" style="stroke:#000000; stroke-linecap:butt; stroke-linejoin:round; stroke-width:4; stroke-opacity:1; fill:none" points="
  1203.63,1004.51 1202.81,1016.94 1200.43,1029.14 1196.6,1041.13 1191.45,1052.92 1185.08,1064.53 1177.61,1075.98 1169.16,1087.28 1159.84,1098.46 1149.77,1109.52 
  1139.06,1120.49 1127.84,1131.38 1116.2,1142.21 1104.28,1153 1092.19,1163.76 1080.04,1174.52 1067.94,1185.28 1056.02,1196.07 1044.39,1206.9 1033.16,1217.79 
  1022.46,1228.76 1012.39,1239.82 1003.07,1250.99 994.618,1262.3 987.149,1273.74 980.779,1285.35 975.624,1297.15 971.798,1309.13 969.418,1321.34 968.598,1333.77 
  
  "/>
<polyline clip-path="url(#clip922)" style="stroke:#000000; stroke-linecap:butt; stroke-linejoin:round; stroke-width:4; stroke-opacity:1; fill:none" points="
  1203.63,1004.51 1205.49,1015.91 1210.9,1026.56 1219.59,1036.5 1231.31,1045.8 1245.78,1054.51 1262.75,1062.69 1281.96,1070.39 1303.13,1077.67 1326.01,1084.58 
  1350.34,1091.18 1375.85,1097.54 1402.28,1103.69 1429.37,1109.71 1456.85,1115.64 1484.46,1121.54 1511.94,1127.47 1539.03,1133.49 1565.46,1139.64 1590.97,1146 
  1615.3,1152.6 1638.18,1159.51 1659.36,1166.79 1678.56,1174.49 1695.53,1182.67 1710,1191.38 1721.72,1200.68 1730.41,1210.62 1735.82,1221.27 1737.68,1232.67 
  
  "/>
<polyline clip-path="url(#clip922)" style="stroke:#000000; stroke-linecap:butt; stroke-linejoin:round; stroke-width:4; stroke-opacity:1; fill:none" points="
  1203.63,1004.51 1201.74,1014.04 1196.26,1022.95 1187.45,1031.26 1175.57,1039.04 1160.9,1046.32 1143.7,1053.16 1124.24,1059.59 1102.77,1065.68 1079.58,1071.46 
  1054.92,1076.98 1029.07,1082.3 1002.28,1087.44 974.821,1092.47 946.967,1097.43 918.979,1102.37 891.124,1107.33 863.669,1112.36 836.88,1117.5 811.023,1122.82 
  786.364,1128.34 763.171,1134.12 741.708,1140.21 722.243,1146.64 705.042,1153.48 690.372,1160.76 678.497,1168.54 669.686,1176.85 664.204,1185.76 662.317,1195.29 
  
  "/>
<polyline clip-path="url(#clip922)" style="stroke:#000000; stroke-linecap:butt; stroke-linejoin:round; stroke-width:4; stroke-opacity:1; fill:none" points="
  1203.63,1004.51 1204.33,1016.53 1206.37,1028.44 1209.65,1040.24 1214.07,1051.95 1219.53,1063.56 1225.93,1075.1 1233.17,1086.56 1241.16,1097.96 1249.79,1109.3 
  1258.96,1120.6 1268.58,1131.86 1278.55,1143.09 1288.77,1154.3 1299.13,1165.5 1309.55,1176.69 1319.91,1187.89 1330.13,1199.1 1340.1,1210.33 1349.72,1221.59 
  1358.9,1232.89 1367.53,1244.23 1375.51,1255.63 1382.76,1267.09 1389.16,1278.63 1394.62,1290.24 1399.03,1301.95 1402.31,1313.75 1404.35,1325.66 1405.06,1337.68 
  
  "/>
<path clip-path="url(#clip922)" d="
M1650.33 262.317 L1636.34 238.095 L1608.37 238.095 L1594.39 262.317 L1608.37 286.539 L1636.34 286.539 L1650.33 262.317 L1650.33 262.317  Z
  " fill="#009af9" fill-rule="evenodd" fill-opacity="1"/>
<polyline clip-path="url(#clip922)" style="stroke:#000000; stroke-linecap:butt; stroke-linejoin:round; stroke-width:4; stroke-opacity:1; fill:none" points="
  1650.33,262.317 1636.34,238.095 1608.37,238.095 1594.39,262.317 1608.37,286.539 1636.34,286.539 1650.33,262.317 
  "/>
<path clip-path="url(#clip922)" d="
M1296.93 433.94 L1272.58 391.768 L1223.88 391.768 L1199.54 433.94 L1223.88 476.113 L1272.58 476.113 L1296.93 433.94 L1296.93 433.94  Z
  " fill="#009af9" fill-rule="evenodd" fill-opacity="1"/>
<polyline clip-path="url(#clip922)" style="stroke:#000000; stroke-linecap:butt; stroke-linejoin:round; stroke-width:4; stroke-opacity:1; fill:none" points="
  1296.93,433.94 1272.58,391.768 1223.88,391.768 1199.54,433.94 1223.88,476.113 1272.58,476.113 1296.93,433.94 
  "/>
<path clip-path="url(#clip922)" d="
M1297.69 768.169 L1280.09 737.679 L1244.88 737.679 L1227.27 768.169 L1244.88 798.659 L1280.09 798.659 L1297.69 768.169 L1297.69 768.169  Z
  " fill="#009af9" fill-rule="evenodd" fill-opacity="1"/>
<polyline clip-path="url(#clip922)" style="stroke:#000000; stroke-linecap:butt; stroke-linejoin:round; stroke-width:4; stroke-opacity:1; fill:none" points="
  1297.69,768.169 1280.09,737.679 1244.88,737.679 1227.27,768.169 1244.88,798.659 1280.09,798.659 1297.69,768.169 
  "/>
<path clip-path="url(#clip922)" d="
M1294.02 1004.51 L1248.82 926.225 L1158.43 926.225 L1113.24 1004.51 L1158.43 1082.79 L1248.82 1082.79 L1294.02 1004.51 L1294.02 1004.51  Z
  " fill="#009af9" fill-rule="evenodd" fill-opacity="1"/>
<polyline clip-path="url(#clip922)" style="stroke:#000000; stroke-linecap:butt; stroke-linejoin:round; stroke-width:4; stroke-opacity:1; fill:none" points="
  1294.02,1004.51 1248.82,926.225 1158.43,926.225 1113.24,1004.51 1158.43,1082.79 1248.82,1082.79 1294.02,1004.51 
  "/>
<path clip-path="url(#clip922)" d="
M1029.9 1333.77 L999.248 1280.68 L937.949 1280.68 L907.3 1333.77 L937.949 1386.85 L999.248 1386.85 L1029.9 1333.77 L1029.9 1333.77  Z
  " fill="#009af9" fill-rule="evenodd" fill-opacity="1"/>
<polyline clip-path="url(#clip922)" style="stroke:#000000; stroke-linecap:butt; stroke-linejoin:round; stroke-width:4; stroke-opacity:1; fill:none" points="
  1029.9,1333.77 999.248,1280.68 937.949,1280.68 907.3,1333.77 937.949,1386.85 999.248,1386.85 1029.9,1333.77 
  "/>
<path clip-path="url(#clip922)" d="
M1792.77 1232.67 L1765.23 1184.96 L1710.14 1184.96 L1682.59 1232.67 L1710.14 1280.38 L1765.23 1280.38 L1792.77 1232.67 L1792.77 1232.67  Z
  " fill="#009af9" fill-rule="evenodd" fill-opacity="1"/>
<polyline clip-path="url(#clip922)" style="stroke:#000000; stroke-linecap:butt; stroke-linejoin:round; stroke-width:4; stroke-opacity:1; fill:none" points="
  1792.77,1232.67 1765.23,1184.96 1710.14,1184.96 1682.59,1232.67 1710.14,1280.38 1765.23,1280.38 1792.77,1232.67 
  "/>
<path clip-path="url(#clip922)" d="
M717.405 1195.29 L689.861 1147.58 L634.773 1147.58 L607.229 1195.29 L634.773 1243 L689.861 1243 L717.405 1195.29 L717.405 1195.29  Z
  " fill="#009af9" fill-rule="evenodd" fill-opacity="1"/>
<polyline clip-path="url(#clip922)" style="stroke:#000000; stroke-linecap:butt; stroke-linejoin:round; stroke-width:4; stroke-opacity:1; fill:none" points="
  717.405,1195.29 689.861,1147.58 634.773,1147.58 607.229,1195.29 634.773,1243 689.861,1243 717.405,1195.29 
  "/>
<path clip-path="url(#clip922)" d="
M1460.14 1337.68 L1432.6 1289.98 L1377.51 1289.98 L1349.97 1337.68 L1377.51 1385.39 L1432.6 1385.39 L1460.14 1337.68 L1460.14 1337.68  Z
  " fill="#009af9" fill-rule="evenodd" fill-opacity="1"/>
<polyline clip-path="url(#clip922)" style="stroke:#000000; stroke-linecap:butt; stroke-linejoin:round; stroke-width:4; stroke-opacity:1; fill:none" points="
  1460.14,1337.68 1432.6,1289.98 1377.51,1289.98 1349.97,1337.68 1377.51,1385.39 1432.6,1385.39 1460.14,1337.68 
  "/>
<circle clip-path="url(#clip922)" style="fill:#009af9; stroke:none; fill-opacity:1" cx="1622.36" cy="262.317" r="2"/>
<circle clip-path="url(#clip922)" style="fill:#009af9; stroke:none; fill-opacity:1" cx="1248.23" cy="433.94" r="2"/>
<circle clip-path="url(#clip922)" style="fill:#009af9; stroke:none; fill-opacity:1" cx="1262.48" cy="768.169" r="2"/>
<circle clip-path="url(#clip922)" style="fill:#009af9; stroke:none; fill-opacity:1" cx="1203.63" cy="1004.51" r="2"/>
<circle clip-path="url(#clip922)" style="fill:#009af9; stroke:none; fill-opacity:1" cx="968.598" cy="1333.77" r="2"/>
<circle clip-path="url(#clip922)" style="fill:#009af9; stroke:none; fill-opacity:1" cx="1737.68" cy="1232.67" r="2"/>
<circle clip-path="url(#clip922)" style="fill:#009af9; stroke:none; fill-opacity:1" cx="662.317" cy="1195.29" r="2"/>
<circle clip-path="url(#clip922)" style="fill:#009af9; stroke:none; fill-opacity:1" cx="1405.06" cy="1337.68" r="2"/>
<path clip-path="url(#clip920)" d="M1608.09 255.98 L1604.91 264.58 L1611.27 264.58 L1608.09 255.98 M1606.77 253.677 L1609.42 253.677 L1616 270.957 L1613.57 270.957 L1612 266.524 L1604.21 266.524 L1602.63 270.957 L1600.17 270.957 L1606.77 253.677 Z" fill="#000000" fill-rule="evenodd" fill-opacity="1" /><path clip-path="url(#clip920)" d="M1629.21 263.133 L1629.21 270.957 L1627.08 270.957 L1627.08 263.203 Q1627.08 261.362 1626.36 260.448 Q1625.64 259.534 1624.21 259.534 Q1622.48 259.534 1621.49 260.633 Q1620.49 261.733 1620.49 263.631 L1620.49 270.957 L1618.35 270.957 L1618.35 257.994 L1620.49 257.994 L1620.49 260.008 Q1621.26 258.839 1622.29 258.261 Q1623.33 257.682 1624.68 257.682 Q1626.92 257.682 1628.06 259.071 Q1629.21 260.448 1629.21 263.133 Z" fill="#000000" fill-rule="evenodd" fill-opacity="1" /><path clip-path="url(#clip920)" d="M1638.85 272.161 Q1637.95 274.476 1637.09 275.182 Q1636.23 275.888 1634.8 275.888 L1633.1 275.888 L1633.1 274.105 L1634.35 274.105 Q1635.23 274.105 1635.71 273.689 Q1636.2 273.272 1636.79 271.721 L1637.17 270.749 L1631.93 257.994 L1634.19 257.994 L1638.24 268.133 L1642.29 257.994 L1644.54 257.994 L1638.85 272.161 Z" fill="#000000" fill-rule="evenodd" fill-opacity="1" /><path clip-path="url(#clip920)" d="M1201.79 425.3 L1204.93 425.3 L1212.6 439.756 L1212.6 425.3 L1214.86 425.3 L1214.86 442.58 L1211.72 442.58 L1204.05 428.124 L1204.05 442.58 L1201.79 442.58 L1201.79 425.3 Z" fill="#000000" fill-rule="evenodd" fill-opacity="1" /><path clip-path="url(#clip920)" d="M1219.2 437.465 L1219.2 429.617 L1221.33 429.617 L1221.33 437.384 Q1221.33 439.224 1222.05 440.15 Q1222.77 441.064 1224.2 441.064 Q1225.93 441.064 1226.92 439.965 Q1227.93 438.865 1227.93 436.967 L1227.93 429.617 L1230.06 429.617 L1230.06 442.58 L1227.93 442.58 L1227.93 440.59 Q1227.16 441.77 1226.13 442.349 Q1225.11 442.916 1223.75 442.916 Q1221.52 442.916 1220.36 441.527 Q1219.2 440.138 1219.2 437.465 M1224.56 429.305 L1224.56 429.305 Z" fill="#000000" fill-rule="evenodd" fill-opacity="1" /><path clip-path="url(#clip920)" d="M1244.54 432.106 Q1245.34 430.671 1246.45 429.988 Q1247.56 429.305 1249.07 429.305 Q1251.09 429.305 1252.19 430.729 Q1253.29 432.141 1253.29 434.756 L1253.29 442.58 L1251.15 442.58 L1251.15 434.826 Q1251.15 432.962 1250.49 432.06 Q1249.83 431.157 1248.48 431.157 Q1246.82 431.157 1245.86 432.256 Q1244.9 433.356 1244.9 435.254 L1244.9 442.58 L1242.76 442.58 L1242.76 434.826 Q1242.76 432.951 1242.1 432.06 Q1241.44 431.157 1240.06 431.157 Q1238.43 431.157 1237.47 432.268 Q1236.51 433.367 1236.51 435.254 L1236.51 442.58 L1234.37 442.58 L1234.37 429.617 L1236.51 429.617 L1236.51 431.631 Q1237.24 430.439 1238.26 429.872 Q1239.27 429.305 1240.67 429.305 Q1242.09 429.305 1243.07 430.023 Q1244.07 430.74 1244.54 432.106 Z" fill="#000000" fill-rule="evenodd" fill-opacity="1" /><path clip-path="url(#clip920)" d="M1266.84 436.111 Q1266.84 433.761 1265.87 432.43 Q1264.91 431.087 1263.22 431.087 Q1261.53 431.087 1260.56 432.43 Q1259.6 433.761 1259.6 436.111 Q1259.6 438.46 1260.56 439.803 Q1261.53 441.134 1263.22 441.134 Q1264.91 441.134 1265.87 439.803 Q1266.84 438.46 1266.84 436.111 M1259.6 431.585 Q1260.27 430.428 1261.29 429.872 Q1262.32 429.305 1263.74 429.305 Q1266.1 429.305 1267.57 431.18 Q1269.05 433.055 1269.05 436.111 Q1269.05 439.166 1267.57 441.041 Q1266.1 442.916 1263.74 442.916 Q1262.32 442.916 1261.29 442.36 Q1260.27 441.793 1259.6 440.636 L1259.6 442.58 L1257.46 442.58 L1257.46 424.571 L1259.6 424.571 L1259.6 431.585 Z" fill="#000000" fill-rule="evenodd" fill-opacity="1" /><path clip-path="url(#clip920)" d="M1283.67 435.567 L1283.67 436.608 L1273.88 436.608 Q1274.02 438.807 1275.2 439.965 Q1276.39 441.11 1278.51 441.11 Q1279.74 441.11 1280.88 440.81 Q1282.04 440.509 1283.17 439.907 L1283.17 441.921 Q1282.03 442.407 1280.82 442.661 Q1279.62 442.916 1278.38 442.916 Q1275.28 442.916 1273.46 441.11 Q1271.66 439.305 1271.66 436.226 Q1271.66 433.043 1273.37 431.18 Q1275.1 429.305 1278.01 429.305 Q1280.63 429.305 1282.14 430.995 Q1283.67 432.673 1283.67 435.567 M1281.54 434.942 Q1281.52 433.194 1280.56 432.152 Q1279.61 431.111 1278.04 431.111 Q1276.25 431.111 1275.18 432.117 Q1274.11 433.124 1273.95 434.953 L1281.54 434.942 Z" fill="#000000" fill-rule="evenodd" fill-opacity="1" /><path clip-path="url(#clip920)" d="M1294.68 431.608 Q1294.32 431.4 1293.89 431.307 Q1293.48 431.203 1292.97 431.203 Q1291.16 431.203 1290.19 432.384 Q1289.23 433.553 1289.23 435.752 L1289.23 442.58 L1287.09 442.58 L1287.09 429.617 L1289.23 429.617 L1289.23 431.631 Q1289.9 430.451 1290.98 429.884 Q1292.05 429.305 1293.59 429.305 Q1293.81 429.305 1294.08 429.34 Q1294.34 429.363 1294.67 429.421 L1294.68 431.608 Z" fill="#000000" fill-rule="evenodd" fill-opacity="1" /><path clip-path="url(#clip920)" d="M1247.4 768.707 Q1248.15 768.961 1248.86 769.795 Q1249.58 770.628 1250.29 772.086 L1252.67 776.809 L1250.16 776.809 L1247.94 772.376 Q1247.09 770.64 1246.28 770.073 Q1245.48 769.505 1244.09 769.505 L1241.54 769.505 L1241.54 776.809 L1239.21 776.809 L1239.21 759.529 L1244.48 759.529 Q1247.45 759.529 1248.91 760.767 Q1250.36 762.005 1250.36 764.505 Q1250.36 766.137 1249.6 767.214 Q1248.85 768.29 1247.4 768.707 M1241.54 761.45 L1241.54 767.584 L1244.48 767.584 Q1246.17 767.584 1247.03 766.809 Q1247.9 766.022 1247.9 764.505 Q1247.9 762.989 1247.03 762.225 Q1246.17 761.45 1244.48 761.45 L1241.54 761.45 Z" fill="#000000" fill-rule="evenodd" fill-opacity="1" /><path clip-path="url(#clip920)" d="M1265.61 769.795 L1265.61 770.836 L1255.82 770.836 Q1255.95 773.036 1257.13 774.193 Q1258.33 775.339 1260.44 775.339 Q1261.67 775.339 1262.82 775.038 Q1263.97 774.737 1265.11 774.135 L1265.11 776.149 Q1263.96 776.635 1262.76 776.89 Q1261.56 777.144 1260.32 777.144 Q1257.22 777.144 1255.4 775.339 Q1253.59 773.533 1253.59 770.455 Q1253.59 767.272 1255.31 765.408 Q1257.03 763.533 1259.95 763.533 Q1262.56 763.533 1264.08 765.223 Q1265.61 766.901 1265.61 769.795 M1263.48 769.17 Q1263.45 767.422 1262.49 766.38 Q1261.54 765.339 1259.97 765.339 Q1258.19 765.339 1257.11 766.346 Q1256.05 767.353 1255.88 769.181 L1263.48 769.17 Z" fill="#000000" fill-rule="evenodd" fill-opacity="1" /><path clip-path="url(#clip920)" d="M1274.99 770.292 Q1272.41 770.292 1271.42 770.883 Q1270.42 771.473 1270.42 772.897 Q1270.42 774.031 1271.16 774.702 Q1271.91 775.362 1273.2 775.362 Q1274.97 775.362 1276.03 774.112 Q1277.11 772.85 1277.11 770.767 L1277.11 770.292 L1274.99 770.292 M1279.24 769.413 L1279.24 776.809 L1277.11 776.809 L1277.11 774.841 Q1276.38 776.022 1275.29 776.589 Q1274.21 777.144 1272.63 777.144 Q1270.64 777.144 1269.46 776.033 Q1268.29 774.911 1268.29 773.036 Q1268.29 770.848 1269.75 769.737 Q1271.22 768.626 1274.13 768.626 L1277.11 768.626 L1277.11 768.417 Q1277.11 766.948 1276.14 766.149 Q1275.18 765.339 1273.43 765.339 Q1272.32 765.339 1271.27 765.605 Q1270.21 765.871 1269.24 766.404 L1269.24 764.436 Q1270.41 763.985 1271.51 763.765 Q1272.61 763.533 1273.65 763.533 Q1276.46 763.533 1277.85 764.992 Q1279.24 766.45 1279.24 769.413 Z" fill="#000000" fill-rule="evenodd" fill-opacity="1" /><path clip-path="url(#clip920)" d="M1283.63 758.799 L1285.76 758.799 L1285.76 776.809 L1283.63 776.809 L1283.63 758.799 Z" fill="#000000" fill-rule="evenodd" fill-opacity="1" /><path clip-path="url(#clip920)" d="M1132.9 998.171 L1129.73 1006.77 L1136.08 1006.77 L1132.9 998.171 M1131.58 995.867 L1134.23 995.867 L1140.82 1013.15 L1138.39 1013.15 L1136.81 1008.71 L1129.02 1008.71 L1127.45 1013.15 L1124.98 1013.15 L1131.58 995.867 Z" fill="#000000" fill-rule="evenodd" fill-opacity="1" /><path clip-path="url(#clip920)" d="M1152.55 1006.68 Q1152.55 1004.33 1151.58 1003 Q1150.62 1001.65 1148.93 1001.65 Q1147.24 1001.65 1146.27 1003 Q1145.31 1004.33 1145.31 1006.68 Q1145.31 1009.03 1146.27 1010.37 Q1147.24 1011.7 1148.93 1011.7 Q1150.62 1011.7 1151.58 1010.37 Q1152.55 1009.03 1152.55 1006.68 M1145.31 1002.15 Q1145.98 1000.99 1147 1000.44 Q1148.03 999.872 1149.45 999.872 Q1151.81 999.872 1153.28 1001.75 Q1154.76 1003.62 1154.76 1006.68 Q1154.76 1009.73 1153.28 1011.61 Q1151.81 1013.48 1149.45 1013.48 Q1148.03 1013.48 1147 1012.93 Q1145.98 1012.36 1145.31 1011.2 L1145.31 1013.15 L1143.17 1013.15 L1143.17 995.138 L1145.31 995.138 L1145.31 1002.15 Z" fill="#000000" fill-rule="evenodd" fill-opacity="1" /><path clip-path="url(#clip920)" d="M1166.56 1000.57 L1166.56 1002.58 Q1165.65 1002.12 1164.68 1001.89 Q1163.71 1001.65 1162.67 1001.65 Q1161.08 1001.65 1160.28 1002.14 Q1159.5 1002.63 1159.5 1003.6 Q1159.5 1004.34 1160.06 1004.77 Q1160.63 1005.18 1162.34 1005.57 L1163.07 1005.73 Q1165.34 1006.21 1166.29 1007.11 Q1167.25 1007.99 1167.25 1009.57 Q1167.25 1011.38 1165.82 1012.43 Q1164.39 1013.48 1161.89 1013.48 Q1160.85 1013.48 1159.72 1013.27 Q1158.59 1013.08 1157.34 1012.67 L1157.34 1010.47 Q1158.52 1011.09 1159.67 1011.4 Q1160.82 1011.7 1161.94 1011.7 Q1163.44 1011.7 1164.25 1011.19 Q1165.06 1010.67 1165.06 1009.73 Q1165.06 1008.87 1164.47 1008.4 Q1163.89 1007.94 1161.92 1007.51 L1161.17 1007.34 Q1159.2 1006.92 1158.32 1006.06 Q1157.44 1005.2 1157.44 1003.69 Q1157.44 1001.86 1158.73 1000.87 Q1160.03 999.872 1162.41 999.872 Q1163.59 999.872 1164.64 1000.05 Q1165.68 1000.22 1166.56 1000.57 Z" fill="#000000" fill-rule="evenodd" fill-opacity="1" /><path clip-path="url(#clip920)" d="M1172.75 996.504 L1172.75 1000.18 L1177.14 1000.18 L1177.14 1001.84 L1172.75 1001.84 L1172.75 1008.88 Q1172.75 1010.46 1173.18 1010.91 Q1173.62 1011.37 1174.95 1011.37 L1177.14 1011.37 L1177.14 1013.15 L1174.95 1013.15 Q1172.48 1013.15 1171.55 1012.23 Q1170.61 1011.31 1170.61 1008.88 L1170.61 1001.84 L1169.05 1001.84 L1169.05 1000.18 L1170.61 1000.18 L1170.61 996.504 L1172.75 996.504 Z" fill="#000000" fill-rule="evenodd" fill-opacity="1" /><path clip-path="url(#clip920)" d="M1187.45 1002.18 Q1187.09 1001.97 1186.66 1001.87 Q1186.24 1001.77 1185.73 1001.77 Q1183.93 1001.77 1182.96 1002.95 Q1182 1004.12 1182 1006.32 L1182 1013.15 L1179.86 1013.15 L1179.86 1000.18 L1182 1000.18 L1182 1002.2 Q1182.67 1001.02 1183.74 1000.45 Q1184.82 999.872 1186.36 999.872 Q1186.58 999.872 1186.85 999.907 Q1187.11 999.93 1187.44 999.988 L1187.45 1002.18 Z" fill="#000000" fill-rule="evenodd" fill-opacity="1" /><path clip-path="url(#clip920)" d="M1195.57 1006.63 Q1192.99 1006.63 1192 1007.22 Q1191 1007.81 1191 1009.24 Q1191 1010.37 1191.74 1011.04 Q1192.49 1011.7 1193.78 1011.7 Q1195.55 1011.7 1196.61 1010.45 Q1197.69 1009.19 1197.69 1007.11 L1197.69 1006.63 L1195.57 1006.63 M1199.82 1005.75 L1199.82 1013.15 L1197.69 1013.15 L1197.69 1011.18 Q1196.96 1012.36 1195.87 1012.93 Q1194.79 1013.48 1193.21 1013.48 Q1191.22 1013.48 1190.04 1012.37 Q1188.87 1011.25 1188.87 1009.37 Q1188.87 1007.19 1190.33 1006.08 Q1191.8 1004.96 1194.7 1004.96 L1197.69 1004.96 L1197.69 1004.76 Q1197.69 1003.29 1196.72 1002.49 Q1195.76 1001.68 1194.01 1001.68 Q1192.9 1001.68 1191.85 1001.94 Q1190.79 1002.21 1189.82 1002.74 L1189.82 1000.77 Q1190.99 1000.32 1192.09 1000.1 Q1193.19 999.872 1194.23 999.872 Q1197.04 999.872 1198.43 1001.33 Q1199.82 1002.79 1199.82 1005.75 Z" fill="#000000" fill-rule="evenodd" fill-opacity="1" /><path clip-path="url(#clip920)" d="M1213.54 1000.68 L1213.54 1002.67 Q1212.63 1002.18 1211.72 1001.93 Q1210.82 1001.68 1209.89 1001.68 Q1207.82 1001.68 1206.67 1003 Q1205.53 1004.3 1205.53 1006.68 Q1205.53 1009.05 1206.67 1010.37 Q1207.82 1011.68 1209.89 1011.68 Q1210.82 1011.68 1211.72 1011.43 Q1212.63 1011.18 1213.54 1010.68 L1213.54 1012.65 Q1212.64 1013.07 1211.68 1013.27 Q1210.73 1013.48 1209.66 1013.48 Q1206.73 1013.48 1205.01 1011.64 Q1203.28 1009.8 1203.28 1006.68 Q1203.28 1003.51 1205.02 1001.69 Q1206.76 999.872 1209.8 999.872 Q1210.78 999.872 1211.72 1000.08 Q1212.66 1000.28 1213.54 1000.68 Z" fill="#000000" fill-rule="evenodd" fill-opacity="1" /><path clip-path="url(#clip920)" d="M1219.35 996.504 L1219.35 1000.18 L1223.73 1000.18 L1223.73 1001.84 L1219.35 1001.84 L1219.35 1008.88 Q1219.35 1010.46 1219.77 1010.91 Q1220.21 1011.37 1221.54 1011.37 L1223.73 1011.37 L1223.73 1013.15 L1221.54 1013.15 Q1219.08 1013.15 1218.14 1012.23 Q1217.2 1011.31 1217.2 1008.88 L1217.2 1001.84 L1215.64 1001.84 L1215.64 1000.18 L1217.2 1000.18 L1217.2 996.504 L1219.35 996.504 Z" fill="#000000" fill-rule="evenodd" fill-opacity="1" /><path clip-path="url(#clip920)" d="M1226.63 995.867 L1236.56 995.867 L1236.56 997.835 L1228.96 997.835 L1228.96 1002.93 L1235.82 1002.93 L1235.82 1004.9 L1228.96 1004.9 L1228.96 1013.15 L1226.63 1013.15 L1226.63 995.867 Z" fill="#000000" fill-rule="evenodd" fill-opacity="1" /><path clip-path="url(#clip920)" d="M1240.17 995.138 L1242.3 995.138 L1242.3 1013.15 L1240.17 1013.15 L1240.17 995.138 Z" fill="#000000" fill-rule="evenodd" fill-opacity="1" /><path clip-path="url(#clip920)" d="M1251.78 1001.68 Q1250.06 1001.68 1249.07 1003.02 Q1248.07 1004.35 1248.07 1006.68 Q1248.07 1009 1249.06 1010.35 Q1250.05 1011.68 1251.78 1011.68 Q1253.48 1011.68 1254.47 1010.33 Q1255.47 1008.99 1255.47 1006.68 Q1255.47 1004.37 1254.47 1003.03 Q1253.48 1001.68 1251.78 1001.68 M1251.78 999.872 Q1254.55 999.872 1256.14 1001.68 Q1257.73 1003.48 1257.73 1006.68 Q1257.73 1009.86 1256.14 1011.68 Q1254.55 1013.48 1251.78 1013.48 Q1248.99 1013.48 1247.4 1011.68 Q1245.83 1009.86 1245.83 1006.68 Q1245.83 1003.48 1247.4 1001.68 Q1248.99 999.872 1251.78 999.872 Z" fill="#000000" fill-rule="evenodd" fill-opacity="1" /><path clip-path="url(#clip920)" d="M1267.15 1006.63 Q1264.57 1006.63 1263.57 1007.22 Q1262.57 1007.81 1262.57 1009.24 Q1262.57 1010.37 1263.32 1011.04 Q1264.07 1011.7 1265.35 1011.7 Q1267.12 1011.7 1268.19 1010.45 Q1269.26 1009.19 1269.26 1007.11 L1269.26 1006.63 L1267.15 1006.63 M1271.39 1005.75 L1271.39 1013.15 L1269.26 1013.15 L1269.26 1011.18 Q1268.54 1012.36 1267.45 1012.93 Q1266.36 1013.48 1264.79 1013.48 Q1262.79 1013.48 1261.61 1012.37 Q1260.45 1011.25 1260.45 1009.37 Q1260.45 1007.19 1261.9 1006.08 Q1263.37 1004.96 1266.28 1004.96 L1269.26 1004.96 L1269.26 1004.76 Q1269.26 1003.29 1268.29 1002.49 Q1267.33 1001.68 1265.58 1001.68 Q1264.47 1001.68 1263.42 1001.94 Q1262.37 1002.21 1261.39 1002.74 L1261.39 1000.77 Q1262.56 1000.32 1263.66 1000.1 Q1264.76 999.872 1265.8 999.872 Q1268.62 999.872 1270.01 1001.33 Q1271.39 1002.79 1271.39 1005.75 Z" fill="#000000" fill-rule="evenodd" fill-opacity="1" /><path clip-path="url(#clip920)" d="M1277.89 996.504 L1277.89 1000.18 L1282.27 1000.18 L1282.27 1001.84 L1277.89 1001.84 L1277.89 1008.88 Q1277.89 1010.46 1278.32 1010.91 Q1278.76 1011.37 1280.09 1011.37 L1282.27 1011.37 L1282.27 1013.15 L1280.09 1013.15 Q1277.62 1013.15 1276.68 1012.23 Q1275.75 1011.31 1275.75 1008.88 L1275.75 1001.84 L1274.18 1001.84 L1274.18 1000.18 L1275.75 1000.18 L1275.75 996.504 L1277.89 996.504 Z" fill="#000000" fill-rule="evenodd" fill-opacity="1" /><path clip-path="url(#clip920)" d="M924.166 1334.16 L924.166 1340.49 L927.916 1340.49 Q929.802 1340.49 930.705 1339.71 Q931.62 1338.92 931.62 1337.32 Q931.62 1335.7 930.705 1334.93 Q929.802 1334.16 927.916 1334.16 L924.166 1334.16 M924.166 1327.05 L924.166 1332.26 L927.626 1332.26 Q929.339 1332.26 930.173 1331.62 Q931.018 1330.97 931.018 1329.65 Q931.018 1328.35 930.173 1327.7 Q929.339 1327.05 927.626 1327.05 L924.166 1327.05 M921.828 1325.13 L927.8 1325.13 Q930.474 1325.13 931.92 1326.24 Q933.367 1327.35 933.367 1329.4 Q933.367 1330.98 932.626 1331.92 Q931.886 1332.86 930.451 1333.09 Q932.175 1333.46 933.124 1334.64 Q934.085 1335.81 934.085 1337.57 Q934.085 1339.89 932.511 1341.15 Q930.937 1342.41 928.032 1342.41 L921.828 1342.41 L921.828 1325.13 Z" fill="#000000" fill-rule="evenodd" fill-opacity="1" /><path clip-path="url(#clip920)" d="M937.997 1329.45 L940.126 1329.45 L940.126 1342.41 L937.997 1342.41 L937.997 1329.45 M937.997 1324.4 L940.126 1324.4 L940.126 1327.1 L937.997 1327.1 L937.997 1324.4 Z" fill="#000000" fill-rule="evenodd" fill-opacity="1" /><path clip-path="url(#clip920)" d="M953.112 1335.78 Q953.112 1333.46 952.152 1332.19 Q951.203 1330.92 949.478 1330.92 Q947.765 1330.92 946.805 1332.19 Q945.856 1333.46 945.856 1335.78 Q945.856 1338.08 946.805 1339.35 Q947.765 1340.63 949.478 1340.63 Q951.203 1340.63 952.152 1339.35 Q953.112 1338.08 953.112 1335.78 M955.242 1340.8 Q955.242 1344.11 953.772 1345.72 Q952.302 1347.34 949.27 1347.34 Q948.147 1347.34 947.152 1347.17 Q946.156 1347 945.219 1346.66 L945.219 1344.58 Q946.156 1345.09 947.071 1345.34 Q947.985 1345.58 948.934 1345.58 Q951.029 1345.58 952.071 1344.48 Q953.112 1343.39 953.112 1341.18 L953.112 1340.13 Q952.453 1341.27 951.423 1341.84 Q950.393 1342.41 948.957 1342.41 Q946.573 1342.41 945.115 1340.59 Q943.656 1338.77 943.656 1335.78 Q943.656 1332.77 945.115 1330.95 Q946.573 1329.13 948.957 1329.13 Q950.393 1329.13 951.423 1329.7 Q952.453 1330.27 953.112 1331.41 L953.112 1329.45 L955.242 1329.45 L955.242 1340.8 Z" fill="#000000" fill-rule="evenodd" fill-opacity="1" /><path clip-path="url(#clip920)" d="M959.721 1325.13 L969.652 1325.13 L969.652 1327.1 L962.059 1327.1 L962.059 1332.19 L968.911 1332.19 L968.911 1334.16 L962.059 1334.16 L962.059 1342.41 L959.721 1342.41 L959.721 1325.13 Z" fill="#000000" fill-rule="evenodd" fill-opacity="1" /><path clip-path="url(#clip920)" d="M973.263 1324.4 L975.392 1324.4 L975.392 1342.41 L973.263 1342.41 L973.263 1324.4 Z" fill="#000000" fill-rule="evenodd" fill-opacity="1" /><path clip-path="url(#clip920)" d="M984.872 1330.94 Q983.159 1330.94 982.163 1332.28 Q981.168 1333.61 981.168 1335.94 Q981.168 1338.26 982.152 1339.61 Q983.147 1340.94 984.872 1340.94 Q986.573 1340.94 987.568 1339.6 Q988.564 1338.25 988.564 1335.94 Q988.564 1333.64 987.568 1332.29 Q986.573 1330.94 984.872 1330.94 M984.872 1329.13 Q987.649 1329.13 989.235 1330.94 Q990.821 1332.74 990.821 1335.94 Q990.821 1339.12 989.235 1340.94 Q987.649 1342.74 984.872 1342.74 Q982.082 1342.74 980.497 1340.94 Q978.922 1339.12 978.922 1335.94 Q978.922 1332.74 980.497 1330.94 Q982.082 1329.13 984.872 1329.13 Z" fill="#000000" fill-rule="evenodd" fill-opacity="1" /><path clip-path="url(#clip920)" d="M1000.24 1335.89 Q997.661 1335.89 996.665 1336.48 Q995.67 1337.07 995.67 1338.5 Q995.67 1339.63 996.411 1340.3 Q997.163 1340.96 998.448 1340.96 Q1000.22 1340.96 1001.28 1339.71 Q1002.36 1338.45 1002.36 1336.37 L1002.36 1335.89 L1000.24 1335.89 M1004.49 1335.01 L1004.49 1342.41 L1002.36 1342.41 L1002.36 1340.44 Q1001.63 1341.62 1000.54 1342.19 Q999.455 1342.74 997.881 1342.74 Q995.89 1342.74 994.709 1341.63 Q993.54 1340.51 993.54 1338.64 Q993.54 1336.45 994.999 1335.34 Q996.469 1334.23 999.374 1334.23 L1002.36 1334.23 L1002.36 1334.02 Q1002.36 1332.55 1001.39 1331.75 Q1000.43 1330.94 998.679 1330.94 Q997.568 1330.94 996.515 1331.2 Q995.462 1331.47 994.49 1332 L994.49 1330.04 Q995.659 1329.58 996.758 1329.36 Q997.858 1329.13 998.899 1329.13 Q1001.71 1329.13 1003.1 1330.59 Q1004.49 1332.05 1004.49 1335.01 Z" fill="#000000" fill-rule="evenodd" fill-opacity="1" /><path clip-path="url(#clip920)" d="M1010.98 1325.77 L1010.98 1329.45 L1015.37 1329.45 L1015.37 1331.1 L1010.98 1331.1 L1010.98 1338.14 Q1010.98 1339.72 1011.41 1340.17 Q1011.85 1340.63 1013.18 1340.63 L1015.37 1340.63 L1015.37 1342.41 L1013.18 1342.41 Q1010.72 1342.41 1009.78 1341.49 Q1008.84 1340.57 1008.84 1338.14 L1008.84 1331.1 L1007.28 1331.1 L1007.28 1329.45 L1008.84 1329.45 L1008.84 1325.77 L1010.98 1325.77 Z" fill="#000000" fill-rule="evenodd" fill-opacity="1" /><path clip-path="url(#clip920)" d="M1695.24 1224.03 L1705.17 1224.03 L1705.17 1226 L1697.58 1226 L1697.58 1231.09 L1704.43 1231.09 L1704.43 1233.06 L1697.58 1233.06 L1697.58 1241.31 L1695.24 1241.31 L1695.24 1224.03 Z" fill="#000000" fill-rule="evenodd" fill-opacity="1" /><path clip-path="url(#clip920)" d="M1708.78 1223.3 L1710.91 1223.3 L1710.91 1241.31 L1708.78 1241.31 L1708.78 1223.3 Z" fill="#000000" fill-rule="evenodd" fill-opacity="1" /><path clip-path="url(#clip920)" d="M1720.39 1229.84 Q1718.68 1229.84 1717.68 1231.18 Q1716.69 1232.52 1716.69 1234.84 Q1716.69 1237.17 1717.67 1238.51 Q1718.67 1239.84 1720.39 1239.84 Q1722.09 1239.84 1723.09 1238.5 Q1724.08 1237.16 1724.08 1234.84 Q1724.08 1232.54 1723.09 1231.2 Q1722.09 1229.84 1720.39 1229.84 M1720.39 1228.04 Q1723.17 1228.04 1724.75 1229.84 Q1726.34 1231.65 1726.34 1234.84 Q1726.34 1238.02 1724.75 1239.84 Q1723.17 1241.65 1720.39 1241.65 Q1717.6 1241.65 1716.02 1239.84 Q1714.44 1238.02 1714.44 1234.84 Q1714.44 1231.65 1716.02 1229.84 Q1717.6 1228.04 1720.39 1228.04 Z" fill="#000000" fill-rule="evenodd" fill-opacity="1" /><path clip-path="url(#clip920)" d="M1735.76 1234.8 Q1733.18 1234.8 1732.19 1235.39 Q1731.19 1235.98 1731.19 1237.4 Q1731.19 1238.53 1731.93 1239.21 Q1732.68 1239.87 1733.97 1239.87 Q1735.74 1239.87 1736.8 1238.62 Q1737.88 1237.35 1737.88 1235.27 L1737.88 1234.8 L1735.76 1234.8 M1740.01 1233.92 L1740.01 1241.31 L1737.88 1241.31 L1737.88 1239.34 Q1737.15 1240.52 1736.06 1241.09 Q1734.97 1241.65 1733.4 1241.65 Q1731.41 1241.65 1730.23 1240.54 Q1729.06 1239.41 1729.06 1237.54 Q1729.06 1235.35 1730.52 1234.24 Q1731.99 1233.13 1734.89 1233.13 L1737.88 1233.13 L1737.88 1232.92 Q1737.88 1231.45 1736.91 1230.65 Q1735.95 1229.84 1734.2 1229.84 Q1733.09 1229.84 1732.03 1230.11 Q1730.98 1230.37 1730.01 1230.91 L1730.01 1228.94 Q1731.18 1228.49 1732.28 1228.27 Q1733.38 1228.04 1734.42 1228.04 Q1737.23 1228.04 1738.62 1229.49 Q1740.01 1230.95 1740.01 1233.92 Z" fill="#000000" fill-rule="evenodd" fill-opacity="1" /><path clip-path="url(#clip920)" d="M1746.5 1224.67 L1746.5 1228.35 L1750.89 1228.35 L1750.89 1230 L1746.5 1230 L1746.5 1237.04 Q1746.5 1238.63 1746.93 1239.08 Q1747.37 1239.53 1748.7 1239.53 L1750.89 1239.53 L1750.89 1241.31 L1748.7 1241.31 Q1746.24 1241.31 1745.3 1240.4 Q1744.36 1239.47 1744.36 1237.04 L1744.36 1230 L1742.8 1230 L1742.8 1228.35 L1744.36 1228.35 L1744.36 1224.67 L1746.5 1224.67 Z" fill="#000000" fill-rule="evenodd" fill-opacity="1" /><path clip-path="url(#clip920)" d="M1754.4 1239.34 L1758.22 1239.34 L1758.22 1226.16 L1754.06 1226.99 L1754.06 1224.87 L1758.19 1224.03 L1760.53 1224.03 L1760.53 1239.34 L1764.35 1239.34 L1764.35 1241.31 L1754.4 1241.31 L1754.4 1239.34 Z" fill="#000000" fill-rule="evenodd" fill-opacity="1" /><path clip-path="url(#clip920)" d="M1774.36 1231.74 Q1772.79 1231.74 1771.86 1232.82 Q1770.95 1233.89 1770.95 1235.77 Q1770.95 1237.63 1771.86 1238.72 Q1772.79 1239.8 1774.36 1239.8 Q1775.93 1239.8 1776.85 1238.72 Q1777.78 1237.63 1777.78 1235.77 Q1777.78 1233.89 1776.85 1232.82 Q1775.93 1231.74 1774.36 1231.74 M1779 1224.41 L1779 1226.54 Q1778.12 1226.13 1777.22 1225.91 Q1776.33 1225.69 1775.45 1225.69 Q1773.13 1225.69 1771.91 1227.25 Q1770.69 1228.81 1770.52 1231.97 Q1771.2 1230.96 1772.23 1230.43 Q1773.26 1229.89 1774.5 1229.89 Q1777.1 1229.89 1778.61 1231.47 Q1780.12 1233.05 1780.12 1235.77 Q1780.12 1238.43 1778.55 1240.04 Q1776.98 1241.65 1774.36 1241.65 Q1771.36 1241.65 1769.78 1239.36 Q1768.19 1237.05 1768.19 1232.69 Q1768.19 1228.59 1770.14 1226.16 Q1772.08 1223.72 1775.36 1223.72 Q1776.24 1223.72 1777.13 1223.89 Q1778.03 1224.07 1779 1224.41 Z" fill="#000000" fill-rule="evenodd" fill-opacity="1" /><path clip-path="url(#clip920)" d="M620.315 1186.65 L630.246 1186.65 L630.246 1188.62 L622.653 1188.62 L622.653 1193.71 L629.505 1193.71 L629.505 1195.68 L622.653 1195.68 L622.653 1203.93 L620.315 1203.93 L620.315 1186.65 Z" fill="#000000" fill-rule="evenodd" fill-opacity="1" /><path clip-path="url(#clip920)" d="M633.857 1185.92 L635.986 1185.92 L635.986 1203.93 L633.857 1203.93 L633.857 1185.92 Z" fill="#000000" fill-rule="evenodd" fill-opacity="1" /><path clip-path="url(#clip920)" d="M645.465 1192.46 Q643.752 1192.46 642.757 1193.8 Q641.762 1195.14 641.762 1197.46 Q641.762 1199.79 642.746 1201.13 Q643.741 1202.46 645.465 1202.46 Q647.167 1202.46 648.162 1201.12 Q649.158 1199.78 649.158 1197.46 Q649.158 1195.16 648.162 1193.82 Q647.167 1192.46 645.465 1192.46 M645.465 1190.66 Q648.243 1190.66 649.829 1192.46 Q651.414 1194.27 651.414 1197.46 Q651.414 1200.65 649.829 1202.46 Q648.243 1204.27 645.465 1204.27 Q642.676 1204.27 641.09 1202.46 Q639.516 1200.65 639.516 1197.46 Q639.516 1194.27 641.09 1192.46 Q642.676 1190.66 645.465 1190.66 Z" fill="#000000" fill-rule="evenodd" fill-opacity="1" /><path clip-path="url(#clip920)" d="M660.836 1197.42 Q658.255 1197.42 657.259 1198.01 Q656.264 1198.6 656.264 1200.02 Q656.264 1201.15 657.005 1201.83 Q657.757 1202.49 659.042 1202.49 Q660.813 1202.49 661.877 1201.24 Q662.954 1199.97 662.954 1197.89 L662.954 1197.42 L660.836 1197.42 M665.083 1196.54 L665.083 1203.93 L662.954 1203.93 L662.954 1201.96 Q662.225 1203.15 661.137 1203.71 Q660.049 1204.27 658.475 1204.27 Q656.484 1204.27 655.303 1203.16 Q654.134 1202.03 654.134 1200.16 Q654.134 1197.97 655.593 1196.86 Q657.063 1195.75 659.968 1195.75 L662.954 1195.75 L662.954 1195.54 Q662.954 1194.07 661.982 1193.27 Q661.021 1192.46 659.273 1192.46 Q658.162 1192.46 657.109 1192.73 Q656.056 1192.99 655.083 1193.53 L655.083 1191.56 Q656.252 1191.11 657.352 1190.89 Q658.451 1190.66 659.493 1190.66 Q662.306 1190.66 663.695 1192.11 Q665.083 1193.57 665.083 1196.54 Z" fill="#000000" fill-rule="evenodd" fill-opacity="1" /><path clip-path="url(#clip920)" d="M671.576 1187.29 L671.576 1190.97 L675.963 1190.97 L675.963 1192.62 L671.576 1192.62 L671.576 1199.66 Q671.576 1201.25 672.005 1201.7 Q672.444 1202.15 673.775 1202.15 L675.963 1202.15 L675.963 1203.93 L673.775 1203.93 Q671.31 1203.93 670.373 1203.02 Q669.435 1202.09 669.435 1199.66 L669.435 1192.62 L667.873 1192.62 L667.873 1190.97 L669.435 1190.97 L669.435 1187.29 L671.576 1187.29 Z" fill="#000000" fill-rule="evenodd" fill-opacity="1" /><path clip-path="url(#clip920)" d="M686.148 1194.61 Q687.826 1194.97 688.764 1196.11 Q689.713 1197.24 689.713 1198.91 Q689.713 1201.47 687.954 1202.87 Q686.194 1204.27 682.954 1204.27 Q681.866 1204.27 680.708 1204.05 Q679.562 1203.84 678.336 1203.41 L678.336 1201.15 Q679.308 1201.72 680.465 1202.01 Q681.623 1202.3 682.884 1202.3 Q685.083 1202.3 686.229 1201.43 Q687.387 1200.56 687.387 1198.91 Q687.387 1197.38 686.31 1196.52 Q685.245 1195.66 683.336 1195.66 L681.322 1195.66 L681.322 1193.74 L683.428 1193.74 Q685.153 1193.74 686.067 1193.05 Q686.981 1192.36 686.981 1191.06 Q686.981 1189.73 686.032 1189.02 Q685.095 1188.31 683.336 1188.31 Q682.375 1188.31 681.275 1188.52 Q680.176 1188.72 678.856 1189.16 L678.856 1187.08 Q680.187 1186.71 681.345 1186.52 Q682.514 1186.34 683.544 1186.34 Q686.206 1186.34 687.757 1187.55 Q689.308 1188.76 689.308 1190.82 Q689.308 1192.25 688.486 1193.25 Q687.664 1194.23 686.148 1194.61 Z" fill="#000000" fill-rule="evenodd" fill-opacity="1" /><path clip-path="url(#clip920)" d="M696.16 1201.96 L704.319 1201.96 L704.319 1203.93 L693.347 1203.93 L693.347 1201.96 Q694.678 1200.59 696.97 1198.27 Q699.273 1195.95 699.863 1195.27 Q700.986 1194.01 701.426 1193.15 Q701.877 1192.27 701.877 1191.42 Q701.877 1190.04 700.905 1189.18 Q699.944 1188.31 698.393 1188.31 Q697.294 1188.31 696.067 1188.69 Q694.852 1189.07 693.463 1189.85 L693.463 1187.49 Q694.875 1186.92 696.102 1186.63 Q697.329 1186.34 698.347 1186.34 Q701.032 1186.34 702.629 1187.68 Q704.227 1189.02 704.227 1191.27 Q704.227 1192.33 703.822 1193.3 Q703.428 1194.24 702.375 1195.54 Q702.086 1195.88 700.535 1197.49 Q698.984 1199.08 696.16 1201.96 Z" fill="#000000" fill-rule="evenodd" fill-opacity="1" /><path clip-path="url(#clip920)" d="M1362.53 1329.04 L1372.46 1329.04 L1372.46 1331.01 L1364.87 1331.01 L1364.87 1336.1 L1371.72 1336.1 L1371.72 1338.07 L1364.87 1338.07 L1364.87 1346.32 L1362.53 1346.32 L1362.53 1329.04 Z" fill="#000000" fill-rule="evenodd" fill-opacity="1" /><path clip-path="url(#clip920)" d="M1376.07 1328.31 L1378.2 1328.31 L1378.2 1346.32 L1376.07 1346.32 L1376.07 1328.31 Z" fill="#000000" fill-rule="evenodd" fill-opacity="1" /><path clip-path="url(#clip920)" d="M1387.68 1334.85 Q1385.97 1334.85 1384.97 1336.2 Q1383.98 1337.53 1383.98 1339.85 Q1383.98 1342.18 1384.96 1343.52 Q1385.96 1344.85 1387.68 1344.85 Q1389.38 1344.85 1390.38 1343.51 Q1391.37 1342.17 1391.37 1339.85 Q1391.37 1337.55 1390.38 1336.21 Q1389.38 1334.85 1387.68 1334.85 M1387.68 1333.05 Q1390.46 1333.05 1392.05 1334.85 Q1393.63 1336.66 1393.63 1339.85 Q1393.63 1343.04 1392.05 1344.85 Q1390.46 1346.66 1387.68 1346.66 Q1384.89 1346.66 1383.31 1344.85 Q1381.73 1343.04 1381.73 1339.85 Q1381.73 1336.66 1383.31 1334.85 Q1384.89 1333.05 1387.68 1333.05 Z" fill="#000000" fill-rule="evenodd" fill-opacity="1" /><path clip-path="url(#clip920)" d="M1403.05 1339.81 Q1400.47 1339.81 1399.48 1340.4 Q1398.48 1340.99 1398.48 1342.41 Q1398.48 1343.55 1399.22 1344.22 Q1399.97 1344.88 1401.26 1344.88 Q1403.03 1344.88 1404.09 1343.63 Q1405.17 1342.36 1405.17 1340.28 L1405.17 1339.81 L1403.05 1339.81 M1407.3 1338.93 L1407.3 1346.32 L1405.17 1346.32 L1405.17 1344.36 Q1404.44 1345.54 1403.35 1346.1 Q1402.27 1346.66 1400.69 1346.66 Q1398.7 1346.66 1397.52 1345.55 Q1396.35 1344.42 1396.35 1342.55 Q1396.35 1340.36 1397.81 1339.25 Q1399.28 1338.14 1402.19 1338.14 L1405.17 1338.14 L1405.17 1337.93 Q1405.17 1336.46 1404.2 1335.66 Q1403.24 1334.85 1401.49 1334.85 Q1400.38 1334.85 1399.33 1335.12 Q1398.27 1335.39 1397.3 1335.92 L1397.3 1333.95 Q1398.47 1333.5 1399.57 1333.28 Q1400.67 1333.05 1401.71 1333.05 Q1404.52 1333.05 1405.91 1334.51 Q1407.3 1335.96 1407.3 1338.93 Z" fill="#000000" fill-rule="evenodd" fill-opacity="1" /><path clip-path="url(#clip920)" d="M1413.79 1329.68 L1413.79 1333.36 L1418.18 1333.36 L1418.18 1335.01 L1413.79 1335.01 L1413.79 1342.05 Q1413.79 1343.64 1414.22 1344.09 Q1414.66 1344.54 1415.99 1344.54 L1418.18 1344.54 L1418.18 1346.32 L1415.99 1346.32 Q1413.53 1346.32 1412.59 1345.41 Q1411.65 1344.48 1411.65 1342.05 L1411.65 1335.01 L1410.09 1335.01 L1410.09 1333.36 L1411.65 1333.36 L1411.65 1329.68 L1413.79 1329.68 Z" fill="#000000" fill-rule="evenodd" fill-opacity="1" /><path clip-path="url(#clip920)" d="M1426.57 1336.75 Q1425 1336.75 1424.07 1337.83 Q1423.16 1338.9 1423.16 1340.78 Q1423.16 1342.64 1424.07 1343.73 Q1425 1344.81 1426.57 1344.81 Q1428.15 1344.81 1429.06 1343.73 Q1429.99 1342.64 1429.99 1340.78 Q1429.99 1338.9 1429.06 1337.83 Q1428.15 1336.75 1426.57 1336.75 M1431.21 1329.42 L1431.21 1331.55 Q1430.33 1331.14 1429.43 1330.92 Q1428.54 1330.7 1427.66 1330.7 Q1425.34 1330.7 1424.12 1332.26 Q1422.9 1333.82 1422.73 1336.98 Q1423.41 1335.98 1424.44 1335.44 Q1425.47 1334.9 1426.71 1334.9 Q1429.31 1334.9 1430.82 1336.48 Q1432.34 1338.06 1432.34 1340.78 Q1432.34 1343.44 1430.76 1345.05 Q1429.19 1346.66 1426.57 1346.66 Q1423.57 1346.66 1421.99 1344.37 Q1420.4 1342.06 1420.4 1337.7 Q1420.4 1333.6 1422.35 1331.17 Q1424.29 1328.73 1427.57 1328.73 Q1428.45 1328.73 1429.34 1328.9 Q1430.24 1329.08 1431.21 1329.42 Z" fill="#000000" fill-rule="evenodd" fill-opacity="1" /><path clip-path="url(#clip920)" d="M1442.79 1331.08 L1436.88 1340.3 L1442.79 1340.3 L1442.79 1331.08 M1442.17 1329.04 L1445.11 1329.04 L1445.11 1340.3 L1447.58 1340.3 L1447.58 1342.25 L1445.11 1342.25 L1445.11 1346.32 L1442.79 1346.32 L1442.79 1342.25 L1434.99 1342.25 L1434.99 1339.99 L1442.17 1329.04 Z" fill="#000000" fill-rule="evenodd" fill-opacity="1" /></svg>
