<?xml version="1.0" encoding="utf-8"?>
<svg xmlns="http://www.w3.org/2000/svg" xmlns:xlink="http://www.w3.org/1999/xlink" width="600" height="400" viewBox="0 0 2400 1600">
<defs>
  <clipPath id="clip700">
    <rect x="0" y="0" width="2400" height="1600"/>
  </clipPath>
</defs>
<path clip-path="url(#clip700)" d="
M0 1600 L2400 1600 L2400 0 L0 0  Z
  " fill="#ffffff" fill-rule="evenodd" fill-opacity="1"/>
<defs>
  <clipPath id="clip701">
    <rect x="480" y="0" width="1681" height="1600"/>
  </clipPath>
</defs>
<path clip-path="url(#clip700)" d="
M447.244 1552.76 L1952.76 1552.76 L1952.76 47.2441 L447.244 47.2441  Z
  " fill="#ffffff" fill-rule="evenodd" fill-opacity="1"/>
<defs>
  <clipPath id="clip702">
    <rect x="447" y="47" width="1507" height="1507"/>
  </clipPath>
</defs>
<polyline clip-path="url(#clip702)" style="stroke:#000000; stroke-linecap:butt; stroke-linejoin:round; stroke-width:4; stroke-opacity:1; fill:none" points="
  1219.79,262.317 1219.79,268.429 1219.76,274.67 1219.72,281.031 1219.67,287.502 1219.61,294.074 1219.54,300.736 1219.45,307.48 1219.36,314.296 1219.26,321.174 
  1219.16,328.105 1219.04,335.078 1218.93,342.086 1218.81,349.117 1218.69,356.162 1218.57,363.213 1218.45,370.258 1218.33,377.29 1218.22,384.297 1218.11,391.271 
  1218,398.201 1217.9,405.079 1217.81,411.895 1217.73,418.639 1217.65,425.301 1217.59,431.873 1217.54,438.344 1217.5,444.705 1217.48,450.946 1217.47,457.058 
  
  "/>
<polyline clip-path="url(#clip702)" style="stroke:#000000; stroke-linecap:butt; stroke-linejoin:round; stroke-width:4; stroke-opacity:1; fill:none" points="
  1217.47,457.058 1217.48,464.73 1217.5,472.565 1217.54,480.55 1217.6,488.674 1217.66,496.923 1217.74,505.287 1217.82,513.753 1217.92,522.309 1218.02,530.943 
  1218.13,539.644 1218.25,548.398 1218.37,557.195 1218.49,566.022 1218.61,574.866 1218.74,583.717 1218.86,592.562 1218.98,601.389 1219.1,610.185 1219.22,618.94 
  1219.33,627.64 1219.43,636.275 1219.53,644.831 1219.61,653.297 1219.69,661.66 1219.76,669.91 1219.81,678.033 1219.85,686.018 1219.87,693.853 1219.88,701.526 
  
  "/>
<polyline clip-path="url(#clip702)" style="stroke:#000000; stroke-linecap:butt; stroke-linejoin:round; stroke-width:4; stroke-opacity:1; fill:none" points="
  1219.88,701.526 1219.85,706.707 1219.75,711.996 1219.6,717.386 1219.4,722.867 1219.15,728.432 1218.85,734.073 1218.52,739.782 1218.15,745.552 1217.75,751.373 
  1217.33,757.238 1216.88,763.139 1216.42,769.068 1215.95,775.017 1215.47,780.978 1214.99,786.943 1214.51,792.904 1214.04,798.853 1213.58,804.782 1213.14,810.683 
  1212.72,816.548 1212.32,822.369 1211.95,828.138 1211.61,833.847 1211.32,839.488 1211.07,845.054 1210.86,850.535 1210.71,855.924 1210.62,861.214 1210.59,866.395 
  
  "/>
<polyline clip-path="url(#clip702)" style="stroke:#000000; stroke-linecap:butt; stroke-linejoin:round; stroke-width:4; stroke-opacity:1; fill:none" points="
  1210.59,866.395 1210.19,872.449 1209.04,878.395 1207.19,884.24 1204.7,889.992 1201.62,895.66 1198.01,901.251 1193.92,906.773 1189.42,912.235 1184.55,917.644 
  1179.37,923.01 1173.95,928.338 1168.32,933.639 1162.56,938.92 1156.72,944.188 1150.84,949.452 1144.99,954.721 1139.23,960.001 1133.61,965.302 1128.18,970.631 
  1123.01,975.996 1118.14,981.405 1113.63,986.867 1109.55,992.39 1105.94,997.981 1102.86,1003.65 1100.37,1009.4 1098.52,1015.25 1097.37,1021.19 1096.97,1027.25 
  
  "/>
<polyline clip-path="url(#clip702)" style="stroke:#000000; stroke-linecap:butt; stroke-linejoin:round; stroke-width:4; stroke-opacity:1; fill:none" points="
  1210.59,866.395 1210.61,872.465 1210.68,878.663 1210.8,884.979 1210.95,891.403 1211.14,897.927 1211.37,904.541 1211.62,911.235 1211.9,918 1212.21,924.826 
  1212.53,931.704 1212.87,938.625 1213.22,945.579 1213.57,952.557 1213.94,959.549 1214.3,966.545 1214.67,973.537 1215.03,980.515 1215.38,987.469 1215.71,994.39 
  1216.04,1001.27 1216.34,1008.09 1216.62,1014.86 1216.87,1021.55 1217.1,1028.17 1217.29,1034.69 1217.45,1041.12 1217.56,1047.43 1217.63,1053.63 1217.66,1059.7 
  
  "/>
<polyline clip-path="url(#clip702)" style="stroke:#000000; stroke-linecap:butt; stroke-linejoin:round; stroke-width:4; stroke-opacity:1; fill:none" points="
  1210.59,866.395 1211.02,873.23 1212.28,879.961 1214.29,886.595 1217.02,893.14 1220.38,899.604 1224.32,905.995 1228.79,912.319 1233.71,918.586 1239.02,924.803 
  1244.68,930.976 1250.6,937.116 1256.74,943.228 1263.04,949.32 1269.42,955.401 1275.84,961.479 1282.23,967.56 1288.52,973.653 1294.66,979.765 1300.59,985.904 
  1306.24,992.078 1311.56,998.294 1316.48,1004.56 1320.94,1010.89 1324.88,1017.28 1328.25,1023.74 1330.97,1030.29 1332.99,1036.92 1334.25,1043.65 1334.68,1050.49 
  
  "/>
<polyline clip-path="url(#clip702)" style="stroke:#000000; stroke-linecap:butt; stroke-linejoin:round; stroke-width:4; stroke-opacity:1; fill:none" points="
  1210.59,866.395 1209.58,875.175 1206.64,883.372 1201.92,891.028 1195.56,898.188 1187.71,904.894 1178.5,911.189 1168.07,917.117 1156.58,922.72 1144.16,928.043 
  1130.95,933.128 1117.11,938.019 1102.76,942.758 1088.06,947.39 1073.14,951.956 1058.16,956.501 1043.24,961.068 1028.54,965.699 1014.19,970.438 1000.35,975.329 
  987.142,980.414 974.722,985.737 963.229,991.341 952.805,997.268 943.594,1003.56 935.738,1010.27 929.379,1017.43 924.661,1025.09 921.725,1033.28 920.715,1042.06 
  
  "/>
<polyline clip-path="url(#clip702)" style="stroke:#000000; stroke-linecap:butt; stroke-linejoin:round; stroke-width:4; stroke-opacity:1; fill:none" points="
  920.715,1042.06 920.048,1050.35 918.112,1058.29 914.999,1065.92 910.805,1073.26 905.622,1080.34 899.546,1087.18 892.67,1093.81 885.089,1100.24 876.895,1106.52 
  868.185,1112.65 859.051,1118.68 849.588,1124.61 839.889,1130.49 830.05,1136.32 820.163,1142.14 810.323,1147.98 800.625,1153.85 791.162,1159.79 782.028,1165.81 
  773.317,1171.95 765.124,1178.22 757.543,1184.66 750.667,1191.29 744.59,1198.13 739.408,1205.2 735.213,1212.55 732.101,1220.18 730.164,1228.12 729.498,1236.4 
  
  "/>
<polyline clip-path="url(#clip702)" style="stroke:#000000; stroke-linecap:butt; stroke-linejoin:round; stroke-width:4; stroke-opacity:1; fill:none" points="
  920.715,1042.06 920.611,1051.38 920.31,1060.89 919.825,1070.57 919.172,1080.41 918.366,1090.39 917.42,1100.51 916.35,1110.75 915.17,1121.09 913.895,1131.52 
  912.539,1142.02 911.118,1152.59 909.645,1163.21 908.135,1173.86 906.604,1184.53 905.065,1195.21 903.534,1205.89 902.024,1216.54 900.551,1227.15 899.13,1237.72 
  897.774,1248.23 896.499,1258.66 895.319,1269 894.249,1279.23 893.303,1289.35 892.496,1299.34 891.844,1309.18 891.359,1318.86 891.058,1328.36 890.954,1337.68 
  
  "/>
<polyline clip-path="url(#clip702)" style="stroke:#000000; stroke-linecap:butt; stroke-linejoin:round; stroke-width:4; stroke-opacity:1; fill:none" points="
  920.715,1042.06 920.32,1049.46 919.174,1056.82 917.33,1064.16 914.846,1071.47 911.778,1078.75 908.179,1086.02 904.108,1093.26 899.618,1100.49 894.767,1107.7 
  889.609,1114.9 884.2,1122.09 878.596,1129.27 872.853,1136.45 867.026,1143.62 861.172,1150.79 855.345,1157.96 849.602,1165.14 843.998,1172.32 838.589,1179.51 
  833.431,1186.71 828.58,1193.92 824.09,1201.15 820.018,1208.39 816.42,1215.66 813.351,1222.94 810.868,1230.25 809.024,1237.59 807.878,1244.95 807.483,1252.35 
  
  "/>
<polyline clip-path="url(#clip702)" style="stroke:#000000; stroke-linecap:butt; stroke-linejoin:round; stroke-width:4; stroke-opacity:1; fill:none" points="
  920.715,1042.06 921.19,1050.96 922.571,1059.82 924.791,1068.65 927.783,1077.44 931.479,1086.2 935.812,1094.94 940.716,1103.66 946.123,1112.35 951.966,1121.02 
  958.178,1129.68 964.692,1138.33 971.441,1146.97 978.358,1155.6 985.376,1164.22 992.426,1172.85 999.444,1181.47 1006.36,1190.1 1013.11,1198.74 1019.62,1207.39 
  1025.84,1216.05 1031.68,1224.72 1037.09,1233.41 1041.99,1242.13 1046.32,1250.86 1050.02,1259.63 1053.01,1268.42 1055.23,1277.25 1056.61,1286.11 1057.09,1295.01 
  
  "/>
<polyline clip-path="url(#clip702)" style="stroke:#000000; stroke-linecap:butt; stroke-linejoin:round; stroke-width:4; stroke-opacity:1; fill:none" points="
  920.715,1042.06 919.814,1051.75 917.197,1060.8 912.991,1069.25 907.323,1077.16 900.32,1084.56 892.109,1091.51 882.817,1098.06 872.572,1104.25 861.5,1110.13 
  849.729,1115.75 837.386,1121.16 824.598,1126.39 811.493,1131.51 798.196,1136.56 784.836,1141.58 771.539,1146.63 758.434,1151.75 745.646,1156.99 733.303,1162.39 
  721.532,1168.01 710.46,1173.89 700.215,1180.08 690.923,1186.63 682.712,1193.58 675.709,1200.98 670.041,1208.89 665.835,1217.34 663.218,1226.39 662.317,1236.08 
  
  "/>
<polyline clip-path="url(#clip702)" style="stroke:#000000; stroke-linecap:butt; stroke-linejoin:round; stroke-width:4; stroke-opacity:1; fill:none" points="
  920.715,1042.06 920.822,1048.84 921.132,1055.75 921.63,1062.78 922.301,1069.92 923.131,1077.16 924.103,1084.5 925.204,1091.91 926.418,1099.39 927.729,1106.94 
  929.123,1114.54 930.585,1122.18 932.1,1129.86 933.653,1137.56 935.228,1145.27 936.81,1152.99 938.385,1160.7 939.938,1168.4 941.452,1176.08 942.914,1183.72 
  944.309,1191.32 945.62,1198.87 946.834,1206.35 947.934,1213.77 948.907,1221.1 949.737,1228.34 950.408,1235.48 950.906,1242.51 951.216,1249.42 951.323,1256.2 
  
  "/>
<polyline clip-path="url(#clip702)" style="stroke:#000000; stroke-linecap:butt; stroke-linejoin:round; stroke-width:4; stroke-opacity:1; fill:none" points="
  1210.59,866.395 1211.54,877.672 1214.32,888.394 1218.79,898.604 1224.82,908.341 1232.26,917.648 1240.98,926.565 1250.86,935.133 1261.74,943.394 1273.51,951.387 
  1286.02,959.155 1299.13,966.738 1312.72,974.178 1326.65,981.515 1340.78,988.791 1354.97,996.045 1369.1,1003.32 1383.03,1010.66 1396.62,1018.1 1409.73,1025.68 
  1422.24,1033.45 1434.01,1041.44 1444.89,1049.7 1454.77,1058.27 1463.49,1067.19 1470.93,1076.49 1476.96,1086.23 1481.43,1096.44 1484.21,1107.16 1485.17,1118.44 
  
  "/>
<polyline clip-path="url(#clip702)" style="stroke:#000000; stroke-linecap:butt; stroke-linejoin:round; stroke-width:4; stroke-opacity:1; fill:none" points="
  1485.17,1118.44 1485.82,1125.63 1487.71,1132.38 1490.75,1138.72 1494.84,1144.7 1499.9,1150.33 1505.83,1155.65 1512.54,1160.7 1519.94,1165.51 1527.94,1170.11 
  1536.45,1174.52 1545.36,1178.8 1554.6,1182.95 1564.07,1187.03 1573.68,1191.06 1583.33,1195.07 1592.93,1199.1 1602.4,1203.18 1611.64,1207.34 1620.56,1211.61 
  1629.06,1216.03 1637.06,1220.62 1644.46,1225.43 1651.17,1230.48 1657.1,1235.8 1662.16,1241.43 1666.26,1247.41 1669.3,1253.75 1671.19,1260.5 1671.84,1267.69 
  
  "/>
<polyline clip-path="url(#clip702)" style="stroke:#000000; stroke-linecap:butt; stroke-linejoin:round; stroke-width:4; stroke-opacity:1; fill:none" points="
  1485.17,1118.44 1486.05,1126.73 1488.6,1134.47 1492.71,1141.69 1498.25,1148.45 1505.1,1154.78 1513.12,1160.73 1522.2,1166.32 1532.21,1171.61 1543.03,1176.64 
  1554.54,1181.44 1566.6,1186.05 1579.09,1190.53 1591.9,1194.9 1604.9,1199.21 1617.95,1203.5 1630.95,1207.81 1643.75,1212.18 1656.25,1216.66 1668.31,1221.27 
  1679.82,1226.07 1690.64,1231.1 1700.65,1236.39 1709.73,1241.98 1717.75,1247.92 1724.6,1254.25 1730.13,1261.01 1734.25,1268.24 1736.8,1275.98 1737.68,1284.27 
  
  "/>
<polyline clip-path="url(#clip702)" style="stroke:#000000; stroke-linecap:butt; stroke-linejoin:round; stroke-width:4; stroke-opacity:1; fill:none" points="
  1485.17,1118.44 1484.86,1122.93 1483.98,1127.33 1482.57,1131.64 1480.67,1135.87 1478.32,1140.03 1475.56,1144.12 1472.44,1148.16 1469.01,1152.15 1465.29,1156.09 
  1461.34,1159.99 1457.19,1163.87 1452.9,1167.71 1448.5,1171.55 1444.04,1175.37 1439.56,1179.19 1435.09,1183.01 1430.69,1186.84 1426.4,1190.69 1422.26,1194.56 
  1418.31,1198.47 1414.59,1202.41 1411.15,1206.4 1408.03,1210.43 1405.28,1214.53 1402.92,1218.69 1401.02,1222.92 1399.61,1227.23 1398.73,1231.63 1398.43,1236.12 
  
  "/>
<polyline clip-path="url(#clip702)" style="stroke:#000000; stroke-linecap:butt; stroke-linejoin:round; stroke-width:4; stroke-opacity:1; fill:none" points="
  1485.17,1118.44 1485.62,1123.74 1486.95,1128.76 1489.09,1133.53 1491.96,1138.07 1495.52,1142.39 1499.69,1146.52 1504.41,1150.47 1509.61,1154.27 1515.23,1157.94 
  1521.2,1161.5 1527.47,1164.96 1533.96,1168.35 1540.62,1171.7 1547.37,1175.01 1554.15,1178.31 1560.9,1181.62 1567.55,1184.97 1574.04,1188.36 1580.31,1191.82 
  1586.29,1195.38 1591.91,1199.05 1597.11,1202.85 1601.83,1206.8 1605.99,1210.93 1609.55,1215.25 1612.43,1219.79 1614.56,1224.56 1615.89,1229.58 1616.35,1234.88 
  
  "/>
<polyline clip-path="url(#clip702)" style="stroke:#000000; stroke-linecap:butt; stroke-linejoin:round; stroke-width:4; stroke-opacity:1; fill:none" points="
  1485.17,1118.44 1485.13,1125.19 1485.04,1132.08 1484.9,1139.1 1484.71,1146.25 1484.47,1153.5 1484.19,1160.85 1483.87,1168.29 1483.52,1175.82 1483.14,1183.4 
  1482.73,1191.05 1482.31,1198.74 1481.87,1206.48 1481.42,1214.23 1480.97,1222 1480.51,1229.78 1480.05,1237.55 1479.6,1245.31 1479.17,1253.04 1478.74,1260.74 
  1478.34,1268.38 1477.96,1275.97 1477.61,1283.49 1477.29,1290.93 1477.01,1298.29 1476.77,1305.54 1476.58,1312.68 1476.43,1319.71 1476.34,1326.6 1476.31,1333.35 
  
  "/>
<path clip-path="url(#clip702)" d="
M1238.44 262.317 L1229.12 246.169 L1210.47 246.169 L1201.15 262.317 L1210.47 278.465 L1229.12 278.465 L1238.44 262.317 L1238.44 262.317  Z
  " fill="#009af9" fill-rule="evenodd" fill-opacity="1"/>
<polyline clip-path="url(#clip702)" style="stroke:#000000; stroke-linecap:butt; stroke-linejoin:round; stroke-width:4; stroke-opacity:1; fill:none" points="
  1238.44,262.317 1229.12,246.169 1210.47,246.169 1201.15,262.317 1210.47,278.465 1229.12,278.465 1238.44,262.317 
  "/>
<path clip-path="url(#clip702)" d="
M1249.93 457.058 L1233.7 428.943 L1201.24 428.943 L1185.01 457.058 L1201.24 485.173 L1233.7 485.173 L1249.93 457.058 L1249.93 457.058  Z
  " fill="#009af9" fill-rule="evenodd" fill-opacity="1"/>
<polyline clip-path="url(#clip702)" style="stroke:#000000; stroke-linecap:butt; stroke-linejoin:round; stroke-width:4; stroke-opacity:1; fill:none" points="
  1249.93,457.058 1233.7,428.943 1201.24,428.943 1185.01,457.058 1201.24,485.173 1233.7,485.173 1249.93,457.058 
  "/>
<path clip-path="url(#clip702)" d="
M1243.35 701.526 L1231.62 681.199 L1208.14 681.199 L1196.41 701.526 L1208.14 721.852 L1231.62 721.852 L1243.35 701.526 L1243.35 701.526  Z
  " fill="#009af9" fill-rule="evenodd" fill-opacity="1"/>
<polyline clip-path="url(#clip702)" style="stroke:#000000; stroke-linecap:butt; stroke-linejoin:round; stroke-width:4; stroke-opacity:1; fill:none" points="
  1243.35,701.526 1231.62,681.199 1208.14,681.199 1196.41,701.526 1208.14,721.852 1231.62,721.852 1243.35,701.526 
  "/>
<path clip-path="url(#clip702)" d="
M1247.31 866.395 L1228.95 834.59 L1192.22 834.59 L1173.86 866.395 L1192.22 898.2 L1228.95 898.2 L1247.31 866.395 L1247.31 866.395  Z
  " fill="#009af9" fill-rule="evenodd" fill-opacity="1"/>
<polyline clip-path="url(#clip702)" style="stroke:#000000; stroke-linecap:butt; stroke-linejoin:round; stroke-width:4; stroke-opacity:1; fill:none" points="
  1247.31,866.395 1228.95,834.59 1192.22,834.59 1173.86,866.395 1192.22,898.2 1228.95,898.2 1247.31,866.395 
  "/>
<path clip-path="url(#clip702)" d="
M1120.44 1027.25 L1108.71 1006.92 L1085.23 1006.92 L1073.5 1027.25 L1085.23 1047.57 L1108.71 1047.57 L1120.44 1027.25 L1120.44 1027.25  Z
  " fill="#009af9" fill-rule="evenodd" fill-opacity="1"/>
<polyline clip-path="url(#clip702)" style="stroke:#000000; stroke-linecap:butt; stroke-linejoin:round; stroke-width:4; stroke-opacity:1; fill:none" points="
  1120.44,1027.25 1108.71,1006.92 1085.23,1006.92 1073.5,1027.25 1085.23,1047.57 1108.71,1047.57 1120.44,1027.25 
  "/>
<path clip-path="url(#clip702)" d="
M1277.92 1059.7 L1247.79 1007.51 L1187.53 1007.51 L1157.39 1059.7 L1187.53 1111.89 L1247.79 1111.89 L1277.92 1059.7 L1277.92 1059.7  Z
  " fill="#009af9" fill-rule="evenodd" fill-opacity="1"/>
<polyline clip-path="url(#clip702)" style="stroke:#000000; stroke-linecap:butt; stroke-linejoin:round; stroke-width:4; stroke-opacity:1; fill:none" points="
  1277.92,1059.7 1247.79,1007.51 1187.53,1007.51 1157.39,1059.7 1187.53,1111.89 1247.79,1111.89 1277.92,1059.7 
  "/>
<path clip-path="url(#clip702)" d="
M1394.94 1050.49 L1364.81 998.297 L1304.55 998.297 L1274.42 1050.49 L1304.55 1102.67 L1364.81 1102.67 L1394.94 1050.49 L1394.94 1050.49  Z
  " fill="#009af9" fill-rule="evenodd" fill-opacity="1"/>
<polyline clip-path="url(#clip702)" style="stroke:#000000; stroke-linecap:butt; stroke-linejoin:round; stroke-width:4; stroke-opacity:1; fill:none" points="
  1394.94,1050.49 1364.81,998.297 1304.55,998.297 1274.42,1050.49 1304.55,1102.67 1364.81,1102.67 1394.94,1050.49 
  "/>
<path clip-path="url(#clip702)" d="
M953.179 1042.06 L936.947 1013.95 L904.483 1013.95 L888.25 1042.06 L904.483 1070.18 L936.947 1070.18 L953.179 1042.06 L953.179 1042.06  Z
  " fill="#009af9" fill-rule="evenodd" fill-opacity="1"/>
<polyline clip-path="url(#clip702)" style="stroke:#000000; stroke-linecap:butt; stroke-linejoin:round; stroke-width:4; stroke-opacity:1; fill:none" points="
  953.179,1042.06 936.947,1013.95 904.483,1013.95 888.25,1042.06 904.483,1070.18 936.947,1070.18 953.179,1042.06 
  "/>
<path clip-path="url(#clip702)" d="
M761.962 1236.4 L745.73 1208.29 L713.266 1208.29 L697.033 1236.4 L713.266 1264.52 L745.73 1264.52 L761.962 1236.4 L761.962 1236.4  Z
  " fill="#009af9" fill-rule="evenodd" fill-opacity="1"/>
<polyline clip-path="url(#clip702)" style="stroke:#000000; stroke-linecap:butt; stroke-linejoin:round; stroke-width:4; stroke-opacity:1; fill:none" points="
  761.962,1236.4 745.73,1208.29 713.266,1208.29 697.033,1236.4 713.266,1264.52 745.73,1264.52 761.962,1236.4 
  "/>
<path clip-path="url(#clip702)" d="
M923.419 1337.68 L907.186 1309.57 L874.722 1309.57 L858.49 1337.68 L874.722 1365.8 L907.186 1365.8 L923.419 1337.68 L923.419 1337.68  Z
  " fill="#009af9" fill-rule="evenodd" fill-opacity="1"/>
<polyline clip-path="url(#clip702)" style="stroke:#000000; stroke-linecap:butt; stroke-linejoin:round; stroke-width:4; stroke-opacity:1; fill:none" points="
  923.419,1337.68 907.186,1309.57 874.722,1309.57 858.49,1337.68 874.722,1365.8 907.186,1365.8 923.419,1337.68 
  "/>
<path clip-path="url(#clip702)" d="
M835.542 1252.35 L821.512 1228.05 L793.454 1228.05 L779.425 1252.35 L793.454 1276.65 L821.512 1276.65 L835.542 1252.35 L835.542 1252.35  Z
  " fill="#009af9" fill-rule="evenodd" fill-opacity="1"/>
<polyline clip-path="url(#clip702)" style="stroke:#000000; stroke-linecap:butt; stroke-linejoin:round; stroke-width:4; stroke-opacity:1; fill:none" points="
  835.542,1252.35 821.512,1228.05 793.454,1228.05 779.425,1252.35 793.454,1276.65 821.512,1276.65 835.542,1252.35 
  "/>
<path clip-path="url(#clip702)" d="
M1085.15 1295.01 L1071.12 1270.71 L1043.06 1270.71 L1029.03 1295.01 L1043.06 1319.31 L1071.12 1319.31 L1085.15 1295.01 L1085.15 1295.01  Z
  " fill="#009af9" fill-rule="evenodd" fill-opacity="1"/>
<polyline clip-path="url(#clip702)" style="stroke:#000000; stroke-linecap:butt; stroke-linejoin:round; stroke-width:4; stroke-opacity:1; fill:none" points="
  1085.15,1295.01 1071.12,1270.71 1043.06,1270.71 1029.03,1295.01 1043.06,1319.31 1071.12,1319.31 1085.15,1295.01 
  "/>
<path clip-path="url(#clip702)" d="
M690.376 1236.08 L676.346 1211.78 L648.288 1211.78 L634.259 1236.08 L648.288 1260.38 L676.346 1260.38 L690.376 1236.08 L690.376 1236.08  Z
  " fill="#009af9" fill-rule="evenodd" fill-opacity="1"/>
<polyline clip-path="url(#clip702)" style="stroke:#000000; stroke-linecap:butt; stroke-linejoin:round; stroke-width:4; stroke-opacity:1; fill:none" points="
  690.376,1236.08 676.346,1211.78 648.288,1211.78 634.259,1236.08 648.288,1260.38 676.346,1260.38 690.376,1236.08 
  "/>
<path clip-path="url(#clip702)" d="
M974.794 1256.2 L963.058 1235.87 L939.587 1235.87 L927.852 1256.2 L939.587 1276.53 L963.058 1276.53 L974.794 1256.2 L974.794 1256.2  Z
  " fill="#009af9" fill-rule="evenodd" fill-opacity="1"/>
<polyline clip-path="url(#clip702)" style="stroke:#000000; stroke-linecap:butt; stroke-linejoin:round; stroke-width:4; stroke-opacity:1; fill:none" points="
  974.794,1256.2 963.058,1235.87 939.587,1235.87 927.852,1256.2 939.587,1276.53 963.058,1276.53 974.794,1256.2 
  "/>
<path clip-path="url(#clip702)" d="
M1526.03 1118.44 L1505.6 1083.05 L1464.73 1083.05 L1444.3 1118.44 L1464.73 1153.83 L1505.6 1153.83 L1526.03 1118.44 L1526.03 1118.44  Z
  " fill="#009af9" fill-rule="evenodd" fill-opacity="1"/>
<polyline clip-path="url(#clip702)" style="stroke:#000000; stroke-linecap:butt; stroke-linejoin:round; stroke-width:4; stroke-opacity:1; fill:none" points="
  1526.03,1118.44 1505.6,1083.05 1464.73,1083.05 1444.3,1118.44 1464.73,1153.83 1505.6,1153.83 1526.03,1118.44 
  "/>
<path clip-path="url(#clip702)" d="
M1708.56 1267.69 L1690.2 1235.89 L1653.48 1235.89 L1635.11 1267.69 L1653.48 1299.5 L1690.2 1299.5 L1708.56 1267.69 L1708.56 1267.69  Z
  " fill="#009af9" fill-rule="evenodd" fill-opacity="1"/>
<polyline clip-path="url(#clip702)" style="stroke:#000000; stroke-linecap:butt; stroke-linejoin:round; stroke-width:4; stroke-opacity:1; fill:none" points="
  1708.56,1267.69 1690.2,1235.89 1653.48,1235.89 1635.11,1267.69 1653.48,1299.5 1690.2,1299.5 1708.56,1267.69 
  "/>
<path clip-path="url(#clip702)" d="
M1770.15 1284.27 L1753.92 1256.15 L1721.45 1256.15 L1705.22 1284.27 L1721.45 1312.38 L1753.92 1312.38 L1770.15 1284.27 L1770.15 1284.27  Z
  " fill="#009af9" fill-rule="evenodd" fill-opacity="1"/>
<polyline clip-path="url(#clip702)" style="stroke:#000000; stroke-linecap:butt; stroke-linejoin:round; stroke-width:4; stroke-opacity:1; fill:none" points="
  1770.15,1284.27 1753.92,1256.15 1721.45,1256.15 1705.22,1284.27 1721.45,1312.38 1753.92,1312.38 1770.15,1284.27 
  "/>
<path clip-path="url(#clip702)" d="
M1430.89 1236.12 L1414.66 1208 L1382.2 1208 L1365.96 1236.12 L1382.2 1264.23 L1414.66 1264.23 L1430.89 1236.12 L1430.89 1236.12  Z
  " fill="#009af9" fill-rule="evenodd" fill-opacity="1"/>
<polyline clip-path="url(#clip702)" style="stroke:#000000; stroke-linecap:butt; stroke-linejoin:round; stroke-width:4; stroke-opacity:1; fill:none" points="
  1430.89,1236.12 1414.66,1208 1382.2,1208 1365.96,1236.12 1382.2,1264.23 1414.66,1264.23 1430.89,1236.12 
  "/>
<path clip-path="url(#clip702)" d="
M1648.81 1234.88 L1632.58 1206.76 L1600.12 1206.76 L1583.88 1234.88 L1600.12 1262.99 L1632.58 1262.99 L1648.81 1234.88 L1648.81 1234.88  Z
  " fill="#009af9" fill-rule="evenodd" fill-opacity="1"/>
<polyline clip-path="url(#clip702)" style="stroke:#000000; stroke-linecap:butt; stroke-linejoin:round; stroke-width:4; stroke-opacity:1; fill:none" points="
  1648.81,1234.88 1632.58,1206.76 1600.12,1206.76 1583.88,1234.88 1600.12,1262.99 1632.58,1262.99 1648.81,1234.88 
  "/>
<path clip-path="url(#clip702)" d="
M1504.37 1333.35 L1490.34 1309.05 L1462.28 1309.05 L1448.25 1333.35 L1462.28 1357.65 L1490.34 1357.65 L1504.37 1333.35 L1504.37 1333.35  Z
  " fill="#009af9" fill-rule="evenodd" fill-opacity="1"/>
<polyline clip-path="url(#clip702)" style="stroke:#000000; stroke-linecap:butt; stroke-linejoin:round; stroke-width:4; stroke-opacity:1; fill:none" points="
  1504.37,1333.35 1490.34,1309.05 1462.28,1309.05 1448.25,1333.35 1462.28,1357.65 1490.34,1357.65 1504.37,1333.35 
  "/>
<circle clip-path="url(#clip702)" style="fill:#009af9; stroke:none; fill-opacity:1" cx="1219.79" cy="262.317" r="2"/>
<circle clip-path="url(#clip702)" style="fill:#009af9; stroke:none; fill-opacity:1" cx="1217.47" cy="457.058" r="2"/>
<circle clip-path="url(#clip702)" style="fill:#009af9; stroke:none; fill-opacity:1" cx="1219.88" cy="701.526" r="2"/>
<circle clip-path="url(#clip702)" style="fill:#009af9; stroke:none; fill-opacity:1" cx="1210.59" cy="866.395" r="2"/>
<circle clip-path="url(#clip702)" style="fill:#009af9; stroke:none; fill-opacity:1" cx="1096.97" cy="1027.25" r="2"/>
<circle clip-path="url(#clip702)" style="fill:#009af9; stroke:none; fill-opacity:1" cx="1217.66" cy="1059.7" r="2"/>
<circle clip-path="url(#clip702)" style="fill:#009af9; stroke:none; fill-opacity:1" cx="1334.68" cy="1050.49" r="2"/>
<circle clip-path="url(#clip702)" style="fill:#009af9; stroke:none; fill-opacity:1" cx="920.715" cy="1042.06" r="2"/>
<circle clip-path="url(#clip702)" style="fill:#009af9; stroke:none; fill-opacity:1" cx="729.498" cy="1236.4" r="2"/>
<circle clip-path="url(#clip702)" style="fill:#009af9; stroke:none; fill-opacity:1" cx="890.954" cy="1337.68" r="2"/>
<circle clip-path="url(#clip702)" style="fill:#009af9; stroke:none; fill-opacity:1" cx="807.483" cy="1252.35" r="2"/>
<circle clip-path="url(#clip702)" style="fill:#009af9; stroke:none; fill-opacity:1" cx="1057.09" cy="1295.01" r="2"/>
<circle clip-path="url(#clip702)" style="fill:#009af9; stroke:none; fill-opacity:1" cx="662.317" cy="1236.08" r="2"/>
<circle clip-path="url(#clip702)" style="fill:#009af9; stroke:none; fill-opacity:1" cx="951.323" cy="1256.2" r="2"/>
<circle clip-path="url(#clip702)" style="fill:#009af9; stroke:none; fill-opacity:1" cx="1485.17" cy="1118.44" r="2"/>
<circle clip-path="url(#clip702)" style="fill:#009af9; stroke:none; fill-opacity:1" cx="1671.84" cy="1267.69" r="2"/>
<circle clip-path="url(#clip702)" style="fill:#009af9; stroke:none; fill-opacity:1" cx="1737.68" cy="1284.27" r="2"/>
<circle clip-path="url(#clip702)" style="fill:#009af9; stroke:none; fill-opacity:1" cx="1398.43" cy="1236.12" r="2"/>
<circle clip-path="url(#clip702)" style="fill:#009af9; stroke:none; fill-opacity:1" cx="1616.35" cy="1234.88" r="2"/>
<circle clip-path="url(#clip702)" style="fill:#009af9; stroke:none; fill-opacity:1" cx="1476.31" cy="1333.35" r="2"/>
<path clip-path="url(#clip700)" d="M1205.52 255.98 L1202.35 264.58 L1208.71 264.58 L1205.52 255.98 M1204.2 253.677 L1206.85 253.677 L1213.44 270.957 L1211.01 270.957 L1209.43 266.524 L1201.65 266.524 L1200.07 270.957 L1197.61 270.957 L1204.2 253.677 Z" fill="#000000" fill-rule="evenodd" fill-opacity="1" /><path clip-path="url(#clip700)" d="M1226.65 263.133 L1226.65 270.957 L1224.52 270.957 L1224.52 263.203 Q1224.52 261.362 1223.8 260.448 Q1223.08 259.534 1221.65 259.534 Q1219.92 259.534 1218.93 260.633 Q1217.93 261.733 1217.93 263.631 L1217.93 270.957 L1215.79 270.957 L1215.79 257.994 L1217.93 257.994 L1217.93 260.008 Q1218.69 258.839 1219.72 258.261 Q1220.77 257.682 1222.12 257.682 Q1224.35 257.682 1225.5 259.071 Q1226.65 260.448 1226.65 263.133 Z" fill="#000000" fill-rule="evenodd" fill-opacity="1" /><path clip-path="url(#clip700)" d="M1236.29 272.161 Q1235.38 274.476 1234.53 275.182 Q1233.67 275.888 1232.24 275.888 L1230.53 275.888 L1230.53 274.105 L1231.78 274.105 Q1232.66 274.105 1233.15 273.689 Q1233.64 273.272 1234.23 271.721 L1234.61 270.749 L1229.37 257.994 L1231.62 257.994 L1235.67 268.133 L1239.72 257.994 L1241.98 257.994 L1236.29 272.161 Z" fill="#000000" fill-rule="evenodd" fill-opacity="1" /><path clip-path="url(#clip700)" d="M1171.02 448.418 L1174.17 448.418 L1181.83 462.874 L1181.83 448.418 L1184.1 448.418 L1184.1 465.698 L1180.95 465.698 L1173.29 451.242 L1173.29 465.698 L1171.02 465.698 L1171.02 448.418 Z" fill="#000000" fill-rule="evenodd" fill-opacity="1" /><path clip-path="url(#clip700)" d="M1188.44 460.582 L1188.44 452.735 L1190.57 452.735 L1190.57 460.501 Q1190.57 462.342 1191.29 463.267 Q1192.01 464.182 1193.44 464.182 Q1195.17 464.182 1196.16 463.082 Q1197.17 461.983 1197.17 460.085 L1197.17 452.735 L1199.3 452.735 L1199.3 465.698 L1197.17 465.698 L1197.17 463.707 Q1196.39 464.888 1195.36 465.466 Q1194.35 466.034 1192.99 466.034 Q1190.76 466.034 1189.6 464.645 Q1188.44 463.256 1188.44 460.582 M1193.8 452.423 L1193.8 452.423 Z" fill="#000000" fill-rule="evenodd" fill-opacity="1" /><path clip-path="url(#clip700)" d="M1213.78 455.223 Q1214.58 453.788 1215.69 453.105 Q1216.8 452.423 1218.3 452.423 Q1220.33 452.423 1221.43 453.846 Q1222.53 455.258 1222.53 457.874 L1222.53 465.698 L1220.39 465.698 L1220.39 457.943 Q1220.39 456.08 1219.73 455.177 Q1219.07 454.274 1217.71 454.274 Q1216.06 454.274 1215.1 455.374 Q1214.14 456.473 1214.14 458.372 L1214.14 465.698 L1212 465.698 L1212 457.943 Q1212 456.068 1211.34 455.177 Q1210.68 454.274 1209.3 454.274 Q1207.67 454.274 1206.71 455.386 Q1205.75 456.485 1205.75 458.372 L1205.75 465.698 L1203.6 465.698 L1203.6 452.735 L1205.75 452.735 L1205.75 454.749 Q1206.47 453.557 1207.49 452.99 Q1208.51 452.423 1209.91 452.423 Q1211.32 452.423 1212.31 453.14 Q1213.3 453.858 1213.78 455.223 Z" fill="#000000" fill-rule="evenodd" fill-opacity="1" /><path clip-path="url(#clip700)" d="M1236.08 459.228 Q1236.08 456.879 1235.11 455.548 Q1234.15 454.205 1232.46 454.205 Q1230.77 454.205 1229.8 455.548 Q1228.84 456.879 1228.84 459.228 Q1228.84 461.578 1229.8 462.92 Q1230.77 464.251 1232.46 464.251 Q1234.15 464.251 1235.11 462.92 Q1236.08 461.578 1236.08 459.228 M1228.84 454.703 Q1229.51 453.545 1230.53 452.99 Q1231.56 452.423 1232.98 452.423 Q1235.34 452.423 1236.81 454.298 Q1238.29 456.173 1238.29 459.228 Q1238.29 462.284 1236.81 464.159 Q1235.34 466.034 1232.98 466.034 Q1231.56 466.034 1230.53 465.478 Q1229.51 464.911 1228.84 463.754 L1228.84 465.698 L1226.69 465.698 L1226.69 447.689 L1228.84 447.689 L1228.84 454.703 Z" fill="#000000" fill-rule="evenodd" fill-opacity="1" /><path clip-path="url(#clip700)" d="M1252.91 458.684 L1252.91 459.726 L1243.12 459.726 Q1243.26 461.925 1244.44 463.082 Q1245.63 464.228 1247.75 464.228 Q1248.97 464.228 1250.12 463.927 Q1251.28 463.626 1252.41 463.024 L1252.41 465.038 Q1251.27 465.524 1250.06 465.779 Q1248.86 466.034 1247.62 466.034 Q1244.52 466.034 1242.7 464.228 Q1240.9 462.423 1240.9 459.344 Q1240.9 456.161 1242.61 454.298 Q1244.33 452.423 1247.25 452.423 Q1249.87 452.423 1251.38 454.112 Q1252.91 455.791 1252.91 458.684 M1250.78 458.059 Q1250.76 456.311 1249.8 455.27 Q1248.85 454.228 1247.27 454.228 Q1245.49 454.228 1244.41 455.235 Q1243.35 456.242 1243.19 458.071 L1250.78 458.059 Z" fill="#000000" fill-rule="evenodd" fill-opacity="1" /><path clip-path="url(#clip700)" d="M1263.92 454.726 Q1263.56 454.517 1263.13 454.425 Q1262.71 454.321 1262.2 454.321 Q1260.4 454.321 1259.43 455.501 Q1258.47 456.67 1258.47 458.869 L1258.47 465.698 L1256.32 465.698 L1256.32 452.735 L1258.47 452.735 L1258.47 454.749 Q1259.14 453.568 1260.21 453.001 Q1261.29 452.423 1262.83 452.423 Q1263.05 452.423 1263.31 452.457 Q1263.58 452.48 1263.91 452.538 L1263.92 454.726 Z" fill="#000000" fill-rule="evenodd" fill-opacity="1" /><path clip-path="url(#clip700)" d="M1204.8 702.064 Q1205.55 702.318 1206.26 703.152 Q1206.98 703.985 1207.69 705.443 L1210.07 710.166 L1207.55 710.166 L1205.34 705.733 Q1204.49 703.997 1203.68 703.43 Q1202.88 702.862 1201.49 702.862 L1198.94 702.862 L1198.94 710.166 L1196.6 710.166 L1196.6 692.886 L1201.88 692.886 Q1204.85 692.886 1206.3 694.124 Q1207.76 695.362 1207.76 697.862 Q1207.76 699.494 1207 700.571 Q1206.25 701.647 1204.8 702.064 M1198.94 694.807 L1198.94 700.941 L1201.88 700.941 Q1203.57 700.941 1204.43 700.166 Q1205.3 699.379 1205.3 697.862 Q1205.3 696.346 1204.43 695.582 Q1203.57 694.807 1201.88 694.807 L1198.94 694.807 Z" fill="#000000" fill-rule="evenodd" fill-opacity="1" /><path clip-path="url(#clip700)" d="M1223.01 703.152 L1223.01 704.193 L1213.21 704.193 Q1213.35 706.393 1214.53 707.55 Q1215.73 708.696 1217.84 708.696 Q1219.07 708.696 1220.22 708.395 Q1221.37 708.094 1222.51 707.492 L1222.51 709.506 Q1221.36 709.992 1220.16 710.247 Q1218.95 710.501 1217.72 710.501 Q1214.61 710.501 1212.8 708.696 Q1210.99 706.89 1210.99 703.812 Q1210.99 700.629 1212.7 698.765 Q1214.43 696.89 1217.35 696.89 Q1219.96 696.89 1221.48 698.58 Q1223.01 700.258 1223.01 703.152 M1220.88 702.527 Q1220.85 700.779 1219.89 699.737 Q1218.94 698.696 1217.37 698.696 Q1215.59 698.696 1214.51 699.703 Q1213.44 700.71 1213.28 702.538 L1220.88 702.527 Z" fill="#000000" fill-rule="evenodd" fill-opacity="1" /><path clip-path="url(#clip700)" d="M1232.39 703.649 Q1229.81 703.649 1228.82 704.24 Q1227.82 704.83 1227.82 706.254 Q1227.82 707.388 1228.56 708.059 Q1229.31 708.719 1230.6 708.719 Q1232.37 708.719 1233.43 707.469 Q1234.51 706.207 1234.51 704.124 L1234.51 703.649 L1232.39 703.649 M1236.64 702.77 L1236.64 710.166 L1234.51 710.166 L1234.51 708.198 Q1233.78 709.379 1232.69 709.946 Q1231.6 710.501 1230.03 710.501 Q1228.04 710.501 1226.86 709.39 Q1225.69 708.268 1225.69 706.393 Q1225.69 704.205 1227.15 703.094 Q1228.62 701.983 1231.52 701.983 L1234.51 701.983 L1234.51 701.774 Q1234.51 700.305 1233.54 699.506 Q1232.58 698.696 1230.83 698.696 Q1229.72 698.696 1228.66 698.962 Q1227.61 699.228 1226.64 699.761 L1226.64 697.793 Q1227.81 697.342 1228.91 697.122 Q1230.01 696.89 1231.05 696.89 Q1233.86 696.89 1235.25 698.349 Q1236.64 699.807 1236.64 702.77 Z" fill="#000000" fill-rule="evenodd" fill-opacity="1" /><path clip-path="url(#clip700)" d="M1241.03 692.156 L1243.16 692.156 L1243.16 710.166 L1241.03 710.166 L1241.03 692.156 Z" fill="#000000" fill-rule="evenodd" fill-opacity="1" /><path clip-path="url(#clip700)" d="M1169.12 857.755 L1171.45 857.755 L1171.45 875.035 L1169.12 875.035 L1169.12 857.755 Z" fill="#000000" fill-rule="evenodd" fill-opacity="1" /><path clip-path="url(#clip700)" d="M1186.79 867.211 L1186.79 875.035 L1184.66 875.035 L1184.66 867.28 Q1184.66 865.44 1183.94 864.526 Q1183.22 863.611 1181.79 863.611 Q1180.07 863.611 1179.07 864.711 Q1178.07 865.811 1178.07 867.709 L1178.07 875.035 L1175.93 875.035 L1175.93 862.072 L1178.07 862.072 L1178.07 864.086 Q1178.84 862.917 1179.87 862.338 Q1180.91 861.76 1182.26 861.76 Q1184.5 861.76 1185.64 863.148 Q1186.79 864.526 1186.79 867.211 Z" fill="#000000" fill-rule="evenodd" fill-opacity="1" /><path clip-path="url(#clip700)" d="M1193.14 858.392 L1193.14 862.072 L1197.53 862.072 L1197.53 863.727 L1193.14 863.727 L1193.14 870.764 Q1193.14 872.35 1193.57 872.801 Q1194.01 873.253 1195.34 873.253 L1197.53 873.253 L1197.53 875.035 L1195.34 875.035 Q1192.88 875.035 1191.94 874.121 Q1191 873.195 1191 870.764 L1191 863.727 L1189.44 863.727 L1189.44 862.072 L1191 862.072 L1191 858.392 L1193.14 858.392 Z" fill="#000000" fill-rule="evenodd" fill-opacity="1" /><path clip-path="url(#clip700)" d="M1211.42 868.021 L1211.42 869.063 L1201.63 869.063 Q1201.77 871.262 1202.95 872.419 Q1204.14 873.565 1206.26 873.565 Q1207.48 873.565 1208.63 873.264 Q1209.79 872.963 1210.92 872.361 L1210.92 874.375 Q1209.78 874.861 1208.57 875.116 Q1207.37 875.371 1206.13 875.371 Q1203.03 875.371 1201.21 873.565 Q1199.41 871.76 1199.41 868.681 Q1199.41 865.498 1201.12 863.635 Q1202.84 861.76 1205.76 861.76 Q1208.38 861.76 1209.89 863.449 Q1211.42 865.128 1211.42 868.021 M1209.29 867.396 Q1209.27 865.648 1208.31 864.607 Q1207.36 863.565 1205.78 863.565 Q1204 863.565 1202.92 864.572 Q1201.86 865.579 1201.7 867.408 L1209.29 867.396 Z" fill="#000000" fill-rule="evenodd" fill-opacity="1" /><path clip-path="url(#clip700)" d="M1223.44 868.403 Q1223.44 866.088 1222.48 864.815 Q1221.53 863.542 1219.81 863.542 Q1218.1 863.542 1217.14 864.815 Q1216.19 866.088 1216.19 868.403 Q1216.19 870.706 1217.14 871.979 Q1218.1 873.253 1219.81 873.253 Q1221.53 873.253 1222.48 871.979 Q1223.44 870.706 1223.44 868.403 M1225.57 873.426 Q1225.57 876.736 1224.1 878.345 Q1222.63 879.966 1219.6 879.966 Q1218.48 879.966 1217.48 879.792 Q1216.49 879.63 1215.55 879.283 L1215.55 877.211 Q1216.49 877.72 1217.4 877.963 Q1218.32 878.206 1219.27 878.206 Q1221.36 878.206 1222.4 877.107 Q1223.44 876.019 1223.44 873.808 L1223.44 872.755 Q1222.78 873.901 1221.75 874.468 Q1220.72 875.035 1219.29 875.035 Q1216.91 875.035 1215.45 873.218 Q1213.99 871.401 1213.99 868.403 Q1213.99 865.394 1215.45 863.577 Q1216.91 861.76 1219.29 861.76 Q1220.72 861.76 1221.75 862.327 Q1222.78 862.894 1223.44 864.04 L1223.44 862.072 L1225.57 862.072 L1225.57 873.426 Z" fill="#000000" fill-rule="evenodd" fill-opacity="1" /><path clip-path="url(#clip700)" d="M1241.05 868.021 L1241.05 869.063 L1231.26 869.063 Q1231.4 871.262 1232.58 872.419 Q1233.77 873.565 1235.89 873.565 Q1237.11 873.565 1238.26 873.264 Q1239.42 872.963 1240.55 872.361 L1240.55 874.375 Q1239.41 874.861 1238.2 875.116 Q1237 875.371 1235.76 875.371 Q1232.66 875.371 1230.84 873.565 Q1229.03 871.76 1229.03 868.681 Q1229.03 865.498 1230.75 863.635 Q1232.47 861.76 1235.39 861.76 Q1238 861.76 1239.52 863.449 Q1241.05 865.128 1241.05 868.021 M1238.92 867.396 Q1238.9 865.648 1237.94 864.607 Q1236.99 863.565 1235.41 863.565 Q1233.63 863.565 1232.55 864.572 Q1231.49 865.579 1231.33 867.408 L1238.92 867.396 Z" fill="#000000" fill-rule="evenodd" fill-opacity="1" /><path clip-path="url(#clip700)" d="M1252.06 864.063 Q1251.7 863.854 1251.27 863.762 Q1250.85 863.658 1250.34 863.658 Q1248.54 863.658 1247.56 864.838 Q1246.6 866.007 1246.6 868.206 L1246.6 875.035 L1244.46 875.035 L1244.46 862.072 L1246.6 862.072 L1246.6 864.086 Q1247.28 862.905 1248.35 862.338 Q1249.43 861.76 1250.97 861.76 Q1251.19 861.76 1251.45 861.794 Q1251.72 861.817 1252.04 861.875 L1252.06 864.063 Z" fill="#000000" fill-rule="evenodd" fill-opacity="1" /><path clip-path="url(#clip700)" d="M1075.66 1027.63 L1075.66 1033.96 L1079.41 1033.96 Q1081.29 1033.96 1082.2 1033.19 Q1083.11 1032.4 1083.11 1030.79 Q1083.11 1029.17 1082.2 1028.41 Q1081.29 1027.63 1079.41 1027.63 L1075.66 1027.63 M1075.66 1020.53 L1075.66 1025.73 L1079.12 1025.73 Q1080.83 1025.73 1081.66 1025.1 Q1082.51 1024.45 1082.51 1023.13 Q1082.51 1021.82 1081.66 1021.17 Q1080.83 1020.53 1079.12 1020.53 L1075.66 1020.53 M1073.32 1018.61 L1079.29 1018.61 Q1081.96 1018.61 1083.41 1019.72 Q1084.86 1020.83 1084.86 1022.88 Q1084.86 1024.46 1084.12 1025.4 Q1083.38 1026.34 1081.94 1026.57 Q1083.67 1026.94 1084.61 1028.12 Q1085.58 1029.29 1085.58 1031.05 Q1085.58 1033.36 1084 1034.62 Q1082.43 1035.89 1079.52 1035.89 L1073.32 1035.89 L1073.32 1018.61 Z" fill="#000000" fill-rule="evenodd" fill-opacity="1" /><path clip-path="url(#clip700)" d="M1094.51 1024.42 Q1092.8 1024.42 1091.8 1025.76 Q1090.81 1027.09 1090.81 1029.42 Q1090.81 1031.74 1091.79 1033.08 Q1092.79 1034.42 1094.51 1034.42 Q1096.21 1034.42 1097.21 1033.07 Q1098.2 1031.73 1098.2 1029.42 Q1098.2 1027.11 1097.21 1025.77 Q1096.21 1024.42 1094.51 1024.42 M1094.51 1022.61 Q1097.29 1022.61 1098.87 1024.42 Q1100.46 1026.22 1100.46 1029.42 Q1100.46 1032.6 1098.87 1034.42 Q1097.29 1036.22 1094.51 1036.22 Q1091.72 1036.22 1090.14 1034.42 Q1088.56 1032.6 1088.56 1029.42 Q1088.56 1026.22 1090.14 1024.42 Q1091.72 1022.61 1094.51 1022.61 Z" fill="#000000" fill-rule="evenodd" fill-opacity="1" /><path clip-path="url(#clip700)" d="M1109.01 1024.42 Q1107.3 1024.42 1106.3 1025.76 Q1105.31 1027.09 1105.31 1029.42 Q1105.31 1031.74 1106.29 1033.08 Q1107.29 1034.42 1109.01 1034.42 Q1110.71 1034.42 1111.71 1033.07 Q1112.71 1031.73 1112.71 1029.42 Q1112.71 1027.11 1111.71 1025.77 Q1110.71 1024.42 1109.01 1024.42 M1109.01 1022.61 Q1111.79 1022.61 1113.38 1024.42 Q1114.96 1026.22 1114.96 1029.42 Q1114.96 1032.6 1113.38 1034.42 Q1111.79 1036.22 1109.01 1036.22 Q1106.22 1036.22 1104.64 1034.42 Q1103.06 1032.6 1103.06 1029.42 Q1103.06 1026.22 1104.64 1024.42 Q1106.22 1022.61 1109.01 1022.61 Z" fill="#000000" fill-rule="evenodd" fill-opacity="1" /><path clip-path="url(#clip700)" d="M1118.49 1017.88 L1120.62 1017.88 L1120.62 1035.89 L1118.49 1035.89 L1118.49 1017.88 Z" fill="#000000" fill-rule="evenodd" fill-opacity="1" /><path clip-path="url(#clip700)" d="M1147.91 1052.64 Q1145.37 1052.64 1143.86 1054.54 Q1142.37 1056.44 1142.37 1059.72 Q1142.37 1062.98 1143.86 1064.88 Q1145.37 1066.78 1147.91 1066.78 Q1150.46 1066.78 1151.94 1064.88 Q1153.43 1062.98 1153.43 1059.72 Q1153.43 1056.44 1151.94 1054.54 Q1150.46 1052.64 1147.91 1052.64 M1147.91 1050.75 Q1151.55 1050.75 1153.72 1053.19 Q1155.9 1055.62 1155.9 1059.72 Q1155.9 1063.8 1153.72 1066.24 Q1151.55 1068.67 1147.91 1068.67 Q1144.27 1068.67 1142.08 1066.24 Q1139.9 1063.81 1139.9 1059.72 Q1139.9 1055.62 1142.08 1053.19 Q1144.27 1050.75 1147.91 1050.75 Z" fill="#000000" fill-rule="evenodd" fill-opacity="1" /><path clip-path="url(#clip700)" d="M1166.03 1050.33 L1166.03 1052.1 L1163.99 1052.1 Q1162.84 1052.1 1162.39 1052.56 Q1161.95 1053.03 1161.95 1054.23 L1161.95 1055.38 L1165.46 1055.38 L1165.46 1057.03 L1161.95 1057.03 L1161.95 1068.34 L1159.81 1068.34 L1159.81 1057.03 L1157.77 1057.03 L1157.77 1055.38 L1159.81 1055.38 L1159.81 1054.47 Q1159.81 1052.31 1160.82 1051.33 Q1161.82 1050.33 1164.01 1050.33 L1166.03 1050.33 Z" fill="#000000" fill-rule="evenodd" fill-opacity="1" /><path clip-path="url(#clip700)" d="M1174.37 1050.33 L1174.37 1052.1 L1172.33 1052.1 Q1171.19 1052.1 1170.74 1052.56 Q1170.3 1053.03 1170.3 1054.23 L1170.3 1055.38 L1173.8 1055.38 L1173.8 1057.03 L1170.3 1057.03 L1170.3 1068.34 L1168.15 1068.34 L1168.15 1057.03 L1166.12 1057.03 L1166.12 1055.38 L1168.15 1055.38 L1168.15 1054.47 Q1168.15 1052.31 1169.16 1051.33 Q1170.17 1050.33 1172.36 1050.33 L1174.37 1050.33 Z" fill="#000000" fill-rule="evenodd" fill-opacity="1" /><path clip-path="url(#clip700)" d="M1184.42 1055.76 L1184.42 1057.77 Q1183.51 1057.31 1182.54 1057.08 Q1181.57 1056.85 1180.53 1056.85 Q1178.94 1056.85 1178.14 1057.33 Q1177.36 1057.82 1177.36 1058.79 Q1177.36 1059.53 1177.92 1059.96 Q1178.49 1060.38 1180.2 1060.76 L1180.93 1060.92 Q1183.2 1061.41 1184.15 1062.3 Q1185.11 1063.18 1185.11 1064.76 Q1185.11 1066.57 1183.68 1067.62 Q1182.25 1068.67 1179.75 1068.67 Q1178.71 1068.67 1177.58 1068.47 Q1176.45 1068.27 1175.2 1067.86 L1175.2 1065.67 Q1176.38 1066.28 1177.53 1066.59 Q1178.68 1066.89 1179.8 1066.89 Q1181.3 1066.89 1182.11 1066.38 Q1182.92 1065.86 1182.92 1064.92 Q1182.92 1064.06 1182.33 1063.59 Q1181.75 1063.13 1179.77 1062.7 L1179.03 1062.53 Q1177.06 1062.11 1176.18 1061.26 Q1175.3 1060.39 1175.3 1058.88 Q1175.3 1057.05 1176.59 1056.06 Q1177.89 1055.06 1180.27 1055.06 Q1181.45 1055.06 1182.49 1055.24 Q1183.54 1055.41 1184.42 1055.76 Z" fill="#000000" fill-rule="evenodd" fill-opacity="1" /><path clip-path="url(#clip700)" d="M1199.59 1061.33 L1199.59 1062.37 L1189.8 1062.37 Q1189.94 1064.57 1191.12 1065.72 Q1192.31 1066.87 1194.43 1066.87 Q1195.65 1066.87 1196.8 1066.57 Q1197.96 1066.27 1199.09 1065.67 L1199.09 1067.68 Q1197.95 1068.17 1196.74 1068.42 Q1195.54 1068.67 1194.3 1068.67 Q1191.2 1068.67 1189.38 1066.87 Q1187.58 1065.06 1187.58 1061.98 Q1187.58 1058.8 1189.29 1056.94 Q1191.01 1055.06 1193.93 1055.06 Q1196.55 1055.06 1198.06 1056.75 Q1199.59 1058.43 1199.59 1061.33 M1197.46 1060.7 Q1197.44 1058.95 1196.48 1057.91 Q1195.53 1056.87 1193.95 1056.87 Q1192.17 1056.87 1191.09 1057.88 Q1190.03 1058.88 1189.87 1060.71 L1197.46 1060.7 Z" fill="#000000" fill-rule="evenodd" fill-opacity="1" /><path clip-path="url(#clip700)" d="M1205.19 1051.7 L1205.19 1055.38 L1209.58 1055.38 L1209.58 1057.03 L1205.19 1057.03 L1205.19 1064.07 Q1205.19 1065.65 1205.62 1066.11 Q1206.06 1066.56 1207.39 1066.56 L1209.58 1066.56 L1209.58 1068.34 L1207.39 1068.34 Q1204.93 1068.34 1203.99 1067.42 Q1203.05 1066.5 1203.05 1064.07 L1203.05 1057.03 L1201.49 1057.03 L1201.49 1055.38 L1203.05 1055.38 L1203.05 1051.7 L1205.19 1051.7 Z" fill="#000000" fill-rule="evenodd" fill-opacity="1" /><path clip-path="url(#clip700)" d="M1212.47 1051.06 L1214.81 1051.06 L1214.81 1068.34 L1212.47 1068.34 L1212.47 1051.06 Z" fill="#000000" fill-rule="evenodd" fill-opacity="1" /><path clip-path="url(#clip700)" d="M1230.15 1060.51 L1230.15 1068.34 L1228.02 1068.34 L1228.02 1060.58 Q1228.02 1058.74 1227.3 1057.83 Q1226.58 1056.92 1225.15 1056.92 Q1223.42 1056.92 1222.43 1058.01 Q1221.43 1059.11 1221.43 1061.01 L1221.43 1068.34 L1219.29 1068.34 L1219.29 1055.38 L1221.43 1055.38 L1221.43 1057.39 Q1222.19 1056.22 1223.22 1055.64 Q1224.27 1055.06 1225.62 1055.06 Q1227.85 1055.06 1229 1056.45 Q1230.15 1057.83 1230.15 1060.51 Z" fill="#000000" fill-rule="evenodd" fill-opacity="1" /><path clip-path="url(#clip700)" d="M1236.5 1051.7 L1236.5 1055.38 L1240.89 1055.38 L1240.89 1057.03 L1236.5 1057.03 L1236.5 1064.07 Q1236.5 1065.65 1236.93 1066.11 Q1237.37 1066.56 1238.7 1066.56 L1240.89 1066.56 L1240.89 1068.34 L1238.7 1068.34 Q1236.23 1068.34 1235.3 1067.42 Q1234.36 1066.5 1234.36 1064.07 L1234.36 1057.03 L1232.8 1057.03 L1232.8 1055.38 L1234.36 1055.38 L1234.36 1051.7 L1236.5 1051.7 Z" fill="#000000" fill-rule="evenodd" fill-opacity="1" /><path clip-path="url(#clip700)" d="M1254.77 1061.33 L1254.77 1062.37 L1244.98 1062.37 Q1245.12 1064.57 1246.3 1065.72 Q1247.49 1066.87 1249.61 1066.87 Q1250.84 1066.87 1251.99 1066.57 Q1253.14 1066.27 1254.28 1065.67 L1254.28 1067.68 Q1253.13 1068.17 1251.93 1068.42 Q1250.72 1068.67 1249.49 1068.67 Q1246.38 1068.67 1244.57 1066.87 Q1242.76 1065.06 1242.76 1061.98 Q1242.76 1058.8 1244.47 1056.94 Q1246.2 1055.06 1249.11 1055.06 Q1251.73 1055.06 1253.25 1056.75 Q1254.77 1058.43 1254.77 1061.33 M1252.64 1060.7 Q1252.62 1058.95 1251.66 1057.91 Q1250.71 1056.87 1249.14 1056.87 Q1247.36 1056.87 1246.28 1057.88 Q1245.21 1058.88 1245.05 1060.71 L1252.64 1060.7 Z" fill="#000000" fill-rule="evenodd" fill-opacity="1" /><path clip-path="url(#clip700)" d="M1266.8 1061.71 Q1266.8 1059.39 1265.84 1058.12 Q1264.89 1056.85 1263.17 1056.85 Q1261.45 1056.85 1260.49 1058.12 Q1259.54 1059.39 1259.54 1061.71 Q1259.54 1064.01 1260.49 1065.28 Q1261.45 1066.56 1263.17 1066.56 Q1264.89 1066.56 1265.84 1065.28 Q1266.8 1064.01 1266.8 1061.71 M1268.93 1066.73 Q1268.93 1070.04 1267.46 1071.65 Q1265.99 1073.27 1262.96 1073.27 Q1261.83 1073.27 1260.84 1073.1 Q1259.84 1072.93 1258.91 1072.59 L1258.91 1070.51 Q1259.84 1071.02 1260.76 1071.27 Q1261.67 1071.51 1262.62 1071.51 Q1264.72 1071.51 1265.76 1070.41 Q1266.8 1069.32 1266.8 1067.11 L1266.8 1066.06 Q1266.14 1067.2 1265.11 1067.77 Q1264.08 1068.34 1262.64 1068.34 Q1260.26 1068.34 1258.8 1066.52 Q1257.34 1064.7 1257.34 1061.71 Q1257.34 1058.7 1258.8 1056.88 Q1260.26 1055.06 1262.64 1055.06 Q1264.08 1055.06 1265.11 1055.63 Q1266.14 1056.2 1266.8 1057.34 L1266.8 1055.38 L1268.93 1055.38 L1268.93 1066.73 Z" fill="#000000" fill-rule="evenodd" fill-opacity="1" /><path clip-path="url(#clip700)" d="M1284.4 1061.33 L1284.4 1062.37 L1274.61 1062.37 Q1274.75 1064.57 1275.93 1065.72 Q1277.12 1066.87 1279.24 1066.87 Q1280.47 1066.87 1281.61 1066.57 Q1282.77 1066.27 1283.91 1065.67 L1283.91 1067.68 Q1282.76 1068.17 1281.56 1068.42 Q1280.35 1068.67 1279.11 1068.67 Q1276.01 1068.67 1274.2 1066.87 Q1272.39 1065.06 1272.39 1061.98 Q1272.39 1058.8 1274.1 1056.94 Q1275.83 1055.06 1278.74 1055.06 Q1281.36 1055.06 1282.88 1056.75 Q1284.4 1058.43 1284.4 1061.33 M1282.27 1060.7 Q1282.25 1058.95 1281.29 1057.91 Q1280.34 1056.87 1278.77 1056.87 Q1276.99 1056.87 1275.91 1057.88 Q1274.84 1058.88 1274.68 1060.71 L1282.27 1060.7 Z" fill="#000000" fill-rule="evenodd" fill-opacity="1" /><path clip-path="url(#clip700)" d="M1295.41 1057.37 Q1295.05 1057.16 1294.62 1057.07 Q1294.21 1056.96 1293.7 1056.96 Q1291.89 1056.96 1290.92 1058.14 Q1289.96 1059.31 1289.96 1061.51 L1289.96 1068.34 L1287.82 1068.34 L1287.82 1055.38 L1289.96 1055.38 L1289.96 1057.39 Q1290.63 1056.21 1291.71 1055.64 Q1292.78 1055.06 1294.32 1055.06 Q1294.54 1055.06 1294.81 1055.1 Q1295.08 1055.12 1295.4 1055.18 L1295.41 1057.37 Z" fill="#000000" fill-rule="evenodd" fill-opacity="1" /><path clip-path="url(#clip700)" d="M1264.93 1043.43 Q1262.39 1043.43 1260.88 1045.33 Q1259.39 1047.23 1259.39 1050.5 Q1259.39 1053.77 1260.88 1055.66 Q1262.39 1057.56 1264.93 1057.56 Q1267.48 1057.56 1268.96 1055.66 Q1270.45 1053.77 1270.45 1050.5 Q1270.45 1047.23 1268.96 1045.33 Q1267.48 1043.43 1264.93 1043.43 M1264.93 1041.53 Q1268.57 1041.53 1270.74 1043.97 Q1272.92 1046.41 1272.92 1050.5 Q1272.92 1054.59 1270.74 1057.03 Q1268.57 1059.46 1264.93 1059.46 Q1261.29 1059.46 1259.1 1057.03 Q1256.92 1054.6 1256.92 1050.5 Q1256.92 1046.41 1259.1 1043.97 Q1261.29 1041.53 1264.93 1041.53 Z" fill="#000000" fill-rule="evenodd" fill-opacity="1" /><path clip-path="url(#clip700)" d="M1283.05 1041.12 L1283.05 1042.89 L1281.01 1042.89 Q1279.86 1042.89 1279.41 1043.35 Q1278.97 1043.81 1278.97 1045.02 L1278.97 1046.16 L1282.48 1046.16 L1282.48 1047.82 L1278.97 1047.82 L1278.97 1059.13 L1276.83 1059.13 L1276.83 1047.82 L1274.79 1047.82 L1274.79 1046.16 L1276.83 1046.16 L1276.83 1045.26 Q1276.83 1043.1 1277.84 1042.11 Q1278.85 1041.12 1281.03 1041.12 L1283.05 1041.12 Z" fill="#000000" fill-rule="evenodd" fill-opacity="1" /><path clip-path="url(#clip700)" d="M1291.39 1041.12 L1291.39 1042.89 L1289.35 1042.89 Q1288.21 1042.89 1287.76 1043.35 Q1287.32 1043.81 1287.32 1045.02 L1287.32 1046.16 L1290.82 1046.16 L1290.82 1047.82 L1287.32 1047.82 L1287.32 1059.13 L1285.18 1059.13 L1285.18 1047.82 L1283.14 1047.82 L1283.14 1046.16 L1285.18 1046.16 L1285.18 1045.26 Q1285.18 1043.1 1286.18 1042.11 Q1287.19 1041.12 1289.38 1041.12 L1291.39 1041.12 Z" fill="#000000" fill-rule="evenodd" fill-opacity="1" /><path clip-path="url(#clip700)" d="M1301.44 1046.54 L1301.44 1048.56 Q1300.54 1048.1 1299.56 1047.86 Q1298.59 1047.63 1297.55 1047.63 Q1295.96 1047.63 1295.16 1048.12 Q1294.38 1048.6 1294.38 1049.58 Q1294.38 1050.32 1294.94 1050.75 Q1295.51 1051.16 1297.22 1051.54 L1297.95 1051.71 Q1300.22 1052.19 1301.17 1053.08 Q1302.13 1053.96 1302.13 1055.55 Q1302.13 1057.35 1300.7 1058.41 Q1299.27 1059.46 1296.77 1059.46 Q1295.73 1059.46 1294.6 1059.25 Q1293.47 1059.06 1292.22 1058.65 L1292.22 1056.45 Q1293.41 1057.07 1294.55 1057.38 Q1295.7 1057.68 1296.82 1057.68 Q1298.32 1057.68 1299.13 1057.17 Q1299.94 1056.65 1299.94 1055.71 Q1299.94 1054.84 1299.35 1054.38 Q1298.78 1053.92 1296.8 1053.49 L1296.06 1053.32 Q1294.08 1052.9 1293.2 1052.04 Q1292.32 1051.17 1292.32 1049.67 Q1292.32 1047.84 1293.61 1046.85 Q1294.91 1045.85 1297.29 1045.85 Q1298.47 1045.85 1299.52 1046.02 Q1300.56 1046.2 1301.44 1046.54 Z" fill="#000000" fill-rule="evenodd" fill-opacity="1" /><path clip-path="url(#clip700)" d="M1316.61 1052.11 L1316.61 1053.15 L1306.82 1053.15 Q1306.96 1055.35 1308.14 1056.51 Q1309.33 1057.66 1311.45 1057.66 Q1312.68 1057.66 1313.82 1057.35 Q1314.98 1057.05 1316.11 1056.45 L1316.11 1058.47 Q1314.97 1058.95 1313.76 1059.21 Q1312.56 1059.46 1311.32 1059.46 Q1308.22 1059.46 1306.4 1057.66 Q1304.6 1055.85 1304.6 1052.77 Q1304.6 1049.59 1306.31 1047.72 Q1308.03 1045.85 1310.95 1045.85 Q1313.57 1045.85 1315.08 1047.54 Q1316.61 1049.22 1316.61 1052.11 M1314.48 1051.49 Q1314.46 1049.74 1313.5 1048.7 Q1312.55 1047.66 1310.97 1047.66 Q1309.19 1047.66 1308.12 1048.66 Q1307.05 1049.67 1306.89 1051.5 L1314.48 1051.49 Z" fill="#000000" fill-rule="evenodd" fill-opacity="1" /><path clip-path="url(#clip700)" d="M1322.21 1042.48 L1322.21 1046.16 L1326.6 1046.16 L1326.6 1047.82 L1322.21 1047.82 L1322.21 1054.85 Q1322.21 1056.44 1322.64 1056.89 Q1323.08 1057.34 1324.41 1057.34 L1326.6 1057.34 L1326.6 1059.13 L1324.41 1059.13 Q1321.95 1059.13 1321.01 1058.21 Q1320.07 1057.28 1320.07 1054.85 L1320.07 1047.82 L1318.51 1047.82 L1318.51 1046.16 L1320.07 1046.16 L1320.07 1042.48 L1322.21 1042.48 Z" fill="#000000" fill-rule="evenodd" fill-opacity="1" /><path clip-path="url(#clip700)" d="M1329.49 1041.85 L1331.83 1041.85 L1331.83 1059.13 L1329.49 1059.13 L1329.49 1041.85 Z" fill="#000000" fill-rule="evenodd" fill-opacity="1" /><path clip-path="url(#clip700)" d="M1347.17 1051.3 L1347.17 1059.13 L1345.04 1059.13 L1345.04 1051.37 Q1345.04 1049.53 1344.32 1048.62 Q1343.6 1047.7 1342.17 1047.7 Q1340.44 1047.7 1339.45 1048.8 Q1338.45 1049.9 1338.45 1051.8 L1338.45 1059.13 L1336.31 1059.13 L1336.31 1046.16 L1338.45 1046.16 L1338.45 1048.18 Q1339.22 1047.01 1340.25 1046.43 Q1341.29 1045.85 1342.64 1045.85 Q1344.88 1045.85 1346.02 1047.24 Q1347.17 1048.62 1347.17 1051.3 Z" fill="#000000" fill-rule="evenodd" fill-opacity="1" /><path clip-path="url(#clip700)" d="M1353.52 1042.48 L1353.52 1046.16 L1357.91 1046.16 L1357.91 1047.82 L1353.52 1047.82 L1353.52 1054.85 Q1353.52 1056.44 1353.95 1056.89 Q1354.39 1057.34 1355.72 1057.34 L1357.91 1057.34 L1357.91 1059.13 L1355.72 1059.13 Q1353.25 1059.13 1352.32 1058.21 Q1351.38 1057.28 1351.38 1054.85 L1351.38 1047.82 L1349.82 1047.82 L1349.82 1046.16 L1351.38 1046.16 L1351.38 1042.48 L1353.52 1042.48 Z" fill="#000000" fill-rule="evenodd" fill-opacity="1" /><path clip-path="url(#clip700)" d="M1371.8 1052.11 L1371.8 1053.15 L1362 1053.15 Q1362.14 1055.35 1363.32 1056.51 Q1364.52 1057.66 1366.63 1057.66 Q1367.86 1057.66 1369.01 1057.35 Q1370.16 1057.05 1371.3 1056.45 L1371.3 1058.47 Q1370.15 1058.95 1368.95 1059.21 Q1367.75 1059.46 1366.51 1059.46 Q1363.41 1059.46 1361.59 1057.66 Q1359.78 1055.85 1359.78 1052.77 Q1359.78 1049.59 1361.5 1047.72 Q1363.22 1045.85 1366.14 1045.85 Q1368.75 1045.85 1370.27 1047.54 Q1371.8 1049.22 1371.8 1052.11 M1369.67 1051.49 Q1369.64 1049.74 1368.68 1048.7 Q1367.73 1047.66 1366.16 1047.66 Q1364.38 1047.66 1363.3 1048.66 Q1362.24 1049.67 1362.07 1051.5 L1369.67 1051.49 Z" fill="#000000" fill-rule="evenodd" fill-opacity="1" /><path clip-path="url(#clip700)" d="M1383.82 1052.49 Q1383.82 1050.18 1382.86 1048.91 Q1381.91 1047.63 1380.19 1047.63 Q1378.47 1047.63 1377.51 1048.91 Q1376.56 1050.18 1376.56 1052.49 Q1376.56 1054.8 1377.51 1056.07 Q1378.47 1057.34 1380.19 1057.34 Q1381.91 1057.34 1382.86 1056.07 Q1383.82 1054.8 1383.82 1052.49 M1385.95 1057.52 Q1385.95 1060.83 1384.48 1062.44 Q1383.01 1064.06 1379.98 1064.06 Q1378.86 1064.06 1377.86 1063.88 Q1376.87 1063.72 1375.93 1063.37 L1375.93 1061.3 Q1376.87 1061.81 1377.78 1062.05 Q1378.69 1062.3 1379.64 1062.3 Q1381.74 1062.3 1382.78 1061.2 Q1383.82 1060.11 1383.82 1057.9 L1383.82 1056.85 Q1383.16 1057.99 1382.13 1058.56 Q1381.1 1059.13 1379.67 1059.13 Q1377.28 1059.13 1375.82 1057.31 Q1374.37 1055.49 1374.37 1052.49 Q1374.37 1049.48 1375.82 1047.67 Q1377.28 1045.85 1379.67 1045.85 Q1381.1 1045.85 1382.13 1046.42 Q1383.16 1046.98 1383.82 1048.13 L1383.82 1046.16 L1385.95 1046.16 L1385.95 1057.52 Z" fill="#000000" fill-rule="evenodd" fill-opacity="1" /><path clip-path="url(#clip700)" d="M1401.43 1052.11 L1401.43 1053.15 L1391.63 1053.15 Q1391.77 1055.35 1392.95 1056.51 Q1394.15 1057.66 1396.26 1057.66 Q1397.49 1057.66 1398.64 1057.35 Q1399.79 1057.05 1400.93 1056.45 L1400.93 1058.47 Q1399.78 1058.95 1398.58 1059.21 Q1397.37 1059.46 1396.14 1059.46 Q1393.03 1059.46 1391.22 1057.66 Q1389.41 1055.85 1389.41 1052.77 Q1389.41 1049.59 1391.12 1047.72 Q1392.85 1045.85 1395.77 1045.85 Q1398.38 1045.85 1399.9 1047.54 Q1401.43 1049.22 1401.43 1052.11 M1399.3 1051.49 Q1399.27 1049.74 1398.31 1048.7 Q1397.36 1047.66 1395.79 1047.66 Q1394.01 1047.66 1392.93 1048.66 Q1391.87 1049.67 1391.7 1051.5 L1399.3 1051.49 Z" fill="#000000" fill-rule="evenodd" fill-opacity="1" /><path clip-path="url(#clip700)" d="M1412.43 1048.15 Q1412.07 1047.94 1411.65 1047.85 Q1411.23 1047.75 1410.72 1047.75 Q1408.91 1047.75 1407.94 1048.93 Q1406.98 1050.1 1406.98 1052.3 L1406.98 1059.13 L1404.84 1059.13 L1404.84 1046.16 L1406.98 1046.16 L1406.98 1048.18 Q1407.65 1047 1408.73 1046.43 Q1409.81 1045.85 1411.34 1045.85 Q1411.56 1045.85 1411.83 1045.88 Q1412.1 1045.91 1412.42 1045.97 L1412.43 1048.15 Z" fill="#000000" fill-rule="evenodd" fill-opacity="1" /><path clip-path="url(#clip700)" d="M893.03 1033.99 L893.03 1036.27 Q891.699 1035.63 890.518 1035.32 Q889.338 1035.01 888.238 1035.01 Q886.329 1035.01 885.287 1035.75 Q884.257 1036.49 884.257 1037.85 Q884.257 1039 884.94 1039.59 Q885.634 1040.17 887.555 1040.53 L888.967 1040.82 Q891.583 1041.32 892.822 1042.58 Q894.072 1043.83 894.072 1045.93 Q894.072 1048.45 892.382 1049.74 Q890.703 1051.04 887.451 1051.04 Q886.224 1051.04 884.835 1050.76 Q883.458 1050.48 881.977 1049.94 L881.977 1047.53 Q883.4 1048.33 884.766 1048.73 Q886.132 1049.14 887.451 1049.14 Q889.453 1049.14 890.541 1048.35 Q891.629 1047.57 891.629 1046.11 Q891.629 1044.83 890.842 1044.12 Q890.067 1043.4 888.285 1043.04 L886.861 1042.76 Q884.245 1042.24 883.076 1041.13 Q881.907 1040.02 881.907 1038.04 Q881.907 1035.75 883.516 1034.43 Q885.136 1033.11 887.972 1033.11 Q889.187 1033.11 890.449 1033.33 Q891.71 1033.55 893.03 1033.99 Z" fill="#000000" fill-rule="evenodd" fill-opacity="1" /><path clip-path="url(#clip700)" d="M897.625 1037.74 L899.754 1037.74 L899.754 1050.7 L897.625 1050.7 L897.625 1037.74 M897.625 1032.69 L899.754 1032.69 L899.754 1035.39 L897.625 1035.39 L897.625 1032.69 Z" fill="#000000" fill-rule="evenodd" fill-opacity="1" /><path clip-path="url(#clip700)" d="M912.74 1044.07 Q912.74 1041.76 911.78 1040.48 Q910.831 1039.21 909.106 1039.21 Q907.393 1039.21 906.433 1040.48 Q905.483 1041.76 905.483 1044.07 Q905.483 1046.37 906.433 1047.65 Q907.393 1048.92 909.106 1048.92 Q910.831 1048.92 911.78 1047.65 Q912.74 1046.37 912.74 1044.07 M914.87 1049.09 Q914.87 1052.4 913.4 1054.01 Q911.93 1055.63 908.898 1055.63 Q907.775 1055.63 906.78 1055.46 Q905.784 1055.3 904.847 1054.95 L904.847 1052.88 Q905.784 1053.39 906.699 1053.63 Q907.613 1053.87 908.562 1053.87 Q910.657 1053.87 911.699 1052.77 Q912.74 1051.69 912.74 1049.48 L912.74 1048.42 Q912.081 1049.57 911.051 1050.14 Q910.021 1050.7 908.585 1050.7 Q906.201 1050.7 904.743 1048.89 Q903.284 1047.07 903.284 1044.07 Q903.284 1041.06 904.743 1039.24 Q906.201 1037.43 908.585 1037.43 Q910.021 1037.43 911.051 1037.99 Q912.081 1038.56 912.74 1039.71 L912.74 1037.74 L914.87 1037.74 L914.87 1049.09 Z" fill="#000000" fill-rule="evenodd" fill-opacity="1" /><path clip-path="url(#clip700)" d="M930.032 1042.88 L930.032 1050.7 L927.902 1050.7 L927.902 1042.95 Q927.902 1041.11 927.185 1040.19 Q926.467 1039.28 925.032 1039.28 Q923.307 1039.28 922.312 1040.38 Q921.317 1041.48 921.317 1043.38 L921.317 1050.7 L919.176 1050.7 L919.176 1037.74 L921.317 1037.74 L921.317 1039.75 Q922.081 1038.58 923.111 1038.01 Q924.152 1037.43 925.507 1037.43 Q927.74 1037.43 928.886 1038.82 Q930.032 1040.19 930.032 1042.88 Z" fill="#000000" fill-rule="evenodd" fill-opacity="1" /><path clip-path="url(#clip700)" d="M945.368 1043.69 L945.368 1044.73 L935.576 1044.73 Q935.715 1046.93 936.895 1048.09 Q938.087 1049.23 940.206 1049.23 Q941.432 1049.23 942.578 1048.93 Q943.736 1048.63 944.87 1048.03 L944.87 1050.04 Q943.724 1050.53 942.52 1050.78 Q941.317 1051.04 940.078 1051.04 Q936.976 1051.04 935.159 1049.23 Q933.354 1047.43 933.354 1044.35 Q933.354 1041.17 935.067 1039.3 Q936.791 1037.43 939.708 1037.43 Q942.324 1037.43 943.84 1039.12 Q945.368 1040.79 945.368 1043.69 M943.238 1043.06 Q943.215 1041.32 942.254 1040.27 Q941.305 1039.23 939.731 1039.23 Q937.949 1039.23 936.872 1040.24 Q935.807 1041.25 935.645 1043.07 L943.238 1043.06 Z" fill="#000000" fill-rule="evenodd" fill-opacity="1" /><path clip-path="url(#clip700)" d="M957.393 1039.71 L957.393 1032.69 L959.523 1032.69 L959.523 1050.7 L957.393 1050.7 L957.393 1048.76 Q956.722 1049.92 955.692 1050.48 Q954.673 1051.04 953.238 1051.04 Q950.888 1051.04 949.407 1049.16 Q947.937 1047.29 947.937 1044.23 Q947.937 1041.18 949.407 1039.3 Q950.888 1037.43 953.238 1037.43 Q954.673 1037.43 955.692 1037.99 Q956.722 1038.55 957.393 1039.71 M950.136 1044.23 Q950.136 1046.58 951.097 1047.92 Q952.069 1049.26 953.759 1049.26 Q955.449 1049.26 956.421 1047.92 Q957.393 1046.58 957.393 1044.23 Q957.393 1041.88 956.421 1040.55 Q955.449 1039.21 953.759 1039.21 Q952.069 1039.21 951.097 1040.55 Q950.136 1041.88 950.136 1044.23 Z" fill="#000000" fill-rule="evenodd" fill-opacity="1" /><path clip-path="url(#clip700)" d="M698.682 1236.79 L698.682 1243.12 L702.432 1243.12 Q704.319 1243.12 705.221 1242.35 Q706.136 1241.56 706.136 1239.95 Q706.136 1238.33 705.221 1237.57 Q704.319 1236.79 702.432 1236.79 L698.682 1236.79 M698.682 1229.68 L698.682 1234.89 L702.143 1234.89 Q703.856 1234.89 704.689 1234.26 Q705.534 1233.61 705.534 1232.29 Q705.534 1230.98 704.689 1230.33 Q703.856 1229.68 702.143 1229.68 L698.682 1229.68 M696.344 1227.76 L702.316 1227.76 Q704.99 1227.76 706.437 1228.87 Q707.883 1229.99 707.883 1232.03 Q707.883 1233.62 707.143 1234.56 Q706.402 1235.49 704.967 1235.73 Q706.691 1236.1 707.64 1237.28 Q708.601 1238.45 708.601 1240.21 Q708.601 1242.52 707.027 1243.78 Q705.453 1245.04 702.548 1245.04 L696.344 1245.04 L696.344 1227.76 Z" fill="#000000" fill-rule="evenodd" fill-opacity="1" /><path clip-path="url(#clip700)" d="M712.513 1232.08 L714.643 1232.08 L714.643 1245.04 L712.513 1245.04 L712.513 1232.08 M712.513 1227.03 L714.643 1227.03 L714.643 1229.73 L712.513 1229.73 L712.513 1227.03 Z" fill="#000000" fill-rule="evenodd" fill-opacity="1" /><path clip-path="url(#clip700)" d="M727.629 1238.41 Q727.629 1236.1 726.668 1234.82 Q725.719 1233.55 723.994 1233.55 Q722.281 1233.55 721.321 1234.82 Q720.372 1236.1 720.372 1238.41 Q720.372 1240.71 721.321 1241.99 Q722.281 1243.26 723.994 1243.26 Q725.719 1243.26 726.668 1241.99 Q727.629 1240.71 727.629 1238.41 M729.758 1243.43 Q729.758 1246.74 728.288 1248.35 Q726.818 1249.97 723.786 1249.97 Q722.663 1249.97 721.668 1249.8 Q720.673 1249.64 719.735 1249.29 L719.735 1247.22 Q720.673 1247.73 721.587 1247.97 Q722.501 1248.21 723.45 1248.21 Q725.545 1248.21 726.587 1247.12 Q727.629 1246.03 727.629 1243.82 L727.629 1242.76 Q726.969 1243.91 725.939 1244.48 Q724.909 1245.04 723.474 1245.04 Q721.089 1245.04 719.631 1243.23 Q718.173 1241.41 718.173 1238.41 Q718.173 1235.4 719.631 1233.59 Q721.089 1231.77 723.474 1231.77 Q724.909 1231.77 725.939 1232.34 Q726.969 1232.9 727.629 1234.05 L727.629 1232.08 L729.758 1232.08 L729.758 1243.43 Z" fill="#000000" fill-rule="evenodd" fill-opacity="1" /><path clip-path="url(#clip700)" d="M734.237 1227.76 L736.575 1227.76 L736.575 1245.04 L734.237 1245.04 L734.237 1227.76 Z" fill="#000000" fill-rule="evenodd" fill-opacity="1" /><path clip-path="url(#clip700)" d="M751.911 1237.22 L751.911 1245.04 L749.781 1245.04 L749.781 1237.29 Q749.781 1235.45 749.064 1234.53 Q748.346 1233.62 746.911 1233.62 Q745.186 1233.62 744.191 1234.72 Q743.196 1235.82 743.196 1237.72 L743.196 1245.04 L741.054 1245.04 L741.054 1232.08 L743.196 1232.08 L743.196 1234.09 Q743.96 1232.93 744.99 1232.35 Q746.031 1231.77 747.385 1231.77 Q749.619 1231.77 750.765 1233.16 Q751.911 1234.53 751.911 1237.22 Z" fill="#000000" fill-rule="evenodd" fill-opacity="1" /><path clip-path="url(#clip700)" d="M758.265 1228.4 L758.265 1232.08 L762.652 1232.08 L762.652 1233.74 L758.265 1233.74 L758.265 1240.77 Q758.265 1242.36 758.693 1242.81 Q759.133 1243.26 760.464 1243.26 L762.652 1243.26 L762.652 1245.04 L760.464 1245.04 Q757.999 1245.04 757.061 1244.13 Q756.124 1243.2 756.124 1240.77 L756.124 1233.74 L754.561 1233.74 L754.561 1232.08 L756.124 1232.08 L756.124 1228.4 L758.265 1228.4 Z" fill="#000000" fill-rule="evenodd" fill-opacity="1" /><path clip-path="url(#clip700)" d="M854.652 1329.04 L856.99 1329.04 L856.99 1346.32 L854.652 1346.32 L854.652 1329.04 Z" fill="#000000" fill-rule="evenodd" fill-opacity="1" /><path clip-path="url(#clip700)" d="M872.326 1338.5 L872.326 1346.32 L870.196 1346.32 L870.196 1338.57 Q870.196 1336.73 869.478 1335.81 Q868.761 1334.9 867.326 1334.9 Q865.601 1334.9 864.606 1336 Q863.61 1337.1 863.61 1339 L863.61 1346.32 L861.469 1346.32 L861.469 1333.36 L863.61 1333.36 L863.61 1335.37 Q864.374 1334.2 865.404 1333.63 Q866.446 1333.05 867.8 1333.05 Q870.034 1333.05 871.18 1334.44 Q872.326 1335.81 872.326 1338.5 Z" fill="#000000" fill-rule="evenodd" fill-opacity="1" /><path clip-path="url(#clip700)" d="M878.68 1329.68 L878.68 1333.36 L883.066 1333.36 L883.066 1335.01 L878.68 1335.01 L878.68 1342.05 Q878.68 1343.64 879.108 1344.09 Q879.548 1344.54 880.879 1344.54 L883.066 1344.54 L883.066 1346.32 L880.879 1346.32 Q878.414 1346.32 877.476 1345.41 Q876.539 1344.48 876.539 1342.05 L876.539 1335.01 L874.976 1335.01 L874.976 1333.36 L876.539 1333.36 L876.539 1329.68 L878.68 1329.68 Z" fill="#000000" fill-rule="evenodd" fill-opacity="1" /><path clip-path="url(#clip700)" d="M886.573 1344.36 L890.393 1344.36 L890.393 1331.17 L886.238 1332.01 L886.238 1329.88 L890.37 1329.04 L892.708 1329.04 L892.708 1344.36 L896.527 1344.36 L896.527 1346.32 L886.573 1346.32 L886.573 1344.36 Z" fill="#000000" fill-rule="evenodd" fill-opacity="1" /><path clip-path="url(#clip700)" d="M903.263 1344.36 L911.423 1344.36 L911.423 1346.32 L900.451 1346.32 L900.451 1344.36 Q901.782 1342.98 904.073 1340.66 Q906.376 1338.34 906.967 1337.67 Q908.089 1336.4 908.529 1335.54 Q908.981 1334.66 908.981 1333.81 Q908.981 1332.43 908.008 1331.57 Q907.048 1330.7 905.497 1330.7 Q904.397 1330.7 903.17 1331.08 Q901.955 1331.46 900.566 1332.24 L900.566 1329.88 Q901.978 1329.31 903.205 1329.02 Q904.432 1328.73 905.451 1328.73 Q908.136 1328.73 909.733 1330.07 Q911.33 1331.42 911.33 1333.66 Q911.33 1334.73 910.925 1335.69 Q910.532 1336.64 909.478 1337.93 Q909.189 1338.27 907.638 1339.88 Q906.087 1341.47 903.263 1344.36 Z" fill="#000000" fill-rule="evenodd" fill-opacity="1" /><path clip-path="url(#clip700)" d="M921.33 1338.12 Q919.663 1338.12 918.703 1339.01 Q917.754 1339.9 917.754 1341.46 Q917.754 1343.02 918.703 1343.92 Q919.663 1344.81 921.33 1344.81 Q922.997 1344.81 923.957 1343.92 Q924.918 1343.01 924.918 1341.46 Q924.918 1339.9 923.957 1339.01 Q923.008 1338.12 921.33 1338.12 M918.992 1337.12 Q917.487 1336.75 916.643 1335.72 Q915.809 1334.69 915.809 1333.21 Q915.809 1331.14 917.279 1329.93 Q918.761 1328.73 921.33 1328.73 Q923.911 1328.73 925.381 1329.93 Q926.851 1331.14 926.851 1333.21 Q926.851 1334.69 926.006 1335.72 Q925.173 1336.75 923.68 1337.12 Q925.369 1337.51 926.307 1338.66 Q927.256 1339.81 927.256 1341.46 Q927.256 1343.97 925.717 1345.32 Q924.189 1346.66 921.33 1346.66 Q918.471 1346.66 916.932 1345.32 Q915.404 1343.97 915.404 1341.46 Q915.404 1339.81 916.353 1338.66 Q917.302 1337.51 918.992 1337.12 M918.136 1333.43 Q918.136 1334.77 918.969 1335.52 Q919.814 1336.28 921.33 1336.28 Q922.835 1336.28 923.68 1335.52 Q924.536 1334.77 924.536 1333.43 Q924.536 1332.09 923.68 1331.33 Q922.835 1330.58 921.33 1330.58 Q919.814 1330.58 918.969 1331.33 Q918.136 1332.09 918.136 1333.43 Z" fill="#000000" fill-rule="evenodd" fill-opacity="1" /><path clip-path="url(#clip700)" d="M778.658 1243.71 L780.996 1243.71 L780.996 1260.99 L778.658 1260.99 L778.658 1243.71 Z" fill="#000000" fill-rule="evenodd" fill-opacity="1" /><path clip-path="url(#clip700)" d="M796.331 1253.17 L796.331 1260.99 L794.202 1260.99 L794.202 1253.24 Q794.202 1251.4 793.484 1250.48 Q792.767 1249.57 791.331 1249.57 Q789.607 1249.57 788.612 1250.67 Q787.616 1251.77 787.616 1253.66 L787.616 1260.99 L785.475 1260.99 L785.475 1248.03 L787.616 1248.03 L787.616 1250.04 Q788.38 1248.87 789.41 1248.29 Q790.452 1247.71 791.806 1247.71 Q794.04 1247.71 795.186 1249.1 Q796.331 1250.48 796.331 1253.17 Z" fill="#000000" fill-rule="evenodd" fill-opacity="1" /><path clip-path="url(#clip700)" d="M802.686 1244.35 L802.686 1248.03 L807.072 1248.03 L807.072 1249.68 L802.686 1249.68 L802.686 1256.72 Q802.686 1258.3 803.114 1258.76 Q803.554 1259.21 804.885 1259.21 L807.072 1259.21 L807.072 1260.99 L804.885 1260.99 Q802.419 1260.99 801.482 1260.08 Q800.544 1259.15 800.544 1256.72 L800.544 1249.68 L798.982 1249.68 L798.982 1248.03 L800.544 1248.03 L800.544 1244.35 L802.686 1244.35 Z" fill="#000000" fill-rule="evenodd" fill-opacity="1" /><path clip-path="url(#clip700)" d="M810.579 1259.02 L814.399 1259.02 L814.399 1245.84 L810.243 1246.67 L810.243 1244.54 L814.375 1243.71 L816.713 1243.71 L816.713 1259.02 L820.533 1259.02 L820.533 1260.99 L810.579 1260.99 L810.579 1259.02 Z" fill="#000000" fill-rule="evenodd" fill-opacity="1" /><path clip-path="url(#clip700)" d="M830.544 1251.42 Q828.97 1251.42 828.044 1252.49 Q827.13 1253.57 827.13 1255.45 Q827.13 1257.31 828.044 1258.4 Q828.97 1259.47 830.544 1259.47 Q832.118 1259.47 833.033 1258.4 Q833.959 1257.31 833.959 1255.45 Q833.959 1253.57 833.033 1252.49 Q832.118 1251.42 830.544 1251.42 M835.185 1244.09 L835.185 1246.22 Q834.306 1245.8 833.403 1245.59 Q832.512 1245.37 831.632 1245.37 Q829.317 1245.37 828.091 1246.93 Q826.875 1248.49 826.702 1251.65 Q827.385 1250.64 828.415 1250.11 Q829.445 1249.57 830.683 1249.57 Q833.287 1249.57 834.792 1251.15 Q836.308 1252.73 836.308 1255.45 Q836.308 1258.11 834.734 1259.72 Q833.16 1261.33 830.544 1261.33 Q827.547 1261.33 825.961 1259.03 Q824.375 1256.73 824.375 1252.37 Q824.375 1248.27 826.32 1245.84 Q828.264 1243.4 831.54 1243.4 Q832.419 1243.4 833.31 1243.57 Q834.213 1243.74 835.185 1244.09 Z" fill="#000000" fill-rule="evenodd" fill-opacity="1" /><path clip-path="url(#clip700)" d="M1028.7 1286.37 L1031.04 1286.37 L1031.04 1303.65 L1028.7 1303.65 L1028.7 1286.37 Z" fill="#000000" fill-rule="evenodd" fill-opacity="1" /><path clip-path="url(#clip700)" d="M1046.38 1295.82 L1046.38 1303.65 L1044.25 1303.65 L1044.25 1295.89 Q1044.25 1294.05 1043.53 1293.14 Q1042.81 1292.22 1041.38 1292.22 Q1039.65 1292.22 1038.66 1293.32 Q1037.66 1294.42 1037.66 1296.32 L1037.66 1303.65 L1035.52 1303.65 L1035.52 1290.68 L1037.66 1290.68 L1037.66 1292.7 Q1038.42 1291.53 1039.45 1290.95 Q1040.5 1290.37 1041.85 1290.37 Q1044.08 1290.37 1045.23 1291.76 Q1046.38 1293.14 1046.38 1295.82 Z" fill="#000000" fill-rule="evenodd" fill-opacity="1" /><path clip-path="url(#clip700)" d="M1052.73 1287 L1052.73 1290.68 L1057.12 1290.68 L1057.12 1292.34 L1052.73 1292.34 L1052.73 1299.38 Q1052.73 1300.96 1053.16 1301.41 Q1053.6 1301.86 1054.93 1301.86 L1057.12 1301.86 L1057.12 1303.65 L1054.93 1303.65 Q1052.46 1303.65 1051.53 1302.73 Q1050.59 1301.81 1050.59 1299.38 L1050.59 1292.34 L1049.03 1292.34 L1049.03 1290.68 L1050.59 1290.68 L1050.59 1287 L1052.73 1287 Z" fill="#000000" fill-rule="evenodd" fill-opacity="1" /><path clip-path="url(#clip700)" d="M1067.3 1294.33 Q1068.98 1294.69 1069.92 1295.82 Q1070.87 1296.96 1070.87 1298.62 Q1070.87 1301.18 1069.11 1302.58 Q1067.35 1303.98 1064.11 1303.98 Q1063.02 1303.98 1061.86 1303.76 Q1060.72 1303.55 1059.49 1303.13 L1059.49 1300.87 Q1060.46 1301.44 1061.62 1301.73 Q1062.78 1302.02 1064.04 1302.02 Q1066.24 1302.02 1067.38 1301.15 Q1068.54 1300.28 1068.54 1298.62 Q1068.54 1297.1 1067.46 1296.24 Q1066.4 1295.37 1064.49 1295.37 L1062.47 1295.37 L1062.47 1293.45 L1064.58 1293.45 Q1066.31 1293.45 1067.22 1292.77 Q1068.13 1292.07 1068.13 1290.78 Q1068.13 1289.45 1067.19 1288.74 Q1066.25 1288.02 1064.49 1288.02 Q1063.53 1288.02 1062.43 1288.23 Q1061.33 1288.44 1060.01 1288.88 L1060.01 1286.8 Q1061.34 1286.43 1062.5 1286.24 Q1063.67 1286.05 1064.7 1286.05 Q1067.36 1286.05 1068.91 1287.27 Q1070.46 1288.47 1070.46 1290.53 Q1070.46 1291.97 1069.64 1292.96 Q1068.82 1293.95 1067.3 1294.33 Z" fill="#000000" fill-rule="evenodd" fill-opacity="1" /><path clip-path="url(#clip700)" d="M1077.31 1301.68 L1085.47 1301.68 L1085.47 1303.65 L1074.5 1303.65 L1074.5 1301.68 Q1075.83 1300.3 1078.12 1297.99 Q1080.43 1295.66 1081.02 1294.99 Q1082.14 1293.73 1082.58 1292.86 Q1083.03 1291.98 1083.03 1291.14 Q1083.03 1289.76 1082.06 1288.89 Q1081.1 1288.02 1079.55 1288.02 Q1078.45 1288.02 1077.22 1288.4 Q1076 1288.79 1074.62 1289.56 L1074.62 1287.2 Q1076.03 1286.63 1077.25 1286.34 Q1078.48 1286.05 1079.5 1286.05 Q1082.19 1286.05 1083.78 1287.4 Q1085.38 1288.74 1085.38 1290.99 Q1085.38 1292.05 1084.97 1293.01 Q1084.58 1293.96 1083.53 1295.26 Q1083.24 1295.59 1081.69 1297.2 Q1080.14 1298.8 1077.31 1301.68 Z" fill="#000000" fill-rule="evenodd" fill-opacity="1" /><path clip-path="url(#clip700)" d="M633.411 1227.44 L635.749 1227.44 L635.749 1244.72 L633.411 1244.72 L633.411 1227.44 Z" fill="#000000" fill-rule="evenodd" fill-opacity="1" /><path clip-path="url(#clip700)" d="M651.085 1236.89 L651.085 1244.72 L648.955 1244.72 L648.955 1236.96 Q648.955 1235.12 648.237 1234.21 Q647.52 1233.3 646.085 1233.3 Q644.36 1233.3 643.365 1234.39 Q642.369 1235.49 642.369 1237.39 L642.369 1244.72 L640.228 1244.72 L640.228 1231.76 L642.369 1231.76 L642.369 1233.77 Q643.133 1232.6 644.163 1232.02 Q645.205 1231.44 646.559 1231.44 Q648.793 1231.44 649.939 1232.83 Q651.085 1234.21 651.085 1236.89 Z" fill="#000000" fill-rule="evenodd" fill-opacity="1" /><path clip-path="url(#clip700)" d="M657.439 1228.08 L657.439 1231.76 L661.825 1231.76 L661.825 1233.41 L657.439 1233.41 L657.439 1240.45 Q657.439 1242.03 657.867 1242.49 Q658.307 1242.94 659.638 1242.94 L661.825 1242.94 L661.825 1244.72 L659.638 1244.72 Q657.173 1244.72 656.235 1243.8 Q655.298 1242.88 655.298 1240.45 L655.298 1233.41 L653.735 1233.41 L653.735 1231.76 L655.298 1231.76 L655.298 1228.08 L657.439 1228.08 Z" fill="#000000" fill-rule="evenodd" fill-opacity="1" /><path clip-path="url(#clip700)" d="M670.216 1235.15 Q668.642 1235.15 667.716 1236.22 Q666.802 1237.3 666.802 1239.17 Q666.802 1241.04 667.716 1242.13 Q668.642 1243.2 670.216 1243.2 Q671.791 1243.2 672.705 1242.13 Q673.631 1241.04 673.631 1239.17 Q673.631 1237.3 672.705 1236.22 Q671.791 1235.15 670.216 1235.15 M674.858 1227.82 L674.858 1229.95 Q673.978 1229.53 673.075 1229.31 Q672.184 1229.09 671.304 1229.09 Q668.99 1229.09 667.763 1230.66 Q666.548 1232.22 666.374 1235.38 Q667.057 1234.37 668.087 1233.84 Q669.117 1233.3 670.355 1233.3 Q672.96 1233.3 674.464 1234.88 Q675.98 1236.46 675.98 1239.17 Q675.98 1241.84 674.406 1243.45 Q672.832 1245.05 670.216 1245.05 Q667.219 1245.05 665.633 1242.76 Q664.048 1240.46 664.048 1236.1 Q664.048 1232 665.992 1229.57 Q667.936 1227.13 671.212 1227.13 Q672.091 1227.13 672.983 1227.3 Q673.885 1227.47 674.858 1227.82 Z" fill="#000000" fill-rule="evenodd" fill-opacity="1" /><path clip-path="url(#clip700)" d="M686.432 1229.48 L680.529 1238.7 L686.432 1238.7 L686.432 1229.48 M685.818 1227.44 L688.758 1227.44 L688.758 1238.7 L691.223 1238.7 L691.223 1240.64 L688.758 1240.64 L688.758 1244.72 L686.432 1244.72 L686.432 1240.64 L678.631 1240.64 L678.631 1238.39 L685.818 1227.44 Z" fill="#000000" fill-rule="evenodd" fill-opacity="1" /><path clip-path="url(#clip700)" d="M930.102 1247.56 L932.44 1247.56 L932.44 1264.84 L930.102 1264.84 L930.102 1247.56 Z" fill="#000000" fill-rule="evenodd" fill-opacity="1" /><path clip-path="url(#clip700)" d="M947.775 1257.02 L947.775 1264.84 L945.646 1264.84 L945.646 1257.09 Q945.646 1255.25 944.928 1254.33 Q944.211 1253.42 942.775 1253.42 Q941.051 1253.42 940.056 1254.52 Q939.06 1255.62 939.06 1257.51 L939.06 1264.84 L936.919 1264.84 L936.919 1251.88 L939.06 1251.88 L939.06 1253.89 Q939.824 1252.72 940.854 1252.14 Q941.896 1251.56 943.25 1251.56 Q945.484 1251.56 946.63 1252.95 Q947.775 1254.33 947.775 1257.02 Z" fill="#000000" fill-rule="evenodd" fill-opacity="1" /><path clip-path="url(#clip700)" d="M954.13 1248.2 L954.13 1251.88 L958.516 1251.88 L958.516 1253.53 L954.13 1253.53 L954.13 1260.57 Q954.13 1262.15 954.558 1262.61 Q954.998 1263.06 956.329 1263.06 L958.516 1263.06 L958.516 1264.84 L956.329 1264.84 Q953.863 1264.84 952.926 1263.93 Q951.988 1263 951.988 1260.57 L951.988 1253.53 L950.426 1253.53 L950.426 1251.88 L951.988 1251.88 L951.988 1248.2 L954.13 1248.2 Z" fill="#000000" fill-rule="evenodd" fill-opacity="1" /><path clip-path="url(#clip700)" d="M966.618 1256.63 Q964.951 1256.63 963.991 1257.53 Q963.042 1258.42 963.042 1259.98 Q963.042 1261.54 963.991 1262.43 Q964.951 1263.32 966.618 1263.32 Q968.285 1263.32 969.245 1262.43 Q970.206 1261.53 970.206 1259.98 Q970.206 1258.42 969.245 1257.53 Q968.296 1256.63 966.618 1256.63 M964.28 1255.64 Q962.775 1255.27 961.93 1254.24 Q961.097 1253.21 961.097 1251.73 Q961.097 1249.65 962.567 1248.45 Q964.048 1247.25 966.618 1247.25 Q969.199 1247.25 970.669 1248.45 Q972.139 1249.65 972.139 1251.73 Q972.139 1253.21 971.294 1254.24 Q970.46 1255.27 968.967 1255.64 Q970.657 1256.03 971.595 1257.18 Q972.544 1258.32 972.544 1259.98 Q972.544 1262.49 971.004 1263.83 Q969.477 1265.18 966.618 1265.18 Q963.759 1265.18 962.22 1263.83 Q960.692 1262.49 960.692 1259.98 Q960.692 1258.32 961.641 1257.18 Q962.59 1256.03 964.28 1255.64 M963.423 1251.95 Q963.423 1253.29 964.257 1254.04 Q965.102 1254.79 966.618 1254.79 Q968.123 1254.79 968.967 1254.04 Q969.824 1253.29 969.824 1251.95 Q969.824 1250.6 968.967 1249.85 Q968.123 1249.1 966.618 1249.1 Q965.102 1249.1 964.257 1249.85 Q963.423 1250.6 963.423 1251.95 Z" fill="#000000" fill-rule="evenodd" fill-opacity="1" /><path clip-path="url(#clip700)" d="M1431.77 1109.8 L1434.12 1109.8 L1434.12 1120.3 Q1434.12 1123.08 1435.13 1124.3 Q1436.13 1125.52 1438.39 1125.52 Q1440.63 1125.52 1441.64 1124.3 Q1442.65 1123.08 1442.65 1120.3 L1442.65 1109.8 L1445 1109.8 L1445 1120.59 Q1445 1123.97 1443.32 1125.69 Q1441.65 1127.42 1438.39 1127.42 Q1435.11 1127.42 1433.44 1125.69 Q1431.77 1123.97 1431.77 1120.59 L1431.77 1109.8 Z" fill="#000000" fill-rule="evenodd" fill-opacity="1" /><path clip-path="url(#clip700)" d="M1460.07 1119.26 L1460.07 1127.08 L1457.94 1127.08 L1457.94 1119.33 Q1457.94 1117.49 1457.22 1116.57 Q1456.5 1115.66 1455.07 1115.66 Q1453.34 1115.66 1452.35 1116.76 Q1451.35 1117.86 1451.35 1119.75 L1451.35 1127.08 L1449.21 1127.08 L1449.21 1114.12 L1451.35 1114.12 L1451.35 1116.13 Q1452.12 1114.96 1453.15 1114.38 Q1454.19 1113.81 1455.54 1113.81 Q1457.78 1113.81 1458.92 1115.19 Q1460.07 1116.57 1460.07 1119.26 Z" fill="#000000" fill-rule="evenodd" fill-opacity="1" /><path clip-path="url(#clip700)" d="M1472.58 1114.5 L1472.58 1116.51 Q1471.68 1116.05 1470.7 1115.82 Q1469.73 1115.59 1468.69 1115.59 Q1467.1 1115.59 1466.31 1116.07 Q1465.52 1116.56 1465.52 1117.53 Q1465.52 1118.27 1466.09 1118.7 Q1466.65 1119.12 1468.37 1119.5 L1469.09 1119.66 Q1471.36 1120.15 1472.31 1121.04 Q1473.27 1121.92 1473.27 1123.5 Q1473.27 1125.31 1471.84 1126.36 Q1470.41 1127.42 1467.91 1127.42 Q1466.87 1127.42 1465.74 1127.21 Q1464.62 1127.01 1463.37 1126.61 L1463.37 1124.41 Q1464.55 1125.02 1465.69 1125.33 Q1466.84 1125.63 1467.96 1125.63 Q1469.47 1125.63 1470.28 1125.13 Q1471.09 1124.6 1471.09 1123.67 Q1471.09 1122.8 1470.5 1122.34 Q1469.92 1121.87 1467.94 1121.44 L1467.2 1121.27 Q1465.22 1120.85 1464.34 1120 Q1463.46 1119.13 1463.46 1117.63 Q1463.46 1115.8 1464.75 1114.8 Q1466.05 1113.81 1468.44 1113.81 Q1469.62 1113.81 1470.66 1113.98 Q1471.7 1114.15 1472.58 1114.5 Z" fill="#000000" fill-rule="evenodd" fill-opacity="1" /><path clip-path="url(#clip700)" d="M1476.66 1114.12 L1478.79 1114.12 L1478.79 1127.08 L1476.66 1127.08 L1476.66 1114.12 M1476.66 1109.07 L1478.79 1109.07 L1478.79 1111.77 L1476.66 1111.77 L1476.66 1109.07 Z" fill="#000000" fill-rule="evenodd" fill-opacity="1" /><path clip-path="url(#clip700)" d="M1491.78 1120.45 Q1491.78 1118.13 1490.82 1116.86 Q1489.87 1115.59 1488.15 1115.59 Q1486.43 1115.59 1485.47 1116.86 Q1484.52 1118.13 1484.52 1120.45 Q1484.52 1122.75 1485.47 1124.03 Q1486.43 1125.3 1488.15 1125.3 Q1489.87 1125.3 1490.82 1124.03 Q1491.78 1122.75 1491.78 1120.45 M1493.91 1125.47 Q1493.91 1128.78 1492.44 1130.39 Q1490.97 1132.01 1487.94 1132.01 Q1486.81 1132.01 1485.82 1131.84 Q1484.82 1131.68 1483.89 1131.33 L1483.89 1129.26 Q1484.82 1129.77 1485.74 1130.01 Q1486.65 1130.25 1487.6 1130.25 Q1489.7 1130.25 1490.74 1129.15 Q1491.78 1128.06 1491.78 1125.85 L1491.78 1124.8 Q1491.12 1125.95 1490.09 1126.51 Q1489.06 1127.08 1487.62 1127.08 Q1485.24 1127.08 1483.78 1125.26 Q1482.32 1123.45 1482.32 1120.45 Q1482.32 1117.44 1483.78 1115.62 Q1485.24 1113.81 1487.62 1113.81 Q1489.06 1113.81 1490.09 1114.37 Q1491.12 1114.94 1491.78 1116.09 L1491.78 1114.12 L1493.91 1114.12 L1493.91 1125.47 Z" fill="#000000" fill-rule="evenodd" fill-opacity="1" /><path clip-path="url(#clip700)" d="M1509.07 1119.26 L1509.07 1127.08 L1506.94 1127.08 L1506.94 1119.33 Q1506.94 1117.49 1506.22 1116.57 Q1505.51 1115.66 1504.07 1115.66 Q1502.35 1115.66 1501.35 1116.76 Q1500.36 1117.86 1500.36 1119.75 L1500.36 1127.08 L1498.22 1127.08 L1498.22 1114.12 L1500.36 1114.12 L1500.36 1116.13 Q1501.12 1114.96 1502.15 1114.38 Q1503.19 1113.81 1504.55 1113.81 Q1506.78 1113.81 1507.93 1115.19 Q1509.07 1116.57 1509.07 1119.26 Z" fill="#000000" fill-rule="evenodd" fill-opacity="1" /><path clip-path="url(#clip700)" d="M1524.41 1120.07 L1524.41 1121.11 L1514.62 1121.11 Q1514.75 1123.31 1515.93 1124.47 Q1517.13 1125.61 1519.24 1125.61 Q1520.47 1125.61 1521.62 1125.31 Q1522.78 1125.01 1523.91 1124.41 L1523.91 1126.42 Q1522.76 1126.91 1521.56 1127.16 Q1520.36 1127.42 1519.12 1127.42 Q1516.02 1127.42 1514.2 1125.61 Q1512.39 1123.81 1512.39 1120.73 Q1512.39 1117.54 1514.11 1115.68 Q1515.83 1113.81 1518.75 1113.81 Q1521.36 1113.81 1522.88 1115.5 Q1524.41 1117.17 1524.41 1120.07 M1522.28 1119.44 Q1522.25 1117.69 1521.29 1116.65 Q1520.34 1115.61 1518.77 1115.61 Q1516.99 1115.61 1515.91 1116.62 Q1514.85 1117.63 1514.68 1119.45 L1522.28 1119.44 Z" fill="#000000" fill-rule="evenodd" fill-opacity="1" /><path clip-path="url(#clip700)" d="M1536.43 1116.09 L1536.43 1109.07 L1538.56 1109.07 L1538.56 1127.08 L1536.43 1127.08 L1536.43 1125.14 Q1535.76 1126.29 1534.73 1126.86 Q1533.71 1127.42 1532.28 1127.42 Q1529.93 1127.42 1528.45 1125.54 Q1526.98 1123.67 1526.98 1120.61 Q1526.98 1117.56 1528.45 1115.68 Q1529.93 1113.81 1532.28 1113.81 Q1533.71 1113.81 1534.73 1114.37 Q1535.76 1114.93 1536.43 1116.09 M1529.18 1120.61 Q1529.18 1122.96 1530.14 1124.3 Q1531.11 1125.63 1532.8 1125.63 Q1534.49 1125.63 1535.46 1124.3 Q1536.43 1122.96 1536.43 1120.61 Q1536.43 1118.26 1535.46 1116.93 Q1534.49 1115.59 1532.8 1115.59 Q1531.11 1115.59 1530.14 1116.93 Q1529.18 1118.26 1529.18 1120.61 Z" fill="#000000" fill-rule="evenodd" fill-opacity="1" /><path clip-path="url(#clip700)" d="M1626.73 1259.05 L1629.08 1259.05 L1629.08 1269.55 Q1629.08 1272.33 1630.08 1273.55 Q1631.09 1274.77 1633.35 1274.77 Q1635.59 1274.77 1636.6 1273.55 Q1637.61 1272.33 1637.61 1269.55 L1637.61 1259.05 L1639.96 1259.05 L1639.96 1269.84 Q1639.96 1273.22 1638.28 1274.94 Q1636.61 1276.67 1633.35 1276.67 Q1630.07 1276.67 1628.4 1274.94 Q1626.73 1273.22 1626.73 1269.84 L1626.73 1259.05 Z" fill="#000000" fill-rule="evenodd" fill-opacity="1" /><path clip-path="url(#clip700)" d="M1644.34 1259.05 L1646.68 1259.05 L1646.68 1276.33 L1644.34 1276.33 L1644.34 1259.05 Z" fill="#000000" fill-rule="evenodd" fill-opacity="1" /><path clip-path="url(#clip700)" d="M1662.02 1268.51 L1662.02 1276.33 L1659.89 1276.33 L1659.89 1268.58 Q1659.89 1266.74 1659.17 1265.82 Q1658.45 1264.91 1657.02 1264.91 Q1655.29 1264.91 1654.3 1266.01 Q1653.3 1267.11 1653.3 1269 L1653.3 1276.33 L1651.16 1276.33 L1651.16 1263.37 L1653.3 1263.37 L1653.3 1265.38 Q1654.07 1264.21 1655.1 1263.63 Q1656.14 1263.06 1657.49 1263.06 Q1659.73 1263.06 1660.87 1264.44 Q1662.02 1265.82 1662.02 1268.51 Z" fill="#000000" fill-rule="evenodd" fill-opacity="1" /><path clip-path="url(#clip700)" d="M1668.37 1259.69 L1668.37 1263.37 L1672.76 1263.37 L1672.76 1265.02 L1668.37 1265.02 L1668.37 1272.06 Q1668.37 1273.65 1668.8 1274.1 Q1669.24 1274.55 1670.57 1274.55 L1672.76 1274.55 L1672.76 1276.33 L1670.57 1276.33 Q1668.11 1276.33 1667.17 1275.42 Q1666.23 1274.49 1666.23 1272.06 L1666.23 1265.02 L1664.67 1265.02 L1664.67 1263.37 L1666.23 1263.37 L1666.23 1259.69 L1668.37 1259.69 Z" fill="#000000" fill-rule="evenodd" fill-opacity="1" /><path clip-path="url(#clip700)" d="M1676.27 1274.36 L1680.08 1274.36 L1680.08 1261.18 L1675.93 1262.01 L1675.93 1259.88 L1680.06 1259.05 L1682.4 1259.05 L1682.4 1274.36 L1686.22 1274.36 L1686.22 1276.33 L1676.27 1276.33 L1676.27 1274.36 Z" fill="#000000" fill-rule="evenodd" fill-opacity="1" /><path clip-path="url(#clip700)" d="M1692.95 1274.36 L1701.11 1274.36 L1701.11 1276.33 L1690.14 1276.33 L1690.14 1274.36 Q1691.47 1272.99 1693.77 1270.67 Q1696.07 1268.34 1696.66 1267.67 Q1697.78 1266.41 1698.22 1265.54 Q1698.67 1264.66 1698.67 1263.82 Q1698.67 1262.44 1697.7 1261.57 Q1696.74 1260.71 1695.19 1260.71 Q1694.09 1260.71 1692.86 1261.09 Q1691.65 1261.47 1690.26 1262.25 L1690.26 1259.88 Q1691.67 1259.32 1692.9 1259.03 Q1694.12 1258.74 1695.14 1258.74 Q1697.83 1258.74 1699.42 1260.08 Q1701.02 1261.42 1701.02 1263.67 Q1701.02 1264.73 1700.62 1265.69 Q1700.22 1266.64 1699.17 1267.94 Q1698.88 1268.28 1697.33 1269.88 Q1695.78 1271.48 1692.95 1274.36 Z" fill="#000000" fill-rule="evenodd" fill-opacity="1" /><path clip-path="url(#clip700)" d="M1711.02 1268.13 Q1709.36 1268.13 1708.39 1269.02 Q1707.45 1269.91 1707.45 1271.47 Q1707.45 1273.03 1708.39 1273.92 Q1709.36 1274.81 1711.02 1274.81 Q1712.69 1274.81 1713.65 1273.92 Q1714.61 1273.02 1714.61 1271.47 Q1714.61 1269.91 1713.65 1269.02 Q1712.7 1268.13 1711.02 1268.13 M1708.68 1267.13 Q1707.18 1266.76 1706.33 1265.73 Q1705.5 1264.7 1705.5 1263.22 Q1705.5 1261.15 1706.97 1259.94 Q1708.45 1258.74 1711.02 1258.74 Q1713.6 1258.74 1715.07 1259.94 Q1716.54 1261.15 1716.54 1263.22 Q1716.54 1264.7 1715.7 1265.73 Q1714.86 1266.76 1713.37 1267.13 Q1715.06 1267.52 1716 1268.67 Q1716.95 1269.81 1716.95 1271.47 Q1716.95 1273.98 1715.41 1275.32 Q1713.88 1276.67 1711.02 1276.67 Q1708.16 1276.67 1706.62 1275.32 Q1705.1 1273.98 1705.1 1271.47 Q1705.1 1269.81 1706.05 1268.67 Q1706.99 1267.52 1708.68 1267.13 M1707.83 1263.44 Q1707.83 1264.78 1708.66 1265.53 Q1709.51 1266.28 1711.02 1266.28 Q1712.53 1266.28 1713.37 1265.53 Q1714.23 1264.78 1714.23 1263.44 Q1714.23 1262.09 1713.37 1261.34 Q1712.53 1260.59 1711.02 1260.59 Q1709.51 1260.59 1708.66 1261.34 Q1707.83 1262.09 1707.83 1263.44 Z" fill="#000000" fill-rule="evenodd" fill-opacity="1" /><path clip-path="url(#clip700)" d="M1700.05 1275.63 L1702.4 1275.63 L1702.4 1286.12 Q1702.4 1288.9 1703.41 1290.13 Q1704.41 1291.34 1706.67 1291.34 Q1708.92 1291.34 1709.92 1290.13 Q1710.93 1288.9 1710.93 1286.12 L1710.93 1275.63 L1713.28 1275.63 L1713.28 1286.41 Q1713.28 1289.79 1711.6 1291.52 Q1709.93 1293.24 1706.67 1293.24 Q1703.39 1293.24 1701.72 1291.52 Q1700.05 1289.79 1700.05 1286.41 L1700.05 1275.63 Z" fill="#000000" fill-rule="evenodd" fill-opacity="1" /><path clip-path="url(#clip700)" d="M1717.67 1275.63 L1720 1275.63 L1720 1292.91 L1717.67 1292.91 L1717.67 1275.63 Z" fill="#000000" fill-rule="evenodd" fill-opacity="1" /><path clip-path="url(#clip700)" d="M1735.34 1285.08 L1735.34 1292.91 L1733.21 1292.91 L1733.21 1285.15 Q1733.21 1283.31 1732.49 1282.4 Q1731.77 1281.48 1730.34 1281.48 Q1728.61 1281.48 1727.62 1282.58 Q1726.62 1283.68 1726.62 1285.58 L1726.62 1292.91 L1724.48 1292.91 L1724.48 1279.94 L1726.62 1279.94 L1726.62 1281.96 Q1727.39 1280.79 1728.42 1280.21 Q1729.46 1279.63 1730.81 1279.63 Q1733.05 1279.63 1734.19 1281.02 Q1735.34 1282.4 1735.34 1285.08 Z" fill="#000000" fill-rule="evenodd" fill-opacity="1" /><path clip-path="url(#clip700)" d="M1741.69 1276.26 L1741.69 1279.94 L1746.08 1279.94 L1746.08 1281.6 L1741.69 1281.6 L1741.69 1288.64 Q1741.69 1290.22 1742.12 1290.67 Q1742.56 1291.12 1743.89 1291.12 L1746.08 1291.12 L1746.08 1292.91 L1743.89 1292.91 Q1741.43 1292.91 1740.49 1291.99 Q1739.55 1291.07 1739.55 1288.64 L1739.55 1281.6 L1737.99 1281.6 L1737.99 1279.94 L1739.55 1279.94 L1739.55 1276.26 L1741.69 1276.26 Z" fill="#000000" fill-rule="evenodd" fill-opacity="1" /><path clip-path="url(#clip700)" d="M1749.59 1290.94 L1753.41 1290.94 L1753.41 1277.76 L1749.25 1278.59 L1749.25 1276.46 L1753.38 1275.63 L1755.72 1275.63 L1755.72 1290.94 L1759.54 1290.94 L1759.54 1292.91 L1749.59 1292.91 L1749.59 1290.94 Z" fill="#000000" fill-rule="evenodd" fill-opacity="1" /><path clip-path="url(#clip700)" d="M1769.55 1283.33 Q1767.98 1283.33 1767.05 1284.41 Q1766.14 1285.49 1766.14 1287.36 Q1766.14 1289.23 1767.05 1290.31 Q1767.98 1291.39 1769.55 1291.39 Q1771.13 1291.39 1772.04 1290.31 Q1772.97 1289.23 1772.97 1287.36 Q1772.97 1285.49 1772.04 1284.41 Q1771.13 1283.33 1769.55 1283.33 M1774.19 1276.01 L1774.19 1278.14 Q1773.31 1277.72 1772.41 1277.5 Q1771.52 1277.28 1770.64 1277.28 Q1768.32 1277.28 1767.1 1278.84 Q1765.88 1280.41 1765.71 1283.57 Q1766.39 1282.56 1767.42 1282.03 Q1768.45 1281.48 1769.69 1281.48 Q1772.29 1281.48 1773.8 1283.07 Q1775.32 1284.64 1775.32 1287.36 Q1775.32 1290.02 1773.74 1291.63 Q1772.17 1293.24 1769.55 1293.24 Q1766.55 1293.24 1764.97 1290.95 Q1763.38 1288.65 1763.38 1284.28 Q1763.38 1280.19 1765.33 1277.76 Q1767.27 1275.31 1770.55 1275.31 Q1771.43 1275.31 1772.32 1275.49 Q1773.22 1275.66 1774.19 1276.01 Z" fill="#000000" fill-rule="evenodd" fill-opacity="1" /><path clip-path="url(#clip700)" d="M1361.24 1227.48 L1363.59 1227.48 L1363.59 1237.97 Q1363.59 1240.75 1364.59 1241.98 Q1365.6 1243.19 1367.86 1243.19 Q1370.1 1243.19 1371.11 1241.98 Q1372.12 1240.75 1372.12 1237.97 L1372.12 1227.48 L1374.47 1227.48 L1374.47 1238.26 Q1374.47 1241.64 1372.79 1243.37 Q1371.12 1245.09 1367.86 1245.09 Q1364.58 1245.09 1362.9 1243.37 Q1361.24 1241.64 1361.24 1238.26 L1361.24 1227.48 Z" fill="#000000" fill-rule="evenodd" fill-opacity="1" /><path clip-path="url(#clip700)" d="M1378.85 1227.48 L1381.19 1227.48 L1381.19 1244.76 L1378.85 1244.76 L1378.85 1227.48 Z" fill="#000000" fill-rule="evenodd" fill-opacity="1" /><path clip-path="url(#clip700)" d="M1396.53 1236.93 L1396.53 1244.76 L1394.4 1244.76 L1394.4 1237 Q1394.4 1235.16 1393.68 1234.25 Q1392.96 1233.33 1391.53 1233.33 Q1389.8 1233.33 1388.81 1234.43 Q1387.81 1235.53 1387.81 1237.43 L1387.81 1244.76 L1385.67 1244.76 L1385.67 1231.79 L1387.81 1231.79 L1387.81 1233.81 Q1388.57 1232.64 1389.6 1232.06 Q1390.65 1231.48 1392 1231.48 Q1394.23 1231.48 1395.38 1232.87 Q1396.53 1234.25 1396.53 1236.93 Z" fill="#000000" fill-rule="evenodd" fill-opacity="1" /><path clip-path="url(#clip700)" d="M1402.88 1228.11 L1402.88 1231.79 L1407.27 1231.79 L1407.27 1233.45 L1402.88 1233.45 L1402.88 1240.48 Q1402.88 1242.07 1403.31 1242.52 Q1403.75 1242.97 1405.08 1242.97 L1407.27 1242.97 L1407.27 1244.76 L1405.08 1244.76 Q1402.61 1244.76 1401.68 1243.84 Q1400.74 1242.92 1400.74 1240.48 L1400.74 1233.45 L1399.18 1233.45 L1399.18 1231.79 L1400.74 1231.79 L1400.74 1228.11 L1402.88 1228.11 Z" fill="#000000" fill-rule="evenodd" fill-opacity="1" /><path clip-path="url(#clip700)" d="M1417.45 1235.44 Q1419.13 1235.8 1420.07 1236.93 Q1421.02 1238.07 1421.02 1239.73 Q1421.02 1242.29 1419.26 1243.69 Q1417.5 1245.09 1414.26 1245.09 Q1413.17 1245.09 1412.01 1244.87 Q1410.87 1244.66 1409.64 1244.23 L1409.64 1241.98 Q1410.61 1242.54 1411.77 1242.83 Q1412.93 1243.12 1414.19 1243.12 Q1416.39 1243.12 1417.53 1242.26 Q1418.69 1241.39 1418.69 1239.73 Q1418.69 1238.2 1417.61 1237.35 Q1416.55 1236.48 1414.64 1236.48 L1412.62 1236.48 L1412.62 1234.56 L1414.73 1234.56 Q1416.46 1234.56 1417.37 1233.88 Q1418.28 1233.18 1418.28 1231.89 Q1418.28 1230.55 1417.34 1229.85 Q1416.4 1229.13 1414.64 1229.13 Q1413.68 1229.13 1412.58 1229.34 Q1411.48 1229.55 1410.16 1229.99 L1410.16 1227.9 Q1411.49 1227.53 1412.65 1227.35 Q1413.82 1227.16 1414.85 1227.16 Q1417.51 1227.16 1419.06 1228.38 Q1420.61 1229.58 1420.61 1231.64 Q1420.61 1233.08 1419.79 1234.07 Q1418.97 1235.06 1417.45 1235.44 Z" fill="#000000" fill-rule="evenodd" fill-opacity="1" /><path clip-path="url(#clip700)" d="M1427.46 1242.79 L1435.62 1242.79 L1435.62 1244.76 L1424.65 1244.76 L1424.65 1242.79 Q1425.98 1241.41 1428.27 1239.1 Q1430.58 1236.77 1431.17 1236.1 Q1432.29 1234.84 1432.73 1233.97 Q1433.18 1233.09 1433.18 1232.24 Q1433.18 1230.87 1432.21 1230 Q1431.25 1229.13 1429.7 1229.13 Q1428.6 1229.13 1427.37 1229.51 Q1426.15 1229.89 1424.77 1230.67 L1424.77 1228.31 Q1426.18 1227.74 1427.4 1227.45 Q1428.63 1227.16 1429.65 1227.16 Q1432.34 1227.16 1433.93 1228.51 Q1435.53 1229.85 1435.53 1232.09 Q1435.53 1233.16 1435.12 1234.12 Q1434.73 1235.07 1433.68 1236.36 Q1433.39 1236.7 1431.84 1238.31 Q1430.29 1239.91 1427.46 1242.79 Z" fill="#000000" fill-rule="evenodd" fill-opacity="1" /><path clip-path="url(#clip700)" d="M1578.63 1226.24 L1580.98 1226.24 L1580.98 1236.74 Q1580.98 1239.51 1581.99 1240.74 Q1583 1241.96 1585.26 1241.96 Q1587.5 1241.96 1588.51 1240.74 Q1589.51 1239.51 1589.51 1236.74 L1589.51 1226.24 L1591.86 1226.24 L1591.86 1237.03 Q1591.86 1240.41 1590.19 1242.13 Q1588.52 1243.85 1585.26 1243.85 Q1581.98 1243.85 1580.3 1242.13 Q1578.63 1240.41 1578.63 1237.03 L1578.63 1226.24 Z" fill="#000000" fill-rule="evenodd" fill-opacity="1" /><path clip-path="url(#clip700)" d="M1596.25 1226.24 L1598.59 1226.24 L1598.59 1243.52 L1596.25 1243.52 L1596.25 1226.24 Z" fill="#000000" fill-rule="evenodd" fill-opacity="1" /><path clip-path="url(#clip700)" d="M1613.92 1235.69 L1613.92 1243.52 L1611.79 1243.52 L1611.79 1235.76 Q1611.79 1233.92 1611.08 1233.01 Q1610.36 1232.1 1608.92 1232.1 Q1607.2 1232.1 1606.2 1233.19 Q1605.21 1234.29 1605.21 1236.19 L1605.21 1243.52 L1603.07 1243.52 L1603.07 1230.56 L1605.21 1230.56 L1605.21 1232.57 Q1605.97 1231.4 1607 1230.82 Q1608.04 1230.24 1609.4 1230.24 Q1611.63 1230.24 1612.78 1231.63 Q1613.92 1233.01 1613.92 1235.69 Z" fill="#000000" fill-rule="evenodd" fill-opacity="1" /><path clip-path="url(#clip700)" d="M1620.28 1226.88 L1620.28 1230.56 L1624.66 1230.56 L1624.66 1232.21 L1620.28 1232.21 L1620.28 1239.25 Q1620.28 1240.83 1620.71 1241.28 Q1621.15 1241.74 1622.48 1241.74 L1624.66 1241.74 L1624.66 1243.52 L1622.48 1243.52 Q1620.01 1243.52 1619.07 1242.6 Q1618.14 1241.68 1618.14 1239.25 L1618.14 1232.21 L1616.57 1232.21 L1616.57 1230.56 L1618.14 1230.56 L1618.14 1226.88 L1620.28 1226.88 Z" fill="#000000" fill-rule="evenodd" fill-opacity="1" /><path clip-path="url(#clip700)" d="M1633.06 1233.95 Q1631.48 1233.95 1630.56 1235.02 Q1629.64 1236.1 1629.64 1237.97 Q1629.64 1239.84 1630.56 1240.93 Q1631.48 1242 1633.06 1242 Q1634.63 1242 1635.54 1240.93 Q1636.47 1239.84 1636.47 1237.97 Q1636.47 1236.1 1635.54 1235.02 Q1634.63 1233.95 1633.06 1233.95 M1637.7 1226.62 L1637.7 1228.75 Q1636.82 1228.33 1635.91 1228.11 Q1635.02 1227.89 1634.14 1227.89 Q1631.83 1227.89 1630.6 1229.46 Q1629.39 1231.02 1629.21 1234.18 Q1629.9 1233.17 1630.93 1232.64 Q1631.96 1232.1 1633.19 1232.1 Q1635.8 1232.1 1637.3 1233.68 Q1638.82 1235.25 1638.82 1237.97 Q1638.82 1240.64 1637.25 1242.25 Q1635.67 1243.85 1633.06 1243.85 Q1630.06 1243.85 1628.47 1241.56 Q1626.89 1239.26 1626.89 1234.9 Q1626.89 1230.8 1628.83 1228.37 Q1630.78 1225.93 1634.05 1225.93 Q1634.93 1225.93 1635.82 1226.1 Q1636.72 1226.27 1637.7 1226.62 Z" fill="#000000" fill-rule="evenodd" fill-opacity="1" /><path clip-path="url(#clip700)" d="M1649.27 1228.28 L1643.37 1237.5 L1649.27 1237.5 L1649.27 1228.28 M1648.66 1226.24 L1651.6 1226.24 L1651.6 1237.5 L1654.06 1237.5 L1654.06 1239.44 L1651.6 1239.44 L1651.6 1243.52 L1649.27 1243.52 L1649.27 1239.44 L1641.47 1239.44 L1641.47 1237.19 L1648.66 1226.24 Z" fill="#000000" fill-rule="evenodd" fill-opacity="1" /><path clip-path="url(#clip700)" d="M1446.28 1324.71 L1448.63 1324.71 L1448.63 1335.2 Q1448.63 1337.98 1449.64 1339.21 Q1450.65 1340.42 1452.9 1340.42 Q1455.15 1340.42 1456.15 1339.21 Q1457.16 1337.98 1457.16 1335.2 L1457.16 1324.71 L1459.51 1324.71 L1459.51 1335.49 Q1459.51 1338.87 1457.83 1340.6 Q1456.17 1342.32 1452.9 1342.32 Q1449.63 1342.32 1447.95 1340.6 Q1446.28 1338.87 1446.28 1335.49 L1446.28 1324.71 Z" fill="#000000" fill-rule="evenodd" fill-opacity="1" /><path clip-path="url(#clip700)" d="M1463.9 1324.71 L1466.24 1324.71 L1466.24 1341.99 L1463.9 1341.99 L1463.9 1324.71 Z" fill="#000000" fill-rule="evenodd" fill-opacity="1" /><path clip-path="url(#clip700)" d="M1481.57 1334.16 L1481.57 1341.99 L1479.44 1341.99 L1479.44 1334.23 Q1479.44 1332.39 1478.72 1331.48 Q1478.01 1330.56 1476.57 1330.56 Q1474.85 1330.56 1473.85 1331.66 Q1472.86 1332.76 1472.86 1334.66 L1472.86 1341.99 L1470.71 1341.99 L1470.71 1329.02 L1472.86 1329.02 L1472.86 1331.04 Q1473.62 1329.87 1474.65 1329.29 Q1475.69 1328.71 1477.05 1328.71 Q1479.28 1328.71 1480.43 1330.1 Q1481.57 1331.48 1481.57 1334.16 Z" fill="#000000" fill-rule="evenodd" fill-opacity="1" /><path clip-path="url(#clip700)" d="M1487.93 1325.34 L1487.93 1329.02 L1492.31 1329.02 L1492.31 1330.68 L1487.93 1330.68 L1487.93 1337.72 Q1487.93 1339.3 1488.35 1339.75 Q1488.79 1340.2 1490.12 1340.2 L1492.31 1340.2 L1492.31 1341.99 L1490.12 1341.99 Q1487.66 1341.99 1486.72 1341.07 Q1485.78 1340.15 1485.78 1337.72 L1485.78 1330.68 L1484.22 1330.68 L1484.22 1329.02 L1485.78 1329.02 L1485.78 1325.34 L1487.93 1325.34 Z" fill="#000000" fill-rule="evenodd" fill-opacity="1" /><path clip-path="url(#clip700)" d="M1500.41 1333.78 Q1498.75 1333.78 1497.79 1334.67 Q1496.84 1335.56 1496.84 1337.12 Q1496.84 1338.69 1497.79 1339.58 Q1498.75 1340.47 1500.41 1340.47 Q1502.08 1340.47 1503.04 1339.58 Q1504 1338.68 1504 1337.12 Q1504 1335.56 1503.04 1334.67 Q1502.09 1333.78 1500.41 1333.78 M1498.08 1332.78 Q1496.57 1332.41 1495.73 1331.38 Q1494.89 1330.35 1494.89 1328.87 Q1494.89 1326.8 1496.36 1325.6 Q1497.84 1324.39 1500.41 1324.39 Q1502.99 1324.39 1504.46 1325.6 Q1505.93 1326.8 1505.93 1328.87 Q1505.93 1330.35 1505.09 1331.38 Q1504.26 1332.41 1502.76 1332.78 Q1504.45 1333.18 1505.39 1334.32 Q1506.34 1335.47 1506.34 1337.12 Q1506.34 1339.64 1504.8 1340.98 Q1503.27 1342.32 1500.41 1342.32 Q1497.55 1342.32 1496.02 1340.98 Q1494.49 1339.64 1494.49 1337.12 Q1494.49 1335.47 1495.44 1334.32 Q1496.39 1333.18 1498.08 1332.78 M1497.22 1329.09 Q1497.22 1330.44 1498.05 1331.19 Q1498.9 1331.94 1500.41 1331.94 Q1501.92 1331.94 1502.76 1331.19 Q1503.62 1330.44 1503.62 1329.09 Q1503.62 1327.75 1502.76 1327 Q1501.92 1326.25 1500.41 1326.25 Q1498.9 1326.25 1498.05 1327 Q1497.22 1327.75 1497.22 1329.09 Z" fill="#000000" fill-rule="evenodd" fill-opacity="1" /></svg>
