<?xml version="1.0" encoding="utf-8"?>
<svg xmlns="http://www.w3.org/2000/svg" xmlns:xlink="http://www.w3.org/1999/xlink" width="600" height="400" viewBox="0 0 2400 1600">
<defs>
  <clipPath id="clip040">
    <rect x="0" y="0" width="2400" height="1600"/>
  </clipPath>
</defs>
<path clip-path="url(#clip040)" d="
M0 1600 L2400 1600 L2400 0 L0 0  Z
  " fill="#ffffff" fill-rule="evenodd" fill-opacity="1"/>
<defs>
  <clipPath id="clip041">
    <rect x="480" y="0" width="1681" height="1600"/>
  </clipPath>
</defs>
<path clip-path="url(#clip040)" d="
M447.244 1552.76 L1952.76 1552.76 L1952.76 47.2441 L447.244 47.2441  Z
  " fill="#ffffff" fill-rule="evenodd" fill-opacity="1"/>
<defs>
  <clipPath id="clip042">
    <rect x="447" y="47" width="1507" height="1507"/>
  </clipPath>
</defs>
<polyline clip-path="url(#clip042)" style="stroke:#000000; stroke-width:4; stroke-opacity:1; fill:none" points="
  1172.51,262.317 1172.47,269.853 1172.36,277.547 1172.18,285.386 1171.93,293.36 1171.62,301.457 1171.26,309.665 1170.86,317.972 1170.41,326.366 1169.93,334.837 
  1169.41,343.372 1168.87,351.959 1168.31,360.588 1167.74,369.245 1167.16,377.92 1166.57,386.601 1165.99,395.276 1165.42,403.934 1164.86,412.562 1164.32,421.15 
  1163.81,429.685 1163.32,438.155 1162.88,446.55 1162.47,454.857 1162.11,463.065 1161.8,471.161 1161.56,479.135 1161.37,486.975 1161.26,494.669 1161.22,502.204 
  
  "/>
<polyline clip-path="url(#clip042)" style="stroke:#000000; stroke-width:4; stroke-opacity:1; fill:none" points="
  1161.22,502.204 1161.35,507.261 1161.72,512.396 1162.32,517.605 1163.12,522.882 1164.12,528.22 1165.29,533.613 1166.61,539.057 1168.06,544.545 1169.64,550.071 
  1171.31,555.629 1173.06,561.213 1174.88,566.818 1176.75,572.438 1178.64,578.066 1180.54,583.698 1182.43,589.326 1184.29,594.946 1186.11,600.551 1187.86,606.136 
  1189.54,611.694 1191.11,617.219 1192.57,622.707 1193.89,628.151 1195.05,633.545 1196.05,638.883 1196.86,644.159 1197.45,649.368 1197.83,654.503 1197.95,659.56 
  
  "/>
<polyline clip-path="url(#clip042)" style="stroke:#000000; stroke-width:4; stroke-opacity:1; fill:none" points="
  1197.95,659.56 1197.93,666.853 1197.88,674.3 1197.78,681.889 1197.66,689.609 1197.5,697.45 1197.32,705.398 1197.11,713.443 1196.89,721.574 1196.64,729.779 
  1196.38,738.047 1196.11,746.366 1195.83,754.725 1195.54,763.112 1195.24,771.516 1194.95,779.927 1194.65,788.331 1194.36,796.718 1194.08,805.077 1193.81,813.396 
  1193.55,821.664 1193.3,829.869 1193.07,838 1192.87,846.045 1192.69,853.993 1192.53,861.834 1192.41,869.554 1192.31,877.143 1192.26,884.59 1192.24,891.883 
  
  "/>
<polyline clip-path="url(#clip042)" style="stroke:#000000; stroke-width:4; stroke-opacity:1; fill:none" points="
  1192.24,891.883 1191.91,898.325 1190.95,904.756 1189.42,911.175 1187.35,917.584 1184.8,923.984 1181.81,930.375 1178.42,936.759 1174.68,943.136 1170.65,949.507 
  1166.36,955.874 1161.86,962.236 1157.2,968.596 1152.42,974.953 1147.57,981.309 1142.7,987.664 1137.85,994.02 1133.07,1000.38 1128.41,1006.74 1123.91,1013.1 
  1119.62,1019.47 1115.59,1025.84 1111.85,1032.21 1108.46,1038.6 1105.47,1044.99 1102.92,1051.39 1100.85,1057.8 1099.32,1064.22 1098.36,1070.65 1098.04,1077.09 
  
  "/>
<polyline clip-path="url(#clip042)" style="stroke:#000000; stroke-width:4; stroke-opacity:1; fill:none" points="
  1192.24,891.883 1192.33,899.823 1192.61,907.921 1193.05,916.166 1193.64,924.546 1194.38,933.049 1195.24,941.664 1196.22,950.378 1197.3,959.18 1198.46,968.059 
  1199.7,977.002 1201,985.998 1202.34,995.036 1203.72,1004.1 1205.12,1013.19 1206.52,1022.28 1207.92,1031.36 1209.3,1040.43 1210.64,1049.46 1211.94,1058.46 
  1213.18,1067.4 1214.34,1076.28 1215.42,1085.08 1216.39,1093.8 1217.26,1102.41 1217.99,1110.92 1218.59,1119.3 1219.03,1127.54 1219.31,1135.64 1219.4,1143.58 
  
  "/>
<polyline clip-path="url(#clip042)" style="stroke:#000000; stroke-width:4; stroke-opacity:1; fill:none" points="
  1192.24,891.883 1192.67,898.15 1193.95,904.264 1196,910.237 1198.76,916.081 1202.17,921.806 1206.17,927.425 1210.7,932.947 1215.69,938.386 1221.09,943.751 
  1226.82,949.053 1232.83,954.306 1239.06,959.518 1245.45,964.703 1251.93,969.871 1258.44,975.033 1264.92,980.201 1271.3,985.385 1277.53,990.598 1283.55,995.85 
  1289.28,1001.15 1294.67,1006.52 1299.67,1011.96 1304.19,1017.48 1308.19,1023.1 1311.61,1028.82 1314.37,1034.67 1316.42,1040.64 1317.69,1046.75 1318.13,1053.02 
  
  "/>
<polyline clip-path="url(#clip042)" style="stroke:#000000; stroke-width:4; stroke-opacity:1; fill:none" points="
  1192.24,891.883 1191.25,903.435 1188.4,914.415 1183.8,924.864 1177.62,934.824 1169.97,944.339 1161.01,953.451 1150.86,962.203 1139.68,970.636 1127.59,978.793 
  1114.74,986.716 1101.27,994.449 1087.31,1002.03 1073,1009.51 1058.49,1016.93 1043.9,1024.32 1029.38,1031.73 1015.08,1039.21 1001.12,1046.8 987.643,1054.53 
  974.793,1062.45 962.706,1070.61 951.522,1079.04 941.378,1087.79 932.415,1096.9 924.769,1106.42 918.582,1116.38 913.99,1126.83 911.133,1137.81 910.15,1149.36 
  
  "/>
<polyline clip-path="url(#clip042)" style="stroke:#000000; stroke-width:4; stroke-opacity:1; fill:none" points="
  910.15,1149.36 910.665,1154.44 912.162,1159.19 914.568,1163.62 917.811,1167.76 921.817,1171.64 926.514,1175.29 931.83,1178.72 937.691,1181.96 944.024,1185.04 
  950.758,1187.99 957.819,1190.82 965.134,1193.56 972.631,1196.24 980.238,1198.88 987.881,1201.51 995.487,1204.16 1002.98,1206.84 1010.3,1209.58 1017.36,1212.41 
  1024.09,1215.35 1030.43,1218.43 1036.29,1221.68 1041.6,1225.11 1046.3,1228.75 1050.31,1232.63 1053.55,1236.78 1055.96,1241.21 1057.45,1245.95 1057.97,1251.04 
  
  "/>
<polyline clip-path="url(#clip042)" style="stroke:#000000; stroke-width:4; stroke-opacity:1; fill:none" points="
  910.15,1149.36 910.325,1153.73 910.833,1158.13 911.65,1162.56 912.751,1167.01 914.111,1171.49 915.706,1176 917.51,1180.52 919.5,1185.06 921.65,1189.61 
  923.936,1194.18 926.334,1198.76 928.817,1203.35 931.362,1207.94 933.945,1212.53 936.54,1217.13 939.122,1221.73 941.667,1226.32 944.151,1230.9 946.548,1235.48 
  948.834,1240.05 950.984,1244.6 952.974,1249.14 954.779,1253.67 956.373,1258.17 957.734,1262.65 958.834,1267.1 959.651,1271.53 960.159,1275.93 960.334,1280.3 
  
  "/>
<polyline clip-path="url(#clip042)" style="stroke:#000000; stroke-width:4; stroke-opacity:1; fill:none" points="
  910.15,1149.36 909.389,1157.43 907.179,1164.95 903.627,1171.99 898.84,1178.56 892.926,1184.72 885.992,1190.5 878.145,1195.95 869.493,1201.1 860.142,1205.99 
  850.202,1210.66 839.778,1215.15 828.978,1219.5 817.91,1223.76 806.681,1227.95 795.398,1232.13 784.169,1236.32 773.101,1240.57 762.302,1244.93 751.878,1249.42 
  741.937,1254.09 732.587,1258.98 723.935,1264.13 716.088,1269.57 709.153,1275.35 703.239,1281.51 698.452,1288.09 694.9,1295.12 692.69,1302.65 691.929,1310.71 
  
  "/>
<polyline clip-path="url(#clip042)" style="stroke:#000000; stroke-width:4; stroke-opacity:1; fill:none" points="
  910.15,1149.36 910.02,1154.91 909.642,1160.54 909.034,1166.26 908.215,1172.06 907.204,1177.93 906.017,1183.86 904.675,1189.85 903.195,1195.9 901.596,1201.98 
  899.895,1208.1 898.112,1214.26 896.265,1220.43 894.372,1226.63 892.451,1232.83 890.521,1239.04 888.6,1245.24 886.707,1251.43 884.859,1257.61 883.076,1263.76 
  881.376,1269.89 879.776,1275.97 878.296,1282.01 876.954,1288 875.768,1293.94 874.756,1299.81 873.937,1305.6 873.33,1311.33 872.951,1316.96 872.821,1322.51 
  
  "/>
<polyline clip-path="url(#clip042)" style="stroke:#000000; stroke-width:4; stroke-opacity:1; fill:none" points="
  910.15,1149.36 909.706,1156.36 908.415,1163.25 906.34,1170.05 903.543,1176.74 900.088,1183.36 896.037,1189.9 891.453,1196.37 886.399,1202.78 880.937,1209.13 
  875.13,1215.45 869.041,1221.72 862.732,1227.97 856.266,1234.2 849.707,1240.42 843.115,1246.63 836.556,1252.84 830.09,1259.07 823.781,1265.32 817.692,1271.6 
  811.885,1277.91 806.423,1284.27 801.369,1290.68 796.785,1297.15 792.734,1303.69 789.279,1310.3 786.482,1317 784.407,1323.79 783.116,1330.68 782.672,1337.68 
  
  "/>
<polyline clip-path="url(#clip042)" style="stroke:#000000; stroke-width:4; stroke-opacity:1; fill:none" points="
  910.15,1149.36 909.286,1154 906.776,1158.33 902.742,1162.38 897.306,1166.16 890.589,1169.7 882.713,1173.03 873.802,1176.16 863.975,1179.12 853.356,1181.93 
  842.067,1184.62 830.228,1187.21 817.963,1189.71 805.393,1192.16 792.641,1194.57 779.827,1196.97 767.074,1199.38 754.504,1201.83 742.239,1204.34 730.4,1206.92 
  719.111,1209.61 708.492,1212.42 698.665,1215.38 689.754,1218.51 681.878,1221.84 675.162,1225.38 669.725,1229.16 665.691,1233.21 663.181,1237.54 662.317,1242.18 
  
  "/>
<polyline clip-path="url(#clip042)" style="stroke:#000000; stroke-width:4; stroke-opacity:1; fill:none" points="
  1192.24,891.883 1193.27,903.28 1196.27,913.982 1201.09,924.04 1207.58,933.507 1215.61,942.434 1225.02,950.872 1235.66,958.873 1247.41,966.488 1260.09,973.768 
  1273.58,980.765 1287.73,987.531 1302.38,994.117 1317.4,1000.57 1332.64,1006.95 1347.95,1013.31 1363.18,1019.69 1378.2,1026.15 1392.86,1032.73 1407,1039.5 
  1420.49,1046.49 1433.18,1053.77 1444.92,1061.39 1455.57,1069.39 1464.98,1077.83 1473,1086.75 1479.5,1096.22 1484.32,1106.28 1487.32,1116.98 1488.35,1128.38 
  
  "/>
<polyline clip-path="url(#clip042)" style="stroke:#000000; stroke-width:4; stroke-opacity:1; fill:none" points="
  1488.35,1128.38 1489.22,1135.47 1491.74,1142.08 1495.8,1148.26 1501.27,1154.04 1508.03,1159.46 1515.95,1164.54 1524.92,1169.32 1534.8,1173.85 1545.49,1178.15 
  1556.84,1182.25 1568.75,1186.2 1581.09,1190.02 1593.74,1193.76 1606.57,1197.45 1619.46,1201.12 1632.29,1204.8 1644.94,1208.54 1657.28,1212.37 1669.19,1216.32 
  1680.55,1220.42 1691.23,1224.72 1701.11,1229.24 1710.08,1234.03 1718,1239.11 1724.76,1244.52 1730.23,1250.3 1734.29,1256.48 1736.81,1263.1 1737.68,1270.19 
  
  "/>
<polyline clip-path="url(#clip042)" style="stroke:#000000; stroke-width:4; stroke-opacity:1; fill:none" points="
  1488.35,1128.38 1488.99,1136.58 1490.86,1144.48 1493.85,1152.09 1497.89,1159.45 1502.88,1166.57 1508.73,1173.48 1515.36,1180.19 1522.66,1186.74 1530.55,1193.14 
  1538.93,1199.41 1547.73,1205.59 1556.84,1211.68 1566.18,1217.72 1575.66,1223.73 1585.18,1229.72 1594.65,1235.72 1603.99,1241.76 1613.11,1247.86 1621.9,1254.03 
  1630.29,1260.31 1638.18,1266.71 1645.48,1273.25 1652.1,1279.97 1657.95,1286.87 1662.94,1293.99 1666.98,1301.35 1669.98,1308.97 1671.85,1316.86 1672.49,1325.07 
  
  "/>
<polyline clip-path="url(#clip042)" style="stroke:#000000; stroke-width:4; stroke-opacity:1; fill:none" points="
  1488.35,1128.38 1488.38,1133.57 1488.46,1138.87 1488.59,1144.27 1488.77,1149.76 1488.99,1155.34 1489.24,1160.99 1489.53,1166.71 1489.85,1172.49 1490.2,1178.33 
  1490.57,1184.21 1490.95,1190.12 1491.35,1196.06 1491.76,1202.03 1492.18,1208 1492.59,1213.98 1493.01,1219.96 1493.42,1225.92 1493.82,1231.86 1494.2,1237.78 
  1494.57,1243.65 1494.92,1249.49 1495.24,1255.27 1495.53,1260.99 1495.78,1266.65 1496,1272.22 1496.18,1277.71 1496.31,1283.11 1496.39,1288.41 1496.42,1293.6 
  
  "/>
<polyline clip-path="url(#clip042)" style="stroke:#000000; stroke-width:4; stroke-opacity:1; fill:none" points="
  1488.35,1128.38 1488.01,1133.23 1487.03,1137.97 1485.44,1142.6 1483.31,1147.13 1480.68,1151.57 1477.59,1155.93 1474.09,1160.22 1470.24,1164.44 1466.07,1168.6 
  1461.65,1172.72 1457,1176.8 1452.19,1180.85 1447.26,1184.88 1442.26,1188.89 1437.23,1192.9 1432.23,1196.91 1427.3,1200.94 1422.49,1204.99 1417.85,1209.07 
  1413.42,1213.19 1409.26,1217.35 1405.4,1221.57 1401.91,1225.86 1398.82,1230.22 1396.18,1234.66 1394.05,1239.19 1392.47,1243.82 1391.48,1248.56 1391.15,1253.41 
  
  "/>
<polyline clip-path="url(#clip042)" style="stroke:#000000; stroke-width:4; stroke-opacity:1; fill:none" points="
  1488.35,1128.38 1488.69,1134.97 1489.68,1141.55 1491.28,1148.11 1493.43,1154.66 1496.09,1161.19 1499.2,1167.71 1502.72,1174.22 1506.61,1180.73 1510.81,1187.22 
  1515.27,1193.7 1519.96,1200.18 1524.81,1206.65 1529.78,1213.13 1534.82,1219.59 1539.89,1226.06 1544.93,1232.53 1549.9,1239 1554.76,1245.48 1559.44,1251.96 
  1563.9,1258.44 1568.1,1264.93 1571.99,1271.43 1575.51,1277.94 1578.63,1284.46 1581.28,1291 1583.43,1297.54 1585.03,1304.11 1586.02,1310.68 1586.36,1317.28 
  
  "/>
<path clip-path="url(#clip042)" d="
M1191.16 262.317 L1181.84 246.169 L1163.19 246.169 L1153.87 262.317 L1163.19 278.465 L1181.84 278.465 L1191.16 262.317 L1191.16 262.317  Z
  " fill="#009af9" fill-rule="evenodd" fill-opacity="1"/>
<polyline clip-path="url(#clip042)" style="stroke:#000000; stroke-width:4; stroke-opacity:1; fill:none" points="
  1191.16,262.317 1181.84,246.169 1163.19,246.169 1153.87,262.317 1163.19,278.465 1181.84,278.465 1191.16,262.317 
  "/>
<path clip-path="url(#clip042)" d="
M1193.68 502.204 L1177.45 474.089 L1144.99 474.089 L1128.75 502.204 L1144.99 530.32 L1177.45 530.32 L1193.68 502.204 L1193.68 502.204  Z
  " fill="#009af9" fill-rule="evenodd" fill-opacity="1"/>
<polyline clip-path="url(#clip042)" style="stroke:#000000; stroke-width:4; stroke-opacity:1; fill:none" points="
  1193.68,502.204 1177.45,474.089 1144.99,474.089 1128.75,502.204 1144.99,530.32 1177.45,530.32 1193.68,502.204 
  "/>
<path clip-path="url(#clip042)" d="
M1221.42 659.56 L1209.69 639.233 L1186.22 639.233 L1174.48 659.56 L1186.22 679.886 L1209.69 679.886 L1221.42 659.56 L1221.42 659.56  Z
  " fill="#009af9" fill-rule="evenodd" fill-opacity="1"/>
<polyline clip-path="url(#clip042)" style="stroke:#000000; stroke-width:4; stroke-opacity:1; fill:none" points="
  1221.42,659.56 1209.69,639.233 1186.22,639.233 1174.48,659.56 1186.22,679.886 1209.69,679.886 1221.42,659.56 
  "/>
<path clip-path="url(#clip042)" d="
M1228.96 891.883 L1210.6 860.078 L1173.87 860.078 L1155.51 891.883 L1173.87 923.688 L1210.6 923.688 L1228.96 891.883 L1228.96 891.883  Z
  " fill="#009af9" fill-rule="evenodd" fill-opacity="1"/>
<polyline clip-path="url(#clip042)" style="stroke:#000000; stroke-width:4; stroke-opacity:1; fill:none" points="
  1228.96,891.883 1210.6,860.078 1173.87,860.078 1155.51,891.883 1173.87,923.688 1210.6,923.688 1228.96,891.883 
  "/>
<path clip-path="url(#clip042)" d="
M1121.51 1077.09 L1109.77 1056.76 L1086.3 1056.76 L1074.56 1077.09 L1086.3 1097.42 L1109.77 1097.42 L1121.51 1077.09 L1121.51 1077.09  Z
  " fill="#009af9" fill-rule="evenodd" fill-opacity="1"/>
<polyline clip-path="url(#clip042)" style="stroke:#000000; stroke-width:4; stroke-opacity:1; fill:none" points="
  1121.51,1077.09 1109.77,1056.76 1086.3,1056.76 1074.56,1077.09 1086.3,1097.42 1109.77,1097.42 1121.51,1077.09 
  "/>
<path clip-path="url(#clip042)" d="
M1279.66 1143.58 L1249.53 1091.39 L1189.27 1091.39 L1159.14 1143.58 L1189.27 1195.77 L1249.53 1195.77 L1279.66 1143.58 L1279.66 1143.58  Z
  " fill="#009af9" fill-rule="evenodd" fill-opacity="1"/>
<polyline clip-path="url(#clip042)" style="stroke:#000000; stroke-width:4; stroke-opacity:1; fill:none" points="
  1279.66,1143.58 1249.53,1091.39 1189.27,1091.39 1159.14,1143.58 1189.27,1195.77 1249.53,1195.77 1279.66,1143.58 
  "/>
<path clip-path="url(#clip042)" d="
M1378.39 1053.02 L1348.26 1000.83 L1288 1000.83 L1257.87 1053.02 L1288 1105.21 L1348.26 1105.21 L1378.39 1053.02 L1378.39 1053.02  Z
  " fill="#009af9" fill-rule="evenodd" fill-opacity="1"/>
<polyline clip-path="url(#clip042)" style="stroke:#000000; stroke-width:4; stroke-opacity:1; fill:none" points="
  1378.39,1053.02 1348.26,1000.83 1288,1000.83 1257.87,1053.02 1288,1105.21 1348.26,1105.21 1378.39,1053.02 
  "/>
<path clip-path="url(#clip042)" d="
M942.615 1149.36 L926.382 1121.25 L893.918 1121.25 L877.685 1149.36 L893.918 1177.48 L926.382 1177.48 L942.615 1149.36 L942.615 1149.36  Z
  " fill="#009af9" fill-rule="evenodd" fill-opacity="1"/>
<polyline clip-path="url(#clip042)" style="stroke:#000000; stroke-width:4; stroke-opacity:1; fill:none" points="
  942.615,1149.36 926.382,1121.25 893.918,1121.25 877.685,1149.36 893.918,1177.48 926.382,1177.48 942.615,1149.36 
  "/>
<path clip-path="url(#clip042)" d="
M1090.43 1251.04 L1074.2 1222.92 L1041.74 1222.92 L1025.5 1251.04 L1041.74 1279.15 L1074.2 1279.15 L1090.43 1251.04 L1090.43 1251.04  Z
  " fill="#009af9" fill-rule="evenodd" fill-opacity="1"/>
<polyline clip-path="url(#clip042)" style="stroke:#000000; stroke-width:4; stroke-opacity:1; fill:none" points="
  1090.43,1251.04 1074.2,1222.92 1041.74,1222.92 1025.5,1251.04 1041.74,1279.15 1074.2,1279.15 1090.43,1251.04 
  "/>
<path clip-path="url(#clip042)" d="
M992.799 1280.3 L976.567 1252.19 L944.102 1252.19 L927.87 1280.3 L944.102 1308.42 L976.567 1308.42 L992.799 1280.3 L992.799 1280.3  Z
  " fill="#009af9" fill-rule="evenodd" fill-opacity="1"/>
<polyline clip-path="url(#clip042)" style="stroke:#000000; stroke-width:4; stroke-opacity:1; fill:none" points="
  992.799,1280.3 976.567,1252.19 944.102,1252.19 927.87,1280.3 944.102,1308.42 976.567,1308.42 992.799,1280.3 
  "/>
<path clip-path="url(#clip042)" d="
M719.988 1310.71 L705.959 1286.42 L677.9 1286.42 L663.871 1310.71 L677.9 1335.01 L705.959 1335.01 L719.988 1310.71 L719.988 1310.71  Z
  " fill="#009af9" fill-rule="evenodd" fill-opacity="1"/>
<polyline clip-path="url(#clip042)" style="stroke:#000000; stroke-width:4; stroke-opacity:1; fill:none" points="
  719.988,1310.71 705.959,1286.42 677.9,1286.42 663.871,1310.71 677.9,1335.01 705.959,1335.01 719.988,1310.71 
  "/>
<path clip-path="url(#clip042)" d="
M900.88 1322.51 L886.851 1298.21 L858.792 1298.21 L844.763 1322.51 L858.792 1346.81 L886.851 1346.81 L900.88 1322.51 L900.88 1322.51  Z
  " fill="#009af9" fill-rule="evenodd" fill-opacity="1"/>
<polyline clip-path="url(#clip042)" style="stroke:#000000; stroke-width:4; stroke-opacity:1; fill:none" points="
  900.88,1322.51 886.851,1298.21 858.792,1298.21 844.763,1322.51 858.792,1346.81 886.851,1346.81 900.88,1322.51 
  "/>
<path clip-path="url(#clip042)" d="
M810.731 1337.68 L796.701 1313.38 L768.643 1313.38 L754.614 1337.68 L768.643 1361.98 L796.701 1361.98 L810.731 1337.68 L810.731 1337.68  Z
  " fill="#009af9" fill-rule="evenodd" fill-opacity="1"/>
<polyline clip-path="url(#clip042)" style="stroke:#000000; stroke-width:4; stroke-opacity:1; fill:none" points="
  810.731,1337.68 796.701,1313.38 768.643,1313.38 754.614,1337.68 768.643,1361.98 796.701,1361.98 810.731,1337.68 
  "/>
<path clip-path="url(#clip042)" d="
M685.788 1242.18 L674.053 1221.85 L650.582 1221.85 L638.846 1242.18 L650.582 1262.51 L674.053 1262.51 L685.788 1242.18 L685.788 1242.18  Z
  " fill="#009af9" fill-rule="evenodd" fill-opacity="1"/>
<polyline clip-path="url(#clip042)" style="stroke:#000000; stroke-width:4; stroke-opacity:1; fill:none" points="
  685.788,1242.18 674.053,1221.85 650.582,1221.85 638.846,1242.18 650.582,1262.51 674.053,1262.51 685.788,1242.18 
  "/>
<path clip-path="url(#clip042)" d="
M1529.21 1128.38 L1508.78 1092.99 L1467.92 1092.99 L1447.48 1128.38 L1467.92 1163.77 L1508.78 1163.77 L1529.21 1128.38 L1529.21 1128.38  Z
  " fill="#009af9" fill-rule="evenodd" fill-opacity="1"/>
<polyline clip-path="url(#clip042)" style="stroke:#000000; stroke-width:4; stroke-opacity:1; fill:none" points="
  1529.21,1128.38 1508.78,1092.99 1467.92,1092.99 1447.48,1128.38 1467.92,1163.77 1508.78,1163.77 1529.21,1128.38 
  "/>
<path clip-path="url(#clip042)" d="
M1774.41 1270.19 L1756.05 1238.38 L1719.32 1238.38 L1700.96 1270.19 L1719.32 1301.99 L1756.05 1301.99 L1774.41 1270.19 L1774.41 1270.19  Z
  " fill="#009af9" fill-rule="evenodd" fill-opacity="1"/>
<polyline clip-path="url(#clip042)" style="stroke:#000000; stroke-width:4; stroke-opacity:1; fill:none" points="
  1774.41,1270.19 1756.05,1238.38 1719.32,1238.38 1700.96,1270.19 1719.32,1301.99 1756.05,1301.99 1774.41,1270.19 
  "/>
<path clip-path="url(#clip042)" d="
M1704.95 1325.07 L1688.72 1296.95 L1656.26 1296.95 L1640.02 1325.07 L1656.26 1353.18 L1688.72 1353.18 L1704.95 1325.07 L1704.95 1325.07  Z
  " fill="#009af9" fill-rule="evenodd" fill-opacity="1"/>
<polyline clip-path="url(#clip042)" style="stroke:#000000; stroke-width:4; stroke-opacity:1; fill:none" points="
  1704.95,1325.07 1688.72,1296.95 1656.26,1296.95 1640.02,1325.07 1656.26,1353.18 1688.72,1353.18 1704.95,1325.07 
  "/>
<path clip-path="url(#clip042)" d="
M1528.89 1293.6 L1512.65 1265.49 L1480.19 1265.49 L1463.96 1293.6 L1480.19 1321.72 L1512.65 1321.72 L1528.89 1293.6 L1528.89 1293.6  Z
  " fill="#009af9" fill-rule="evenodd" fill-opacity="1"/>
<polyline clip-path="url(#clip042)" style="stroke:#000000; stroke-width:4; stroke-opacity:1; fill:none" points="
  1528.89,1293.6 1512.65,1265.49 1480.19,1265.49 1463.96,1293.6 1480.19,1321.72 1512.65,1321.72 1528.89,1293.6 
  "/>
<path clip-path="url(#clip042)" d="
M1423.61 1253.41 L1407.38 1225.3 L1374.91 1225.3 L1358.68 1253.41 L1374.91 1281.53 L1407.38 1281.53 L1423.61 1253.41 L1423.61 1253.41  Z
  " fill="#009af9" fill-rule="evenodd" fill-opacity="1"/>
<polyline clip-path="url(#clip042)" style="stroke:#000000; stroke-width:4; stroke-opacity:1; fill:none" points="
  1423.61,1253.41 1407.38,1225.3 1374.91,1225.3 1358.68,1253.41 1374.91,1281.53 1407.38,1281.53 1423.61,1253.41 
  "/>
<path clip-path="url(#clip042)" d="
M1614.42 1317.28 L1600.39 1292.98 L1572.33 1292.98 L1558.3 1317.28 L1572.33 1341.58 L1600.39 1341.58 L1614.42 1317.28 L1614.42 1317.28  Z
  " fill="#009af9" fill-rule="evenodd" fill-opacity="1"/>
<polyline clip-path="url(#clip042)" style="stroke:#000000; stroke-width:4; stroke-opacity:1; fill:none" points="
  1614.42,1317.28 1600.39,1292.98 1572.33,1292.98 1558.3,1317.28 1572.33,1341.58 1600.39,1341.58 1614.42,1317.28 
  "/>
<circle clip-path="url(#clip042)" style="fill:#009af9; stroke:none; fill-opacity:1" cx="1172.51" cy="262.317" r="2"/>
<circle clip-path="url(#clip042)" style="fill:#009af9; stroke:none; fill-opacity:1" cx="1161.22" cy="502.204" r="2"/>
<circle clip-path="url(#clip042)" style="fill:#009af9; stroke:none; fill-opacity:1" cx="1197.95" cy="659.56" r="2"/>
<circle clip-path="url(#clip042)" style="fill:#009af9; stroke:none; fill-opacity:1" cx="1192.24" cy="891.883" r="2"/>
<circle clip-path="url(#clip042)" style="fill:#009af9; stroke:none; fill-opacity:1" cx="1098.04" cy="1077.09" r="2"/>
<circle clip-path="url(#clip042)" style="fill:#009af9; stroke:none; fill-opacity:1" cx="1219.4" cy="1143.58" r="2"/>
<circle clip-path="url(#clip042)" style="fill:#009af9; stroke:none; fill-opacity:1" cx="1318.13" cy="1053.02" r="2"/>
<circle clip-path="url(#clip042)" style="fill:#009af9; stroke:none; fill-opacity:1" cx="910.15" cy="1149.36" r="2"/>
<circle clip-path="url(#clip042)" style="fill:#009af9; stroke:none; fill-opacity:1" cx="1057.97" cy="1251.04" r="2"/>
<circle clip-path="url(#clip042)" style="fill:#009af9; stroke:none; fill-opacity:1" cx="960.334" cy="1280.3" r="2"/>
<circle clip-path="url(#clip042)" style="fill:#009af9; stroke:none; fill-opacity:1" cx="691.929" cy="1310.71" r="2"/>
<circle clip-path="url(#clip042)" style="fill:#009af9; stroke:none; fill-opacity:1" cx="872.821" cy="1322.51" r="2"/>
<circle clip-path="url(#clip042)" style="fill:#009af9; stroke:none; fill-opacity:1" cx="782.672" cy="1337.68" r="2"/>
<circle clip-path="url(#clip042)" style="fill:#009af9; stroke:none; fill-opacity:1" cx="662.317" cy="1242.18" r="2"/>
<circle clip-path="url(#clip042)" style="fill:#009af9; stroke:none; fill-opacity:1" cx="1488.35" cy="1128.38" r="2"/>
<circle clip-path="url(#clip042)" style="fill:#009af9; stroke:none; fill-opacity:1" cx="1737.68" cy="1270.19" r="2"/>
<circle clip-path="url(#clip042)" style="fill:#009af9; stroke:none; fill-opacity:1" cx="1672.49" cy="1325.07" r="2"/>
<circle clip-path="url(#clip042)" style="fill:#009af9; stroke:none; fill-opacity:1" cx="1496.42" cy="1293.6" r="2"/>
<circle clip-path="url(#clip042)" style="fill:#009af9; stroke:none; fill-opacity:1" cx="1391.15" cy="1253.41" r="2"/>
<circle clip-path="url(#clip042)" style="fill:#009af9; stroke:none; fill-opacity:1" cx="1586.36" cy="1317.28" r="2"/>
<path clip-path="url(#clip040)" d="M 0 0 M1159.35 255.98 L1156.18 264.58 L1162.53 264.58 L1159.35 255.98 M1158.03 253.677 L1160.68 253.677 L1167.26 270.957 L1164.83 270.957 L1163.26 266.524 L1155.47 266.524 L1153.9 270.957 L1151.43 270.957 L1158.03 253.677 Z" fill="#000000" fill-rule="evenodd" fill-opacity="1" /><path clip-path="url(#clip040)" d="M 0 0 M1180.27 263.133 L1180.27 270.957 L1178.14 270.957 L1178.14 263.203 Q1178.14 261.362 1177.43 260.448 Q1176.71 259.534 1175.27 259.534 Q1173.55 259.534 1172.55 260.633 Q1171.56 261.733 1171.56 263.631 L1171.56 270.957 L1169.42 270.957 L1169.42 257.994 L1171.56 257.994 L1171.56 260.008 Q1172.32 258.839 1173.35 258.261 Q1174.39 257.682 1175.75 257.682 Q1177.98 257.682 1179.13 259.071 Q1180.27 260.448 1180.27 263.133 Z" fill="#000000" fill-rule="evenodd" fill-opacity="1" /><path clip-path="url(#clip040)" d="M 0 0 M1187.9 272.161 Q1187 274.476 1186.14 275.182 Q1185.29 275.888 1183.85 275.888 L1182.15 275.888 L1182.15 274.105 L1183.4 274.105 Q1184.28 274.105 1184.76 273.689 Q1185.25 273.272 1185.84 271.721 L1186.22 270.749 L1180.98 257.994 L1183.24 257.994 L1187.29 268.133 L1191.34 257.994 L1193.6 257.994 L1187.9 272.161 Z" fill="#000000" fill-rule="evenodd" fill-opacity="1" /><path clip-path="url(#clip040)" d="M 0 0 M1119.3 493.564 L1122.45 493.564 L1130.11 508.02 L1130.11 493.564 L1132.38 493.564 L1132.38 510.844 L1129.23 510.844 L1121.57 496.389 L1121.57 510.844 L1119.3 510.844 L1119.3 493.564 Z" fill="#000000" fill-rule="evenodd" fill-opacity="1" /><path clip-path="url(#clip040)" d="M 0 0 M1134.39 505.729 L1134.39 497.882 L1136.52 497.882 L1136.52 505.648 Q1136.52 507.488 1137.24 508.414 Q1137.95 509.328 1139.39 509.328 Q1141.11 509.328 1142.11 508.229 Q1143.12 507.129 1143.12 505.231 L1143.12 497.882 L1145.25 497.882 L1145.25 510.844 L1143.12 510.844 L1143.12 508.854 Q1142.34 510.034 1141.31 510.613 Q1140.29 511.18 1138.94 511.18 Q1136.7 511.18 1135.55 509.791 Q1134.39 508.402 1134.39 505.729 M1139.75 497.569 L1139.75 497.569 Z" fill="#000000" fill-rule="evenodd" fill-opacity="1" /><path clip-path="url(#clip040)" d="M 0 0 M1157.57 500.37 Q1158.37 498.935 1159.48 498.252 Q1160.59 497.569 1162.1 497.569 Q1164.12 497.569 1165.22 498.993 Q1166.32 500.405 1166.32 503.02 L1166.32 510.844 L1164.18 510.844 L1164.18 503.09 Q1164.18 501.226 1163.52 500.324 Q1162.86 499.421 1161.51 499.421 Q1159.85 499.421 1158.89 500.52 Q1157.93 501.62 1157.93 503.518 L1157.93 510.844 L1155.79 510.844 L1155.79 503.09 Q1155.79 501.215 1155.13 500.324 Q1154.47 499.421 1153.09 499.421 Q1151.46 499.421 1150.5 500.532 Q1149.54 501.632 1149.54 503.518 L1149.54 510.844 L1147.4 510.844 L1147.4 497.882 L1149.54 497.882 L1149.54 499.895 Q1150.27 498.703 1151.29 498.136 Q1152.31 497.569 1153.71 497.569 Q1155.12 497.569 1156.1 498.287 Q1157.1 499.004 1157.57 500.37 Z" fill="#000000" fill-rule="evenodd" fill-opacity="1" /><path clip-path="url(#clip040)" d="M 0 0 M1177.86 504.375 Q1177.86 502.025 1176.89 500.694 Q1175.93 499.351 1174.24 499.351 Q1172.55 499.351 1171.58 500.694 Q1170.62 502.025 1170.62 504.375 Q1170.62 506.724 1171.58 508.067 Q1172.55 509.398 1174.24 509.398 Q1175.93 509.398 1176.89 508.067 Q1177.86 506.724 1177.86 504.375 M1170.62 499.849 Q1171.29 498.692 1172.31 498.136 Q1173.34 497.569 1174.76 497.569 Q1177.12 497.569 1178.59 499.444 Q1180.07 501.319 1180.07 504.375 Q1180.07 507.43 1178.59 509.305 Q1177.12 511.18 1174.76 511.18 Q1173.34 511.18 1172.31 510.625 Q1171.29 510.057 1170.62 508.9 L1170.62 510.844 L1168.48 510.844 L1168.48 492.835 L1170.62 492.835 L1170.62 499.849 Z" fill="#000000" fill-rule="evenodd" fill-opacity="1" /><path clip-path="url(#clip040)" d="M 0 0 M1193.39 503.831 L1193.39 504.872 L1183.6 504.872 Q1183.74 507.071 1184.92 508.229 Q1186.11 509.375 1188.23 509.375 Q1189.46 509.375 1190.61 509.074 Q1191.76 508.773 1192.9 508.171 L1192.9 510.185 Q1191.75 510.671 1190.55 510.925 Q1189.34 511.18 1188.11 511.18 Q1185 511.18 1183.19 509.375 Q1181.38 507.569 1181.38 504.49 Q1181.38 501.307 1183.09 499.444 Q1184.82 497.569 1187.73 497.569 Q1190.35 497.569 1191.87 499.259 Q1193.39 500.937 1193.39 503.831 M1191.26 503.206 Q1191.24 501.458 1190.28 500.416 Q1189.33 499.375 1187.76 499.375 Q1185.98 499.375 1184.9 500.382 Q1183.83 501.388 1183.67 503.217 L1191.26 503.206 Z" fill="#000000" fill-rule="evenodd" fill-opacity="1" /><path clip-path="url(#clip040)" d="M 0 0 M1203.14 499.872 Q1202.78 499.664 1202.35 499.571 Q1201.94 499.467 1201.43 499.467 Q1199.62 499.467 1198.65 500.648 Q1197.69 501.817 1197.69 504.016 L1197.69 510.844 L1195.55 510.844 L1195.55 497.882 L1197.69 497.882 L1197.69 499.895 Q1198.36 498.715 1199.44 498.148 Q1200.51 497.569 1202.05 497.569 Q1202.27 497.569 1202.54 497.604 Q1202.8 497.627 1203.13 497.685 L1203.14 499.872 Z" fill="#000000" fill-rule="evenodd" fill-opacity="1" /><path clip-path="url(#clip040)" d="M 0 0 M1184.92 660.098 Q1185.67 660.353 1186.38 661.186 Q1187.1 662.019 1187.81 663.478 L1190.19 668.2 L1187.68 668.2 L1185.47 663.767 Q1184.61 662.031 1183.8 661.464 Q1183 660.897 1181.61 660.897 L1179.06 660.897 L1179.06 668.2 L1176.73 668.2 L1176.73 650.92 L1182 650.92 Q1184.97 650.92 1186.43 652.158 Q1187.88 653.397 1187.88 655.897 Q1187.88 657.528 1187.12 658.605 Q1186.37 659.681 1184.92 660.098 M1179.06 652.841 L1179.06 658.975 L1182 658.975 Q1183.69 658.975 1184.55 658.2 Q1185.42 657.413 1185.42 655.897 Q1185.42 654.38 1184.55 653.616 Q1183.69 652.841 1182 652.841 L1179.06 652.841 Z" fill="#000000" fill-rule="evenodd" fill-opacity="1" /><path clip-path="url(#clip040)" d="M 0 0 M1202.44 661.186 L1202.44 662.228 L1192.65 662.228 Q1192.79 664.427 1193.97 665.584 Q1195.16 666.73 1197.28 666.73 Q1198.51 666.73 1199.65 666.429 Q1200.81 666.128 1201.95 665.526 L1201.95 667.54 Q1200.8 668.026 1199.6 668.281 Q1198.39 668.535 1197.15 668.535 Q1194.05 668.535 1192.24 666.73 Q1190.43 664.924 1190.43 661.846 Q1190.43 658.663 1192.14 656.799 Q1193.87 654.924 1196.78 654.924 Q1199.4 654.924 1200.92 656.614 Q1202.44 658.292 1202.44 661.186 M1200.31 660.561 Q1200.29 658.813 1199.33 657.772 Q1198.38 656.73 1196.81 656.73 Q1195.03 656.73 1193.95 657.737 Q1192.88 658.744 1192.72 660.572 L1200.31 660.561 Z" fill="#000000" fill-rule="evenodd" fill-opacity="1" /><path clip-path="url(#clip040)" d="M 0 0 M1210.57 661.684 Q1207.99 661.684 1206.99 662.274 Q1206 662.864 1206 664.288 Q1206 665.422 1206.74 666.093 Q1207.49 666.753 1208.78 666.753 Q1210.55 666.753 1211.61 665.503 Q1212.69 664.241 1212.69 662.158 L1212.69 661.684 L1210.57 661.684 M1214.82 660.804 L1214.82 668.2 L1212.69 668.2 L1212.69 666.232 Q1211.96 667.413 1210.87 667.98 Q1209.78 668.535 1208.21 668.535 Q1206.22 668.535 1205.04 667.424 Q1203.87 666.302 1203.87 664.427 Q1203.87 662.239 1205.33 661.128 Q1206.8 660.017 1209.7 660.017 L1212.69 660.017 L1212.69 659.809 Q1212.69 658.339 1211.71 657.54 Q1210.75 656.73 1209.01 656.73 Q1207.9 656.73 1206.84 656.996 Q1205.79 657.262 1204.82 657.795 L1204.82 655.827 Q1205.99 655.376 1207.09 655.156 Q1208.18 654.924 1209.23 654.924 Q1212.04 654.924 1213.43 656.383 Q1214.82 657.841 1214.82 660.804 Z" fill="#000000" fill-rule="evenodd" fill-opacity="1" /><path clip-path="url(#clip040)" d="M 0 0 M1217.05 650.191 L1219.18 650.191 L1219.18 668.2 L1217.05 668.2 L1217.05 650.191 Z" fill="#000000" fill-rule="evenodd" fill-opacity="1" /><path clip-path="url(#clip040)" d="M 0 0 M1155.56 883.243 L1157.9 883.243 L1157.9 900.523 L1155.56 900.523 L1155.56 883.243 Z" fill="#000000" fill-rule="evenodd" fill-opacity="1" /><path clip-path="url(#clip040)" d="M 0 0 M1170.9 892.699 L1170.9 900.523 L1168.77 900.523 L1168.77 892.769 Q1168.77 890.928 1168.06 890.014 Q1167.34 889.1 1165.9 889.1 Q1164.18 889.1 1163.18 890.199 Q1162.19 891.299 1162.19 893.197 L1162.19 900.523 L1160.05 900.523 L1160.05 887.56 L1162.19 887.56 L1162.19 889.574 Q1162.95 888.405 1163.98 887.826 Q1165.02 887.248 1166.38 887.248 Q1168.61 887.248 1169.76 888.637 Q1170.9 890.014 1170.9 892.699 Z" fill="#000000" fill-rule="evenodd" fill-opacity="1" /><path clip-path="url(#clip040)" d="M 0 0 M1175.24 883.88 L1175.24 887.56 L1179.63 887.56 L1179.63 889.215 L1175.24 889.215 L1175.24 896.252 Q1175.24 897.838 1175.67 898.289 Q1176.11 898.741 1177.44 898.741 L1179.63 898.741 L1179.63 900.523 L1177.44 900.523 Q1174.98 900.523 1174.04 899.609 Q1173.1 898.683 1173.1 896.252 L1173.1 889.215 L1171.54 889.215 L1171.54 887.56 L1173.1 887.56 L1173.1 883.88 L1175.24 883.88 Z" fill="#000000" fill-rule="evenodd" fill-opacity="1" /><path clip-path="url(#clip040)" d="M 0 0 M1192.95 893.509 L1192.95 894.551 L1183.16 894.551 Q1183.3 896.75 1184.48 897.907 Q1185.67 899.053 1187.79 899.053 Q1189.02 899.053 1190.16 898.752 Q1191.32 898.451 1192.46 897.85 L1192.46 899.863 Q1191.31 900.35 1190.11 900.604 Q1188.9 900.859 1187.66 900.859 Q1184.56 900.859 1182.74 899.053 Q1180.94 897.248 1180.94 894.169 Q1180.94 890.986 1182.65 889.123 Q1184.38 887.248 1187.29 887.248 Q1189.91 887.248 1191.43 888.938 Q1192.95 890.616 1192.95 893.509 M1190.82 892.884 Q1190.8 891.137 1189.84 890.095 Q1188.89 889.053 1187.32 889.053 Q1185.53 889.053 1184.46 890.06 Q1183.39 891.067 1183.23 892.896 L1190.82 892.884 Z" fill="#000000" fill-rule="evenodd" fill-opacity="1" /><path clip-path="url(#clip040)" d="M 0 0 M1203.72 893.891 Q1203.72 891.576 1202.76 890.303 Q1201.81 889.03 1200.08 889.03 Q1198.37 889.03 1197.41 890.303 Q1196.46 891.576 1196.46 893.891 Q1196.46 896.194 1197.41 897.468 Q1198.37 898.741 1200.08 898.741 Q1201.81 898.741 1202.76 897.468 Q1203.72 896.194 1203.72 893.891 M1205.85 898.914 Q1205.85 902.225 1204.38 903.833 Q1202.91 905.454 1199.87 905.454 Q1198.75 905.454 1197.76 905.28 Q1196.76 905.118 1195.82 904.771 L1195.82 902.699 Q1196.76 903.208 1197.68 903.451 Q1198.59 903.694 1199.54 903.694 Q1201.63 903.694 1202.68 902.595 Q1203.72 901.507 1203.72 899.296 L1203.72 898.243 Q1203.06 899.389 1202.03 899.956 Q1201 900.523 1199.56 900.523 Q1197.18 900.523 1195.72 898.706 Q1194.26 896.889 1194.26 893.891 Q1194.26 890.882 1195.72 889.065 Q1197.18 887.248 1199.56 887.248 Q1201 887.248 1202.03 887.815 Q1203.06 888.382 1203.72 889.528 L1203.72 887.56 L1205.85 887.56 L1205.85 898.914 Z" fill="#000000" fill-rule="evenodd" fill-opacity="1" /><path clip-path="url(#clip040)" d="M 0 0 M1219.17 893.509 L1219.17 894.551 L1209.38 894.551 Q1209.52 896.75 1210.7 897.907 Q1211.89 899.053 1214.01 899.053 Q1215.23 899.053 1216.38 898.752 Q1217.54 898.451 1218.67 897.85 L1218.67 899.863 Q1217.52 900.35 1216.32 900.604 Q1215.12 900.859 1213.88 900.859 Q1210.78 900.859 1208.96 899.053 Q1207.15 897.248 1207.15 894.169 Q1207.15 890.986 1208.87 889.123 Q1210.59 887.248 1213.51 887.248 Q1216.12 887.248 1217.64 888.938 Q1219.17 890.616 1219.17 893.509 M1217.04 892.884 Q1217.02 891.137 1216.05 890.095 Q1215.11 889.053 1213.53 889.053 Q1211.75 889.053 1210.67 890.06 Q1209.61 891.067 1209.45 892.896 L1217.04 892.884 Z" fill="#000000" fill-rule="evenodd" fill-opacity="1" /><path clip-path="url(#clip040)" d="M 0 0 M1228.91 889.551 Q1228.55 889.343 1228.13 889.25 Q1227.71 889.146 1227.2 889.146 Q1225.39 889.146 1224.42 890.326 Q1223.46 891.495 1223.46 893.694 L1223.46 900.523 L1221.32 900.523 L1221.32 887.56 L1223.46 887.56 L1223.46 889.574 Q1224.13 888.394 1225.21 887.826 Q1226.29 887.248 1227.83 887.248 Q1228.05 887.248 1228.31 887.282 Q1228.58 887.306 1228.9 887.364 L1228.91 889.551 Z" fill="#000000" fill-rule="evenodd" fill-opacity="1" /><path clip-path="url(#clip040)" d="M 0 0 M1078.86 1077.48 L1078.86 1083.81 L1082.61 1083.81 Q1084.49 1083.81 1085.4 1083.03 Q1086.31 1082.25 1086.31 1080.64 Q1086.31 1079.02 1085.4 1078.25 Q1084.49 1077.48 1082.61 1077.48 L1078.86 1077.48 M1078.86 1070.37 L1078.86 1075.58 L1082.32 1075.58 Q1084.03 1075.58 1084.86 1074.94 Q1085.71 1074.29 1085.71 1072.97 Q1085.71 1071.67 1084.86 1071.02 Q1084.03 1070.37 1082.32 1070.37 L1078.86 1070.37 M1076.52 1068.45 L1082.49 1068.45 Q1085.16 1068.45 1086.61 1069.56 Q1088.06 1070.67 1088.06 1072.72 Q1088.06 1074.31 1087.32 1075.24 Q1086.58 1076.18 1085.14 1076.41 Q1086.87 1076.78 1087.82 1077.96 Q1088.78 1079.13 1088.78 1080.89 Q1088.78 1083.21 1087.2 1084.47 Q1085.63 1085.73 1082.72 1085.73 L1076.52 1085.73 L1076.52 1068.45 Z" fill="#000000" fill-rule="evenodd" fill-opacity="1" /><path clip-path="url(#clip040)" d="M 0 0 M1096.03 1074.26 Q1094.32 1074.26 1093.32 1075.6 Q1092.33 1076.93 1092.33 1079.26 Q1092.33 1081.59 1093.31 1082.93 Q1094.31 1084.26 1096.03 1084.26 Q1097.73 1084.26 1098.73 1082.92 Q1099.72 1081.57 1099.72 1079.26 Q1099.72 1076.96 1098.73 1075.61 Q1097.73 1074.26 1096.03 1074.26 M1096.03 1072.45 Q1098.81 1072.45 1100.4 1074.26 Q1101.98 1076.07 1101.98 1079.26 Q1101.98 1082.44 1100.4 1084.26 Q1098.81 1086.07 1096.03 1086.07 Q1093.24 1086.07 1091.66 1084.26 Q1090.08 1082.44 1090.08 1079.26 Q1090.08 1076.07 1091.66 1074.26 Q1093.24 1072.45 1096.03 1072.45 Z" fill="#000000" fill-rule="evenodd" fill-opacity="1" /><path clip-path="url(#clip040)" d="M 0 0 M1109.24 1074.26 Q1107.53 1074.26 1106.53 1075.6 Q1105.54 1076.93 1105.54 1079.26 Q1105.54 1081.59 1106.52 1082.93 Q1107.51 1084.26 1109.24 1084.26 Q1110.94 1084.26 1111.94 1082.92 Q1112.93 1081.57 1112.93 1079.26 Q1112.93 1076.96 1111.94 1075.61 Q1110.94 1074.26 1109.24 1074.26 M1109.24 1072.45 Q1112.02 1072.45 1113.6 1074.26 Q1115.19 1076.07 1115.19 1079.26 Q1115.19 1082.44 1113.6 1084.26 Q1112.02 1086.07 1109.24 1086.07 Q1106.45 1086.07 1104.86 1084.26 Q1103.29 1082.44 1103.29 1079.26 Q1103.29 1076.07 1104.86 1074.26 Q1106.45 1072.45 1109.24 1072.45 Z" fill="#000000" fill-rule="evenodd" fill-opacity="1" /><path clip-path="url(#clip040)" d="M 0 0 M1117.42 1067.72 L1119.55 1067.72 L1119.55 1085.73 L1117.42 1085.73 L1117.42 1067.72 Z" fill="#000000" fill-rule="evenodd" fill-opacity="1" /><path clip-path="url(#clip040)" d="M 0 0 M1156.16 1136.52 Q1153.61 1136.52 1152.11 1138.42 Q1150.61 1140.32 1150.61 1143.6 Q1150.61 1146.86 1152.11 1148.76 Q1153.61 1150.66 1156.16 1150.66 Q1158.7 1150.66 1160.18 1148.76 Q1161.68 1146.86 1161.68 1143.6 Q1161.68 1140.32 1160.18 1138.42 Q1158.7 1136.52 1156.16 1136.52 M1156.16 1134.63 Q1159.79 1134.63 1161.97 1137.07 Q1164.14 1139.5 1164.14 1143.6 Q1164.14 1147.68 1161.97 1150.12 Q1159.79 1152.55 1156.16 1152.55 Q1152.51 1152.55 1150.32 1150.12 Q1148.15 1147.69 1148.15 1143.6 Q1148.15 1139.5 1150.32 1137.07 Q1152.51 1134.63 1156.16 1134.63 Z" fill="#000000" fill-rule="evenodd" fill-opacity="1" /><path clip-path="url(#clip040)" d="M 0 0 M1172.94 1134.21 L1172.94 1135.98 L1170.9 1135.98 Q1169.76 1135.98 1169.3 1136.44 Q1168.86 1136.91 1168.86 1138.11 L1168.86 1139.26 L1172.37 1139.26 L1172.37 1140.91 L1168.86 1140.91 L1168.86 1152.22 L1166.72 1152.22 L1166.72 1140.91 L1164.69 1140.91 L1164.69 1139.26 L1166.72 1139.26 L1166.72 1138.35 Q1166.72 1136.19 1167.73 1135.21 Q1168.74 1134.21 1170.92 1134.21 L1172.94 1134.21 Z" fill="#000000" fill-rule="evenodd" fill-opacity="1" /><path clip-path="url(#clip040)" d="M 0 0 M1181.73 1134.21 L1181.73 1135.98 L1179.7 1135.98 Q1178.55 1135.98 1178.1 1136.44 Q1177.66 1136.91 1177.66 1138.11 L1177.66 1139.26 L1181.17 1139.26 L1181.17 1140.91 L1177.66 1140.91 L1177.66 1152.22 L1175.52 1152.22 L1175.52 1140.91 L1173.48 1140.91 L1173.48 1139.26 L1175.52 1139.26 L1175.52 1138.35 Q1175.52 1136.19 1176.53 1135.21 Q1177.53 1134.21 1179.72 1134.21 L1181.73 1134.21 Z" fill="#000000" fill-rule="evenodd" fill-opacity="1" /><path clip-path="url(#clip040)" d="M 0 0 M1192.23 1139.64 L1192.23 1141.65 Q1191.33 1141.19 1190.36 1140.96 Q1189.38 1140.73 1188.34 1140.73 Q1186.76 1140.73 1185.96 1141.21 Q1185.17 1141.7 1185.17 1142.67 Q1185.17 1143.41 1185.74 1143.84 Q1186.31 1144.26 1188.02 1144.64 L1188.75 1144.8 Q1191.02 1145.29 1191.97 1146.18 Q1192.93 1147.06 1192.93 1148.64 Q1192.93 1150.45 1191.49 1151.5 Q1190.07 1152.55 1187.57 1152.55 Q1186.53 1152.55 1185.39 1152.35 Q1184.27 1152.15 1183.02 1151.74 L1183.02 1149.55 Q1184.2 1150.16 1185.35 1150.47 Q1186.49 1150.77 1187.61 1150.77 Q1189.12 1150.77 1189.93 1150.26 Q1190.74 1149.74 1190.74 1148.8 Q1190.74 1147.94 1190.15 1147.47 Q1189.57 1147.01 1187.59 1146.58 L1186.85 1146.41 Q1184.87 1145.99 1183.99 1145.14 Q1183.11 1144.27 1183.11 1142.76 Q1183.11 1140.93 1184.41 1139.94 Q1185.7 1138.94 1188.09 1138.94 Q1189.27 1138.94 1190.31 1139.12 Q1191.35 1139.29 1192.23 1139.64 Z" fill="#000000" fill-rule="evenodd" fill-opacity="1" /><path clip-path="url(#clip040)" d="M 0 0 M1206.25 1145.21 L1206.25 1146.25 L1196.46 1146.25 Q1196.6 1148.45 1197.78 1149.6 Q1198.97 1150.75 1201.09 1150.75 Q1202.31 1150.75 1203.46 1150.45 Q1204.62 1150.15 1205.75 1149.55 L1205.75 1151.56 Q1204.6 1152.05 1203.4 1152.3 Q1202.2 1152.55 1200.96 1152.55 Q1197.86 1152.55 1196.04 1150.75 Q1194.23 1148.94 1194.23 1145.87 Q1194.23 1142.68 1195.95 1140.82 Q1197.67 1138.94 1200.59 1138.94 Q1203.2 1138.94 1204.72 1140.63 Q1206.25 1142.31 1206.25 1145.21 M1204.12 1144.58 Q1204.1 1142.83 1203.13 1141.79 Q1202.19 1140.75 1200.61 1140.75 Q1198.83 1140.75 1197.75 1141.76 Q1196.69 1142.76 1196.53 1144.59 L1204.12 1144.58 Z" fill="#000000" fill-rule="evenodd" fill-opacity="1" /><path clip-path="url(#clip040)" d="M 0 0 M1210.59 1135.58 L1210.59 1139.26 L1214.98 1139.26 L1214.98 1140.91 L1210.59 1140.91 L1210.59 1147.95 Q1210.59 1149.53 1211.02 1149.99 Q1211.46 1150.44 1212.79 1150.44 L1214.98 1150.44 L1214.98 1152.22 L1212.79 1152.22 Q1210.32 1152.22 1209.38 1151.3 Q1208.45 1150.38 1208.45 1147.95 L1208.45 1140.91 L1206.88 1140.91 L1206.88 1139.26 L1208.45 1139.26 L1208.45 1135.58 L1210.59 1135.58 Z" fill="#000000" fill-rule="evenodd" fill-opacity="1" /><path clip-path="url(#clip040)" d="M 0 0 M1217.3 1134.94 L1219.64 1134.94 L1219.64 1152.22 L1217.3 1152.22 L1217.3 1134.94 Z" fill="#000000" fill-rule="evenodd" fill-opacity="1" /><path clip-path="url(#clip040)" d="M 0 0 M1232.65 1144.4 L1232.65 1152.22 L1230.52 1152.22 L1230.52 1144.46 Q1230.52 1142.62 1229.8 1141.71 Q1229.08 1140.8 1227.65 1140.8 Q1225.92 1140.8 1224.93 1141.9 Q1223.93 1142.99 1223.93 1144.89 L1223.93 1152.22 L1221.79 1152.22 L1221.79 1139.26 L1223.93 1139.26 L1223.93 1141.27 Q1224.7 1140.1 1225.73 1139.52 Q1226.77 1138.94 1228.12 1138.94 Q1230.36 1138.94 1231.5 1140.33 Q1232.65 1141.71 1232.65 1144.4 Z" fill="#000000" fill-rule="evenodd" fill-opacity="1" /><path clip-path="url(#clip040)" d="M 0 0 M1236.99 1135.58 L1236.99 1139.26 L1241.38 1139.26 L1241.38 1140.91 L1236.99 1140.91 L1236.99 1147.95 Q1236.99 1149.53 1237.42 1149.99 Q1237.86 1150.44 1239.19 1150.44 L1241.38 1150.44 L1241.38 1152.22 L1239.19 1152.22 Q1236.72 1152.22 1235.79 1151.3 Q1234.85 1150.38 1234.85 1147.95 L1234.85 1140.91 L1233.29 1140.91 L1233.29 1139.26 L1234.85 1139.26 L1234.85 1135.58 L1236.99 1135.58 Z" fill="#000000" fill-rule="evenodd" fill-opacity="1" /><path clip-path="url(#clip040)" d="M 0 0 M1254.7 1145.21 L1254.7 1146.25 L1244.91 1146.25 Q1245.04 1148.45 1246.22 1149.6 Q1247.42 1150.75 1249.54 1150.75 Q1250.76 1150.75 1251.91 1150.45 Q1253.07 1150.15 1254.2 1149.55 L1254.2 1151.56 Q1253.05 1152.05 1251.85 1152.3 Q1250.65 1152.55 1249.41 1152.55 Q1246.31 1152.55 1244.49 1150.75 Q1242.68 1148.94 1242.68 1145.87 Q1242.68 1142.68 1244.4 1140.82 Q1246.12 1138.94 1249.04 1138.94 Q1251.65 1138.94 1253.17 1140.63 Q1254.7 1142.31 1254.7 1145.21 M1252.57 1144.58 Q1252.54 1142.83 1251.58 1141.79 Q1250.63 1140.75 1249.06 1140.75 Q1247.28 1140.75 1246.2 1141.76 Q1245.14 1142.76 1244.97 1144.59 L1252.57 1144.58 Z" fill="#000000" fill-rule="evenodd" fill-opacity="1" /><path clip-path="url(#clip040)" d="M 0 0 M1265.46 1145.59 Q1265.46 1143.27 1264.5 1142 Q1263.55 1140.73 1261.83 1140.73 Q1260.11 1140.73 1259.15 1142 Q1258.2 1143.27 1258.2 1145.59 Q1258.2 1147.89 1259.15 1149.16 Q1260.11 1150.44 1261.83 1150.44 Q1263.55 1150.44 1264.5 1149.16 Q1265.46 1147.89 1265.46 1145.59 M1267.59 1150.61 Q1267.59 1153.92 1266.12 1155.53 Q1264.65 1157.15 1261.62 1157.15 Q1260.5 1157.15 1259.5 1156.98 Q1258.5 1156.81 1257.57 1156.47 L1257.57 1154.4 Q1258.5 1154.9 1259.42 1155.15 Q1260.33 1155.39 1261.28 1155.39 Q1263.38 1155.39 1264.42 1154.29 Q1265.46 1153.2 1265.46 1150.99 L1265.46 1149.94 Q1264.8 1151.08 1263.77 1151.65 Q1262.74 1152.22 1261.31 1152.22 Q1258.92 1152.22 1257.46 1150.4 Q1256 1148.58 1256 1145.59 Q1256 1142.58 1257.46 1140.76 Q1258.92 1138.94 1261.31 1138.94 Q1262.74 1138.94 1263.77 1139.51 Q1264.8 1140.08 1265.46 1141.22 L1265.46 1139.26 L1267.59 1139.26 L1267.59 1150.61 Z" fill="#000000" fill-rule="evenodd" fill-opacity="1" /><path clip-path="url(#clip040)" d="M 0 0 M1280.91 1145.21 L1280.91 1146.25 L1271.12 1146.25 Q1271.26 1148.45 1272.44 1149.6 Q1273.63 1150.75 1275.75 1150.75 Q1276.98 1150.75 1278.12 1150.45 Q1279.28 1150.15 1280.41 1149.55 L1280.41 1151.56 Q1279.27 1152.05 1278.07 1152.3 Q1276.86 1152.55 1275.62 1152.55 Q1272.52 1152.55 1270.7 1150.75 Q1268.9 1148.94 1268.9 1145.87 Q1268.9 1142.68 1270.61 1140.82 Q1272.34 1138.94 1275.25 1138.94 Q1277.87 1138.94 1279.38 1140.63 Q1280.91 1142.31 1280.91 1145.21 M1278.78 1144.58 Q1278.76 1142.83 1277.8 1141.79 Q1276.85 1140.75 1275.28 1140.75 Q1273.49 1140.75 1272.42 1141.76 Q1271.35 1142.76 1271.19 1144.59 L1278.78 1144.58 Z" fill="#000000" fill-rule="evenodd" fill-opacity="1" /><path clip-path="url(#clip040)" d="M 0 0 M1290.66 1141.25 Q1290.3 1141.04 1289.87 1140.95 Q1289.45 1140.84 1288.94 1140.84 Q1287.14 1140.84 1286.17 1142.02 Q1285.21 1143.19 1285.21 1145.39 L1285.21 1152.22 L1283.07 1152.22 L1283.07 1139.26 L1285.21 1139.26 L1285.21 1141.27 Q1285.88 1140.09 1286.95 1139.52 Q1288.03 1138.94 1289.57 1138.94 Q1289.79 1138.94 1290.06 1138.98 Q1290.32 1139 1290.65 1139.06 L1290.66 1141.25 Z" fill="#000000" fill-rule="evenodd" fill-opacity="1" /><path clip-path="url(#clip040)" d="M 0 0 M1254.88 1045.97 Q1252.34 1045.97 1250.83 1047.86 Q1249.34 1049.76 1249.34 1053.04 Q1249.34 1056.3 1250.83 1058.2 Q1252.34 1060.1 1254.88 1060.1 Q1257.43 1060.1 1258.91 1058.2 Q1260.41 1056.3 1260.41 1053.04 Q1260.41 1049.76 1258.91 1047.86 Q1257.43 1045.97 1254.88 1045.97 M1254.88 1044.07 Q1258.52 1044.07 1260.69 1046.51 Q1262.87 1048.94 1262.87 1053.04 Q1262.87 1057.12 1260.69 1059.57 Q1258.52 1062 1254.88 1062 Q1251.24 1062 1249.05 1059.57 Q1246.88 1057.14 1246.88 1053.04 Q1246.88 1048.94 1249.05 1046.51 Q1251.24 1044.07 1254.88 1044.07 Z" fill="#000000" fill-rule="evenodd" fill-opacity="1" /><path clip-path="url(#clip040)" d="M 0 0 M1271.67 1043.65 L1271.67 1045.42 L1269.63 1045.42 Q1268.48 1045.42 1268.03 1045.89 Q1267.59 1046.35 1267.59 1047.55 L1267.59 1048.7 L1271.1 1048.7 L1271.1 1050.35 L1267.59 1050.35 L1267.59 1061.66 L1265.45 1061.66 L1265.45 1050.35 L1263.41 1050.35 L1263.41 1048.7 L1265.45 1048.7 L1265.45 1047.79 Q1265.45 1045.63 1266.46 1044.65 Q1267.47 1043.65 1269.65 1043.65 L1271.67 1043.65 Z" fill="#000000" fill-rule="evenodd" fill-opacity="1" /><path clip-path="url(#clip040)" d="M 0 0 M1280.46 1043.65 L1280.46 1045.42 L1278.43 1045.42 Q1277.28 1045.42 1276.83 1045.89 Q1276.39 1046.35 1276.39 1047.55 L1276.39 1048.7 L1279.9 1048.7 L1279.9 1050.35 L1276.39 1050.35 L1276.39 1061.66 L1274.25 1061.66 L1274.25 1050.35 L1272.21 1050.35 L1272.21 1048.7 L1274.25 1048.7 L1274.25 1047.79 Q1274.25 1045.63 1275.25 1044.65 Q1276.26 1043.65 1278.45 1043.65 L1280.46 1043.65 Z" fill="#000000" fill-rule="evenodd" fill-opacity="1" /><path clip-path="url(#clip040)" d="M 0 0 M1290.96 1049.08 L1290.96 1051.09 Q1290.06 1050.63 1289.09 1050.4 Q1288.11 1050.17 1287.07 1050.17 Q1285.49 1050.17 1284.69 1050.65 Q1283.9 1051.14 1283.9 1052.11 Q1283.9 1052.85 1284.47 1053.28 Q1285.04 1053.7 1286.75 1054.08 L1287.48 1054.24 Q1289.75 1054.73 1290.69 1055.62 Q1291.66 1056.5 1291.66 1058.08 Q1291.66 1059.89 1290.22 1060.94 Q1288.8 1062 1286.3 1062 Q1285.25 1062 1284.12 1061.79 Q1283 1061.59 1281.75 1061.19 L1281.75 1058.99 Q1282.93 1059.6 1284.07 1059.91 Q1285.22 1060.21 1286.34 1060.21 Q1287.85 1060.21 1288.66 1059.7 Q1289.47 1059.18 1289.47 1058.25 Q1289.47 1057.38 1288.88 1056.92 Q1288.3 1056.45 1286.32 1056.02 L1285.58 1055.85 Q1283.6 1055.43 1282.72 1054.58 Q1281.84 1053.71 1281.84 1052.2 Q1281.84 1050.38 1283.14 1049.38 Q1284.43 1048.39 1286.82 1048.39 Q1288 1048.39 1289.04 1048.56 Q1290.08 1048.73 1290.96 1049.08 Z" fill="#000000" fill-rule="evenodd" fill-opacity="1" /><path clip-path="url(#clip040)" d="M 0 0 M1304.98 1054.65 L1304.98 1055.69 L1295.19 1055.69 Q1295.32 1057.89 1296.5 1059.04 Q1297.7 1060.19 1299.82 1060.19 Q1301.04 1060.19 1302.19 1059.89 Q1303.35 1059.59 1304.48 1058.99 L1304.48 1061 Q1303.33 1061.49 1302.13 1061.74 Q1300.93 1062 1299.69 1062 Q1296.59 1062 1294.77 1060.19 Q1292.96 1058.39 1292.96 1055.31 Q1292.96 1052.12 1294.68 1050.26 Q1296.4 1048.39 1299.32 1048.39 Q1301.93 1048.39 1303.45 1050.07 Q1304.98 1051.75 1304.98 1054.65 M1302.85 1054.02 Q1302.82 1052.27 1301.86 1051.23 Q1300.91 1050.19 1299.34 1050.19 Q1297.56 1050.19 1296.48 1051.2 Q1295.42 1052.2 1295.25 1054.03 L1302.85 1054.02 Z" fill="#000000" fill-rule="evenodd" fill-opacity="1" /><path clip-path="url(#clip040)" d="M 0 0 M1309.32 1045.02 L1309.32 1048.7 L1313.7 1048.7 L1313.7 1050.35 L1309.32 1050.35 L1309.32 1057.39 Q1309.32 1058.98 1309.75 1059.43 Q1310.19 1059.88 1311.52 1059.88 L1313.7 1059.88 L1313.7 1061.66 L1311.52 1061.66 Q1309.05 1061.66 1308.11 1060.75 Q1307.18 1059.82 1307.18 1057.39 L1307.18 1050.35 L1305.61 1050.35 L1305.61 1048.7 L1307.18 1048.7 L1307.18 1045.02 L1309.32 1045.02 Z" fill="#000000" fill-rule="evenodd" fill-opacity="1" /><path clip-path="url(#clip040)" d="M 0 0 M1316.03 1044.38 L1318.37 1044.38 L1318.37 1061.66 L1316.03 1061.66 L1316.03 1044.38 Z" fill="#000000" fill-rule="evenodd" fill-opacity="1" /><path clip-path="url(#clip040)" d="M 0 0 M1331.38 1053.84 L1331.38 1061.66 L1329.25 1061.66 L1329.25 1053.91 Q1329.25 1052.07 1328.53 1051.15 Q1327.81 1050.24 1326.38 1050.24 Q1324.65 1050.24 1323.66 1051.34 Q1322.66 1052.44 1322.66 1054.33 L1322.66 1061.66 L1320.52 1061.66 L1320.52 1048.7 L1322.66 1048.7 L1322.66 1050.71 Q1323.43 1049.54 1324.46 1048.96 Q1325.5 1048.39 1326.85 1048.39 Q1329.09 1048.39 1330.23 1049.77 Q1331.38 1051.15 1331.38 1053.84 Z" fill="#000000" fill-rule="evenodd" fill-opacity="1" /><path clip-path="url(#clip040)" d="M 0 0 M1335.72 1045.02 L1335.72 1048.7 L1340.1 1048.7 L1340.1 1050.35 L1335.72 1050.35 L1335.72 1057.39 Q1335.72 1058.98 1336.15 1059.43 Q1336.59 1059.88 1337.92 1059.88 L1340.1 1059.88 L1340.1 1061.66 L1337.92 1061.66 Q1335.45 1061.66 1334.51 1060.75 Q1333.58 1059.82 1333.58 1057.39 L1333.58 1050.35 L1332.01 1050.35 L1332.01 1048.7 L1333.58 1048.7 L1333.58 1045.02 L1335.72 1045.02 Z" fill="#000000" fill-rule="evenodd" fill-opacity="1" /><path clip-path="url(#clip040)" d="M 0 0 M1353.43 1054.65 L1353.43 1055.69 L1343.63 1055.69 Q1343.77 1057.89 1344.95 1059.04 Q1346.15 1060.19 1348.26 1060.19 Q1349.49 1060.19 1350.64 1059.89 Q1351.79 1059.59 1352.93 1058.99 L1352.93 1061 Q1351.78 1061.49 1350.58 1061.74 Q1349.37 1062 1348.14 1062 Q1345.03 1062 1343.22 1060.19 Q1341.41 1058.39 1341.41 1055.31 Q1341.41 1052.12 1343.12 1050.26 Q1344.85 1048.39 1347.77 1048.39 Q1350.38 1048.39 1351.9 1050.07 Q1353.43 1051.75 1353.43 1054.65 M1351.3 1054.02 Q1351.27 1052.27 1350.31 1051.23 Q1349.36 1050.19 1347.79 1050.19 Q1346.01 1050.19 1344.93 1051.2 Q1343.87 1052.2 1343.7 1054.03 L1351.3 1054.02 Z" fill="#000000" fill-rule="evenodd" fill-opacity="1" /><path clip-path="url(#clip040)" d="M 0 0 M1364.19 1055.03 Q1364.19 1052.71 1363.23 1051.44 Q1362.28 1050.17 1360.56 1050.17 Q1358.84 1050.17 1357.88 1051.44 Q1356.93 1052.71 1356.93 1055.03 Q1356.93 1057.33 1357.88 1058.61 Q1358.84 1059.88 1360.56 1059.88 Q1362.28 1059.88 1363.23 1058.61 Q1364.19 1057.33 1364.19 1055.03 M1366.32 1060.05 Q1366.32 1063.36 1364.85 1064.97 Q1363.38 1066.59 1360.35 1066.59 Q1359.22 1066.59 1358.23 1066.42 Q1357.23 1066.26 1356.3 1065.91 L1356.3 1063.84 Q1357.23 1064.35 1358.15 1064.59 Q1359.06 1064.83 1360.01 1064.83 Q1362.11 1064.83 1363.15 1063.73 Q1364.19 1062.64 1364.19 1060.43 L1364.19 1059.38 Q1363.53 1060.53 1362.5 1061.09 Q1361.47 1061.66 1360.03 1061.66 Q1357.65 1061.66 1356.19 1059.84 Q1354.73 1058.03 1354.73 1055.03 Q1354.73 1052.02 1356.19 1050.2 Q1357.65 1048.39 1360.03 1048.39 Q1361.47 1048.39 1362.5 1048.95 Q1363.53 1049.52 1364.19 1050.67 L1364.19 1048.7 L1366.32 1048.7 L1366.32 1060.05 Z" fill="#000000" fill-rule="evenodd" fill-opacity="1" /><path clip-path="url(#clip040)" d="M 0 0 M1379.64 1054.65 L1379.64 1055.69 L1369.85 1055.69 Q1369.99 1057.89 1371.17 1059.04 Q1372.36 1060.19 1374.48 1060.19 Q1375.71 1060.19 1376.85 1059.89 Q1378.01 1059.59 1379.14 1058.99 L1379.14 1061 Q1378 1061.49 1376.79 1061.74 Q1375.59 1062 1374.35 1062 Q1371.25 1062 1369.43 1060.19 Q1367.63 1058.39 1367.63 1055.31 Q1367.63 1052.12 1369.34 1050.26 Q1371.06 1048.39 1373.98 1048.39 Q1376.6 1048.39 1378.11 1050.07 Q1379.64 1051.75 1379.64 1054.65 M1377.51 1054.02 Q1377.49 1052.27 1376.53 1051.23 Q1375.58 1050.19 1374 1050.19 Q1372.22 1050.19 1371.15 1051.2 Q1370.08 1052.2 1369.92 1054.03 L1377.51 1054.02 Z" fill="#000000" fill-rule="evenodd" fill-opacity="1" /><path clip-path="url(#clip040)" d="M 0 0 M1389.39 1050.69 Q1389.03 1050.48 1388.6 1050.39 Q1388.18 1050.28 1387.67 1050.28 Q1385.87 1050.28 1384.9 1051.46 Q1383.93 1052.63 1383.93 1054.83 L1383.93 1061.66 L1381.79 1061.66 L1381.79 1048.7 L1383.93 1048.7 L1383.93 1050.71 Q1384.61 1049.53 1385.68 1048.96 Q1386.76 1048.39 1388.3 1048.39 Q1388.52 1048.39 1388.78 1048.42 Q1389.05 1048.44 1389.37 1048.5 L1389.39 1050.69 Z" fill="#000000" fill-rule="evenodd" fill-opacity="1" /><path clip-path="url(#clip040)" d="M 0 0 M886.95 1141.29 L886.95 1143.57 Q885.619 1142.93 884.438 1142.62 Q883.258 1142.31 882.158 1142.31 Q880.248 1142.31 879.207 1143.05 Q878.177 1143.79 878.177 1145.15 Q878.177 1146.3 878.86 1146.89 Q879.554 1147.47 881.475 1147.83 L882.887 1148.12 Q885.503 1148.61 886.742 1149.88 Q887.992 1151.13 887.992 1153.23 Q887.992 1155.74 886.302 1157.04 Q884.623 1158.34 881.371 1158.34 Q880.144 1158.34 878.755 1158.06 Q877.378 1157.78 875.897 1157.24 L875.897 1154.83 Q877.32 1155.63 878.686 1156.03 Q880.052 1156.44 881.371 1156.44 Q883.373 1156.44 884.461 1155.65 Q885.549 1154.86 885.549 1153.41 Q885.549 1152.13 884.762 1151.42 Q883.987 1150.7 882.204 1150.34 L880.781 1150.06 Q878.165 1149.54 876.996 1148.43 Q875.827 1147.32 875.827 1145.34 Q875.827 1143.05 877.436 1141.73 Q879.056 1140.41 881.892 1140.41 Q883.107 1140.41 884.369 1140.63 Q885.63 1140.85 886.95 1141.29 Z" fill="#000000" fill-rule="evenodd" fill-opacity="1" /><path clip-path="url(#clip040)" d="M 0 0 M890.225 1145.04 L892.355 1145.04 L892.355 1158 L890.225 1158 L890.225 1145.04 M890.225 1139.99 L892.355 1139.99 L892.355 1142.69 L890.225 1142.69 L890.225 1139.99 Z" fill="#000000" fill-rule="evenodd" fill-opacity="1" /><path clip-path="url(#clip040)" d="M 0 0 M903.119 1151.37 Q903.119 1149.05 902.158 1147.78 Q901.209 1146.51 899.484 1146.51 Q897.772 1146.51 896.811 1147.78 Q895.862 1149.05 895.862 1151.37 Q895.862 1153.67 896.811 1154.95 Q897.772 1156.22 899.484 1156.22 Q901.209 1156.22 902.158 1154.95 Q903.119 1153.67 903.119 1151.37 M905.248 1156.39 Q905.248 1159.7 903.778 1161.31 Q902.309 1162.93 899.276 1162.93 Q898.153 1162.93 897.158 1162.76 Q896.163 1162.6 895.225 1162.25 L895.225 1160.18 Q896.163 1160.69 897.077 1160.93 Q897.991 1161.17 898.941 1161.17 Q901.035 1161.17 902.077 1160.07 Q903.119 1158.98 903.119 1156.77 L903.119 1155.72 Q902.459 1156.87 901.429 1157.43 Q900.399 1158 898.964 1158 Q896.579 1158 895.121 1156.18 Q893.663 1154.37 893.663 1151.37 Q893.663 1148.36 895.121 1146.54 Q896.579 1144.73 898.964 1144.73 Q900.399 1144.73 901.429 1145.29 Q902.459 1145.86 903.119 1147.01 L903.119 1145.04 L905.248 1145.04 L905.248 1156.39 Z" fill="#000000" fill-rule="evenodd" fill-opacity="1" /><path clip-path="url(#clip040)" d="M 0 0 M918.258 1150.18 L918.258 1158 L916.128 1158 L916.128 1150.25 Q916.128 1148.41 915.41 1147.49 Q914.693 1146.58 913.258 1146.58 Q911.533 1146.58 910.538 1147.68 Q909.542 1148.78 909.542 1150.67 L909.542 1158 L907.401 1158 L907.401 1145.04 L909.542 1145.04 L909.542 1147.05 Q910.306 1145.88 911.336 1145.3 Q912.378 1144.73 913.732 1144.73 Q915.966 1144.73 917.112 1146.11 Q918.258 1147.49 918.258 1150.18 Z" fill="#000000" fill-rule="evenodd" fill-opacity="1" /><path clip-path="url(#clip040)" d="M 0 0 M931.579 1150.99 L931.579 1152.03 L921.788 1152.03 Q921.927 1154.23 923.107 1155.39 Q924.299 1156.53 926.417 1156.53 Q927.644 1156.53 928.79 1156.23 Q929.947 1155.93 931.082 1155.33 L931.082 1157.34 Q929.936 1157.83 928.732 1158.08 Q927.528 1158.34 926.29 1158.34 Q923.188 1158.34 921.371 1156.53 Q919.565 1154.73 919.565 1151.65 Q919.565 1148.46 921.278 1146.6 Q923.003 1144.73 925.92 1144.73 Q928.535 1144.73 930.051 1146.42 Q931.579 1148.09 931.579 1150.99 M929.45 1150.36 Q929.426 1148.61 928.466 1147.57 Q927.517 1146.53 925.943 1146.53 Q924.16 1146.53 923.084 1147.54 Q922.019 1148.54 921.857 1150.37 L929.45 1150.36 Z" fill="#000000" fill-rule="evenodd" fill-opacity="1" /><path clip-path="url(#clip040)" d="M 0 0 M942.343 1147.01 L942.343 1139.99 L944.473 1139.99 L944.473 1158 L942.343 1158 L942.343 1156.06 Q941.672 1157.21 940.642 1157.78 Q939.623 1158.34 938.188 1158.34 Q935.838 1158.34 934.357 1156.46 Q932.887 1154.59 932.887 1151.53 Q932.887 1148.48 934.357 1146.6 Q935.838 1144.73 938.188 1144.73 Q939.623 1144.73 940.642 1145.29 Q941.672 1145.85 942.343 1147.01 M935.086 1151.53 Q935.086 1153.88 936.047 1155.22 Q937.019 1156.55 938.709 1156.55 Q940.399 1156.55 941.371 1155.22 Q942.343 1153.88 942.343 1151.53 Q942.343 1149.18 941.371 1147.85 Q940.399 1146.51 938.709 1146.51 Q937.019 1146.51 936.047 1147.85 Q935.086 1149.18 935.086 1151.53 Z" fill="#000000" fill-rule="evenodd" fill-opacity="1" /><path clip-path="url(#clip040)" d="M 0 0 M1032.35 1251.42 L1032.35 1257.75 L1036.1 1257.75 Q1037.99 1257.75 1038.89 1256.98 Q1039.8 1256.19 1039.8 1254.58 Q1039.8 1252.96 1038.89 1252.2 Q1037.99 1251.42 1036.1 1251.42 L1032.35 1251.42 M1032.35 1244.32 L1032.35 1249.53 L1035.81 1249.53 Q1037.52 1249.53 1038.36 1248.89 Q1039.2 1248.24 1039.2 1246.92 Q1039.2 1245.61 1038.36 1244.96 Q1037.52 1244.32 1035.81 1244.32 L1032.35 1244.32 M1030.01 1242.4 L1035.98 1242.4 Q1038.66 1242.4 1040.1 1243.51 Q1041.55 1244.62 1041.55 1246.67 Q1041.55 1248.25 1040.81 1249.19 Q1040.07 1250.13 1038.63 1250.36 Q1040.36 1250.73 1041.31 1251.91 Q1042.27 1253.08 1042.27 1254.84 Q1042.27 1257.15 1040.69 1258.41 Q1039.12 1259.68 1036.22 1259.68 L1030.01 1259.68 L1030.01 1242.4 Z" fill="#000000" fill-rule="evenodd" fill-opacity="1" /><path clip-path="url(#clip040)" d="M 0 0 M1044.5 1246.71 L1046.63 1246.71 L1046.63 1259.68 L1044.5 1259.68 L1044.5 1246.71 M1044.5 1241.67 L1046.63 1241.67 L1046.63 1244.36 L1044.5 1244.36 L1044.5 1241.67 Z" fill="#000000" fill-rule="evenodd" fill-opacity="1" /><path clip-path="url(#clip040)" d="M 0 0 M1057.4 1253.04 Q1057.4 1250.73 1056.43 1249.46 Q1055.49 1248.18 1053.76 1248.18 Q1052.05 1248.18 1051.09 1249.46 Q1050.14 1250.73 1050.14 1253.04 Q1050.14 1255.35 1051.09 1256.62 Q1052.05 1257.89 1053.76 1257.89 Q1055.49 1257.89 1056.43 1256.62 Q1057.4 1255.35 1057.4 1253.04 M1059.53 1258.07 Q1059.53 1261.38 1058.06 1262.99 Q1056.59 1264.61 1053.55 1264.61 Q1052.43 1264.61 1051.43 1264.43 Q1050.44 1264.27 1049.5 1263.92 L1049.5 1261.85 Q1050.44 1262.36 1051.35 1262.6 Q1052.27 1262.85 1053.22 1262.85 Q1055.31 1262.85 1056.35 1261.75 Q1057.4 1260.66 1057.4 1258.45 L1057.4 1257.4 Q1056.74 1258.54 1055.71 1259.11 Q1054.68 1259.68 1053.24 1259.68 Q1050.86 1259.68 1049.4 1257.86 Q1047.94 1256.04 1047.94 1253.04 Q1047.94 1250.03 1049.4 1248.22 Q1050.86 1246.4 1053.24 1246.4 Q1054.68 1246.4 1055.71 1246.97 Q1056.74 1247.53 1057.4 1248.68 L1057.4 1246.71 L1059.53 1246.71 L1059.53 1258.07 Z" fill="#000000" fill-rule="evenodd" fill-opacity="1" /><path clip-path="url(#clip040)" d="M 0 0 M1061.85 1242.4 L1064.19 1242.4 L1064.19 1259.68 L1061.85 1259.68 L1061.85 1242.4 Z" fill="#000000" fill-rule="evenodd" fill-opacity="1" /><path clip-path="url(#clip040)" d="M 0 0 M1077.2 1251.85 L1077.2 1259.68 L1075.07 1259.68 L1075.07 1251.92 Q1075.07 1250.08 1074.35 1249.17 Q1073.63 1248.25 1072.2 1248.25 Q1070.47 1248.25 1069.48 1249.35 Q1068.48 1250.45 1068.48 1252.35 L1068.48 1259.68 L1066.34 1259.68 L1066.34 1246.71 L1068.48 1246.71 L1068.48 1248.73 Q1069.25 1247.56 1070.28 1246.98 Q1071.32 1246.4 1072.67 1246.4 Q1074.91 1246.4 1076.05 1247.79 Q1077.2 1249.17 1077.2 1251.85 Z" fill="#000000" fill-rule="evenodd" fill-opacity="1" /><path clip-path="url(#clip040)" d="M 0 0 M1081.54 1243.03 L1081.54 1246.71 L1085.93 1246.71 L1085.93 1248.37 L1081.54 1248.37 L1081.54 1255.4 Q1081.54 1256.99 1081.97 1257.44 Q1082.41 1257.89 1083.74 1257.89 L1085.93 1257.89 L1085.93 1259.68 L1083.74 1259.68 Q1081.27 1259.68 1080.34 1258.76 Q1079.4 1257.84 1079.4 1255.4 L1079.4 1248.37 L1077.84 1248.37 L1077.84 1246.71 L1079.4 1246.71 L1079.4 1243.03 L1081.54 1243.03 Z" fill="#000000" fill-rule="evenodd" fill-opacity="1" /><path clip-path="url(#clip040)" d="M 0 0 M928.766 1271.66 L931.104 1271.66 L931.104 1288.94 L928.766 1288.94 L928.766 1271.66 Z" fill="#000000" fill-rule="evenodd" fill-opacity="1" /><path clip-path="url(#clip040)" d="M 0 0 M944.113 1281.12 L944.113 1288.94 L941.984 1288.94 L941.984 1281.19 Q941.984 1279.35 941.266 1278.43 Q940.549 1277.52 939.113 1277.52 Q937.389 1277.52 936.394 1278.62 Q935.398 1279.72 935.398 1281.62 L935.398 1288.94 L933.257 1288.94 L933.257 1275.98 L935.398 1275.98 L935.398 1277.99 Q936.162 1276.82 937.192 1276.25 Q938.234 1275.67 939.588 1275.67 Q941.822 1275.67 942.968 1277.06 Q944.113 1278.43 944.113 1281.12 Z" fill="#000000" fill-rule="evenodd" fill-opacity="1" /><path clip-path="url(#clip040)" d="M 0 0 M948.454 1272.3 L948.454 1275.98 L952.84 1275.98 L952.84 1277.63 L948.454 1277.63 L948.454 1284.67 Q948.454 1286.26 948.882 1286.71 Q949.322 1287.16 950.653 1287.16 L952.84 1287.16 L952.84 1288.94 L950.653 1288.94 Q948.187 1288.94 947.25 1288.03 Q946.312 1287.1 946.312 1284.67 L946.312 1277.63 L944.75 1277.63 L944.75 1275.98 L946.312 1275.98 L946.312 1272.3 L948.454 1272.3 Z" fill="#000000" fill-rule="evenodd" fill-opacity="1" /><path clip-path="url(#clip040)" d="M 0 0 M955.78 1286.97 L959.599 1286.97 L959.599 1273.79 L955.444 1274.62 L955.444 1272.5 L959.576 1271.66 L961.914 1271.66 L961.914 1286.97 L965.734 1286.97 L965.734 1288.94 L955.78 1288.94 L955.78 1286.97 Z" fill="#000000" fill-rule="evenodd" fill-opacity="1" /><path clip-path="url(#clip040)" d="M 0 0 M970.282 1286.97 L978.442 1286.97 L978.442 1288.94 L967.47 1288.94 L967.47 1286.97 Q968.801 1285.6 971.092 1283.28 Q973.396 1280.96 973.986 1280.28 Q975.109 1279.02 975.548 1278.15 Q976 1277.28 976 1276.43 Q976 1275.05 975.028 1274.18 Q974.067 1273.32 972.516 1273.32 Q971.417 1273.32 970.19 1273.7 Q968.974 1274.08 967.586 1274.86 L967.586 1272.5 Q968.998 1271.93 970.224 1271.64 Q971.451 1271.35 972.47 1271.35 Q975.155 1271.35 976.752 1272.69 Q978.349 1274.03 978.349 1276.28 Q978.349 1277.34 977.944 1278.31 Q977.551 1279.25 976.498 1280.55 Q976.208 1280.89 974.657 1282.49 Q973.106 1284.09 970.282 1286.97 Z" fill="#000000" fill-rule="evenodd" fill-opacity="1" /><path clip-path="url(#clip040)" d="M 0 0 M985.977 1280.74 Q984.31 1280.74 983.349 1281.63 Q982.4 1282.52 982.4 1284.08 Q982.4 1285.64 983.349 1286.53 Q984.31 1287.43 985.977 1287.43 Q987.643 1287.43 988.604 1286.53 Q989.565 1285.63 989.565 1284.08 Q989.565 1282.52 988.604 1281.63 Q987.655 1280.74 985.977 1280.74 M983.639 1279.74 Q982.134 1279.37 981.289 1278.34 Q980.456 1277.31 980.456 1275.83 Q980.456 1273.76 981.926 1272.55 Q983.407 1271.35 985.977 1271.35 Q988.558 1271.35 990.028 1272.55 Q991.497 1273.76 991.497 1275.83 Q991.497 1277.31 990.653 1278.34 Q989.819 1279.37 988.326 1279.74 Q990.016 1280.13 990.953 1281.28 Q991.903 1282.43 991.903 1284.08 Q991.903 1286.59 990.363 1287.93 Q988.835 1289.28 985.977 1289.28 Q983.118 1289.28 981.578 1287.93 Q980.051 1286.59 980.051 1284.08 Q980.051 1282.43 981 1281.28 Q981.949 1280.13 983.639 1279.74 M982.782 1276.05 Q982.782 1277.39 983.616 1278.14 Q984.46 1278.9 985.977 1278.9 Q987.481 1278.9 988.326 1278.14 Q989.183 1277.39 989.183 1276.05 Q989.183 1274.71 988.326 1273.95 Q987.481 1273.2 985.977 1273.2 Q984.46 1273.2 983.616 1273.95 Q982.782 1274.71 982.782 1276.05 Z" fill="#000000" fill-rule="evenodd" fill-opacity="1" /><path clip-path="url(#clip040)" d="M 0 0 M666.652 1302.07 L668.99 1302.07 L668.99 1319.35 L666.652 1319.35 L666.652 1302.07 Z" fill="#000000" fill-rule="evenodd" fill-opacity="1" /><path clip-path="url(#clip040)" d="M 0 0 M681.999 1311.53 L681.999 1319.35 L679.869 1319.35 L679.869 1311.6 Q679.869 1309.76 679.152 1308.85 Q678.434 1307.93 676.999 1307.93 Q675.274 1307.93 674.279 1309.03 Q673.284 1310.13 673.284 1312.03 L673.284 1319.35 L671.143 1319.35 L671.143 1306.39 L673.284 1306.39 L673.284 1308.41 Q674.048 1307.24 675.078 1306.66 Q676.119 1306.08 677.474 1306.08 Q679.707 1306.08 680.853 1307.47 Q681.999 1308.85 681.999 1311.53 Z" fill="#000000" fill-rule="evenodd" fill-opacity="1" /><path clip-path="url(#clip040)" d="M 0 0 M686.339 1302.71 L686.339 1306.39 L690.726 1306.39 L690.726 1308.05 L686.339 1308.05 L686.339 1315.08 Q686.339 1316.67 686.767 1317.12 Q687.207 1317.57 688.538 1317.57 L690.726 1317.57 L690.726 1319.35 L688.538 1319.35 Q686.073 1319.35 685.136 1318.44 Q684.198 1317.51 684.198 1315.08 L684.198 1308.05 L682.636 1308.05 L682.636 1306.39 L684.198 1306.39 L684.198 1302.71 L686.339 1302.71 Z" fill="#000000" fill-rule="evenodd" fill-opacity="1" /><path clip-path="url(#clip040)" d="M 0 0 M693.666 1317.39 L697.485 1317.39 L697.485 1304.2 L693.33 1305.04 L693.33 1302.91 L697.462 1302.07 L699.8 1302.07 L699.8 1317.39 L703.619 1317.39 L703.619 1319.35 L693.666 1319.35 L693.666 1317.39 Z" fill="#000000" fill-rule="evenodd" fill-opacity="1" /><path clip-path="url(#clip040)" d="M 0 0 M711.443 1309.78 Q709.869 1309.78 708.943 1310.86 Q708.029 1311.94 708.029 1313.81 Q708.029 1315.67 708.943 1316.76 Q709.869 1317.84 711.443 1317.84 Q713.017 1317.84 713.932 1316.76 Q714.858 1315.67 714.858 1313.81 Q714.858 1311.94 713.932 1310.86 Q713.017 1309.78 711.443 1309.78 M716.084 1302.46 L716.084 1304.59 Q715.205 1304.17 714.302 1303.95 Q713.411 1303.73 712.531 1303.73 Q710.216 1303.73 708.99 1305.29 Q707.774 1306.86 707.601 1310.01 Q708.284 1309.01 709.314 1308.48 Q710.344 1307.93 711.582 1307.93 Q714.186 1307.93 715.691 1309.52 Q717.207 1311.09 717.207 1313.81 Q717.207 1316.47 715.633 1318.08 Q714.059 1319.69 711.443 1319.69 Q708.446 1319.69 706.86 1317.4 Q705.274 1315.1 705.274 1310.73 Q705.274 1306.64 707.219 1304.2 Q709.163 1301.76 712.439 1301.76 Q713.318 1301.76 714.209 1301.94 Q715.112 1302.11 716.084 1302.46 Z" fill="#000000" fill-rule="evenodd" fill-opacity="1" /><path clip-path="url(#clip040)" d="M 0 0 M847.839 1313.87 L850.177 1313.87 L850.177 1331.15 L847.839 1331.15 L847.839 1313.87 Z" fill="#000000" fill-rule="evenodd" fill-opacity="1" /><path clip-path="url(#clip040)" d="M 0 0 M863.186 1323.32 L863.186 1331.15 L861.056 1331.15 L861.056 1323.39 Q861.056 1321.55 860.339 1320.64 Q859.621 1319.72 858.186 1319.72 Q856.462 1319.72 855.466 1320.82 Q854.471 1321.92 854.471 1323.82 L854.471 1331.15 L852.33 1331.15 L852.33 1318.18 L854.471 1318.18 L854.471 1320.2 Q855.235 1319.03 856.265 1318.45 Q857.306 1317.87 858.661 1317.87 Q860.894 1317.87 862.04 1319.26 Q863.186 1320.64 863.186 1323.32 Z" fill="#000000" fill-rule="evenodd" fill-opacity="1" /><path clip-path="url(#clip040)" d="M 0 0 M867.526 1314.5 L867.526 1318.18 L871.913 1318.18 L871.913 1319.84 L867.526 1319.84 L867.526 1326.88 Q867.526 1328.46 867.955 1328.91 Q868.394 1329.36 869.725 1329.36 L871.913 1329.36 L871.913 1331.15 L869.725 1331.15 Q867.26 1331.15 866.323 1330.23 Q865.385 1329.31 865.385 1326.88 L865.385 1319.84 L863.823 1319.84 L863.823 1318.18 L865.385 1318.18 L865.385 1314.5 L867.526 1314.5 Z" fill="#000000" fill-rule="evenodd" fill-opacity="1" /><path clip-path="url(#clip040)" d="M 0 0 M881.531 1321.83 Q883.209 1322.19 884.147 1323.32 Q885.096 1324.46 885.096 1326.12 Q885.096 1328.68 883.336 1330.08 Q881.577 1331.48 878.336 1331.48 Q877.248 1331.48 876.091 1331.26 Q874.945 1331.05 873.718 1330.63 L873.718 1328.37 Q874.691 1328.94 875.848 1329.22 Q877.005 1329.51 878.267 1329.51 Q880.466 1329.51 881.612 1328.65 Q882.769 1327.78 882.769 1326.12 Q882.769 1324.6 881.693 1323.74 Q880.628 1322.87 878.718 1322.87 L876.704 1322.87 L876.704 1320.95 L878.811 1320.95 Q880.535 1320.95 881.45 1320.27 Q882.364 1319.57 882.364 1318.28 Q882.364 1316.94 881.415 1316.24 Q880.478 1315.52 878.718 1315.52 Q877.758 1315.52 876.658 1315.73 Q875.559 1315.94 874.239 1316.38 L874.239 1314.29 Q875.57 1313.92 876.728 1313.74 Q877.897 1313.55 878.927 1313.55 Q881.589 1313.55 883.14 1314.77 Q884.691 1315.97 884.691 1318.03 Q884.691 1319.47 883.869 1320.46 Q883.047 1321.45 881.531 1321.83 Z" fill="#000000" fill-rule="evenodd" fill-opacity="1" /><path clip-path="url(#clip040)" d="M 0 0 M889.644 1329.18 L897.804 1329.18 L897.804 1331.15 L886.832 1331.15 L886.832 1329.18 Q888.163 1327.8 890.454 1325.49 Q892.758 1323.16 893.348 1322.49 Q894.471 1321.23 894.91 1320.36 Q895.362 1319.48 895.362 1318.63 Q895.362 1317.26 894.39 1316.39 Q893.429 1315.52 891.878 1315.52 Q890.778 1315.52 889.552 1315.9 Q888.336 1316.29 886.947 1317.06 L886.947 1314.7 Q888.359 1314.13 889.586 1313.84 Q890.813 1313.55 891.832 1313.55 Q894.517 1313.55 896.114 1314.9 Q897.711 1316.24 897.711 1318.48 Q897.711 1319.55 897.306 1320.51 Q896.913 1321.46 895.859 1322.75 Q895.57 1323.09 894.019 1324.7 Q892.468 1326.3 889.644 1329.18 Z" fill="#000000" fill-rule="evenodd" fill-opacity="1" /><path clip-path="url(#clip040)" d="M 0 0 M756.966 1329.04 L759.304 1329.04 L759.304 1346.32 L756.966 1346.32 L756.966 1329.04 Z" fill="#000000" fill-rule="evenodd" fill-opacity="1" /><path clip-path="url(#clip040)" d="M 0 0 M772.313 1338.5 L772.313 1346.32 L770.184 1346.32 L770.184 1338.57 Q770.184 1336.73 769.466 1335.81 Q768.748 1334.9 767.313 1334.9 Q765.589 1334.9 764.593 1336 Q763.598 1337.1 763.598 1339 L763.598 1346.32 L761.457 1346.32 L761.457 1333.36 L763.598 1333.36 L763.598 1335.37 Q764.362 1334.2 765.392 1333.63 Q766.434 1333.05 767.788 1333.05 Q770.022 1333.05 771.167 1334.44 Q772.313 1335.81 772.313 1338.5 Z" fill="#000000" fill-rule="evenodd" fill-opacity="1" /><path clip-path="url(#clip040)" d="M 0 0 M776.654 1329.68 L776.654 1333.36 L781.04 1333.36 L781.04 1335.01 L776.654 1335.01 L776.654 1342.05 Q776.654 1343.64 777.082 1344.09 Q777.522 1344.54 778.853 1344.54 L781.04 1344.54 L781.04 1346.32 L778.853 1346.32 Q776.387 1346.32 775.45 1345.41 Q774.512 1344.48 774.512 1342.05 L774.512 1335.01 L772.95 1335.01 L772.95 1333.36 L774.512 1333.36 L774.512 1329.68 L776.654 1329.68 Z" fill="#000000" fill-rule="evenodd" fill-opacity="1" /><path clip-path="url(#clip040)" d="M 0 0 M788.864 1336.75 Q787.29 1336.75 786.364 1337.83 Q785.45 1338.9 785.45 1340.78 Q785.45 1342.64 786.364 1343.73 Q787.29 1344.81 788.864 1344.81 Q790.438 1344.81 791.353 1343.73 Q792.278 1342.64 792.278 1340.78 Q792.278 1338.9 791.353 1337.83 Q790.438 1336.75 788.864 1336.75 M793.505 1329.42 L793.505 1331.55 Q792.626 1331.14 791.723 1330.92 Q790.832 1330.7 789.952 1330.7 Q787.637 1330.7 786.41 1332.26 Q785.195 1333.82 785.022 1336.98 Q785.704 1335.98 786.735 1335.44 Q787.765 1334.9 789.003 1334.9 Q791.607 1334.9 793.112 1336.48 Q794.628 1338.06 794.628 1340.78 Q794.628 1343.44 793.054 1345.05 Q791.48 1346.66 788.864 1346.66 Q785.866 1346.66 784.281 1344.37 Q782.695 1342.06 782.695 1337.7 Q782.695 1333.6 784.64 1331.17 Q786.584 1328.73 789.859 1328.73 Q790.739 1328.73 791.63 1328.9 Q792.533 1329.08 793.505 1329.42 Z" fill="#000000" fill-rule="evenodd" fill-opacity="1" /><path clip-path="url(#clip040)" d="M 0 0 M803.586 1331.08 L797.684 1340.3 L803.586 1340.3 L803.586 1331.08 M802.973 1329.04 L805.913 1329.04 L805.913 1340.3 L808.378 1340.3 L808.378 1342.25 L805.913 1342.25 L805.913 1346.32 L803.586 1346.32 L803.586 1342.25 L795.785 1342.25 L795.785 1339.99 L802.973 1329.04 Z" fill="#000000" fill-rule="evenodd" fill-opacity="1" /><path clip-path="url(#clip040)" d="M 0 0 M643.55 1233.54 L645.888 1233.54 L645.888 1250.82 L643.55 1250.82 L643.55 1233.54 Z" fill="#000000" fill-rule="evenodd" fill-opacity="1" /><path clip-path="url(#clip040)" d="M 0 0 M658.897 1243 L658.897 1250.82 L656.767 1250.82 L656.767 1243.07 Q656.767 1241.22 656.05 1240.31 Q655.332 1239.4 653.897 1239.4 Q652.173 1239.4 651.177 1240.5 Q650.182 1241.6 650.182 1243.49 L650.182 1250.82 L648.041 1250.82 L648.041 1237.86 L650.182 1237.86 L650.182 1239.87 Q650.946 1238.7 651.976 1238.12 Q653.017 1237.54 654.372 1237.54 Q656.605 1237.54 657.751 1238.93 Q658.897 1240.31 658.897 1243 Z" fill="#000000" fill-rule="evenodd" fill-opacity="1" /><path clip-path="url(#clip040)" d="M 0 0 M663.237 1234.18 L663.237 1237.86 L667.624 1237.86 L667.624 1239.51 L663.237 1239.51 L663.237 1246.55 Q663.237 1248.13 663.666 1248.59 Q664.105 1249.04 665.436 1249.04 L667.624 1249.04 L667.624 1250.82 L665.436 1250.82 Q662.971 1250.82 662.034 1249.91 Q661.096 1248.98 661.096 1246.55 L661.096 1239.51 L659.534 1239.51 L659.534 1237.86 L661.096 1237.86 L661.096 1234.18 L663.237 1234.18 Z" fill="#000000" fill-rule="evenodd" fill-opacity="1" /><path clip-path="url(#clip040)" d="M 0 0 M675.159 1242.61 Q673.492 1242.61 672.531 1243.5 Q671.582 1244.4 671.582 1245.96 Q671.582 1247.52 672.531 1248.41 Q673.492 1249.3 675.159 1249.3 Q676.825 1249.3 677.786 1248.41 Q678.747 1247.51 678.747 1245.96 Q678.747 1244.4 677.786 1243.5 Q676.837 1242.61 675.159 1242.61 M672.821 1241.62 Q671.316 1241.25 670.471 1240.22 Q669.638 1239.19 669.638 1237.71 Q669.638 1235.63 671.108 1234.43 Q672.589 1233.23 675.159 1233.23 Q677.74 1233.23 679.209 1234.43 Q680.679 1235.63 680.679 1237.71 Q680.679 1239.19 679.834 1240.22 Q679.001 1241.25 677.508 1241.62 Q679.198 1242.01 680.135 1243.16 Q681.084 1244.3 681.084 1245.96 Q681.084 1248.47 679.545 1249.81 Q678.017 1251.16 675.159 1251.16 Q672.3 1251.16 670.76 1249.81 Q669.233 1248.47 669.233 1245.96 Q669.233 1244.3 670.182 1243.16 Q671.131 1242.01 672.821 1241.62 M671.964 1237.93 Q671.964 1239.27 672.797 1240.02 Q673.642 1240.77 675.159 1240.77 Q676.663 1240.77 677.508 1240.02 Q678.365 1239.27 678.365 1237.93 Q678.365 1236.58 677.508 1235.83 Q676.663 1235.08 675.159 1235.08 Q673.642 1235.08 672.797 1235.83 Q671.964 1236.58 671.964 1237.93 Z" fill="#000000" fill-rule="evenodd" fill-opacity="1" /><path clip-path="url(#clip040)" d="M 0 0 M1441.39 1119.74 L1443.74 1119.74 L1443.74 1130.24 Q1443.74 1133.01 1444.75 1134.24 Q1445.76 1135.46 1448.01 1135.46 Q1450.26 1135.46 1451.27 1134.24 Q1452.27 1133.01 1452.27 1130.24 L1452.27 1119.74 L1454.62 1119.74 L1454.62 1130.53 Q1454.62 1133.91 1452.94 1135.63 Q1451.28 1137.35 1448.01 1137.35 Q1444.74 1137.35 1443.06 1135.63 Q1441.39 1133.91 1441.39 1130.53 L1441.39 1119.74 Z" fill="#000000" fill-rule="evenodd" fill-opacity="1" /><path clip-path="url(#clip040)" d="M 0 0 M1467.63 1129.19 L1467.63 1137.02 L1465.5 1137.02 L1465.5 1129.26 Q1465.5 1127.42 1464.78 1126.51 Q1464.07 1125.6 1462.63 1125.6 Q1460.91 1125.6 1459.91 1126.69 Q1458.92 1127.79 1458.92 1129.69 L1458.92 1137.02 L1456.78 1137.02 L1456.78 1124.06 L1458.92 1124.06 L1458.92 1126.07 Q1459.68 1124.9 1460.71 1124.32 Q1461.75 1123.74 1463.11 1123.74 Q1465.34 1123.74 1466.49 1125.13 Q1467.63 1126.51 1467.63 1129.19 Z" fill="#000000" fill-rule="evenodd" fill-opacity="1" /><path clip-path="url(#clip040)" d="M 0 0 M1478.13 1124.44 L1478.13 1126.45 Q1477.23 1125.99 1476.25 1125.76 Q1475.28 1125.53 1474.24 1125.53 Q1472.65 1125.53 1471.86 1126.01 Q1471.07 1126.5 1471.07 1127.47 Q1471.07 1128.21 1471.64 1128.64 Q1472.2 1129.06 1473.92 1129.44 L1474.65 1129.6 Q1476.91 1130.09 1477.86 1130.98 Q1478.82 1131.86 1478.82 1133.44 Q1478.82 1135.25 1477.39 1136.3 Q1475.96 1137.35 1473.46 1137.35 Q1472.42 1137.35 1471.29 1137.15 Q1470.17 1136.95 1468.92 1136.54 L1468.92 1134.35 Q1470.1 1134.96 1471.24 1135.27 Q1472.39 1135.57 1473.51 1135.57 Q1475.02 1135.57 1475.83 1135.06 Q1476.64 1134.54 1476.64 1133.6 Q1476.64 1132.74 1476.05 1132.27 Q1475.47 1131.81 1473.49 1131.38 L1472.75 1131.21 Q1470.77 1130.79 1469.89 1129.94 Q1469.01 1129.07 1469.01 1127.56 Q1469.01 1125.73 1470.31 1124.74 Q1471.6 1123.74 1473.99 1123.74 Q1475.17 1123.74 1476.21 1123.92 Q1477.25 1124.09 1478.13 1124.44 Z" fill="#000000" fill-rule="evenodd" fill-opacity="1" /><path clip-path="url(#clip040)" d="M 0 0 M1481.06 1124.06 L1483.19 1124.06 L1483.19 1137.02 L1481.06 1137.02 L1481.06 1124.06 M1481.06 1119.01 L1483.19 1119.01 L1483.19 1121.71 L1481.06 1121.71 L1481.06 1119.01 Z" fill="#000000" fill-rule="evenodd" fill-opacity="1" /><path clip-path="url(#clip040)" d="M 0 0 M1493.95 1130.39 Q1493.95 1128.07 1492.99 1126.8 Q1492.04 1125.53 1490.32 1125.53 Q1488.6 1125.53 1487.64 1126.8 Q1486.69 1128.07 1486.69 1130.39 Q1486.69 1132.69 1487.64 1133.96 Q1488.6 1135.24 1490.32 1135.24 Q1492.04 1135.24 1492.99 1133.96 Q1493.95 1132.69 1493.95 1130.39 M1496.08 1135.41 Q1496.08 1138.72 1494.61 1140.33 Q1493.14 1141.95 1490.11 1141.95 Q1488.99 1141.95 1487.99 1141.78 Q1486.99 1141.61 1486.06 1141.27 L1486.06 1139.19 Q1486.99 1139.7 1487.91 1139.95 Q1488.82 1140.19 1489.77 1140.19 Q1491.87 1140.19 1492.91 1139.09 Q1493.95 1138 1493.95 1135.79 L1493.95 1134.74 Q1493.29 1135.88 1492.26 1136.45 Q1491.23 1137.02 1489.8 1137.02 Q1487.41 1137.02 1485.95 1135.2 Q1484.49 1133.38 1484.49 1130.39 Q1484.49 1127.38 1485.95 1125.56 Q1487.41 1123.74 1489.8 1123.74 Q1491.23 1123.74 1492.26 1124.31 Q1493.29 1124.88 1493.95 1126.02 L1493.95 1124.06 L1496.08 1124.06 L1496.08 1135.41 Z" fill="#000000" fill-rule="evenodd" fill-opacity="1" /><path clip-path="url(#clip040)" d="M 0 0 M1509.09 1129.19 L1509.09 1137.02 L1506.96 1137.02 L1506.96 1129.26 Q1506.96 1127.42 1506.24 1126.51 Q1505.52 1125.6 1504.09 1125.6 Q1502.37 1125.6 1501.37 1126.69 Q1500.37 1127.79 1500.37 1129.69 L1500.37 1137.02 L1498.23 1137.02 L1498.23 1124.06 L1500.37 1124.06 L1500.37 1126.07 Q1501.14 1124.9 1502.17 1124.32 Q1503.21 1123.74 1504.56 1123.74 Q1506.8 1123.74 1507.94 1125.13 Q1509.09 1126.51 1509.09 1129.19 Z" fill="#000000" fill-rule="evenodd" fill-opacity="1" /><path clip-path="url(#clip040)" d="M 0 0 M1522.41 1130.01 L1522.41 1131.05 L1512.62 1131.05 Q1512.76 1133.25 1513.94 1134.4 Q1515.13 1135.55 1517.25 1135.55 Q1518.48 1135.55 1519.62 1135.25 Q1520.78 1134.95 1521.91 1134.35 L1521.91 1136.36 Q1520.77 1136.85 1519.56 1137.1 Q1518.36 1137.35 1517.12 1137.35 Q1514.02 1137.35 1512.2 1135.55 Q1510.4 1133.74 1510.4 1130.66 Q1510.4 1127.48 1512.11 1125.62 Q1513.84 1123.74 1516.75 1123.74 Q1519.37 1123.74 1520.88 1125.43 Q1522.41 1127.11 1522.41 1130.01 M1520.28 1129.38 Q1520.26 1127.63 1519.3 1126.59 Q1518.35 1125.55 1516.77 1125.55 Q1514.99 1125.55 1513.92 1126.56 Q1512.85 1127.56 1512.69 1129.39 L1520.28 1129.38 Z" fill="#000000" fill-rule="evenodd" fill-opacity="1" /><path clip-path="url(#clip040)" d="M 0 0 M1533.18 1126.02 L1533.18 1119.01 L1535.3 1119.01 L1535.3 1137.02 L1533.18 1137.02 L1533.18 1135.07 Q1532.5 1136.23 1531.47 1136.8 Q1530.46 1137.35 1529.02 1137.35 Q1526.67 1137.35 1525.19 1135.48 Q1523.72 1133.6 1523.72 1130.55 Q1523.72 1127.49 1525.19 1125.62 Q1526.67 1123.74 1529.02 1123.74 Q1530.46 1123.74 1531.47 1124.31 Q1532.5 1124.87 1533.18 1126.02 M1525.92 1130.55 Q1525.92 1132.9 1526.88 1134.24 Q1527.85 1135.57 1529.54 1135.57 Q1531.23 1135.57 1532.2 1134.24 Q1533.18 1132.9 1533.18 1130.55 Q1533.18 1128.2 1532.2 1126.87 Q1531.23 1125.53 1529.54 1125.53 Q1527.85 1125.53 1526.88 1126.87 Q1525.92 1128.2 1525.92 1130.55 Z" fill="#000000" fill-rule="evenodd" fill-opacity="1" /><path clip-path="url(#clip040)" d="M 0 0 M1698.34 1261.55 L1700.69 1261.55 L1700.69 1272.05 Q1700.69 1274.82 1701.69 1276.05 Q1702.7 1277.27 1704.96 1277.27 Q1707.2 1277.27 1708.21 1276.05 Q1709.22 1274.82 1709.22 1272.05 L1709.22 1261.55 L1711.57 1261.55 L1711.57 1272.34 Q1711.57 1275.72 1709.89 1277.44 Q1708.22 1279.16 1704.96 1279.16 Q1701.68 1279.16 1700 1277.44 Q1698.34 1275.72 1698.34 1272.34 L1698.34 1261.55 Z" fill="#000000" fill-rule="evenodd" fill-opacity="1" /><path clip-path="url(#clip040)" d="M 0 0 M1713.89 1261.55 L1716.23 1261.55 L1716.23 1278.83 L1713.89 1278.83 L1713.89 1261.55 Z" fill="#000000" fill-rule="evenodd" fill-opacity="1" /><path clip-path="url(#clip040)" d="M 0 0 M1729.24 1271 L1729.24 1278.83 L1727.11 1278.83 L1727.11 1271.07 Q1727.11 1269.23 1726.39 1268.32 Q1725.67 1267.41 1724.24 1267.41 Q1722.52 1267.41 1721.52 1268.5 Q1720.52 1269.6 1720.52 1271.5 L1720.52 1278.83 L1718.38 1278.83 L1718.38 1265.87 L1720.52 1265.87 L1720.52 1267.88 Q1721.29 1266.71 1722.32 1266.13 Q1723.36 1265.55 1724.71 1265.55 Q1726.95 1265.55 1728.09 1266.94 Q1729.24 1268.32 1729.24 1271 Z" fill="#000000" fill-rule="evenodd" fill-opacity="1" /><path clip-path="url(#clip040)" d="M 0 0 M1733.58 1262.19 L1733.58 1265.87 L1737.97 1265.87 L1737.97 1267.52 L1733.58 1267.52 L1733.58 1274.56 Q1733.58 1276.14 1734.01 1276.59 Q1734.45 1277.05 1735.78 1277.05 L1737.97 1277.05 L1737.97 1278.83 L1735.78 1278.83 Q1733.31 1278.83 1732.38 1277.91 Q1731.44 1276.99 1731.44 1274.56 L1731.44 1267.52 L1729.88 1267.52 L1729.88 1265.87 L1731.44 1265.87 L1731.44 1262.19 L1733.58 1262.19 Z" fill="#000000" fill-rule="evenodd" fill-opacity="1" /><path clip-path="url(#clip040)" d="M 0 0 M1740.91 1276.86 L1744.73 1276.86 L1744.73 1263.68 L1740.57 1264.51 L1740.57 1262.38 L1744.7 1261.55 L1747.04 1261.55 L1747.04 1276.86 L1750.86 1276.86 L1750.86 1278.83 L1740.91 1278.83 L1740.91 1276.86 Z" fill="#000000" fill-rule="evenodd" fill-opacity="1" /><path clip-path="url(#clip040)" d="M 0 0 M1755.41 1276.86 L1763.57 1276.86 L1763.57 1278.83 L1752.6 1278.83 L1752.6 1276.86 Q1753.93 1275.48 1756.22 1273.17 Q1758.52 1270.84 1759.11 1270.17 Q1760.23 1268.91 1760.67 1268.04 Q1761.13 1267.16 1761.13 1266.32 Q1761.13 1264.94 1760.15 1264.07 Q1759.19 1263.2 1757.64 1263.2 Q1756.54 1263.2 1755.32 1263.59 Q1754.1 1263.97 1752.71 1264.74 L1752.71 1262.38 Q1754.12 1261.81 1755.35 1261.53 Q1756.58 1261.24 1757.6 1261.24 Q1760.28 1261.24 1761.88 1262.58 Q1763.48 1263.92 1763.48 1266.17 Q1763.48 1267.23 1763.07 1268.19 Q1762.68 1269.14 1761.62 1270.44 Q1761.33 1270.77 1759.78 1272.38 Q1758.23 1273.98 1755.41 1276.86 Z" fill="#000000" fill-rule="evenodd" fill-opacity="1" /><path clip-path="url(#clip040)" d="M 0 0 M1771.1 1270.62 Q1769.44 1270.62 1768.48 1271.51 Q1767.53 1272.41 1767.53 1273.97 Q1767.53 1275.53 1768.48 1276.42 Q1769.44 1277.31 1771.1 1277.31 Q1772.77 1277.31 1773.73 1276.42 Q1774.69 1275.52 1774.69 1273.97 Q1774.69 1272.41 1773.73 1271.51 Q1772.78 1270.62 1771.1 1270.62 M1768.76 1269.63 Q1767.26 1269.26 1766.42 1268.23 Q1765.58 1267.2 1765.58 1265.72 Q1765.58 1263.64 1767.05 1262.44 Q1768.53 1261.24 1771.1 1261.24 Q1773.68 1261.24 1775.15 1262.44 Q1776.62 1263.64 1776.62 1265.72 Q1776.62 1267.2 1775.78 1268.23 Q1774.95 1269.26 1773.45 1269.63 Q1775.14 1270.02 1776.08 1271.17 Q1777.03 1272.31 1777.03 1273.97 Q1777.03 1276.48 1775.49 1277.82 Q1773.96 1279.16 1771.1 1279.16 Q1768.24 1279.16 1766.7 1277.82 Q1765.18 1276.48 1765.18 1273.97 Q1765.18 1272.31 1766.13 1271.17 Q1767.07 1270.02 1768.76 1269.63 M1767.91 1265.94 Q1767.91 1267.28 1768.74 1268.03 Q1769.59 1268.78 1771.1 1268.78 Q1772.61 1268.78 1773.45 1268.03 Q1774.31 1267.28 1774.31 1265.94 Q1774.31 1264.59 1773.45 1263.84 Q1772.61 1263.09 1771.1 1263.09 Q1769.59 1263.09 1768.74 1263.84 Q1767.91 1264.59 1767.91 1265.94 Z" fill="#000000" fill-rule="evenodd" fill-opacity="1" /><path clip-path="url(#clip040)" d="M 0 0 M1639.43 1316.43 L1641.78 1316.43 L1641.78 1326.92 Q1641.78 1329.7 1642.79 1330.93 Q1643.8 1332.14 1646.05 1332.14 Q1648.3 1332.14 1649.3 1330.93 Q1650.31 1329.7 1650.31 1326.92 L1650.31 1316.43 L1652.66 1316.43 L1652.66 1327.21 Q1652.66 1330.59 1650.98 1332.32 Q1649.32 1334.04 1646.05 1334.04 Q1642.78 1334.04 1641.1 1332.32 Q1639.43 1330.59 1639.43 1327.21 L1639.43 1316.43 Z" fill="#000000" fill-rule="evenodd" fill-opacity="1" /><path clip-path="url(#clip040)" d="M 0 0 M1654.99 1316.43 L1657.33 1316.43 L1657.33 1333.71 L1654.99 1333.71 L1654.99 1316.43 Z" fill="#000000" fill-rule="evenodd" fill-opacity="1" /><path clip-path="url(#clip040)" d="M 0 0 M1670.33 1325.88 L1670.33 1333.71 L1668.2 1333.71 L1668.2 1325.95 Q1668.2 1324.11 1667.49 1323.2 Q1666.77 1322.28 1665.33 1322.28 Q1663.61 1322.28 1662.61 1323.38 Q1661.62 1324.48 1661.62 1326.38 L1661.62 1333.71 L1659.48 1333.71 L1659.48 1320.74 L1661.62 1320.74 L1661.62 1322.76 Q1662.38 1321.59 1663.41 1321.01 Q1664.45 1320.43 1665.81 1320.43 Q1668.04 1320.43 1669.19 1321.82 Q1670.33 1323.2 1670.33 1325.88 Z" fill="#000000" fill-rule="evenodd" fill-opacity="1" /><path clip-path="url(#clip040)" d="M 0 0 M1674.67 1317.06 L1674.67 1320.74 L1679.06 1320.74 L1679.06 1322.4 L1674.67 1322.4 L1674.67 1329.44 Q1674.67 1331.02 1675.1 1331.47 Q1675.54 1331.92 1676.87 1331.92 L1679.06 1331.92 L1679.06 1333.71 L1676.87 1333.71 Q1674.41 1333.71 1673.47 1332.79 Q1672.53 1331.87 1672.53 1329.44 L1672.53 1322.4 L1670.97 1322.4 L1670.97 1320.74 L1672.53 1320.74 L1672.53 1317.06 L1674.67 1317.06 Z" fill="#000000" fill-rule="evenodd" fill-opacity="1" /><path clip-path="url(#clip040)" d="M 0 0 M1682 1331.74 L1685.82 1331.74 L1685.82 1318.56 L1681.67 1319.39 L1681.67 1317.26 L1685.8 1316.43 L1688.14 1316.43 L1688.14 1331.74 L1691.95 1331.74 L1691.95 1333.71 L1682 1333.71 L1682 1331.74 Z" fill="#000000" fill-rule="evenodd" fill-opacity="1" /><path clip-path="url(#clip040)" d="M 0 0 M1699.78 1324.13 Q1698.2 1324.13 1697.28 1325.21 Q1696.36 1326.29 1696.36 1328.16 Q1696.36 1330.03 1697.28 1331.11 Q1698.2 1332.19 1699.78 1332.19 Q1701.35 1332.19 1702.27 1331.11 Q1703.19 1330.03 1703.19 1328.16 Q1703.19 1326.29 1702.27 1325.21 Q1701.35 1324.13 1699.78 1324.13 M1704.42 1316.81 L1704.42 1318.94 Q1703.54 1318.52 1702.64 1318.3 Q1701.75 1318.08 1700.87 1318.08 Q1698.55 1318.08 1697.33 1319.64 Q1696.11 1321.21 1695.94 1324.37 Q1696.62 1323.36 1697.65 1322.83 Q1698.68 1322.28 1699.92 1322.28 Q1702.52 1322.28 1704.03 1323.87 Q1705.54 1325.44 1705.54 1328.16 Q1705.54 1330.82 1703.97 1332.43 Q1702.39 1334.04 1699.78 1334.04 Q1696.78 1334.04 1695.2 1331.75 Q1693.61 1329.45 1693.61 1325.08 Q1693.61 1320.99 1695.55 1318.56 Q1697.5 1316.11 1700.77 1316.11 Q1701.65 1316.11 1702.55 1316.29 Q1703.45 1316.46 1704.42 1316.81 Z" fill="#000000" fill-rule="evenodd" fill-opacity="1" /><path clip-path="url(#clip040)" d="M 0 0 M1463.66 1284.96 L1466.01 1284.96 L1466.01 1295.46 Q1466.01 1298.24 1467.02 1299.47 Q1468.02 1300.68 1470.28 1300.68 Q1472.53 1300.68 1473.53 1299.47 Q1474.54 1298.24 1474.54 1295.46 L1474.54 1284.96 L1476.89 1284.96 L1476.89 1295.75 Q1476.89 1299.13 1475.21 1300.86 Q1473.54 1302.58 1470.28 1302.58 Q1467.01 1302.58 1465.33 1300.86 Q1463.66 1299.13 1463.66 1295.75 L1463.66 1284.96 Z" fill="#000000" fill-rule="evenodd" fill-opacity="1" /><path clip-path="url(#clip040)" d="M 0 0 M1479.22 1284.96 L1481.55 1284.96 L1481.55 1302.24 L1479.22 1302.24 L1479.22 1284.96 Z" fill="#000000" fill-rule="evenodd" fill-opacity="1" /><path clip-path="url(#clip040)" d="M 0 0 M1494.56 1294.42 L1494.56 1302.24 L1492.43 1302.24 L1492.43 1294.49 Q1492.43 1292.65 1491.72 1291.74 Q1491 1290.82 1489.56 1290.82 Q1487.84 1290.82 1486.84 1291.92 Q1485.85 1293.02 1485.85 1294.92 L1485.85 1302.24 L1483.71 1302.24 L1483.71 1289.28 L1485.85 1289.28 L1485.85 1291.3 Q1486.61 1290.13 1487.64 1289.55 Q1488.68 1288.97 1490.04 1288.97 Q1492.27 1288.97 1493.42 1290.36 Q1494.56 1291.74 1494.56 1294.42 Z" fill="#000000" fill-rule="evenodd" fill-opacity="1" /><path clip-path="url(#clip040)" d="M 0 0 M1498.9 1285.6 L1498.9 1289.28 L1503.29 1289.28 L1503.29 1290.94 L1498.9 1290.94 L1498.9 1297.97 Q1498.9 1299.56 1499.33 1300.01 Q1499.77 1300.46 1501.1 1300.46 L1503.29 1300.46 L1503.29 1302.24 L1501.1 1302.24 Q1498.64 1302.24 1497.7 1301.33 Q1496.76 1300.4 1496.76 1297.97 L1496.76 1290.94 L1495.2 1290.94 L1495.2 1289.28 L1496.76 1289.28 L1496.76 1285.6 L1498.9 1285.6 Z" fill="#000000" fill-rule="evenodd" fill-opacity="1" /><path clip-path="url(#clip040)" d="M 0 0 M1512.91 1292.93 Q1514.59 1293.29 1515.52 1294.42 Q1516.47 1295.55 1516.47 1297.22 Q1516.47 1299.78 1514.71 1301.18 Q1512.95 1302.58 1509.71 1302.58 Q1508.63 1302.58 1507.47 1302.36 Q1506.32 1302.15 1505.1 1301.72 L1505.1 1299.47 Q1506.07 1300.03 1507.22 1300.32 Q1508.38 1300.61 1509.64 1300.61 Q1511.84 1300.61 1512.99 1299.74 Q1514.15 1298.88 1514.15 1297.22 Q1514.15 1295.69 1513.07 1294.84 Q1512 1293.97 1510.1 1293.97 L1508.08 1293.97 L1508.08 1292.05 L1510.19 1292.05 Q1511.91 1292.05 1512.83 1291.36 Q1513.74 1290.67 1513.74 1289.37 Q1513.74 1288.04 1512.79 1287.34 Q1511.85 1286.62 1510.1 1286.62 Q1509.13 1286.62 1508.04 1286.83 Q1506.94 1287.04 1505.62 1287.48 L1505.62 1285.39 Q1506.95 1285.02 1508.1 1284.84 Q1509.27 1284.65 1510.3 1284.65 Q1512.97 1284.65 1514.52 1285.87 Q1516.07 1287.07 1516.07 1289.13 Q1516.07 1290.57 1515.25 1291.56 Q1514.42 1292.55 1512.91 1292.93 Z" fill="#000000" fill-rule="evenodd" fill-opacity="1" /><path clip-path="url(#clip040)" d="M 0 0 M1521.02 1300.28 L1529.18 1300.28 L1529.18 1302.24 L1518.21 1302.24 L1518.21 1300.28 Q1519.54 1298.9 1521.83 1296.58 Q1524.13 1294.26 1524.72 1293.59 Q1525.85 1292.33 1526.29 1291.46 Q1526.74 1290.58 1526.74 1289.73 Q1526.74 1288.36 1525.77 1287.49 Q1524.81 1286.62 1523.25 1286.62 Q1522.16 1286.62 1520.93 1287 Q1519.71 1287.38 1518.32 1288.16 L1518.32 1285.8 Q1519.74 1285.23 1520.96 1284.94 Q1522.19 1284.65 1523.21 1284.65 Q1525.89 1284.65 1527.49 1285.99 Q1529.09 1287.34 1529.09 1289.58 Q1529.09 1290.65 1528.68 1291.61 Q1528.29 1292.56 1527.24 1293.85 Q1526.95 1294.19 1525.4 1295.8 Q1523.85 1297.39 1521.02 1300.28 Z" fill="#000000" fill-rule="evenodd" fill-opacity="1" /><path clip-path="url(#clip040)" d="M 0 0 M1357.66 1244.77 L1360.01 1244.77 L1360.01 1255.27 Q1360.01 1258.05 1361.02 1259.27 Q1362.03 1260.49 1364.28 1260.49 Q1366.53 1260.49 1367.53 1259.27 Q1368.54 1258.05 1368.54 1255.27 L1368.54 1244.77 L1370.89 1244.77 L1370.89 1255.56 Q1370.89 1258.94 1369.21 1260.66 Q1367.55 1262.39 1364.28 1262.39 Q1361.01 1262.39 1359.33 1260.66 Q1357.66 1258.94 1357.66 1255.56 L1357.66 1244.77 Z" fill="#000000" fill-rule="evenodd" fill-opacity="1" /><path clip-path="url(#clip040)" d="M 0 0 M1373.22 1244.77 L1375.56 1244.77 L1375.56 1262.05 L1373.22 1262.05 L1373.22 1244.77 Z" fill="#000000" fill-rule="evenodd" fill-opacity="1" /><path clip-path="url(#clip040)" d="M 0 0 M1388.56 1254.23 L1388.56 1262.05 L1386.43 1262.05 L1386.43 1254.3 Q1386.43 1252.46 1385.72 1251.54 Q1385 1250.63 1383.56 1250.63 Q1381.84 1250.63 1380.84 1251.73 Q1379.85 1252.83 1379.85 1254.72 L1379.85 1262.05 L1377.71 1262.05 L1377.71 1249.09 L1379.85 1249.09 L1379.85 1251.1 Q1380.61 1249.93 1381.64 1249.35 Q1382.68 1248.77 1384.04 1248.77 Q1386.27 1248.77 1387.42 1250.16 Q1388.56 1251.54 1388.56 1254.23 Z" fill="#000000" fill-rule="evenodd" fill-opacity="1" /><path clip-path="url(#clip040)" d="M 0 0 M1392.9 1245.41 L1392.9 1249.09 L1397.29 1249.09 L1397.29 1250.74 L1392.9 1250.74 L1392.9 1257.78 Q1392.9 1259.36 1393.33 1259.82 Q1393.77 1260.27 1395.1 1260.27 L1397.29 1260.27 L1397.29 1262.05 L1395.1 1262.05 Q1392.64 1262.05 1391.7 1261.14 Q1390.76 1260.21 1390.76 1257.78 L1390.76 1250.74 L1389.2 1250.74 L1389.2 1249.09 L1390.76 1249.09 L1390.76 1245.41 L1392.9 1245.41 Z" fill="#000000" fill-rule="evenodd" fill-opacity="1" /><path clip-path="url(#clip040)" d="M 0 0 M1405.12 1252.48 Q1403.54 1252.48 1402.62 1253.55 Q1401.7 1254.63 1401.7 1256.51 Q1401.7 1258.37 1402.62 1259.46 Q1403.54 1260.53 1405.12 1260.53 Q1406.69 1260.53 1407.6 1259.46 Q1408.53 1258.37 1408.53 1256.51 Q1408.53 1254.63 1407.6 1253.55 Q1406.69 1252.48 1405.12 1252.48 M1409.76 1245.15 L1409.76 1247.28 Q1408.88 1246.87 1407.97 1246.65 Q1407.08 1246.43 1406.2 1246.43 Q1403.89 1246.43 1402.66 1247.99 Q1401.45 1249.55 1401.27 1252.71 Q1401.96 1251.7 1402.99 1251.17 Q1404.02 1250.63 1405.25 1250.63 Q1407.86 1250.63 1409.36 1252.21 Q1410.88 1253.79 1410.88 1256.51 Q1410.88 1259.17 1409.3 1260.78 Q1407.73 1262.39 1405.12 1262.39 Q1402.12 1262.39 1400.53 1260.09 Q1398.95 1257.79 1398.95 1253.43 Q1398.95 1249.33 1400.89 1246.9 Q1402.84 1244.46 1406.11 1244.46 Q1406.99 1244.46 1407.88 1244.63 Q1408.78 1244.8 1409.76 1245.15 Z" fill="#000000" fill-rule="evenodd" fill-opacity="1" /><path clip-path="url(#clip040)" d="M 0 0 M1419.84 1246.81 L1413.93 1256.03 L1419.84 1256.03 L1419.84 1246.81 M1419.22 1244.77 L1422.16 1244.77 L1422.16 1256.03 L1424.63 1256.03 L1424.63 1257.98 L1422.16 1257.98 L1422.16 1262.05 L1419.84 1262.05 L1419.84 1257.98 L1412.04 1257.98 L1412.04 1255.72 L1419.22 1244.77 Z" fill="#000000" fill-rule="evenodd" fill-opacity="1" /><path clip-path="url(#clip040)" d="M 0 0 M1559.82 1308.64 L1562.17 1308.64 L1562.17 1319.14 Q1562.17 1321.91 1563.17 1323.14 Q1564.18 1324.36 1566.44 1324.36 Q1568.68 1324.36 1569.69 1323.14 Q1570.7 1321.91 1570.7 1319.14 L1570.7 1308.64 L1573.05 1308.64 L1573.05 1319.43 Q1573.05 1322.81 1571.37 1324.53 Q1569.7 1326.25 1566.44 1326.25 Q1563.16 1326.25 1561.48 1324.53 Q1559.82 1322.81 1559.82 1319.43 L1559.82 1308.64 Z" fill="#000000" fill-rule="evenodd" fill-opacity="1" /><path clip-path="url(#clip040)" d="M 0 0 M1575.37 1308.64 L1577.71 1308.64 L1577.71 1325.92 L1575.37 1325.92 L1575.37 1308.64 Z" fill="#000000" fill-rule="evenodd" fill-opacity="1" /><path clip-path="url(#clip040)" d="M 0 0 M1590.72 1318.09 L1590.72 1325.92 L1588.59 1325.92 L1588.59 1318.16 Q1588.59 1316.32 1587.87 1315.41 Q1587.16 1314.5 1585.72 1314.5 Q1584 1314.5 1583 1315.59 Q1582.01 1316.69 1582.01 1318.59 L1582.01 1325.92 L1579.86 1325.92 L1579.86 1312.96 L1582.01 1312.96 L1582.01 1314.97 Q1582.77 1313.8 1583.8 1313.22 Q1584.84 1312.64 1586.2 1312.64 Q1588.43 1312.64 1589.57 1314.03 Q1590.72 1315.41 1590.72 1318.09 Z" fill="#000000" fill-rule="evenodd" fill-opacity="1" /><path clip-path="url(#clip040)" d="M 0 0 M1595.06 1309.28 L1595.06 1312.96 L1599.45 1312.96 L1599.45 1314.61 L1595.06 1314.61 L1595.06 1321.65 Q1595.06 1323.23 1595.49 1323.69 Q1595.93 1324.14 1597.26 1324.14 L1599.45 1324.14 L1599.45 1325.92 L1597.26 1325.92 Q1594.79 1325.92 1593.86 1325 Q1592.92 1324.08 1592.92 1321.65 L1592.92 1314.61 L1591.36 1314.61 L1591.36 1312.96 L1592.92 1312.96 L1592.92 1309.28 L1595.06 1309.28 Z" fill="#000000" fill-rule="evenodd" fill-opacity="1" /><path clip-path="url(#clip040)" d="M 0 0 M1606.98 1317.71 Q1605.32 1317.71 1604.35 1318.6 Q1603.41 1319.5 1603.41 1321.06 Q1603.41 1322.62 1604.35 1323.51 Q1605.32 1324.4 1606.98 1324.4 Q1608.65 1324.4 1609.61 1323.51 Q1610.57 1322.61 1610.57 1321.06 Q1610.57 1319.5 1609.61 1318.6 Q1608.66 1317.71 1606.98 1317.71 M1604.64 1316.72 Q1603.14 1316.35 1602.29 1315.32 Q1601.46 1314.29 1601.46 1312.81 Q1601.46 1310.73 1602.93 1309.53 Q1604.41 1308.33 1606.98 1308.33 Q1609.56 1308.33 1611.03 1309.53 Q1612.5 1310.73 1612.5 1312.81 Q1612.5 1314.29 1611.66 1315.32 Q1610.82 1316.35 1609.33 1316.72 Q1611.02 1317.11 1611.96 1318.26 Q1612.91 1319.4 1612.91 1321.06 Q1612.91 1323.57 1611.37 1324.91 Q1609.84 1326.25 1606.98 1326.25 Q1604.12 1326.25 1602.58 1324.91 Q1601.06 1323.57 1601.06 1321.06 Q1601.06 1319.4 1602.01 1318.26 Q1602.95 1317.11 1604.64 1316.72 M1603.79 1313.03 Q1603.79 1314.37 1604.62 1315.12 Q1605.47 1315.87 1606.98 1315.87 Q1608.49 1315.87 1609.33 1315.12 Q1610.19 1314.37 1610.19 1313.03 Q1610.19 1311.68 1609.33 1310.93 Q1608.49 1310.18 1606.98 1310.18 Q1605.47 1310.18 1604.62 1310.93 Q1603.79 1311.68 1603.79 1313.03 Z" fill="#000000" fill-rule="evenodd" fill-opacity="1" /></svg>
