<?xml version="1.0" encoding="utf-8"?>
<svg xmlns="http://www.w3.org/2000/svg" xmlns:xlink="http://www.w3.org/1999/xlink" width="600" height="400" viewBox="0 0 2400 1600">
<defs>
  <clipPath id="clip890">
    <rect x="0" y="0" width="2400" height="1600"/>
  </clipPath>
</defs>
<path clip-path="url(#clip890)" d="
M0 1600 L2400 1600 L2400 0 L0 0  Z
  " fill="#ffffff" fill-rule="evenodd" fill-opacity="1"/>
<defs>
  <clipPath id="clip891">
    <rect x="480" y="0" width="1681" height="1600"/>
  </clipPath>
</defs>
<path clip-path="url(#clip890)" d="
M447.244 1552.76 L1952.76 1552.76 L1952.76 47.2441 L447.244 47.2441  Z
  " fill="#ffffff" fill-rule="evenodd" fill-opacity="1"/>
<defs>
  <clipPath id="clip892">
    <rect x="447" y="47" width="1507" height="1507"/>
  </clipPath>
</defs>
<polyline clip-path="url(#clip892)" style="stroke:#000000; stroke-linecap:butt; stroke-linejoin:round; stroke-width:4; stroke-opacity:1; fill:none" points="
  1256.91,262.317 1257.01,271.544 1257.28,280.958 1257.72,290.546 1258.31,300.293 1259.04,310.185 1259.9,320.21 1260.86,330.352 1261.93,340.598 1263.09,350.934 
  1264.31,361.347 1265.6,371.821 1266.94,382.345 1268.3,392.903 1269.69,403.482 1271.08,414.067 1272.47,424.646 1273.83,435.204 1275.17,445.728 1276.46,456.203 
  1277.68,466.615 1278.84,476.951 1279.91,487.197 1280.87,497.339 1281.73,507.364 1282.46,517.256 1283.05,527.003 1283.49,536.591 1283.76,546.005 1283.86,555.232 
  
  "/>
<polyline clip-path="url(#clip892)" style="stroke:#000000; stroke-linecap:butt; stroke-linejoin:round; stroke-width:4; stroke-opacity:1; fill:none" points="
  1283.86,555.232 1283.45,560.554 1282.26,565.694 1280.36,570.664 1277.79,575.479 1274.62,580.151 1270.91,584.694 1266.7,589.123 1262.06,593.449 1257.05,597.688 
  1251.72,601.852 1246.13,605.955 1240.34,610.011 1234.41,614.033 1228.39,618.035 1222.34,622.03 1216.32,626.031 1210.39,630.053 1204.6,634.109 1199.01,638.212 
  1193.68,642.376 1188.67,646.615 1184.03,650.942 1179.82,655.37 1176.1,659.914 1172.93,664.586 1170.37,669.4 1168.46,674.371 1167.28,679.51 1166.87,684.833 
  
  "/>
<polyline clip-path="url(#clip892)" style="stroke:#000000; stroke-linecap:butt; stroke-linejoin:round; stroke-width:4; stroke-opacity:1; fill:none" points="
  1166.87,684.833 1166.98,689.989 1167.29,695.235 1167.79,700.564 1168.47,705.969 1169.31,711.445 1170.29,716.984 1171.41,722.579 1172.63,728.225 1173.96,733.913 
  1175.37,739.638 1176.85,745.394 1178.38,751.172 1179.95,756.967 1181.54,762.772 1183.14,768.581 1184.73,774.386 1186.3,780.181 1187.83,785.959 1189.31,791.714 
  1190.72,797.44 1192.05,803.128 1193.27,808.774 1194.39,814.369 1195.37,819.908 1196.21,825.383 1196.89,830.789 1197.39,836.118 1197.7,841.364 1197.81,846.52 
  
  "/>
<polyline clip-path="url(#clip892)" style="stroke:#000000; stroke-linecap:butt; stroke-linejoin:round; stroke-width:4; stroke-opacity:1; fill:none" points="
  1197.81,846.52 1198.01,856.231 1198.59,866.111 1199.53,876.149 1200.78,886.333 1202.34,896.649 1204.16,907.085 1206.22,917.628 1208.49,928.266 1210.95,938.985 
  1213.56,949.775 1216.3,960.621 1219.14,971.511 1222.05,982.433 1225,993.373 1227.96,1004.32 1230.92,1015.26 1233.82,1026.18 1236.66,1037.07 1239.4,1047.92 
  1242.01,1058.71 1244.47,1069.43 1246.74,1080.07 1248.81,1090.61 1250.63,1101.04 1252.18,1111.36 1253.44,1121.54 1254.37,1131.58 1254.95,1141.46 1255.15,1151.17 
  
  "/>
<polyline clip-path="url(#clip892)" style="stroke:#000000; stroke-linecap:butt; stroke-linejoin:round; stroke-width:4; stroke-opacity:1; fill:none" points="
  1197.81,846.52 1197.41,854.081 1196.25,861.614 1194.39,869.122 1191.88,876.607 1188.78,884.071 1185.14,891.516 1181.02,898.943 1176.49,906.356 1171.58,913.755 
  1166.37,921.143 1160.9,928.523 1155.24,935.895 1149.43,943.262 1143.54,950.626 1137.62,957.989 1131.73,965.353 1125.93,972.72 1120.27,980.092 1114.8,987.472 
  1109.58,994.86 1104.68,1002.26 1100.14,1009.67 1096.03,1017.1 1092.39,1024.54 1089.29,1032.01 1086.78,1039.49 1084.91,1047 1083.75,1054.53 1083.36,1062.09 
  
  "/>
<polyline clip-path="url(#clip892)" style="stroke:#000000; stroke-linecap:butt; stroke-linejoin:round; stroke-width:4; stroke-opacity:1; fill:none" points="
  1197.81,846.52 1197.75,854.689 1197.58,863.027 1197.3,871.522 1196.93,880.161 1196.47,888.931 1195.93,897.821 1195.32,906.817 1194.64,915.907 1193.91,925.079 
  1193.14,934.319 1192.32,943.616 1191.48,952.957 1190.62,962.329 1189.74,971.72 1188.86,981.118 1187.99,990.509 1187.12,999.881 1186.28,1009.22 1185.47,1018.52 
  1184.69,1027.76 1183.96,1036.93 1183.29,1046.02 1182.68,1055.02 1182.14,1063.91 1181.68,1072.68 1181.3,1081.32 1181.03,1089.81 1180.85,1098.15 1180.79,1106.32 
  
  "/>
<polyline clip-path="url(#clip892)" style="stroke:#000000; stroke-linecap:butt; stroke-linejoin:round; stroke-width:4; stroke-opacity:1; fill:none" points="
  1197.81,846.52 1198.81,856.419 1201.72,865.66 1206.39,874.291 1212.68,882.363 1220.45,889.923 1229.57,897.02 1239.88,903.703 1251.26,910.02 1263.55,916.021 
  1276.62,921.754 1290.32,927.267 1304.52,932.61 1319.07,937.832 1333.83,942.98 1348.66,948.104 1363.42,953.252 1377.97,958.473 1392.17,963.816 1405.87,969.33 
  1418.94,975.063 1431.23,981.063 1442.61,987.381 1452.92,994.064 1462.04,1001.16 1469.81,1008.72 1476.11,1016.79 1480.78,1025.42 1483.68,1034.66 1484.68,1044.56 
  
  "/>
<polyline clip-path="url(#clip892)" style="stroke:#000000; stroke-linecap:butt; stroke-linejoin:round; stroke-width:4; stroke-opacity:1; fill:none" points="
  1484.68,1044.56 1484.29,1052.34 1483.14,1060.1 1481.3,1067.85 1478.81,1075.59 1475.74,1083.32 1472.15,1091.04 1468.08,1098.76 1463.59,1106.46 1458.74,1114.16 
  1453.58,1121.86 1448.17,1129.55 1442.57,1137.23 1436.83,1144.92 1431,1152.6 1425.15,1160.28 1419.32,1167.97 1413.58,1175.65 1407.98,1183.34 1402.57,1191.03 
  1397.41,1198.72 1392.56,1206.42 1388.07,1214.13 1384,1221.84 1380.4,1229.56 1377.33,1237.29 1374.85,1245.03 1373.01,1252.78 1371.86,1260.54 1371.47,1268.32 
  
  "/>
<polyline clip-path="url(#clip892)" style="stroke:#000000; stroke-linecap:butt; stroke-linejoin:round; stroke-width:4; stroke-opacity:1; fill:none" points="
  1484.68,1044.56 1485.29,1052.65 1487.05,1060.48 1489.88,1068.07 1493.7,1075.44 1498.42,1082.61 1503.96,1089.6 1510.22,1096.43 1517.12,1103.11 1524.58,1109.67 
  1532.51,1116.13 1540.83,1122.5 1549.44,1128.8 1558.28,1135.06 1567.23,1141.28 1576.24,1147.5 1585.2,1153.73 1594.03,1159.98 1602.64,1166.28 1610.96,1172.65 
  1618.89,1179.11 1626.35,1185.67 1633.25,1192.35 1639.52,1199.18 1645.05,1206.17 1649.77,1213.34 1653.59,1220.71 1656.42,1228.3 1658.18,1236.13 1658.79,1244.22 
  
  "/>
<polyline clip-path="url(#clip892)" style="stroke:#000000; stroke-linecap:butt; stroke-linejoin:round; stroke-width:4; stroke-opacity:1; fill:none" points="
  1484.68,1044.56 1484.83,1053.11 1485.26,1061.82 1485.96,1070.67 1486.89,1079.66 1488.05,1088.77 1489.41,1097.99 1490.95,1107.31 1492.64,1116.72 1494.47,1126.21 
  1496.42,1135.76 1498.46,1145.37 1500.57,1155.02 1502.74,1164.69 1504.94,1174.38 1507.15,1184.08 1509.34,1193.78 1511.51,1203.45 1513.63,1213.1 1515.67,1222.7 
  1517.61,1232.26 1519.44,1241.74 1521.14,1251.16 1522.67,1260.48 1524.03,1269.7 1525.19,1278.81 1526.13,1287.8 1526.82,1296.65 1527.25,1305.36 1527.4,1313.91 
  
  "/>
<polyline clip-path="url(#clip892)" style="stroke:#000000; stroke-linecap:butt; stroke-linejoin:round; stroke-width:4; stroke-opacity:1; fill:none" points="
  1484.68,1044.56 1485.15,1054.33 1486.53,1064.1 1488.75,1073.87 1491.74,1083.64 1495.43,1093.42 1499.75,1103.19 1504.65,1112.97 1510.05,1122.76 1515.88,1132.54 
  1522.08,1142.32 1528.59,1152.11 1535.33,1161.9 1542.23,1171.68 1549.24,1181.47 1556.28,1191.26 1563.28,1201.05 1570.19,1210.83 1576.93,1220.62 1583.43,1230.41 
  1589.63,1240.19 1595.47,1249.97 1600.87,1259.76 1605.76,1269.54 1610.09,1279.31 1613.78,1289.09 1616.77,1298.86 1618.98,1308.63 1620.36,1318.4 1620.83,1328.17 
  
  "/>
<polyline clip-path="url(#clip892)" style="stroke:#000000; stroke-linecap:butt; stroke-linejoin:round; stroke-width:4; stroke-opacity:1; fill:none" points="
  1484.68,1044.56 1484.5,1053.28 1483.97,1062.16 1483.11,1071.17 1481.96,1080.31 1480.53,1089.57 1478.87,1098.94 1476.98,1108.4 1474.89,1117.95 1472.64,1127.57 
  1470.25,1137.25 1467.74,1146.98 1465.14,1156.75 1462.48,1166.55 1459.78,1176.37 1457.06,1186.19 1454.36,1196.01 1451.69,1205.81 1449.09,1215.58 1446.59,1225.31 
  1444.19,1234.99 1441.94,1244.61 1439.86,1254.16 1437.97,1263.62 1436.3,1272.99 1434.88,1282.25 1433.73,1291.39 1432.87,1300.4 1432.34,1309.28 1432.16,1318 
  
  "/>
<polyline clip-path="url(#clip892)" style="stroke:#000000; stroke-linecap:butt; stroke-linejoin:round; stroke-width:4; stroke-opacity:1; fill:none" points="
  1484.68,1044.56 1485.56,1054.62 1488.12,1064.13 1492.24,1073.12 1497.79,1081.65 1504.65,1089.75 1512.69,1097.46 1521.79,1104.82 1531.82,1111.88 1542.66,1118.67 
  1554.18,1125.24 1566.27,1131.62 1578.79,1137.87 1591.62,1144.01 1604.64,1150.08 1617.72,1156.14 1630.74,1162.22 1643.57,1168.36 1656.09,1174.6 1668.18,1180.98 
  1679.7,1187.55 1690.55,1194.34 1700.58,1201.4 1709.67,1208.77 1717.71,1216.48 1724.57,1224.57 1730.12,1233.1 1734.24,1242.1 1736.8,1251.6 1737.68,1261.66 
  
  "/>
<polyline clip-path="url(#clip892)" style="stroke:#000000; stroke-linecap:butt; stroke-linejoin:round; stroke-width:4; stroke-opacity:1; fill:none" points="
  1197.81,846.52 1196.84,858.063 1194.01,869.05 1189.46,879.522 1183.33,889.52 1175.75,899.085 1166.87,908.259 1156.82,917.083 1145.74,925.598 1133.77,933.845 
  1121.04,941.865 1107.69,949.7 1093.86,957.391 1079.69,964.979 1065.31,972.505 1050.86,980.01 1036.48,987.536 1022.3,995.124 1008.47,1002.81 995.124,1010.65 
  982.393,1018.67 970.419,1026.92 959.339,1035.43 949.29,1044.26 940.41,1053.43 932.836,1063 926.705,1072.99 922.156,1083.47 919.326,1094.45 918.352,1105.99 
  
  "/>
<polyline clip-path="url(#clip892)" style="stroke:#000000; stroke-linecap:butt; stroke-linejoin:round; stroke-width:4; stroke-opacity:1; fill:none" points="
  918.352,1105.99 917.665,1113.68 915.667,1120.91 912.455,1127.73 908.127,1134.16 902.78,1140.24 896.511,1146.01 889.416,1151.49 881.594,1156.72 873.14,1161.73 
  864.153,1166.56 854.728,1171.25 844.964,1175.81 834.958,1180.29 824.805,1184.72 814.604,1189.13 804.452,1193.56 794.445,1198.05 784.681,1202.61 775.257,1207.29 
  766.27,1212.12 757.816,1217.13 749.994,1222.37 742.899,1227.85 736.63,1233.61 731.283,1239.69 726.955,1246.13 723.743,1252.94 721.745,1260.18 721.057,1267.86 
  
  "/>
<polyline clip-path="url(#clip892)" style="stroke:#000000; stroke-linecap:butt; stroke-linejoin:round; stroke-width:4; stroke-opacity:1; fill:none" points="
  918.352,1105.99 918.648,1113.69 919.507,1121.44 920.887,1129.25 922.747,1137.12 925.045,1145.04 927.74,1153 930.789,1161.01 934.151,1169.05 937.784,1177.12 
  941.647,1185.21 945.697,1193.33 949.894,1201.46 954.194,1209.61 958.558,1217.76 962.942,1225.92 967.305,1234.07 971.606,1242.22 975.803,1250.35 979.853,1258.47 
  983.716,1266.56 987.349,1274.63 990.711,1282.67 993.76,1290.67 996.455,1298.64 998.753,1306.56 1000.61,1314.42 1001.99,1322.24 1002.85,1329.99 1003.15,1337.68 
  
  "/>
<polyline clip-path="url(#clip892)" style="stroke:#000000; stroke-linecap:butt; stroke-linejoin:round; stroke-width:4; stroke-opacity:1; fill:none" points="
  918.352,1105.99 917.46,1115.21 914.867,1123.82 910.699,1131.86 905.083,1139.38 898.144,1146.42 890.008,1153.03 880.801,1159.25 870.65,1165.13 859.679,1170.72 
  848.016,1176.06 835.786,1181.2 823.115,1186.17 810.129,1191.03 796.954,1195.83 783.716,1200.6 770.541,1205.4 757.555,1210.26 744.884,1215.23 732.654,1220.37 
  720.99,1225.71 710.02,1231.3 699.868,1237.18 690.662,1243.4 682.526,1250.01 675.587,1257.05 669.97,1264.57 665.803,1272.61 663.21,1281.22 662.317,1290.43 
  
  "/>
<polyline clip-path="url(#clip892)" style="stroke:#000000; stroke-linecap:butt; stroke-linejoin:round; stroke-width:4; stroke-opacity:1; fill:none" points="
  918.352,1105.99 917.935,1112.06 916.721,1118 914.771,1123.8 912.142,1129.49 908.895,1135.07 905.088,1140.56 900.779,1145.96 896.028,1151.28 890.894,1156.54 
  885.436,1161.74 879.712,1166.9 873.783,1172.02 867.705,1177.12 861.54,1182.2 855.345,1187.27 849.179,1192.35 843.102,1197.45 837.172,1202.57 831.448,1207.72 
  825.99,1212.93 820.856,1218.18 816.105,1223.51 811.797,1228.91 807.989,1234.39 804.742,1239.98 802.113,1245.66 800.163,1251.47 798.95,1257.4 798.532,1263.47 
  
  "/>
<polyline clip-path="url(#clip892)" style="stroke:#000000; stroke-linecap:butt; stroke-linejoin:round; stroke-width:4; stroke-opacity:1; fill:none" points="
  918.352,1105.99 918.284,1112.1 918.084,1118.33 917.763,1124.68 917.33,1131.13 916.796,1137.67 916.169,1144.3 915.46,1151.01 914.678,1157.78 913.833,1164.62 
  912.935,1171.5 911.993,1178.43 911.017,1185.39 910.017,1192.37 909.002,1199.36 907.982,1206.36 906.968,1213.35 905.967,1220.33 904.991,1227.29 904.049,1234.22 
  903.151,1241.1 902.306,1247.94 901.524,1254.71 900.815,1261.42 900.188,1268.05 899.654,1274.6 899.221,1281.04 898.9,1287.39 898.701,1293.62 898.632,1299.73 
  
  "/>
<path clip-path="url(#clip892)" d="
M1275.56 262.317 L1266.24 246.169 L1247.59 246.169 L1238.27 262.317 L1247.59 278.465 L1266.24 278.465 L1275.56 262.317 L1275.56 262.317  Z
  " fill="#009af9" fill-rule="evenodd" fill-opacity="1"/>
<polyline clip-path="url(#clip892)" style="stroke:#000000; stroke-linecap:butt; stroke-linejoin:round; stroke-width:4; stroke-opacity:1; fill:none" points="
  1275.56,262.317 1266.24,246.169 1247.59,246.169 1238.27,262.317 1247.59,278.465 1266.24,278.465 1275.56,262.317 
  "/>
<path clip-path="url(#clip892)" d="
M1316.32 555.232 L1300.09 527.117 L1267.63 527.117 L1251.39 555.232 L1267.63 583.347 L1300.09 583.347 L1316.32 555.232 L1316.32 555.232  Z
  " fill="#009af9" fill-rule="evenodd" fill-opacity="1"/>
<polyline clip-path="url(#clip892)" style="stroke:#000000; stroke-linecap:butt; stroke-linejoin:round; stroke-width:4; stroke-opacity:1; fill:none" points="
  1316.32,555.232 1300.09,527.117 1267.63,527.117 1251.39,555.232 1267.63,583.347 1300.09,583.347 1316.32,555.232 
  "/>
<path clip-path="url(#clip892)" d="
M1190.34 684.833 L1178.6 664.506 L1155.13 664.506 L1143.4 684.833 L1155.13 705.159 L1178.6 705.159 L1190.34 684.833 L1190.34 684.833  Z
  " fill="#009af9" fill-rule="evenodd" fill-opacity="1"/>
<polyline clip-path="url(#clip892)" style="stroke:#000000; stroke-linecap:butt; stroke-linejoin:round; stroke-width:4; stroke-opacity:1; fill:none" points="
  1190.34,684.833 1178.6,664.506 1155.13,664.506 1143.4,684.833 1155.13,705.159 1178.6,705.159 1190.34,684.833 
  "/>
<path clip-path="url(#clip892)" d="
M1234.54 846.52 L1216.17 814.715 L1179.45 814.715 L1161.09 846.52 L1179.45 878.326 L1216.17 878.326 L1234.54 846.52 L1234.54 846.52  Z
  " fill="#009af9" fill-rule="evenodd" fill-opacity="1"/>
<polyline clip-path="url(#clip892)" style="stroke:#000000; stroke-linecap:butt; stroke-linejoin:round; stroke-width:4; stroke-opacity:1; fill:none" points="
  1234.54,846.52 1216.17,814.715 1179.45,814.715 1161.09,846.52 1179.45,878.326 1216.17,878.326 1234.54,846.52 
  "/>
<path clip-path="url(#clip892)" d="
M1278.62 1151.17 L1266.89 1130.85 L1243.42 1130.85 L1231.68 1151.17 L1243.42 1171.5 L1266.89 1171.5 L1278.62 1151.17 L1278.62 1151.17  Z
  " fill="#009af9" fill-rule="evenodd" fill-opacity="1"/>
<polyline clip-path="url(#clip892)" style="stroke:#000000; stroke-linecap:butt; stroke-linejoin:round; stroke-width:4; stroke-opacity:1; fill:none" points="
  1278.62,1151.17 1266.89,1130.85 1243.42,1130.85 1231.68,1151.17 1243.42,1171.5 1266.89,1171.5 1278.62,1151.17 
  "/>
<path clip-path="url(#clip892)" d="
M1143.62 1062.09 L1113.49 1009.91 L1053.22 1009.91 L1023.09 1062.09 L1053.22 1114.28 L1113.49 1114.28 L1143.62 1062.09 L1143.62 1062.09  Z
  " fill="#009af9" fill-rule="evenodd" fill-opacity="1"/>
<polyline clip-path="url(#clip892)" style="stroke:#000000; stroke-linecap:butt; stroke-linejoin:round; stroke-width:4; stroke-opacity:1; fill:none" points="
  1143.62,1062.09 1113.49,1009.91 1053.22,1009.91 1023.09,1062.09 1053.22,1114.28 1113.49,1114.28 1143.62,1062.09 
  "/>
<path clip-path="url(#clip892)" d="
M1241.06 1106.32 L1210.92 1054.13 L1150.66 1054.13 L1120.53 1106.32 L1150.66 1158.51 L1210.92 1158.51 L1241.06 1106.32 L1241.06 1106.32  Z
  " fill="#009af9" fill-rule="evenodd" fill-opacity="1"/>
<polyline clip-path="url(#clip892)" style="stroke:#000000; stroke-linecap:butt; stroke-linejoin:round; stroke-width:4; stroke-opacity:1; fill:none" points="
  1241.06,1106.32 1210.92,1054.13 1150.66,1054.13 1120.53,1106.32 1150.66,1158.51 1210.92,1158.51 1241.06,1106.32 
  "/>
<path clip-path="url(#clip892)" d="
M1517.14 1044.56 L1500.91 1016.45 L1468.45 1016.45 L1452.22 1044.56 L1468.45 1072.68 L1500.91 1072.68 L1517.14 1044.56 L1517.14 1044.56  Z
  " fill="#009af9" fill-rule="evenodd" fill-opacity="1"/>
<polyline clip-path="url(#clip892)" style="stroke:#000000; stroke-linecap:butt; stroke-linejoin:round; stroke-width:4; stroke-opacity:1; fill:none" points="
  1517.14,1044.56 1500.91,1016.45 1468.45,1016.45 1452.22,1044.56 1468.45,1072.68 1500.91,1072.68 1517.14,1044.56 
  "/>
<path clip-path="url(#clip892)" d="
M1403.93 1268.32 L1387.7 1240.21 L1355.23 1240.21 L1339 1268.32 L1355.23 1296.44 L1387.7 1296.44 L1403.93 1268.32 L1403.93 1268.32  Z
  " fill="#009af9" fill-rule="evenodd" fill-opacity="1"/>
<polyline clip-path="url(#clip892)" style="stroke:#000000; stroke-linecap:butt; stroke-linejoin:round; stroke-width:4; stroke-opacity:1; fill:none" points="
  1403.93,1268.32 1387.7,1240.21 1355.23,1240.21 1339,1268.32 1355.23,1296.44 1387.7,1296.44 1403.93,1268.32 
  "/>
<path clip-path="url(#clip892)" d="
M1691.26 1244.22 L1675.02 1216.1 L1642.56 1216.1 L1626.33 1244.22 L1642.56 1272.33 L1675.02 1272.33 L1691.26 1244.22 L1691.26 1244.22  Z
  " fill="#009af9" fill-rule="evenodd" fill-opacity="1"/>
<polyline clip-path="url(#clip892)" style="stroke:#000000; stroke-linecap:butt; stroke-linejoin:round; stroke-width:4; stroke-opacity:1; fill:none" points="
  1691.26,1244.22 1675.02,1216.1 1642.56,1216.1 1626.33,1244.22 1642.56,1272.33 1675.02,1272.33 1691.26,1244.22 
  "/>
<path clip-path="url(#clip892)" d="
M1555.46 1313.91 L1541.43 1289.61 L1513.37 1289.61 L1499.34 1313.91 L1513.37 1338.2 L1541.43 1338.2 L1555.46 1313.91 L1555.46 1313.91  Z
  " fill="#009af9" fill-rule="evenodd" fill-opacity="1"/>
<polyline clip-path="url(#clip892)" style="stroke:#000000; stroke-linecap:butt; stroke-linejoin:round; stroke-width:4; stroke-opacity:1; fill:none" points="
  1555.46,1313.91 1541.43,1289.61 1513.37,1289.61 1499.34,1313.91 1513.37,1338.2 1541.43,1338.2 1555.46,1313.91 
  "/>
<path clip-path="url(#clip892)" d="
M1648.89 1328.17 L1634.86 1303.87 L1606.81 1303.87 L1592.78 1328.17 L1606.81 1352.47 L1634.86 1352.47 L1648.89 1328.17 L1648.89 1328.17  Z
  " fill="#009af9" fill-rule="evenodd" fill-opacity="1"/>
<polyline clip-path="url(#clip892)" style="stroke:#000000; stroke-linecap:butt; stroke-linejoin:round; stroke-width:4; stroke-opacity:1; fill:none" points="
  1648.89,1328.17 1634.86,1303.87 1606.81,1303.87 1592.78,1328.17 1606.81,1352.47 1634.86,1352.47 1648.89,1328.17 
  "/>
<path clip-path="url(#clip892)" d="
M1460.22 1318 L1446.19 1293.7 L1418.13 1293.7 L1404.1 1318 L1418.13 1342.3 L1446.19 1342.3 L1460.22 1318 L1460.22 1318  Z
  " fill="#009af9" fill-rule="evenodd" fill-opacity="1"/>
<polyline clip-path="url(#clip892)" style="stroke:#000000; stroke-linecap:butt; stroke-linejoin:round; stroke-width:4; stroke-opacity:1; fill:none" points="
  1460.22,1318 1446.19,1293.7 1418.13,1293.7 1404.1,1318 1418.13,1342.3 1446.19,1342.3 1460.22,1318 
  "/>
<path clip-path="url(#clip892)" d="
M1761.15 1261.66 L1749.42 1241.33 L1725.95 1241.33 L1714.21 1261.66 L1725.95 1281.99 L1749.42 1281.99 L1761.15 1261.66 L1761.15 1261.66  Z
  " fill="#009af9" fill-rule="evenodd" fill-opacity="1"/>
<polyline clip-path="url(#clip892)" style="stroke:#000000; stroke-linecap:butt; stroke-linejoin:round; stroke-width:4; stroke-opacity:1; fill:none" points="
  1761.15,1261.66 1749.42,1241.33 1725.95,1241.33 1714.21,1261.66 1725.95,1281.99 1749.42,1281.99 1761.15,1261.66 
  "/>
<path clip-path="url(#clip892)" d="
M959.218 1105.99 L938.785 1070.6 L897.919 1070.6 L877.486 1105.99 L897.919 1141.39 L938.785 1141.39 L959.218 1105.99 L959.218 1105.99  Z
  " fill="#009af9" fill-rule="evenodd" fill-opacity="1"/>
<polyline clip-path="url(#clip892)" style="stroke:#000000; stroke-linecap:butt; stroke-linejoin:round; stroke-width:4; stroke-opacity:1; fill:none" points="
  959.218,1105.99 938.785,1070.6 897.919,1070.6 877.486,1105.99 897.919,1141.39 938.785,1141.39 959.218,1105.99 
  "/>
<path clip-path="url(#clip892)" d="
M757.783 1267.86 L739.42 1236.05 L702.695 1236.05 L684.332 1267.86 L702.695 1299.66 L739.42 1299.66 L757.783 1267.86 L757.783 1267.86  Z
  " fill="#009af9" fill-rule="evenodd" fill-opacity="1"/>
<polyline clip-path="url(#clip892)" style="stroke:#000000; stroke-linecap:butt; stroke-linejoin:round; stroke-width:4; stroke-opacity:1; fill:none" points="
  757.783,1267.86 739.42,1236.05 702.695,1236.05 684.332,1267.86 702.695,1299.66 739.42,1299.66 757.783,1267.86 
  "/>
<path clip-path="url(#clip892)" d="
M1035.61 1337.68 L1019.38 1309.57 L986.915 1309.57 L970.683 1337.68 L986.915 1365.8 L1019.38 1365.8 L1035.61 1337.68 L1035.61 1337.68  Z
  " fill="#009af9" fill-rule="evenodd" fill-opacity="1"/>
<polyline clip-path="url(#clip892)" style="stroke:#000000; stroke-linecap:butt; stroke-linejoin:round; stroke-width:4; stroke-opacity:1; fill:none" points="
  1035.61,1337.68 1019.38,1309.57 986.915,1309.57 970.683,1337.68 986.915,1365.8 1019.38,1365.8 1035.61,1337.68 
  "/>
<path clip-path="url(#clip892)" d="
M694.782 1290.43 L678.549 1262.32 L646.085 1262.32 L629.853 1290.43 L646.085 1318.55 L678.549 1318.55 L694.782 1290.43 L694.782 1290.43  Z
  " fill="#009af9" fill-rule="evenodd" fill-opacity="1"/>
<polyline clip-path="url(#clip892)" style="stroke:#000000; stroke-linecap:butt; stroke-linejoin:round; stroke-width:4; stroke-opacity:1; fill:none" points="
  694.782,1290.43 678.549,1262.32 646.085,1262.32 629.853,1290.43 646.085,1318.55 678.549,1318.55 694.782,1290.43 
  "/>
<path clip-path="url(#clip892)" d="
M830.997 1263.47 L814.764 1235.36 L782.3 1235.36 L766.067 1263.47 L782.3 1291.59 L814.764 1291.59 L830.997 1263.47 L830.997 1263.47  Z
  " fill="#009af9" fill-rule="evenodd" fill-opacity="1"/>
<polyline clip-path="url(#clip892)" style="stroke:#000000; stroke-linecap:butt; stroke-linejoin:round; stroke-width:4; stroke-opacity:1; fill:none" points="
  830.997,1263.47 814.764,1235.36 782.3,1235.36 766.067,1263.47 782.3,1291.59 814.764,1291.59 830.997,1263.47 
  "/>
<path clip-path="url(#clip892)" d="
M926.69 1299.73 L912.661 1275.43 L884.603 1275.43 L870.573 1299.73 L884.603 1324.03 L912.661 1324.03 L926.69 1299.73 L926.69 1299.73  Z
  " fill="#009af9" fill-rule="evenodd" fill-opacity="1"/>
<polyline clip-path="url(#clip892)" style="stroke:#000000; stroke-linecap:butt; stroke-linejoin:round; stroke-width:4; stroke-opacity:1; fill:none" points="
  926.69,1299.73 912.661,1275.43 884.603,1275.43 870.573,1299.73 884.603,1324.03 912.661,1324.03 926.69,1299.73 
  "/>
<circle clip-path="url(#clip892)" style="fill:#009af9; stroke:none; fill-opacity:1" cx="1256.91" cy="262.317" r="2"/>
<circle clip-path="url(#clip892)" style="fill:#009af9; stroke:none; fill-opacity:1" cx="1283.86" cy="555.232" r="2"/>
<circle clip-path="url(#clip892)" style="fill:#009af9; stroke:none; fill-opacity:1" cx="1166.87" cy="684.833" r="2"/>
<circle clip-path="url(#clip892)" style="fill:#009af9; stroke:none; fill-opacity:1" cx="1197.81" cy="846.52" r="2"/>
<circle clip-path="url(#clip892)" style="fill:#009af9; stroke:none; fill-opacity:1" cx="1255.15" cy="1151.17" r="2"/>
<circle clip-path="url(#clip892)" style="fill:#009af9; stroke:none; fill-opacity:1" cx="1083.36" cy="1062.09" r="2"/>
<circle clip-path="url(#clip892)" style="fill:#009af9; stroke:none; fill-opacity:1" cx="1180.79" cy="1106.32" r="2"/>
<circle clip-path="url(#clip892)" style="fill:#009af9; stroke:none; fill-opacity:1" cx="1484.68" cy="1044.56" r="2"/>
<circle clip-path="url(#clip892)" style="fill:#009af9; stroke:none; fill-opacity:1" cx="1371.47" cy="1268.32" r="2"/>
<circle clip-path="url(#clip892)" style="fill:#009af9; stroke:none; fill-opacity:1" cx="1658.79" cy="1244.22" r="2"/>
<circle clip-path="url(#clip892)" style="fill:#009af9; stroke:none; fill-opacity:1" cx="1527.4" cy="1313.91" r="2"/>
<circle clip-path="url(#clip892)" style="fill:#009af9; stroke:none; fill-opacity:1" cx="1620.83" cy="1328.17" r="2"/>
<circle clip-path="url(#clip892)" style="fill:#009af9; stroke:none; fill-opacity:1" cx="1432.16" cy="1318" r="2"/>
<circle clip-path="url(#clip892)" style="fill:#009af9; stroke:none; fill-opacity:1" cx="1737.68" cy="1261.66" r="2"/>
<circle clip-path="url(#clip892)" style="fill:#009af9; stroke:none; fill-opacity:1" cx="918.352" cy="1105.99" r="2"/>
<circle clip-path="url(#clip892)" style="fill:#009af9; stroke:none; fill-opacity:1" cx="721.057" cy="1267.86" r="2"/>
<circle clip-path="url(#clip892)" style="fill:#009af9; stroke:none; fill-opacity:1" cx="1003.15" cy="1337.68" r="2"/>
<circle clip-path="url(#clip892)" style="fill:#009af9; stroke:none; fill-opacity:1" cx="662.317" cy="1290.43" r="2"/>
<circle clip-path="url(#clip892)" style="fill:#009af9; stroke:none; fill-opacity:1" cx="798.532" cy="1263.47" r="2"/>
<circle clip-path="url(#clip892)" style="fill:#009af9; stroke:none; fill-opacity:1" cx="898.632" cy="1299.73" r="2"/>
<path clip-path="url(#clip890)" d="M1242.64 255.98 L1239.47 264.58 L1245.82 264.58 L1242.64 255.98 M1241.32 253.677 L1243.97 253.677 L1250.56 270.957 L1248.13 270.957 L1246.55 266.524 L1238.76 266.524 L1237.19 270.957 L1234.73 270.957 L1241.32 253.677 Z" fill="#000000" fill-rule="evenodd" fill-opacity="1" /><path clip-path="url(#clip890)" d="M1263.76 263.133 L1263.76 270.957 L1261.63 270.957 L1261.63 263.203 Q1261.63 261.362 1260.92 260.448 Q1260.2 259.534 1258.76 259.534 Q1257.04 259.534 1256.04 260.633 Q1255.05 261.733 1255.05 263.631 L1255.05 270.957 L1252.91 270.957 L1252.91 257.994 L1255.05 257.994 L1255.05 260.008 Q1255.81 258.839 1256.84 258.261 Q1257.88 257.682 1259.24 257.682 Q1261.47 257.682 1262.62 259.071 Q1263.76 260.448 1263.76 263.133 Z" fill="#000000" fill-rule="evenodd" fill-opacity="1" /><path clip-path="url(#clip890)" d="M1273.41 272.161 Q1272.5 274.476 1271.65 275.182 Q1270.79 275.888 1269.35 275.888 L1267.65 275.888 L1267.65 274.105 L1268.9 274.105 Q1269.78 274.105 1270.27 273.689 Q1270.76 273.272 1271.35 271.721 L1271.73 270.749 L1266.48 257.994 L1268.74 257.994 L1272.79 268.133 L1276.84 257.994 L1279.1 257.994 L1273.41 272.161 Z" fill="#000000" fill-rule="evenodd" fill-opacity="1" /><path clip-path="url(#clip890)" d="M1237.41 546.592 L1240.56 546.592 L1248.22 561.048 L1248.22 546.592 L1250.49 546.592 L1250.49 563.872 L1247.34 563.872 L1239.68 549.416 L1239.68 563.872 L1237.41 563.872 L1237.41 546.592 Z" fill="#000000" fill-rule="evenodd" fill-opacity="1" /><path clip-path="url(#clip890)" d="M1254.83 558.756 L1254.83 550.909 L1256.96 550.909 L1256.96 558.675 Q1256.96 560.515 1257.68 561.441 Q1258.39 562.356 1259.83 562.356 Q1261.55 562.356 1262.55 561.256 Q1263.56 560.157 1263.56 558.258 L1263.56 550.909 L1265.69 550.909 L1265.69 563.872 L1263.56 563.872 L1263.56 561.881 Q1262.78 563.062 1261.75 563.64 Q1260.73 564.208 1259.38 564.208 Q1257.14 564.208 1255.99 562.819 Q1254.83 561.43 1254.83 558.756 M1260.19 550.596 L1260.19 550.596 Z" fill="#000000" fill-rule="evenodd" fill-opacity="1" /><path clip-path="url(#clip890)" d="M1280.17 553.397 Q1280.96 551.962 1282.07 551.279 Q1283.19 550.596 1284.69 550.596 Q1286.72 550.596 1287.82 552.02 Q1288.92 553.432 1288.92 556.048 L1288.92 563.872 L1286.77 563.872 L1286.77 556.117 Q1286.77 554.254 1286.11 553.351 Q1285.45 552.448 1284.1 552.448 Q1282.45 552.448 1281.48 553.548 Q1280.52 554.647 1280.52 556.546 L1280.52 563.872 L1278.38 563.872 L1278.38 556.117 Q1278.38 554.242 1277.72 553.351 Q1277.06 552.448 1275.69 552.448 Q1274.05 552.448 1273.09 553.559 Q1272.13 554.659 1272.13 556.546 L1272.13 563.872 L1269.99 563.872 L1269.99 550.909 L1272.13 550.909 L1272.13 552.923 Q1272.86 551.731 1273.88 551.164 Q1274.9 550.596 1276.3 550.596 Q1277.71 550.596 1278.7 551.314 Q1279.69 552.032 1280.17 553.397 Z" fill="#000000" fill-rule="evenodd" fill-opacity="1" /><path clip-path="url(#clip890)" d="M1302.47 557.402 Q1302.47 555.052 1301.5 553.721 Q1300.54 552.379 1298.85 552.379 Q1297.16 552.379 1296.18 553.721 Q1295.22 555.052 1295.22 557.402 Q1295.22 559.752 1296.18 561.094 Q1297.16 562.425 1298.85 562.425 Q1300.54 562.425 1301.5 561.094 Q1302.47 559.752 1302.47 557.402 M1295.22 552.877 Q1295.89 551.719 1296.91 551.164 Q1297.94 550.596 1299.37 550.596 Q1301.73 550.596 1303.2 552.471 Q1304.68 554.346 1304.68 557.402 Q1304.68 560.458 1303.2 562.333 Q1301.73 564.208 1299.37 564.208 Q1297.94 564.208 1296.91 563.652 Q1295.89 563.085 1295.22 561.927 L1295.22 563.872 L1293.08 563.872 L1293.08 545.863 L1295.22 545.863 L1295.22 552.877 Z" fill="#000000" fill-rule="evenodd" fill-opacity="1" /><path clip-path="url(#clip890)" d="M1319.3 556.858 L1319.3 557.9 L1309.51 557.9 Q1309.64 560.099 1310.82 561.256 Q1312.02 562.402 1314.13 562.402 Q1315.36 562.402 1316.51 562.101 Q1317.67 561.8 1318.8 561.198 L1318.8 563.212 Q1317.65 563.698 1316.45 563.953 Q1315.25 564.208 1314.01 564.208 Q1310.91 564.208 1309.09 562.402 Q1307.28 560.596 1307.28 557.518 Q1307.28 554.335 1309 552.471 Q1310.72 550.596 1313.64 550.596 Q1316.25 550.596 1317.77 552.286 Q1319.3 553.965 1319.3 556.858 M1317.17 556.233 Q1317.14 554.485 1316.18 553.444 Q1315.23 552.402 1313.66 552.402 Q1311.88 552.402 1310.8 553.409 Q1309.74 554.416 1309.57 556.245 L1317.17 556.233 Z" fill="#000000" fill-rule="evenodd" fill-opacity="1" /><path clip-path="url(#clip890)" d="M1330.3 552.9 Q1329.95 552.691 1329.52 552.599 Q1329.1 552.495 1328.59 552.495 Q1326.79 552.495 1325.81 553.675 Q1324.85 554.844 1324.85 557.043 L1324.85 563.872 L1322.71 563.872 L1322.71 550.909 L1324.85 550.909 L1324.85 552.923 Q1325.52 551.742 1326.6 551.175 Q1327.68 550.596 1329.22 550.596 Q1329.44 550.596 1329.7 550.631 Q1329.97 550.654 1330.29 550.712 L1330.3 552.9 Z" fill="#000000" fill-rule="evenodd" fill-opacity="1" /><path clip-path="url(#clip890)" d="M1151.79 685.371 Q1152.54 685.625 1153.25 686.459 Q1153.96 687.292 1154.68 688.75 L1157.05 693.473 L1154.54 693.473 L1152.33 689.04 Q1151.48 687.304 1150.67 686.736 Q1149.87 686.169 1148.48 686.169 L1145.93 686.169 L1145.93 693.473 L1143.59 693.473 L1143.59 676.193 L1148.87 676.193 Q1151.83 676.193 1153.29 677.431 Q1154.75 678.669 1154.75 681.169 Q1154.75 682.801 1153.99 683.878 Q1153.24 684.954 1151.79 685.371 M1145.93 678.114 L1145.93 684.248 L1148.87 684.248 Q1150.56 684.248 1151.42 683.473 Q1152.29 682.686 1152.29 681.169 Q1152.29 679.653 1151.42 678.889 Q1150.56 678.114 1148.87 678.114 L1145.93 678.114 Z" fill="#000000" fill-rule="evenodd" fill-opacity="1" /><path clip-path="url(#clip890)" d="M1169.99 686.459 L1169.99 687.5 L1160.2 687.5 Q1160.34 689.699 1161.52 690.857 Q1162.71 692.003 1164.83 692.003 Q1166.06 692.003 1167.2 691.702 Q1168.36 691.401 1169.5 690.799 L1169.5 692.813 Q1168.35 693.299 1167.15 693.554 Q1165.94 693.808 1164.7 693.808 Q1161.6 693.808 1159.79 692.003 Q1157.98 690.197 1157.98 687.118 Q1157.98 683.936 1159.69 682.072 Q1161.42 680.197 1164.33 680.197 Q1166.95 680.197 1168.47 681.887 Q1169.99 683.565 1169.99 686.459 M1167.86 685.834 Q1167.84 684.086 1166.88 683.044 Q1165.93 682.003 1164.36 682.003 Q1162.58 682.003 1161.5 683.01 Q1160.43 684.017 1160.27 685.845 L1167.86 685.834 Z" fill="#000000" fill-rule="evenodd" fill-opacity="1" /><path clip-path="url(#clip890)" d="M1179.38 686.956 Q1176.8 686.956 1175.8 687.547 Q1174.81 688.137 1174.81 689.561 Q1174.81 690.695 1175.55 691.366 Q1176.3 692.026 1177.59 692.026 Q1179.36 692.026 1180.42 690.776 Q1181.5 689.514 1181.5 687.431 L1181.5 686.956 L1179.38 686.956 M1183.63 686.077 L1183.63 693.473 L1181.5 693.473 L1181.5 691.505 Q1180.77 692.686 1179.68 693.253 Q1178.59 693.808 1177.02 693.808 Q1175.03 693.808 1173.85 692.697 Q1172.68 691.574 1172.68 689.699 Q1172.68 687.512 1174.14 686.401 Q1175.61 685.29 1178.51 685.29 L1181.5 685.29 L1181.5 685.081 Q1181.5 683.611 1180.53 682.813 Q1179.57 682.003 1177.82 682.003 Q1176.71 682.003 1175.65 682.269 Q1174.6 682.535 1173.63 683.067 L1173.63 681.1 Q1174.8 680.649 1175.9 680.429 Q1177 680.197 1178.04 680.197 Q1180.85 680.197 1182.24 681.655 Q1183.63 683.114 1183.63 686.077 Z" fill="#000000" fill-rule="evenodd" fill-opacity="1" /><path clip-path="url(#clip890)" d="M1188.01 675.463 L1190.14 675.463 L1190.14 693.473 L1188.01 693.473 L1188.01 675.463 Z" fill="#000000" fill-rule="evenodd" fill-opacity="1" /><path clip-path="url(#clip890)" d="M1156.34 837.88 L1158.68 837.88 L1158.68 855.16 L1156.34 855.16 L1156.34 837.88 Z" fill="#000000" fill-rule="evenodd" fill-opacity="1" /><path clip-path="url(#clip890)" d="M1174.01 847.336 L1174.01 855.16 L1171.89 855.16 L1171.89 847.406 Q1171.89 845.566 1171.17 844.651 Q1170.45 843.737 1169.01 843.737 Q1167.29 843.737 1166.3 844.836 Q1165.3 845.936 1165.3 847.834 L1165.3 855.16 L1163.16 855.16 L1163.16 842.198 L1165.3 842.198 L1165.3 844.211 Q1166.06 843.042 1167.09 842.464 Q1168.14 841.885 1169.49 841.885 Q1171.72 841.885 1172.87 843.274 Q1174.01 844.651 1174.01 847.336 Z" fill="#000000" fill-rule="evenodd" fill-opacity="1" /><path clip-path="url(#clip890)" d="M1180.37 838.517 L1180.37 842.198 L1184.76 842.198 L1184.76 843.853 L1180.37 843.853 L1180.37 850.89 Q1180.37 852.475 1180.8 852.927 Q1181.24 853.378 1182.57 853.378 L1184.76 853.378 L1184.76 855.16 L1182.57 855.16 Q1180.1 855.16 1179.17 854.246 Q1178.23 853.32 1178.23 850.89 L1178.23 843.853 L1176.67 843.853 L1176.67 842.198 L1178.23 842.198 L1178.23 838.517 L1180.37 838.517 Z" fill="#000000" fill-rule="evenodd" fill-opacity="1" /><path clip-path="url(#clip890)" d="M1198.64 848.147 L1198.64 849.188 L1188.85 849.188 Q1188.99 851.387 1190.17 852.545 Q1191.36 853.691 1193.48 853.691 Q1194.71 853.691 1195.86 853.39 Q1197.01 853.089 1198.15 852.487 L1198.15 854.501 Q1197 854.987 1195.8 855.241 Q1194.59 855.496 1193.36 855.496 Q1190.25 855.496 1188.44 853.691 Q1186.63 851.885 1186.63 848.806 Q1186.63 845.623 1188.34 843.76 Q1190.07 841.885 1192.98 841.885 Q1195.6 841.885 1197.12 843.575 Q1198.64 845.253 1198.64 848.147 M1196.51 847.522 Q1196.49 845.774 1195.53 844.732 Q1194.58 843.691 1193.01 843.691 Q1191.23 843.691 1190.15 844.698 Q1189.08 845.704 1188.92 847.533 L1196.51 847.522 Z" fill="#000000" fill-rule="evenodd" fill-opacity="1" /><path clip-path="url(#clip890)" d="M1210.67 848.529 Q1210.67 846.214 1209.71 844.941 Q1208.76 843.667 1207.04 843.667 Q1205.32 843.667 1204.36 844.941 Q1203.41 846.214 1203.41 848.529 Q1203.41 850.832 1204.36 852.105 Q1205.32 853.378 1207.04 853.378 Q1208.76 853.378 1209.71 852.105 Q1210.67 850.832 1210.67 848.529 M1212.8 853.552 Q1212.8 856.862 1211.33 858.471 Q1209.86 860.091 1206.83 860.091 Q1205.7 860.091 1204.71 859.917 Q1203.71 859.755 1202.78 859.408 L1202.78 857.336 Q1203.71 857.846 1204.63 858.089 Q1205.54 858.332 1206.49 858.332 Q1208.59 858.332 1209.63 857.232 Q1210.67 856.144 1210.67 853.934 L1210.67 852.88 Q1210.01 854.026 1208.98 854.593 Q1207.95 855.16 1206.51 855.16 Q1204.13 855.16 1202.67 853.343 Q1201.21 851.526 1201.21 848.529 Q1201.21 845.519 1202.67 843.702 Q1204.13 841.885 1206.51 841.885 Q1207.95 841.885 1208.98 842.452 Q1210.01 843.019 1210.67 844.165 L1210.67 842.198 L1212.8 842.198 L1212.8 853.552 Z" fill="#000000" fill-rule="evenodd" fill-opacity="1" /><path clip-path="url(#clip890)" d="M1228.27 848.147 L1228.27 849.188 L1218.48 849.188 Q1218.62 851.387 1219.8 852.545 Q1220.99 853.691 1223.11 853.691 Q1224.34 853.691 1225.48 853.39 Q1226.64 853.089 1227.78 852.487 L1227.78 854.501 Q1226.63 854.987 1225.43 855.241 Q1224.22 855.496 1222.98 855.496 Q1219.88 855.496 1218.07 853.691 Q1216.26 851.885 1216.26 848.806 Q1216.26 845.623 1217.97 843.76 Q1219.7 841.885 1222.61 841.885 Q1225.23 841.885 1226.75 843.575 Q1228.27 845.253 1228.27 848.147 M1226.14 847.522 Q1226.12 845.774 1225.16 844.732 Q1224.21 843.691 1222.64 843.691 Q1220.85 843.691 1219.78 844.698 Q1218.71 845.704 1218.55 847.533 L1226.14 847.522 Z" fill="#000000" fill-rule="evenodd" fill-opacity="1" /><path clip-path="url(#clip890)" d="M1239.28 844.188 Q1238.92 843.98 1238.49 843.887 Q1238.08 843.783 1237.57 843.783 Q1235.76 843.783 1234.79 844.964 Q1233.83 846.133 1233.83 848.332 L1233.83 855.16 L1231.69 855.16 L1231.69 842.198 L1233.83 842.198 L1233.83 844.211 Q1234.5 843.031 1235.58 842.464 Q1236.65 841.885 1238.19 841.885 Q1238.41 841.885 1238.68 841.92 Q1238.95 841.943 1239.27 842.001 L1239.28 844.188 Z" fill="#000000" fill-rule="evenodd" fill-opacity="1" /><path clip-path="url(#clip890)" d="M1233.84 1151.56 L1233.84 1157.89 L1237.59 1157.89 Q1239.48 1157.89 1240.38 1157.12 Q1241.29 1156.33 1241.29 1154.72 Q1241.29 1153.1 1240.38 1152.34 Q1239.48 1151.56 1237.59 1151.56 L1233.84 1151.56 M1233.84 1144.45 L1233.84 1149.66 L1237.3 1149.66 Q1239.01 1149.66 1239.85 1149.03 Q1240.69 1148.38 1240.69 1147.06 Q1240.69 1145.75 1239.85 1145.1 Q1239.01 1144.45 1237.3 1144.45 L1233.84 1144.45 M1231.5 1142.53 L1237.47 1142.53 Q1240.15 1142.53 1241.59 1143.64 Q1243.04 1144.76 1243.04 1146.8 Q1243.04 1148.39 1242.3 1149.33 Q1241.56 1150.26 1240.12 1150.5 Q1241.85 1150.87 1242.8 1152.05 Q1243.76 1153.22 1243.76 1154.98 Q1243.76 1157.29 1242.18 1158.55 Q1240.61 1159.81 1237.71 1159.81 L1231.5 1159.81 L1231.5 1142.53 Z" fill="#000000" fill-rule="evenodd" fill-opacity="1" /><path clip-path="url(#clip890)" d="M1252.69 1148.34 Q1250.98 1148.34 1249.99 1149.69 Q1248.99 1151.02 1248.99 1153.34 Q1248.99 1155.67 1249.97 1157.01 Q1250.97 1158.34 1252.69 1158.34 Q1254.4 1158.34 1255.39 1157 Q1256.39 1155.66 1256.39 1153.34 Q1256.39 1151.04 1255.39 1149.7 Q1254.4 1148.34 1252.69 1148.34 M1252.69 1146.54 Q1255.47 1146.54 1257.06 1148.34 Q1258.64 1150.15 1258.64 1153.34 Q1258.64 1156.53 1257.06 1158.34 Q1255.47 1160.15 1252.69 1160.15 Q1249.9 1160.15 1248.32 1158.34 Q1246.75 1156.53 1246.75 1153.34 Q1246.75 1150.15 1248.32 1148.34 Q1249.9 1146.54 1252.69 1146.54 Z" fill="#000000" fill-rule="evenodd" fill-opacity="1" /><path clip-path="url(#clip890)" d="M1267.2 1148.34 Q1265.48 1148.34 1264.49 1149.69 Q1263.49 1151.02 1263.49 1153.34 Q1263.49 1155.67 1264.48 1157.01 Q1265.47 1158.34 1267.2 1158.34 Q1268.9 1158.34 1269.89 1157 Q1270.89 1155.66 1270.89 1153.34 Q1270.89 1151.04 1269.89 1149.7 Q1268.9 1148.34 1267.2 1148.34 M1267.2 1146.54 Q1269.97 1146.54 1271.56 1148.34 Q1273.15 1150.15 1273.15 1153.34 Q1273.15 1156.53 1271.56 1158.34 Q1269.97 1160.15 1267.2 1160.15 Q1264.41 1160.15 1262.82 1158.34 Q1261.25 1156.53 1261.25 1153.34 Q1261.25 1150.15 1262.82 1148.34 Q1264.41 1146.54 1267.2 1146.54 Z" fill="#000000" fill-rule="evenodd" fill-opacity="1" /><path clip-path="url(#clip890)" d="M1276.68 1141.8 L1278.81 1141.8 L1278.81 1159.81 L1276.68 1159.81 L1276.68 1141.8 Z" fill="#000000" fill-rule="evenodd" fill-opacity="1" /><path clip-path="url(#clip890)" d="M1013.61 1055.04 Q1011.06 1055.04 1009.56 1056.94 Q1008.07 1058.84 1008.07 1062.11 Q1008.07 1065.38 1009.56 1067.27 Q1011.06 1069.17 1013.61 1069.17 Q1016.16 1069.17 1017.64 1067.27 Q1019.13 1065.38 1019.13 1062.11 Q1019.13 1058.84 1017.64 1056.94 Q1016.16 1055.04 1013.61 1055.04 M1013.61 1053.14 Q1017.24 1053.14 1019.42 1055.58 Q1021.6 1058.01 1021.6 1062.11 Q1021.6 1066.2 1019.42 1068.64 Q1017.24 1071.07 1013.61 1071.07 Q1009.96 1071.07 1007.78 1068.64 Q1005.6 1066.21 1005.6 1062.11 Q1005.6 1058.01 1007.78 1055.58 Q1009.96 1053.14 1013.61 1053.14 Z" fill="#000000" fill-rule="evenodd" fill-opacity="1" /><path clip-path="url(#clip890)" d="M1031.72 1052.73 L1031.72 1054.5 L1029.69 1054.5 Q1028.54 1054.5 1028.09 1054.96 Q1027.65 1055.42 1027.65 1056.63 L1027.65 1057.77 L1031.16 1057.77 L1031.16 1059.43 L1027.65 1059.43 L1027.65 1070.73 L1025.51 1070.73 L1025.51 1059.43 L1023.47 1059.43 L1023.47 1057.77 L1025.51 1057.77 L1025.51 1056.87 Q1025.51 1054.7 1026.52 1053.72 Q1027.52 1052.73 1029.71 1052.73 L1031.72 1052.73 Z" fill="#000000" fill-rule="evenodd" fill-opacity="1" /><path clip-path="url(#clip890)" d="M1040.07 1052.73 L1040.07 1054.5 L1038.03 1054.5 Q1036.89 1054.5 1036.43 1054.96 Q1035.99 1055.42 1035.99 1056.63 L1035.99 1057.77 L1039.5 1057.77 L1039.5 1059.43 L1035.99 1059.43 L1035.99 1070.73 L1033.85 1070.73 L1033.85 1059.43 L1031.82 1059.43 L1031.82 1057.77 L1033.85 1057.77 L1033.85 1056.87 Q1033.85 1054.7 1034.86 1053.72 Q1035.87 1052.73 1038.05 1052.73 L1040.07 1052.73 Z" fill="#000000" fill-rule="evenodd" fill-opacity="1" /><path clip-path="url(#clip890)" d="M1050.11 1058.15 L1050.11 1060.17 Q1049.21 1059.7 1048.24 1059.47 Q1047.27 1059.24 1046.23 1059.24 Q1044.64 1059.24 1043.84 1059.73 Q1043.05 1060.21 1043.05 1061.19 Q1043.05 1061.93 1043.62 1062.35 Q1044.19 1062.77 1045.9 1063.15 L1046.63 1063.32 Q1048.9 1063.8 1049.85 1064.69 Q1050.81 1065.57 1050.81 1067.16 Q1050.81 1068.96 1049.37 1070.02 Q1047.95 1071.07 1045.45 1071.07 Q1044.41 1071.07 1043.27 1070.86 Q1042.15 1070.67 1040.9 1070.26 L1040.9 1068.06 Q1042.08 1068.67 1043.23 1068.99 Q1044.37 1069.29 1045.5 1069.29 Q1047 1069.29 1047.81 1068.78 Q1048.62 1068.26 1048.62 1067.32 Q1048.62 1066.45 1048.03 1065.99 Q1047.45 1065.53 1045.47 1065.1 L1044.73 1064.92 Q1042.75 1064.51 1041.87 1063.65 Q1040.99 1062.78 1040.99 1061.28 Q1040.99 1059.45 1042.29 1058.45 Q1043.59 1057.46 1045.97 1057.46 Q1047.15 1057.46 1048.19 1057.63 Q1049.23 1057.81 1050.11 1058.15 Z" fill="#000000" fill-rule="evenodd" fill-opacity="1" /><path clip-path="url(#clip890)" d="M1065.29 1063.72 L1065.29 1064.76 L1055.5 1064.76 Q1055.64 1066.96 1056.82 1068.12 Q1058.01 1069.26 1060.13 1069.26 Q1061.35 1069.26 1062.5 1068.96 Q1063.66 1068.66 1064.79 1068.06 L1064.79 1070.07 Q1063.64 1070.56 1062.44 1070.82 Q1061.24 1071.07 1060 1071.07 Q1056.9 1071.07 1055.08 1069.26 Q1053.27 1067.46 1053.27 1064.38 Q1053.27 1061.2 1054.99 1059.33 Q1056.71 1057.46 1059.63 1057.46 Q1062.24 1057.46 1063.76 1059.15 Q1065.29 1060.83 1065.29 1063.72 M1063.16 1063.1 Q1063.14 1061.35 1062.17 1060.31 Q1061.23 1059.26 1059.65 1059.26 Q1057.87 1059.26 1056.79 1060.27 Q1055.73 1061.28 1055.57 1063.11 L1063.16 1063.1 Z" fill="#000000" fill-rule="evenodd" fill-opacity="1" /><path clip-path="url(#clip890)" d="M1070.89 1054.09 L1070.89 1057.77 L1075.28 1057.77 L1075.28 1059.43 L1070.89 1059.43 L1070.89 1066.46 Q1070.89 1068.05 1071.32 1068.5 Q1071.76 1068.95 1073.09 1068.95 L1075.28 1068.95 L1075.28 1070.73 L1073.09 1070.73 Q1070.62 1070.73 1069.69 1069.82 Q1068.75 1068.89 1068.75 1066.46 L1068.75 1059.43 L1067.19 1059.43 L1067.19 1057.77 L1068.75 1057.77 L1068.75 1054.09 L1070.89 1054.09 Z" fill="#000000" fill-rule="evenodd" fill-opacity="1" /><path clip-path="url(#clip890)" d="M1078.17 1053.45 L1080.51 1053.45 L1080.51 1070.73 L1078.17 1070.73 L1078.17 1053.45 Z" fill="#000000" fill-rule="evenodd" fill-opacity="1" /><path clip-path="url(#clip890)" d="M1095.84 1062.91 L1095.84 1070.73 L1093.71 1070.73 L1093.71 1062.98 Q1093.71 1061.14 1093 1060.23 Q1092.28 1059.31 1090.84 1059.31 Q1089.12 1059.31 1088.12 1060.41 Q1087.13 1061.51 1087.13 1063.41 L1087.13 1070.73 L1084.99 1070.73 L1084.99 1057.77 L1087.13 1057.77 L1087.13 1059.79 Q1087.89 1058.62 1088.92 1058.04 Q1089.96 1057.46 1091.32 1057.46 Q1093.55 1057.46 1094.7 1058.85 Q1095.84 1060.23 1095.84 1062.91 Z" fill="#000000" fill-rule="evenodd" fill-opacity="1" /><path clip-path="url(#clip890)" d="M1102.2 1054.09 L1102.2 1057.77 L1106.58 1057.77 L1106.58 1059.43 L1102.2 1059.43 L1102.2 1066.46 Q1102.2 1068.05 1102.63 1068.5 Q1103.07 1068.95 1104.4 1068.95 L1106.58 1068.95 L1106.58 1070.73 L1104.4 1070.73 Q1101.93 1070.73 1100.99 1069.82 Q1100.06 1068.89 1100.06 1066.46 L1100.06 1059.43 L1098.49 1059.43 L1098.49 1057.77 L1100.06 1057.77 L1100.06 1054.09 L1102.2 1054.09 Z" fill="#000000" fill-rule="evenodd" fill-opacity="1" /><path clip-path="url(#clip890)" d="M1120.47 1063.72 L1120.47 1064.76 L1110.68 1064.76 Q1110.82 1066.96 1112 1068.12 Q1113.19 1069.26 1115.31 1069.26 Q1116.54 1069.26 1117.68 1068.96 Q1118.84 1068.66 1119.98 1068.06 L1119.98 1070.07 Q1118.83 1070.56 1117.63 1070.82 Q1116.42 1071.07 1115.18 1071.07 Q1112.08 1071.07 1110.26 1069.26 Q1108.46 1067.46 1108.46 1064.38 Q1108.46 1061.2 1110.17 1059.33 Q1111.9 1057.46 1114.81 1057.46 Q1117.43 1057.46 1118.95 1059.15 Q1120.47 1060.83 1120.47 1063.72 M1118.34 1063.1 Q1118.32 1061.35 1117.36 1060.31 Q1116.41 1059.26 1114.84 1059.26 Q1113.05 1059.26 1111.98 1060.27 Q1110.91 1061.28 1110.75 1063.11 L1118.34 1063.1 Z" fill="#000000" fill-rule="evenodd" fill-opacity="1" /><path clip-path="url(#clip890)" d="M1132.5 1064.1 Q1132.5 1061.79 1131.54 1060.51 Q1130.59 1059.24 1128.86 1059.24 Q1127.15 1059.24 1126.19 1060.51 Q1125.24 1061.79 1125.24 1064.1 Q1125.24 1066.41 1126.19 1067.68 Q1127.15 1068.95 1128.86 1068.95 Q1130.59 1068.95 1131.54 1067.68 Q1132.5 1066.41 1132.5 1064.1 M1134.63 1069.13 Q1134.63 1072.44 1133.16 1074.04 Q1131.69 1075.67 1128.66 1075.67 Q1127.53 1075.67 1126.54 1075.49 Q1125.54 1075.33 1124.6 1074.98 L1124.6 1072.91 Q1125.54 1073.42 1126.46 1073.66 Q1127.37 1073.91 1128.32 1073.91 Q1130.42 1073.91 1131.46 1072.81 Q1132.5 1071.72 1132.5 1069.51 L1132.5 1068.45 Q1131.84 1069.6 1130.81 1070.17 Q1129.78 1070.73 1128.34 1070.73 Q1125.96 1070.73 1124.5 1068.92 Q1123.04 1067.1 1123.04 1064.1 Q1123.04 1061.09 1124.5 1059.28 Q1125.96 1057.46 1128.34 1057.46 Q1129.78 1057.46 1130.81 1058.03 Q1131.84 1058.59 1132.5 1059.74 L1132.5 1057.77 L1134.63 1057.77 L1134.63 1069.13 Z" fill="#000000" fill-rule="evenodd" fill-opacity="1" /><path clip-path="url(#clip890)" d="M1150.1 1063.72 L1150.1 1064.76 L1140.31 1064.76 Q1140.45 1066.96 1141.63 1068.12 Q1142.82 1069.26 1144.94 1069.26 Q1146.17 1069.26 1147.31 1068.96 Q1148.47 1068.66 1149.6 1068.06 L1149.6 1070.07 Q1148.46 1070.56 1147.26 1070.82 Q1146.05 1071.07 1144.81 1071.07 Q1141.71 1071.07 1139.89 1069.26 Q1138.09 1067.46 1138.09 1064.38 Q1138.09 1061.2 1139.8 1059.33 Q1141.53 1057.46 1144.44 1057.46 Q1147.06 1057.46 1148.57 1059.15 Q1150.1 1060.83 1150.1 1063.72 M1147.97 1063.1 Q1147.95 1061.35 1146.99 1060.31 Q1146.04 1059.26 1144.47 1059.26 Q1142.68 1059.26 1141.61 1060.27 Q1140.54 1061.28 1140.38 1063.11 L1147.97 1063.1 Z" fill="#000000" fill-rule="evenodd" fill-opacity="1" /><path clip-path="url(#clip890)" d="M1161.11 1059.76 Q1160.75 1059.55 1160.32 1059.46 Q1159.91 1059.36 1159.4 1059.36 Q1157.59 1059.36 1156.62 1060.54 Q1155.66 1061.71 1155.66 1063.91 L1155.66 1070.73 L1153.52 1070.73 L1153.52 1057.77 L1155.66 1057.77 L1155.66 1059.79 Q1156.33 1058.6 1157.41 1058.04 Q1158.48 1057.46 1160.02 1057.46 Q1160.24 1057.46 1160.51 1057.49 Q1160.77 1057.52 1161.1 1057.57 L1161.11 1059.76 Z" fill="#000000" fill-rule="evenodd" fill-opacity="1" /><path clip-path="url(#clip890)" d="M1111.05 1099.26 Q1108.5 1099.26 1107 1101.16 Q1105.5 1103.06 1105.5 1106.33 Q1105.5 1109.6 1107 1111.5 Q1108.5 1113.39 1111.05 1113.39 Q1113.59 1113.39 1115.08 1111.5 Q1116.57 1109.6 1116.57 1106.33 Q1116.57 1103.06 1115.08 1101.16 Q1113.59 1099.26 1111.05 1099.26 M1111.05 1097.36 Q1114.68 1097.36 1116.86 1099.81 Q1119.03 1102.24 1119.03 1106.33 Q1119.03 1110.42 1116.86 1112.86 Q1114.68 1115.29 1111.05 1115.29 Q1107.4 1115.29 1105.22 1112.86 Q1103.04 1110.43 1103.04 1106.33 Q1103.04 1102.24 1105.22 1099.81 Q1107.4 1097.36 1111.05 1097.36 Z" fill="#000000" fill-rule="evenodd" fill-opacity="1" /><path clip-path="url(#clip890)" d="M1129.16 1096.95 L1129.16 1098.72 L1127.12 1098.72 Q1125.98 1098.72 1125.53 1099.18 Q1125.09 1099.65 1125.09 1100.85 L1125.09 1101.99 L1128.59 1101.99 L1128.59 1103.65 L1125.09 1103.65 L1125.09 1114.96 L1122.95 1114.96 L1122.95 1103.65 L1120.91 1103.65 L1120.91 1101.99 L1122.95 1101.99 L1122.95 1101.09 Q1122.95 1098.93 1123.95 1097.94 Q1124.96 1096.95 1127.15 1096.95 L1129.16 1096.95 Z" fill="#000000" fill-rule="evenodd" fill-opacity="1" /><path clip-path="url(#clip890)" d="M1137.51 1096.95 L1137.51 1098.72 L1135.47 1098.72 Q1134.32 1098.72 1133.87 1099.18 Q1133.43 1099.65 1133.43 1100.85 L1133.43 1101.99 L1136.94 1101.99 L1136.94 1103.65 L1133.43 1103.65 L1133.43 1114.96 L1131.29 1114.96 L1131.29 1103.65 L1129.25 1103.65 L1129.25 1101.99 L1131.29 1101.99 L1131.29 1101.09 Q1131.29 1098.93 1132.3 1097.94 Q1133.31 1096.95 1135.49 1096.95 L1137.51 1096.95 Z" fill="#000000" fill-rule="evenodd" fill-opacity="1" /><path clip-path="url(#clip890)" d="M1147.55 1102.38 L1147.55 1104.39 Q1146.65 1103.93 1145.68 1103.7 Q1144.71 1103.46 1143.66 1103.46 Q1142.08 1103.46 1141.28 1103.95 Q1140.49 1104.44 1140.49 1105.41 Q1140.49 1106.15 1141.06 1106.58 Q1141.63 1106.99 1143.34 1107.38 L1144.07 1107.54 Q1146.34 1108.02 1147.29 1108.92 Q1148.25 1109.8 1148.25 1111.38 Q1148.25 1113.19 1146.81 1114.24 Q1145.39 1115.29 1142.89 1115.29 Q1141.85 1115.29 1140.71 1115.08 Q1139.59 1114.89 1138.34 1114.48 L1138.34 1112.28 Q1139.52 1112.9 1140.67 1113.21 Q1141.81 1113.51 1142.93 1113.51 Q1144.44 1113.51 1145.25 1113 Q1146.06 1112.48 1146.06 1111.54 Q1146.06 1110.68 1145.47 1110.21 Q1144.89 1109.75 1142.91 1109.32 L1142.17 1109.15 Q1140.19 1108.73 1139.31 1107.87 Q1138.43 1107.01 1138.43 1105.5 Q1138.43 1103.67 1139.73 1102.68 Q1141.03 1101.68 1143.41 1101.68 Q1144.59 1101.68 1145.63 1101.86 Q1146.67 1102.03 1147.55 1102.38 Z" fill="#000000" fill-rule="evenodd" fill-opacity="1" /><path clip-path="url(#clip890)" d="M1162.73 1107.94 L1162.73 1108.99 L1152.93 1108.99 Q1153.07 1111.18 1154.25 1112.34 Q1155.45 1113.49 1157.56 1113.49 Q1158.79 1113.49 1159.94 1113.19 Q1161.09 1112.89 1162.23 1112.28 L1162.23 1114.3 Q1161.08 1114.78 1159.88 1115.04 Q1158.68 1115.29 1157.44 1115.29 Q1154.34 1115.29 1152.52 1113.49 Q1150.71 1111.68 1150.71 1108.6 Q1150.71 1105.42 1152.43 1103.56 Q1154.15 1101.68 1157.07 1101.68 Q1159.68 1101.68 1161.2 1103.37 Q1162.73 1105.05 1162.73 1107.94 M1160.6 1107.32 Q1160.57 1105.57 1159.61 1104.53 Q1158.66 1103.49 1157.09 1103.49 Q1155.31 1103.49 1154.23 1104.49 Q1153.17 1105.5 1153 1107.33 L1160.6 1107.32 Z" fill="#000000" fill-rule="evenodd" fill-opacity="1" /><path clip-path="url(#clip890)" d="M1168.33 1098.31 L1168.33 1101.99 L1172.71 1101.99 L1172.71 1103.65 L1168.33 1103.65 L1168.33 1110.69 Q1168.33 1112.27 1168.76 1112.72 Q1169.2 1113.18 1170.53 1113.18 L1172.71 1113.18 L1172.71 1114.96 L1170.53 1114.96 Q1168.06 1114.96 1167.12 1114.04 Q1166.19 1113.12 1166.19 1110.69 L1166.19 1103.65 L1164.62 1103.65 L1164.62 1101.99 L1166.19 1101.99 L1166.19 1098.31 L1168.33 1098.31 Z" fill="#000000" fill-rule="evenodd" fill-opacity="1" /><path clip-path="url(#clip890)" d="M1175.61 1097.68 L1177.95 1097.68 L1177.95 1114.96 L1175.61 1114.96 L1175.61 1097.68 Z" fill="#000000" fill-rule="evenodd" fill-opacity="1" /><path clip-path="url(#clip890)" d="M1193.28 1107.13 L1193.28 1114.96 L1191.15 1114.96 L1191.15 1107.2 Q1191.15 1105.36 1190.43 1104.45 Q1189.72 1103.53 1188.28 1103.53 Q1186.56 1103.53 1185.56 1104.63 Q1184.57 1105.73 1184.57 1107.63 L1184.57 1114.96 L1182.43 1114.96 L1182.43 1101.99 L1184.57 1101.99 L1184.57 1104.01 Q1185.33 1102.84 1186.36 1102.26 Q1187.4 1101.68 1188.76 1101.68 Q1190.99 1101.68 1192.14 1103.07 Q1193.28 1104.45 1193.28 1107.13 Z" fill="#000000" fill-rule="evenodd" fill-opacity="1" /><path clip-path="url(#clip890)" d="M1199.64 1098.31 L1199.64 1101.99 L1204.02 1101.99 L1204.02 1103.65 L1199.64 1103.65 L1199.64 1110.69 Q1199.64 1112.27 1200.06 1112.72 Q1200.5 1113.18 1201.83 1113.18 L1204.02 1113.18 L1204.02 1114.96 L1201.83 1114.96 Q1199.37 1114.96 1198.43 1114.04 Q1197.49 1113.12 1197.49 1110.69 L1197.49 1103.65 L1195.93 1103.65 L1195.93 1101.99 L1197.49 1101.99 L1197.49 1098.31 L1199.64 1098.31 Z" fill="#000000" fill-rule="evenodd" fill-opacity="1" /><path clip-path="url(#clip890)" d="M1217.91 1107.94 L1217.91 1108.99 L1208.12 1108.99 Q1208.26 1111.18 1209.44 1112.34 Q1210.63 1113.49 1212.75 1113.49 Q1213.98 1113.49 1215.12 1113.19 Q1216.28 1112.89 1217.41 1112.28 L1217.41 1114.3 Q1216.27 1114.78 1215.06 1115.04 Q1213.86 1115.29 1212.62 1115.29 Q1209.52 1115.29 1207.7 1113.49 Q1205.9 1111.68 1205.9 1108.6 Q1205.9 1105.42 1207.61 1103.56 Q1209.33 1101.68 1212.25 1101.68 Q1214.87 1101.68 1216.38 1103.37 Q1217.91 1105.05 1217.91 1107.94 M1215.78 1107.32 Q1215.76 1105.57 1214.8 1104.53 Q1213.85 1103.49 1212.27 1103.49 Q1210.49 1103.49 1209.42 1104.49 Q1208.35 1105.5 1208.19 1107.33 L1215.78 1107.32 Z" fill="#000000" fill-rule="evenodd" fill-opacity="1" /><path clip-path="url(#clip890)" d="M1229.94 1108.33 Q1229.94 1106.01 1228.98 1104.74 Q1228.03 1103.46 1226.3 1103.46 Q1224.59 1103.46 1223.63 1104.74 Q1222.68 1106.01 1222.68 1108.33 Q1222.68 1110.63 1223.63 1111.9 Q1224.59 1113.18 1226.3 1113.18 Q1228.03 1113.18 1228.98 1111.9 Q1229.94 1110.63 1229.94 1108.33 M1232.07 1113.35 Q1232.07 1116.66 1230.6 1118.27 Q1229.13 1119.89 1226.09 1119.89 Q1224.97 1119.89 1223.98 1119.71 Q1222.98 1119.55 1222.04 1119.21 L1222.04 1117.13 Q1222.98 1117.64 1223.9 1117.89 Q1224.81 1118.13 1225.76 1118.13 Q1227.85 1118.13 1228.9 1117.03 Q1229.94 1115.94 1229.94 1113.73 L1229.94 1112.68 Q1229.28 1113.82 1228.25 1114.39 Q1227.22 1114.96 1225.78 1114.96 Q1223.4 1114.96 1221.94 1113.14 Q1220.48 1111.32 1220.48 1108.33 Q1220.48 1105.32 1221.94 1103.5 Q1223.4 1101.68 1225.78 1101.68 Q1227.22 1101.68 1228.25 1102.25 Q1229.28 1102.82 1229.94 1103.96 L1229.94 1101.99 L1232.07 1101.99 L1232.07 1113.35 Z" fill="#000000" fill-rule="evenodd" fill-opacity="1" /><path clip-path="url(#clip890)" d="M1247.54 1107.94 L1247.54 1108.99 L1237.75 1108.99 Q1237.89 1111.18 1239.07 1112.34 Q1240.26 1113.49 1242.38 1113.49 Q1243.61 1113.49 1244.75 1113.19 Q1245.91 1112.89 1247.04 1112.28 L1247.04 1114.3 Q1245.9 1114.78 1244.69 1115.04 Q1243.49 1115.29 1242.25 1115.29 Q1239.15 1115.29 1237.33 1113.49 Q1235.53 1111.68 1235.53 1108.6 Q1235.53 1105.42 1237.24 1103.56 Q1238.96 1101.68 1241.88 1101.68 Q1244.5 1101.68 1246.01 1103.37 Q1247.54 1105.05 1247.54 1107.94 M1245.41 1107.32 Q1245.39 1105.57 1244.43 1104.53 Q1243.48 1103.49 1241.9 1103.49 Q1240.12 1103.49 1239.05 1104.49 Q1237.98 1105.5 1237.82 1107.33 L1245.41 1107.32 Z" fill="#000000" fill-rule="evenodd" fill-opacity="1" /><path clip-path="url(#clip890)" d="M1258.55 1103.99 Q1258.19 1103.78 1257.76 1103.68 Q1257.34 1103.58 1256.83 1103.58 Q1255.03 1103.58 1254.06 1104.76 Q1253.1 1105.93 1253.1 1108.13 L1253.1 1114.96 L1250.96 1114.96 L1250.96 1101.99 L1253.1 1101.99 L1253.1 1104.01 Q1253.77 1102.83 1254.84 1102.26 Q1255.92 1101.68 1257.46 1101.68 Q1257.68 1101.68 1257.95 1101.72 Q1258.21 1101.74 1258.54 1101.8 L1258.55 1103.99 Z" fill="#000000" fill-rule="evenodd" fill-opacity="1" /><path clip-path="url(#clip890)" d="M1457 1036.49 L1457 1038.77 Q1455.66 1038.13 1454.48 1037.82 Q1453.3 1037.51 1452.2 1037.51 Q1450.29 1037.51 1449.25 1038.25 Q1448.22 1038.99 1448.22 1040.36 Q1448.22 1041.5 1448.91 1042.09 Q1449.6 1042.67 1451.52 1043.03 L1452.93 1043.32 Q1455.55 1043.82 1456.79 1045.08 Q1458.04 1046.33 1458.04 1048.43 Q1458.04 1050.95 1456.35 1052.24 Q1454.67 1053.54 1451.42 1053.54 Q1450.19 1053.54 1448.8 1053.26 Q1447.42 1052.98 1445.94 1052.44 L1445.94 1050.03 Q1447.37 1050.83 1448.73 1051.24 Q1450.1 1051.64 1451.42 1051.64 Q1453.42 1051.64 1454.51 1050.85 Q1455.59 1050.07 1455.59 1048.61 Q1455.59 1047.33 1454.81 1046.62 Q1454.03 1045.9 1452.25 1045.54 L1450.83 1045.26 Q1448.21 1044.74 1447.04 1043.63 Q1445.87 1042.52 1445.87 1040.54 Q1445.87 1038.25 1447.48 1036.93 Q1449.1 1035.61 1451.94 1035.61 Q1453.15 1035.61 1454.41 1035.83 Q1455.68 1036.05 1457 1036.49 Z" fill="#000000" fill-rule="evenodd" fill-opacity="1" /><path clip-path="url(#clip890)" d="M1461.59 1040.24 L1463.72 1040.24 L1463.72 1053.2 L1461.59 1053.2 L1461.59 1040.24 M1461.59 1035.19 L1463.72 1035.19 L1463.72 1037.89 L1461.59 1037.89 L1461.59 1035.19 Z" fill="#000000" fill-rule="evenodd" fill-opacity="1" /><path clip-path="url(#clip890)" d="M1476.71 1046.57 Q1476.71 1044.26 1475.75 1042.98 Q1474.8 1041.71 1473.07 1041.71 Q1471.36 1041.71 1470.4 1042.98 Q1469.45 1044.26 1469.45 1046.57 Q1469.45 1048.87 1470.4 1050.15 Q1471.36 1051.42 1473.07 1051.42 Q1474.8 1051.42 1475.75 1050.15 Q1476.71 1048.87 1476.71 1046.57 M1478.84 1051.59 Q1478.84 1054.9 1477.37 1056.51 Q1475.9 1058.13 1472.86 1058.13 Q1471.74 1058.13 1470.75 1057.96 Q1469.75 1057.8 1468.81 1057.45 L1468.81 1055.38 Q1469.75 1055.89 1470.66 1056.13 Q1471.58 1056.37 1472.53 1056.37 Q1474.62 1056.37 1475.66 1055.27 Q1476.71 1054.19 1476.71 1051.98 L1476.71 1050.92 Q1476.05 1052.07 1475.02 1052.64 Q1473.99 1053.2 1472.55 1053.2 Q1470.17 1053.2 1468.71 1051.39 Q1467.25 1049.57 1467.25 1046.57 Q1467.25 1043.56 1468.71 1041.74 Q1470.17 1039.93 1472.55 1039.93 Q1473.99 1039.93 1475.02 1040.49 Q1476.05 1041.06 1476.71 1042.21 L1476.71 1040.24 L1478.84 1040.24 L1478.84 1051.59 Z" fill="#000000" fill-rule="evenodd" fill-opacity="1" /><path clip-path="url(#clip890)" d="M1494 1045.38 L1494 1053.2 L1491.87 1053.2 L1491.87 1045.45 Q1491.87 1043.61 1491.15 1042.69 Q1490.43 1041.78 1489 1041.78 Q1487.27 1041.78 1486.28 1042.88 Q1485.28 1043.98 1485.28 1045.88 L1485.28 1053.2 L1483.14 1053.2 L1483.14 1040.24 L1485.28 1040.24 L1485.28 1042.25 Q1486.05 1041.09 1487.08 1040.51 Q1488.12 1039.93 1489.47 1039.93 Q1491.71 1039.93 1492.85 1041.32 Q1494 1042.69 1494 1045.38 Z" fill="#000000" fill-rule="evenodd" fill-opacity="1" /><path clip-path="url(#clip890)" d="M1509.33 1046.19 L1509.33 1047.23 L1499.54 1047.23 Q1499.68 1049.43 1500.86 1050.59 Q1502.05 1051.73 1504.17 1051.73 Q1505.4 1051.73 1506.54 1051.43 Q1507.7 1051.13 1508.84 1050.53 L1508.84 1052.54 Q1507.69 1053.03 1506.49 1053.28 Q1505.28 1053.54 1504.04 1053.54 Q1500.94 1053.54 1499.12 1051.73 Q1497.32 1049.93 1497.32 1046.85 Q1497.32 1043.67 1499.03 1041.8 Q1500.76 1039.93 1503.67 1039.93 Q1506.29 1039.93 1507.81 1041.62 Q1509.33 1043.3 1509.33 1046.19 M1507.2 1045.56 Q1507.18 1043.82 1506.22 1042.77 Q1505.27 1041.73 1503.7 1041.73 Q1501.91 1041.73 1500.84 1042.74 Q1499.77 1043.75 1499.61 1045.58 L1507.2 1045.56 Z" fill="#000000" fill-rule="evenodd" fill-opacity="1" /><path clip-path="url(#clip890)" d="M1521.36 1042.21 L1521.36 1035.19 L1523.49 1035.19 L1523.49 1053.2 L1521.36 1053.2 L1521.36 1051.26 Q1520.69 1052.42 1519.66 1052.98 Q1518.64 1053.54 1517.2 1053.54 Q1514.85 1053.54 1513.37 1051.66 Q1511.9 1049.79 1511.9 1046.73 Q1511.9 1043.68 1513.37 1041.8 Q1514.85 1039.93 1517.2 1039.93 Q1518.64 1039.93 1519.66 1040.49 Q1520.69 1041.05 1521.36 1042.21 M1514.1 1046.73 Q1514.1 1049.08 1515.06 1050.43 Q1516.03 1051.76 1517.72 1051.76 Q1519.41 1051.76 1520.39 1050.43 Q1521.36 1049.08 1521.36 1046.73 Q1521.36 1044.38 1520.39 1043.05 Q1519.41 1041.71 1517.72 1041.71 Q1516.03 1041.71 1515.06 1043.05 Q1514.1 1044.38 1514.1 1046.73 Z" fill="#000000" fill-rule="evenodd" fill-opacity="1" /><path clip-path="url(#clip890)" d="M1340.65 1268.71 L1340.65 1275.04 L1344.4 1275.04 Q1346.29 1275.04 1347.19 1274.26 Q1348.1 1273.48 1348.1 1271.87 Q1348.1 1270.25 1347.19 1269.48 Q1346.29 1268.71 1344.4 1268.71 L1340.65 1268.71 M1340.65 1261.6 L1340.65 1266.81 L1344.11 1266.81 Q1345.82 1266.81 1346.66 1266.17 Q1347.5 1265.53 1347.5 1264.21 Q1347.5 1262.9 1346.66 1262.25 Q1345.82 1261.6 1344.11 1261.6 L1340.65 1261.6 M1338.31 1259.68 L1344.28 1259.68 Q1346.96 1259.68 1348.41 1260.79 Q1349.85 1261.9 1349.85 1263.95 Q1349.85 1265.54 1349.11 1266.47 Q1348.37 1267.41 1346.94 1267.64 Q1348.66 1268.01 1349.61 1269.19 Q1350.57 1270.36 1350.57 1272.12 Q1350.57 1274.44 1349 1275.7 Q1347.42 1276.96 1344.52 1276.96 L1338.31 1276.96 L1338.31 1259.68 Z" fill="#000000" fill-rule="evenodd" fill-opacity="1" /><path clip-path="url(#clip890)" d="M1354.48 1264 L1356.61 1264 L1356.61 1276.96 L1354.48 1276.96 L1354.48 1264 M1354.48 1258.95 L1356.61 1258.95 L1356.61 1261.65 L1354.48 1261.65 L1354.48 1258.95 Z" fill="#000000" fill-rule="evenodd" fill-opacity="1" /><path clip-path="url(#clip890)" d="M1369.6 1270.33 Q1369.6 1268.01 1368.64 1266.74 Q1367.69 1265.47 1365.96 1265.47 Q1364.25 1265.47 1363.29 1266.74 Q1362.34 1268.01 1362.34 1270.33 Q1362.34 1272.63 1363.29 1273.9 Q1364.25 1275.18 1365.96 1275.18 Q1367.69 1275.18 1368.64 1273.9 Q1369.6 1272.63 1369.6 1270.33 M1371.73 1275.35 Q1371.73 1278.66 1370.26 1280.27 Q1368.79 1281.89 1365.75 1281.89 Q1364.63 1281.89 1363.64 1281.72 Q1362.64 1281.56 1361.7 1281.21 L1361.7 1279.14 Q1362.64 1279.65 1363.56 1279.89 Q1364.47 1280.13 1365.42 1280.13 Q1367.51 1280.13 1368.56 1279.03 Q1369.6 1277.94 1369.6 1275.73 L1369.6 1274.68 Q1368.94 1275.83 1367.91 1276.39 Q1366.88 1276.96 1365.44 1276.96 Q1363.06 1276.96 1361.6 1275.14 Q1360.14 1273.33 1360.14 1270.33 Q1360.14 1267.32 1361.6 1265.5 Q1363.06 1263.68 1365.44 1263.68 Q1366.88 1263.68 1367.91 1264.25 Q1368.94 1264.82 1369.6 1265.97 L1369.6 1264 L1371.73 1264 L1371.73 1275.35 Z" fill="#000000" fill-rule="evenodd" fill-opacity="1" /><path clip-path="url(#clip890)" d="M1376.21 1259.68 L1378.54 1259.68 L1378.54 1276.96 L1376.21 1276.96 L1376.21 1259.68 Z" fill="#000000" fill-rule="evenodd" fill-opacity="1" /><path clip-path="url(#clip890)" d="M1393.88 1269.14 L1393.88 1276.96 L1391.75 1276.96 L1391.75 1269.21 Q1391.75 1267.37 1391.03 1266.45 Q1390.31 1265.54 1388.88 1265.54 Q1387.16 1265.54 1386.16 1266.64 Q1385.16 1267.74 1385.16 1269.63 L1385.16 1276.96 L1383.02 1276.96 L1383.02 1264 L1385.16 1264 L1385.16 1266.01 Q1385.93 1264.84 1386.96 1264.26 Q1388 1263.68 1389.35 1263.68 Q1391.59 1263.68 1392.73 1265.07 Q1393.88 1266.45 1393.88 1269.14 Z" fill="#000000" fill-rule="evenodd" fill-opacity="1" /><path clip-path="url(#clip890)" d="M1400.23 1260.32 L1400.23 1264 L1404.62 1264 L1404.62 1265.65 L1400.23 1265.65 L1400.23 1272.69 Q1400.23 1274.28 1400.66 1274.73 Q1401.1 1275.18 1402.43 1275.18 L1404.62 1275.18 L1404.62 1276.96 L1402.43 1276.96 Q1399.97 1276.96 1399.03 1276.05 Q1398.09 1275.12 1398.09 1272.69 L1398.09 1265.65 L1396.53 1265.65 L1396.53 1264 L1398.09 1264 L1398.09 1260.32 L1400.23 1260.32 Z" fill="#000000" fill-rule="evenodd" fill-opacity="1" /><path clip-path="url(#clip890)" d="M1622.49 1235.58 L1624.83 1235.58 L1624.83 1252.86 L1622.49 1252.86 L1622.49 1235.58 Z" fill="#000000" fill-rule="evenodd" fill-opacity="1" /><path clip-path="url(#clip890)" d="M1640.16 1245.03 L1640.16 1252.86 L1638.03 1252.86 L1638.03 1245.1 Q1638.03 1243.26 1637.31 1242.35 Q1636.6 1241.43 1635.16 1241.43 Q1633.44 1241.43 1632.44 1242.53 Q1631.45 1243.63 1631.45 1245.53 L1631.45 1252.86 L1629.31 1252.86 L1629.31 1239.9 L1631.45 1239.9 L1631.45 1241.91 Q1632.21 1240.74 1633.24 1240.16 Q1634.28 1239.58 1635.64 1239.58 Q1637.87 1239.58 1639.02 1240.97 Q1640.16 1242.35 1640.16 1245.03 Z" fill="#000000" fill-rule="evenodd" fill-opacity="1" /><path clip-path="url(#clip890)" d="M1646.52 1236.21 L1646.52 1239.9 L1650.9 1239.9 L1650.9 1241.55 L1646.52 1241.55 L1646.52 1248.59 Q1646.52 1250.17 1646.94 1250.62 Q1647.38 1251.08 1648.72 1251.08 L1650.9 1251.08 L1650.9 1252.86 L1648.72 1252.86 Q1646.25 1252.86 1645.31 1251.94 Q1644.38 1251.02 1644.38 1248.59 L1644.38 1241.55 L1642.81 1241.55 L1642.81 1239.9 L1644.38 1239.9 L1644.38 1236.21 L1646.52 1236.21 Z" fill="#000000" fill-rule="evenodd" fill-opacity="1" /><path clip-path="url(#clip890)" d="M1654.41 1250.89 L1658.23 1250.89 L1658.23 1237.71 L1654.07 1238.54 L1654.07 1236.41 L1658.21 1235.58 L1660.54 1235.58 L1660.54 1250.89 L1664.36 1250.89 L1664.36 1252.86 L1654.41 1252.86 L1654.41 1250.89 Z" fill="#000000" fill-rule="evenodd" fill-opacity="1" /><path clip-path="url(#clip890)" d="M1671.1 1250.89 L1679.26 1250.89 L1679.26 1252.86 L1668.29 1252.86 L1668.29 1250.89 Q1669.62 1249.51 1671.91 1247.2 Q1674.21 1244.87 1674.8 1244.2 Q1675.93 1242.94 1676.37 1242.07 Q1676.82 1241.19 1676.82 1240.35 Q1676.82 1238.97 1675.84 1238.1 Q1674.88 1237.23 1673.33 1237.23 Q1672.23 1237.23 1671.01 1237.62 Q1669.79 1238 1668.4 1238.77 L1668.4 1236.41 Q1669.81 1235.84 1671.04 1235.55 Q1672.27 1235.27 1673.29 1235.27 Q1675.97 1235.27 1677.57 1236.61 Q1679.17 1237.95 1679.17 1240.2 Q1679.17 1241.26 1678.76 1242.22 Q1678.37 1243.17 1677.31 1244.47 Q1677.03 1244.8 1675.47 1246.41 Q1673.92 1248.01 1671.1 1250.89 Z" fill="#000000" fill-rule="evenodd" fill-opacity="1" /><path clip-path="url(#clip890)" d="M1689.17 1244.65 Q1687.5 1244.65 1686.54 1245.54 Q1685.59 1246.43 1685.59 1248 Q1685.59 1249.56 1686.54 1250.45 Q1687.5 1251.34 1689.17 1251.34 Q1690.83 1251.34 1691.79 1250.45 Q1692.75 1249.55 1692.75 1248 Q1692.75 1246.43 1691.79 1245.54 Q1690.84 1244.65 1689.17 1244.65 M1686.83 1243.66 Q1685.32 1243.29 1684.48 1242.26 Q1683.65 1241.23 1683.65 1239.74 Q1683.65 1237.67 1685.12 1236.47 Q1686.6 1235.27 1689.17 1235.27 Q1691.75 1235.27 1693.22 1236.47 Q1694.69 1237.67 1694.69 1239.74 Q1694.69 1241.23 1693.84 1242.26 Q1693.01 1243.29 1691.52 1243.66 Q1693.21 1244.05 1694.14 1245.2 Q1695.09 1246.34 1695.09 1248 Q1695.09 1250.51 1693.55 1251.85 Q1692.03 1253.19 1689.17 1253.19 Q1686.31 1253.19 1684.77 1251.85 Q1683.24 1250.51 1683.24 1248 Q1683.24 1246.34 1684.19 1245.2 Q1685.14 1244.05 1686.83 1243.66 M1685.97 1239.96 Q1685.97 1241.31 1686.81 1242.06 Q1687.65 1242.81 1689.17 1242.81 Q1690.67 1242.81 1691.52 1242.06 Q1692.37 1241.31 1692.37 1239.96 Q1692.37 1238.62 1691.52 1237.87 Q1690.67 1237.12 1689.17 1237.12 Q1687.65 1237.12 1686.81 1237.87 Q1685.97 1238.62 1685.97 1239.96 Z" fill="#000000" fill-rule="evenodd" fill-opacity="1" /><path clip-path="url(#clip890)" d="M1498.58 1305.27 L1500.92 1305.27 L1500.92 1322.55 L1498.58 1322.55 L1498.58 1305.27 Z" fill="#000000" fill-rule="evenodd" fill-opacity="1" /><path clip-path="url(#clip890)" d="M1516.25 1314.72 L1516.25 1322.55 L1514.12 1322.55 L1514.12 1314.79 Q1514.12 1312.95 1513.4 1312.04 Q1512.69 1311.12 1511.25 1311.12 Q1509.53 1311.12 1508.53 1312.22 Q1507.54 1313.32 1507.54 1315.22 L1507.54 1322.55 L1505.39 1322.55 L1505.39 1309.58 L1507.54 1309.58 L1507.54 1311.6 Q1508.3 1310.43 1509.33 1309.85 Q1510.37 1309.27 1511.73 1309.27 Q1513.96 1309.27 1515.11 1310.66 Q1516.25 1312.04 1516.25 1314.72 Z" fill="#000000" fill-rule="evenodd" fill-opacity="1" /><path clip-path="url(#clip890)" d="M1522.61 1305.9 L1522.61 1309.58 L1526.99 1309.58 L1526.99 1311.24 L1522.61 1311.24 L1522.61 1318.27 Q1522.61 1319.86 1523.03 1320.31 Q1523.47 1320.76 1524.8 1320.76 L1526.99 1320.76 L1526.99 1322.55 L1524.8 1322.55 Q1522.34 1322.55 1521.4 1321.63 Q1520.46 1320.71 1520.46 1318.27 L1520.46 1311.24 L1518.9 1311.24 L1518.9 1309.58 L1520.46 1309.58 L1520.46 1305.9 L1522.61 1305.9 Z" fill="#000000" fill-rule="evenodd" fill-opacity="1" /><path clip-path="url(#clip890)" d="M1530.5 1320.58 L1534.32 1320.58 L1534.32 1307.4 L1530.16 1308.23 L1530.16 1306.1 L1534.29 1305.27 L1536.63 1305.27 L1536.63 1320.58 L1540.45 1320.58 L1540.45 1322.55 L1530.5 1322.55 L1530.5 1320.58 Z" fill="#000000" fill-rule="evenodd" fill-opacity="1" /><path clip-path="url(#clip890)" d="M1550.46 1312.97 Q1548.89 1312.97 1547.96 1314.05 Q1547.05 1315.13 1547.05 1317 Q1547.05 1318.86 1547.96 1319.95 Q1548.89 1321.03 1550.46 1321.03 Q1552.04 1321.03 1552.95 1319.95 Q1553.88 1318.86 1553.88 1317 Q1553.88 1315.13 1552.95 1314.05 Q1552.04 1312.97 1550.46 1312.97 M1555.1 1305.65 L1555.1 1307.78 Q1554.23 1307.36 1553.32 1307.14 Q1552.43 1306.92 1551.55 1306.92 Q1549.24 1306.92 1548.01 1308.48 Q1546.79 1310.05 1546.62 1313.21 Q1547.3 1312.2 1548.33 1311.67 Q1549.36 1311.12 1550.6 1311.12 Q1553.21 1311.12 1554.71 1312.71 Q1556.23 1314.28 1556.23 1317 Q1556.23 1319.66 1554.65 1321.27 Q1553.08 1322.88 1550.46 1322.88 Q1547.47 1322.88 1545.88 1320.59 Q1544.29 1318.29 1544.29 1313.92 Q1544.29 1309.83 1546.24 1307.4 Q1548.18 1304.95 1551.46 1304.95 Q1552.34 1304.95 1553.23 1305.13 Q1554.13 1305.3 1555.1 1305.65 Z" fill="#000000" fill-rule="evenodd" fill-opacity="1" /><path clip-path="url(#clip890)" d="M1592.45 1319.53 L1594.79 1319.53 L1594.79 1336.81 L1592.45 1336.81 L1592.45 1319.53 Z" fill="#000000" fill-rule="evenodd" fill-opacity="1" /><path clip-path="url(#clip890)" d="M1610.12 1328.98 L1610.12 1336.81 L1607.99 1336.81 L1607.99 1329.05 Q1607.99 1327.21 1607.28 1326.3 Q1606.56 1325.38 1605.12 1325.38 Q1603.4 1325.38 1602.4 1326.48 Q1601.41 1327.58 1601.41 1329.48 L1601.41 1336.81 L1599.27 1336.81 L1599.27 1323.84 L1601.41 1323.84 L1601.41 1325.86 Q1602.17 1324.69 1603.2 1324.11 Q1604.24 1323.53 1605.6 1323.53 Q1607.83 1323.53 1608.98 1324.92 Q1610.12 1326.3 1610.12 1328.98 Z" fill="#000000" fill-rule="evenodd" fill-opacity="1" /><path clip-path="url(#clip890)" d="M1616.48 1320.16 L1616.48 1323.84 L1620.86 1323.84 L1620.86 1325.5 L1616.48 1325.5 L1616.48 1332.54 Q1616.48 1334.12 1616.91 1334.57 Q1617.35 1335.02 1618.68 1335.02 L1620.86 1335.02 L1620.86 1336.81 L1618.68 1336.81 Q1616.21 1336.81 1615.27 1335.89 Q1614.34 1334.97 1614.34 1332.54 L1614.34 1325.5 L1612.77 1325.5 L1612.77 1323.84 L1614.34 1323.84 L1614.34 1320.16 L1616.48 1320.16 Z" fill="#000000" fill-rule="evenodd" fill-opacity="1" /><path clip-path="url(#clip890)" d="M1631.05 1327.49 Q1632.73 1327.85 1633.66 1328.98 Q1634.61 1330.12 1634.61 1331.78 Q1634.61 1334.34 1632.85 1335.74 Q1631.1 1337.14 1627.85 1337.14 Q1626.77 1337.14 1625.61 1336.92 Q1624.46 1336.71 1623.24 1336.29 L1623.24 1334.03 Q1624.21 1334.6 1625.37 1334.89 Q1626.52 1335.18 1627.79 1335.18 Q1629.98 1335.18 1631.13 1334.31 Q1632.29 1333.44 1632.29 1331.78 Q1632.29 1330.26 1631.21 1329.4 Q1630.15 1328.53 1628.24 1328.53 L1626.22 1328.53 L1626.22 1326.61 L1628.33 1326.61 Q1630.05 1326.61 1630.97 1325.93 Q1631.88 1325.23 1631.88 1323.94 Q1631.88 1322.61 1630.93 1321.9 Q1630 1321.18 1628.24 1321.18 Q1627.28 1321.18 1626.18 1321.39 Q1625.08 1321.6 1623.76 1322.04 L1623.76 1319.96 Q1625.09 1319.58 1626.25 1319.4 Q1627.41 1319.21 1628.44 1319.21 Q1631.11 1319.21 1632.66 1320.43 Q1634.21 1321.63 1634.21 1323.69 Q1634.21 1325.13 1633.39 1326.12 Q1632.57 1327.11 1631.05 1327.49 Z" fill="#000000" fill-rule="evenodd" fill-opacity="1" /><path clip-path="url(#clip890)" d="M1641.06 1334.84 L1649.22 1334.84 L1649.22 1336.81 L1638.25 1336.81 L1638.25 1334.84 Q1639.58 1333.46 1641.87 1331.15 Q1644.17 1328.82 1644.76 1328.15 Q1645.89 1326.89 1646.33 1326.02 Q1646.78 1325.14 1646.78 1324.3 Q1646.78 1322.92 1645.81 1322.05 Q1644.85 1321.18 1643.29 1321.18 Q1642.19 1321.18 1640.97 1321.56 Q1639.75 1321.95 1638.36 1322.72 L1638.36 1320.36 Q1639.78 1319.79 1641 1319.5 Q1642.23 1319.21 1643.25 1319.21 Q1645.93 1319.21 1647.53 1320.56 Q1649.13 1321.9 1649.13 1324.15 Q1649.13 1325.21 1648.72 1326.17 Q1648.33 1327.12 1647.28 1328.42 Q1646.99 1328.75 1645.44 1330.36 Q1643.88 1331.96 1641.06 1334.84 Z" fill="#000000" fill-rule="evenodd" fill-opacity="1" /><path clip-path="url(#clip890)" d="M1403.25 1309.36 L1405.59 1309.36 L1405.59 1326.64 L1403.25 1326.64 L1403.25 1309.36 Z" fill="#000000" fill-rule="evenodd" fill-opacity="1" /><path clip-path="url(#clip890)" d="M1420.92 1318.81 L1420.92 1326.64 L1418.79 1326.64 L1418.79 1318.88 Q1418.79 1317.04 1418.08 1316.13 Q1417.36 1315.21 1415.92 1315.21 Q1414.2 1315.21 1413.2 1316.31 Q1412.21 1317.41 1412.21 1319.31 L1412.21 1326.64 L1410.07 1326.64 L1410.07 1313.67 L1412.21 1313.67 L1412.21 1315.69 Q1412.97 1314.52 1414 1313.94 Q1415.04 1313.36 1416.4 1313.36 Q1418.63 1313.36 1419.78 1314.75 Q1420.92 1316.13 1420.92 1318.81 Z" fill="#000000" fill-rule="evenodd" fill-opacity="1" /><path clip-path="url(#clip890)" d="M1427.28 1309.99 L1427.28 1313.67 L1431.67 1313.67 L1431.67 1315.33 L1427.28 1315.33 L1427.28 1322.37 Q1427.28 1323.95 1427.71 1324.4 Q1428.15 1324.85 1429.48 1324.85 L1431.67 1324.85 L1431.67 1326.64 L1429.48 1326.64 Q1427.01 1326.64 1426.08 1325.72 Q1425.14 1324.8 1425.14 1322.37 L1425.14 1315.33 L1423.58 1315.33 L1423.58 1313.67 L1425.14 1313.67 L1425.14 1309.99 L1427.28 1309.99 Z" fill="#000000" fill-rule="evenodd" fill-opacity="1" /><path clip-path="url(#clip890)" d="M1440.06 1317.07 Q1438.48 1317.07 1437.56 1318.14 Q1436.64 1319.22 1436.64 1321.09 Q1436.64 1322.96 1437.56 1324.04 Q1438.48 1325.12 1440.06 1325.12 Q1441.63 1325.12 1442.54 1324.04 Q1443.47 1322.96 1443.47 1321.09 Q1443.47 1319.22 1442.54 1318.14 Q1441.63 1317.07 1440.06 1317.07 M1444.7 1309.74 L1444.7 1311.87 Q1443.82 1311.45 1442.92 1311.23 Q1442.02 1311.01 1441.14 1311.01 Q1438.83 1311.01 1437.6 1312.57 Q1436.39 1314.14 1436.21 1317.3 Q1436.9 1316.29 1437.93 1315.76 Q1438.96 1315.21 1440.2 1315.21 Q1442.8 1315.21 1444.3 1316.8 Q1445.82 1318.37 1445.82 1321.09 Q1445.82 1323.76 1444.25 1325.36 Q1442.67 1326.97 1440.06 1326.97 Q1437.06 1326.97 1435.47 1324.68 Q1433.89 1322.38 1433.89 1318.01 Q1433.89 1313.92 1435.83 1311.49 Q1437.78 1309.04 1441.05 1309.04 Q1441.93 1309.04 1442.82 1309.22 Q1443.73 1309.39 1444.7 1309.74 Z" fill="#000000" fill-rule="evenodd" fill-opacity="1" /><path clip-path="url(#clip890)" d="M1456.27 1311.39 L1450.37 1320.62 L1456.27 1320.62 L1456.27 1311.39 M1455.66 1309.36 L1458.6 1309.36 L1458.6 1320.62 L1461.06 1320.62 L1461.06 1322.56 L1458.6 1322.56 L1458.6 1326.64 L1456.27 1326.64 L1456.27 1322.56 L1448.47 1322.56 L1448.47 1320.31 L1455.66 1309.36 Z" fill="#000000" fill-rule="evenodd" fill-opacity="1" /><path clip-path="url(#clip890)" d="M1716.46 1253.02 L1718.8 1253.02 L1718.8 1270.3 L1716.46 1270.3 L1716.46 1253.02 Z" fill="#000000" fill-rule="evenodd" fill-opacity="1" /><path clip-path="url(#clip890)" d="M1734.14 1262.48 L1734.14 1270.3 L1732.01 1270.3 L1732.01 1262.55 Q1732.01 1260.71 1731.29 1259.79 Q1730.57 1258.88 1729.14 1258.88 Q1727.41 1258.88 1726.42 1259.98 Q1725.42 1261.08 1725.42 1262.97 L1725.42 1270.3 L1723.28 1270.3 L1723.28 1257.34 L1725.42 1257.34 L1725.42 1259.35 Q1726.18 1258.18 1727.21 1257.6 Q1728.26 1257.03 1729.61 1257.03 Q1731.84 1257.03 1732.99 1258.41 Q1734.14 1259.79 1734.14 1262.48 Z" fill="#000000" fill-rule="evenodd" fill-opacity="1" /><path clip-path="url(#clip890)" d="M1740.49 1253.66 L1740.49 1257.34 L1744.88 1257.34 L1744.88 1258.99 L1740.49 1258.99 L1740.49 1266.03 Q1740.49 1267.62 1740.92 1268.07 Q1741.36 1268.52 1742.69 1268.52 L1744.88 1268.52 L1744.88 1270.3 L1742.69 1270.3 Q1740.22 1270.3 1739.29 1269.39 Q1738.35 1268.46 1738.35 1266.03 L1738.35 1258.99 L1736.79 1258.99 L1736.79 1257.34 L1738.35 1257.34 L1738.35 1253.66 L1740.49 1253.66 Z" fill="#000000" fill-rule="evenodd" fill-opacity="1" /><path clip-path="url(#clip890)" d="M1752.98 1262.1 Q1751.31 1262.1 1750.35 1262.99 Q1749.4 1263.88 1749.4 1265.44 Q1749.4 1267 1750.35 1267.89 Q1751.31 1268.79 1752.98 1268.79 Q1754.64 1268.79 1755.61 1267.89 Q1756.57 1266.99 1756.57 1265.44 Q1756.57 1263.88 1755.61 1262.99 Q1754.66 1262.1 1752.98 1262.1 M1750.64 1261.1 Q1749.14 1260.73 1748.29 1259.7 Q1747.46 1258.67 1747.46 1257.19 Q1747.46 1255.12 1748.93 1253.91 Q1750.41 1252.71 1752.98 1252.71 Q1755.56 1252.71 1757.03 1253.91 Q1758.5 1255.12 1758.5 1257.19 Q1758.5 1258.67 1757.65 1259.7 Q1756.82 1260.73 1755.33 1261.1 Q1757.02 1261.49 1757.95 1262.64 Q1758.9 1263.79 1758.9 1265.44 Q1758.9 1267.95 1757.36 1269.29 Q1755.84 1270.64 1752.98 1270.64 Q1750.12 1270.64 1748.58 1269.29 Q1747.05 1267.95 1747.05 1265.44 Q1747.05 1263.79 1748 1262.64 Q1748.95 1261.49 1750.64 1261.1 M1749.78 1257.41 Q1749.78 1258.75 1750.62 1259.5 Q1751.46 1260.26 1752.98 1260.26 Q1754.48 1260.26 1755.33 1259.5 Q1756.18 1258.75 1756.18 1257.41 Q1756.18 1256.07 1755.33 1255.31 Q1754.48 1254.56 1752.98 1254.56 Q1751.46 1254.56 1750.62 1255.31 Q1749.78 1256.07 1749.78 1257.41 Z" fill="#000000" fill-rule="evenodd" fill-opacity="1" /><path clip-path="url(#clip890)" d="M864.956 1097.35 L867.305 1097.35 L867.305 1107.85 Q867.305 1110.63 868.312 1111.86 Q869.319 1113.07 871.576 1113.07 Q873.821 1113.07 874.828 1111.86 Q875.835 1110.63 875.835 1107.85 L875.835 1097.35 L878.185 1097.35 L878.185 1108.14 Q878.185 1111.52 876.506 1113.25 Q874.84 1114.97 871.576 1114.97 Q868.3 1114.97 866.622 1113.25 Q864.956 1111.52 864.956 1108.14 L864.956 1097.35 Z" fill="#000000" fill-rule="evenodd" fill-opacity="1" /><path clip-path="url(#clip890)" d="M893.254 1106.81 L893.254 1114.63 L891.124 1114.63 L891.124 1106.88 Q891.124 1105.04 890.407 1104.13 Q889.689 1103.21 888.254 1103.21 Q886.53 1103.21 885.534 1104.31 Q884.539 1105.41 884.539 1107.31 L884.539 1114.63 L882.398 1114.63 L882.398 1101.67 L884.539 1101.67 L884.539 1103.69 Q885.303 1102.52 886.333 1101.94 Q887.374 1101.36 888.729 1101.36 Q890.962 1101.36 892.108 1102.75 Q893.254 1104.13 893.254 1106.81 Z" fill="#000000" fill-rule="evenodd" fill-opacity="1" /><path clip-path="url(#clip890)" d="M905.766 1102.05 L905.766 1104.07 Q904.863 1103.6 903.891 1103.37 Q902.918 1103.14 901.877 1103.14 Q900.291 1103.14 899.492 1103.63 Q898.705 1104.11 898.705 1105.09 Q898.705 1105.83 899.273 1106.26 Q899.84 1106.67 901.553 1107.05 L902.282 1107.22 Q904.55 1107.7 905.499 1108.59 Q906.46 1109.47 906.46 1111.06 Q906.46 1112.86 905.025 1113.92 Q903.601 1114.97 901.101 1114.97 Q900.06 1114.97 898.925 1114.76 Q897.803 1114.57 896.553 1114.16 L896.553 1111.96 Q897.733 1112.57 898.879 1112.89 Q900.025 1113.19 901.148 1113.19 Q902.652 1113.19 903.462 1112.68 Q904.273 1112.16 904.273 1111.22 Q904.273 1110.35 903.682 1109.89 Q903.104 1109.43 901.124 1109 L900.384 1108.82 Q898.405 1108.41 897.525 1107.55 Q896.645 1106.68 896.645 1105.18 Q896.645 1103.35 897.942 1102.35 Q899.238 1101.36 901.622 1101.36 Q902.803 1101.36 903.844 1101.53 Q904.886 1101.71 905.766 1102.05 Z" fill="#000000" fill-rule="evenodd" fill-opacity="1" /><path clip-path="url(#clip890)" d="M909.851 1101.67 L911.981 1101.67 L911.981 1114.63 L909.851 1114.63 L909.851 1101.67 M909.851 1096.63 L911.981 1096.63 L911.981 1099.32 L909.851 1099.32 L909.851 1096.63 Z" fill="#000000" fill-rule="evenodd" fill-opacity="1" /><path clip-path="url(#clip890)" d="M924.967 1108 Q924.967 1105.69 924.006 1104.42 Q923.057 1103.14 921.333 1103.14 Q919.62 1103.14 918.659 1104.42 Q917.71 1105.69 917.71 1108 Q917.71 1110.31 918.659 1111.58 Q919.62 1112.85 921.333 1112.85 Q923.057 1112.85 924.006 1111.58 Q924.967 1110.31 924.967 1108 M927.096 1113.03 Q927.096 1116.34 925.627 1117.95 Q924.157 1119.57 921.124 1119.57 Q920.002 1119.57 919.006 1119.39 Q918.011 1119.23 917.073 1118.88 L917.073 1116.81 Q918.011 1117.32 918.925 1117.56 Q919.84 1117.81 920.789 1117.81 Q922.884 1117.81 923.925 1116.71 Q924.967 1115.62 924.967 1113.41 L924.967 1112.35 Q924.307 1113.5 923.277 1114.07 Q922.247 1114.63 920.812 1114.63 Q918.428 1114.63 916.969 1112.82 Q915.511 1111 915.511 1108 Q915.511 1104.99 916.969 1103.18 Q918.428 1101.36 920.812 1101.36 Q922.247 1101.36 923.277 1101.93 Q924.307 1102.49 924.967 1103.64 L924.967 1101.67 L927.096 1101.67 L927.096 1113.03 Z" fill="#000000" fill-rule="evenodd" fill-opacity="1" /><path clip-path="url(#clip890)" d="M942.258 1106.81 L942.258 1114.63 L940.129 1114.63 L940.129 1106.88 Q940.129 1105.04 939.411 1104.13 Q938.694 1103.21 937.258 1103.21 Q935.534 1103.21 934.539 1104.31 Q933.543 1105.41 933.543 1107.31 L933.543 1114.63 L931.402 1114.63 L931.402 1101.67 L933.543 1101.67 L933.543 1103.69 Q934.307 1102.52 935.337 1101.94 Q936.379 1101.36 937.733 1101.36 Q939.967 1101.36 941.113 1102.75 Q942.258 1104.13 942.258 1106.81 Z" fill="#000000" fill-rule="evenodd" fill-opacity="1" /><path clip-path="url(#clip890)" d="M957.594 1107.62 L957.594 1108.66 L947.802 1108.66 Q947.941 1110.86 949.122 1112.02 Q950.314 1113.17 952.432 1113.17 Q953.659 1113.17 954.805 1112.86 Q955.962 1112.56 957.096 1111.96 L957.096 1113.98 Q955.95 1114.46 954.747 1114.72 Q953.543 1114.97 952.305 1114.97 Q949.203 1114.97 947.386 1113.17 Q945.58 1111.36 945.58 1108.28 Q945.58 1105.1 947.293 1103.23 Q949.018 1101.36 951.934 1101.36 Q954.55 1101.36 956.066 1103.05 Q957.594 1104.73 957.594 1107.62 M955.464 1107 Q955.441 1105.25 954.481 1104.21 Q953.532 1103.17 951.957 1103.17 Q950.175 1103.17 949.099 1104.17 Q948.034 1105.18 947.872 1107.01 L955.464 1107 Z" fill="#000000" fill-rule="evenodd" fill-opacity="1" /><path clip-path="url(#clip890)" d="M969.619 1103.64 L969.619 1096.63 L971.749 1096.63 L971.749 1114.63 L969.619 1114.63 L969.619 1112.69 Q968.948 1113.85 967.918 1114.42 Q966.9 1114.97 965.464 1114.97 Q963.115 1114.97 961.633 1113.1 Q960.163 1111.22 960.163 1108.17 Q960.163 1105.11 961.633 1103.23 Q963.115 1101.36 965.464 1101.36 Q966.9 1101.36 967.918 1101.93 Q968.948 1102.48 969.619 1103.64 M962.362 1108.17 Q962.362 1110.51 963.323 1111.86 Q964.295 1113.19 965.985 1113.19 Q967.675 1113.19 968.647 1111.86 Q969.619 1110.51 969.619 1108.17 Q969.619 1105.82 968.647 1104.48 Q967.675 1103.14 965.985 1103.14 Q964.295 1103.14 963.323 1104.48 Q962.362 1105.82 962.362 1108.17 Z" fill="#000000" fill-rule="evenodd" fill-opacity="1" /><path clip-path="url(#clip890)" d="M675.948 1259.22 L678.297 1259.22 L678.297 1269.72 Q678.297 1272.5 679.304 1273.72 Q680.311 1274.94 682.568 1274.94 Q684.813 1274.94 685.82 1273.72 Q686.827 1272.5 686.827 1269.72 L686.827 1259.22 L689.177 1259.22 L689.177 1270.01 Q689.177 1273.39 687.499 1275.11 Q685.832 1276.84 682.568 1276.84 Q679.293 1276.84 677.614 1275.11 Q675.948 1273.39 675.948 1270.01 L675.948 1259.22 Z" fill="#000000" fill-rule="evenodd" fill-opacity="1" /><path clip-path="url(#clip890)" d="M693.563 1259.22 L695.901 1259.22 L695.901 1276.5 L693.563 1276.5 L693.563 1259.22 Z" fill="#000000" fill-rule="evenodd" fill-opacity="1" /><path clip-path="url(#clip890)" d="M711.237 1268.68 L711.237 1276.5 L709.107 1276.5 L709.107 1268.75 Q709.107 1266.9 708.39 1265.99 Q707.672 1265.08 706.237 1265.08 Q704.512 1265.08 703.517 1266.18 Q702.522 1267.28 702.522 1269.17 L702.522 1276.5 L700.38 1276.5 L700.38 1263.54 L702.522 1263.54 L702.522 1265.55 Q703.286 1264.38 704.316 1263.8 Q705.357 1263.22 706.711 1263.22 Q708.945 1263.22 710.091 1264.61 Q711.237 1265.99 711.237 1268.68 Z" fill="#000000" fill-rule="evenodd" fill-opacity="1" /><path clip-path="url(#clip890)" d="M717.591 1259.86 L717.591 1263.54 L721.978 1263.54 L721.978 1265.19 L717.591 1265.19 L717.591 1272.23 Q717.591 1273.81 718.019 1274.27 Q718.459 1274.72 719.79 1274.72 L721.978 1274.72 L721.978 1276.5 L719.79 1276.5 Q717.325 1276.5 716.387 1275.59 Q715.45 1274.66 715.45 1272.23 L715.45 1265.19 L713.887 1265.19 L713.887 1263.54 L715.45 1263.54 L715.45 1259.86 L717.591 1259.86 Z" fill="#000000" fill-rule="evenodd" fill-opacity="1" /><path clip-path="url(#clip890)" d="M725.484 1274.53 L729.304 1274.53 L729.304 1261.35 L725.149 1262.18 L725.149 1260.05 L729.281 1259.22 L731.619 1259.22 L731.619 1274.53 L735.438 1274.53 L735.438 1276.5 L725.484 1276.5 L725.484 1274.53 Z" fill="#000000" fill-rule="evenodd" fill-opacity="1" /><path clip-path="url(#clip890)" d="M742.174 1274.53 L750.334 1274.53 L750.334 1276.5 L739.362 1276.5 L739.362 1274.53 Q740.693 1273.15 742.984 1270.84 Q745.288 1268.51 745.878 1267.84 Q747.001 1266.58 747.44 1265.71 Q747.892 1264.83 747.892 1263.99 Q747.892 1262.61 746.92 1261.74 Q745.959 1260.87 744.408 1260.87 Q743.308 1260.87 742.082 1261.26 Q740.866 1261.64 739.477 1262.41 L739.477 1260.05 Q740.89 1259.49 742.116 1259.2 Q743.343 1258.91 744.362 1258.91 Q747.047 1258.91 748.644 1260.25 Q750.241 1261.59 750.241 1263.84 Q750.241 1264.9 749.836 1265.86 Q749.443 1266.81 748.389 1268.11 Q748.1 1268.44 746.549 1270.05 Q744.998 1271.65 742.174 1274.53 Z" fill="#000000" fill-rule="evenodd" fill-opacity="1" /><path clip-path="url(#clip890)" d="M760.241 1268.29 Q758.575 1268.29 757.614 1269.18 Q756.665 1270.08 756.665 1271.64 Q756.665 1273.2 757.614 1274.09 Q758.575 1274.98 760.241 1274.98 Q761.908 1274.98 762.869 1274.09 Q763.829 1273.19 763.829 1271.64 Q763.829 1270.08 762.869 1269.18 Q761.919 1268.29 760.241 1268.29 M757.903 1267.3 Q756.399 1266.93 755.554 1265.9 Q754.72 1264.87 754.72 1263.39 Q754.72 1261.31 756.19 1260.11 Q757.672 1258.91 760.241 1258.91 Q762.822 1258.91 764.292 1260.11 Q765.762 1261.31 765.762 1263.39 Q765.762 1264.87 764.917 1265.9 Q764.084 1266.93 762.591 1267.3 Q764.281 1267.69 765.218 1268.84 Q766.167 1269.98 766.167 1271.64 Q766.167 1274.15 764.628 1275.49 Q763.1 1276.84 760.241 1276.84 Q757.382 1276.84 755.843 1275.49 Q754.315 1274.15 754.315 1271.64 Q754.315 1269.98 755.264 1268.84 Q756.214 1267.69 757.903 1267.3 M757.047 1263.61 Q757.047 1264.95 757.88 1265.7 Q758.725 1266.45 760.241 1266.45 Q761.746 1266.45 762.591 1265.7 Q763.447 1264.95 763.447 1263.61 Q763.447 1262.26 762.591 1261.51 Q761.746 1260.76 760.241 1260.76 Q758.725 1260.76 757.88 1261.51 Q757.047 1262.26 757.047 1263.61 Z" fill="#000000" fill-rule="evenodd" fill-opacity="1" /><path clip-path="url(#clip890)" d="M965.514 1329.04 L967.864 1329.04 L967.864 1339.54 Q967.864 1342.32 968.871 1343.55 Q969.878 1344.76 972.135 1344.76 Q974.38 1344.76 975.387 1343.55 Q976.394 1342.32 976.394 1339.54 L976.394 1329.04 L978.744 1329.04 L978.744 1339.83 Q978.744 1343.21 977.065 1344.93 Q975.399 1346.66 972.135 1346.66 Q968.859 1346.66 967.181 1344.93 Q965.514 1343.21 965.514 1339.83 L965.514 1329.04 Z" fill="#000000" fill-rule="evenodd" fill-opacity="1" /><path clip-path="url(#clip890)" d="M983.13 1329.04 L985.468 1329.04 L985.468 1346.32 L983.13 1346.32 L983.13 1329.04 Z" fill="#000000" fill-rule="evenodd" fill-opacity="1" /><path clip-path="url(#clip890)" d="M1000.8 1338.5 L1000.8 1346.32 L998.674 1346.32 L998.674 1338.57 Q998.674 1336.73 997.956 1335.81 Q997.239 1334.9 995.804 1334.9 Q994.079 1334.9 993.084 1336 Q992.088 1337.1 992.088 1339 L992.088 1346.32 L989.947 1346.32 L989.947 1333.36 L992.088 1333.36 L992.088 1335.37 Q992.852 1334.2 993.882 1333.63 Q994.924 1333.05 996.278 1333.05 Q998.512 1333.05 999.658 1334.44 Q1000.8 1335.81 1000.8 1338.5 Z" fill="#000000" fill-rule="evenodd" fill-opacity="1" /><path clip-path="url(#clip890)" d="M1007.16 1329.68 L1007.16 1333.36 L1011.54 1333.36 L1011.54 1335.01 L1007.16 1335.01 L1007.16 1342.05 Q1007.16 1343.64 1007.59 1344.09 Q1008.03 1344.54 1009.36 1344.54 L1011.54 1344.54 L1011.54 1346.32 L1009.36 1346.32 Q1006.89 1346.32 1005.95 1345.41 Q1005.02 1344.48 1005.02 1342.05 L1005.02 1335.01 L1003.45 1335.01 L1003.45 1333.36 L1005.02 1333.36 L1005.02 1329.68 L1007.16 1329.68 Z" fill="#000000" fill-rule="evenodd" fill-opacity="1" /><path clip-path="url(#clip890)" d="M1015.05 1344.36 L1018.87 1344.36 L1018.87 1331.17 L1014.72 1332.01 L1014.72 1329.88 L1018.85 1329.04 L1021.19 1329.04 L1021.19 1344.36 L1025 1344.36 L1025 1346.32 L1015.05 1346.32 L1015.05 1344.36 Z" fill="#000000" fill-rule="evenodd" fill-opacity="1" /><path clip-path="url(#clip890)" d="M1035.02 1336.75 Q1033.44 1336.75 1032.52 1337.83 Q1031.6 1338.9 1031.6 1340.78 Q1031.6 1342.64 1032.52 1343.73 Q1033.44 1344.81 1035.02 1344.81 Q1036.59 1344.81 1037.5 1343.73 Q1038.43 1342.64 1038.43 1340.78 Q1038.43 1338.9 1037.5 1337.83 Q1036.59 1336.75 1035.02 1336.75 M1039.66 1329.42 L1039.66 1331.55 Q1038.78 1331.14 1037.88 1330.92 Q1036.98 1330.7 1036.1 1330.7 Q1033.79 1330.7 1032.56 1332.26 Q1031.35 1333.82 1031.17 1336.98 Q1031.86 1335.98 1032.89 1335.44 Q1033.92 1334.9 1035.16 1334.9 Q1037.76 1334.9 1039.26 1336.48 Q1040.78 1338.06 1040.78 1340.78 Q1040.78 1343.44 1039.21 1345.05 Q1037.63 1346.66 1035.02 1346.66 Q1032.02 1346.66 1030.43 1344.37 Q1028.85 1342.06 1028.85 1337.7 Q1028.85 1333.6 1030.79 1331.17 Q1032.74 1328.73 1036.01 1328.73 Q1036.89 1328.73 1037.78 1328.9 Q1038.69 1329.08 1039.66 1329.42 Z" fill="#000000" fill-rule="evenodd" fill-opacity="1" /><path clip-path="url(#clip890)" d="M625.124 1281.79 L627.474 1281.79 L627.474 1292.29 Q627.474 1295.07 628.481 1296.3 Q629.488 1297.51 631.744 1297.51 Q633.99 1297.51 634.997 1296.3 Q636.004 1295.07 636.004 1292.29 L636.004 1281.79 L638.353 1281.79 L638.353 1292.58 Q638.353 1295.96 636.675 1297.69 Q635.008 1299.41 631.744 1299.41 Q628.469 1299.41 626.791 1297.69 Q625.124 1295.96 625.124 1292.58 L625.124 1281.79 Z" fill="#000000" fill-rule="evenodd" fill-opacity="1" /><path clip-path="url(#clip890)" d="M642.74 1281.79 L645.078 1281.79 L645.078 1299.07 L642.74 1299.07 L642.74 1281.79 Z" fill="#000000" fill-rule="evenodd" fill-opacity="1" /><path clip-path="url(#clip890)" d="M660.413 1291.25 L660.413 1299.07 L658.284 1299.07 L658.284 1291.32 Q658.284 1289.48 657.566 1288.56 Q656.848 1287.65 655.413 1287.65 Q653.689 1287.65 652.693 1288.75 Q651.698 1289.85 651.698 1291.75 L651.698 1299.07 L649.557 1299.07 L649.557 1286.11 L651.698 1286.11 L651.698 1288.13 Q652.462 1286.96 653.492 1286.38 Q654.534 1285.8 655.888 1285.8 Q658.122 1285.8 659.267 1287.19 Q660.413 1288.56 660.413 1291.25 Z" fill="#000000" fill-rule="evenodd" fill-opacity="1" /><path clip-path="url(#clip890)" d="M666.767 1282.43 L666.767 1286.11 L671.154 1286.11 L671.154 1287.77 L666.767 1287.77 L666.767 1294.8 Q666.767 1296.39 667.196 1296.84 Q667.635 1297.29 668.966 1297.29 L671.154 1297.29 L671.154 1299.07 L668.966 1299.07 Q666.501 1299.07 665.564 1298.16 Q664.626 1297.23 664.626 1294.8 L664.626 1287.77 L663.064 1287.77 L663.064 1286.11 L664.626 1286.11 L664.626 1282.43 L666.767 1282.43 Z" fill="#000000" fill-rule="evenodd" fill-opacity="1" /><path clip-path="url(#clip890)" d="M681.339 1289.76 Q683.017 1290.12 683.955 1291.25 Q684.904 1292.38 684.904 1294.05 Q684.904 1296.61 683.145 1298.01 Q681.385 1299.41 678.145 1299.41 Q677.057 1299.41 675.899 1299.19 Q674.753 1298.98 673.527 1298.55 L673.527 1296.3 Q674.499 1296.86 675.656 1297.15 Q676.814 1297.44 678.075 1297.44 Q680.274 1297.44 681.42 1296.57 Q682.578 1295.71 682.578 1294.05 Q682.578 1292.52 681.501 1291.67 Q680.436 1290.8 678.527 1290.8 L676.513 1290.8 L676.513 1288.88 L678.619 1288.88 Q680.344 1288.88 681.258 1288.19 Q682.172 1287.5 682.172 1286.2 Q682.172 1284.87 681.223 1284.17 Q680.286 1283.45 678.527 1283.45 Q677.566 1283.45 676.466 1283.66 Q675.367 1283.87 674.047 1284.31 L674.047 1282.22 Q675.378 1281.85 676.536 1281.67 Q677.705 1281.48 678.735 1281.48 Q681.397 1281.48 682.948 1282.7 Q684.499 1283.9 684.499 1285.96 Q684.499 1287.4 683.677 1288.39 Q682.855 1289.38 681.339 1289.76 Z" fill="#000000" fill-rule="evenodd" fill-opacity="1" /><path clip-path="url(#clip890)" d="M691.351 1297.11 L699.51 1297.11 L699.51 1299.07 L688.538 1299.07 L688.538 1297.11 Q689.869 1295.73 692.161 1293.41 Q694.464 1291.09 695.054 1290.42 Q696.177 1289.16 696.617 1288.29 Q697.068 1287.41 697.068 1286.56 Q697.068 1285.19 696.096 1284.32 Q695.135 1283.45 693.584 1283.45 Q692.485 1283.45 691.258 1283.83 Q690.043 1284.21 688.654 1284.99 L688.654 1282.63 Q690.066 1282.06 691.293 1281.77 Q692.52 1281.48 693.538 1281.48 Q696.223 1281.48 697.82 1282.82 Q699.418 1284.17 699.418 1286.41 Q699.418 1287.48 699.013 1288.44 Q698.619 1289.39 697.566 1290.68 Q697.277 1291.02 695.726 1292.63 Q694.175 1294.22 691.351 1297.11 Z" fill="#000000" fill-rule="evenodd" fill-opacity="1" /><path clip-path="url(#clip890)" d="M760.818 1254.83 L763.168 1254.83 L763.168 1265.33 Q763.168 1268.11 764.175 1269.33 Q765.181 1270.55 767.438 1270.55 Q769.684 1270.55 770.691 1269.33 Q771.698 1268.11 771.698 1265.33 L771.698 1254.83 L774.047 1254.83 L774.047 1265.62 Q774.047 1269 772.369 1270.72 Q770.702 1272.45 767.438 1272.45 Q764.163 1272.45 762.485 1270.72 Q760.818 1269 760.818 1265.62 L760.818 1254.83 Z" fill="#000000" fill-rule="evenodd" fill-opacity="1" /><path clip-path="url(#clip890)" d="M778.434 1254.83 L780.772 1254.83 L780.772 1272.11 L778.434 1272.11 L778.434 1254.83 Z" fill="#000000" fill-rule="evenodd" fill-opacity="1" /><path clip-path="url(#clip890)" d="M796.107 1264.29 L796.107 1272.11 L793.978 1272.11 L793.978 1264.36 Q793.978 1262.52 793.26 1261.6 Q792.542 1260.69 791.107 1260.69 Q789.383 1260.69 788.387 1261.79 Q787.392 1262.89 787.392 1264.78 L787.392 1272.11 L785.251 1272.11 L785.251 1259.15 L787.392 1259.15 L787.392 1261.16 Q788.156 1259.99 789.186 1259.41 Q790.228 1258.84 791.582 1258.84 Q793.816 1258.84 794.961 1260.22 Q796.107 1261.6 796.107 1264.29 Z" fill="#000000" fill-rule="evenodd" fill-opacity="1" /><path clip-path="url(#clip890)" d="M802.461 1255.47 L802.461 1259.15 L806.848 1259.15 L806.848 1260.8 L802.461 1260.8 L802.461 1267.84 Q802.461 1269.43 802.89 1269.88 Q803.329 1270.33 804.66 1270.33 L806.848 1270.33 L806.848 1272.11 L804.66 1272.11 Q802.195 1272.11 801.258 1271.2 Q800.32 1270.27 800.32 1267.84 L800.32 1260.8 L798.758 1260.8 L798.758 1259.15 L800.32 1259.15 L800.32 1255.47 L802.461 1255.47 Z" fill="#000000" fill-rule="evenodd" fill-opacity="1" /><path clip-path="url(#clip890)" d="M815.239 1262.54 Q813.665 1262.54 812.739 1263.62 Q811.825 1264.69 811.825 1266.57 Q811.825 1268.43 812.739 1269.52 Q813.665 1270.59 815.239 1270.59 Q816.813 1270.59 817.727 1269.52 Q818.653 1268.43 818.653 1266.57 Q818.653 1264.69 817.727 1263.62 Q816.813 1262.54 815.239 1262.54 M819.88 1255.21 L819.88 1257.34 Q819.001 1256.93 818.098 1256.71 Q817.207 1256.49 816.327 1256.49 Q814.012 1256.49 812.785 1258.05 Q811.57 1259.61 811.396 1262.77 Q812.079 1261.76 813.109 1261.23 Q814.14 1260.69 815.378 1260.69 Q817.982 1260.69 819.487 1262.27 Q821.003 1263.85 821.003 1266.57 Q821.003 1269.23 819.429 1270.84 Q817.855 1272.45 815.239 1272.45 Q812.241 1272.45 810.656 1270.15 Q809.07 1267.85 809.07 1263.49 Q809.07 1259.39 811.015 1256.96 Q812.959 1254.52 816.234 1254.52 Q817.114 1254.52 818.005 1254.69 Q818.908 1254.87 819.88 1255.21 Z" fill="#000000" fill-rule="evenodd" fill-opacity="1" /><path clip-path="url(#clip890)" d="M831.454 1256.87 L825.552 1266.09 L831.454 1266.09 L831.454 1256.87 M830.841 1254.83 L833.781 1254.83 L833.781 1266.09 L836.246 1266.09 L836.246 1268.04 L833.781 1268.04 L833.781 1272.11 L831.454 1272.11 L831.454 1268.04 L823.653 1268.04 L823.653 1265.78 L830.841 1254.83 Z" fill="#000000" fill-rule="evenodd" fill-opacity="1" /><path clip-path="url(#clip890)" d="M868.603 1291.09 L870.953 1291.09 L870.953 1301.58 Q870.953 1304.36 871.96 1305.59 Q872.967 1306.8 875.224 1306.8 Q877.469 1306.8 878.476 1305.59 Q879.483 1304.36 879.483 1301.58 L879.483 1291.09 L881.832 1291.09 L881.832 1301.87 Q881.832 1305.25 880.154 1306.98 Q878.487 1308.7 875.224 1308.7 Q871.948 1308.7 870.27 1306.98 Q868.603 1305.25 868.603 1301.87 L868.603 1291.09 Z" fill="#000000" fill-rule="evenodd" fill-opacity="1" /><path clip-path="url(#clip890)" d="M886.219 1291.09 L888.557 1291.09 L888.557 1308.37 L886.219 1308.37 L886.219 1291.09 Z" fill="#000000" fill-rule="evenodd" fill-opacity="1" /><path clip-path="url(#clip890)" d="M903.892 1300.54 L903.892 1308.37 L901.763 1308.37 L901.763 1300.61 Q901.763 1298.77 901.045 1297.86 Q900.328 1296.94 898.892 1296.94 Q897.168 1296.94 896.172 1298.04 Q895.177 1299.14 895.177 1301.04 L895.177 1308.37 L893.036 1308.37 L893.036 1295.4 L895.177 1295.4 L895.177 1297.42 Q895.941 1296.25 896.971 1295.67 Q898.013 1295.09 899.367 1295.09 Q901.601 1295.09 902.747 1296.48 Q903.892 1297.86 903.892 1300.54 Z" fill="#000000" fill-rule="evenodd" fill-opacity="1" /><path clip-path="url(#clip890)" d="M910.246 1291.72 L910.246 1295.4 L914.633 1295.4 L914.633 1297.06 L910.246 1297.06 L910.246 1304.1 Q910.246 1305.68 910.675 1306.13 Q911.115 1306.58 912.446 1306.58 L914.633 1306.58 L914.633 1308.37 L912.446 1308.37 Q909.98 1308.37 909.043 1307.45 Q908.105 1306.53 908.105 1304.1 L908.105 1297.06 L906.543 1297.06 L906.543 1295.4 L908.105 1295.4 L908.105 1291.72 L910.246 1291.72 Z" fill="#000000" fill-rule="evenodd" fill-opacity="1" /><path clip-path="url(#clip890)" d="M922.735 1300.16 Q921.068 1300.16 920.108 1301.05 Q919.158 1301.94 919.158 1303.51 Q919.158 1305.07 920.108 1305.96 Q921.068 1306.85 922.735 1306.85 Q924.401 1306.85 925.362 1305.96 Q926.323 1305.06 926.323 1303.51 Q926.323 1301.94 925.362 1301.05 Q924.413 1300.16 922.735 1300.16 M920.397 1299.17 Q918.892 1298.8 918.047 1297.77 Q917.214 1296.73 917.214 1295.25 Q917.214 1293.18 918.684 1291.98 Q920.165 1290.77 922.735 1290.77 Q925.316 1290.77 926.786 1291.98 Q928.256 1293.18 928.256 1295.25 Q928.256 1296.73 927.411 1297.77 Q926.577 1298.8 925.084 1299.17 Q926.774 1299.56 927.712 1300.7 Q928.661 1301.85 928.661 1303.51 Q928.661 1306.02 927.121 1307.36 Q925.594 1308.7 922.735 1308.7 Q919.876 1308.7 918.337 1307.36 Q916.809 1306.02 916.809 1303.51 Q916.809 1301.85 917.758 1300.7 Q918.707 1299.56 920.397 1299.17 M919.54 1295.47 Q919.54 1296.82 920.374 1297.57 Q921.219 1298.32 922.735 1298.32 Q924.239 1298.32 925.084 1297.57 Q925.941 1296.82 925.941 1295.47 Q925.941 1294.13 925.084 1293.38 Q924.239 1292.63 922.735 1292.63 Q921.219 1292.63 920.374 1293.38 Q919.54 1294.13 919.54 1295.47 Z" fill="#000000" fill-rule="evenodd" fill-opacity="1" /></svg>
