<?xml version="1.0" encoding="utf-8"?>
<svg xmlns="http://www.w3.org/2000/svg" xmlns:xlink="http://www.w3.org/1999/xlink" width="600" height="400" viewBox="0 0 2400 1600">
<defs>
  <clipPath id="clip730">
    <rect x="0" y="0" width="2400" height="1600"/>
  </clipPath>
</defs>
<path clip-path="url(#clip730)" d="
M0 1600 L2400 1600 L2400 0 L0 0  Z
  " fill="#ffffff" fill-rule="evenodd" fill-opacity="1"/>
<defs>
  <clipPath id="clip731">
    <rect x="480" y="0" width="1681" height="1600"/>
  </clipPath>
</defs>
<path clip-path="url(#clip730)" d="
M447.244 1552.76 L1952.76 1552.76 L1952.76 47.2441 L447.244 47.2441  Z
  " fill="#ffffff" fill-rule="evenodd" fill-opacity="1"/>
<defs>
  <clipPath id="clip732">
    <rect x="447" y="47" width="1507" height="1507"/>
  </clipPath>
</defs>
<polyline clip-path="url(#clip732)" style="stroke:#000000; stroke-linecap:butt; stroke-linejoin:round; stroke-width:4; stroke-opacity:1; fill:none" points="
  1570.2,262.317 1570.2,271.038 1570.2,279.944 1570.2,289.02 1570.2,298.254 1570.2,307.632 1570.2,317.139 1570.2,326.762 1570.2,336.488 1570.21,346.303 
  1570.21,356.193 1570.21,366.145 1570.21,376.144 1570.21,386.178 1570.21,396.232 1570.21,406.293 1570.21,416.347 1570.21,426.381 1570.22,436.38 1570.22,446.332 
  1570.22,456.222 1570.22,466.037 1570.22,475.763 1570.22,485.386 1570.22,494.893 1570.22,504.271 1570.22,513.505 1570.22,522.581 1570.22,531.487 1570.22,540.208 
  
  "/>
<polyline clip-path="url(#clip732)" style="stroke:#000000; stroke-linecap:butt; stroke-linejoin:round; stroke-width:4; stroke-opacity:1; fill:none" points="
  1570.22,540.208 1569.84,549.055 1568.71,557.94 1566.9,566.861 1564.46,575.815 1561.45,584.799 1557.92,593.811 1553.92,602.846 1549.51,611.903 1544.74,620.979 
  1539.68,630.07 1534.37,639.174 1528.87,648.288 1523.23,657.409 1517.51,666.535 1511.76,675.662 1506.04,684.788 1500.4,693.909 1494.89,703.023 1489.58,712.127 
  1484.52,721.218 1479.76,730.294 1475.35,739.351 1471.35,748.386 1467.82,757.398 1464.8,766.382 1462.36,775.336 1460.55,784.257 1459.43,793.142 1459.04,801.989 
  
  "/>
<polyline clip-path="url(#clip732)" style="stroke:#000000; stroke-linecap:butt; stroke-linejoin:round; stroke-width:4; stroke-opacity:1; fill:none" points="
  1459.04,801.989 1457.97,810.458 1454.87,818.364 1449.88,825.749 1443.16,832.655 1434.86,839.123 1425.12,845.195 1414.11,850.912 1401.96,856.317 1388.83,861.452 
  1374.88,866.356 1360.24,871.074 1345.08,875.645 1329.54,880.112 1313.77,884.517 1297.93,888.9 1282.17,893.305 1266.63,897.772 1251.47,902.344 1236.83,907.061 
  1222.88,911.966 1209.75,917.1 1197.6,922.505 1186.59,928.222 1176.85,934.294 1168.55,940.762 1161.83,947.668 1156.84,955.053 1153.74,962.959 1152.67,971.428 
  
  "/>
<polyline clip-path="url(#clip732)" style="stroke:#000000; stroke-linecap:butt; stroke-linejoin:round; stroke-width:4; stroke-opacity:1; fill:none" points="
  1152.67,971.428 1154.71,986.711 1160.63,1000.98 1170.15,1014.31 1182.99,1026.77 1198.84,1038.44 1217.43,1049.4 1238.47,1059.72 1261.66,1069.47 1286.73,1078.74 
  1313.38,1087.59 1341.32,1096.1 1370.28,1104.35 1399.95,1112.41 1430.05,1120.36 1460.3,1128.27 1490.4,1136.22 1520.07,1144.28 1549.03,1152.53 1576.97,1161.05 
  1603.62,1169.9 1628.69,1179.16 1651.88,1188.92 1672.92,1199.24 1691.51,1210.19 1707.36,1221.87 1720.2,1234.33 1729.72,1247.66 1735.64,1261.92 1737.68,1277.21 
  
  "/>
<polyline clip-path="url(#clip732)" style="stroke:#000000; stroke-linecap:butt; stroke-linejoin:round; stroke-width:4; stroke-opacity:1; fill:none" points="
  1152.67,971.428 1152.17,983.681 1150.71,996.015 1148.37,1008.42 1145.22,1020.9 1141.32,1033.44 1136.75,1046.04 1131.58,1058.68 1125.88,1071.38 1119.72,1084.11 
  1113.17,1096.87 1106.3,1109.66 1099.19,1122.47 1091.9,1135.3 1084.5,1148.14 1077.06,1160.97 1069.67,1173.81 1062.37,1186.64 1055.26,1199.45 1048.39,1212.24 
  1041.84,1225 1035.68,1237.73 1029.98,1250.43 1024.81,1263.07 1020.24,1275.67 1016.35,1288.21 1013.19,1300.69 1010.85,1313.1 1009.4,1325.43 1008.89,1337.68 
  
  "/>
<polyline clip-path="url(#clip732)" style="stroke:#000000; stroke-linecap:butt; stroke-linejoin:round; stroke-width:4; stroke-opacity:1; fill:none" points="
  1152.67,971.428 1153.51,983.059 1155.97,994.363 1159.91,1005.36 1165.23,1016.09 1171.8,1026.56 1179.5,1036.79 1188.22,1046.83 1197.83,1056.68 1208.22,1066.37 
  1219.26,1075.93 1230.84,1085.38 1242.83,1094.75 1255.13,1104.06 1267.6,1113.33 1280.13,1122.58 1292.6,1131.85 1304.9,1141.16 1316.89,1150.53 1328.47,1159.98 
  1339.52,1169.54 1349.9,1179.23 1359.51,1189.08 1368.23,1199.12 1375.93,1209.35 1382.5,1219.82 1387.82,1230.55 1391.76,1241.55 1394.22,1252.85 1395.06,1264.48 
  
  "/>
<polyline clip-path="url(#clip732)" style="stroke:#000000; stroke-linecap:butt; stroke-linejoin:round; stroke-width:4; stroke-opacity:1; fill:none" points="
  1152.67,971.428 1150.96,986.827 1145.99,1001.2 1138.01,1014.63 1127.26,1027.19 1113.97,1038.95 1098.38,1049.99 1080.75,1060.39 1061.31,1070.22 1040.3,1079.55 
  1017.96,1088.47 994.539,1097.05 970.272,1105.36 945.402,1113.48 920.169,1121.49 894.816,1129.46 869.584,1137.47 844.714,1145.6 820.446,1153.91 797.024,1162.49 
  774.686,1171.41 753.676,1180.74 734.234,1190.57 716.602,1200.97 701.02,1212.01 687.73,1223.77 676.974,1236.32 668.992,1249.75 664.026,1264.13 662.317,1279.53 
  
  "/>
<path clip-path="url(#clip732)" d="
M1598.17 262.317 L1584.18 238.095 L1556.22 238.095 L1542.23 262.317 L1556.22 286.539 L1584.18 286.539 L1598.17 262.317 L1598.17 262.317  Z
  " fill="#009af9" fill-rule="evenodd" fill-opacity="1"/>
<polyline clip-path="url(#clip732)" style="stroke:#000000; stroke-linecap:butt; stroke-linejoin:round; stroke-width:4; stroke-opacity:1; fill:none" points="
  1598.17,262.317 1584.18,238.095 1556.22,238.095 1542.23,262.317 1556.22,286.539 1584.18,286.539 1598.17,262.317 
  "/>
<path clip-path="url(#clip732)" d="
M1618.92 540.208 L1594.57 498.035 L1545.88 498.035 L1521.53 540.208 L1545.88 582.38 L1594.57 582.38 L1618.92 540.208 L1618.92 540.208  Z
  " fill="#009af9" fill-rule="evenodd" fill-opacity="1"/>
<polyline clip-path="url(#clip732)" style="stroke:#000000; stroke-linecap:butt; stroke-linejoin:round; stroke-width:4; stroke-opacity:1; fill:none" points="
  1618.92,540.208 1594.57,498.035 1545.88,498.035 1521.53,540.208 1545.88,582.38 1594.57,582.38 1618.92,540.208 
  "/>
<path clip-path="url(#clip732)" d="
M1494.25 801.989 L1476.64 771.499 L1441.44 771.499 L1423.83 801.989 L1441.44 832.479 L1476.64 832.479 L1494.25 801.989 L1494.25 801.989  Z
  " fill="#009af9" fill-rule="evenodd" fill-opacity="1"/>
<polyline clip-path="url(#clip732)" style="stroke:#000000; stroke-linecap:butt; stroke-linejoin:round; stroke-width:4; stroke-opacity:1; fill:none" points="
  1494.25,801.989 1476.64,771.499 1441.44,771.499 1423.83,801.989 1441.44,832.479 1476.64,832.479 1494.25,801.989 
  "/>
<path clip-path="url(#clip732)" d="
M1243.06 971.428 L1197.86 893.145 L1107.47 893.145 L1062.28 971.428 L1107.47 1049.71 L1197.86 1049.71 L1243.06 971.428 L1243.06 971.428  Z
  " fill="#009af9" fill-rule="evenodd" fill-opacity="1"/>
<polyline clip-path="url(#clip732)" style="stroke:#000000; stroke-linecap:butt; stroke-linejoin:round; stroke-width:4; stroke-opacity:1; fill:none" points="
  1243.06,971.428 1197.86,893.145 1107.47,893.145 1062.28,971.428 1107.47,1049.71 1197.86,1049.71 1243.06,971.428 
  "/>
<path clip-path="url(#clip732)" d="
M1798.98 1277.21 L1768.33 1224.12 L1707.03 1224.12 L1676.38 1277.21 L1707.03 1330.29 L1768.33 1330.29 L1798.98 1277.21 L1798.98 1277.21  Z
  " fill="#009af9" fill-rule="evenodd" fill-opacity="1"/>
<polyline clip-path="url(#clip732)" style="stroke:#000000; stroke-linecap:butt; stroke-linejoin:round; stroke-width:4; stroke-opacity:1; fill:none" points="
  1798.98,1277.21 1768.33,1224.12 1707.03,1224.12 1676.38,1277.21 1707.03,1330.29 1768.33,1330.29 1798.98,1277.21 
  "/>
<path clip-path="url(#clip732)" d="
M1063.98 1337.68 L1036.44 1289.98 L981.35 1289.98 L953.806 1337.68 L981.35 1385.39 L1036.44 1385.39 L1063.98 1337.68 L1063.98 1337.68  Z
  " fill="#009af9" fill-rule="evenodd" fill-opacity="1"/>
<polyline clip-path="url(#clip732)" style="stroke:#000000; stroke-linecap:butt; stroke-linejoin:round; stroke-width:4; stroke-opacity:1; fill:none" points="
  1063.98,1337.68 1036.44,1289.98 981.35,1289.98 953.806,1337.68 981.35,1385.39 1036.44,1385.39 1063.98,1337.68 
  "/>
<path clip-path="url(#clip732)" d="
M1450.15 1264.48 L1422.61 1216.78 L1367.52 1216.78 L1339.97 1264.48 L1367.52 1312.19 L1422.61 1312.19 L1450.15 1264.48 L1450.15 1264.48  Z
  " fill="#009af9" fill-rule="evenodd" fill-opacity="1"/>
<polyline clip-path="url(#clip732)" style="stroke:#000000; stroke-linecap:butt; stroke-linejoin:round; stroke-width:4; stroke-opacity:1; fill:none" points="
  1450.15,1264.48 1422.61,1216.78 1367.52,1216.78 1339.97,1264.48 1367.52,1312.19 1422.61,1312.19 1450.15,1264.48 
  "/>
<path clip-path="url(#clip732)" d="
M717.405 1279.53 L689.861 1231.82 L634.773 1231.82 L607.229 1279.53 L634.773 1327.24 L689.861 1327.24 L717.405 1279.53 L717.405 1279.53  Z
  " fill="#009af9" fill-rule="evenodd" fill-opacity="1"/>
<polyline clip-path="url(#clip732)" style="stroke:#000000; stroke-linecap:butt; stroke-linejoin:round; stroke-width:4; stroke-opacity:1; fill:none" points="
  717.405,1279.53 689.861,1231.82 634.773,1231.82 607.229,1279.53 634.773,1327.24 689.861,1327.24 717.405,1279.53 
  "/>
<circle clip-path="url(#clip732)" style="fill:#009af9; stroke:none; fill-opacity:1" cx="1570.2" cy="262.317" r="2"/>
<circle clip-path="url(#clip732)" style="fill:#009af9; stroke:none; fill-opacity:1" cx="1570.22" cy="540.208" r="2"/>
<circle clip-path="url(#clip732)" style="fill:#009af9; stroke:none; fill-opacity:1" cx="1459.04" cy="801.989" r="2"/>
<circle clip-path="url(#clip732)" style="fill:#009af9; stroke:none; fill-opacity:1" cx="1152.67" cy="971.428" r="2"/>
<circle clip-path="url(#clip732)" style="fill:#009af9; stroke:none; fill-opacity:1" cx="1737.68" cy="1277.21" r="2"/>
<circle clip-path="url(#clip732)" style="fill:#009af9; stroke:none; fill-opacity:1" cx="1008.89" cy="1337.68" r="2"/>
<circle clip-path="url(#clip732)" style="fill:#009af9; stroke:none; fill-opacity:1" cx="1395.06" cy="1264.48" r="2"/>
<circle clip-path="url(#clip732)" style="fill:#009af9; stroke:none; fill-opacity:1" cx="662.317" cy="1279.53" r="2"/>
<path clip-path="url(#clip730)" d="M1555.93 255.98 L1552.76 264.58 L1559.11 264.58 L1555.93 255.98 M1554.61 253.677 L1557.26 253.677 L1563.85 270.957 L1561.42 270.957 L1559.84 266.524 L1552.05 266.524 L1550.48 270.957 L1548.01 270.957 L1554.61 253.677 Z" fill="#000000" fill-rule="evenodd" fill-opacity="1" /><path clip-path="url(#clip730)" d="M1577.05 263.133 L1577.05 270.957 L1574.92 270.957 L1574.92 263.203 Q1574.92 261.362 1574.2 260.448 Q1573.49 259.534 1572.05 259.534 Q1570.33 259.534 1569.33 260.633 Q1568.34 261.733 1568.34 263.631 L1568.34 270.957 L1566.2 270.957 L1566.2 257.994 L1568.34 257.994 L1568.34 260.008 Q1569.1 258.839 1570.13 258.261 Q1571.17 257.682 1572.53 257.682 Q1574.76 257.682 1575.91 259.071 Q1577.05 260.448 1577.05 263.133 Z" fill="#000000" fill-rule="evenodd" fill-opacity="1" /><path clip-path="url(#clip730)" d="M1586.69 272.161 Q1585.79 274.476 1584.93 275.182 Q1584.08 275.888 1582.64 275.888 L1580.94 275.888 L1580.94 274.105 L1582.19 274.105 Q1583.07 274.105 1583.56 273.689 Q1584.04 273.272 1584.63 271.721 L1585.01 270.749 L1579.77 257.994 L1582.03 257.994 L1586.08 268.133 L1590.13 257.994 L1592.39 257.994 L1586.69 272.161 Z" fill="#000000" fill-rule="evenodd" fill-opacity="1" /><path clip-path="url(#clip730)" d="M1523.78 531.568 L1526.93 531.568 L1534.59 546.024 L1534.59 531.568 L1536.86 531.568 L1536.86 548.848 L1533.71 548.848 L1526.05 534.392 L1526.05 548.848 L1523.78 548.848 L1523.78 531.568 Z" fill="#000000" fill-rule="evenodd" fill-opacity="1" /><path clip-path="url(#clip730)" d="M1541.2 543.732 L1541.2 535.885 L1543.33 535.885 L1543.33 543.651 Q1543.33 545.491 1544.04 546.417 Q1544.76 547.332 1546.2 547.332 Q1547.92 547.332 1548.92 546.232 Q1549.92 545.132 1549.92 543.234 L1549.92 535.885 L1552.05 535.885 L1552.05 548.848 L1549.92 548.848 L1549.92 546.857 Q1549.15 548.038 1548.12 548.616 Q1547.1 549.183 1545.74 549.183 Q1543.51 549.183 1542.35 547.794 Q1541.2 546.406 1541.2 543.732 M1546.56 535.572 L1546.56 535.572 Z" fill="#000000" fill-rule="evenodd" fill-opacity="1" /><path clip-path="url(#clip730)" d="M1566.53 538.373 Q1567.33 536.938 1568.44 536.255 Q1569.55 535.572 1571.06 535.572 Q1573.08 535.572 1574.18 536.996 Q1575.28 538.408 1575.28 541.024 L1575.28 548.848 L1573.14 548.848 L1573.14 541.093 Q1573.14 539.23 1572.48 538.327 Q1571.82 537.424 1570.47 537.424 Q1568.81 537.424 1567.85 538.524 Q1566.89 539.623 1566.89 541.521 L1566.89 548.848 L1564.75 548.848 L1564.75 541.093 Q1564.75 539.218 1564.09 538.327 Q1563.43 537.424 1562.05 537.424 Q1560.42 537.424 1559.46 538.535 Q1558.5 539.635 1558.5 541.521 L1558.5 548.848 L1556.36 548.848 L1556.36 535.885 L1558.5 535.885 L1558.5 537.899 Q1559.23 536.707 1560.25 536.139 Q1561.27 535.572 1562.67 535.572 Q1564.08 535.572 1565.06 536.29 Q1566.06 537.007 1566.53 538.373 Z" fill="#000000" fill-rule="evenodd" fill-opacity="1" /><path clip-path="url(#clip730)" d="M1588.83 542.378 Q1588.83 540.028 1587.86 538.697 Q1586.9 537.355 1585.21 537.355 Q1583.52 537.355 1582.55 538.697 Q1581.59 540.028 1581.59 542.378 Q1581.59 544.727 1582.55 546.07 Q1583.52 547.401 1585.21 547.401 Q1586.9 547.401 1587.86 546.07 Q1588.83 544.727 1588.83 542.378 M1581.59 537.852 Q1582.26 536.695 1583.28 536.139 Q1584.31 535.572 1585.73 535.572 Q1588.09 535.572 1589.56 537.447 Q1591.05 539.322 1591.05 542.378 Q1591.05 545.433 1589.56 547.308 Q1588.09 549.183 1585.73 549.183 Q1584.31 549.183 1583.28 548.628 Q1582.26 548.061 1581.59 546.903 L1581.59 548.848 L1579.45 548.848 L1579.45 530.839 L1581.59 530.839 L1581.59 537.852 Z" fill="#000000" fill-rule="evenodd" fill-opacity="1" /><path clip-path="url(#clip730)" d="M1605.66 541.834 L1605.66 542.876 L1595.87 542.876 Q1596.01 545.075 1597.19 546.232 Q1598.38 547.378 1600.5 547.378 Q1601.73 547.378 1602.87 547.077 Q1604.03 546.776 1605.17 546.174 L1605.17 548.188 Q1604.02 548.674 1602.82 548.929 Q1601.61 549.183 1600.37 549.183 Q1597.27 549.183 1595.46 547.378 Q1593.65 545.572 1593.65 542.494 Q1593.65 539.311 1595.36 537.447 Q1597.09 535.572 1600 535.572 Q1602.62 535.572 1604.14 537.262 Q1605.66 538.94 1605.66 541.834 M1603.53 541.209 Q1603.51 539.461 1602.55 538.42 Q1601.6 537.378 1600.03 537.378 Q1598.24 537.378 1597.17 538.385 Q1596.1 539.392 1595.94 541.22 L1603.53 541.209 Z" fill="#000000" fill-rule="evenodd" fill-opacity="1" /><path clip-path="url(#clip730)" d="M1616.67 537.876 Q1616.31 537.667 1615.88 537.575 Q1615.47 537.47 1614.96 537.47 Q1613.15 537.47 1612.18 538.651 Q1611.22 539.82 1611.22 542.019 L1611.22 548.848 L1609.08 548.848 L1609.08 535.885 L1611.22 535.885 L1611.22 537.899 Q1611.89 536.718 1612.97 536.151 Q1614.04 535.572 1615.58 535.572 Q1615.8 535.572 1616.07 535.607 Q1616.33 535.63 1616.66 535.688 L1616.67 537.876 Z" fill="#000000" fill-rule="evenodd" fill-opacity="1" /><path clip-path="url(#clip730)" d="M1443.96 802.528 Q1444.71 802.782 1445.42 803.615 Q1446.13 804.449 1446.85 805.907 L1449.23 810.629 L1446.71 810.629 L1444.5 806.196 Q1443.65 804.46 1442.84 803.893 Q1442.04 803.326 1440.65 803.326 L1438.1 803.326 L1438.1 810.629 L1435.76 810.629 L1435.76 793.349 L1441.04 793.349 Q1444.01 793.349 1445.46 794.588 Q1446.92 795.826 1446.92 798.326 Q1446.92 799.958 1446.16 801.034 Q1445.41 802.111 1443.96 802.528 M1438.1 795.271 L1438.1 801.405 L1441.04 801.405 Q1442.73 801.405 1443.59 800.629 Q1444.46 799.842 1444.46 798.326 Q1444.46 796.81 1443.59 796.046 Q1442.73 795.271 1441.04 795.271 L1438.1 795.271 Z" fill="#000000" fill-rule="evenodd" fill-opacity="1" /><path clip-path="url(#clip730)" d="M1462.16 803.615 L1462.16 804.657 L1452.37 804.657 Q1452.51 806.856 1453.69 808.014 Q1454.88 809.159 1457 809.159 Q1458.23 809.159 1459.38 808.859 Q1460.53 808.558 1461.67 807.956 L1461.67 809.97 Q1460.52 810.456 1459.32 810.71 Q1458.11 810.965 1456.88 810.965 Q1453.77 810.965 1451.96 809.159 Q1450.15 807.354 1450.15 804.275 Q1450.15 801.092 1451.86 799.229 Q1453.59 797.354 1456.51 797.354 Q1459.12 797.354 1460.64 799.044 Q1462.16 800.722 1462.16 803.615 M1460.04 802.99 Q1460.01 801.243 1459.05 800.201 Q1458.1 799.159 1456.53 799.159 Q1454.75 799.159 1453.67 800.166 Q1452.6 801.173 1452.44 803.002 L1460.04 802.99 Z" fill="#000000" fill-rule="evenodd" fill-opacity="1" /><path clip-path="url(#clip730)" d="M1471.55 804.113 Q1468.97 804.113 1467.98 804.703 Q1466.98 805.294 1466.98 806.717 Q1466.98 807.852 1467.72 808.523 Q1468.47 809.183 1469.76 809.183 Q1471.53 809.183 1472.59 807.933 Q1473.67 806.671 1473.67 804.588 L1473.67 804.113 L1471.55 804.113 M1475.8 803.234 L1475.8 810.629 L1473.67 810.629 L1473.67 808.662 Q1472.94 809.842 1471.85 810.409 Q1470.76 810.965 1469.19 810.965 Q1467.2 810.965 1466.02 809.854 Q1464.85 808.731 1464.85 806.856 Q1464.85 804.669 1466.31 803.558 Q1467.78 802.447 1470.68 802.447 L1473.67 802.447 L1473.67 802.238 Q1473.67 800.768 1472.7 799.97 Q1471.74 799.159 1469.99 799.159 Q1468.88 799.159 1467.82 799.426 Q1466.77 799.692 1465.8 800.224 L1465.8 798.257 Q1466.97 797.805 1468.07 797.585 Q1469.17 797.354 1470.21 797.354 Q1473.02 797.354 1474.41 798.812 Q1475.8 800.271 1475.8 803.234 Z" fill="#000000" fill-rule="evenodd" fill-opacity="1" /><path clip-path="url(#clip730)" d="M1480.19 792.62 L1482.32 792.62 L1482.32 810.629 L1480.19 810.629 L1480.19 792.62 Z" fill="#000000" fill-rule="evenodd" fill-opacity="1" /><path clip-path="url(#clip730)" d="M1081.94 965.091 L1078.77 973.691 L1085.12 973.691 L1081.94 965.091 M1080.62 962.788 L1083.27 962.788 L1089.86 980.068 L1087.43 980.068 L1085.85 975.635 L1078.06 975.635 L1076.49 980.068 L1074.02 980.068 L1080.62 962.788 Z" fill="#000000" fill-rule="evenodd" fill-opacity="1" /><path clip-path="url(#clip730)" d="M1101.59 973.598 Q1101.59 971.248 1100.62 969.917 Q1099.66 968.575 1097.97 968.575 Q1096.28 968.575 1095.31 969.917 Q1094.35 971.248 1094.35 973.598 Q1094.35 975.947 1095.31 977.29 Q1096.28 978.621 1097.97 978.621 Q1099.66 978.621 1100.62 977.29 Q1101.59 975.947 1101.59 973.598 M1094.35 969.073 Q1095.02 967.915 1096.04 967.36 Q1097.07 966.792 1098.49 966.792 Q1100.85 966.792 1102.32 968.667 Q1103.8 970.542 1103.8 973.598 Q1103.8 976.653 1102.32 978.528 Q1100.85 980.403 1098.49 980.403 Q1097.07 980.403 1096.04 979.848 Q1095.02 979.281 1094.35 978.123 L1094.35 980.068 L1092.21 980.068 L1092.21 962.059 L1094.35 962.059 L1094.35 969.073 Z" fill="#000000" fill-rule="evenodd" fill-opacity="1" /><path clip-path="url(#clip730)" d="M1115.6 967.487 L1115.6 969.501 Q1114.69 969.038 1113.72 968.806 Q1112.75 968.575 1111.71 968.575 Q1110.12 968.575 1109.32 969.061 Q1108.54 969.547 1108.54 970.519 Q1108.54 971.26 1109.1 971.688 Q1109.67 972.105 1111.38 972.487 L1112.11 972.649 Q1114.38 973.135 1115.33 974.026 Q1116.29 974.906 1116.29 976.491 Q1116.29 978.297 1114.86 979.35 Q1113.43 980.403 1110.93 980.403 Q1109.89 980.403 1108.76 980.195 Q1107.63 979.998 1106.38 979.593 L1106.38 977.394 Q1107.56 978.008 1108.71 978.32 Q1109.86 978.621 1110.98 978.621 Q1112.48 978.621 1113.29 978.112 Q1114.1 977.591 1114.1 976.653 Q1114.1 975.785 1113.51 975.322 Q1112.93 974.86 1110.96 974.431 L1110.21 974.258 Q1108.24 973.841 1107.36 972.985 Q1106.48 972.116 1106.48 970.612 Q1106.48 968.783 1107.77 967.788 Q1109.07 966.792 1111.45 966.792 Q1112.63 966.792 1113.68 966.966 Q1114.72 967.14 1115.6 967.487 Z" fill="#000000" fill-rule="evenodd" fill-opacity="1" /><path clip-path="url(#clip730)" d="M1121.79 963.424 L1121.79 967.105 L1126.18 967.105 L1126.18 968.76 L1121.79 968.76 L1121.79 975.797 Q1121.79 977.383 1122.22 977.834 Q1122.66 978.285 1123.99 978.285 L1126.18 978.285 L1126.18 980.068 L1123.99 980.068 Q1121.52 980.068 1120.59 979.153 Q1119.65 978.228 1119.65 975.797 L1119.65 968.76 L1118.09 968.76 L1118.09 967.105 L1119.65 967.105 L1119.65 963.424 L1121.79 963.424 Z" fill="#000000" fill-rule="evenodd" fill-opacity="1" /><path clip-path="url(#clip730)" d="M1136.49 969.096 Q1136.13 968.887 1135.7 968.795 Q1135.28 968.691 1134.77 968.691 Q1132.97 968.691 1132 969.871 Q1131.04 971.04 1131.04 973.239 L1131.04 980.068 L1128.9 980.068 L1128.9 967.105 L1131.04 967.105 L1131.04 969.119 Q1131.71 967.938 1132.78 967.371 Q1133.86 966.792 1135.4 966.792 Q1135.62 966.792 1135.89 966.827 Q1136.15 966.85 1136.48 966.908 L1136.49 969.096 Z" fill="#000000" fill-rule="evenodd" fill-opacity="1" /><path clip-path="url(#clip730)" d="M1144.61 973.552 Q1142.03 973.552 1141.04 974.142 Q1140.04 974.732 1140.04 976.156 Q1140.04 977.29 1140.78 977.961 Q1141.53 978.621 1142.82 978.621 Q1144.59 978.621 1145.65 977.371 Q1146.73 976.11 1146.73 974.026 L1146.73 973.552 L1144.61 973.552 M1148.86 972.672 L1148.86 980.068 L1146.73 980.068 L1146.73 978.1 Q1146 979.281 1144.91 979.848 Q1143.83 980.403 1142.25 980.403 Q1140.26 980.403 1139.08 979.292 Q1137.91 978.17 1137.91 976.295 Q1137.91 974.107 1139.37 972.996 Q1140.84 971.885 1143.74 971.885 L1146.73 971.885 L1146.73 971.677 Q1146.73 970.207 1145.76 969.408 Q1144.8 968.598 1143.05 968.598 Q1141.94 968.598 1140.89 968.864 Q1139.83 969.13 1138.86 969.663 L1138.86 967.695 Q1140.03 967.244 1141.13 967.024 Q1142.23 966.792 1143.27 966.792 Q1146.08 966.792 1147.47 968.251 Q1148.86 969.709 1148.86 972.672 Z" fill="#000000" fill-rule="evenodd" fill-opacity="1" /><path clip-path="url(#clip730)" d="M1162.58 967.603 L1162.58 969.593 Q1161.67 969.096 1160.76 968.853 Q1159.86 968.598 1158.93 968.598 Q1156.86 968.598 1155.71 969.917 Q1154.57 971.225 1154.57 973.598 Q1154.57 975.971 1155.71 977.29 Q1156.86 978.598 1158.93 978.598 Q1159.86 978.598 1160.76 978.355 Q1161.67 978.1 1162.58 977.603 L1162.58 979.57 Q1161.68 979.987 1160.72 980.195 Q1159.77 980.403 1158.7 980.403 Q1155.77 980.403 1154.05 978.563 Q1152.32 976.723 1152.32 973.598 Q1152.32 970.427 1154.06 968.61 Q1155.8 966.792 1158.84 966.792 Q1159.82 966.792 1160.76 967.001 Q1161.7 967.198 1162.58 967.603 Z" fill="#000000" fill-rule="evenodd" fill-opacity="1" /><path clip-path="url(#clip730)" d="M1168.39 963.424 L1168.39 967.105 L1172.77 967.105 L1172.77 968.76 L1168.39 968.76 L1168.39 975.797 Q1168.39 977.383 1168.81 977.834 Q1169.25 978.285 1170.58 978.285 L1172.77 978.285 L1172.77 980.068 L1170.58 980.068 Q1168.12 980.068 1167.18 979.153 Q1166.24 978.228 1166.24 975.797 L1166.24 968.76 L1164.68 968.76 L1164.68 967.105 L1166.24 967.105 L1166.24 963.424 L1168.39 963.424 Z" fill="#000000" fill-rule="evenodd" fill-opacity="1" /><path clip-path="url(#clip730)" d="M1175.67 962.788 L1185.6 962.788 L1185.6 964.755 L1178 964.755 L1178 969.848 L1184.86 969.848 L1184.86 971.816 L1178 971.816 L1178 980.068 L1175.67 980.068 L1175.67 962.788 Z" fill="#000000" fill-rule="evenodd" fill-opacity="1" /><path clip-path="url(#clip730)" d="M1189.21 962.059 L1191.34 962.059 L1191.34 980.068 L1189.21 980.068 L1189.21 962.059 Z" fill="#000000" fill-rule="evenodd" fill-opacity="1" /><path clip-path="url(#clip730)" d="M1200.82 968.598 Q1199.1 968.598 1198.11 969.941 Q1197.11 971.272 1197.11 973.598 Q1197.11 975.924 1198.1 977.267 Q1199.09 978.598 1200.82 978.598 Q1202.52 978.598 1203.51 977.255 Q1204.51 975.913 1204.51 973.598 Q1204.51 971.295 1203.51 969.952 Q1202.52 968.598 1200.82 968.598 M1200.82 966.792 Q1203.59 966.792 1205.18 968.598 Q1206.77 970.404 1206.77 973.598 Q1206.77 976.781 1205.18 978.598 Q1203.59 980.403 1200.82 980.403 Q1198.03 980.403 1196.44 978.598 Q1194.87 976.781 1194.87 973.598 Q1194.87 970.404 1196.44 968.598 Q1198.03 966.792 1200.82 966.792 Z" fill="#000000" fill-rule="evenodd" fill-opacity="1" /><path clip-path="url(#clip730)" d="M1216.19 973.552 Q1213.61 973.552 1212.61 974.142 Q1211.61 974.732 1211.61 976.156 Q1211.61 977.29 1212.36 977.961 Q1213.11 978.621 1214.39 978.621 Q1216.16 978.621 1217.23 977.371 Q1218.3 976.11 1218.3 974.026 L1218.3 973.552 L1216.19 973.552 M1220.43 972.672 L1220.43 980.068 L1218.3 980.068 L1218.3 978.1 Q1217.58 979.281 1216.49 979.848 Q1215.4 980.403 1213.83 980.403 Q1211.83 980.403 1210.65 979.292 Q1209.49 978.17 1209.49 976.295 Q1209.49 974.107 1210.94 972.996 Q1212.41 971.885 1215.32 971.885 L1218.3 971.885 L1218.3 971.677 Q1218.3 970.207 1217.33 969.408 Q1216.37 968.598 1214.62 968.598 Q1213.51 968.598 1212.46 968.864 Q1211.41 969.13 1210.43 969.663 L1210.43 967.695 Q1211.6 967.244 1212.7 967.024 Q1213.8 966.792 1214.84 966.792 Q1217.66 966.792 1219.05 968.251 Q1220.43 969.709 1220.43 972.672 Z" fill="#000000" fill-rule="evenodd" fill-opacity="1" /><path clip-path="url(#clip730)" d="M1226.93 963.424 L1226.93 967.105 L1231.31 967.105 L1231.31 968.76 L1226.93 968.76 L1226.93 975.797 Q1226.93 977.383 1227.36 977.834 Q1227.8 978.285 1229.13 978.285 L1231.31 978.285 L1231.31 980.068 L1229.13 980.068 Q1226.66 980.068 1225.72 979.153 Q1224.79 978.228 1224.79 975.797 L1224.79 968.76 L1223.22 968.76 L1223.22 967.105 L1224.79 967.105 L1224.79 963.424 L1226.93 963.424 Z" fill="#000000" fill-rule="evenodd" fill-opacity="1" /><path clip-path="url(#clip730)" d="M1693.25 1277.6 L1693.25 1283.93 L1697 1283.93 Q1698.89 1283.93 1699.79 1283.15 Q1700.7 1282.36 1700.7 1280.75 Q1700.7 1279.13 1699.79 1278.37 Q1698.89 1277.6 1697 1277.6 L1693.25 1277.6 M1693.25 1270.49 L1693.25 1275.7 L1696.71 1275.7 Q1698.42 1275.7 1699.26 1275.06 Q1700.1 1274.41 1700.1 1273.09 Q1700.1 1271.79 1699.26 1271.14 Q1698.42 1270.49 1696.71 1270.49 L1693.25 1270.49 M1690.91 1268.57 L1696.88 1268.57 Q1699.56 1268.57 1701 1269.68 Q1702.45 1270.79 1702.45 1272.84 Q1702.45 1274.42 1701.71 1275.36 Q1700.97 1276.3 1699.53 1276.53 Q1701.26 1276.9 1702.21 1278.08 Q1703.17 1279.25 1703.17 1281.01 Q1703.17 1283.32 1701.6 1284.59 Q1700.02 1285.85 1697.12 1285.85 L1690.91 1285.85 L1690.91 1268.57 Z" fill="#000000" fill-rule="evenodd" fill-opacity="1" /><path clip-path="url(#clip730)" d="M1707.08 1272.88 L1709.21 1272.88 L1709.21 1285.85 L1707.08 1285.85 L1707.08 1272.88 M1707.08 1267.84 L1709.21 1267.84 L1709.21 1270.54 L1707.08 1270.54 L1707.08 1267.84 Z" fill="#000000" fill-rule="evenodd" fill-opacity="1" /><path clip-path="url(#clip730)" d="M1722.2 1279.22 Q1722.2 1276.9 1721.24 1275.63 Q1720.29 1274.35 1718.56 1274.35 Q1716.85 1274.35 1715.89 1275.63 Q1714.94 1276.9 1714.94 1279.22 Q1714.94 1281.52 1715.89 1282.79 Q1716.85 1284.07 1718.56 1284.07 Q1720.29 1284.07 1721.24 1282.79 Q1722.2 1281.52 1722.2 1279.22 M1724.33 1284.24 Q1724.33 1287.55 1722.86 1289.16 Q1721.39 1290.78 1718.35 1290.78 Q1717.23 1290.78 1716.24 1290.6 Q1715.24 1290.44 1714.3 1290.1 L1714.3 1288.02 Q1715.24 1288.53 1716.16 1288.78 Q1717.07 1289.02 1718.02 1289.02 Q1720.11 1289.02 1721.16 1287.92 Q1722.2 1286.83 1722.2 1284.62 L1722.2 1283.57 Q1721.54 1284.71 1720.51 1285.28 Q1719.48 1285.85 1718.04 1285.85 Q1715.66 1285.85 1714.2 1284.03 Q1712.74 1282.21 1712.74 1279.22 Q1712.74 1276.21 1714.2 1274.39 Q1715.66 1272.57 1718.04 1272.57 Q1719.48 1272.57 1720.51 1273.14 Q1721.54 1273.71 1722.2 1274.85 L1722.2 1272.88 L1724.33 1272.88 L1724.33 1284.24 Z" fill="#000000" fill-rule="evenodd" fill-opacity="1" /><path clip-path="url(#clip730)" d="M1728.81 1268.57 L1738.74 1268.57 L1738.74 1270.54 L1731.14 1270.54 L1731.14 1275.63 L1738 1275.63 L1738 1277.6 L1731.14 1277.6 L1731.14 1285.85 L1728.81 1285.85 L1728.81 1268.57 Z" fill="#000000" fill-rule="evenodd" fill-opacity="1" /><path clip-path="url(#clip730)" d="M1742.35 1267.84 L1744.48 1267.84 L1744.48 1285.85 L1742.35 1285.85 L1742.35 1267.84 Z" fill="#000000" fill-rule="evenodd" fill-opacity="1" /><path clip-path="url(#clip730)" d="M1753.96 1274.38 Q1752.24 1274.38 1751.25 1275.72 Q1750.25 1277.05 1750.25 1279.38 Q1750.25 1281.7 1751.24 1283.05 Q1752.23 1284.38 1753.96 1284.38 Q1755.66 1284.38 1756.65 1283.03 Q1757.65 1281.69 1757.65 1279.38 Q1757.65 1277.07 1756.65 1275.73 Q1755.66 1274.38 1753.96 1274.38 M1753.96 1272.57 Q1756.73 1272.57 1758.32 1274.38 Q1759.9 1276.18 1759.9 1279.38 Q1759.9 1282.56 1758.32 1284.38 Q1756.73 1286.18 1753.96 1286.18 Q1751.17 1286.18 1749.58 1284.38 Q1748.01 1282.56 1748.01 1279.38 Q1748.01 1276.18 1749.58 1274.38 Q1751.17 1272.57 1753.96 1272.57 Z" fill="#000000" fill-rule="evenodd" fill-opacity="1" /><path clip-path="url(#clip730)" d="M1769.33 1279.33 Q1766.75 1279.33 1765.75 1279.92 Q1764.75 1280.51 1764.75 1281.94 Q1764.75 1283.07 1765.5 1283.74 Q1766.25 1284.4 1767.53 1284.4 Q1769.3 1284.4 1770.37 1283.15 Q1771.44 1281.89 1771.44 1279.81 L1771.44 1279.33 L1769.33 1279.33 M1773.57 1278.45 L1773.57 1285.85 L1771.44 1285.85 L1771.44 1283.88 Q1770.72 1285.06 1769.63 1285.63 Q1768.54 1286.18 1766.97 1286.18 Q1764.97 1286.18 1763.79 1285.07 Q1762.62 1283.95 1762.62 1282.07 Q1762.62 1279.89 1764.08 1278.78 Q1765.55 1277.66 1768.46 1277.66 L1771.44 1277.66 L1771.44 1277.46 Q1771.44 1275.99 1770.47 1275.19 Q1769.51 1274.38 1767.76 1274.38 Q1766.65 1274.38 1765.6 1274.64 Q1764.55 1274.91 1763.57 1275.44 L1763.57 1273.47 Q1764.74 1273.02 1765.84 1272.8 Q1766.94 1272.57 1767.98 1272.57 Q1770.8 1272.57 1772.18 1274.03 Q1773.57 1275.49 1773.57 1278.45 Z" fill="#000000" fill-rule="evenodd" fill-opacity="1" /><path clip-path="url(#clip730)" d="M1780.07 1269.2 L1780.07 1272.88 L1784.45 1272.88 L1784.45 1274.54 L1780.07 1274.54 L1780.07 1281.58 Q1780.07 1283.16 1780.5 1283.61 Q1780.93 1284.07 1782.27 1284.07 L1784.45 1284.07 L1784.45 1285.85 L1782.27 1285.85 Q1779.8 1285.85 1778.86 1284.93 Q1777.93 1284.01 1777.93 1281.58 L1777.93 1274.54 L1776.36 1274.54 L1776.36 1272.88 L1777.93 1272.88 L1777.93 1269.2 L1780.07 1269.2 Z" fill="#000000" fill-rule="evenodd" fill-opacity="1" /><path clip-path="url(#clip730)" d="M966.452 1329.04 L976.383 1329.04 L976.383 1331.01 L968.79 1331.01 L968.79 1336.1 L975.642 1336.1 L975.642 1338.07 L968.79 1338.07 L968.79 1346.32 L966.452 1346.32 L966.452 1329.04 Z" fill="#000000" fill-rule="evenodd" fill-opacity="1" /><path clip-path="url(#clip730)" d="M979.994 1328.31 L982.123 1328.31 L982.123 1346.32 L979.994 1346.32 L979.994 1328.31 Z" fill="#000000" fill-rule="evenodd" fill-opacity="1" /><path clip-path="url(#clip730)" d="M991.602 1334.85 Q989.889 1334.85 988.894 1336.2 Q987.899 1337.53 987.899 1339.85 Q987.899 1342.18 988.882 1343.52 Q989.878 1344.85 991.602 1344.85 Q993.304 1344.85 994.299 1343.51 Q995.294 1342.17 995.294 1339.85 Q995.294 1337.55 994.299 1336.21 Q993.304 1334.85 991.602 1334.85 M991.602 1333.05 Q994.38 1333.05 995.966 1334.85 Q997.551 1336.66 997.551 1339.85 Q997.551 1343.04 995.966 1344.85 Q994.38 1346.66 991.602 1346.66 Q988.813 1346.66 987.227 1344.85 Q985.653 1343.04 985.653 1339.85 Q985.653 1336.66 987.227 1334.85 Q988.813 1333.05 991.602 1333.05 Z" fill="#000000" fill-rule="evenodd" fill-opacity="1" /><path clip-path="url(#clip730)" d="M1006.97 1339.81 Q1004.39 1339.81 1003.4 1340.4 Q1002.4 1340.99 1002.4 1342.41 Q1002.4 1343.55 1003.14 1344.22 Q1003.89 1344.88 1005.18 1344.88 Q1006.95 1344.88 1008.01 1343.63 Q1009.09 1342.36 1009.09 1340.28 L1009.09 1339.81 L1006.97 1339.81 M1011.22 1338.93 L1011.22 1346.32 L1009.09 1346.32 L1009.09 1344.36 Q1008.36 1345.54 1007.27 1346.1 Q1006.19 1346.66 1004.61 1346.66 Q1002.62 1346.66 1001.44 1345.55 Q1000.27 1344.42 1000.27 1342.55 Q1000.27 1340.36 1001.73 1339.25 Q1003.2 1338.14 1006.1 1338.14 L1009.09 1338.14 L1009.09 1337.93 Q1009.09 1336.46 1008.12 1335.66 Q1007.16 1334.85 1005.41 1334.85 Q1004.3 1334.85 1003.25 1335.12 Q1002.19 1335.39 1001.22 1335.92 L1001.22 1333.95 Q1002.39 1333.5 1003.49 1333.28 Q1004.59 1333.05 1005.63 1333.05 Q1008.44 1333.05 1009.83 1334.51 Q1011.22 1335.96 1011.22 1338.93 Z" fill="#000000" fill-rule="evenodd" fill-opacity="1" /><path clip-path="url(#clip730)" d="M1017.71 1329.68 L1017.71 1333.36 L1022.1 1333.36 L1022.1 1335.01 L1017.71 1335.01 L1017.71 1342.05 Q1017.71 1343.64 1018.14 1344.09 Q1018.58 1344.54 1019.91 1344.54 L1022.1 1344.54 L1022.1 1346.32 L1019.91 1346.32 Q1017.45 1346.32 1016.51 1345.41 Q1015.57 1344.48 1015.57 1342.05 L1015.57 1335.01 L1014.01 1335.01 L1014.01 1333.36 L1015.57 1333.36 L1015.57 1329.68 L1017.71 1329.68 Z" fill="#000000" fill-rule="evenodd" fill-opacity="1" /><path clip-path="url(#clip730)" d="M1025.61 1344.36 L1029.43 1344.36 L1029.43 1331.17 L1025.27 1332.01 L1025.27 1329.88 L1029.4 1329.04 L1031.74 1329.04 L1031.74 1344.36 L1035.56 1344.36 L1035.56 1346.32 L1025.61 1346.32 L1025.61 1344.36 Z" fill="#000000" fill-rule="evenodd" fill-opacity="1" /><path clip-path="url(#clip730)" d="M1045.57 1336.75 Q1044 1336.75 1043.07 1337.83 Q1042.16 1338.9 1042.16 1340.78 Q1042.16 1342.64 1043.07 1343.73 Q1044 1344.81 1045.57 1344.81 Q1047.15 1344.81 1048.06 1343.73 Q1048.99 1342.64 1048.99 1340.78 Q1048.99 1338.9 1048.06 1337.83 Q1047.15 1336.75 1045.57 1336.75 M1050.21 1329.42 L1050.21 1331.55 Q1049.33 1331.14 1048.43 1330.92 Q1047.54 1330.7 1046.66 1330.7 Q1044.35 1330.7 1043.12 1332.26 Q1041.9 1333.82 1041.73 1336.98 Q1042.41 1335.98 1043.44 1335.44 Q1044.47 1334.9 1045.71 1334.9 Q1048.32 1334.9 1049.82 1336.48 Q1051.34 1338.06 1051.34 1340.78 Q1051.34 1343.44 1049.76 1345.05 Q1048.19 1346.66 1045.57 1346.66 Q1042.57 1346.66 1040.99 1344.37 Q1039.4 1342.06 1039.4 1337.7 Q1039.4 1333.6 1041.35 1331.17 Q1043.29 1328.73 1046.57 1328.73 Q1047.45 1328.73 1048.34 1328.9 Q1049.24 1329.08 1050.21 1329.42 Z" fill="#000000" fill-rule="evenodd" fill-opacity="1" /><path clip-path="url(#clip730)" d="M1353.06 1255.84 L1362.99 1255.84 L1362.99 1257.81 L1355.4 1257.81 L1355.4 1262.9 L1362.25 1262.9 L1362.25 1264.87 L1355.4 1264.87 L1355.4 1273.12 L1353.06 1273.12 L1353.06 1255.84 Z" fill="#000000" fill-rule="evenodd" fill-opacity="1" /><path clip-path="url(#clip730)" d="M1366.6 1255.11 L1368.73 1255.11 L1368.73 1273.12 L1366.6 1273.12 L1366.6 1255.11 Z" fill="#000000" fill-rule="evenodd" fill-opacity="1" /><path clip-path="url(#clip730)" d="M1378.21 1261.65 Q1376.5 1261.65 1375.5 1263 Q1374.51 1264.33 1374.51 1266.65 Q1374.51 1268.98 1375.49 1270.32 Q1376.49 1271.65 1378.21 1271.65 Q1379.91 1271.65 1380.91 1270.31 Q1381.9 1268.97 1381.9 1266.65 Q1381.9 1264.35 1380.91 1263.01 Q1379.91 1261.65 1378.21 1261.65 M1378.21 1259.85 Q1380.99 1259.85 1382.57 1261.65 Q1384.16 1263.46 1384.16 1266.65 Q1384.16 1269.84 1382.57 1271.65 Q1380.99 1273.46 1378.21 1273.46 Q1375.42 1273.46 1373.84 1271.65 Q1372.26 1269.84 1372.26 1266.65 Q1372.26 1263.46 1373.84 1261.65 Q1375.42 1259.85 1378.21 1259.85 Z" fill="#000000" fill-rule="evenodd" fill-opacity="1" /><path clip-path="url(#clip730)" d="M1393.58 1266.61 Q1391 1266.61 1390 1267.2 Q1389.01 1267.79 1389.01 1269.21 Q1389.01 1270.35 1389.75 1271.02 Q1390.5 1271.68 1391.79 1271.68 Q1393.56 1271.68 1394.62 1270.43 Q1395.7 1269.16 1395.7 1267.08 L1395.7 1266.61 L1393.58 1266.61 M1397.83 1265.73 L1397.83 1273.12 L1395.7 1273.12 L1395.7 1271.16 Q1394.97 1272.34 1393.88 1272.9 Q1392.79 1273.46 1391.22 1273.46 Q1389.23 1273.46 1388.05 1272.35 Q1386.88 1271.22 1386.88 1269.35 Q1386.88 1267.16 1388.34 1266.05 Q1389.81 1264.94 1392.71 1264.94 L1395.7 1264.94 L1395.7 1264.73 Q1395.7 1263.26 1394.73 1262.46 Q1393.77 1261.65 1392.02 1261.65 Q1390.91 1261.65 1389.85 1261.92 Q1388.8 1262.19 1387.83 1262.72 L1387.83 1260.75 Q1389 1260.3 1390.1 1260.08 Q1391.2 1259.85 1392.24 1259.85 Q1395.05 1259.85 1396.44 1261.31 Q1397.83 1262.76 1397.83 1265.73 Z" fill="#000000" fill-rule="evenodd" fill-opacity="1" /><path clip-path="url(#clip730)" d="M1404.32 1256.48 L1404.32 1260.16 L1408.71 1260.16 L1408.71 1261.82 L1404.32 1261.82 L1404.32 1268.85 Q1404.32 1270.44 1404.75 1270.89 Q1405.19 1271.34 1406.52 1271.34 L1408.71 1271.34 L1408.71 1273.12 L1406.52 1273.12 Q1404.06 1273.12 1403.12 1272.21 Q1402.18 1271.28 1402.18 1268.85 L1402.18 1261.82 L1400.62 1261.82 L1400.62 1260.16 L1402.18 1260.16 L1402.18 1256.48 L1404.32 1256.48 Z" fill="#000000" fill-rule="evenodd" fill-opacity="1" /><path clip-path="url(#clip730)" d="M1418.89 1263.81 Q1420.57 1264.16 1421.51 1265.3 Q1422.46 1266.43 1422.46 1268.1 Q1422.46 1270.66 1420.7 1272.06 Q1418.94 1273.46 1415.7 1273.46 Q1414.61 1273.46 1413.45 1273.24 Q1412.31 1273.03 1411.08 1272.6 L1411.08 1270.35 Q1412.05 1270.91 1413.21 1271.2 Q1414.37 1271.49 1415.63 1271.49 Q1417.83 1271.49 1418.97 1270.62 Q1420.13 1269.76 1420.13 1268.1 Q1420.13 1266.57 1419.06 1265.72 Q1417.99 1264.85 1416.08 1264.85 L1414.07 1264.85 L1414.07 1262.93 L1416.17 1262.93 Q1417.9 1262.93 1418.81 1262.24 Q1419.73 1261.55 1419.73 1260.25 Q1419.73 1258.92 1418.78 1258.22 Q1417.84 1257.5 1416.08 1257.5 Q1415.12 1257.5 1414.02 1257.71 Q1412.92 1257.91 1411.6 1258.35 L1411.6 1256.27 Q1412.93 1255.9 1414.09 1255.72 Q1415.26 1255.53 1416.29 1255.53 Q1418.95 1255.53 1420.5 1256.75 Q1422.05 1257.95 1422.05 1260.01 Q1422.05 1261.44 1421.23 1262.44 Q1420.41 1263.42 1418.89 1263.81 Z" fill="#000000" fill-rule="evenodd" fill-opacity="1" /><path clip-path="url(#clip730)" d="M1428.9 1271.16 L1437.06 1271.16 L1437.06 1273.12 L1426.09 1273.12 L1426.09 1271.16 Q1427.42 1269.78 1429.72 1267.46 Q1432.02 1265.14 1432.61 1264.47 Q1433.73 1263.2 1434.17 1262.34 Q1434.62 1261.46 1434.62 1260.61 Q1434.62 1259.23 1433.65 1258.37 Q1432.69 1257.5 1431.14 1257.5 Q1430.04 1257.5 1428.81 1257.88 Q1427.6 1258.26 1426.21 1259.04 L1426.21 1256.68 Q1427.62 1256.11 1428.85 1255.82 Q1430.07 1255.53 1431.09 1255.53 Q1433.78 1255.53 1435.37 1256.87 Q1436.97 1258.22 1436.97 1260.46 Q1436.97 1261.53 1436.57 1262.49 Q1436.17 1263.44 1435.12 1264.73 Q1434.83 1265.07 1433.28 1266.68 Q1431.73 1268.27 1428.9 1271.16 Z" fill="#000000" fill-rule="evenodd" fill-opacity="1" /><path clip-path="url(#clip730)" d="M619.794 1270.89 L629.725 1270.89 L629.725 1272.86 L622.132 1272.86 L622.132 1277.95 L628.984 1277.95 L628.984 1279.92 L622.132 1279.92 L622.132 1288.17 L619.794 1288.17 L619.794 1270.89 Z" fill="#000000" fill-rule="evenodd" fill-opacity="1" /><path clip-path="url(#clip730)" d="M633.336 1270.16 L635.466 1270.16 L635.466 1288.17 L633.336 1288.17 L633.336 1270.16 Z" fill="#000000" fill-rule="evenodd" fill-opacity="1" /><path clip-path="url(#clip730)" d="M644.945 1276.7 Q643.232 1276.7 642.236 1278.04 Q641.241 1279.37 641.241 1281.7 Q641.241 1284.03 642.225 1285.37 Q643.22 1286.7 644.945 1286.7 Q646.646 1286.7 647.641 1285.36 Q648.637 1284.01 648.637 1281.7 Q648.637 1279.4 647.641 1278.05 Q646.646 1276.7 644.945 1276.7 M644.945 1274.89 Q647.722 1274.89 649.308 1276.7 Q650.894 1278.5 650.894 1281.7 Q650.894 1284.88 649.308 1286.7 Q647.722 1288.5 644.945 1288.5 Q642.155 1288.5 640.57 1286.7 Q638.996 1284.88 638.996 1281.7 Q638.996 1278.5 640.57 1276.7 Q642.155 1274.89 644.945 1274.89 Z" fill="#000000" fill-rule="evenodd" fill-opacity="1" /><path clip-path="url(#clip730)" d="M660.315 1281.65 Q657.734 1281.65 656.739 1282.24 Q655.743 1282.83 655.743 1284.26 Q655.743 1285.39 656.484 1286.06 Q657.236 1286.72 658.521 1286.72 Q660.292 1286.72 661.357 1285.47 Q662.433 1284.21 662.433 1282.13 L662.433 1281.65 L660.315 1281.65 M664.563 1280.77 L664.563 1288.17 L662.433 1288.17 L662.433 1286.2 Q661.704 1287.38 660.616 1287.95 Q659.528 1288.5 657.954 1288.5 Q655.963 1288.5 654.783 1287.39 Q653.614 1286.27 653.614 1284.4 Q653.614 1282.21 655.072 1281.1 Q656.542 1279.99 659.447 1279.99 L662.433 1279.99 L662.433 1279.78 Q662.433 1278.31 661.461 1277.51 Q660.5 1276.7 658.752 1276.7 Q657.641 1276.7 656.588 1276.97 Q655.535 1277.23 654.563 1277.76 L654.563 1275.8 Q655.732 1275.35 656.831 1275.13 Q657.931 1274.89 658.972 1274.89 Q661.785 1274.89 663.174 1276.35 Q664.563 1277.81 664.563 1280.77 Z" fill="#000000" fill-rule="evenodd" fill-opacity="1" /><path clip-path="url(#clip730)" d="M671.056 1271.53 L671.056 1275.21 L675.442 1275.21 L675.442 1276.86 L671.056 1276.86 L671.056 1283.9 Q671.056 1285.48 671.484 1285.94 Q671.924 1286.39 673.255 1286.39 L675.442 1286.39 L675.442 1288.17 L673.255 1288.17 Q670.789 1288.17 669.852 1287.25 Q668.914 1286.33 668.914 1283.9 L668.914 1276.86 L667.352 1276.86 L667.352 1275.21 L668.914 1275.21 L668.914 1271.53 L671.056 1271.53 Z" fill="#000000" fill-rule="evenodd" fill-opacity="1" /><path clip-path="url(#clip730)" d="M683.833 1278.6 Q682.259 1278.6 681.333 1279.67 Q680.419 1280.75 680.419 1282.63 Q680.419 1284.49 681.333 1285.58 Q682.259 1286.65 683.833 1286.65 Q685.407 1286.65 686.322 1285.58 Q687.248 1284.49 687.248 1282.63 Q687.248 1280.75 686.322 1279.67 Q685.407 1278.6 683.833 1278.6 M688.474 1271.27 L688.474 1273.4 Q687.595 1272.98 686.692 1272.76 Q685.801 1272.54 684.921 1272.54 Q682.606 1272.54 681.38 1274.11 Q680.164 1275.67 679.991 1278.83 Q680.674 1277.82 681.704 1277.29 Q682.734 1276.75 683.972 1276.75 Q686.576 1276.75 688.081 1278.33 Q689.597 1279.91 689.597 1282.63 Q689.597 1285.29 688.023 1286.9 Q686.449 1288.5 683.833 1288.5 Q680.836 1288.5 679.25 1286.21 Q677.664 1283.91 677.664 1279.55 Q677.664 1275.45 679.609 1273.02 Q681.553 1270.58 684.829 1270.58 Q685.708 1270.58 686.599 1270.75 Q687.502 1270.92 688.474 1271.27 Z" fill="#000000" fill-rule="evenodd" fill-opacity="1" /><path clip-path="url(#clip730)" d="M700.048 1272.93 L694.146 1282.15 L700.048 1282.15 L700.048 1272.93 M699.435 1270.89 L702.375 1270.89 L702.375 1282.15 L704.84 1282.15 L704.84 1284.1 L702.375 1284.1 L702.375 1288.17 L700.048 1288.17 L700.048 1284.1 L692.248 1284.1 L692.248 1281.84 L699.435 1270.89 Z" fill="#000000" fill-rule="evenodd" fill-opacity="1" /></svg>
