<?xml version="1.0" encoding="utf-8"?>
<svg xmlns="http://www.w3.org/2000/svg" xmlns:xlink="http://www.w3.org/1999/xlink" width="600" height="400" viewBox="0 0 2400 1600">
<defs>
  <clipPath id="clip070">
    <rect x="0" y="0" width="2400" height="1600"/>
  </clipPath>
</defs>
<path clip-path="url(#clip070)" d="
M0 1600 L2400 1600 L2400 0 L0 0  Z
  " fill="#ffffff" fill-rule="evenodd" fill-opacity="1"/>
<defs>
  <clipPath id="clip071">
    <rect x="480" y="0" width="1681" height="1600"/>
  </clipPath>
</defs>
<path clip-path="url(#clip070)" d="
M447.244 1552.76 L1952.76 1552.76 L1952.76 47.2441 L447.244 47.2441  Z
  " fill="#ffffff" fill-rule="evenodd" fill-opacity="1"/>
<defs>
  <clipPath id="clip072">
    <rect x="447" y="47" width="1507" height="1507"/>
  </clipPath>
</defs>
<polyline clip-path="url(#clip072)" style="stroke:#000000; stroke-width:4; stroke-opacity:1; fill:none" points="
  1106.1,262.317 1105.98,271.459 1105.61,280.779 1105.02,290.264 1104.23,299.902 1103.25,309.679 1102.1,319.581 1100.8,329.597 1099.37,339.711 1097.82,349.911 
  1096.18,360.185 1094.45,370.518 1092.66,380.897 1090.83,391.309 1088.97,401.741 1087.11,412.18 1085.25,422.612 1083.41,433.024 1081.63,443.403 1079.9,453.736 
  1078.25,464.01 1076.71,474.21 1075.27,484.324 1073.97,494.339 1072.83,504.242 1071.85,514.019 1071.05,523.657 1070.47,533.142 1070.1,542.462 1069.97,551.604 
  
  "/>
<polyline clip-path="url(#clip072)" style="stroke:#000000; stroke-width:4; stroke-opacity:1; fill:none" points="
  1069.97,551.604 1070.84,561.315 1073.35,570.47 1077.38,579.111 1082.81,587.277 1089.52,595.012 1097.38,602.355 1106.29,609.348 1116.1,616.032 1126.71,622.448 
  1137.99,628.637 1149.82,634.642 1162.07,640.502 1174.63,646.259 1187.37,651.955 1200.17,657.629 1212.91,663.325 1225.47,669.082 1237.72,674.942 1249.55,680.947 
  1260.83,687.136 1271.43,693.552 1281.25,700.236 1290.15,707.229 1298.02,714.572 1304.73,722.307 1310.16,730.473 1314.19,739.114 1316.7,748.269 1317.56,757.98 
  
  "/>
<polyline clip-path="url(#clip072)" style="stroke:#000000; stroke-width:4; stroke-opacity:1; fill:none" points="
  1317.56,757.98 1317.32,766.214 1316.62,774.56 1315.49,783.012 1313.96,791.559 1312.08,800.195 1309.88,808.91 1307.38,817.696 1304.62,826.545 1301.65,835.448 
  1298.49,844.398 1295.17,853.385 1291.73,862.402 1288.21,871.439 1284.64,880.489 1281.05,889.543 1277.47,898.593 1273.95,907.631 1270.52,916.647 1267.2,925.635 
  1264.04,934.584 1261.06,943.488 1258.31,952.337 1255.81,961.123 1253.6,969.838 1251.72,978.473 1250.2,987.021 1249.07,995.472 1248.36,1003.82 1248.12,1012.05 
  
  "/>
<polyline clip-path="url(#clip072)" style="stroke:#000000; stroke-width:4; stroke-opacity:1; fill:none" points="
  1248.12,1012.05 1247.25,1022.71 1244.71,1032.9 1240.63,1042.65 1235.13,1052.01 1228.33,1061.01 1220.37,1069.68 1211.35,1078.06 1201.41,1086.18 1190.67,1094.07 
  1179.25,1101.78 1167.27,1109.32 1154.86,1116.75 1142.15,1124.09 1129.24,1131.38 1116.28,1138.66 1103.38,1145.95 1090.66,1153.29 1078.25,1160.71 1066.28,1168.26 
  1054.86,1175.97 1044.11,1183.86 1034.17,1191.98 1025.16,1200.36 1017.19,1209.03 1010.4,1218.02 1004.9,1227.39 1000.82,1237.14 998.276,1247.33 997.402,1257.99 
  
  "/>
<polyline clip-path="url(#clip072)" style="stroke:#000000; stroke-width:4; stroke-opacity:1; fill:none" points="
  1248.12,1012.05 1249.83,1028.33 1254.79,1043.52 1262.76,1057.71 1273.49,1070.99 1286.76,1083.42 1302.32,1095.09 1319.92,1106.07 1339.33,1116.46 1360.31,1126.33 
  1382.61,1135.75 1406,1144.82 1430.22,1153.61 1455.05,1162.19 1480.25,1170.66 1505.56,1179.08 1530.75,1187.54 1555.58,1196.13 1579.81,1204.92 1603.19,1213.98 
  1625.49,1223.41 1646.47,1233.27 1665.88,1243.66 1683.49,1254.65 1699.04,1266.32 1712.31,1278.75 1723.05,1292.02 1731.02,1306.21 1735.98,1321.41 1737.68,1337.68 
  
  "/>
<polyline clip-path="url(#clip072)" style="stroke:#000000; stroke-width:4; stroke-opacity:1; fill:none" points="
  1248.12,1012.05 1246.08,1024.51 1240.15,1036.14 1230.61,1047 1217.76,1057.16 1201.89,1066.68 1183.27,1075.61 1162.21,1084.02 1138.98,1091.97 1113.88,1099.52 
  1087.19,1106.74 1059.21,1113.68 1030.22,1120.4 1000.51,1126.97 970.364,1133.45 940.076,1139.9 909.931,1146.38 880.22,1152.95 851.228,1159.68 823.246,1166.61 
  796.561,1173.83 771.461,1181.38 748.234,1189.33 727.169,1197.74 708.554,1206.68 692.678,1216.19 679.827,1226.35 670.292,1237.21 664.359,1248.84 662.317,1261.3 
  
  "/>
<polyline clip-path="url(#clip072)" style="stroke:#000000; stroke-width:4; stroke-opacity:1; fill:none" points="
  1248.12,1012.05 1249.05,1023.06 1251.76,1033.53 1256.11,1043.51 1261.97,1053.03 1269.22,1062.14 1277.71,1070.86 1287.32,1079.25 1297.91,1087.35 1309.37,1095.18 
  1321.54,1102.8 1334.31,1110.24 1347.53,1117.54 1361.09,1124.74 1374.84,1131.88 1388.66,1139 1402.41,1146.14 1415.96,1153.34 1429.19,1160.64 1441.96,1168.08 
  1454.13,1175.7 1465.58,1183.53 1476.18,1191.63 1485.79,1200.02 1494.28,1208.75 1501.52,1217.85 1507.38,1227.37 1511.73,1237.35 1514.44,1247.82 1515.37,1258.83 
  
  "/>
<path clip-path="url(#clip072)" d="
M1134.07 262.317 L1120.09 238.095 L1092.12 238.095 L1078.13 262.317 L1092.12 286.539 L1120.09 286.539 L1134.07 262.317 L1134.07 262.317  Z
  " fill="#009af9" fill-rule="evenodd" fill-opacity="1"/>
<polyline clip-path="url(#clip072)" style="stroke:#000000; stroke-width:4; stroke-opacity:1; fill:none" points="
  1134.07,262.317 1120.09,238.095 1092.12,238.095 1078.13,262.317 1092.12,286.539 1120.09,286.539 1134.07,262.317 
  "/>
<path clip-path="url(#clip072)" d="
M1118.67 551.604 L1094.32 509.431 L1045.63 509.431 L1021.28 551.604 L1045.63 593.776 L1094.32 593.776 L1118.67 551.604 L1118.67 551.604  Z
  " fill="#009af9" fill-rule="evenodd" fill-opacity="1"/>
<polyline clip-path="url(#clip072)" style="stroke:#000000; stroke-width:4; stroke-opacity:1; fill:none" points="
  1118.67,551.604 1094.32,509.431 1045.63,509.431 1021.28,551.604 1045.63,593.776 1094.32,593.776 1118.67,551.604 
  "/>
<path clip-path="url(#clip072)" d="
M1352.77 757.98 L1335.17 727.49 L1299.96 727.49 L1282.36 757.98 L1299.96 788.47 L1335.17 788.47 L1352.77 757.98 L1352.77 757.98  Z
  " fill="#009af9" fill-rule="evenodd" fill-opacity="1"/>
<polyline clip-path="url(#clip072)" style="stroke:#000000; stroke-width:4; stroke-opacity:1; fill:none" points="
  1352.77,757.98 1335.17,727.49 1299.96,727.49 1282.36,757.98 1299.96,788.47 1335.17,788.47 1352.77,757.98 
  "/>
<path clip-path="url(#clip072)" d="
M1338.52 1012.05 L1293.32 933.77 L1202.93 933.77 L1157.73 1012.05 L1202.93 1090.33 L1293.32 1090.33 L1338.52 1012.05 L1338.52 1012.05  Z
  " fill="#009af9" fill-rule="evenodd" fill-opacity="1"/>
<polyline clip-path="url(#clip072)" style="stroke:#000000; stroke-width:4; stroke-opacity:1; fill:none" points="
  1338.52,1012.05 1293.32,933.77 1202.93,933.77 1157.73,1012.05 1202.93,1090.33 1293.32,1090.33 1338.52,1012.05 
  "/>
<path clip-path="url(#clip072)" d="
M1058.7 1257.99 L1028.05 1204.9 L966.753 1204.9 L936.103 1257.99 L966.753 1311.07 L1028.05 1311.07 L1058.7 1257.99 L1058.7 1257.99  Z
  " fill="#009af9" fill-rule="evenodd" fill-opacity="1"/>
<polyline clip-path="url(#clip072)" style="stroke:#000000; stroke-width:4; stroke-opacity:1; fill:none" points="
  1058.7,1257.99 1028.05,1204.9 966.753,1204.9 936.103,1257.99 966.753,1311.07 1028.05,1311.07 1058.7,1257.99 
  "/>
<path clip-path="url(#clip072)" d="
M1792.77 1337.68 L1765.23 1289.98 L1710.14 1289.98 L1682.59 1337.68 L1710.14 1385.39 L1765.23 1385.39 L1792.77 1337.68 L1792.77 1337.68  Z
  " fill="#009af9" fill-rule="evenodd" fill-opacity="1"/>
<polyline clip-path="url(#clip072)" style="stroke:#000000; stroke-width:4; stroke-opacity:1; fill:none" points="
  1792.77,1337.68 1765.23,1289.98 1710.14,1289.98 1682.59,1337.68 1710.14,1385.39 1765.23,1385.39 1792.77,1337.68 
  "/>
<path clip-path="url(#clip072)" d="
M717.405 1261.3 L689.861 1213.59 L634.773 1213.59 L607.229 1261.3 L634.773 1309.01 L689.861 1309.01 L717.405 1261.3 L717.405 1261.3  Z
  " fill="#009af9" fill-rule="evenodd" fill-opacity="1"/>
<polyline clip-path="url(#clip072)" style="stroke:#000000; stroke-width:4; stroke-opacity:1; fill:none" points="
  717.405,1261.3 689.861,1213.59 634.773,1213.59 607.229,1261.3 634.773,1309.01 689.861,1309.01 717.405,1261.3 
  "/>
<path clip-path="url(#clip072)" d="
M1570.46 1258.83 L1542.92 1211.12 L1487.83 1211.12 L1460.28 1258.83 L1487.83 1306.54 L1542.92 1306.54 L1570.46 1258.83 L1570.46 1258.83  Z
  " fill="#009af9" fill-rule="evenodd" fill-opacity="1"/>
<polyline clip-path="url(#clip072)" style="stroke:#000000; stroke-width:4; stroke-opacity:1; fill:none" points="
  1570.46,1258.83 1542.92,1211.12 1487.83,1211.12 1460.28,1258.83 1487.83,1306.54 1542.92,1306.54 1570.46,1258.83 
  "/>
<circle clip-path="url(#clip072)" style="fill:#009af9; stroke:none; fill-opacity:1" cx="1106.1" cy="262.317" r="2"/>
<circle clip-path="url(#clip072)" style="fill:#009af9; stroke:none; fill-opacity:1" cx="1069.97" cy="551.604" r="2"/>
<circle clip-path="url(#clip072)" style="fill:#009af9; stroke:none; fill-opacity:1" cx="1317.56" cy="757.98" r="2"/>
<circle clip-path="url(#clip072)" style="fill:#009af9; stroke:none; fill-opacity:1" cx="1248.12" cy="1012.05" r="2"/>
<circle clip-path="url(#clip072)" style="fill:#009af9; stroke:none; fill-opacity:1" cx="997.402" cy="1257.99" r="2"/>
<circle clip-path="url(#clip072)" style="fill:#009af9; stroke:none; fill-opacity:1" cx="1737.68" cy="1337.68" r="2"/>
<circle clip-path="url(#clip072)" style="fill:#009af9; stroke:none; fill-opacity:1" cx="662.317" cy="1261.3" r="2"/>
<circle clip-path="url(#clip072)" style="fill:#009af9; stroke:none; fill-opacity:1" cx="1515.37" cy="1258.83" r="2"/>
<path clip-path="url(#clip070)" d="M 0 0 M1092.94 255.98 L1089.77 264.58 L1096.12 264.58 L1092.94 255.98 M1091.62 253.677 L1094.27 253.677 L1100.85 270.957 L1098.42 270.957 L1096.85 266.524 L1089.06 266.524 L1087.49 270.957 L1085.02 270.957 L1091.62 253.677 Z" fill="#000000" fill-rule="evenodd" fill-opacity="1" /><path clip-path="url(#clip070)" d="M 0 0 M1113.86 263.133 L1113.86 270.957 L1111.73 270.957 L1111.73 263.203 Q1111.73 261.362 1111.02 260.448 Q1110.3 259.534 1108.86 259.534 Q1107.14 259.534 1106.14 260.633 Q1105.15 261.733 1105.15 263.631 L1105.15 270.957 L1103.01 270.957 L1103.01 257.994 L1105.15 257.994 L1105.15 260.008 Q1105.91 258.839 1106.94 258.261 Q1107.98 257.682 1109.34 257.682 Q1111.57 257.682 1112.72 259.071 Q1113.86 260.448 1113.86 263.133 Z" fill="#000000" fill-rule="evenodd" fill-opacity="1" /><path clip-path="url(#clip070)" d="M 0 0 M1121.49 272.161 Q1120.59 274.476 1119.73 275.182 Q1118.88 275.888 1117.44 275.888 L1115.74 275.888 L1115.74 274.105 L1116.99 274.105 Q1117.87 274.105 1118.35 273.689 Q1118.84 273.272 1119.43 271.721 L1119.81 270.749 L1114.57 257.994 L1116.83 257.994 L1120.88 268.133 L1124.93 257.994 L1127.19 257.994 L1121.49 272.161 Z" fill="#000000" fill-rule="evenodd" fill-opacity="1" /><path clip-path="url(#clip070)" d="M 0 0 M1028.05 542.964 L1031.2 542.964 L1038.86 557.42 L1038.86 542.964 L1041.13 542.964 L1041.13 560.244 L1037.98 560.244 L1030.32 545.788 L1030.32 560.244 L1028.05 560.244 L1028.05 542.964 Z" fill="#000000" fill-rule="evenodd" fill-opacity="1" /><path clip-path="url(#clip070)" d="M 0 0 M1043.15 555.128 L1043.15 547.281 L1045.28 547.281 L1045.28 555.047 Q1045.28 556.887 1045.99 557.813 Q1046.71 558.728 1048.15 558.728 Q1049.87 558.728 1050.87 557.628 Q1051.87 556.528 1051.87 554.63 L1051.87 547.281 L1054 547.281 L1054 560.244 L1051.87 560.244 L1051.87 558.253 Q1051.1 559.434 1050.07 560.012 Q1049.05 560.579 1047.69 560.579 Q1045.46 560.579 1044.3 559.19 Q1043.15 557.802 1043.15 555.128 M1048.51 546.968 L1048.51 546.968 Z" fill="#000000" fill-rule="evenodd" fill-opacity="1" /><path clip-path="url(#clip070)" d="M 0 0 M1066.33 549.769 Q1067.13 548.334 1068.24 547.651 Q1069.35 546.968 1070.85 546.968 Q1072.88 546.968 1073.98 548.392 Q1075.08 549.804 1075.08 552.42 L1075.08 560.244 L1072.94 560.244 L1072.94 552.489 Q1072.94 550.626 1072.28 549.723 Q1071.62 548.82 1070.26 548.82 Q1068.61 548.82 1067.65 549.92 Q1066.69 551.019 1066.69 552.917 L1066.69 560.244 L1064.55 560.244 L1064.55 552.489 Q1064.55 550.614 1063.89 549.723 Q1063.23 548.82 1061.85 548.82 Q1060.22 548.82 1059.26 549.931 Q1058.3 551.031 1058.3 552.917 L1058.3 560.244 L1056.16 560.244 L1056.16 547.281 L1058.3 547.281 L1058.3 549.295 Q1059.03 548.103 1060.04 547.535 Q1061.06 546.968 1062.46 546.968 Q1063.88 546.968 1064.86 547.686 Q1065.85 548.404 1066.33 549.769 Z" fill="#000000" fill-rule="evenodd" fill-opacity="1" /><path clip-path="url(#clip070)" d="M 0 0 M1086.62 553.774 Q1086.62 551.424 1085.65 550.093 Q1084.69 548.751 1083 548.751 Q1081.31 548.751 1080.33 550.093 Q1079.37 551.424 1079.37 553.774 Q1079.37 556.123 1080.33 557.466 Q1081.31 558.797 1083 558.797 Q1084.69 558.797 1085.65 557.466 Q1086.62 556.123 1086.62 553.774 M1079.37 549.248 Q1080.04 548.091 1081.06 547.535 Q1082.09 546.968 1083.52 546.968 Q1085.88 546.968 1087.35 548.843 Q1088.83 550.718 1088.83 553.774 Q1088.83 556.829 1087.35 558.704 Q1085.88 560.579 1083.52 560.579 Q1082.09 560.579 1081.06 560.024 Q1080.04 559.457 1079.37 558.299 L1079.37 560.244 L1077.23 560.244 L1077.23 542.235 L1079.37 542.235 L1079.37 549.248 Z" fill="#000000" fill-rule="evenodd" fill-opacity="1" /><path clip-path="url(#clip070)" d="M 0 0 M1102.15 553.23 L1102.15 554.272 L1092.36 554.272 Q1092.5 556.471 1093.68 557.628 Q1094.87 558.774 1096.99 558.774 Q1098.22 558.774 1099.36 558.473 Q1100.52 558.172 1101.65 557.57 L1101.65 559.584 Q1100.51 560.07 1099.3 560.325 Q1098.1 560.579 1096.86 560.579 Q1093.76 560.579 1091.94 558.774 Q1090.14 556.968 1090.14 553.89 Q1090.14 550.707 1091.85 548.843 Q1093.57 546.968 1096.49 546.968 Q1099.11 546.968 1100.62 548.658 Q1102.15 550.336 1102.15 553.23 M1100.02 552.605 Q1100 550.857 1099.04 549.816 Q1098.09 548.774 1096.51 548.774 Q1094.73 548.774 1093.66 549.781 Q1092.59 550.788 1092.43 552.616 L1100.02 552.605 Z" fill="#000000" fill-rule="evenodd" fill-opacity="1" /><path clip-path="url(#clip070)" d="M 0 0 M1111.9 549.272 Q1111.54 549.063 1111.11 548.971 Q1110.69 548.866 1110.18 548.866 Q1108.38 548.866 1107.41 550.047 Q1106.44 551.216 1106.44 553.415 L1106.44 560.244 L1104.3 560.244 L1104.3 547.281 L1106.44 547.281 L1106.44 549.295 Q1107.12 548.114 1108.19 547.547 Q1109.27 546.968 1110.81 546.968 Q1111.03 546.968 1111.29 547.003 Q1111.56 547.026 1111.88 547.084 L1111.9 549.272 Z" fill="#000000" fill-rule="evenodd" fill-opacity="1" /><path clip-path="url(#clip070)" d="M 0 0 M1304.53 758.518 Q1305.28 758.773 1305.99 759.606 Q1306.71 760.44 1307.42 761.898 L1309.8 766.62 L1307.28 766.62 L1305.07 762.187 Q1304.22 760.451 1303.41 759.884 Q1302.61 759.317 1301.22 759.317 L1298.67 759.317 L1298.67 766.62 L1296.34 766.62 L1296.34 749.34 L1301.61 749.34 Q1304.58 749.34 1306.03 750.579 Q1307.49 751.817 1307.49 754.317 Q1307.49 755.949 1306.73 757.025 Q1305.98 758.102 1304.53 758.518 M1298.67 751.262 L1298.67 757.396 L1301.61 757.396 Q1303.3 757.396 1304.16 756.62 Q1305.03 755.833 1305.03 754.317 Q1305.03 752.801 1304.16 752.037 Q1303.3 751.262 1301.61 751.262 L1298.67 751.262 Z" fill="#000000" fill-rule="evenodd" fill-opacity="1" /><path clip-path="url(#clip070)" d="M 0 0 M1322.05 759.606 L1322.05 760.648 L1312.26 760.648 Q1312.4 762.847 1313.58 764.005 Q1314.77 765.15 1316.89 765.15 Q1318.12 765.15 1319.26 764.849 Q1320.42 764.549 1321.56 763.947 L1321.56 765.961 Q1320.41 766.447 1319.21 766.701 Q1318 766.956 1316.76 766.956 Q1313.66 766.956 1311.84 765.15 Q1310.04 763.345 1310.04 760.266 Q1310.04 757.083 1311.75 755.22 Q1313.48 753.345 1316.39 753.345 Q1319.01 753.345 1320.53 755.035 Q1322.05 756.713 1322.05 759.606 M1319.92 758.981 Q1319.9 757.234 1318.94 756.192 Q1317.99 755.15 1316.42 755.15 Q1314.63 755.15 1313.56 756.157 Q1312.49 757.164 1312.33 758.993 L1319.92 758.981 Z" fill="#000000" fill-rule="evenodd" fill-opacity="1" /><path clip-path="url(#clip070)" d="M 0 0 M1330.18 760.104 Q1327.6 760.104 1326.6 760.694 Q1325.61 761.285 1325.61 762.708 Q1325.61 763.843 1326.35 764.514 Q1327.1 765.174 1328.38 765.174 Q1330.16 765.174 1331.22 763.924 Q1332.3 762.662 1332.3 760.579 L1332.3 760.104 L1330.18 760.104 M1334.43 759.224 L1334.43 766.62 L1332.3 766.62 L1332.3 764.653 Q1331.57 765.833 1330.48 766.4 Q1329.39 766.956 1327.82 766.956 Q1325.83 766.956 1324.65 765.845 Q1323.48 764.722 1323.48 762.847 Q1323.48 760.66 1324.94 759.549 Q1326.41 758.437 1329.31 758.437 L1332.3 758.437 L1332.3 758.229 Q1332.3 756.759 1331.32 755.961 Q1330.36 755.15 1328.62 755.15 Q1327.5 755.15 1326.45 755.417 Q1325.4 755.683 1324.43 756.215 L1324.43 754.248 Q1325.59 753.796 1326.69 753.576 Q1327.79 753.345 1328.84 753.345 Q1331.65 753.345 1333.04 754.803 Q1334.43 756.262 1334.43 759.224 Z" fill="#000000" fill-rule="evenodd" fill-opacity="1" /><path clip-path="url(#clip070)" d="M 0 0 M1336.66 748.611 L1338.79 748.611 L1338.79 766.62 L1336.66 766.62 L1336.66 748.611 Z" fill="#000000" fill-rule="evenodd" fill-opacity="1" /><path clip-path="url(#clip070)" d="M 0 0 M1184.62 1005.72 L1181.45 1014.31 L1187.8 1014.31 L1184.62 1005.72 M1183.3 1003.41 L1185.95 1003.41 L1192.54 1020.69 L1190.11 1020.69 L1188.53 1016.26 L1180.74 1016.26 L1179.17 1020.69 L1176.7 1020.69 L1183.3 1003.41 Z" fill="#000000" fill-rule="evenodd" fill-opacity="1" /><path clip-path="url(#clip070)" d="M 0 0 M1204.08 1014.22 Q1204.08 1011.87 1203.11 1010.54 Q1202.14 1009.2 1200.45 1009.2 Q1198.76 1009.2 1197.79 1010.54 Q1196.83 1011.87 1196.83 1014.22 Q1196.83 1016.57 1197.79 1017.91 Q1198.76 1019.25 1200.45 1019.25 Q1202.14 1019.25 1203.11 1017.91 Q1204.08 1016.57 1204.08 1014.22 M1196.83 1009.7 Q1197.5 1008.54 1198.52 1007.98 Q1199.55 1007.42 1200.98 1007.42 Q1203.34 1007.42 1204.81 1009.29 Q1206.29 1011.17 1206.29 1014.22 Q1206.29 1017.28 1204.81 1019.15 Q1203.34 1021.03 1200.98 1021.03 Q1199.55 1021.03 1198.52 1020.47 Q1197.5 1019.91 1196.83 1018.75 L1196.83 1020.69 L1194.69 1020.69 L1194.69 1002.68 L1196.83 1002.68 L1196.83 1009.7 Z" fill="#000000" fill-rule="evenodd" fill-opacity="1" /><path clip-path="url(#clip070)" d="M 0 0 M1216.79 1008.11 L1216.79 1010.13 Q1215.88 1009.66 1214.91 1009.43 Q1213.94 1009.2 1212.9 1009.2 Q1211.31 1009.2 1210.51 1009.69 Q1209.73 1010.17 1209.73 1011.14 Q1209.73 1011.88 1210.29 1012.31 Q1210.86 1012.73 1212.57 1013.11 L1213.3 1013.27 Q1215.57 1013.76 1216.52 1014.65 Q1217.48 1015.53 1217.48 1017.12 Q1217.48 1018.92 1216.04 1019.97 Q1214.62 1021.03 1212.12 1021.03 Q1211.08 1021.03 1209.95 1020.82 Q1208.82 1020.62 1207.57 1020.22 L1207.57 1018.02 Q1208.75 1018.63 1209.9 1018.94 Q1211.04 1019.25 1212.17 1019.25 Q1213.67 1019.25 1214.48 1018.74 Q1215.29 1018.22 1215.29 1017.28 Q1215.29 1016.41 1214.7 1015.95 Q1214.12 1015.48 1212.14 1015.06 L1211.4 1014.88 Q1209.42 1014.47 1208.54 1013.61 Q1207.67 1012.74 1207.67 1011.24 Q1207.67 1009.41 1208.96 1008.41 Q1210.26 1007.42 1212.64 1007.42 Q1213.82 1007.42 1214.86 1007.59 Q1215.91 1007.76 1216.79 1008.11 Z" fill="#000000" fill-rule="evenodd" fill-opacity="1" /><path clip-path="url(#clip070)" d="M 0 0 M1221.82 1004.05 L1221.82 1007.73 L1226.21 1007.73 L1226.21 1009.38 L1221.82 1009.38 L1221.82 1016.42 Q1221.82 1018.01 1222.25 1018.46 Q1222.69 1018.91 1224.02 1018.91 L1226.21 1018.91 L1226.21 1020.69 L1224.02 1020.69 Q1221.55 1020.69 1220.62 1019.78 Q1219.68 1018.85 1219.68 1016.42 L1219.68 1009.38 L1218.12 1009.38 L1218.12 1007.73 L1219.68 1007.73 L1219.68 1004.05 L1221.82 1004.05 Z" fill="#000000" fill-rule="evenodd" fill-opacity="1" /><path clip-path="url(#clip070)" d="M 0 0 M1235.95 1009.72 Q1235.59 1009.51 1235.17 1009.42 Q1234.75 1009.32 1234.24 1009.32 Q1232.43 1009.32 1231.46 1010.5 Q1230.5 1011.66 1230.5 1013.86 L1230.5 1020.69 L1228.36 1020.69 L1228.36 1007.73 L1230.5 1007.73 L1230.5 1009.74 Q1231.17 1008.56 1232.25 1008 Q1233.32 1007.42 1234.86 1007.42 Q1235.08 1007.42 1235.35 1007.45 Q1235.62 1007.47 1235.94 1007.53 L1235.95 1009.72 Z" fill="#000000" fill-rule="evenodd" fill-opacity="1" /><path clip-path="url(#clip070)" d="M 0 0 M1244.08 1014.18 Q1241.5 1014.18 1240.5 1014.77 Q1239.51 1015.36 1239.51 1016.78 Q1239.51 1017.91 1240.25 1018.59 Q1241 1019.25 1242.28 1019.25 Q1244.05 1019.25 1245.12 1018 Q1246.2 1016.73 1246.2 1014.65 L1246.2 1014.18 L1244.08 1014.18 M1248.32 1013.3 L1248.32 1020.69 L1246.2 1020.69 L1246.2 1018.72 Q1245.47 1019.91 1244.38 1020.47 Q1243.29 1021.03 1241.72 1021.03 Q1239.73 1021.03 1238.54 1019.92 Q1237.38 1018.79 1237.38 1016.92 Q1237.38 1014.73 1238.83 1013.62 Q1240.3 1012.51 1243.21 1012.51 L1246.2 1012.51 L1246.2 1012.3 Q1246.2 1010.83 1245.22 1010.03 Q1244.26 1009.22 1242.51 1009.22 Q1241.4 1009.22 1240.35 1009.49 Q1239.3 1009.75 1238.32 1010.29 L1238.32 1008.32 Q1239.49 1007.87 1240.59 1007.65 Q1241.69 1007.42 1242.73 1007.42 Q1245.55 1007.42 1246.94 1008.88 Q1248.32 1010.33 1248.32 1013.3 Z" fill="#000000" fill-rule="evenodd" fill-opacity="1" /><path clip-path="url(#clip070)" d="M 0 0 M1259.89 1008.23 L1259.89 1010.22 Q1258.98 1009.72 1258.07 1009.48 Q1257.17 1009.22 1256.24 1009.22 Q1254.17 1009.22 1253.02 1010.54 Q1251.88 1011.85 1251.88 1014.22 Q1251.88 1016.6 1253.02 1017.91 Q1254.17 1019.22 1256.24 1019.22 Q1257.17 1019.22 1258.07 1018.98 Q1258.98 1018.72 1259.89 1018.23 L1259.89 1020.19 Q1259 1020.61 1258.04 1020.82 Q1257.09 1021.03 1256.01 1021.03 Q1253.08 1021.03 1251.36 1019.19 Q1249.63 1017.35 1249.63 1014.22 Q1249.63 1011.05 1251.37 1009.23 Q1253.12 1007.42 1256.15 1007.42 Q1257.13 1007.42 1258.07 1007.63 Q1259.01 1007.82 1259.89 1008.23 Z" fill="#000000" fill-rule="evenodd" fill-opacity="1" /><path clip-path="url(#clip070)" d="M 0 0 M1264.23 1004.05 L1264.23 1007.73 L1268.61 1007.73 L1268.61 1009.38 L1264.23 1009.38 L1264.23 1016.42 Q1264.23 1018.01 1264.66 1018.46 Q1265.1 1018.91 1266.43 1018.91 L1268.61 1018.91 L1268.61 1020.69 L1266.43 1020.69 Q1263.96 1020.69 1263.02 1019.78 Q1262.09 1018.85 1262.09 1016.42 L1262.09 1009.38 L1260.52 1009.38 L1260.52 1007.73 L1262.09 1007.73 L1262.09 1004.05 L1264.23 1004.05 Z" fill="#000000" fill-rule="evenodd" fill-opacity="1" /><path clip-path="url(#clip070)" d="M 0 0 M1270.94 1003.41 L1280.87 1003.41 L1280.87 1005.38 L1273.28 1005.38 L1273.28 1010.47 L1280.13 1010.47 L1280.13 1012.44 L1273.28 1012.44 L1273.28 1020.69 L1270.94 1020.69 L1270.94 1003.41 Z" fill="#000000" fill-rule="evenodd" fill-opacity="1" /><path clip-path="url(#clip070)" d="M 0 0 M1283.1 1002.68 L1285.23 1002.68 L1285.23 1020.69 L1283.1 1020.69 L1283.1 1002.68 Z" fill="#000000" fill-rule="evenodd" fill-opacity="1" /><path clip-path="url(#clip070)" d="M 0 0 M1292.49 1009.22 Q1290.78 1009.22 1289.78 1010.57 Q1288.79 1011.9 1288.79 1014.22 Q1288.79 1016.55 1289.77 1017.89 Q1290.77 1019.22 1292.49 1019.22 Q1294.19 1019.22 1295.19 1017.88 Q1296.18 1016.54 1296.18 1014.22 Q1296.18 1011.92 1295.19 1010.58 Q1294.19 1009.22 1292.49 1009.22 M1292.49 1007.42 Q1295.27 1007.42 1296.85 1009.22 Q1298.44 1011.03 1298.44 1014.22 Q1298.44 1017.41 1296.85 1019.22 Q1295.27 1021.03 1292.49 1021.03 Q1289.7 1021.03 1288.12 1019.22 Q1286.54 1017.41 1286.54 1014.22 Q1286.54 1011.03 1288.12 1009.22 Q1289.7 1007.42 1292.49 1007.42 Z" fill="#000000" fill-rule="evenodd" fill-opacity="1" /><path clip-path="url(#clip070)" d="M 0 0 M1306.57 1014.18 Q1303.98 1014.18 1302.99 1014.77 Q1301.99 1015.36 1301.99 1016.78 Q1301.99 1017.91 1302.73 1018.59 Q1303.49 1019.25 1304.77 1019.25 Q1306.54 1019.25 1307.61 1018 Q1308.68 1016.73 1308.68 1014.65 L1308.68 1014.18 L1306.57 1014.18 M1310.81 1013.3 L1310.81 1020.69 L1308.68 1020.69 L1308.68 1018.72 Q1307.95 1019.91 1306.87 1020.47 Q1305.78 1021.03 1304.2 1021.03 Q1302.21 1021.03 1301.03 1019.92 Q1299.86 1018.79 1299.86 1016.92 Q1299.86 1014.73 1301.32 1013.62 Q1302.79 1012.51 1305.7 1012.51 L1308.68 1012.51 L1308.68 1012.3 Q1308.68 1010.83 1307.71 1010.03 Q1306.75 1009.22 1305 1009.22 Q1303.89 1009.22 1302.84 1009.49 Q1301.79 1009.75 1300.81 1010.29 L1300.81 1008.32 Q1301.98 1007.87 1303.08 1007.65 Q1304.18 1007.42 1305.22 1007.42 Q1308.04 1007.42 1309.42 1008.88 Q1310.81 1010.33 1310.81 1013.3 Z" fill="#000000" fill-rule="evenodd" fill-opacity="1" /><path clip-path="url(#clip070)" d="M 0 0 M1315.15 1004.05 L1315.15 1007.73 L1319.54 1007.73 L1319.54 1009.38 L1315.15 1009.38 L1315.15 1016.42 Q1315.15 1018.01 1315.58 1018.46 Q1316.02 1018.91 1317.35 1018.91 L1319.54 1018.91 L1319.54 1020.69 L1317.35 1020.69 Q1314.89 1020.69 1313.95 1019.78 Q1313.01 1018.85 1313.01 1016.42 L1313.01 1009.38 L1311.45 1009.38 L1311.45 1007.73 L1313.01 1007.73 L1313.01 1004.05 L1315.15 1004.05 Z" fill="#000000" fill-rule="evenodd" fill-opacity="1" /><path clip-path="url(#clip070)" d="M 0 0 M959.52 1258.37 L959.52 1264.71 L963.27 1264.71 Q965.157 1264.71 966.06 1263.93 Q966.974 1263.14 966.974 1261.53 Q966.974 1259.91 966.06 1259.15 Q965.157 1258.37 963.27 1258.37 L959.52 1258.37 M959.52 1251.27 L959.52 1256.48 L962.981 1256.48 Q964.694 1256.48 965.527 1255.84 Q966.372 1255.19 966.372 1253.87 Q966.372 1252.56 965.527 1251.92 Q964.694 1251.27 962.981 1251.27 L959.52 1251.27 M957.182 1249.35 L963.155 1249.35 Q965.828 1249.35 967.275 1250.46 Q968.722 1251.57 968.722 1253.62 Q968.722 1255.2 967.981 1256.14 Q967.24 1257.08 965.805 1257.31 Q967.53 1257.68 968.479 1258.86 Q969.439 1260.03 969.439 1261.79 Q969.439 1264.1 967.865 1265.37 Q966.291 1266.63 963.386 1266.63 L957.182 1266.63 L957.182 1249.35 Z" fill="#000000" fill-rule="evenodd" fill-opacity="1" /><path clip-path="url(#clip070)" d="M 0 0 M971.673 1253.66 L973.803 1253.66 L973.803 1266.63 L971.673 1266.63 L971.673 1253.66 M971.673 1248.62 L973.803 1248.62 L973.803 1251.31 L971.673 1251.31 L971.673 1248.62 Z" fill="#000000" fill-rule="evenodd" fill-opacity="1" /><path clip-path="url(#clip070)" d="M 0 0 M984.566 1259.99 Q984.566 1257.68 983.606 1256.41 Q982.657 1255.13 980.932 1255.13 Q979.219 1255.13 978.259 1256.41 Q977.31 1257.68 977.31 1259.99 Q977.31 1262.3 978.259 1263.57 Q979.219 1264.84 980.932 1264.84 Q982.657 1264.84 983.606 1263.57 Q984.566 1262.3 984.566 1259.99 M986.696 1265.02 Q986.696 1268.33 985.226 1269.94 Q983.756 1271.56 980.724 1271.56 Q979.601 1271.56 978.606 1271.38 Q977.61 1271.22 976.673 1270.87 L976.673 1268.8 Q977.61 1269.31 978.525 1269.56 Q979.439 1269.8 980.388 1269.8 Q982.483 1269.8 983.525 1268.7 Q984.566 1267.61 984.566 1265.4 L984.566 1264.35 Q983.907 1265.49 982.877 1266.06 Q981.847 1266.63 980.411 1266.63 Q978.027 1266.63 976.569 1264.81 Q975.11 1262.99 975.11 1259.99 Q975.11 1256.99 976.569 1255.17 Q978.027 1253.35 980.411 1253.35 Q981.847 1253.35 982.877 1253.92 Q983.907 1254.49 984.566 1255.63 L984.566 1253.66 L986.696 1253.66 L986.696 1265.02 Z" fill="#000000" fill-rule="evenodd" fill-opacity="1" /><path clip-path="url(#clip070)" d="M 0 0 M989.022 1249.35 L998.953 1249.35 L998.953 1251.31 L991.36 1251.31 L991.36 1256.41 L998.212 1256.41 L998.212 1258.37 L991.36 1258.37 L991.36 1266.63 L989.022 1266.63 L989.022 1249.35 Z" fill="#000000" fill-rule="evenodd" fill-opacity="1" /><path clip-path="url(#clip070)" d="M 0 0 M1001.19 1248.62 L1003.32 1248.62 L1003.32 1266.63 L1001.19 1266.63 L1001.19 1248.62 Z" fill="#000000" fill-rule="evenodd" fill-opacity="1" /><path clip-path="url(#clip070)" d="M 0 0 M1010.57 1255.16 Q1008.86 1255.16 1007.86 1256.5 Q1006.87 1257.83 1006.87 1260.16 Q1006.87 1262.48 1007.85 1263.83 Q1008.85 1265.16 1010.57 1265.16 Q1012.27 1265.16 1013.27 1263.81 Q1014.27 1262.47 1014.27 1260.16 Q1014.27 1257.85 1013.27 1256.51 Q1012.27 1255.16 1010.57 1255.16 M1010.57 1253.35 Q1013.35 1253.35 1014.94 1255.16 Q1016.52 1256.96 1016.52 1260.16 Q1016.52 1263.34 1014.94 1265.16 Q1013.35 1266.96 1010.57 1266.96 Q1007.78 1266.96 1006.2 1265.16 Q1004.62 1263.34 1004.62 1260.16 Q1004.62 1256.96 1006.2 1255.16 Q1007.78 1253.35 1010.57 1253.35 Z" fill="#000000" fill-rule="evenodd" fill-opacity="1" /><path clip-path="url(#clip070)" d="M 0 0 M1024.65 1260.11 Q1022.07 1260.11 1021.07 1260.7 Q1020.08 1261.29 1020.08 1262.71 Q1020.08 1263.85 1020.82 1264.52 Q1021.57 1265.18 1022.85 1265.18 Q1024.62 1265.18 1025.69 1263.93 Q1026.77 1262.67 1026.77 1260.59 L1026.77 1260.11 L1024.65 1260.11 M1028.89 1259.23 L1028.89 1266.63 L1026.77 1266.63 L1026.77 1264.66 Q1026.04 1265.84 1024.95 1266.41 Q1023.86 1266.96 1022.29 1266.96 Q1020.3 1266.96 1019.11 1265.85 Q1017.95 1264.73 1017.95 1262.85 Q1017.95 1260.67 1019.4 1259.56 Q1020.87 1258.44 1023.78 1258.44 L1026.77 1258.44 L1026.77 1258.24 Q1026.77 1256.77 1025.79 1255.97 Q1024.83 1255.16 1023.08 1255.16 Q1021.97 1255.16 1020.92 1255.42 Q1019.87 1255.69 1018.89 1256.22 L1018.89 1254.25 Q1020.06 1253.8 1021.16 1253.58 Q1022.26 1253.35 1023.3 1253.35 Q1026.12 1253.35 1027.51 1254.81 Q1028.89 1256.27 1028.89 1259.23 Z" fill="#000000" fill-rule="evenodd" fill-opacity="1" /><path clip-path="url(#clip070)" d="M 0 0 M1033.24 1249.98 L1033.24 1253.66 L1037.62 1253.66 L1037.62 1255.32 L1033.24 1255.32 L1033.24 1262.36 Q1033.24 1263.94 1033.66 1264.39 Q1034.1 1264.84 1035.43 1264.84 L1037.62 1264.84 L1037.62 1266.63 L1035.43 1266.63 Q1032.97 1266.63 1032.03 1265.71 Q1031.09 1264.79 1031.09 1262.36 L1031.09 1255.32 L1029.53 1255.32 L1029.53 1253.66 L1031.09 1253.66 L1031.09 1249.98 L1033.24 1249.98 Z" fill="#000000" fill-rule="evenodd" fill-opacity="1" /><path clip-path="url(#clip070)" d="M 0 0 M1700.14 1329.04 L1710.07 1329.04 L1710.07 1331.01 L1702.48 1331.01 L1702.48 1336.1 L1709.33 1336.1 L1709.33 1338.07 L1702.48 1338.07 L1702.48 1346.32 L1700.14 1346.32 L1700.14 1329.04 Z" fill="#000000" fill-rule="evenodd" fill-opacity="1" /><path clip-path="url(#clip070)" d="M 0 0 M1712.31 1328.31 L1714.44 1328.31 L1714.44 1346.32 L1712.31 1346.32 L1712.31 1328.31 Z" fill="#000000" fill-rule="evenodd" fill-opacity="1" /><path clip-path="url(#clip070)" d="M 0 0 M1721.69 1334.85 Q1719.98 1334.85 1718.98 1336.2 Q1717.99 1337.53 1717.99 1339.85 Q1717.99 1342.18 1718.97 1343.52 Q1719.97 1344.85 1721.69 1344.85 Q1723.39 1344.85 1724.39 1343.51 Q1725.39 1342.17 1725.39 1339.85 Q1725.39 1337.55 1724.39 1336.21 Q1723.39 1334.85 1721.69 1334.85 M1721.69 1333.05 Q1724.47 1333.05 1726.06 1334.85 Q1727.64 1336.66 1727.64 1339.85 Q1727.64 1343.04 1726.06 1344.85 Q1724.47 1346.66 1721.69 1346.66 Q1718.9 1346.66 1717.32 1344.85 Q1715.74 1343.04 1715.74 1339.85 Q1715.74 1336.66 1717.32 1334.85 Q1718.9 1333.05 1721.69 1333.05 Z" fill="#000000" fill-rule="evenodd" fill-opacity="1" /><path clip-path="url(#clip070)" d="M 0 0 M1735.77 1339.81 Q1733.19 1339.81 1732.19 1340.4 Q1731.2 1340.99 1731.2 1342.41 Q1731.2 1343.55 1731.94 1344.22 Q1732.69 1344.88 1733.97 1344.88 Q1735.74 1344.88 1736.81 1343.63 Q1737.89 1342.36 1737.89 1340.28 L1737.89 1339.81 L1735.77 1339.81 M1740.01 1338.93 L1740.01 1346.32 L1737.89 1346.32 L1737.89 1344.36 Q1737.16 1345.54 1736.07 1346.1 Q1734.98 1346.66 1733.41 1346.66 Q1731.42 1346.66 1730.23 1345.55 Q1729.07 1344.42 1729.07 1342.55 Q1729.07 1340.36 1730.52 1339.25 Q1731.99 1338.14 1734.9 1338.14 L1737.89 1338.14 L1737.89 1337.93 Q1737.89 1336.46 1736.91 1335.66 Q1735.95 1334.85 1734.2 1334.85 Q1733.09 1334.85 1732.04 1335.12 Q1730.99 1335.39 1730.02 1335.92 L1730.02 1333.95 Q1731.18 1333.5 1732.28 1333.28 Q1733.38 1333.05 1734.42 1333.05 Q1737.24 1333.05 1738.63 1334.51 Q1740.01 1335.96 1740.01 1338.93 Z" fill="#000000" fill-rule="evenodd" fill-opacity="1" /><path clip-path="url(#clip070)" d="M 0 0 M1744.36 1329.68 L1744.36 1333.36 L1748.74 1333.36 L1748.74 1335.01 L1744.36 1335.01 L1744.36 1342.05 Q1744.36 1343.64 1744.78 1344.09 Q1745.22 1344.54 1746.55 1344.54 L1748.74 1344.54 L1748.74 1346.32 L1746.55 1346.32 Q1744.09 1346.32 1743.15 1345.41 Q1742.21 1344.48 1742.21 1342.05 L1742.21 1335.01 L1740.65 1335.01 L1740.65 1333.36 L1742.21 1333.36 L1742.21 1329.68 L1744.36 1329.68 Z" fill="#000000" fill-rule="evenodd" fill-opacity="1" /><path clip-path="url(#clip070)" d="M 0 0 M1751.68 1344.36 L1755.5 1344.36 L1755.5 1331.17 L1751.35 1332.01 L1751.35 1329.88 L1755.48 1329.04 L1757.82 1329.04 L1757.82 1344.36 L1761.64 1344.36 L1761.64 1346.32 L1751.68 1346.32 L1751.68 1344.36 Z" fill="#000000" fill-rule="evenodd" fill-opacity="1" /><path clip-path="url(#clip070)" d="M 0 0 M1769.46 1336.75 Q1767.89 1336.75 1766.96 1337.83 Q1766.04 1338.9 1766.04 1340.78 Q1766.04 1342.64 1766.96 1343.73 Q1767.89 1344.81 1769.46 1344.81 Q1771.03 1344.81 1771.95 1343.73 Q1772.87 1342.64 1772.87 1340.78 Q1772.87 1338.9 1771.95 1337.83 Q1771.03 1336.75 1769.46 1336.75 M1774.1 1329.42 L1774.1 1331.55 Q1773.22 1331.14 1772.32 1330.92 Q1771.43 1330.7 1770.55 1330.7 Q1768.23 1330.7 1767.01 1332.26 Q1765.79 1333.82 1765.62 1336.98 Q1766.3 1335.98 1767.33 1335.44 Q1768.36 1334.9 1769.6 1334.9 Q1772.2 1334.9 1773.71 1336.48 Q1775.22 1338.06 1775.22 1340.78 Q1775.22 1343.44 1773.65 1345.05 Q1772.07 1346.66 1769.46 1346.66 Q1766.46 1346.66 1764.88 1344.37 Q1763.29 1342.06 1763.29 1337.7 Q1763.29 1333.6 1765.23 1331.17 Q1767.18 1328.73 1770.45 1328.73 Q1771.33 1328.73 1772.23 1328.9 Q1773.13 1329.08 1774.1 1329.42 Z" fill="#000000" fill-rule="evenodd" fill-opacity="1" /><path clip-path="url(#clip070)" d="M 0 0 M625.072 1252.66 L635.003 1252.66 L635.003 1254.63 L627.41 1254.63 L627.41 1259.72 L634.262 1259.72 L634.262 1261.69 L627.41 1261.69 L627.41 1269.94 L625.072 1269.94 L625.072 1252.66 Z" fill="#000000" fill-rule="evenodd" fill-opacity="1" /><path clip-path="url(#clip070)" d="M 0 0 M637.236 1251.93 L639.366 1251.93 L639.366 1269.94 L637.236 1269.94 L637.236 1251.93 Z" fill="#000000" fill-rule="evenodd" fill-opacity="1" /><path clip-path="url(#clip070)" d="M 0 0 M646.623 1258.47 Q644.91 1258.47 643.915 1259.81 Q642.919 1261.14 642.919 1263.47 Q642.919 1265.8 643.903 1267.14 Q644.898 1268.47 646.623 1268.47 Q648.324 1268.47 649.32 1267.13 Q650.315 1265.79 650.315 1263.47 Q650.315 1261.17 649.32 1259.82 Q648.324 1258.47 646.623 1258.47 M646.623 1256.66 Q649.401 1256.66 650.986 1258.47 Q652.572 1260.28 652.572 1263.47 Q652.572 1266.65 650.986 1268.47 Q649.401 1270.28 646.623 1270.28 Q643.834 1270.28 642.248 1268.47 Q640.674 1266.65 640.674 1263.47 Q640.674 1260.28 642.248 1258.47 Q643.834 1256.66 646.623 1256.66 Z" fill="#000000" fill-rule="evenodd" fill-opacity="1" /><path clip-path="url(#clip070)" d="M 0 0 M660.697 1263.42 Q658.116 1263.42 657.12 1264.01 Q656.125 1264.6 656.125 1266.03 Q656.125 1267.16 656.866 1267.83 Q657.618 1268.49 658.903 1268.49 Q660.674 1268.49 661.739 1267.24 Q662.815 1265.98 662.815 1263.9 L662.815 1263.42 L660.697 1263.42 M664.945 1262.54 L664.945 1269.94 L662.815 1269.94 L662.815 1267.97 Q662.086 1269.15 660.998 1269.72 Q659.91 1270.28 658.336 1270.28 Q656.345 1270.28 655.164 1269.16 Q653.995 1268.04 653.995 1266.17 Q653.995 1263.98 655.454 1262.87 Q656.924 1261.76 659.829 1261.76 L662.815 1261.76 L662.815 1261.55 Q662.815 1260.08 661.843 1259.28 Q660.882 1258.47 659.134 1258.47 Q658.023 1258.47 656.97 1258.74 Q655.917 1259 654.945 1259.54 L654.945 1257.57 Q656.114 1257.12 657.213 1256.9 Q658.313 1256.66 659.354 1256.66 Q662.167 1256.66 663.556 1258.12 Q664.945 1259.58 664.945 1262.54 Z" fill="#000000" fill-rule="evenodd" fill-opacity="1" /><path clip-path="url(#clip070)" d="M 0 0 M669.285 1253.3 L669.285 1256.98 L673.671 1256.98 L673.671 1258.63 L669.285 1258.63 L669.285 1265.67 Q669.285 1267.25 669.713 1267.71 Q670.153 1268.16 671.484 1268.16 L673.671 1268.16 L673.671 1269.94 L671.484 1269.94 Q669.019 1269.94 668.081 1269.03 Q667.144 1268.1 667.144 1265.67 L667.144 1258.63 L665.581 1258.63 L665.581 1256.98 L667.144 1256.98 L667.144 1253.3 L669.285 1253.3 Z" fill="#000000" fill-rule="evenodd" fill-opacity="1" /><path clip-path="url(#clip070)" d="M 0 0 M683.289 1260.62 Q684.968 1260.98 685.905 1262.12 Q686.854 1263.25 686.854 1264.92 Q686.854 1267.47 685.095 1268.88 Q683.336 1270.28 680.095 1270.28 Q679.007 1270.28 677.85 1270.06 Q676.704 1269.85 675.477 1269.42 L675.477 1267.16 Q676.449 1267.73 677.606 1268.02 Q678.764 1268.31 680.025 1268.31 Q682.225 1268.31 683.37 1267.44 Q684.528 1266.57 684.528 1264.92 Q684.528 1263.39 683.451 1262.53 Q682.387 1261.66 680.477 1261.66 L678.463 1261.66 L678.463 1259.74 L680.569 1259.74 Q682.294 1259.74 683.208 1259.06 Q684.123 1258.37 684.123 1257.07 Q684.123 1255.74 683.174 1255.03 Q682.236 1254.32 680.477 1254.32 Q679.516 1254.32 678.417 1254.52 Q677.317 1254.73 675.998 1255.17 L675.998 1253.09 Q677.329 1252.72 678.486 1252.53 Q679.655 1252.35 680.685 1252.35 Q683.347 1252.35 684.898 1253.56 Q686.449 1254.77 686.449 1256.83 Q686.449 1258.26 685.627 1259.26 Q684.806 1260.24 683.289 1260.62 Z" fill="#000000" fill-rule="evenodd" fill-opacity="1" /><path clip-path="url(#clip070)" d="M 0 0 M691.403 1267.97 L699.562 1267.97 L699.562 1269.94 L688.59 1269.94 L688.59 1267.97 Q689.921 1266.6 692.213 1264.28 Q694.516 1261.95 695.106 1261.28 Q696.229 1260.02 696.669 1259.15 Q697.12 1258.27 697.12 1257.43 Q697.12 1256.05 696.148 1255.18 Q695.187 1254.32 693.636 1254.32 Q692.537 1254.32 691.31 1254.7 Q690.095 1255.08 688.706 1255.85 L688.706 1253.49 Q690.118 1252.93 691.345 1252.64 Q692.572 1252.35 693.59 1252.35 Q696.275 1252.35 697.873 1253.69 Q699.47 1255.03 699.47 1257.28 Q699.47 1258.34 699.065 1259.3 Q698.671 1260.25 697.618 1261.55 Q697.329 1261.88 695.778 1263.49 Q694.227 1265.09 691.403 1267.97 Z" fill="#000000" fill-rule="evenodd" fill-opacity="1" /><path clip-path="url(#clip070)" d="M 0 0 M1477.4 1250.19 L1487.33 1250.19 L1487.33 1252.16 L1479.74 1252.16 L1479.74 1257.25 L1486.59 1257.25 L1486.59 1259.22 L1479.74 1259.22 L1479.74 1267.47 L1477.4 1267.47 L1477.4 1250.19 Z" fill="#000000" fill-rule="evenodd" fill-opacity="1" /><path clip-path="url(#clip070)" d="M 0 0 M1489.57 1249.46 L1491.7 1249.46 L1491.7 1267.47 L1489.57 1267.47 L1489.57 1249.46 Z" fill="#000000" fill-rule="evenodd" fill-opacity="1" /><path clip-path="url(#clip070)" d="M 0 0 M1498.95 1256 Q1497.24 1256 1496.25 1257.34 Q1495.25 1258.67 1495.25 1261 Q1495.25 1263.33 1496.23 1264.67 Q1497.23 1266 1498.95 1266 Q1500.66 1266 1501.65 1264.66 Q1502.65 1263.31 1502.65 1261 Q1502.65 1258.7 1501.65 1257.35 Q1500.66 1256 1498.95 1256 M1498.95 1254.19 Q1501.73 1254.19 1503.32 1256 Q1504.9 1257.8 1504.9 1261 Q1504.9 1264.18 1503.32 1266 Q1501.73 1267.8 1498.95 1267.8 Q1496.17 1267.8 1494.58 1266 Q1493.01 1264.18 1493.01 1261 Q1493.01 1257.8 1494.58 1256 Q1496.17 1254.19 1498.95 1254.19 Z" fill="#000000" fill-rule="evenodd" fill-opacity="1" /><path clip-path="url(#clip070)" d="M 0 0 M1513.03 1260.95 Q1510.45 1260.95 1509.45 1261.54 Q1508.46 1262.13 1508.46 1263.56 Q1508.46 1264.69 1509.2 1265.36 Q1509.95 1266.02 1511.23 1266.02 Q1513.01 1266.02 1514.07 1264.77 Q1515.15 1263.51 1515.15 1261.43 L1515.15 1260.95 L1513.03 1260.95 M1517.28 1260.07 L1517.28 1267.47 L1515.15 1267.47 L1515.15 1265.5 Q1514.42 1266.68 1513.33 1267.25 Q1512.24 1267.8 1510.67 1267.8 Q1508.68 1267.8 1507.5 1266.69 Q1506.33 1265.57 1506.33 1263.7 Q1506.33 1261.51 1507.79 1260.4 Q1509.26 1259.29 1512.16 1259.29 L1515.15 1259.29 L1515.15 1259.08 Q1515.15 1257.61 1514.17 1256.81 Q1513.21 1256 1511.47 1256 Q1510.36 1256 1509.3 1256.27 Q1508.25 1256.53 1507.28 1257.06 L1507.28 1255.1 Q1508.45 1254.65 1509.54 1254.43 Q1510.64 1254.19 1511.69 1254.19 Q1514.5 1254.19 1515.89 1255.65 Q1517.28 1257.11 1517.28 1260.07 Z" fill="#000000" fill-rule="evenodd" fill-opacity="1" /><path clip-path="url(#clip070)" d="M 0 0 M1521.62 1250.83 L1521.62 1254.51 L1526 1254.51 L1526 1256.16 L1521.62 1256.16 L1521.62 1263.2 Q1521.62 1264.78 1522.04 1265.24 Q1522.48 1265.69 1523.82 1265.69 L1526 1265.69 L1526 1267.47 L1523.82 1267.47 Q1521.35 1267.47 1520.41 1266.55 Q1519.48 1265.63 1519.48 1263.2 L1519.48 1256.16 L1517.91 1256.16 L1517.91 1254.51 L1519.48 1254.51 L1519.48 1250.83 L1521.62 1250.83 Z" fill="#000000" fill-rule="evenodd" fill-opacity="1" /><path clip-path="url(#clip070)" d="M 0 0 M1533.83 1257.9 Q1532.25 1257.9 1531.33 1258.97 Q1530.41 1260.05 1530.41 1261.93 Q1530.41 1263.79 1531.33 1264.88 Q1532.25 1265.95 1533.83 1265.95 Q1535.4 1265.95 1536.32 1264.88 Q1537.24 1263.79 1537.24 1261.93 Q1537.24 1260.05 1536.32 1258.97 Q1535.4 1257.9 1533.83 1257.9 M1538.47 1250.57 L1538.47 1252.7 Q1537.59 1252.28 1536.69 1252.06 Q1535.79 1251.84 1534.92 1251.84 Q1532.6 1251.84 1531.37 1253.41 Q1530.16 1254.97 1529.98 1258.13 Q1530.67 1257.12 1531.7 1256.59 Q1532.73 1256.05 1533.97 1256.05 Q1536.57 1256.05 1538.07 1257.63 Q1539.59 1259.21 1539.59 1261.93 Q1539.59 1264.59 1538.02 1266.2 Q1536.44 1267.8 1533.83 1267.8 Q1530.83 1267.8 1529.24 1265.51 Q1527.66 1263.21 1527.66 1258.85 Q1527.66 1254.75 1529.6 1252.32 Q1531.55 1249.88 1534.82 1249.88 Q1535.7 1249.88 1536.59 1250.05 Q1537.5 1250.22 1538.47 1250.57 Z" fill="#000000" fill-rule="evenodd" fill-opacity="1" /><path clip-path="url(#clip070)" d="M 0 0 M1548.55 1252.23 L1542.65 1261.45 L1548.55 1261.45 L1548.55 1252.23 M1547.94 1250.19 L1550.88 1250.19 L1550.88 1261.45 L1553.34 1261.45 L1553.34 1263.4 L1550.88 1263.4 L1550.88 1267.47 L1548.55 1267.47 L1548.55 1263.4 L1540.75 1263.4 L1540.75 1261.14 L1547.94 1250.19 Z" fill="#000000" fill-rule="evenodd" fill-opacity="1" /></svg>
