<?xml version="1.0" encoding="UTF-8"?>
<svg xmlns="http://www.w3.org/2000/svg"
     xmlns:xlink="http://www.w3.org/1999/xlink"
     xmlns:gadfly="http://www.gadflyjl.org/ns"
     version="1.2"
     width="141.42mm" height="100mm" viewBox="0 0 141.42 100"
     stroke="none"
     fill="#000000"
     stroke-width="0.3"
     font-size="3.88"
>
<defs>
  <marker id="arrow" markerWidth="15" markerHeight="7" refX="5" refY="3.5" orient="auto" markerUnits="strokeWidth">
    <path d="M0,0 L15,3.5 L0,7 z" stroke="context-stroke" fill="context-stroke"/>
  </marker>
</defs>
<g class="plotroot xscalable yscalable" id="img-e8522686-1">
  <g font-size="3.88" font-family="'PT Sans','Helvetica Neue','Helvetica',sans-serif" fill="#564A55" stroke="#000000" stroke-opacity="0.000" id="img-e8522686-2">
    <g transform="translate(76.01,88.39)">
      <g class="primitive">
        <text text-anchor="middle" dy="0.6em">x</text>
      </g>
    </g>
  </g>
  <g class="guide xlabels" font-size="2.82" font-family="'PT Sans Caption','Helvetica Neue','Helvetica',sans-serif" fill="#6C606B" id="img-e8522686-3">
    <g transform="translate(17.59,81.72)">
      <g class="primitive">
        <text text-anchor="middle" dy="0.6em">0</text>
      </g>
    </g>
    <g transform="translate(56.54,81.72)">
      <g class="primitive">
        <text text-anchor="middle" dy="0.6em">500</text>
      </g>
    </g>
    <g transform="translate(95.48,81.72)">
      <g class="primitive">
        <text text-anchor="middle" dy="0.6em">1000</text>
      </g>
    </g>
    <g transform="translate(134.42,81.72)">
      <g class="primitive">
        <text text-anchor="middle" dy="0.6em">1500</text>
      </g>
    </g>
  </g>
  <g clip-path="url(#img-e8522686-4)">
    <g id="img-e8522686-5">
      <g pointer-events="visible" fill="#000000" fill-opacity="0.000" stroke="#000000" stroke-opacity="0.000" class="guide background" id="img-e8522686-6">
        <g transform="translate(76.01,45.66)" id="img-e8522686-7">
          <path d="M-60.41,-35.05 L 60.41 -35.05 60.41 35.05 -60.41 35.05 z" class="primitive"/>
        </g>
      </g>
      <g class="guide ygridlines xfixed" stroke-dasharray="0.5,0.5" stroke-width="0.2" stroke="#D0D0E0" id="img-e8522686-8">
        <g transform="translate(76.01,78.72)" id="img-e8522686-9">
          <path fill="none" d="M-60.41,0 L 60.41 0" class="primitive"/>
        </g>
        <g transform="translate(76.01,62.19)" id="img-e8522686-10">
          <path fill="none" d="M-60.41,0 L 60.41 0" class="primitive"/>
        </g>
        <g transform="translate(76.01,45.66)" id="img-e8522686-11">
          <path fill="none" d="M-60.41,0 L 60.41 0" class="primitive"/>
        </g>
        <g transform="translate(76.01,29.14)" id="img-e8522686-12">
          <path fill="none" d="M-60.41,0 L 60.41 0" class="primitive"/>
        </g>
        <g transform="translate(76.01,12.61)" id="img-e8522686-13">
          <path fill="none" d="M-60.41,0 L 60.41 0" class="primitive"/>
        </g>
      </g>
      <g class="guide xgridlines yfixed" stroke-dasharray="0.5,0.5" stroke-width="0.2" stroke="#D0D0E0" id="img-e8522686-14">
        <g transform="translate(17.59,45.66)" id="img-e8522686-15">
          <path fill="none" d="M0,-35.05 L 0 35.05" class="primitive"/>
        </g>
        <g transform="translate(56.54,45.66)" id="img-e8522686-16">
          <path fill="none" d="M0,-35.05 L 0 35.05" class="primitive"/>
        </g>
        <g transform="translate(95.48,45.66)" id="img-e8522686-17">
          <path fill="none" d="M0,-35.05 L 0 35.05" class="primitive"/>
        </g>
        <g transform="translate(134.42,45.66)" id="img-e8522686-18">
          <path fill="none" d="M0,-35.05 L 0 35.05" class="primitive"/>
        </g>
      </g>
      <g class="plotpanel" id="img-e8522686-19">
        <metadata>
          <boundingbox value="15.592500000000001mm 10.611666666666665mm 120.82885623730951mm 70.10333333333334mm"/>
          <unitbox value="-25.67858743653389 3.1210226413191466 1551.3571748730676 -4.242045282638293"/>
        </metadata>
        <g stroke-width="0.3" fill="#000000" fill-opacity="0.000" class="geometry" id="img-e8522686-20">
          <g class="color_LCHab{Float32}(70.0f0,60.0f0,240.0f0)" stroke-dasharray="none" stroke="#00BFFF" id="img-e8522686-21">
            <g transform="translate(57.51,62.17)" id="img-e8522686-22">
              <path fill="none" d="M-39.84,0.02 L -39.76 0.02 -39.68 0.02 -39.6 0.02 -39.53 0.02 -39.45 0.02 -39.37 0.02 -39.29 0.02 -39.22 0.02 -39.14 0.02 -39.06 0.02 -38.98 11.88 -38.9 13.97 -38.83 0.02 -38.75 0.02 -38.67 0.02 -38.59 0.02 -38.51 0.02 -38.44 0.02 -38.36 0.02 -38.28 0.02 -38.2 0.02 -38.13 0.02 -38.05 0.02 -37.97 0.02 -37.89 0.02 -37.81 0.02 -37.74 0.02 -37.66 0.02 -37.58 0.02 -37.5 0.02 -37.42 0.02 -37.35 0.02 -37.27 0.02 -37.19 0.02 -37.11 0.02 -37.03 0.02 -36.96 0.02 -36.88 0.02 -36.8 0.02 -36.72 0.02 -36.65 0.02 -36.57 0.02 -36.49 0.02 -36.41 0.02 -36.33 0.02 -36.26 0.02 -36.18 0.02 -36.1 0.02 -36.02 0.02 -35.94 0.02 -35.87 0.02 -35.79 0.02 -35.71 0.02 -35.63 0.02 -35.55 0.02 -35.48 0.02 -35.4 0.02 -35.32 0.02 -35.24 0.02 -35.17 0.02 -35.09 0.02 -35.01 0.02 -34.93 0.02 -34.85 0.02 -34.78 0.02 -34.7 0.02 -34.62 0.02 -34.54 0.02 -34.46 0.02 -34.39 0.02 -34.31 0.02 -34.23 0.02 -34.15 0.02 -34.08 0.02 -34 0.02 -33.92 0.02 -33.84 0.02 -33.76 -33.82 -33.69 0.02 -33.61 0.02 -33.53 0.02 -33.45 0.02 -33.37 0.02 -33.3 0.02 -33.22 0.02 -33.14 0.02 -33.06 0.02 -32.98 0.02 -32.91 12.17 -32.83 0.02 -32.75 0.02 -32.67 0.02 -32.6 0.02 -32.52 0.02 -32.44 0.02 -32.36 0.02 -32.28 0.02 -32.21 0.02 -32.13 0.02 -32.05 0.02 -31.97 0.02 -31.89 0.02 -31.82 0.02 -31.74 0.02 -31.66 0.02 -31.58 0.02 -31.5 0.02 -31.43 0.02 -31.35 0.02 -31.27 0.02 -31.19 0.02 -31.12 0.02 -31.04 0.02 -30.96 0.02 -30.88 0.02 -30.8 0.02 -30.73 0.02 -30.65 0.02 -30.57 0.02 -30.49 0.02 -30.41 0.02 -30.34 0.02 -30.26 0.02 -30.18 0.02 -30.1 0.02 -30.03 0.02 -29.95 0.02 -29.87 0.02 -29.79 0.02 -29.71 0.02 -29.64 0.02 -29.56 0.02 -29.48 -7.57 -29.4 0.02 -29.32 0.02 -29.25 0.02 -29.17 0.02 -29.09 0.02 -29.01 0.02 -28.93 0.02 -28.86 0.02 -28.78 0.02 -28.7 0.02 -28.62 0.02 -28.55 0.02 -28.47 0.02 -28.39 0.02 -28.31 0.02 -28.23 0.02 -28.16 0.02 -28.08 0.02 -28 0.02 -27.92 0.02 -27.84 0.02 -27.77 0.02 -27.69 0.02 -27.61 0.02 -27.53 0.02 -27.45 0.02 -27.38 0.02 -27.3 0.02 -27.22 0.02 -27.14 0.02 -27.07 0.02 -26.99 0.02 -26.91 0.02 -26.83 0.02 -26.75 0.02 -26.68 0.02 -26.6 0.02 -26.52 0.02 -26.44 0.02 -26.36 0.02 -26.29 0.02 -26.21 0.02 -26.13 0.02 -26.05 0.02 -25.97 0.02 -25.9 0.02 -25.82 0.02 -25.74 0.02 -25.66 0.02 -25.59 0.02 -25.51 0.02 -25.43 0.02 -25.35 0.02 -25.27 0.02 -25.2 0.02 -25.12 0.02 -25.04 0.02 -24.96 0.02 -24.88 0.02 -24.81 0.02 -24.73 6.58 -24.65 0.02 -24.57 0.02 -24.5 0.02 -24.42 0.02 -24.34 0.02 -24.26 0.02 -24.18 0.02 -24.11 0.02 -24.03 0.02 -23.95 0.02 -23.87 0.02 -23.79 0.02 -23.72 0.02 -23.64 0.02 -23.56 0.02 -23.48 0.02 -23.4 0.02 -23.33 0.02 -23.25 0.02 -23.17 0.02 -23.09 0.02 -23.02 0.02 -22.94 0.02 -22.86 0.02 -22.78 0.02 -22.7 0.02 -22.63 0.02 -22.55 0.02 -22.47 0.02 -22.39 0.02 -22.31 0.02 -22.24 0.02 -22.16 0.02 -22.08 0.02 -22 0.02 -21.92 0.02 -21.85 0.02 -21.77 0.02 -21.69 0.02 -21.61 0.02 -21.54 0.02 -21.46 0.02 -21.38 0.02 -21.3 0.02 -21.22 0.02 -21.15 0.02 -21.07 0.02 -20.99 0.02 -20.91 0.02 -20.83 0.02 -20.76 0.02 -20.68 0.02 -20.6 0.02 -20.52 0.02 -20.45 0.02 -20.37 0.02 -20.29 0.02 -20.21 0.02 -20.13 0.02 -20.06 0.02 -19.98 0.02 -19.9 0.02 -19.82 0.02 -19.74 0.02 -19.67 0.02 -19.59 0.02 -19.51 0.02 -19.43 0.02 -19.35 0.02 -19.28 0.02 -19.2 0.02 -19.12 0.02 -19.04 0.02 -18.97 0.02 -18.89 0.02 -18.81 0.02 -18.73 0.02 -18.65 0.02 -18.58 0.02 -18.5 0.02 -18.42 0.02 -18.34 0.02 -18.26 0.02 -18.19 0.02 -18.11 0.02 -18.03 0.02 -17.95 0.02 -17.87 0.02 -17.8 0.02 -17.72 0.02 -17.64 0.02 -17.56 0.02 -17.49 0.02 -17.41 0.02 -17.33 0.02 -17.25 0.02 -17.17 0.02 -17.1 0.02 -17.02 0.02 -16.94 0.02 -16.86 -18.86 -16.78 0.02 -16.71 0.02 -16.63 0.02 -16.55 0.02 -16.47 0.02 -16.39 0.02 -16.32 0.02 -16.24 0.02 -16.16 0.02 -16.08 0.02 -16.01 0.02 -15.93 0.02 -15.85 0.02 -15.77 0.02 -15.69 0.02 -15.62 0.02 -15.54 0.02 -15.46 0.02 -15.38 0.02 -15.3 0.02 -15.23 0.02 -15.15 0.02 -15.07 0.02 -14.99 0.02 -14.92 0.02 -14.84 0.02 -14.76 0.02 -14.68 0.02 -14.6 0.02 -14.53 0.02 -14.45 0.02 -14.37 0.02 -14.29 0.02 -14.21 0.02 -14.14 0.02 -14.06 0.02 -13.98 0.02 -13.9 0.02 -13.82 0.02 -13.75 0.02 -13.67 0.02 -13.59 0.02 -13.51 0.02 -13.44 0.02 -13.36 0.02 -13.28 0.02 -13.2 0.02 -13.12 0.02 -13.05 0.02 -12.97 0.02 -12.89 0.02 -12.81 0.02 -12.73 0.02 -12.66 0.02 -12.58 0.02 -12.5 0.02 -12.42 0.02 -12.34 -9.77 -12.27 0.02 -12.19 0.02 -12.11 0.02 -12.03 0.02 -11.96 0.02 -11.88 0.02 -11.8 0.02 -11.72 0.02 -11.64 0.02 -11.57 0.02 -11.49 0.02 -11.41 0.02 -11.33 0.02 -11.25 0.02 -11.18 0.02 -11.1 0.02 -11.02 0.02 -10.94 0.02 -10.87 0.02 -10.79 0.02 -10.71 0.02 -10.63 0.02 -10.55 0.02 -10.48 0.02 -10.4 0.02 -10.32 0.02 -10.24 0.02 -10.16 0.02 -10.09 0.02 -10.01 0.02 -9.93 0.02 -9.85 0.02 -9.77 0.02 -9.7 0.02 -9.62 0.02 -9.54 0.02 -9.46 0.02 -9.39 0.02 -9.31 0.02 -9.23 0.02 -9.15 0.02 -9.07 0.02 -9 0.02 -8.92 0.02 -8.84 0.02 -8.76 0.02 -8.68 0.02 -8.61 0.02 -8.53 0.02 -8.45 0.02 -8.37 0.02 -8.29 0.02 -8.22 0.02 -8.14 0.02 -8.06 0.02 -7.98 0.02 -7.91 0.02 -7.83 0.02 -7.75 0.02 -7.67 0.02 -7.59 0.02 -7.52 0.02 -7.44 0.02 -7.36 0.02 -7.28 0.02 -7.2 0.02 -7.13 0.02 -7.05 0.02 -6.97 0.02 -6.89 0.02 -6.82 0.02 -6.74 0.02 -6.66 0.02 -6.58 0.02 -6.5 0.02 -6.43 0.02 -6.35 0.02 -6.27 0.02 -6.19 0.02 -6.11 0.02 -6.04 0.02 -5.96 0.02 -5.88 0.02 -5.8 0.02 -5.72 0.02 -5.65 0.02 -5.57 0.02 -5.49 0.02 -5.41 0.02 -5.34 0.02 -5.26 0.02 -5.18 0.02 -5.1 0.02 -5.02 0.02 -4.95 0.02 -4.87 0.02 -4.79 0.02 -4.71 0.02 -4.63 0.02 -4.56 0.02 -4.48 0.02 -4.4 0.02 -4.32 0.02 -4.24 0.02 -4.17 0.02 -4.09 0.02 -4.01 0.02 -3.93 0.02 -3.86 0.02 -3.78 0.02 -3.7 0.02 -3.62 0.02 -3.54 0.02 -3.47 0.02 -3.39 0.02 -3.31 0.02 -3.23 -5.38 -3.15 0.02 -3.08 0.02 -3 0.02 -2.92 0.02 -2.84 0.02 -2.76 0.02 -2.69 0.02 -2.61 0.02 -2.53 0.02 -2.45 0.02 -2.38 0.02 -2.3 0.02 -2.22 0.02 -2.14 0.02 -2.06 0.02 -1.99 0.02 -1.91 0.02 -1.83 0.02 -1.75 0.02 -1.67 0.02 -1.6 0.02 -1.52 0.02 -1.44 0.02 -1.36 0.02 -1.29 0.02 -1.21 0.02 -1.13 0.02 -1.05 0.02 -0.97 0.02 -0.9 0.02 -0.82 0.02 -0.74 0.02 -0.66 0.02 -0.58 0.02 -0.51 0.02 -0.43 0.02 -0.35 0.02 -0.27 0.02 -0.19 0.02 -0.12 0.02 -0.04 0.02 0.04 0.02 0.12 0.02 0.19 0.02 0.27 0.02 0.35 0.02 0.43 0.02 0.51 0.02 0.58 0.02 0.66 0.02 0.74 0.02 0.82 0.02 0.9 0.02 0.97 0.02 1.05 14.71 1.13 0.02 1.21 0.02 1.29 0.02 1.36 0.02 1.44 0.02 1.52 0.02 1.6 0.02 1.67 0.02 1.75 0.02 1.83 0.02 1.91 0.02 1.99 0.02 2.06 0.02 2.14 0.02 2.22 0.02 2.3 0.02 2.38 0.02 2.45 0.02 2.53 0.02 2.61 0.02 2.69 0.02 2.76 0.02 2.84 0.02 2.92 0.02 3 0.02 3.08 0.02 3.15 0.02 3.23 0.02 3.31 0.02 3.39 0.02 3.47 0.02 3.54 0.02 3.62 0.02 3.7 0.02 3.78 0.02 3.86 0.02 3.93 0.02 4.01 0.02 4.09 0.02 4.17 0.02 4.24 0.02 4.32 0.02 4.4 0.02 4.48 0.02 4.56 0.02 4.63 0.02 4.71 0.02 4.79 0.02 4.87 0.02 4.95 0.02 5.02 0.02 5.1 0.02 5.18 0.02 5.26 0.02 5.34 0.02 5.41 0.02 5.49 0.02 5.57 0.02 5.65 0.02 5.72 0.02 5.8 0.02 5.88 0.02 5.96 0.02 6.04 0.02 6.11 0.02 6.19 0.02 6.27 0.02 6.35 0.02 6.43 0.02 6.5 0.02 6.58 0.02 6.66 0.02 6.74 0.02 6.82 0.02 6.89 0.02 6.97 0.02 7.05 0.02 7.13 0.02 7.2 0.02 7.28 0.02 7.36 0.02 7.44 0.02 7.52 0.02 7.59 0.02 7.67 0.02 7.75 0.02 7.83 0.02 7.91 0.02 7.98 0.02 8.06 0.02 8.14 0.02 8.22 0.02 8.29 0.02 8.37 0.02 8.45 0.02 8.53 0.02 8.61 0.02 8.68 0.02 8.76 0.02 8.84 0.02 8.92 0.02 9 0.02 9.07 0.02 9.15 0.02 9.23 0.02 9.31 0.02 9.39 0.02 9.46 0.02 9.54 0.02 9.62 0.02 9.7 0.02 9.77 0.02 9.85 0.02 9.93 0.02 10.01 0.02 10.09 0.02 10.16 0.02 10.24 0.02 10.32 0.02 10.4 0.02 10.48 0.02 10.55 0.02 10.63 0.02 10.71 0.02 10.79 0.02 10.87 0.02 10.94 0.02 11.02 0.02 11.1 0.02 11.18 0.02 11.25 0.02 11.33 0.02 11.41 0.02 11.49 0.02 11.57 0.02 11.64 0.02 11.72 0.02 11.8 0.02 11.88 0.02 11.96 0.02 12.03 0.02 12.11 0.02 12.19 0.02 12.27 0.02 12.34 0.02 12.42 0.02 12.5 0.02 12.58 0.02 12.66 0.02 12.73 0.02 12.81 0.02 12.89 0.02 12.97 0.02 13.05 0.02 13.12 0.02 13.2 0.02 13.28 0.02 13.36 0.02 13.44 0.02 13.51 0.02 13.59 0.02 13.67 0.02 13.75 0.02 13.82 0.02 13.9 0.02 13.98 0.02 14.06 0.02 14.14 0.02 14.21 0.02 14.29 0.02 14.37 0.02 14.45 0.02 14.53 0.02 14.6 0.02 14.68 0.02 14.76 0.02 14.84 0.02 14.92 0.02 14.99 0.02 15.07 0.02 15.15 0.02 15.23 0.02 15.3 0.02 15.38 0.02 15.46 0.02 15.54 0.02 15.62 0.02 15.69 0.02 15.77 0.02 15.85 0.02 15.93 0.02 16.01 0.02 16.08 0.02 16.16 0.02 16.24 0.02 16.32 0.02 16.39 0.02 16.47 0.02 16.55 0.02 16.63 -19.65 16.71 0.02 16.78 0.02 16.86 0.02 16.94 0.02 17.02 -4.5 17.1 0.02 17.17 0.02 17.25 0.02 17.33 0.02 17.41 0.02 17.49 0.02 17.56 0.02 17.64 0.02 17.72 0.02 17.8 0.02 17.87 0.02 17.95 0.02 18.03 0.02 18.11 0.02 18.19 0.02 18.26 0.02 18.34 0.02 18.42 0.02 18.5 0.02 18.58 0.02 18.65 0.02 18.73 0.02 18.81 0.02 18.89 0.02 18.97 0.02 19.04 0.02 19.12 0.02 19.2 0.02 19.28 0.02 19.35 0.02 19.43 0.02 19.51 0.02 19.59 0.02 19.67 0.02 19.74 0.02 19.82 0.02 19.9 0.02 19.98 0.02 20.06 0.02 20.13 0.02 20.21 0.02 20.29 0.02 20.37 0.02 20.45 0.02 20.52 0.02 20.6 0.02 20.68 0.02 20.76 0.02 20.83 0.02 20.91 0.02 20.99 0.02 21.07 0.02 21.15 0.02 21.22 0.02 21.3 0.02 21.38 0.02 21.46 0.02 21.54 0.02 21.61 0.02 21.69 0.02 21.77 0.02 21.85 0.02 21.92 0.02 22 0.02 22.08 0.02 22.16 0.02 22.24 0.02 22.31 0.02 22.39 0.02 22.47 0.02 22.55 0.02 22.63 0.02 22.7 0.02 22.78 11.01 22.86 0.02 22.94 0.02 23.02 0.02 23.09 0.02 23.17 0.02 23.25 0.02 23.33 0.02 23.4 0.02 23.48 0.02 23.56 0.02 23.64 0.02 23.72 0.02 23.79 0.02 23.87 0.02 23.95 0.02 24.03 0.02 24.11 0.02 24.18 0.02 24.26 0.02 24.34 0.02 24.42 0.02 24.5 0.02 24.57 0.02 24.65 0.02 24.73 0.02 24.81 0.02 24.88 0.02 24.96 0.02 25.04 0.02 25.12 0.02 25.2 0.02 25.27 0.02 25.35 0.02 25.43 0.02 25.51 0.02 25.59 0.02 25.66 0.02 25.74 0.02 25.82 0.02 25.9 0.02 25.97 0.02 26.05 0.02 26.13 5.63 26.21 0.02 26.29 0.02 26.36 0.02 26.44 0.02 26.52 0.02 26.6 0.02 26.68 0.02 26.75 0.02 26.83 0.02 26.91 0.02 26.99 0.02 27.07 0.02 27.14 0.02 27.22 0.02 27.3 0.02 27.38 0.02 27.45 0.02 27.53 0.02 27.61 0.02 27.69 0.02 27.77 0.02 27.84 0.02 27.92 0.02 28 0.02 28.08 0.02 28.16 0.02 28.23 0.02 28.31 0.02 28.39 0.02 28.47 4.67 28.55 0.02 28.62 0.02 28.7 0.02 28.78 0.02 28.86 0.02 28.93 0.02 29.01 0.02 29.09 0.02 29.17 0.02 29.25 0.02 29.32 0.02 29.4 0.02 29.48 0.02 29.56 0.02 29.64 0.02 29.71 0.02 29.79 0.02 29.87 0.02 29.95 0.02 30.03 0.02 30.1 0.02 30.18 0.02 30.26 0.02 30.34 0.02 30.41 0.02 30.49 0.02 30.57 0.02 30.65 0.02 30.73 0.02 30.8 0.02 30.88 0.02 30.96 0.02 31.04 0.02 31.12 0.02 31.19 -6.06 31.27 0.02 31.35 0.02 31.43 0.02 31.5 0.02 31.58 0.02 31.66 0.02 31.74 0.02 31.82 0.02 31.89 0.02 31.97 0.02 32.05 0.02 32.13 0.02 32.21 0.02 32.28 0.02 32.36 0.02 32.44 0.02 32.52 0.02 32.6 0.02 32.67 0.02 32.75 0.02 32.83 0.02 32.91 0.02 32.98 0.02 33.06 0.02 33.14 0.02 33.22 0.02 33.3 0.02 33.37 0.02 33.45 0.02 33.53 0.02 33.61 0.02 33.69 0.02 33.76 0.02 33.84 0.02 33.92 0.02 34 0.02 34.08 0.02 34.15 0.02 34.23 0.02 34.31 12.83 34.39 0.02 34.46 0.02 34.54 0.02 34.62 0.02 34.7 0.02 34.78 0.02 34.85 0.02 34.93 0.02 35.01 0.02 35.09 0.02 35.17 0.02 35.24 0.02 35.32 0.02 35.4 0.02 35.48 0.02 35.55 3.23 35.63 0.02 35.71 0.02 35.79 0.02 35.87 0.02 35.94 0.02 36.02 0.02 36.1 0.02 36.18 0.02 36.26 0.02 36.33 0.02 36.41 0.02 36.49 0.02 36.57 0.02 36.65 0.02 36.72 0.02 36.8 0.02 36.88 0.02 36.96 0.02 37.03 0.02 37.11 0.02 37.19 0.02 37.27 0.02 37.35 0.02 37.42 0.02 37.5 0.02 37.58 0.02 37.66 0.02 37.74 0.02 37.81 0.02 37.89 0.02 37.97 0.02 38.05 0.02 38.13 0.02 38.2 0.02 38.28 0.02 38.36 0.02 38.44 -16.19 38.51 0.02 38.59 0.02 38.67 0.02 38.75 0.02 38.83 0.02 38.9 0.02 38.98 0.02 39.06 0.02 39.14 0.02 39.22 0.02 39.29 0.02 39.37 0.02 39.45 0.02 39.53 0.02 39.6 0.02 39.68 0.02 39.76 0.02 39.84 1.27" class="primitive"/>
            </g>
          </g>
        </g>
      </g>
    </g>
  </g>
  <g class="guide ylabels" font-size="2.82" font-family="'PT Sans Caption','Helvetica Neue','Helvetica',sans-serif" fill="#6C606B" id="img-e8522686-23">
    <g transform="translate(14.59,78.72)" id="img-e8522686-24">
      <g class="primitive">
        <text text-anchor="end" dy="0.35em">-1</text>
      </g>
    </g>
    <g transform="translate(14.59,62.19)" id="img-e8522686-25">
      <g class="primitive">
        <text text-anchor="end" dy="0.35em">0</text>
      </g>
    </g>
    <g transform="translate(14.59,45.66)" id="img-e8522686-26">
      <g class="primitive">
        <text text-anchor="end" dy="0.35em">1</text>
      </g>
    </g>
    <g transform="translate(14.59,29.14)" id="img-e8522686-27">
      <g class="primitive">
        <text text-anchor="end" dy="0.35em">2</text>
      </g>
    </g>
    <g transform="translate(14.59,12.61)" id="img-e8522686-28">
      <g class="primitive">
        <text text-anchor="end" dy="0.35em">3</text>
      </g>
    </g>
  </g>
  <g font-size="3.88" font-family="'PT Sans','Helvetica Neue','Helvetica',sans-serif" fill="#564A55" stroke="#000000" stroke-opacity="0.000" id="img-e8522686-29">
    <g transform="translate(8.81,45.66)" id="img-e8522686-30">
      <g class="primitive">
        <text text-anchor="end" dy="0.35em">y</text>
      </g>
    </g>
  </g>
  <g font-size="3.88" font-family="'PT Sans','Helvetica Neue','Helvetica',sans-serif" fill="#564A55" stroke="#000000" stroke-opacity="0.000" id="img-e8522686-31">
    <g transform="translate(76.01,5)" id="img-e8522686-32">
      <g class="primitive">
        <text text-anchor="middle" dy="0.6em">True signal x_0</text>
      </g>
    </g>
  </g>
</g>
<defs>
  <clipPath id="img-e8522686-4">
    <path d="M15.59,10.61 L 136.42 10.61 136.42 80.72 15.59 80.72" />
  </clipPath>
</defs>
</svg>
