<?xml version="1.0" encoding="utf-8"?>
<svg xmlns="http://www.w3.org/2000/svg" xmlns:xlink="http://www.w3.org/1999/xlink" width="600" height="400" viewBox="0 0 2400 1600">
<defs>
  <clipPath id="clip620">
    <rect x="0" y="0" width="2400" height="1600"/>
  </clipPath>
</defs>
<path clip-path="url(#clip620)" d="
M0 1600 L2400 1600 L2400 0 L0 0  Z
  " fill="#ffffff" fill-rule="evenodd" fill-opacity="1"/>
<defs>
  <clipPath id="clip621">
    <rect x="480" y="0" width="1681" height="1600"/>
  </clipPath>
</defs>
<defs>
  <clipPath id="clip622">
    <rect x="233" y="123" width="2120" height="1318"/>
  </clipPath>
</defs>
<path clip-path="url(#clip620)" d="
M233.355 1440.06 L2352.76 1440.06 L2352.76 123.472 L233.355 123.472  Z
  " fill="#ffffff" fill-rule="evenodd" fill-opacity="1"/>
<polyline clip-path="url(#clip622)" style="stroke:#000000; stroke-width:2; stroke-opacity:0.1; fill:none" points="
  293.338,1440.06 293.338,123.472 
  "/>
<polyline clip-path="url(#clip622)" style="stroke:#000000; stroke-width:2; stroke-opacity:0.1; fill:none" points="
  864.605,1440.06 864.605,123.472 
  "/>
<polyline clip-path="url(#clip622)" style="stroke:#000000; stroke-width:2; stroke-opacity:0.1; fill:none" points="
  1435.87,1440.06 1435.87,123.472 
  "/>
<polyline clip-path="url(#clip622)" style="stroke:#000000; stroke-width:2; stroke-opacity:0.1; fill:none" points="
  2007.14,1440.06 2007.14,123.472 
  "/>
<polyline clip-path="url(#clip620)" style="stroke:#000000; stroke-width:4; stroke-opacity:1; fill:none" points="
  233.355,1440.06 2352.76,1440.06 
  "/>
<polyline clip-path="url(#clip620)" style="stroke:#000000; stroke-width:4; stroke-opacity:1; fill:none" points="
  293.338,1440.06 293.338,1424.27 
  "/>
<polyline clip-path="url(#clip620)" style="stroke:#000000; stroke-width:4; stroke-opacity:1; fill:none" points="
  864.605,1440.06 864.605,1424.27 
  "/>
<polyline clip-path="url(#clip620)" style="stroke:#000000; stroke-width:4; stroke-opacity:1; fill:none" points="
  1435.87,1440.06 1435.87,1424.27 
  "/>
<polyline clip-path="url(#clip620)" style="stroke:#000000; stroke-width:4; stroke-opacity:1; fill:none" points="
  2007.14,1440.06 2007.14,1424.27 
  "/>
<path clip-path="url(#clip620)" d="M 0 0 M274.854 1469.26 Q271.243 1469.26 269.414 1472.82 Q267.609 1476.36 267.609 1483.49 Q267.609 1490.6 269.414 1494.16 Q271.243 1497.7 274.854 1497.7 Q278.488 1497.7 280.294 1494.16 Q282.123 1490.6 282.123 1483.49 Q282.123 1476.36 280.294 1472.82 Q278.488 1469.26 274.854 1469.26 M274.854 1465.55 Q280.664 1465.55 283.72 1470.16 Q286.798 1474.74 286.798 1483.49 Q286.798 1492.22 283.72 1496.82 Q280.664 1501.41 274.854 1501.41 Q269.044 1501.41 265.965 1496.82 Q262.91 1492.22 262.91 1483.49 Q262.91 1474.74 265.965 1470.16 Q269.044 1465.55 274.854 1465.55 Z" fill="#000000" fill-rule="evenodd" fill-opacity="1" /><path clip-path="url(#clip620)" d="M 0 0 M291.868 1494.86 L296.752 1494.86 L296.752 1500.74 L291.868 1500.74 L291.868 1494.86 Z" fill="#000000" fill-rule="evenodd" fill-opacity="1" /><path clip-path="url(#clip620)" d="M 0 0 M311.821 1469.26 Q308.21 1469.26 306.382 1472.82 Q304.576 1476.36 304.576 1483.49 Q304.576 1490.6 306.382 1494.16 Q308.21 1497.7 311.821 1497.7 Q315.456 1497.7 317.261 1494.16 Q319.09 1490.6 319.09 1483.49 Q319.09 1476.36 317.261 1472.82 Q315.456 1469.26 311.821 1469.26 M311.821 1465.55 Q317.632 1465.55 320.687 1470.16 Q323.766 1474.74 323.766 1483.49 Q323.766 1492.22 320.687 1496.82 Q317.632 1501.41 311.821 1501.41 Q306.011 1501.41 302.933 1496.82 Q299.877 1492.22 299.877 1483.49 Q299.877 1474.74 302.933 1470.16 Q306.011 1465.55 311.821 1465.55 Z" fill="#000000" fill-rule="evenodd" fill-opacity="1" /><path clip-path="url(#clip620)" d="M 0 0 M846.735 1469.26 Q843.124 1469.26 841.295 1472.82 Q839.489 1476.36 839.489 1483.49 Q839.489 1490.6 841.295 1494.16 Q843.124 1497.7 846.735 1497.7 Q850.369 1497.7 852.174 1494.16 Q854.003 1490.6 854.003 1483.49 Q854.003 1476.36 852.174 1472.82 Q850.369 1469.26 846.735 1469.26 M846.735 1465.55 Q852.545 1465.55 855.6 1470.16 Q858.679 1474.74 858.679 1483.49 Q858.679 1492.22 855.6 1496.82 Q852.545 1501.41 846.735 1501.41 Q840.924 1501.41 837.846 1496.82 Q834.79 1492.22 834.79 1483.49 Q834.79 1474.74 837.846 1470.16 Q840.924 1465.55 846.735 1465.55 Z" fill="#000000" fill-rule="evenodd" fill-opacity="1" /><path clip-path="url(#clip620)" d="M 0 0 M863.748 1494.86 L868.633 1494.86 L868.633 1500.74 L863.748 1500.74 L863.748 1494.86 Z" fill="#000000" fill-rule="evenodd" fill-opacity="1" /><path clip-path="url(#clip620)" d="M 0 0 M874.512 1496.8 L882.151 1496.8 L882.151 1470.44 L873.841 1472.1 L873.841 1467.84 L882.105 1466.18 L886.781 1466.18 L886.781 1496.8 L894.42 1496.8 L894.42 1500.74 L874.512 1500.74 L874.512 1496.8 Z" fill="#000000" fill-rule="evenodd" fill-opacity="1" /><path clip-path="url(#clip620)" d="M 0 0 M1418.19 1469.26 Q1414.58 1469.26 1412.75 1472.82 Q1410.94 1476.36 1410.94 1483.49 Q1410.94 1490.6 1412.75 1494.16 Q1414.58 1497.7 1418.19 1497.7 Q1421.82 1497.7 1423.63 1494.16 Q1425.46 1490.6 1425.46 1483.49 Q1425.46 1476.36 1423.63 1472.82 Q1421.82 1469.26 1418.19 1469.26 M1418.19 1465.55 Q1424 1465.55 1427.05 1470.16 Q1430.13 1474.74 1430.13 1483.49 Q1430.13 1492.22 1427.05 1496.82 Q1424 1501.41 1418.19 1501.41 Q1412.38 1501.41 1409.3 1496.82 Q1406.24 1492.22 1406.24 1483.49 Q1406.24 1474.74 1409.3 1470.16 Q1412.38 1465.55 1418.19 1465.55 Z" fill="#000000" fill-rule="evenodd" fill-opacity="1" /><path clip-path="url(#clip620)" d="M 0 0 M1435.2 1494.86 L1440.09 1494.86 L1440.09 1500.74 L1435.2 1500.74 L1435.2 1494.86 Z" fill="#000000" fill-rule="evenodd" fill-opacity="1" /><path clip-path="url(#clip620)" d="M 0 0 M1449.18 1496.8 L1465.5 1496.8 L1465.5 1500.74 L1443.56 1500.74 L1443.56 1496.8 Q1446.22 1494.05 1450.8 1489.42 Q1455.41 1484.76 1456.59 1483.42 Q1458.83 1480.9 1459.71 1479.16 Q1460.62 1477.4 1460.62 1475.71 Q1460.62 1472.96 1458.67 1471.22 Q1456.75 1469.49 1453.65 1469.49 Q1451.45 1469.49 1449 1470.25 Q1446.57 1471.01 1443.79 1472.57 L1443.79 1467.84 Q1446.61 1466.71 1449.07 1466.13 Q1451.52 1465.55 1453.56 1465.55 Q1458.93 1465.55 1462.12 1468.24 Q1465.32 1470.92 1465.32 1475.41 Q1465.32 1477.54 1464.51 1479.46 Q1463.72 1481.36 1461.61 1483.95 Q1461.03 1484.63 1457.93 1487.84 Q1454.83 1491.04 1449.18 1496.8 Z" fill="#000000" fill-rule="evenodd" fill-opacity="1" /><path clip-path="url(#clip620)" d="M 0 0 M1988.98 1469.26 Q1985.37 1469.26 1983.54 1472.82 Q1981.73 1476.36 1981.73 1483.49 Q1981.73 1490.6 1983.54 1494.16 Q1985.37 1497.7 1988.98 1497.7 Q1992.61 1497.7 1994.42 1494.16 Q1996.25 1490.6 1996.25 1483.49 Q1996.25 1476.36 1994.42 1472.82 Q1992.61 1469.26 1988.98 1469.26 M1988.98 1465.55 Q1994.79 1465.55 1997.85 1470.16 Q2000.92 1474.74 2000.92 1483.49 Q2000.92 1492.22 1997.85 1496.82 Q1994.79 1501.41 1988.98 1501.41 Q1983.17 1501.41 1980.09 1496.82 Q1977.04 1492.22 1977.04 1483.49 Q1977.04 1474.74 1980.09 1470.16 Q1983.17 1465.55 1988.98 1465.55 Z" fill="#000000" fill-rule="evenodd" fill-opacity="1" /><path clip-path="url(#clip620)" d="M 0 0 M2005.99 1494.86 L2010.88 1494.86 L2010.88 1500.74 L2005.99 1500.74 L2005.99 1494.86 Z" fill="#000000" fill-rule="evenodd" fill-opacity="1" /><path clip-path="url(#clip620)" d="M 0 0 M2030.11 1482.1 Q2033.47 1482.82 2035.35 1485.09 Q2037.24 1487.36 2037.24 1490.69 Q2037.24 1495.81 2033.72 1498.61 Q2030.21 1501.41 2023.72 1501.41 Q2021.55 1501.41 2019.23 1500.97 Q2016.94 1500.55 2014.49 1499.69 L2014.49 1495.18 Q2016.43 1496.32 2018.75 1496.89 Q2021.06 1497.47 2023.59 1497.47 Q2027.98 1497.47 2030.28 1495.74 Q2032.59 1494 2032.59 1490.69 Q2032.59 1487.63 2030.44 1485.92 Q2028.31 1484.19 2024.49 1484.19 L2020.46 1484.19 L2020.46 1480.34 L2024.67 1480.34 Q2028.12 1480.34 2029.95 1478.98 Q2031.78 1477.59 2031.78 1475 Q2031.78 1472.33 2029.88 1470.92 Q2028.01 1469.49 2024.49 1469.49 Q2022.57 1469.49 2020.37 1469.9 Q2018.17 1470.32 2015.53 1471.2 L2015.53 1467.03 Q2018.19 1466.29 2020.51 1465.92 Q2022.85 1465.55 2024.91 1465.55 Q2030.23 1465.55 2033.33 1467.98 Q2036.43 1470.39 2036.43 1474.51 Q2036.43 1477.38 2034.79 1479.37 Q2033.15 1481.34 2030.11 1482.1 Z" fill="#000000" fill-rule="evenodd" fill-opacity="1" /><path clip-path="url(#clip620)" d="M 0 0 M1306.64 1568.47 Q1306.64 1569.08 1305.93 1569.14 L1304.48 1569.14 Q1303 1569.14 1302.36 1568.92 Q1301.71 1568.69 1300.97 1567.66 Q1300.52 1567.02 1299.39 1564.02 Q1298.3 1561 1296.69 1556.42 Q1295.11 1551.85 1294.05 1549.14 L1278.17 1567.89 Q1277.07 1569.27 1275.98 1569.27 Q1275.17 1569.27 1274.59 1568.72 Q1274.01 1568.18 1274.01 1567.34 Q1274.01 1566.73 1274.24 1566.37 Q1274.5 1566.02 1275.17 1565.31 L1293.4 1547.24 L1286.99 1529.3 Q1285.77 1525.99 1285.06 1525.15 Q1284.38 1524.31 1282.71 1524.02 Q1282.1 1523.86 1282.1 1523.35 Q1282.1 1522.64 1283.29 1522.64 Q1289.67 1522.64 1291.34 1527.31 L1304.8 1564.83 Q1305.54 1566.99 1306.32 1567.89 Q1306.64 1568.31 1306.64 1568.47 Z" fill="#000000" fill-rule="evenodd" fill-opacity="1" /><polyline clip-path="url(#clip622)" style="stroke:#000000; stroke-width:2; stroke-opacity:0.1; fill:none" points="
  233.355,1263.45 2352.76,1263.45 
  "/>
<polyline clip-path="url(#clip622)" style="stroke:#000000; stroke-width:2; stroke-opacity:0.1; fill:none" points="
  233.355,1041.63 2352.76,1041.63 
  "/>
<polyline clip-path="url(#clip622)" style="stroke:#000000; stroke-width:2; stroke-opacity:0.1; fill:none" points="
  233.355,819.823 2352.76,819.823 
  "/>
<polyline clip-path="url(#clip622)" style="stroke:#000000; stroke-width:2; stroke-opacity:0.1; fill:none" points="
  233.355,598.011 2352.76,598.011 
  "/>
<polyline clip-path="url(#clip622)" style="stroke:#000000; stroke-width:2; stroke-opacity:0.1; fill:none" points="
  233.355,376.2 2352.76,376.2 
  "/>
<polyline clip-path="url(#clip622)" style="stroke:#000000; stroke-width:2; stroke-opacity:0.1; fill:none" points="
  233.355,154.388 2352.76,154.388 
  "/>
<polyline clip-path="url(#clip620)" style="stroke:#000000; stroke-width:4; stroke-opacity:1; fill:none" points="
  233.355,1440.06 233.355,123.472 
  "/>
<polyline clip-path="url(#clip620)" style="stroke:#000000; stroke-width:4; stroke-opacity:1; fill:none" points="
  233.355,1263.45 258.788,1263.45 
  "/>
<polyline clip-path="url(#clip620)" style="stroke:#000000; stroke-width:4; stroke-opacity:1; fill:none" points="
  233.355,1041.63 258.788,1041.63 
  "/>
<polyline clip-path="url(#clip620)" style="stroke:#000000; stroke-width:4; stroke-opacity:1; fill:none" points="
  233.355,819.823 258.788,819.823 
  "/>
<polyline clip-path="url(#clip620)" style="stroke:#000000; stroke-width:4; stroke-opacity:1; fill:none" points="
  233.355,598.011 258.788,598.011 
  "/>
<polyline clip-path="url(#clip620)" style="stroke:#000000; stroke-width:4; stroke-opacity:1; fill:none" points="
  233.355,376.2 258.788,376.2 
  "/>
<polyline clip-path="url(#clip620)" style="stroke:#000000; stroke-width:4; stroke-opacity:1; fill:none" points="
  233.355,154.388 258.788,154.388 
  "/>
<path clip-path="url(#clip620)" d="M 0 0 M115.249 1263.9 L144.924 1263.9 L144.924 1267.83 L115.249 1267.83 L115.249 1263.9 Z" fill="#000000" fill-rule="evenodd" fill-opacity="1" /><path clip-path="url(#clip620)" d="M 0 0 M154.022 1276.79 L170.341 1276.79 L170.341 1280.73 L148.397 1280.73 L148.397 1276.79 Q151.059 1274.04 155.642 1269.41 Q160.248 1264.75 161.429 1263.41 Q163.674 1260.89 164.554 1259.15 Q165.457 1257.39 165.457 1255.7 Q165.457 1252.95 163.512 1251.21 Q161.591 1249.48 158.489 1249.48 Q156.29 1249.48 153.836 1250.24 Q151.406 1251 148.628 1252.55 L148.628 1247.83 Q151.452 1246.7 153.906 1246.12 Q156.36 1245.54 158.397 1245.54 Q163.767 1245.54 166.961 1248.23 Q170.156 1250.91 170.156 1255.4 Q170.156 1257.53 169.346 1259.45 Q168.559 1261.35 166.452 1263.94 Q165.873 1264.61 162.772 1267.83 Q159.67 1271.03 154.022 1276.79 Z" fill="#000000" fill-rule="evenodd" fill-opacity="1" /><path clip-path="url(#clip620)" d="M 0 0 M185.41 1249.24 Q181.799 1249.24 179.971 1252.81 Q178.165 1256.35 178.165 1263.48 Q178.165 1270.59 179.971 1274.15 Q181.799 1277.69 185.41 1277.69 Q189.045 1277.69 190.85 1274.15 Q192.679 1270.59 192.679 1263.48 Q192.679 1256.35 190.85 1252.81 Q189.045 1249.24 185.41 1249.24 M185.41 1245.54 Q191.22 1245.54 194.276 1250.15 Q197.355 1254.73 197.355 1263.48 Q197.355 1272.21 194.276 1276.81 Q191.22 1281.4 185.41 1281.4 Q179.6 1281.4 176.521 1276.81 Q173.466 1272.21 173.466 1263.48 Q173.466 1254.73 176.521 1250.15 Q179.6 1245.54 185.41 1245.54 Z" fill="#000000" fill-rule="evenodd" fill-opacity="1" /><path clip-path="url(#clip620)" d="M 0 0 M114.878 1042.09 L144.554 1042.09 L144.554 1046.02 L114.878 1046.02 L114.878 1042.09 Z" fill="#000000" fill-rule="evenodd" fill-opacity="1" /><path clip-path="url(#clip620)" d="M 0 0 M150.434 1054.98 L158.072 1054.98 L158.072 1028.61 L149.762 1030.28 L149.762 1026.02 L158.026 1024.35 L162.702 1024.35 L162.702 1054.98 L170.341 1054.98 L170.341 1058.91 L150.434 1058.91 L150.434 1054.98 Z" fill="#000000" fill-rule="evenodd" fill-opacity="1" /><path clip-path="url(#clip620)" d="M 0 0 M185.41 1027.43 Q181.799 1027.43 179.971 1031 Q178.165 1034.54 178.165 1041.67 Q178.165 1048.78 179.971 1052.34 Q181.799 1055.88 185.41 1055.88 Q189.045 1055.88 190.85 1052.34 Q192.679 1048.78 192.679 1041.67 Q192.679 1034.54 190.85 1031 Q189.045 1027.43 185.41 1027.43 M185.41 1023.73 Q191.22 1023.73 194.276 1028.34 Q197.355 1032.92 197.355 1041.67 Q197.355 1050.4 194.276 1055 Q191.22 1059.59 185.41 1059.59 Q179.6 1059.59 176.521 1055 Q173.466 1050.4 173.466 1041.67 Q173.466 1032.92 176.521 1028.34 Q179.6 1023.73 185.41 1023.73 Z" fill="#000000" fill-rule="evenodd" fill-opacity="1" /><path clip-path="url(#clip620)" d="M 0 0 M185.41 805.621 Q181.799 805.621 179.971 809.186 Q178.165 812.728 178.165 819.857 Q178.165 826.964 179.971 830.529 Q181.799 834.07 185.41 834.07 Q189.045 834.07 190.85 830.529 Q192.679 826.964 192.679 819.857 Q192.679 812.728 190.85 809.186 Q189.045 805.621 185.41 805.621 M185.41 801.918 Q191.22 801.918 194.276 806.524 Q197.355 811.107 197.355 819.857 Q197.355 828.584 194.276 833.191 Q191.22 837.774 185.41 837.774 Q179.6 837.774 176.521 833.191 Q173.466 828.584 173.466 819.857 Q173.466 811.107 176.521 806.524 Q179.6 801.918 185.41 801.918 Z" fill="#000000" fill-rule="evenodd" fill-opacity="1" /><path clip-path="url(#clip620)" d="M 0 0 M150.434 611.356 L158.072 611.356 L158.072 584.99 L149.762 586.657 L149.762 582.398 L158.026 580.731 L162.702 580.731 L162.702 611.356 L170.341 611.356 L170.341 615.291 L150.434 615.291 L150.434 611.356 Z" fill="#000000" fill-rule="evenodd" fill-opacity="1" /><path clip-path="url(#clip620)" d="M 0 0 M185.41 583.81 Q181.799 583.81 179.971 587.375 Q178.165 590.916 178.165 598.046 Q178.165 605.152 179.971 608.717 Q181.799 612.259 185.41 612.259 Q189.045 612.259 190.85 608.717 Q192.679 605.152 192.679 598.046 Q192.679 590.916 190.85 587.375 Q189.045 583.81 185.41 583.81 M185.41 580.106 Q191.22 580.106 194.276 584.713 Q197.355 589.296 197.355 598.046 Q197.355 606.773 194.276 611.379 Q191.22 615.962 185.41 615.962 Q179.6 615.962 176.521 611.379 Q173.466 606.773 173.466 598.046 Q173.466 589.296 176.521 584.713 Q179.6 580.106 185.41 580.106 Z" fill="#000000" fill-rule="evenodd" fill-opacity="1" /><path clip-path="url(#clip620)" d="M 0 0 M154.022 389.544 L170.341 389.544 L170.341 393.48 L148.397 393.48 L148.397 389.544 Q151.059 386.79 155.642 382.16 Q160.248 377.507 161.429 376.165 Q163.674 373.642 164.554 371.906 Q165.457 370.146 165.457 368.457 Q165.457 365.702 163.512 363.966 Q161.591 362.23 158.489 362.23 Q156.29 362.23 153.836 362.994 Q151.406 363.757 148.628 365.308 L148.628 360.586 Q151.452 359.452 153.906 358.873 Q156.36 358.295 158.397 358.295 Q163.767 358.295 166.961 360.98 Q170.156 363.665 170.156 368.156 Q170.156 370.285 169.346 372.207 Q168.559 374.105 166.452 376.697 Q165.873 377.369 162.772 380.586 Q159.67 383.781 154.022 389.544 Z" fill="#000000" fill-rule="evenodd" fill-opacity="1" /><path clip-path="url(#clip620)" d="M 0 0 M185.41 361.998 Q181.799 361.998 179.971 365.563 Q178.165 369.105 178.165 376.234 Q178.165 383.341 179.971 386.906 Q181.799 390.447 185.41 390.447 Q189.045 390.447 190.85 386.906 Q192.679 383.341 192.679 376.234 Q192.679 369.105 190.85 365.563 Q189.045 361.998 185.41 361.998 M185.41 358.295 Q191.22 358.295 194.276 362.901 Q197.355 367.484 197.355 376.234 Q197.355 384.961 194.276 389.568 Q191.22 394.151 185.41 394.151 Q179.6 394.151 176.521 389.568 Q173.466 384.961 173.466 376.234 Q173.466 367.484 176.521 362.901 Q179.6 358.295 185.41 358.295 Z" fill="#000000" fill-rule="evenodd" fill-opacity="1" /><path clip-path="url(#clip620)" d="M 0 0 M163.211 153.034 Q166.568 153.751 168.443 156.02 Q170.341 158.288 170.341 161.622 Q170.341 166.738 166.822 169.538 Q163.304 172.339 156.823 172.339 Q154.647 172.339 152.332 171.9 Q150.04 171.483 147.586 170.626 L147.586 166.113 Q149.531 167.247 151.846 167.825 Q154.16 168.404 156.684 168.404 Q161.082 168.404 163.373 166.668 Q165.688 164.932 165.688 161.622 Q165.688 158.566 163.535 156.853 Q161.406 155.117 157.586 155.117 L153.559 155.117 L153.559 151.275 L157.772 151.275 Q161.221 151.275 163.049 149.909 Q164.878 148.52 164.878 145.927 Q164.878 143.265 162.98 141.853 Q161.105 140.418 157.586 140.418 Q155.665 140.418 153.466 140.835 Q151.267 141.252 148.628 142.131 L148.628 137.965 Q151.29 137.224 153.605 136.853 Q155.943 136.483 158.003 136.483 Q163.327 136.483 166.429 138.914 Q169.531 141.321 169.531 145.441 Q169.531 148.312 167.887 150.302 Q166.244 152.27 163.211 153.034 Z" fill="#000000" fill-rule="evenodd" fill-opacity="1" /><path clip-path="url(#clip620)" d="M 0 0 M185.41 140.187 Q181.799 140.187 179.971 143.752 Q178.165 147.293 178.165 154.423 Q178.165 161.529 179.971 165.094 Q181.799 168.636 185.41 168.636 Q189.045 168.636 190.85 165.094 Q192.679 161.529 192.679 154.423 Q192.679 147.293 190.85 143.752 Q189.045 140.187 185.41 140.187 M185.41 136.483 Q191.22 136.483 194.276 141.09 Q197.355 145.673 197.355 154.423 Q197.355 163.15 194.276 167.756 Q191.22 172.339 185.41 172.339 Q179.6 172.339 176.521 167.756 Q173.466 163.15 173.466 154.423 Q173.466 145.673 176.521 141.09 Q179.6 136.483 185.41 136.483 Z" fill="#000000" fill-rule="evenodd" fill-opacity="1" /><path clip-path="url(#clip620)" d="M 0 0 M19.2617 768.867 L20.186 769.43 Q18.6755 772.925 16.2633 777.276 Q18.6755 781.627 20.186 785.121 L19.2617 785.662 Q15.9477 781.852 13.4002 777.276 Q15.9702 772.654 19.2617 768.867 Z" fill="#000000" fill-rule="evenodd" fill-opacity="1" /><path clip-path="url(#clip620)" d="M 0 0 M35.6312 763.648 Q36.4685 763.648 38.0788 764.002 Q42.6198 765.129 45.7438 769.348 Q46.3235 770.057 47.0642 771.313 Q48.0626 769.799 49.8984 768.479 Q52.9257 766.514 57.0159 766.514 Q58.916 766.514 61.2348 767.029 Q66.6132 768.479 70.4779 773.567 Q74.246 778.688 74.246 784.775 Q74.246 788.06 72.5069 790.314 Q70.7355 792.536 67.7726 793.406 L85.8401 797.883 Q86.291 797.979 86.291 798.559 L86.291 798.881 Q86.291 799.557 85.518 799.557 L44.9387 789.38 Q42.2012 788.704 39.6247 787.609 Q37.0482 786.514 34.7294 785 Q32.4106 783.454 30.7037 781.683 Q28.9645 779.912 27.9662 777.722 Q26.9356 775.532 26.9356 773.213 Q26.9356 768.35 30.2528 765.58 Q32.6038 763.648 35.6312 763.648 M34.4717 767.351 Q32.475 767.351 31.0901 768.157 Q28.4493 769.799 28.4493 773.277 Q28.4493 775.371 29.4154 777.367 Q30.3494 779.332 31.9597 780.91 Q33.57 782.488 35.76 783.841 Q37.95 785.194 40.3332 786.192 Q42.6842 787.158 45.2607 787.802 L61.2348 791.764 Q62.9417 792.15 64.4554 792.15 Q68.0625 792.15 70.4135 790.153 Q72.7645 788.156 72.7645 784.71 Q72.7645 780.137 69.3507 776.208 Q66.2911 772.794 60.9128 771.377 Q57.5311 770.572 55.1801 770.572 Q52.6036 770.572 50.6069 771.506 Q48.9966 772.182 48.0304 773.503 Q48.9 775.95 48.9 778.43 Q48.9 779.622 48.8678 780.266 Q48.8356 780.878 48.7067 781.78 Q48.5779 782.649 48.2237 783.068 Q47.8694 783.454 47.3219 783.454 Q46.9998 783.454 46.871 783.39 Q46.3557 783.261 46.0014 782.842 Q45.6472 782.424 45.4862 781.941 Q45.2929 781.458 45.1963 780.652 Q45.0997 779.815 45.0997 779.268 Q45.0675 778.72 45.0675 777.786 Q45.0675 775.596 45.937 773.374 Q45.4862 772.537 44.681 771.635 Q42.0079 768.769 37.7567 767.802 Q36.1787 767.351 34.4717 767.351 M46.9354 775.467 Q46.5812 776.82 46.5812 777.851 Q46.5812 781.619 47.1931 781.812 Q47.2575 781.812 47.3219 781.683 Q47.3541 781.554 47.3863 781.264 Q47.3863 780.942 47.4185 780.685 Q47.4507 780.395 47.4507 779.912 Q47.4507 779.429 47.4507 779.171 Q47.4507 778.881 47.4507 778.366 Q47.4507 777.078 46.9354 775.467 Z" fill="#000000" fill-rule="evenodd" fill-opacity="1" /><path clip-path="url(#clip620)" d="M 0 0 M977.125 14.0809 L977.125 22.0612 Q972.467 19.8332 968.335 18.7395 Q964.203 17.6457 960.355 17.6457 Q953.671 17.6457 950.025 20.2383 Q946.419 22.8309 946.419 27.611 Q946.419 31.6214 948.809 33.6873 Q951.24 35.7128 957.965 36.9686 L962.907 37.9813 Q972.062 39.7232 976.396 44.1387 Q980.771 48.5136 980.771 55.8863 Q980.771 64.6767 974.857 69.2137 Q968.983 73.7508 957.6 73.7508 Q953.306 73.7508 948.445 72.7785 Q943.624 71.8063 938.439 69.9024 L938.439 61.4765 Q943.422 64.2716 948.202 65.6895 Q952.982 67.1073 957.6 67.1073 Q964.608 67.1073 968.416 64.3527 Q972.224 61.598 972.224 56.4939 Q972.224 52.0379 969.469 49.5264 Q966.755 47.0148 960.517 45.759 L955.534 44.7868 Q946.379 42.9639 942.288 39.075 Q938.196 35.1862 938.196 28.2591 Q938.196 20.2383 943.827 15.6203 Q949.498 11.0023 959.423 11.0023 Q963.676 11.0023 968.092 11.7719 Q972.507 12.5416 977.125 14.0809 Z" fill="#000000" fill-rule="evenodd" fill-opacity="1" /><path clip-path="url(#clip620)" d="M 0 0 M987.82 54.671 L987.82 27.2059 L995.273 27.2059 L995.273 54.3874 Q995.273 60.8284 997.785 64.0691 Q1000.3 67.2693 1005.32 67.2693 Q1011.36 67.2693 1014.84 63.421 Q1018.36 59.5726 1018.36 52.9291 L1018.36 27.2059 L1025.82 27.2059 L1025.82 72.576 L1018.36 72.576 L1018.36 65.6084 Q1015.65 69.7404 1012.04 71.7658 Q1008.48 73.7508 1003.74 73.7508 Q995.921 73.7508 991.871 68.8897 Q987.82 64.0286 987.82 54.671 M1006.58 26.1121 L1006.58 26.1121 Z" fill="#000000" fill-rule="evenodd" fill-opacity="1" /><path clip-path="url(#clip620)" d="M 0 0 M1068.96 35.9153 Q1071.75 30.8922 1075.64 28.5022 Q1079.53 26.1121 1084.8 26.1121 Q1091.89 26.1121 1095.74 31.0947 Q1099.58 36.0368 1099.58 45.1919 L1099.58 72.576 L1092.09 72.576 L1092.09 45.4349 Q1092.09 38.913 1089.78 35.7533 Q1087.47 32.5936 1082.73 32.5936 Q1076.94 32.5936 1073.58 36.4419 Q1070.22 40.2903 1070.22 46.9338 L1070.22 72.576 L1062.72 72.576 L1062.72 45.4349 Q1062.72 38.8725 1060.41 35.7533 Q1058.1 32.5936 1053.28 32.5936 Q1047.57 32.5936 1044.21 36.4824 Q1040.85 40.3308 1040.85 46.9338 L1040.85 72.576 L1033.35 72.576 L1033.35 27.2059 L1040.85 27.2059 L1040.85 34.2544 Q1043.4 30.082 1046.96 28.0971 Q1050.53 26.1121 1055.43 26.1121 Q1060.37 26.1121 1063.81 28.6237 Q1067.3 31.1352 1068.96 35.9153 Z" fill="#000000" fill-rule="evenodd" fill-opacity="1" /><path clip-path="url(#clip620)" d="M 0 0 M1103.64 46.5287 L1125.47 46.5287 L1125.47 53.1722 L1103.64 53.1722 L1103.64 46.5287 Z" fill="#000000" fill-rule="evenodd" fill-opacity="1" /><path clip-path="url(#clip620)" d="M 0 0 M1140.66 14.324 L1140.66 27.2059 L1156.01 27.2059 L1156.01 32.9987 L1140.66 32.9987 L1140.66 57.6282 Q1140.66 63.1779 1142.16 64.7578 Q1143.7 66.3376 1148.36 66.3376 L1156.01 66.3376 L1156.01 72.576 L1148.36 72.576 Q1139.73 72.576 1136.45 69.3758 Q1133.17 66.1351 1133.17 57.6282 L1133.17 32.9987 L1127.7 32.9987 L1127.7 27.2059 L1133.17 27.2059 L1133.17 14.324 L1140.66 14.324 Z" fill="#000000" fill-rule="evenodd" fill-opacity="1" /><path clip-path="url(#clip620)" d="M 0 0 M1181.41 32.4315 Q1175.42 32.4315 1171.93 37.1306 Q1168.45 41.7891 1168.45 49.9314 Q1168.45 58.0738 1171.89 62.7728 Q1175.38 67.4314 1181.41 67.4314 Q1187.37 67.4314 1190.85 62.7323 Q1194.33 58.0333 1194.33 49.9314 Q1194.33 41.8701 1190.85 37.1711 Q1187.37 32.4315 1181.41 32.4315 M1181.41 26.1121 Q1191.13 26.1121 1196.68 32.4315 Q1202.23 38.7509 1202.23 49.9314 Q1202.23 61.0714 1196.68 67.4314 Q1191.13 73.7508 1181.41 73.7508 Q1171.65 73.7508 1166.1 67.4314 Q1160.59 61.0714 1160.59 49.9314 Q1160.59 38.7509 1166.1 32.4315 Q1171.65 26.1121 1181.41 26.1121 Z" fill="#000000" fill-rule="evenodd" fill-opacity="1" /><path clip-path="url(#clip620)" d="M 0 0 M1207.82 46.5287 L1229.66 46.5287 L1229.66 53.1722 L1207.82 53.1722 L1207.82 46.5287 Z" fill="#000000" fill-rule="evenodd" fill-opacity="1" /><path clip-path="url(#clip620)" d="M 0 0 M1234.32 12.096 L1281.83 12.096 L1281.83 18.3344 L1243.59 65.6895 L1282.77 65.6895 L1282.77 72.576 L1233.39 72.576 L1233.39 66.3376 L1271.63 18.9825 L1234.32 18.9825 L1234.32 12.096 Z" fill="#000000" fill-rule="evenodd" fill-opacity="1" /><path clip-path="url(#clip620)" d="M 0 0 M1329.39 48.0275 L1329.39 51.6733 L1295.12 51.6733 Q1295.61 59.3701 1299.74 63.421 Q1303.91 67.4314 1311.32 67.4314 Q1315.62 67.4314 1319.63 66.3781 Q1323.68 65.3249 1327.65 63.2184 L1327.65 70.267 Q1323.64 71.9684 1319.43 72.8596 Q1315.21 73.7508 1310.88 73.7508 Q1300.02 73.7508 1293.66 67.4314 Q1287.34 61.1119 1287.34 50.3365 Q1287.34 39.1965 1293.34 32.6746 Q1299.37 26.1121 1309.58 26.1121 Q1318.74 26.1121 1324.04 32.0264 Q1329.39 37.9003 1329.39 48.0275 M1321.94 45.84 Q1321.86 39.7232 1318.49 36.0774 Q1315.17 32.4315 1309.66 32.4315 Q1303.43 32.4315 1299.66 35.9558 Q1295.93 39.4801 1295.36 45.8805 L1321.94 45.84 Z" fill="#000000" fill-rule="evenodd" fill-opacity="1" /><path clip-path="url(#clip620)" d="M 0 0 M1363.5 34.1734 Q1362.24 33.4443 1360.75 33.1202 Q1359.29 32.7556 1357.51 32.7556 Q1351.19 32.7556 1347.78 36.8875 Q1344.42 40.9789 1344.42 48.6757 L1344.42 72.576 L1336.93 72.576 L1336.93 27.2059 L1344.42 27.2059 L1344.42 34.2544 Q1346.77 30.1225 1350.54 28.1376 Q1354.3 26.1121 1359.69 26.1121 Q1360.46 26.1121 1361.39 26.2337 Q1362.33 26.3147 1363.46 26.5172 L1363.5 34.1734 Z" fill="#000000" fill-rule="evenodd" fill-opacity="1" /><path clip-path="url(#clip620)" d="M 0 0 M1387.08 32.4315 Q1381.08 32.4315 1377.6 37.1306 Q1374.11 41.7891 1374.11 49.9314 Q1374.11 58.0738 1377.56 62.7728 Q1381.04 67.4314 1387.08 67.4314 Q1393.03 67.4314 1396.52 62.7323 Q1400 58.0333 1400 49.9314 Q1400 41.8701 1396.52 37.1711 Q1393.03 32.4315 1387.08 32.4315 M1387.08 26.1121 Q1396.8 26.1121 1402.35 32.4315 Q1407.9 38.7509 1407.9 49.9314 Q1407.9 61.0714 1402.35 67.4314 Q1396.8 73.7508 1387.08 73.7508 Q1377.31 73.7508 1371.76 67.4314 Q1366.26 61.0714 1366.26 49.9314 Q1366.26 38.7509 1371.76 32.4315 Q1377.31 26.1121 1387.08 26.1121 Z" fill="#000000" fill-rule="evenodd" fill-opacity="1" /><path clip-path="url(#clip620)" d="M 0 0 M1442.41 12.096 L1450.59 12.096 L1450.59 65.6895 L1480.05 65.6895 L1480.05 72.576 L1442.41 72.576 L1442.41 12.096 Z" fill="#000000" fill-rule="evenodd" fill-opacity="1" /><path clip-path="url(#clip620)" d="M 0 0 M1508.48 49.7694 Q1499.45 49.7694 1495.97 51.8354 Q1492.48 53.9013 1492.48 58.8839 Q1492.48 62.8538 1495.07 65.2034 Q1497.71 67.5124 1502.2 67.5124 Q1508.4 67.5124 1512.13 63.1374 Q1515.9 58.7219 1515.9 51.4303 L1515.9 49.7694 L1508.48 49.7694 M1523.35 46.6907 L1523.35 72.576 L1515.9 72.576 L1515.9 65.6895 Q1513.34 69.8214 1509.54 71.8063 Q1505.73 73.7508 1500.22 73.7508 Q1493.25 73.7508 1489.12 69.8619 Q1485.03 65.9325 1485.03 59.3701 Q1485.03 51.7138 1490.13 47.825 Q1495.28 43.9361 1505.44 43.9361 L1515.9 43.9361 L1515.9 43.2069 Q1515.9 38.0623 1512.49 35.2672 Q1509.13 32.4315 1503.01 32.4315 Q1499.12 32.4315 1495.44 33.3632 Q1491.75 34.295 1488.35 36.1584 L1488.35 29.2718 Q1492.44 27.692 1496.29 26.9223 Q1500.14 26.1121 1503.78 26.1121 Q1513.63 26.1121 1518.49 31.2163 Q1523.35 36.3204 1523.35 46.6907 Z" fill="#000000" fill-rule="evenodd" fill-opacity="1" /><path clip-path="url(#clip620)" d="M 0 0 M1560.09 28.5427 L1560.09 35.5912 Q1556.93 33.9709 1553.53 33.1607 Q1550.13 32.3505 1546.48 32.3505 Q1540.93 32.3505 1538.14 34.0519 Q1535.38 35.7533 1535.38 39.156 Q1535.38 41.7486 1537.37 43.2475 Q1539.35 44.7058 1545.35 46.0426 L1547.9 46.6097 Q1555.84 48.3111 1559.16 51.4303 Q1562.52 54.509 1562.52 60.0587 Q1562.52 66.3781 1557.5 70.0644 Q1552.52 73.7508 1543.77 73.7508 Q1540.12 73.7508 1536.15 73.0216 Q1532.22 72.3329 1527.85 70.9151 L1527.85 63.2184 Q1531.98 65.3654 1535.99 66.4591 Q1540 67.5124 1543.93 67.5124 Q1549.19 67.5124 1552.03 65.73 Q1554.87 63.9071 1554.87 60.6258 Q1554.87 57.5877 1552.8 55.9673 Q1550.77 54.3469 1543.85 52.8481 L1541.25 52.2405 Q1534.33 50.7821 1531.25 47.7845 Q1528.17 44.7463 1528.17 39.4801 Q1528.17 33.0797 1532.71 29.5959 Q1537.24 26.1121 1545.59 26.1121 Q1549.72 26.1121 1553.37 26.7198 Q1557.01 27.3274 1560.09 28.5427 Z" fill="#000000" fill-rule="evenodd" fill-opacity="1" /><path clip-path="url(#clip620)" d="M 0 0 M1599.26 28.5427 L1599.26 35.5912 Q1596.1 33.9709 1592.7 33.1607 Q1589.3 32.3505 1585.65 32.3505 Q1580.1 32.3505 1577.31 34.0519 Q1574.55 35.7533 1574.55 39.156 Q1574.55 41.7486 1576.54 43.2475 Q1578.52 44.7058 1584.52 46.0426 L1587.07 46.6097 Q1595.01 48.3111 1598.33 51.4303 Q1601.69 54.509 1601.69 60.0587 Q1601.69 66.3781 1596.67 70.0644 Q1591.69 73.7508 1582.94 73.7508 Q1579.29 73.7508 1575.32 73.0216 Q1571.39 72.3329 1567.02 70.9151 L1567.02 63.2184 Q1571.15 65.3654 1575.16 66.4591 Q1579.17 67.5124 1583.1 67.5124 Q1588.37 67.5124 1591.2 65.73 Q1594.04 63.9071 1594.04 60.6258 Q1594.04 57.5877 1591.97 55.9673 Q1589.95 54.3469 1583.02 52.8481 L1580.43 52.2405 Q1573.5 50.7821 1570.42 47.7845 Q1567.34 44.7463 1567.34 39.4801 Q1567.34 33.0797 1571.88 29.5959 Q1576.42 26.1121 1584.76 26.1121 Q1588.89 26.1121 1592.54 26.7198 Q1596.18 27.3274 1599.26 28.5427 Z" fill="#000000" fill-rule="evenodd" fill-opacity="1" /><path clip-path="url(#clip620)" d="M 0 0 M1627.09 32.4315 Q1621.1 32.4315 1617.61 37.1306 Q1614.13 41.7891 1614.13 49.9314 Q1614.13 58.0738 1617.57 62.7728 Q1621.06 67.4314 1627.09 67.4314 Q1633.05 67.4314 1636.53 62.7323 Q1640.02 58.0333 1640.02 49.9314 Q1640.02 41.8701 1636.53 37.1711 Q1633.05 32.4315 1627.09 32.4315 M1627.09 26.1121 Q1636.82 26.1121 1642.36 32.4315 Q1647.91 38.7509 1647.91 49.9314 Q1647.91 61.0714 1642.36 67.4314 Q1636.82 73.7508 1627.09 73.7508 Q1617.33 73.7508 1611.78 67.4314 Q1606.27 61.0714 1606.27 49.9314 Q1606.27 38.7509 1611.78 32.4315 Q1617.33 26.1121 1627.09 26.1121 Z" fill="#000000" fill-rule="evenodd" fill-opacity="1" /><polyline clip-path="url(#clip622)" style="stroke:#009af9; stroke-width:4; stroke-opacity:1; fill:none" points="
  293.338,516.635 350.464,583.608 407.591,646.948 464.718,691.751 521.845,736.624 578.971,771.216 636.098,805.195 693.225,819.823 750.351,819.823 807.478,819.823 
  864.605,819.823 921.732,819.823 978.858,819.823 1035.99,819.823 1093.11,819.823 1150.24,819.823 1207.37,819.823 1264.49,819.823 1321.62,819.823 1378.75,819.823 
  1435.87,819.823 1493,819.823 1550.13,819.823 1607.25,819.823 1664.38,819.823 1721.51,819.823 1778.63,819.823 1835.76,819.823 1892.89,819.823 1950.01,819.823 
  2007.14,819.823 2064.27,819.823 2121.39,819.823 2178.52,819.823 2235.65,819.823 2292.77,819.823 
  "/>
<polyline clip-path="url(#clip622)" style="stroke:#e26f46; stroke-width:4; stroke-opacity:1; fill:none" points="
  293.338,1036.59 350.464,996.067 407.591,974.512 464.718,956.682 521.845,949.151 578.971,934.911 636.098,919.895 693.225,901.068 750.351,881.674 807.478,864.391 
  864.605,848.949 921.732,832.87 978.858,819.823 1035.99,819.823 1093.11,819.823 1150.24,819.823 1207.37,819.823 1264.49,819.823 1321.62,819.823 1378.75,819.823 
  1435.87,819.823 1493,819.823 1550.13,819.823 1607.25,819.823 1664.38,819.823 1721.51,819.823 1778.63,819.823 1835.76,819.823 1892.89,819.823 1950.01,819.823 
  2007.14,819.823 2064.27,819.823 2121.39,819.823 2178.52,819.823 2235.65,819.823 2292.77,819.823 
  "/>
<polyline clip-path="url(#clip622)" style="stroke:#3da44d; stroke-width:4; stroke-opacity:1; fill:none" points="
  293.338,619.001 350.464,695.614 407.591,753.985 464.718,797.91 521.845,819.823 578.971,819.823 636.098,819.823 693.225,819.823 750.351,819.823 807.478,819.823 
  864.605,819.823 921.732,819.823 978.858,819.823 1035.99,819.823 1093.11,819.823 1150.24,819.823 1207.37,819.823 1264.49,819.823 1321.62,819.823 1378.75,819.823 
  1435.87,819.823 1493,819.823 1550.13,819.823 1607.25,819.823 1664.38,819.823 1721.51,819.823 1778.63,819.823 1835.76,819.823 1892.89,819.823 1950.01,819.823 
  2007.14,819.823 2064.27,819.823 2121.39,819.823 2178.52,819.823 2235.65,819.823 2292.77,819.823 
  "/>
<polyline clip-path="url(#clip622)" style="stroke:#c271d2; stroke-width:4; stroke-opacity:1; fill:none" points="
  293.338,1217.61 350.464,1195.64 407.591,1160.24 464.718,1098.99 521.845,1045.45 578.971,1010.25 636.098,981.825 693.225,962.654 750.351,946.049 807.478,930.734 
  864.605,910.939 921.732,891.524 978.858,877.759 1035.99,865.761 1093.11,852.576 1150.24,838.359 1207.37,823.585 1264.49,819.823 1321.62,819.823 1378.75,819.823 
  1435.87,819.823 1493,819.823 1550.13,819.823 1607.25,819.823 1664.38,819.823 1721.51,819.823 1778.63,819.823 1835.76,819.823 1892.89,819.823 1950.01,819.823 
  2007.14,819.823 2064.27,819.823 2121.39,819.823 2178.52,819.823 2235.65,819.823 2292.77,819.823 
  "/>
<polyline clip-path="url(#clip622)" style="stroke:#ac8d18; stroke-width:4; stroke-opacity:1; fill:none" points="
  293.338,1402.8 350.464,1294.05 407.591,1216.05 464.718,1170.14 521.845,1128.61 578.971,1098.35 636.098,1067.69 693.225,1044.46 750.351,1032 807.478,1021.51 
  864.605,1010.52 921.732,1001.7 978.858,988.541 1035.99,976.251 1093.11,965.605 1150.24,956.983 1207.37,952.958 1264.49,941.12 1321.62,926.409 1378.75,911.7 
  1435.87,896.997 1493,877.444 1550.13,856.984 1607.25,836.528 1664.38,819.823 1721.51,819.823 1778.63,819.823 1835.76,819.823 1892.89,819.823 1950.01,819.823 
  2007.14,819.823 2064.27,819.823 2121.39,819.823 2178.52,819.823 2235.65,819.823 2292.77,819.823 
  "/>
<polyline clip-path="url(#clip622)" style="stroke:#00a9ad; stroke-width:4; stroke-opacity:1; fill:none" points="
  293.338,787.165 350.464,819.823 407.591,819.823 464.718,819.823 521.845,819.823 578.971,819.823 636.098,819.823 693.225,819.823 750.351,819.823 807.478,819.823 
  864.605,819.823 921.732,819.823 978.858,819.823 1035.99,819.823 1093.11,819.823 1150.24,819.823 1207.37,819.823 1264.49,819.823 1321.62,819.823 1378.75,819.823 
  1435.87,819.823 1493,819.823 1550.13,819.823 1607.25,819.823 1664.38,819.823 1721.51,819.823 1778.63,819.823 1835.76,819.823 1892.89,819.823 1950.01,819.823 
  2007.14,819.823 2064.27,819.823 2121.39,819.823 2178.52,819.823 2235.65,819.823 2292.77,819.823 
  "/>
<polyline clip-path="url(#clip622)" style="stroke:#ed5d92; stroke-width:4; stroke-opacity:1; fill:none" points="
  293.338,998.392 350.464,940.338 407.591,881.301 464.718,853.306 521.845,823.564 578.971,819.823 636.098,819.823 693.225,819.823 750.351,819.823 807.478,819.823 
  864.605,819.823 921.732,819.823 978.858,819.823 1035.99,819.823 1093.11,819.823 1150.24,819.823 1207.37,819.823 1264.49,819.823 1321.62,819.823 1378.75,819.823 
  1435.87,819.823 1493,819.823 1550.13,819.823 1607.25,819.823 1664.38,819.823 1721.51,819.823 1778.63,819.823 1835.76,819.823 1892.89,819.823 1950.01,819.823 
  2007.14,819.823 2064.27,819.823 2121.39,819.823 2178.52,819.823 2235.65,819.823 2292.77,819.823 
  "/>
<polyline clip-path="url(#clip622)" style="stroke:#c68125; stroke-width:4; stroke-opacity:1; fill:none" points="
  293.338,160.734 350.464,272.709 407.591,389.663 464.718,461.878 521.845,512.947 578.971,537.423 636.098,549.811 693.225,564.238 750.351,584.46 807.478,606.261 
  864.605,625.415 921.732,644.067 978.858,660.18 1035.99,673.694 1093.11,689.273 1150.24,707.097 1207.37,728.733 1264.49,744.388 1321.62,757.588 1378.75,770.786 
  1435.87,783.985 1493,793.124 1550.13,801.506 1607.25,809.886 1664.38,819.823 1721.51,819.823 1778.63,819.823 1835.76,819.823 1892.89,819.823 1950.01,819.823 
  2007.14,819.823 2064.27,819.823 2121.39,819.823 2178.52,819.823 2235.65,819.823 2292.77,819.823 
  "/>
<polyline clip-path="url(#clip622)" style="stroke:#00a98d; stroke-width:4; stroke-opacity:1; fill:none" points="
  293.338,996.41 350.464,961.771 407.591,926.358 464.718,872.654 521.845,832.834 578.971,819.823 636.098,819.823 693.225,819.823 750.351,819.823 807.478,819.823 
  864.605,819.823 921.732,819.823 978.858,819.823 1035.99,819.823 1093.11,819.823 1150.24,819.823 1207.37,819.823 1264.49,819.823 1321.62,819.823 1378.75,819.823 
  1435.87,819.823 1493,819.823 1550.13,819.823 1607.25,819.823 1664.38,819.823 1721.51,819.823 1778.63,819.823 1835.76,819.823 1892.89,819.823 1950.01,819.823 
  2007.14,819.823 2064.27,819.823 2121.39,819.823 2178.52,819.823 2235.65,819.823 2292.77,819.823 
  "/>
<polyline clip-path="url(#clip622)" style="stroke:#8e971d; stroke-width:4; stroke-opacity:1; fill:none" points="
  293.338,737.794 350.464,789.338 407.591,819.822 464.718,819.823 521.845,819.823 578.971,819.823 636.098,819.823 693.225,819.823 750.351,819.823 807.478,819.823 
  864.605,819.823 921.732,819.823 978.858,819.823 1035.99,819.823 1093.11,819.823 1150.24,819.823 1207.37,819.823 1264.49,819.823 1321.62,819.823 1378.75,819.823 
  1435.87,819.823 1493,819.823 1550.13,819.823 1607.25,819.823 1664.38,819.823 1721.51,819.823 1778.63,819.823 1835.76,819.823 1892.89,819.823 1950.01,819.823 
  2007.14,819.823 2064.27,819.823 2121.39,819.823 2178.52,819.823 2235.65,819.823 2292.77,819.823 
  "/>
<polyline clip-path="url(#clip622)" style="stroke:#00a8cb; stroke-width:4; stroke-opacity:1; fill:none" points="
  293.338,839.467 350.464,841.902 407.591,848.764 464.718,829.041 521.845,819.823 578.971,819.823 636.098,819.823 693.225,819.823 750.351,819.823 807.478,819.823 
  864.605,819.823 921.732,819.823 978.858,819.823 1035.99,819.823 1093.11,819.823 1150.24,819.823 1207.37,819.823 1264.49,819.823 1321.62,819.823 1378.75,819.823 
  1435.87,819.823 1493,819.823 1550.13,819.823 1607.25,819.823 1664.38,819.823 1721.51,819.823 1778.63,819.823 1835.76,819.823 1892.89,819.823 1950.01,819.823 
  2007.14,819.823 2064.27,819.823 2121.39,819.823 2178.52,819.823 2235.65,819.823 2292.77,819.823 
  "/>
<polyline clip-path="url(#clip622)" style="stroke:#9b7fe8; stroke-width:4; stroke-opacity:1; fill:none" points="
  293.338,1016.84 350.464,986.898 407.591,989.652 464.718,984.432 521.845,980.299 578.971,979.079 636.098,976.927 693.225,967.375 750.351,961.849 807.478,956.777 
  864.605,947.284 921.732,934.1 978.858,920.226 1035.99,906.369 1093.11,894.246 1150.24,883.788 1207.37,874.936 1264.49,862.481 1321.62,848.97 1378.75,835.462 
  1435.87,821.948 1493,819.823 1550.13,819.823 1607.25,819.823 1664.38,819.823 1721.51,819.823 1778.63,819.823 1835.76,819.823 1892.89,819.823 1950.01,819.823 
  2007.14,819.823 2064.27,819.823 2121.39,819.823 2178.52,819.823 2235.65,819.823 2292.77,819.823 
  "/>
<polyline clip-path="url(#clip622)" style="stroke:#608cf6; stroke-width:4; stroke-opacity:1; fill:none" points="
  293.338,903.719 350.464,854.352 407.591,819.823 464.718,819.823 521.845,819.823 578.971,819.823 636.098,819.823 693.225,819.823 750.351,819.823 807.478,819.823 
  864.605,819.823 921.732,819.823 978.858,819.823 1035.99,819.823 1093.11,819.823 1150.24,819.823 1207.37,819.823 1264.49,819.823 1321.62,819.823 1378.75,819.823 
  1435.87,819.823 1493,819.823 1550.13,819.823 1607.25,819.823 1664.38,819.823 1721.51,819.823 1778.63,819.823 1835.76,819.823 1892.89,819.823 1950.01,819.823 
  2007.14,819.823 2064.27,819.823 2121.39,819.823 2178.52,819.823 2235.65,819.823 2292.77,819.823 
  "/>
<polyline clip-path="url(#clip622)" style="stroke:#f05f73; stroke-width:4; stroke-opacity:1; fill:none" points="
  293.338,495.813 350.464,527.975 407.591,564.142 464.718,602.761 521.845,643.565 578.971,682.337 636.098,717.835 693.225,745.545 750.351,772.862 807.478,803.056 
  864.605,819.823 921.732,819.823 978.858,819.823 1035.99,819.823 1093.11,819.823 1150.24,819.823 1207.37,819.823 1264.49,819.823 1321.62,819.823 1378.75,819.823 
  1435.87,819.823 1493,819.823 1550.13,819.823 1607.25,819.823 1664.38,819.823 1721.51,819.823 1778.63,819.823 1835.76,819.823 1892.89,819.823 1950.01,819.823 
  2007.14,819.823 2064.27,819.823 2121.39,819.823 2178.52,819.823 2235.65,819.823 2292.77,819.823 
  "/>
<polyline clip-path="url(#clip622)" style="stroke:#dd64b5; stroke-width:4; stroke-opacity:1; fill:none" points="
  293.338,850.565 350.464,819.823 407.591,819.823 464.718,819.823 521.845,819.823 578.971,819.823 636.098,819.823 693.225,819.823 750.351,819.823 807.478,819.823 
  864.605,819.823 921.732,819.823 978.858,819.823 1035.99,819.823 1093.11,819.823 1150.24,819.823 1207.37,819.823 1264.49,819.823 1321.62,819.823 1378.75,819.823 
  1435.87,819.823 1493,819.823 1550.13,819.823 1607.25,819.823 1664.38,819.823 1721.51,819.823 1778.63,819.823 1835.76,819.823 1892.89,819.823 1950.01,819.823 
  2007.14,819.823 2064.27,819.823 2121.39,819.823 2178.52,819.823 2235.65,819.823 2292.77,819.823 
  "/>
<polyline clip-path="url(#clip622)" style="stroke:#6b9e32; stroke-width:4; stroke-opacity:1; fill:none" points="
  293.338,394.38 350.464,518.318 407.591,618.031 464.718,675.856 521.845,718.649 578.971,760.579 636.098,796.327 693.225,819.823 750.351,819.823 807.478,819.823 
  864.605,819.823 921.732,819.823 978.858,819.823 1035.99,819.823 1093.11,819.823 1150.24,819.823 1207.37,819.823 1264.49,819.823 1321.62,819.823 1378.75,819.823 
  1435.87,819.823 1493,819.823 1550.13,819.823 1607.25,819.823 1664.38,819.823 1721.51,819.823 1778.63,819.823 1835.76,819.823 1892.89,819.823 1950.01,819.823 
  2007.14,819.823 2064.27,819.823 2121.39,819.823 2178.52,819.823 2235.65,819.823 2292.77,819.823 
  "/>
<polyline clip-path="url(#clip622)" style="stroke:#009af9; stroke-width:4; stroke-opacity:1; fill:none" points="
  293.338,516.607 350.464,622.133 407.591,713.226 464.718,783.388 521.845,819.823 578.971,819.823 636.098,819.823 693.225,819.823 750.351,819.823 807.478,819.823 
  864.605,819.823 921.732,819.823 978.858,819.823 1035.99,819.823 1093.11,819.823 1150.24,819.823 1207.37,819.823 1264.49,819.823 1321.62,819.823 1378.75,819.823 
  1435.87,819.823 1493,819.823 1550.13,819.823 1607.25,819.823 1664.38,819.823 1721.51,819.823 1778.63,819.823 1835.76,819.823 1892.89,819.823 1950.01,819.823 
  2007.14,819.823 2064.27,819.823 2121.39,819.823 2178.52,819.823 2235.65,819.823 2292.77,819.823 
  "/>
<polyline clip-path="url(#clip622)" style="stroke:#e26f46; stroke-width:4; stroke-opacity:1; fill:none" points="
  293.338,1023.96 350.464,982.247 407.591,942.888 464.718,911.325 521.845,880.461 578.971,851.26 636.098,819.823 693.225,819.823 750.351,819.823 807.478,819.823 
  864.605,819.823 921.732,819.823 978.858,819.823 1035.99,819.823 1093.11,819.823 1150.24,819.823 1207.37,819.823 1264.49,819.823 1321.62,819.823 1378.75,819.823 
  1435.87,819.823 1493,819.823 1550.13,819.823 1607.25,819.823 1664.38,819.823 1721.51,819.823 1778.63,819.823 1835.76,819.823 1892.89,819.823 1950.01,819.823 
  2007.14,819.823 2064.27,819.823 2121.39,819.823 2178.52,819.823 2235.65,819.823 2292.77,819.823 
  "/>
<polyline clip-path="url(#clip622)" style="stroke:#3da44d; stroke-width:4; stroke-opacity:1; fill:none" points="
  293.338,982.183 350.464,881.75 407.591,819.823 464.718,819.823 521.845,819.823 578.971,819.823 636.098,819.821 693.225,819.823 750.351,819.823 807.478,819.823 
  864.605,819.823 921.732,819.823 978.858,819.823 1035.99,819.823 1093.11,819.823 1150.24,819.823 1207.37,819.823 1264.49,819.823 1321.62,819.823 1378.75,819.823 
  1435.87,819.823 1493,819.823 1550.13,819.823 1607.25,819.823 1664.38,819.823 1721.51,819.823 1778.63,819.823 1835.76,819.823 1892.89,819.823 1950.01,819.823 
  2007.14,819.823 2064.27,819.823 2121.39,819.823 2178.52,819.823 2235.65,819.823 2292.77,819.823 
  "/>
<polyline clip-path="url(#clip622)" style="stroke:#c271d2; stroke-width:4; stroke-opacity:1; fill:none" points="
  293.338,742.025 350.464,790.264 407.591,819.823 464.718,819.823 521.845,819.823 578.971,819.823 636.098,819.823 693.225,819.823 750.351,819.823 807.478,819.823 
  864.605,819.823 921.732,819.823 978.858,819.823 1035.99,819.823 1093.11,819.823 1150.24,819.823 1207.37,819.823 1264.49,819.823 1321.62,819.823 1378.75,819.823 
  1435.87,819.823 1493,819.823 1550.13,819.823 1607.25,819.823 1664.38,819.823 1721.51,819.823 1778.63,819.823 1835.76,819.823 1892.89,819.823 1950.01,819.823 
  2007.14,819.823 2064.27,819.823 2121.39,819.823 2178.52,819.823 2235.65,819.823 2292.77,819.823 
  "/>
<polyline clip-path="url(#clip622)" style="stroke:#ac8d18; stroke-width:4; stroke-opacity:1; fill:none" points="
  293.338,1030.58 350.464,941.657 407.591,865.712 464.718,819.823 521.845,819.823 578.971,819.823 636.098,819.823 693.225,819.823 750.351,819.823 807.478,819.823 
  864.605,819.823 921.732,819.823 978.858,819.823 1035.99,819.823 1093.11,819.823 1150.24,819.823 1207.37,819.823 1264.49,819.823 1321.62,819.823 1378.75,819.823 
  1435.87,819.823 1493,819.823 1550.13,819.823 1607.25,819.823 1664.38,819.823 1721.51,819.823 1778.63,819.823 1835.76,819.823 1892.89,819.823 1950.01,819.823 
  2007.14,819.823 2064.27,819.823 2121.39,819.823 2178.52,819.823 2235.65,819.823 2292.77,819.823 
  "/>
<polyline clip-path="url(#clip622)" style="stroke:#00a9ad; stroke-width:4; stroke-opacity:1; fill:none" points="
  293.338,437.431 350.464,481.524 407.591,533.6 464.718,578.56 521.845,618.581 578.971,642.816 636.098,668.358 693.225,686.702 750.351,704.41 807.478,721.682 
  864.605,738.796 921.732,754.939 978.858,771.435 1035.99,788.071 1093.11,804.909 1150.24,819.82 1207.37,819.823 1264.49,819.823 1321.62,819.823 1378.75,819.823 
  1435.87,819.823 1493,819.823 1550.13,819.823 1607.25,819.823 1664.38,819.823 1721.51,819.823 1778.63,819.823 1835.76,819.823 1892.89,819.823 1950.01,819.823 
  2007.14,819.823 2064.27,819.823 2121.39,819.823 2178.52,819.823 2235.65,819.823 2292.77,819.823 
  "/>
<polyline clip-path="url(#clip622)" style="stroke:#ed5d92; stroke-width:4; stroke-opacity:1; fill:none" points="
  293.338,942.178 350.464,873.443 407.591,819.828 464.718,819.823 521.845,819.823 578.971,819.823 636.098,819.823 693.225,819.823 750.351,819.823 807.478,819.823 
  864.605,819.823 921.732,819.823 978.858,819.823 1035.99,819.823 1093.11,819.823 1150.24,819.823 1207.37,819.823 1264.49,819.823 1321.62,819.823 1378.75,819.823 
  1435.87,819.823 1493,819.823 1550.13,819.823 1607.25,819.823 1664.38,819.823 1721.51,819.823 1778.63,819.823 1835.76,819.823 1892.89,819.823 1950.01,819.823 
  2007.14,819.823 2064.27,819.823 2121.39,819.823 2178.52,819.823 2235.65,819.823 2292.77,819.823 
  "/>
<polyline clip-path="url(#clip622)" style="stroke:#c68125; stroke-width:4; stroke-opacity:1; fill:none" points="
  293.338,1028.21 350.464,1008.16 407.591,984.735 464.718,954.088 521.845,932.259 578.971,913.512 636.098,885.626 693.225,865.411 750.351,847.472 807.478,832.409 
  864.605,819.824 921.732,819.823 978.858,819.823 1035.99,819.823 1093.11,819.823 1150.24,819.823 1207.37,819.823 1264.49,819.823 1321.62,819.823 1378.75,819.823 
  1435.87,819.823 1493,819.823 1550.13,819.823 1607.25,819.823 1664.38,819.823 1721.51,819.823 1778.63,819.823 1835.76,819.823 1892.89,819.823 1950.01,819.823 
  2007.14,819.823 2064.27,819.823 2121.39,819.823 2178.52,819.823 2235.65,819.823 2292.77,819.823 
  "/>
<polyline clip-path="url(#clip622)" style="stroke:#00a98d; stroke-width:4; stroke-opacity:1; fill:none" points="
  293.338,418.944 350.464,501.819 407.591,560.397 464.718,618.741 521.845,671.034 578.971,715.411 636.098,753.808 693.225,783.949 750.351,808.338 807.478,819.823 
  864.605,819.823 921.732,819.823 978.858,819.823 1035.99,819.823 1093.11,819.823 1150.24,819.823 1207.37,819.823 1264.49,819.823 1321.62,819.823 1378.75,819.823 
  1435.87,819.823 1493,819.823 1550.13,819.823 1607.25,819.823 1664.38,819.823 1721.51,819.823 1778.63,819.823 1835.76,819.823 1892.89,819.823 1950.01,819.823 
  2007.14,819.823 2064.27,819.823 2121.39,819.823 2178.52,819.823 2235.65,819.823 2292.77,819.823 
  "/>
<polyline clip-path="url(#clip622)" style="stroke:#8e971d; stroke-width:4; stroke-opacity:1; fill:none" points="
  293.338,876.719 350.464,845.691 407.591,819.823 464.718,819.823 521.845,819.823 578.971,819.823 636.098,819.823 693.225,819.823 750.351,819.823 807.478,819.823 
  864.605,819.823 921.732,819.823 978.858,819.823 1035.99,819.823 1093.11,819.823 1150.24,819.823 1207.37,819.823 1264.49,819.823 1321.62,819.823 1378.75,819.823 
  1435.87,819.823 1493,819.823 1550.13,819.823 1607.25,819.823 1664.38,819.823 1721.51,819.823 1778.63,819.823 1835.76,819.823 1892.89,819.823 1950.01,819.823 
  2007.14,819.823 2064.27,819.823 2121.39,819.823 2178.52,819.823 2235.65,819.823 2292.77,819.823 
  "/>
<polyline clip-path="url(#clip622)" style="stroke:#00a8cb; stroke-width:4; stroke-opacity:1; fill:none" points="
  293.338,1042.79 350.464,991.97 407.591,930.811 464.718,871.081 521.845,819.869 578.971,819.823 636.098,819.823 693.225,819.823 750.351,819.823 807.478,819.823 
  864.605,819.823 921.732,819.823 978.858,819.823 1035.99,819.823 1093.11,819.823 1150.24,819.823 1207.37,819.823 1264.49,819.823 1321.62,819.823 1378.75,819.823 
  1435.87,819.823 1493,819.823 1550.13,819.823 1607.25,819.823 1664.38,819.823 1721.51,819.823 1778.63,819.823 1835.76,819.823 1892.89,819.823 1950.01,819.823 
  2007.14,819.823 2064.27,819.823 2121.39,819.823 2178.52,819.823 2235.65,819.823 2292.77,819.823 
  "/>
<polyline clip-path="url(#clip622)" style="stroke:#9b7fe8; stroke-width:4; stroke-opacity:1; fill:none" points="
  293.338,680.888 350.464,707.548 407.591,740.056 464.718,764.04 521.845,780.858 578.971,793.215 636.098,798.375 693.225,802.973 750.351,817.3 807.478,819.823 
  864.605,819.823 921.732,819.823 978.858,819.823 1035.99,819.823 1093.11,819.823 1150.24,819.823 1207.37,819.823 1264.49,819.823 1321.62,819.823 1378.75,819.823 
  1435.87,819.823 1493,819.823 1550.13,819.823 1607.25,819.823 1664.38,819.823 1721.51,819.823 1778.63,819.823 1835.76,819.823 1892.89,819.823 1950.01,819.823 
  2007.14,819.823 2064.27,819.823 2121.39,819.823 2178.52,819.823 2235.65,819.823 2292.77,819.823 
  "/>
<polyline clip-path="url(#clip622)" style="stroke:#608cf6; stroke-width:4; stroke-opacity:1; fill:none" points="
  293.338,559.864 350.464,630.668 407.591,686.688 464.718,720.654 521.845,754.573 578.971,788.609 636.098,819.821 693.225,819.823 750.351,819.823 807.478,819.823 
  864.605,819.823 921.732,819.823 978.858,819.823 1035.99,819.823 1093.11,819.823 1150.24,819.823 1207.37,819.823 1264.49,819.823 1321.62,819.823 1378.75,819.823 
  1435.87,819.823 1493,819.823 1550.13,819.823 1607.25,819.823 1664.38,819.823 1721.51,819.823 1778.63,819.823 1835.76,819.823 1892.89,819.823 1950.01,819.823 
  2007.14,819.823 2064.27,819.823 2121.39,819.823 2178.52,819.823 2235.65,819.823 2292.77,819.823 
  "/>
<polyline clip-path="url(#clip622)" style="stroke:#f05f73; stroke-width:4; stroke-opacity:1; fill:none" points="
  293.338,554.496 350.464,643.013 407.591,721.61 464.718,748.304 521.845,777.042 578.971,792.203 636.098,804.01 693.225,815.674 750.351,819.823 807.478,819.823 
  864.605,819.823 921.732,819.823 978.858,819.823 1035.99,819.823 1093.11,819.823 1150.24,819.823 1207.37,819.823 1264.49,819.823 1321.62,819.823 1378.75,819.823 
  1435.87,819.823 1493,819.823 1550.13,819.823 1607.25,819.823 1664.38,819.823 1721.51,819.823 1778.63,819.823 1835.76,819.823 1892.89,819.823 1950.01,819.823 
  2007.14,819.823 2064.27,819.823 2121.39,819.823 2178.52,819.823 2235.65,819.823 2292.77,819.823 
  "/>
<polyline clip-path="url(#clip622)" style="stroke:#dd64b5; stroke-width:4; stroke-opacity:1; fill:none" points="
  293.338,1117.36 350.464,1091.17 407.591,1077.76 464.718,1063.88 521.845,1037.41 578.971,997.504 636.098,957.724 693.225,929.803 750.351,910.129 807.478,892.421 
  864.605,880.274 921.732,868.965 978.858,858.404 1035.99,845.838 1093.11,835.083 1150.24,826.093 1207.37,819.823 1264.49,819.823 1321.62,819.823 1378.75,819.823 
  1435.87,819.823 1493,819.823 1550.13,819.823 1607.25,819.823 1664.38,819.823 1721.51,819.823 1778.63,819.823 1835.76,819.823 1892.89,819.823 1950.01,819.823 
  2007.14,819.823 2064.27,819.823 2121.39,819.823 2178.52,819.823 2235.65,819.823 2292.77,819.823 
  "/>
<polyline clip-path="url(#clip622)" style="stroke:#6b9e32; stroke-width:4; stroke-opacity:1; fill:none" points="
  293.338,755.95 350.464,819.813 407.591,819.823 464.718,819.823 521.845,819.823 578.971,819.823 636.098,819.823 693.225,819.823 750.351,819.823 807.478,819.823 
  864.605,819.823 921.732,819.823 978.858,819.823 1035.99,819.823 1093.11,819.823 1150.24,819.823 1207.37,819.823 1264.49,819.823 1321.62,819.823 1378.75,819.823 
  1435.87,819.823 1493,819.823 1550.13,819.823 1607.25,819.823 1664.38,819.823 1721.51,819.823 1778.63,819.823 1835.76,819.823 1892.89,819.823 1950.01,819.823 
  2007.14,819.823 2064.27,819.823 2121.39,819.823 2178.52,819.823 2235.65,819.823 2292.77,819.823 
  "/>
<polyline clip-path="url(#clip622)" style="stroke:#009af9; stroke-width:4; stroke-opacity:1; fill:none" points="
  293.338,841.187 350.464,819.823 407.591,819.823 464.718,819.823 521.845,819.823 578.971,819.823 636.098,819.823 693.225,819.823 750.351,819.823 807.478,819.823 
  864.605,819.823 921.732,819.823 978.858,819.823 1035.99,819.823 1093.11,819.823 1150.24,819.823 1207.37,819.823 1264.49,819.823 1321.62,819.823 1378.75,819.823 
  1435.87,819.823 1493,819.823 1550.13,819.823 1607.25,819.823 1664.38,819.823 1721.51,819.823 1778.63,819.823 1835.76,819.823 1892.89,819.823 1950.01,819.823 
  2007.14,819.823 2064.27,819.823 2121.39,819.823 2178.52,819.823 2235.65,819.823 2292.77,819.823 
  "/>
<polyline clip-path="url(#clip622)" style="stroke:#e26f46; stroke-width:4; stroke-opacity:1; fill:none" points="
  293.338,628.955 350.464,671.574 407.591,709.989 464.718,734.827 521.845,759.342 578.971,785.727 636.098,807.262 693.225,819.823 750.351,819.823 807.478,819.823 
  864.605,819.823 921.732,819.823 978.858,819.823 1035.99,819.823 1093.11,819.823 1150.24,819.823 1207.37,819.823 1264.49,819.823 1321.62,819.823 1378.75,819.823 
  1435.87,819.823 1493,819.823 1550.13,819.823 1607.25,819.823 1664.38,819.823 1721.51,819.823 1778.63,819.823 1835.76,819.823 1892.89,819.823 1950.01,819.823 
  2007.14,819.823 2064.27,819.823 2121.39,819.823 2178.52,819.823 2235.65,819.823 2292.77,819.823 
  "/>
<polyline clip-path="url(#clip622)" style="stroke:#3da44d; stroke-width:4; stroke-opacity:1; fill:none" points="
  293.338,756.519 350.464,759.35 407.591,774.437 464.718,781.194 521.845,778.784 578.971,776.613 636.098,772.392 693.225,767.567 750.351,771.937 807.478,781.288 
  864.605,794.466 921.732,814.816 978.858,819.823 1035.99,819.823 1093.11,819.823 1150.24,819.823 1207.37,819.823 1264.49,819.823 1321.62,819.823 1378.75,819.823 
  1435.87,819.823 1493,819.823 1550.13,819.823 1607.25,819.823 1664.38,819.823 1721.51,819.823 1778.63,819.823 1835.76,819.823 1892.89,819.823 1950.01,819.823 
  2007.14,819.823 2064.27,819.823 2121.39,819.823 2178.52,819.823 2235.65,819.823 2292.77,819.823 
  "/>
<polyline clip-path="url(#clip622)" style="stroke:#c271d2; stroke-width:4; stroke-opacity:1; fill:none" points="
  293.338,748.608 350.464,766.701 407.591,784.003 464.718,808.723 521.845,819.823 578.971,819.823 636.098,819.823 693.225,819.823 750.351,819.823 807.478,819.823 
  864.605,819.823 921.732,819.823 978.858,819.823 1035.99,819.823 1093.11,819.823 1150.24,819.823 1207.37,819.823 1264.49,819.823 1321.62,819.823 1378.75,819.823 
  1435.87,819.823 1493,819.823 1550.13,819.823 1607.25,819.823 1664.38,819.823 1721.51,819.823 1778.63,819.823 1835.76,819.823 1892.89,819.823 1950.01,819.823 
  2007.14,819.823 2064.27,819.823 2121.39,819.823 2178.52,819.823 2235.65,819.823 2292.77,819.823 
  "/>
<polyline clip-path="url(#clip622)" style="stroke:#ac8d18; stroke-width:4; stroke-opacity:1; fill:none" points="
  293.338,1016.28 350.464,943.857 407.591,889.326 464.718,849.25 521.845,819.823 578.971,819.823 636.098,819.823 693.225,819.823 750.351,819.823 807.478,819.823 
  864.605,819.823 921.732,819.823 978.858,819.823 1035.99,819.823 1093.11,819.823 1150.24,819.823 1207.37,819.823 1264.49,819.823 1321.62,819.823 1378.75,819.823 
  1435.87,819.823 1493,819.823 1550.13,819.823 1607.25,819.823 1664.38,819.823 1721.51,819.823 1778.63,819.823 1835.76,819.823 1892.89,819.823 1950.01,819.823 
  2007.14,819.823 2064.27,819.823 2121.39,819.823 2178.52,819.823 2235.65,819.823 2292.77,819.823 
  "/>
<polyline clip-path="url(#clip622)" style="stroke:#00a9ad; stroke-width:4; stroke-opacity:1; fill:none" points="
  293.338,1339.1 350.464,1219.34 407.591,1119.81 464.718,1065.53 521.845,1012.7 578.971,964.131 636.098,926.162 693.225,897.76 750.351,873.409 807.478,851.167 
  864.605,835.7 921.732,819.872 978.858,819.823 1035.99,819.823 1093.11,819.823 1150.24,819.823 1207.37,819.823 1264.49,819.823 1321.62,819.823 1378.75,819.823 
  1435.87,819.823 1493,819.823 1550.13,819.823 1607.25,819.823 1664.38,819.823 1721.51,819.823 1778.63,819.823 1835.76,819.823 1892.89,819.823 1950.01,819.823 
  2007.14,819.823 2064.27,819.823 2121.39,819.823 2178.52,819.823 2235.65,819.823 2292.77,819.823 
  "/>
<polyline clip-path="url(#clip622)" style="stroke:#ed5d92; stroke-width:4; stroke-opacity:1; fill:none" points="
  293.338,1096.91 350.464,946.903 407.591,827.742 464.718,819.823 521.845,819.823 578.971,819.823 636.098,819.823 693.225,819.823 750.351,819.823 807.478,819.823 
  864.605,819.823 921.732,819.823 978.858,819.823 1035.99,819.823 1093.11,819.823 1150.24,819.823 1207.37,819.823 1264.49,819.823 1321.62,819.823 1378.75,819.823 
  1435.87,819.823 1493,819.823 1550.13,819.823 1607.25,819.823 1664.38,819.823 1721.51,819.823 1778.63,819.823 1835.76,819.823 1892.89,819.823 1950.01,819.823 
  2007.14,819.823 2064.27,819.823 2121.39,819.823 2178.52,819.823 2235.65,819.823 2292.77,819.823 
  "/>
<polyline clip-path="url(#clip622)" style="stroke:#c68125; stroke-width:4; stroke-opacity:1; fill:none" points="
  293.338,1091.68 350.464,1051.43 407.591,1000.09 464.718,939.87 521.845,889.361 578.971,849.606 636.098,819.823 693.225,819.823 750.351,819.823 807.478,819.823 
  864.605,819.823 921.732,819.823 978.858,819.823 1035.99,819.823 1093.11,819.823 1150.24,819.823 1207.37,819.823 1264.49,819.823 1321.62,819.823 1378.75,819.823 
  1435.87,819.823 1493,819.823 1550.13,819.823 1607.25,819.823 1664.38,819.823 1721.51,819.823 1778.63,819.823 1835.76,819.823 1892.89,819.823 1950.01,819.823 
  2007.14,819.823 2064.27,819.823 2121.39,819.823 2178.52,819.823 2235.65,819.823 2292.77,819.823 
  "/>
<polyline clip-path="url(#clip622)" style="stroke:#00a98d; stroke-width:4; stroke-opacity:1; fill:none" points="
  293.338,1292.22 350.464,1197.4 407.591,1105.85 464.718,1043.36 521.845,984.585 578.971,939.617 636.098,900.306 693.225,871.035 750.351,846.653 807.478,822.147 
  864.605,819.823 921.732,819.823 978.858,819.823 1035.99,819.823 1093.11,819.823 1150.24,819.823 1207.37,819.823 1264.49,819.823 1321.62,819.823 1378.75,819.823 
  1435.87,819.823 1493,819.823 1550.13,819.823 1607.25,819.823 1664.38,819.823 1721.51,819.823 1778.63,819.823 1835.76,819.823 1892.89,819.823 1950.01,819.823 
  2007.14,819.823 2064.27,819.823 2121.39,819.823 2178.52,819.823 2235.65,819.823 2292.77,819.823 
  "/>
<polyline clip-path="url(#clip622)" style="stroke:#8e971d; stroke-width:4; stroke-opacity:1; fill:none" points="
  293.338,412.535 350.464,524.096 407.591,612.973 464.718,639.056 521.845,664.245 578.971,686.47 636.098,707.887 693.225,727.27 750.351,744.225 807.478,758.872 
  864.605,769.328 921.732,781.017 978.858,796.411 1035.99,812.546 1093.11,819.823 1150.24,819.823 1207.37,819.823 1264.49,819.823 1321.62,819.823 1378.75,819.823 
  1435.87,819.823 1493,819.823 1550.13,819.823 1607.25,819.823 1664.38,819.823 1721.51,819.823 1778.63,819.823 1835.76,819.823 1892.89,819.823 1950.01,819.823 
  2007.14,819.823 2064.27,819.823 2121.39,819.823 2178.52,819.823 2235.65,819.823 2292.77,819.823 
  "/>
<polyline clip-path="url(#clip622)" style="stroke:#00a8cb; stroke-width:4; stroke-opacity:1; fill:none" points="
  293.338,708.878 350.464,786.536 407.591,819.823 464.718,819.823 521.845,819.823 578.971,819.823 636.098,819.823 693.225,819.823 750.351,819.823 807.478,819.823 
  864.605,819.823 921.732,819.823 978.858,819.823 1035.99,819.823 1093.11,819.823 1150.24,819.823 1207.37,819.823 1264.49,819.823 1321.62,819.823 1378.75,819.823 
  1435.87,819.823 1493,819.823 1550.13,819.823 1607.25,819.823 1664.38,819.823 1721.51,819.823 1778.63,819.823 1835.76,819.823 1892.89,819.823 1950.01,819.823 
  2007.14,819.823 2064.27,819.823 2121.39,819.823 2178.52,819.823 2235.65,819.823 2292.77,819.823 
  "/>
<polyline clip-path="url(#clip622)" style="stroke:#9b7fe8; stroke-width:4; stroke-opacity:1; fill:none" points="
  293.338,318.73 350.464,363.196 407.591,413.616 464.718,455.76 521.845,495.906 578.971,517.281 636.098,534.323 693.225,548.189 750.351,569.198 807.478,590.53 
  864.605,608.128 921.732,624.515 978.858,640.46 1035.99,656.409 1093.11,673.814 1150.24,692.819 1207.37,714.575 1264.49,731.302 1321.62,746.323 1378.75,761.342 
  1435.87,776.36 1493,788.9 1550.13,800.978 1607.25,813.054 1664.38,819.823 1721.51,819.823 1778.63,819.823 1835.76,819.823 1892.89,819.823 1950.01,819.823 
  2007.14,819.823 2064.27,819.823 2121.39,819.823 2178.52,819.823 2235.65,819.823 2292.77,819.823 
  "/>
<polyline clip-path="url(#clip622)" style="stroke:#608cf6; stroke-width:4; stroke-opacity:1; fill:none" points="
  293.338,781.898 350.464,758.408 407.591,756.367 464.718,773.907 521.845,798.848 578.971,814.713 636.098,819.822 693.225,819.823 750.351,819.823 807.478,819.823 
  864.605,819.823 921.732,819.823 978.858,819.823 1035.99,819.823 1093.11,819.823 1150.24,819.823 1207.37,819.823 1264.49,819.823 1321.62,819.823 1378.75,819.823 
  1435.87,819.823 1493,819.823 1550.13,819.823 1607.25,819.823 1664.38,819.823 1721.51,819.823 1778.63,819.823 1835.76,819.823 1892.89,819.823 1950.01,819.823 
  2007.14,819.823 2064.27,819.823 2121.39,819.823 2178.52,819.823 2235.65,819.823 2292.77,819.823 
  "/>
<polyline clip-path="url(#clip622)" style="stroke:#f05f73; stroke-width:4; stroke-opacity:1; fill:none" points="
  293.338,1163.48 350.464,1094.26 407.591,1042.45 464.718,1000.74 521.845,969.033 578.971,936.386 636.098,905.215 693.225,872.727 750.351,843.234 807.478,819.823 
  864.605,819.823 921.732,819.823 978.858,819.823 1035.99,819.823 1093.11,819.823 1150.24,819.823 1207.37,819.823 1264.49,819.823 1321.62,819.823 1378.75,819.823 
  1435.87,819.823 1493,819.823 1550.13,819.823 1607.25,819.823 1664.38,819.823 1721.51,819.823 1778.63,819.823 1835.76,819.823 1892.89,819.823 1950.01,819.823 
  2007.14,819.823 2064.27,819.823 2121.39,819.823 2178.52,819.823 2235.65,819.823 2292.77,819.823 
  "/>
<polyline clip-path="url(#clip622)" style="stroke:#dd64b5; stroke-width:4; stroke-opacity:1; fill:none" points="
  293.338,780.725 350.464,762.861 407.591,744.37 464.718,749.878 521.845,757.897 578.971,768.064 636.098,778.662 693.225,790.839 750.351,805.496 807.478,819.823 
  864.605,819.823 921.732,819.823 978.858,819.823 1035.99,819.823 1093.11,819.823 1150.24,819.823 1207.37,819.823 1264.49,819.823 1321.62,819.823 1378.75,819.823 
  1435.87,819.823 1493,819.823 1550.13,819.823 1607.25,819.823 1664.38,819.823 1721.51,819.823 1778.63,819.823 1835.76,819.823 1892.89,819.823 1950.01,819.823 
  2007.14,819.823 2064.27,819.823 2121.39,819.823 2178.52,819.823 2235.65,819.823 2292.77,819.823 
  "/>
<polyline clip-path="url(#clip622)" style="stroke:#6b9e32; stroke-width:4; stroke-opacity:1; fill:none" points="
  293.338,823.179 350.464,891.355 407.591,937.306 464.718,951.246 521.845,958.032 578.971,950.471 636.098,936.838 693.225,925.86 750.351,911.374 807.478,898.913 
  864.605,887.379 921.732,875.904 978.858,864.986 1035.99,853.464 1093.11,843.075 1150.24,833.621 1207.37,824.147 1264.49,819.823 1321.62,819.823 1378.75,819.823 
  1435.87,819.823 1493,819.823 1550.13,819.823 1607.25,819.823 1664.38,819.823 1721.51,819.823 1778.63,819.823 1835.76,819.823 1892.89,819.823 1950.01,819.823 
  2007.14,819.823 2064.27,819.823 2121.39,819.823 2178.52,819.823 2235.65,819.823 2292.77,819.823 
  "/>
<polyline clip-path="url(#clip622)" style="stroke:#009af9; stroke-width:4; stroke-opacity:1; fill:none" points="
  293.338,351.051 350.464,468.419 407.591,563.243 464.718,621.21 521.845,664.088 578.971,697.279 636.098,723.295 693.225,745.177 750.351,764.38 807.478,785.004 
  864.605,800.512 921.732,813.403 978.858,819.823 1035.99,819.823 1093.11,819.823 1150.24,819.823 1207.37,819.823 1264.49,819.823 1321.62,819.823 1378.75,819.823 
  1435.87,819.823 1493,819.823 1550.13,819.823 1607.25,819.823 1664.38,819.823 1721.51,819.823 1778.63,819.823 1835.76,819.823 1892.89,819.823 1950.01,819.823 
  2007.14,819.823 2064.27,819.823 2121.39,819.823 2178.52,819.823 2235.65,819.823 2292.77,819.823 
  "/>
<polyline clip-path="url(#clip622)" style="stroke:#e26f46; stroke-width:4; stroke-opacity:1; fill:none" points="
  293.338,1155.09 350.464,1054.52 407.591,964.371 464.718,909.428 521.845,857.731 578.971,819.823 636.098,819.823 693.225,819.823 750.351,819.823 807.478,819.823 
  864.605,819.823 921.732,819.823 978.858,819.823 1035.99,819.823 1093.11,819.823 1150.24,819.823 1207.37,819.823 1264.49,819.823 1321.62,819.823 1378.75,819.823 
  1435.87,819.823 1493,819.823 1550.13,819.823 1607.25,819.823 1664.38,819.823 1721.51,819.823 1778.63,819.823 1835.76,819.823 1892.89,819.823 1950.01,819.823 
  2007.14,819.823 2064.27,819.823 2121.39,819.823 2178.52,819.823 2235.65,819.823 2292.77,819.823 
  "/>
</svg>
