<?xml version="1.0" encoding="utf-8"?>
<svg xmlns="http://www.w3.org/2000/svg" xmlns:xlink="http://www.w3.org/1999/xlink" width="600" height="400" viewBox="0 0 2400 1600">
<defs>
  <clipPath id="clip3500">
    <rect x="0" y="0" width="2400" height="1600"/>
  </clipPath>
</defs>
<path clip-path="url(#clip3500)" d="
M0 1600 L2400 1600 L2400 0 L0 0  Z
  " fill="#ffffff" fill-rule="evenodd" fill-opacity="1"/>
<defs>
  <clipPath id="clip3501">
    <rect x="480" y="0" width="1681" height="1600"/>
  </clipPath>
</defs>
<path clip-path="url(#clip3500)" d="
M218.018 1440.03 L2352.76 1440.03 L2352.76 123.472 L218.018 123.472  Z
  " fill="#ffffff" fill-rule="evenodd" fill-opacity="1"/>
<defs>
  <clipPath id="clip3502">
    <rect x="218" y="123" width="2136" height="1318"/>
  </clipPath>
</defs>
<polyline clip-path="url(#clip3502)" style="stroke:#000000; stroke-width:2; stroke-opacity:0.1; fill:none" points="
  278.435,1440.03 278.435,123.472 
  "/>
<polyline clip-path="url(#clip3502)" style="stroke:#000000; stroke-width:2; stroke-opacity:0.1; fill:none" points="
  853.836,1440.03 853.836,123.472 
  "/>
<polyline clip-path="url(#clip3502)" style="stroke:#000000; stroke-width:2; stroke-opacity:0.1; fill:none" points="
  1429.24,1440.03 1429.24,123.472 
  "/>
<polyline clip-path="url(#clip3502)" style="stroke:#000000; stroke-width:2; stroke-opacity:0.1; fill:none" points="
  2004.64,1440.03 2004.64,123.472 
  "/>
<polyline clip-path="url(#clip3502)" style="stroke:#000000; stroke-width:2; stroke-opacity:0.1; fill:none" points="
  218.018,1256.69 2352.76,1256.69 
  "/>
<polyline clip-path="url(#clip3502)" style="stroke:#000000; stroke-width:2; stroke-opacity:0.1; fill:none" points="
  218.018,1070.41 2352.76,1070.41 
  "/>
<polyline clip-path="url(#clip3502)" style="stroke:#000000; stroke-width:2; stroke-opacity:0.1; fill:none" points="
  218.018,884.123 2352.76,884.123 
  "/>
<polyline clip-path="url(#clip3502)" style="stroke:#000000; stroke-width:2; stroke-opacity:0.1; fill:none" points="
  218.018,697.841 2352.76,697.841 
  "/>
<polyline clip-path="url(#clip3502)" style="stroke:#000000; stroke-width:2; stroke-opacity:0.1; fill:none" points="
  218.018,511.558 2352.76,511.558 
  "/>
<polyline clip-path="url(#clip3502)" style="stroke:#000000; stroke-width:2; stroke-opacity:0.1; fill:none" points="
  218.018,325.275 2352.76,325.275 
  "/>
<polyline clip-path="url(#clip3502)" style="stroke:#000000; stroke-width:2; stroke-opacity:0.1; fill:none" points="
  218.018,138.993 2352.76,138.993 
  "/>
<polyline clip-path="url(#clip3500)" style="stroke:#000000; stroke-width:4; stroke-opacity:1; fill:none" points="
  218.018,1440.03 2352.76,1440.03 
  "/>
<polyline clip-path="url(#clip3500)" style="stroke:#000000; stroke-width:4; stroke-opacity:1; fill:none" points="
  218.018,1440.03 218.018,123.472 
  "/>
<polyline clip-path="url(#clip3500)" style="stroke:#000000; stroke-width:4; stroke-opacity:1; fill:none" points="
  278.435,1440.03 278.435,1424.23 
  "/>
<polyline clip-path="url(#clip3500)" style="stroke:#000000; stroke-width:4; stroke-opacity:1; fill:none" points="
  853.836,1440.03 853.836,1424.23 
  "/>
<polyline clip-path="url(#clip3500)" style="stroke:#000000; stroke-width:4; stroke-opacity:1; fill:none" points="
  1429.24,1440.03 1429.24,1424.23 
  "/>
<polyline clip-path="url(#clip3500)" style="stroke:#000000; stroke-width:4; stroke-opacity:1; fill:none" points="
  2004.64,1440.03 2004.64,1424.23 
  "/>
<polyline clip-path="url(#clip3500)" style="stroke:#000000; stroke-width:4; stroke-opacity:1; fill:none" points="
  218.018,1256.69 243.634,1256.69 
  "/>
<polyline clip-path="url(#clip3500)" style="stroke:#000000; stroke-width:4; stroke-opacity:1; fill:none" points="
  218.018,1070.41 243.634,1070.41 
  "/>
<polyline clip-path="url(#clip3500)" style="stroke:#000000; stroke-width:4; stroke-opacity:1; fill:none" points="
  218.018,884.123 243.634,884.123 
  "/>
<polyline clip-path="url(#clip3500)" style="stroke:#000000; stroke-width:4; stroke-opacity:1; fill:none" points="
  218.018,697.841 243.634,697.841 
  "/>
<polyline clip-path="url(#clip3500)" style="stroke:#000000; stroke-width:4; stroke-opacity:1; fill:none" points="
  218.018,511.558 243.634,511.558 
  "/>
<polyline clip-path="url(#clip3500)" style="stroke:#000000; stroke-width:4; stroke-opacity:1; fill:none" points="
  218.018,325.275 243.634,325.275 
  "/>
<polyline clip-path="url(#clip3500)" style="stroke:#000000; stroke-width:4; stroke-opacity:1; fill:none" points="
  218.018,138.993 243.634,138.993 
  "/>
<path clip-path="url(#clip3500)" d="M 0 0 M259.951 1462.02 Q256.34 1462.02 254.511 1465.59 Q252.706 1469.13 252.706 1476.26 Q252.706 1483.37 254.511 1486.93 Q256.34 1490.47 259.951 1490.47 Q263.585 1490.47 265.391 1486.93 Q267.219 1483.37 267.219 1476.26 Q267.219 1469.13 265.391 1465.59 Q263.585 1462.02 259.951 1462.02 M259.951 1458.32 Q265.761 1458.32 268.817 1462.93 Q271.895 1467.51 271.895 1476.26 Q271.895 1484.99 268.817 1489.59 Q265.761 1494.18 259.951 1494.18 Q254.141 1494.18 251.062 1489.59 Q248.007 1484.99 248.007 1476.26 Q248.007 1467.51 251.062 1462.93 Q254.141 1458.32 259.951 1458.32 Z" fill="#000000" fill-rule="evenodd" fill-opacity="1" /><path clip-path="url(#clip3500)" d="M 0 0 M276.965 1487.63 L281.849 1487.63 L281.849 1493.51 L276.965 1493.51 L276.965 1487.63 Z" fill="#000000" fill-rule="evenodd" fill-opacity="1" /><path clip-path="url(#clip3500)" d="M 0 0 M296.918 1462.02 Q293.307 1462.02 291.479 1465.59 Q289.673 1469.13 289.673 1476.26 Q289.673 1483.37 291.479 1486.93 Q293.307 1490.47 296.918 1490.47 Q300.553 1490.47 302.358 1486.93 Q304.187 1483.37 304.187 1476.26 Q304.187 1469.13 302.358 1465.59 Q300.553 1462.02 296.918 1462.02 M296.918 1458.32 Q302.729 1458.32 305.784 1462.93 Q308.863 1467.51 308.863 1476.26 Q308.863 1484.99 305.784 1489.59 Q302.729 1494.18 296.918 1494.18 Q291.108 1494.18 288.03 1489.59 Q284.974 1484.99 284.974 1476.26 Q284.974 1467.51 288.03 1462.93 Q291.108 1458.32 296.918 1458.32 Z" fill="#000000" fill-rule="evenodd" fill-opacity="1" /><path clip-path="url(#clip3500)" d="M 0 0 M835.966 1462.02 Q832.355 1462.02 830.526 1465.59 Q828.72 1469.13 828.72 1476.26 Q828.72 1483.37 830.526 1486.93 Q832.355 1490.47 835.966 1490.47 Q839.6 1490.47 841.405 1486.93 Q843.234 1483.37 843.234 1476.26 Q843.234 1469.13 841.405 1465.59 Q839.6 1462.02 835.966 1462.02 M835.966 1458.32 Q841.776 1458.32 844.831 1462.93 Q847.91 1467.51 847.91 1476.26 Q847.91 1484.99 844.831 1489.59 Q841.776 1494.18 835.966 1494.18 Q830.155 1494.18 827.077 1489.59 Q824.021 1484.99 824.021 1476.26 Q824.021 1467.51 827.077 1462.93 Q830.155 1458.32 835.966 1458.32 Z" fill="#000000" fill-rule="evenodd" fill-opacity="1" /><path clip-path="url(#clip3500)" d="M 0 0 M852.979 1487.63 L857.864 1487.63 L857.864 1493.51 L852.979 1493.51 L852.979 1487.63 Z" fill="#000000" fill-rule="evenodd" fill-opacity="1" /><path clip-path="url(#clip3500)" d="M 0 0 M863.743 1489.57 L871.382 1489.57 L871.382 1463.2 L863.072 1464.87 L863.072 1460.61 L871.336 1458.95 L876.012 1458.95 L876.012 1489.57 L883.651 1489.57 L883.651 1493.51 L863.743 1493.51 L863.743 1489.57 Z" fill="#000000" fill-rule="evenodd" fill-opacity="1" /><path clip-path="url(#clip3500)" d="M 0 0 M1411.55 1462.02 Q1407.94 1462.02 1406.11 1465.59 Q1404.31 1469.13 1404.31 1476.26 Q1404.31 1483.37 1406.11 1486.93 Q1407.94 1490.47 1411.55 1490.47 Q1415.19 1490.47 1416.99 1486.93 Q1418.82 1483.37 1418.82 1476.26 Q1418.82 1469.13 1416.99 1465.59 Q1415.19 1462.02 1411.55 1462.02 M1411.55 1458.32 Q1417.36 1458.32 1420.42 1462.93 Q1423.5 1467.51 1423.5 1476.26 Q1423.5 1484.99 1420.42 1489.59 Q1417.36 1494.18 1411.55 1494.18 Q1405.74 1494.18 1402.66 1489.59 Q1399.61 1484.99 1399.61 1476.26 Q1399.61 1467.51 1402.66 1462.93 Q1405.74 1458.32 1411.55 1458.32 Z" fill="#000000" fill-rule="evenodd" fill-opacity="1" /><path clip-path="url(#clip3500)" d="M 0 0 M1428.57 1487.63 L1433.45 1487.63 L1433.45 1493.51 L1428.57 1493.51 L1428.57 1487.63 Z" fill="#000000" fill-rule="evenodd" fill-opacity="1" /><path clip-path="url(#clip3500)" d="M 0 0 M1442.55 1489.57 L1458.87 1489.57 L1458.87 1493.51 L1436.92 1493.51 L1436.92 1489.57 Q1439.58 1486.82 1444.17 1482.19 Q1448.77 1477.53 1449.95 1476.19 Q1452.2 1473.67 1453.08 1471.93 Q1453.98 1470.17 1453.98 1468.48 Q1453.98 1465.73 1452.04 1463.99 Q1450.12 1462.26 1447.01 1462.26 Q1444.82 1462.26 1442.36 1463.02 Q1439.93 1463.78 1437.15 1465.33 L1437.15 1460.61 Q1439.98 1459.48 1442.43 1458.9 Q1444.89 1458.32 1446.92 1458.32 Q1452.29 1458.32 1455.49 1461.01 Q1458.68 1463.69 1458.68 1468.18 Q1458.68 1470.31 1457.87 1472.23 Q1457.08 1474.13 1454.98 1476.72 Q1454.4 1477.39 1451.3 1480.61 Q1448.2 1483.81 1442.55 1489.57 Z" fill="#000000" fill-rule="evenodd" fill-opacity="1" /><path clip-path="url(#clip3500)" d="M 0 0 M1986.48 1462.02 Q1982.87 1462.02 1981.04 1465.59 Q1979.23 1469.13 1979.23 1476.26 Q1979.23 1483.37 1981.04 1486.93 Q1982.87 1490.47 1986.48 1490.47 Q1990.11 1490.47 1991.92 1486.93 Q1993.75 1483.37 1993.75 1476.26 Q1993.75 1469.13 1991.92 1465.59 Q1990.11 1462.02 1986.48 1462.02 M1986.48 1458.32 Q1992.29 1458.32 1995.34 1462.93 Q1998.42 1467.51 1998.42 1476.26 Q1998.42 1484.99 1995.34 1489.59 Q1992.29 1494.18 1986.48 1494.18 Q1980.67 1494.18 1977.59 1489.59 Q1974.53 1484.99 1974.53 1476.26 Q1974.53 1467.51 1977.59 1462.93 Q1980.67 1458.32 1986.48 1458.32 Z" fill="#000000" fill-rule="evenodd" fill-opacity="1" /><path clip-path="url(#clip3500)" d="M 0 0 M2003.49 1487.63 L2008.38 1487.63 L2008.38 1493.51 L2003.49 1493.51 L2003.49 1487.63 Z" fill="#000000" fill-rule="evenodd" fill-opacity="1" /><path clip-path="url(#clip3500)" d="M 0 0 M2027.61 1474.87 Q2030.97 1475.59 2032.84 1477.86 Q2034.74 1480.13 2034.74 1483.46 Q2034.74 1488.57 2031.22 1491.38 Q2027.71 1494.18 2021.22 1494.18 Q2019.05 1494.18 2016.73 1493.74 Q2014.44 1493.32 2011.99 1492.46 L2011.99 1487.95 Q2013.93 1489.08 2016.25 1489.66 Q2018.56 1490.24 2021.08 1490.24 Q2025.48 1490.24 2027.77 1488.51 Q2030.09 1486.77 2030.09 1483.46 Q2030.09 1480.4 2027.94 1478.69 Q2025.81 1476.95 2021.99 1476.95 L2017.96 1476.95 L2017.96 1473.11 L2022.17 1473.11 Q2025.62 1473.11 2027.45 1471.75 Q2029.28 1470.36 2029.28 1467.76 Q2029.28 1465.1 2027.38 1463.69 Q2025.51 1462.26 2021.99 1462.26 Q2020.07 1462.26 2017.87 1462.67 Q2015.67 1463.09 2013.03 1463.97 L2013.03 1459.8 Q2015.69 1459.06 2018.01 1458.69 Q2020.34 1458.32 2022.4 1458.32 Q2027.73 1458.32 2030.83 1460.75 Q2033.93 1463.16 2033.93 1467.28 Q2033.93 1470.15 2032.29 1472.14 Q2030.65 1474.11 2027.61 1474.87 Z" fill="#000000" fill-rule="evenodd" fill-opacity="1" /><path clip-path="url(#clip3500)" d="M 0 0 M129.111 1259.08 L141.587 1259.08 L141.587 1262.88 L129.111 1262.88 L129.111 1259.08 Z" fill="#000000" fill-rule="evenodd" fill-opacity="1" /><path clip-path="url(#clip3500)" d="M 0 0 M150.684 1270.03 L167.004 1270.03 L167.004 1273.97 L145.06 1273.97 L145.06 1270.03 Q147.722 1267.28 152.305 1262.65 Q156.911 1258 158.092 1256.65 Q160.337 1254.13 161.217 1252.39 Q162.12 1250.63 162.12 1248.95 Q162.12 1246.19 160.175 1244.45 Q158.254 1242.72 155.152 1242.72 Q152.953 1242.72 150.499 1243.48 Q148.069 1244.25 145.291 1245.8 L145.291 1241.07 Q148.115 1239.94 150.569 1239.36 Q153.022 1238.78 155.059 1238.78 Q160.43 1238.78 163.624 1241.47 Q166.819 1244.15 166.819 1248.64 Q166.819 1250.77 166.008 1252.7 Q165.221 1254.59 163.115 1257.19 Q162.536 1257.86 159.434 1261.07 Q156.333 1264.27 150.684 1270.03 Z" fill="#000000" fill-rule="evenodd" fill-opacity="1" /><path clip-path="url(#clip3500)" d="M 0 0 M182.073 1242.49 Q178.462 1242.49 176.633 1246.05 Q174.828 1249.59 174.828 1256.72 Q174.828 1263.83 176.633 1267.39 Q178.462 1270.94 182.073 1270.94 Q185.707 1270.94 187.513 1267.39 Q189.342 1263.83 189.342 1256.72 Q189.342 1249.59 187.513 1246.05 Q185.707 1242.49 182.073 1242.49 M182.073 1238.78 Q187.883 1238.78 190.939 1243.39 Q194.018 1247.97 194.018 1256.72 Q194.018 1265.45 190.939 1270.06 Q187.883 1274.64 182.073 1274.64 Q176.263 1274.64 173.184 1270.06 Q170.129 1265.45 170.129 1256.72 Q170.129 1247.97 173.184 1243.39 Q176.263 1238.78 182.073 1238.78 Z" fill="#000000" fill-rule="evenodd" fill-opacity="1" /><path clip-path="url(#clip3500)" d="M 0 0 M128.74 1072.8 L141.217 1072.8 L141.217 1076.6 L128.74 1076.6 L128.74 1072.8 Z" fill="#000000" fill-rule="evenodd" fill-opacity="1" /><path clip-path="url(#clip3500)" d="M 0 0 M147.097 1083.75 L154.735 1083.75 L154.735 1057.38 L146.425 1059.05 L146.425 1054.79 L154.689 1053.13 L159.365 1053.13 L159.365 1083.75 L167.004 1083.75 L167.004 1087.69 L147.097 1087.69 L147.097 1083.75 Z" fill="#000000" fill-rule="evenodd" fill-opacity="1" /><path clip-path="url(#clip3500)" d="M 0 0 M182.073 1056.2 Q178.462 1056.2 176.633 1059.77 Q174.828 1063.31 174.828 1070.44 Q174.828 1077.55 176.633 1081.11 Q178.462 1084.65 182.073 1084.65 Q185.707 1084.65 187.513 1081.11 Q189.342 1077.55 189.342 1070.44 Q189.342 1063.31 187.513 1059.77 Q185.707 1056.2 182.073 1056.2 M182.073 1052.5 Q187.883 1052.5 190.939 1057.11 Q194.018 1061.69 194.018 1070.44 Q194.018 1079.17 190.939 1083.77 Q187.883 1088.36 182.073 1088.36 Q176.263 1088.36 173.184 1083.77 Q170.129 1079.17 170.129 1070.44 Q170.129 1061.69 173.184 1057.11 Q176.263 1052.5 182.073 1052.5 Z" fill="#000000" fill-rule="evenodd" fill-opacity="1" /><path clip-path="url(#clip3500)" d="M 0 0 M182.073 869.922 Q178.462 869.922 176.633 873.487 Q174.828 877.028 174.828 884.158 Q174.828 891.264 176.633 894.829 Q178.462 898.371 182.073 898.371 Q185.707 898.371 187.513 894.829 Q189.342 891.264 189.342 884.158 Q189.342 877.028 187.513 873.487 Q185.707 869.922 182.073 869.922 M182.073 866.218 Q187.883 866.218 190.939 870.825 Q194.018 875.408 194.018 884.158 Q194.018 892.885 190.939 897.491 Q187.883 902.074 182.073 902.074 Q176.263 902.074 173.184 897.491 Q170.129 892.885 170.129 884.158 Q170.129 875.408 173.184 870.825 Q176.263 866.218 182.073 866.218 Z" fill="#000000" fill-rule="evenodd" fill-opacity="1" /><path clip-path="url(#clip3500)" d="M 0 0 M147.097 711.185 L154.735 711.185 L154.735 684.82 L146.425 686.486 L146.425 682.227 L154.689 680.561 L159.365 680.561 L159.365 711.185 L167.004 711.185 L167.004 715.121 L147.097 715.121 L147.097 711.185 Z" fill="#000000" fill-rule="evenodd" fill-opacity="1" /><path clip-path="url(#clip3500)" d="M 0 0 M182.073 683.639 Q178.462 683.639 176.633 687.204 Q174.828 690.746 174.828 697.875 Q174.828 704.982 176.633 708.546 Q178.462 712.088 182.073 712.088 Q185.707 712.088 187.513 708.546 Q189.342 704.982 189.342 697.875 Q189.342 690.746 187.513 687.204 Q185.707 683.639 182.073 683.639 M182.073 679.936 Q187.883 679.936 190.939 684.542 Q194.018 689.125 194.018 697.875 Q194.018 706.602 190.939 711.209 Q187.883 715.792 182.073 715.792 Q176.263 715.792 173.184 711.209 Q170.129 706.602 170.129 697.875 Q170.129 689.125 173.184 684.542 Q176.263 679.936 182.073 679.936 Z" fill="#000000" fill-rule="evenodd" fill-opacity="1" /><path clip-path="url(#clip3500)" d="M 0 0 M150.684 524.903 L167.004 524.903 L167.004 528.838 L145.06 528.838 L145.06 524.903 Q147.722 522.148 152.305 517.519 Q156.911 512.866 158.092 511.523 Q160.337 509 161.217 507.264 Q162.12 505.505 162.12 503.815 Q162.12 501.06 160.175 499.324 Q158.254 497.588 155.152 497.588 Q152.953 497.588 150.499 498.352 Q148.069 499.116 145.291 500.667 L145.291 495.945 Q148.115 494.81 150.569 494.232 Q153.022 493.653 155.059 493.653 Q160.43 493.653 163.624 496.338 Q166.819 499.023 166.819 503.514 Q166.819 505.644 166.008 507.565 Q165.221 509.463 163.115 512.056 Q162.536 512.727 159.434 515.945 Q156.333 519.139 150.684 524.903 Z" fill="#000000" fill-rule="evenodd" fill-opacity="1" /><path clip-path="url(#clip3500)" d="M 0 0 M182.073 497.357 Q178.462 497.357 176.633 500.921 Q174.828 504.463 174.828 511.593 Q174.828 518.699 176.633 522.264 Q178.462 525.806 182.073 525.806 Q185.707 525.806 187.513 522.264 Q189.342 518.699 189.342 511.593 Q189.342 504.463 187.513 500.921 Q185.707 497.357 182.073 497.357 M182.073 493.653 Q187.883 493.653 190.939 498.259 Q194.018 502.843 194.018 511.593 Q194.018 520.32 190.939 524.926 Q187.883 529.509 182.073 529.509 Q176.263 529.509 173.184 524.926 Q170.129 520.32 170.129 511.593 Q170.129 502.843 173.184 498.259 Q176.263 493.653 182.073 493.653 Z" fill="#000000" fill-rule="evenodd" fill-opacity="1" /><path clip-path="url(#clip3500)" d="M 0 0 M159.874 323.921 Q163.231 324.639 165.106 326.907 Q167.004 329.176 167.004 332.509 Q167.004 337.625 163.485 340.426 Q159.967 343.227 153.485 343.227 Q151.309 343.227 148.995 342.787 Q146.703 342.37 144.249 341.514 L144.249 337 Q146.194 338.134 148.509 338.713 Q150.823 339.292 153.347 339.292 Q157.745 339.292 160.036 337.556 Q162.351 335.819 162.351 332.509 Q162.351 329.454 160.198 327.741 Q158.069 326.005 154.249 326.005 L150.222 326.005 L150.222 322.162 L154.434 322.162 Q157.884 322.162 159.712 320.796 Q161.541 319.407 161.541 316.815 Q161.541 314.153 159.643 312.741 Q157.768 311.306 154.249 311.306 Q152.328 311.306 150.129 311.722 Q147.93 312.139 145.291 313.019 L145.291 308.852 Q147.953 308.111 150.268 307.741 Q152.606 307.37 154.666 307.37 Q159.99 307.37 163.092 309.801 Q166.194 312.208 166.194 316.329 Q166.194 319.199 164.55 321.19 Q162.907 323.157 159.874 323.921 Z" fill="#000000" fill-rule="evenodd" fill-opacity="1" /><path clip-path="url(#clip3500)" d="M 0 0 M182.073 311.074 Q178.462 311.074 176.633 314.639 Q174.828 318.181 174.828 325.31 Q174.828 332.417 176.633 335.981 Q178.462 339.523 182.073 339.523 Q185.707 339.523 187.513 335.981 Q189.342 332.417 189.342 325.31 Q189.342 318.181 187.513 314.639 Q185.707 311.074 182.073 311.074 M182.073 307.37 Q187.883 307.37 190.939 311.977 Q194.018 316.56 194.018 325.31 Q194.018 334.037 190.939 338.643 Q187.883 343.227 182.073 343.227 Q176.263 343.227 173.184 338.643 Q170.129 334.037 170.129 325.31 Q170.129 316.56 173.184 311.977 Q176.263 307.37 182.073 307.37 Z" fill="#000000" fill-rule="evenodd" fill-opacity="1" /><path clip-path="url(#clip3500)" d="M 0 0 M157.421 125.787 L145.615 144.236 L157.421 144.236 L157.421 125.787 M156.194 121.713 L162.073 121.713 L162.073 144.236 L167.004 144.236 L167.004 148.125 L162.073 148.125 L162.073 156.273 L157.421 156.273 L157.421 148.125 L141.819 148.125 L141.819 143.611 L156.194 121.713 Z" fill="#000000" fill-rule="evenodd" fill-opacity="1" /><path clip-path="url(#clip3500)" d="M 0 0 M182.073 124.792 Q178.462 124.792 176.633 128.356 Q174.828 131.898 174.828 139.028 Q174.828 146.134 176.633 149.699 Q178.462 153.241 182.073 153.241 Q185.707 153.241 187.513 149.699 Q189.342 146.134 189.342 139.028 Q189.342 131.898 187.513 128.356 Q185.707 124.792 182.073 124.792 M182.073 121.088 Q187.883 121.088 190.939 125.694 Q194.018 130.278 194.018 139.028 Q194.018 147.754 190.939 152.361 Q187.883 156.944 182.073 156.944 Q176.263 156.944 173.184 152.361 Q170.129 147.754 170.129 139.028 Q170.129 130.278 173.184 125.694 Q176.263 121.088 182.073 121.088 Z" fill="#000000" fill-rule="evenodd" fill-opacity="1" /><path clip-path="url(#clip3500)" d="M 0 0 M969.457 14.0809 L969.457 22.0612 Q964.798 19.8332 960.666 18.7395 Q956.534 17.6457 952.686 17.6457 Q946.002 17.6457 942.356 20.2383 Q938.751 22.8309 938.751 27.611 Q938.751 31.6214 941.141 33.6873 Q943.571 35.7128 950.296 36.9686 L955.238 37.9813 Q964.393 39.7232 968.728 44.1387 Q973.103 48.5136 973.103 55.8863 Q973.103 64.6767 967.188 69.2137 Q961.314 73.7508 949.931 73.7508 Q945.637 73.7508 940.776 72.7785 Q935.956 71.8063 930.771 69.9024 L930.771 61.4765 Q935.753 64.2716 940.533 65.6895 Q945.313 67.1073 949.931 67.1073 Q956.939 67.1073 960.747 64.3527 Q964.555 61.598 964.555 56.4939 Q964.555 52.0379 961.801 49.5264 Q959.086 47.0148 952.848 45.759 L947.865 44.7868 Q938.71 42.9639 934.619 39.075 Q930.528 35.1862 930.528 28.2591 Q930.528 20.2383 936.158 15.6203 Q941.83 11.0023 951.754 11.0023 Q956.008 11.0023 960.423 11.7719 Q964.839 12.5416 969.457 14.0809 Z" fill="#000000" fill-rule="evenodd" fill-opacity="1" /><path clip-path="url(#clip3500)" d="M 0 0 M980.151 54.671 L980.151 27.2059 L987.605 27.2059 L987.605 54.3874 Q987.605 60.8284 990.116 64.0691 Q992.628 67.2693 997.651 67.2693 Q1003.69 67.2693 1007.17 63.421 Q1010.69 59.5726 1010.69 52.9291 L1010.69 27.2059 L1018.15 27.2059 L1018.15 72.576 L1010.69 72.576 L1010.69 65.6084 Q1007.98 69.7404 1004.38 71.7658 Q1000.81 73.7508 996.071 73.7508 Q988.253 73.7508 984.202 68.8897 Q980.151 64.0286 980.151 54.671 M998.907 26.1121 L998.907 26.1121 Z" fill="#000000" fill-rule="evenodd" fill-opacity="1" /><path clip-path="url(#clip3500)" d="M 0 0 M1061.29 35.9153 Q1064.09 30.8922 1067.97 28.5022 Q1071.86 26.1121 1077.13 26.1121 Q1084.22 26.1121 1088.07 31.0947 Q1091.92 36.0368 1091.92 45.1919 L1091.92 72.576 L1084.42 72.576 L1084.42 45.4349 Q1084.42 38.913 1082.11 35.7533 Q1079.8 32.5936 1075.06 32.5936 Q1069.27 32.5936 1065.91 36.4419 Q1062.55 40.2903 1062.55 46.9338 L1062.55 72.576 L1055.05 72.576 L1055.05 45.4349 Q1055.05 38.8725 1052.74 35.7533 Q1050.43 32.5936 1045.61 32.5936 Q1039.9 32.5936 1036.54 36.4824 Q1033.18 40.3308 1033.18 46.9338 L1033.18 72.576 L1025.68 72.576 L1025.68 27.2059 L1033.18 27.2059 L1033.18 34.2544 Q1035.73 30.082 1039.29 28.0971 Q1042.86 26.1121 1047.76 26.1121 Q1052.7 26.1121 1056.15 28.6237 Q1059.63 31.1352 1061.29 35.9153 Z" fill="#000000" fill-rule="evenodd" fill-opacity="1" /><path clip-path="url(#clip3500)" d="M 0 0 M1095.97 46.5287 L1117.8 46.5287 L1117.8 53.1722 L1095.97 53.1722 L1095.97 46.5287 Z" fill="#000000" fill-rule="evenodd" fill-opacity="1" /><path clip-path="url(#clip3500)" d="M 0 0 M1132.99 14.324 L1132.99 27.2059 L1148.34 27.2059 L1148.34 32.9987 L1132.99 32.9987 L1132.99 57.6282 Q1132.99 63.1779 1134.49 64.7578 Q1136.03 66.3376 1140.69 66.3376 L1148.34 66.3376 L1148.34 72.576 L1140.69 72.576 Q1132.06 72.576 1128.78 69.3758 Q1125.5 66.1351 1125.5 57.6282 L1125.5 32.9987 L1120.03 32.9987 L1120.03 27.2059 L1125.5 27.2059 L1125.5 14.324 L1132.99 14.324 Z" fill="#000000" fill-rule="evenodd" fill-opacity="1" /><path clip-path="url(#clip3500)" d="M 0 0 M1173.74 32.4315 Q1167.75 32.4315 1164.26 37.1306 Q1160.78 41.7891 1160.78 49.9314 Q1160.78 58.0738 1164.22 62.7728 Q1167.71 67.4314 1173.74 67.4314 Q1179.7 67.4314 1183.18 62.7323 Q1186.67 58.0333 1186.67 49.9314 Q1186.67 41.8701 1183.18 37.1711 Q1179.7 32.4315 1173.74 32.4315 M1173.74 26.1121 Q1183.47 26.1121 1189.02 32.4315 Q1194.57 38.7509 1194.57 49.9314 Q1194.57 61.0714 1189.02 67.4314 Q1183.47 73.7508 1173.74 73.7508 Q1163.98 73.7508 1158.43 67.4314 Q1152.92 61.0714 1152.92 49.9314 Q1152.92 38.7509 1158.43 32.4315 Q1163.98 26.1121 1173.74 26.1121 Z" fill="#000000" fill-rule="evenodd" fill-opacity="1" /><path clip-path="url(#clip3500)" d="M 0 0 M1200.16 46.5287 L1221.99 46.5287 L1221.99 53.1722 L1200.16 53.1722 L1200.16 46.5287 Z" fill="#000000" fill-rule="evenodd" fill-opacity="1" /><path clip-path="url(#clip3500)" d="M 0 0 M1226.65 12.096 L1274.17 12.096 L1274.17 18.3344 L1235.93 65.6895 L1275.1 65.6895 L1275.1 72.576 L1225.72 72.576 L1225.72 66.3376 L1263.96 18.9825 L1226.65 18.9825 L1226.65 12.096 Z" fill="#000000" fill-rule="evenodd" fill-opacity="1" /><path clip-path="url(#clip3500)" d="M 0 0 M1321.72 48.0275 L1321.72 51.6733 L1287.45 51.6733 Q1287.94 59.3701 1292.07 63.421 Q1296.24 67.4314 1303.66 67.4314 Q1307.95 67.4314 1311.96 66.3781 Q1316.01 65.3249 1319.98 63.2184 L1319.98 70.267 Q1315.97 71.9684 1311.76 72.8596 Q1307.55 73.7508 1303.21 73.7508 Q1292.35 73.7508 1285.99 67.4314 Q1279.67 61.1119 1279.67 50.3365 Q1279.67 39.1965 1285.67 32.6746 Q1291.71 26.1121 1301.91 26.1121 Q1311.07 26.1121 1316.38 32.0264 Q1321.72 37.9003 1321.72 48.0275 M1314.27 45.84 Q1314.19 39.7232 1310.83 36.0774 Q1307.5 32.4315 1302 32.4315 Q1295.76 32.4315 1291.99 35.9558 Q1288.26 39.4801 1287.7 45.8805 L1314.27 45.84 Z" fill="#000000" fill-rule="evenodd" fill-opacity="1" /><path clip-path="url(#clip3500)" d="M 0 0 M1355.83 34.1734 Q1354.58 33.4443 1353.08 33.1202 Q1351.62 32.7556 1349.84 32.7556 Q1343.52 32.7556 1340.11 36.8875 Q1336.75 40.9789 1336.75 48.6757 L1336.75 72.576 L1329.26 72.576 L1329.26 27.2059 L1336.75 27.2059 L1336.75 34.2544 Q1339.1 30.1225 1342.87 28.1376 Q1346.64 26.1121 1352.02 26.1121 Q1352.79 26.1121 1353.73 26.2337 Q1354.66 26.3147 1355.79 26.5172 L1355.83 34.1734 Z" fill="#000000" fill-rule="evenodd" fill-opacity="1" /><path clip-path="url(#clip3500)" d="M 0 0 M1379.41 32.4315 Q1373.41 32.4315 1369.93 37.1306 Q1366.45 41.7891 1366.45 49.9314 Q1366.45 58.0738 1369.89 62.7728 Q1373.37 67.4314 1379.41 67.4314 Q1385.36 67.4314 1388.85 62.7323 Q1392.33 58.0333 1392.33 49.9314 Q1392.33 41.8701 1388.85 37.1711 Q1385.36 32.4315 1379.41 32.4315 M1379.41 26.1121 Q1389.13 26.1121 1394.68 32.4315 Q1400.23 38.7509 1400.23 49.9314 Q1400.23 61.0714 1394.68 67.4314 Q1389.13 73.7508 1379.41 73.7508 Q1369.65 73.7508 1364.1 67.4314 Q1358.59 61.0714 1358.59 49.9314 Q1358.59 38.7509 1364.1 32.4315 Q1369.65 26.1121 1379.41 26.1121 Z" fill="#000000" fill-rule="evenodd" fill-opacity="1" /><path clip-path="url(#clip3500)" d="M 0 0 M1434.74 12.096 L1442.93 12.096 L1442.93 65.6895 L1472.38 65.6895 L1472.38 72.576 L1434.74 72.576 L1434.74 12.096 Z" fill="#000000" fill-rule="evenodd" fill-opacity="1" /><path clip-path="url(#clip3500)" d="M 0 0 M1500.81 49.7694 Q1491.78 49.7694 1488.3 51.8354 Q1484.81 53.9013 1484.81 58.8839 Q1484.81 62.8538 1487.41 65.2034 Q1490.04 67.5124 1494.53 67.5124 Q1500.73 67.5124 1504.46 63.1374 Q1508.23 58.7219 1508.23 51.4303 L1508.23 49.7694 L1500.81 49.7694 M1515.68 46.6907 L1515.68 72.576 L1508.23 72.576 L1508.23 65.6895 Q1505.67 69.8214 1501.87 71.8063 Q1498.06 73.7508 1492.55 73.7508 Q1485.58 73.7508 1481.45 69.8619 Q1477.36 65.9325 1477.36 59.3701 Q1477.36 51.7138 1482.46 47.825 Q1487.61 43.9361 1497.78 43.9361 L1508.23 43.9361 L1508.23 43.2069 Q1508.23 38.0623 1504.82 35.2672 Q1501.46 32.4315 1495.35 32.4315 Q1491.46 32.4315 1487.77 33.3632 Q1484.08 34.295 1480.68 36.1584 L1480.68 29.2718 Q1484.77 27.692 1488.62 26.9223 Q1492.47 26.1121 1496.11 26.1121 Q1505.96 26.1121 1510.82 31.2163 Q1515.68 36.3204 1515.68 46.6907 Z" fill="#000000" fill-rule="evenodd" fill-opacity="1" /><path clip-path="url(#clip3500)" d="M 0 0 M1552.42 28.5427 L1552.42 35.5912 Q1549.26 33.9709 1545.86 33.1607 Q1542.46 32.3505 1538.81 32.3505 Q1533.26 32.3505 1530.47 34.0519 Q1527.71 35.7533 1527.71 39.156 Q1527.71 41.7486 1529.7 43.2475 Q1531.68 44.7058 1537.68 46.0426 L1540.23 46.6097 Q1548.17 48.3111 1551.49 51.4303 Q1554.85 54.509 1554.85 60.0587 Q1554.85 66.3781 1549.83 70.0644 Q1544.85 73.7508 1536.1 73.7508 Q1532.45 73.7508 1528.48 73.0216 Q1524.55 72.3329 1520.18 70.9151 L1520.18 63.2184 Q1524.31 65.3654 1528.32 66.4591 Q1532.33 67.5124 1536.26 67.5124 Q1541.53 67.5124 1544.36 65.73 Q1547.2 63.9071 1547.2 60.6258 Q1547.2 57.5877 1545.13 55.9673 Q1543.11 54.3469 1536.18 52.8481 L1533.59 52.2405 Q1526.66 50.7821 1523.58 47.7845 Q1520.5 44.7463 1520.5 39.4801 Q1520.5 33.0797 1525.04 29.5959 Q1529.58 26.1121 1537.92 26.1121 Q1542.05 26.1121 1545.7 26.7198 Q1549.34 27.3274 1552.42 28.5427 Z" fill="#000000" fill-rule="evenodd" fill-opacity="1" /><path clip-path="url(#clip3500)" d="M 0 0 M1591.59 28.5427 L1591.59 35.5912 Q1588.43 33.9709 1585.03 33.1607 Q1581.63 32.3505 1577.98 32.3505 Q1572.43 32.3505 1569.64 34.0519 Q1566.88 35.7533 1566.88 39.156 Q1566.88 41.7486 1568.87 43.2475 Q1570.85 44.7058 1576.85 46.0426 L1579.4 46.6097 Q1587.34 48.3111 1590.66 51.4303 Q1594.03 54.509 1594.03 60.0587 Q1594.03 66.3781 1589 70.0644 Q1584.02 73.7508 1575.27 73.7508 Q1571.62 73.7508 1567.65 73.0216 Q1563.72 72.3329 1559.35 70.9151 L1559.35 63.2184 Q1563.48 65.3654 1567.49 66.4591 Q1571.5 67.5124 1575.43 67.5124 Q1580.7 67.5124 1583.53 65.73 Q1586.37 63.9071 1586.37 60.6258 Q1586.37 57.5877 1584.3 55.9673 Q1582.28 54.3469 1575.35 52.8481 L1572.76 52.2405 Q1565.83 50.7821 1562.75 47.7845 Q1559.67 44.7463 1559.67 39.4801 Q1559.67 33.0797 1564.21 29.5959 Q1568.75 26.1121 1577.09 26.1121 Q1581.22 26.1121 1584.87 26.7198 Q1588.52 27.3274 1591.59 28.5427 Z" fill="#000000" fill-rule="evenodd" fill-opacity="1" /><path clip-path="url(#clip3500)" d="M 0 0 M1619.42 32.4315 Q1613.43 32.4315 1609.95 37.1306 Q1606.46 41.7891 1606.46 49.9314 Q1606.46 58.0738 1609.9 62.7728 Q1613.39 67.4314 1619.42 67.4314 Q1625.38 67.4314 1628.86 62.7323 Q1632.35 58.0333 1632.35 49.9314 Q1632.35 41.8701 1628.86 37.1711 Q1625.38 32.4315 1619.42 32.4315 M1619.42 26.1121 Q1629.15 26.1121 1634.7 32.4315 Q1640.25 38.7509 1640.25 49.9314 Q1640.25 61.0714 1634.7 67.4314 Q1629.15 73.7508 1619.42 73.7508 Q1609.66 73.7508 1604.11 67.4314 Q1598.6 61.0714 1598.6 49.9314 Q1598.6 38.7509 1604.11 32.4315 Q1609.66 26.1121 1619.42 26.1121 Z" fill="#000000" fill-rule="evenodd" fill-opacity="1" /><path clip-path="url(#clip3500)" d="M 0 0 M1298.97 1561.08 Q1298.97 1561.69 1298.26 1561.75 L1296.81 1561.75 Q1295.33 1561.75 1294.69 1561.53 Q1294.04 1561.3 1293.3 1560.27 Q1292.85 1559.63 1291.72 1556.63 Q1290.63 1553.61 1289.02 1549.03 Q1287.44 1544.46 1286.38 1541.75 L1270.5 1560.5 Q1269.41 1561.88 1268.31 1561.88 Q1267.51 1561.88 1266.93 1561.34 Q1266.35 1560.79 1266.35 1559.95 Q1266.35 1559.34 1266.57 1558.98 Q1266.83 1558.63 1267.51 1557.92 L1285.73 1539.85 L1279.32 1521.92 Q1278.1 1518.6 1277.39 1517.76 Q1276.72 1516.92 1275.04 1516.63 Q1274.43 1516.47 1274.43 1515.96 Q1274.43 1515.25 1275.62 1515.25 Q1282 1515.25 1283.67 1519.92 L1297.13 1557.44 Q1297.88 1559.6 1298.65 1560.5 Q1298.97 1560.92 1298.97 1561.08 Z" fill="#000000" fill-rule="evenodd" fill-opacity="1" /><path clip-path="url(#clip3500)" d="M 0 0 M35.11 728.054 L36.0343 728.618 Q34.5239 732.112 32.1117 736.463 Q34.5239 740.814 36.0343 744.308 L35.11 744.85 Q31.796 741.04 29.2486 736.463 Q31.8186 731.842 35.11 728.054 Z" fill="#000000" fill-rule="evenodd" fill-opacity="1" /><path clip-path="url(#clip3500)" d="M 0 0 M51.4795 763.632 Q52.3169 763.632 53.9271 763.986 Q58.4682 765.114 61.5921 769.333 Q62.1718 770.041 62.9126 771.297 Q63.911 769.783 65.7467 768.463 Q68.774 766.498 72.8642 766.498 Q74.7643 766.498 77.0832 767.014 Q82.4615 768.463 86.3262 773.552 Q90.0943 778.672 90.0943 784.759 Q90.0943 788.044 88.3552 790.299 Q86.5839 792.521 83.621 793.39 L101.688 797.867 Q102.139 797.964 102.139 798.543 L102.139 798.865 Q102.139 799.542 101.366 799.542 L60.787 789.365 Q58.0495 788.688 55.473 787.593 Q52.8966 786.498 50.5777 784.985 Q48.2589 783.439 46.552 781.667 Q44.8129 779.896 43.8145 777.706 Q42.7839 775.516 42.7839 773.197 Q42.7839 768.334 46.1011 765.565 Q48.4522 763.632 51.4795 763.632 M50.3201 767.336 Q48.3233 767.336 46.9385 768.141 Q44.2976 769.783 44.2976 773.262 Q44.2976 775.355 45.2638 777.352 Q46.1977 779.316 47.808 780.895 Q49.4183 782.473 51.6083 783.825 Q53.7983 785.178 56.1816 786.176 Q58.5326 787.142 61.1091 787.787 L77.0832 791.748 Q78.7901 792.134 80.3037 792.134 Q83.9108 792.134 86.2618 790.138 Q88.6129 788.141 88.6129 784.695 Q88.6129 780.122 85.199 776.192 Q82.1395 772.779 76.7611 771.362 Q73.3795 770.556 71.0285 770.556 Q68.452 770.556 66.4552 771.49 Q64.8449 772.167 63.8788 773.487 Q64.7483 775.935 64.7483 778.415 Q64.7483 779.606 64.7161 780.25 Q64.6839 780.862 64.5551 781.764 Q64.4263 782.634 64.072 783.052 Q63.7177 783.439 63.1702 783.439 Q62.8482 783.439 62.7193 783.374 Q62.2041 783.246 61.8498 782.827 Q61.4955 782.408 61.3345 781.925 Q61.1413 781.442 61.0446 780.637 Q60.948 779.8 60.948 779.252 Q60.9158 778.705 60.9158 777.771 Q60.9158 775.581 61.7854 773.358 Q61.3345 772.521 60.5293 771.619 Q57.8563 768.753 53.6051 767.787 Q52.027 767.336 50.3201 767.336 M62.7838 775.452 Q62.4295 776.804 62.4295 777.835 Q62.4295 781.603 63.0414 781.796 Q63.1058 781.796 63.1702 781.667 Q63.2024 781.539 63.2346 781.249 Q63.2346 780.927 63.2668 780.669 Q63.2991 780.379 63.2991 779.896 Q63.2991 779.413 63.2991 779.155 Q63.2991 778.866 63.2991 778.35 Q63.2991 777.062 62.7838 775.452 Z" fill="#000000" fill-rule="evenodd" fill-opacity="1" /><polyline clip-path="url(#clip3502)" style="stroke:#009af9; stroke-width:4; stroke-opacity:1; fill:none" points="
  278.435,508.323 335.975,585.436 393.515,630.601 451.055,673.855 508.595,705.649 566.135,735.273 623.675,756.018 681.216,773.002 738.756,790.545 796.296,808.451 
  853.836,828.093 911.376,850.182 968.916,871.671 1026.46,884.123 1084,884.123 1141.54,884.123 1199.08,884.123 1256.62,884.123 1314.16,884.123 1371.7,884.123 
  1429.24,884.123 1486.78,884.123 1544.32,884.123 1601.86,884.123 1659.4,884.123 1716.94,884.123 1774.48,884.123 1832.02,884.123 1889.56,884.123 1947.1,884.123 
  2004.64,884.123 2062.18,884.123 2119.72,884.123 2177.26,884.123 2234.8,884.123 2292.34,884.123 
  "/>
<polyline clip-path="url(#clip3502)" style="stroke:#e26f46; stroke-width:4; stroke-opacity:1; fill:none" points="
  278.435,844.656 335.975,884.123 393.515,884.123 451.055,884.123 508.595,884.123 566.135,884.123 623.675,884.123 681.216,884.123 738.756,884.123 796.296,884.123 
  853.836,884.123 911.376,884.123 968.916,884.123 1026.46,884.123 1084,884.123 1141.54,884.123 1199.08,884.123 1256.62,884.123 1314.16,884.123 1371.7,884.123 
  1429.24,884.123 1486.78,884.123 1544.32,884.123 1601.86,884.123 1659.4,884.123 1716.94,884.123 1774.48,884.123 1832.02,884.123 1889.56,884.123 1947.1,884.123 
  2004.64,884.123 2062.18,884.123 2119.72,884.123 2177.26,884.123 2234.8,884.123 2292.34,884.123 
  "/>
<polyline clip-path="url(#clip3502)" style="stroke:#3da44d; stroke-width:4; stroke-opacity:1; fill:none" points="
  278.435,864.779 335.975,876.813 393.515,883.941 451.055,884.123 508.595,884.123 566.135,884.123 623.675,884.123 681.216,884.123 738.756,884.123 796.296,884.123 
  853.836,884.123 911.376,884.123 968.916,884.123 1026.46,884.123 1084,884.123 1141.54,884.123 1199.08,884.123 1256.62,884.123 1314.16,884.123 1371.7,884.123 
  1429.24,884.123 1486.78,884.123 1544.32,884.123 1601.86,884.123 1659.4,884.123 1716.94,884.123 1774.48,884.123 1832.02,884.123 1889.56,884.123 1947.1,884.123 
  2004.64,884.123 2062.18,884.123 2119.72,884.123 2177.26,884.123 2234.8,884.123 2292.34,884.123 
  "/>
<polyline clip-path="url(#clip3502)" style="stroke:#c271d2; stroke-width:4; stroke-opacity:1; fill:none" points="
  278.435,1264.84 335.975,1256.64 393.515,1246.27 451.055,1254.06 508.595,1241.33 566.135,1222 623.675,1201.81 681.216,1183.37 738.756,1169.91 796.296,1159.23 
  853.836,1149.5 911.376,1140.19 968.916,1128.45 1026.46,1115.95 1084,1105.4 1141.54,1097.97 1199.08,1089.89 1256.62,1082.34 1314.16,1076.12 1371.7,1066.33 
  1429.24,1055.63 1486.78,1044.94 1544.32,1034.19 1601.86,1017.69 1659.4,1001.19 1716.94,984.682 1774.48,968.177 1832.02,955.383 1889.56,943.48 1947.1,931.58 
  2004.64,919.676 2062.18,907.774 2119.72,895.87 2177.26,884.125 2234.8,884.123 2292.34,884.123 
  "/>
<polyline clip-path="url(#clip3502)" style="stroke:#ac8d18; stroke-width:4; stroke-opacity:1; fill:none" points="
  278.435,1402.77 335.975,1296.13 393.515,1238.42 451.055,1192.76 508.595,1145.49 566.135,1100.89 623.675,1075.9 681.216,1059.61 738.756,1044.01 796.296,1029.52 
  853.836,1017.05 911.376,1004.88 968.916,991.355 1026.46,979.657 1084,969.888 1141.54,961.861 1199.08,951.394 1256.62,941.206 1314.16,932.466 1371.7,921 
  1429.24,908.664 1486.78,896.333 1544.32,884.131 1601.86,884.123 1659.4,884.123 1716.94,884.123 1774.48,884.123 1832.02,884.123 1889.56,884.123 1947.1,884.123 
  2004.64,884.123 2062.18,884.123 2119.72,884.123 2177.26,884.123 2234.8,884.123 2292.34,884.123 
  "/>
<polyline clip-path="url(#clip3502)" style="stroke:#00a9ad; stroke-width:4; stroke-opacity:1; fill:none" points="
  278.435,424.377 335.975,462.228 393.515,498.862 451.055,538.613 508.595,568.833 566.135,601.265 623.675,630.842 681.216,659.481 738.756,684.969 796.296,711.113 
  853.836,738.397 911.376,765.77 968.916,793.193 1026.46,818.169 1084,838.33 1141.54,858.087 1199.08,874.245 1256.62,884.123 1314.16,884.123 1371.7,884.123 
  1429.24,884.123 1486.78,884.123 1544.32,884.123 1601.86,884.123 1659.4,884.123 1716.94,884.123 1774.48,884.123 1832.02,884.123 1889.56,884.123 1947.1,884.123 
  2004.64,884.123 2062.18,884.123 2119.72,884.123 2177.26,884.123 2234.8,884.123 2292.34,884.123 
  "/>
<polyline clip-path="url(#clip3502)" style="stroke:#ed5d92; stroke-width:4; stroke-opacity:1; fill:none" points="
  278.435,1040.12 335.975,1014.44 393.515,1009.68 451.055,1004.82 508.595,997.045 566.135,986.813 623.675,981.585 681.216,970.161 738.756,956.595 796.296,940.682 
  853.836,924.819 911.376,909.713 968.916,892.258 1026.46,884.123 1084,884.123 1141.54,884.123 1199.08,884.123 1256.62,884.123 1314.16,884.123 1371.7,884.123 
  1429.24,884.123 1486.78,884.123 1544.32,884.123 1601.86,884.123 1659.4,884.123 1716.94,884.123 1774.48,884.123 1832.02,884.123 1889.56,884.123 1947.1,884.123 
  2004.64,884.123 2062.18,884.123 2119.72,884.123 2177.26,884.123 2234.8,884.123 2292.34,884.123 
  "/>
<polyline clip-path="url(#clip3502)" style="stroke:#c68125; stroke-width:4; stroke-opacity:1; fill:none" points="
  278.435,950.5 335.975,977.519 393.515,989.118 451.055,985.66 508.595,972.065 566.135,948.781 623.675,932.486 681.216,922.767 738.756,915.813 796.296,910.484 
  853.836,905.446 911.376,898.34 968.916,892.383 1026.46,884.123 1084,884.123 1141.54,884.123 1199.08,884.123 1256.62,884.123 1314.16,884.123 1371.7,884.123 
  1429.24,884.123 1486.78,884.123 1544.32,884.123 1601.86,884.123 1659.4,884.123 1716.94,884.123 1774.48,884.123 1832.02,884.123 1889.56,884.123 1947.1,884.123 
  2004.64,884.123 2062.18,884.123 2119.72,884.123 2177.26,884.123 2234.8,884.123 2292.34,884.123 
  "/>
<polyline clip-path="url(#clip3502)" style="stroke:#00a98d; stroke-width:4; stroke-opacity:1; fill:none" points="
  278.435,1066.12 335.975,1001.51 393.515,941.976 451.055,911.096 508.595,895.592 566.135,888.991 623.675,884.123 681.216,884.123 738.756,884.123 796.296,884.123 
  853.836,884.123 911.376,884.123 968.916,884.123 1026.46,884.123 1084,884.123 1141.54,884.123 1199.08,884.123 1256.62,884.123 1314.16,884.123 1371.7,884.123 
  1429.24,884.123 1486.78,884.123 1544.32,884.123 1601.86,884.123 1659.4,884.123 1716.94,884.123 1774.48,884.123 1832.02,884.123 1889.56,884.123 1947.1,884.123 
  2004.64,884.123 2062.18,884.123 2119.72,884.123 2177.26,884.123 2234.8,884.123 2292.34,884.123 
  "/>
<polyline clip-path="url(#clip3502)" style="stroke:#8e971d; stroke-width:4; stroke-opacity:1; fill:none" points="
  278.435,979.181 335.975,954.617 393.515,946.338 451.055,941.728 508.595,946.314 566.135,953.233 623.675,954.505 681.216,950.851 738.756,944.714 796.296,940.086 
  853.836,934.908 911.376,929.179 968.916,921.535 1026.46,911.329 1084,899.905 1141.54,887.862 1199.08,884.123 1256.62,884.123 1314.16,884.123 1371.7,884.123 
  1429.24,884.123 1486.78,884.123 1544.32,884.123 1601.86,884.123 1659.4,884.123 1716.94,884.123 1774.48,884.123 1832.02,884.123 1889.56,884.123 1947.1,884.123 
  2004.64,884.123 2062.18,884.123 2119.72,884.123 2177.26,884.123 2234.8,884.123 2292.34,884.123 
  "/>
<polyline clip-path="url(#clip3502)" style="stroke:#00a8cb; stroke-width:4; stroke-opacity:1; fill:none" points="
  278.435,377.24 335.975,441.164 393.515,487.551 451.055,535.07 508.595,562.624 566.135,574.752 623.675,591.857 681.216,605.714 738.756,621.81 796.296,638.854 
  853.836,655.961 911.376,671.439 968.916,686.394 1026.46,702.537 1084,722.617 1141.54,742.107 1199.08,758.513 1256.62,774.438 1314.16,790.868 1371.7,804.558 
  1429.24,817.787 1486.78,831.009 1544.32,844.192 1601.86,853.716 1659.4,863.236 1716.94,872.757 1774.48,882.278 1832.02,884.123 1889.56,884.123 1947.1,884.123 
  2004.64,884.123 2062.18,884.123 2119.72,884.123 2177.26,884.123 2234.8,884.123 2292.34,884.123 
  "/>
<polyline clip-path="url(#clip3502)" style="stroke:#9b7fe8; stroke-width:4; stroke-opacity:1; fill:none" points="
  278.435,694.445 335.975,748.141 393.515,791.5 451.055,839.373 508.595,880.002 566.135,884.123 623.675,884.123 681.216,884.123 738.756,884.123 796.296,884.123 
  853.836,884.123 911.376,884.123 968.916,884.123 1026.46,884.123 1084,884.123 1141.54,884.123 1199.08,884.123 1256.62,884.123 1314.16,884.123 1371.7,884.123 
  1429.24,884.123 1486.78,884.123 1544.32,884.123 1601.86,884.123 1659.4,884.123 1716.94,884.123 1774.48,884.123 1832.02,884.123 1889.56,884.123 1947.1,884.123 
  2004.64,884.123 2062.18,884.123 2119.72,884.123 2177.26,884.123 2234.8,884.123 2292.34,884.123 
  "/>
<polyline clip-path="url(#clip3502)" style="stroke:#608cf6; stroke-width:4; stroke-opacity:1; fill:none" points="
  278.435,757.689 335.975,799.065 393.515,820.65 451.055,834.223 508.595,847 566.135,860.718 623.675,865.752 681.216,870.045 738.756,882.293 796.296,884.123 
  853.836,884.123 911.376,884.123 968.916,884.123 1026.46,884.123 1084,884.123 1141.54,884.123 1199.08,884.123 1256.62,884.123 1314.16,884.123 1371.7,884.123 
  1429.24,884.123 1486.78,884.123 1544.32,884.123 1601.86,884.123 1659.4,884.123 1716.94,884.123 1774.48,884.123 1832.02,884.123 1889.56,884.123 1947.1,884.123 
  2004.64,884.123 2062.18,884.123 2119.72,884.123 2177.26,884.123 2234.8,884.123 2292.34,884.123 
  "/>
<polyline clip-path="url(#clip3502)" style="stroke:#f05f73; stroke-width:4; stroke-opacity:1; fill:none" points="
  278.435,736.323 335.975,755.401 393.515,796.937 451.055,842.312 508.595,879.749 566.135,884.123 623.675,884.123 681.216,884.123 738.756,884.123 796.296,884.123 
  853.836,884.123 911.376,884.123 968.916,884.123 1026.46,884.123 1084,884.123 1141.54,884.123 1199.08,884.123 1256.62,884.123 1314.16,884.123 1371.7,884.123 
  1429.24,884.123 1486.78,884.123 1544.32,884.123 1601.86,884.123 1659.4,884.123 1716.94,884.123 1774.48,884.123 1832.02,884.123 1889.56,884.123 1947.1,884.123 
  2004.64,884.123 2062.18,884.123 2119.72,884.123 2177.26,884.123 2234.8,884.123 2292.34,884.123 
  "/>
<polyline clip-path="url(#clip3502)" style="stroke:#dd64b5; stroke-width:4; stroke-opacity:1; fill:none" points="
  278.435,834.104 335.975,842.516 393.515,827.24 451.055,813.861 508.595,824.959 566.135,848.497 623.675,863.927 681.216,880.321 738.756,884.123 796.296,884.123 
  853.836,884.123 911.376,884.123 968.916,884.123 1026.46,884.123 1084,884.123 1141.54,884.123 1199.08,884.123 1256.62,884.123 1314.16,884.123 1371.7,884.123 
  1429.24,884.123 1486.78,884.123 1544.32,884.123 1601.86,884.123 1659.4,884.123 1716.94,884.123 1774.48,884.123 1832.02,884.123 1889.56,884.123 1947.1,884.123 
  2004.64,884.123 2062.18,884.123 2119.72,884.123 2177.26,884.123 2234.8,884.123 2292.34,884.123 
  "/>
<polyline clip-path="url(#clip3502)" style="stroke:#6b9e32; stroke-width:4; stroke-opacity:1; fill:none" points="
  278.435,160.733 335.975,249.187 393.515,310.348 451.055,387.831 508.595,467.833 566.135,546.865 623.675,613.311 681.216,658.692 738.756,695.383 796.296,734.388 
  853.836,772.918 911.376,811.753 968.916,845.84 1026.46,870.742 1084,884.123 1141.54,884.123 1199.08,884.123 1256.62,884.123 1314.16,884.123 1371.7,884.123 
  1429.24,884.123 1486.78,884.123 1544.32,884.123 1601.86,884.123 1659.4,884.123 1716.94,884.123 1774.48,884.123 1832.02,884.123 1889.56,884.123 1947.1,884.123 
  2004.64,884.123 2062.18,884.123 2119.72,884.123 2177.26,884.123 2234.8,884.123 2292.34,884.123 
  "/>
<polyline clip-path="url(#clip3502)" style="stroke:#009af9; stroke-width:4; stroke-opacity:1; fill:none" points="
  278.435,717.831 335.975,800.238 393.515,867.87 451.055,884.123 508.595,884.123 566.135,884.123 623.675,884.123 681.216,884.123 738.756,884.123 796.296,884.123 
  853.836,884.123 911.376,884.123 968.916,884.123 1026.46,884.123 1084,884.123 1141.54,884.123 1199.08,884.123 1256.62,884.123 1314.16,884.123 1371.7,884.123 
  1429.24,884.123 1486.78,884.123 1544.32,884.123 1601.86,884.123 1659.4,884.123 1716.94,884.123 1774.48,884.123 1832.02,884.123 1889.56,884.123 1947.1,884.123 
  2004.64,884.123 2062.18,884.123 2119.72,884.123 2177.26,884.123 2234.8,884.123 2292.34,884.123 
  "/>
<polyline clip-path="url(#clip3502)" style="stroke:#e26f46; stroke-width:4; stroke-opacity:1; fill:none" points="
  278.435,1011.3 335.975,990.76 393.515,976.307 451.055,965.266 508.595,966.145 566.135,976.095 623.675,973.028 681.216,965.665 738.756,960.182 796.296,954.593 
  853.836,949.448 911.376,942.877 968.916,935.349 1026.46,927.716 1084,920.048 1141.54,913.439 1199.08,902.398 1256.62,891.49 1314.16,884.129 1371.7,884.123 
  1429.24,884.123 1486.78,884.123 1544.32,884.123 1601.86,884.123 1659.4,884.123 1716.94,884.123 1774.48,884.123 1832.02,884.123 1889.56,884.123 1947.1,884.123 
  2004.64,884.123 2062.18,884.123 2119.72,884.123 2177.26,884.123 2234.8,884.123 2292.34,884.123 
  "/>
<polyline clip-path="url(#clip3502)" style="stroke:#3da44d; stroke-width:4; stroke-opacity:1; fill:none" points="
  278.435,1329.22 335.975,1264.1 393.515,1229.24 451.055,1182.8 508.595,1128.72 566.135,1075.41 623.675,1035.85 681.216,1004.13 738.756,976.624 796.296,950 
  853.836,924.546 911.376,900.621 968.916,884.123 1026.46,884.123 1084,884.123 1141.54,884.123 1199.08,884.123 1256.62,884.123 1314.16,884.123 1371.7,884.123 
  1429.24,884.123 1486.78,884.123 1544.32,884.123 1601.86,884.123 1659.4,884.123 1716.94,884.123 1774.48,884.123 1832.02,884.123 1889.56,884.123 1947.1,884.123 
  2004.64,884.123 2062.18,884.123 2119.72,884.123 2177.26,884.123 2234.8,884.123 2292.34,884.123 
  "/>
<polyline clip-path="url(#clip3502)" style="stroke:#c271d2; stroke-width:4; stroke-opacity:1; fill:none" points="
  278.435,785.965 335.975,838.857 393.515,878.861 451.055,884.123 508.595,884.123 566.135,884.123 623.675,884.123 681.216,884.123 738.756,884.123 796.296,884.123 
  853.836,884.123 911.376,884.123 968.916,884.123 1026.46,884.123 1084,884.123 1141.54,884.123 1199.08,884.123 1256.62,884.123 1314.16,884.123 1371.7,884.123 
  1429.24,884.123 1486.78,884.123 1544.32,884.123 1601.86,884.123 1659.4,884.123 1716.94,884.123 1774.48,884.123 1832.02,884.123 1889.56,884.123 1947.1,884.123 
  2004.64,884.123 2062.18,884.123 2119.72,884.123 2177.26,884.123 2234.8,884.123 2292.34,884.123 
  "/>
<polyline clip-path="url(#clip3502)" style="stroke:#ac8d18; stroke-width:4; stroke-opacity:1; fill:none" points="
  278.435,1221.64 335.975,1140.74 393.515,1062.78 451.055,1000.17 508.595,962.069 566.135,929.067 623.675,894.062 681.216,884.123 738.756,884.123 796.296,884.123 
  853.836,884.123 911.376,884.123 968.916,884.123 1026.46,884.123 1084,884.123 1141.54,884.123 1199.08,884.123 1256.62,884.123 1314.16,884.123 1371.7,884.123 
  1429.24,884.123 1486.78,884.123 1544.32,884.123 1601.86,884.123 1659.4,884.123 1716.94,884.123 1774.48,884.123 1832.02,884.123 1889.56,884.123 1947.1,884.123 
  2004.64,884.123 2062.18,884.123 2119.72,884.123 2177.26,884.123 2234.8,884.123 2292.34,884.123 
  "/>
<polyline clip-path="url(#clip3502)" style="stroke:#00a9ad; stroke-width:4; stroke-opacity:1; fill:none" points="
  278.435,798.996 335.975,870.256 393.515,884.123 451.055,884.123 508.595,884.123 566.135,884.123 623.675,884.123 681.216,884.123 738.756,884.123 796.296,884.123 
  853.836,884.123 911.376,884.123 968.916,884.123 1026.46,884.123 1084,884.123 1141.54,884.123 1199.08,884.123 1256.62,884.123 1314.16,884.123 1371.7,884.123 
  1429.24,884.123 1486.78,884.123 1544.32,884.123 1601.86,884.123 1659.4,884.123 1716.94,884.123 1774.48,884.123 1832.02,884.123 1889.56,884.123 1947.1,884.123 
  2004.64,884.123 2062.18,884.123 2119.72,884.123 2177.26,884.123 2234.8,884.123 2292.34,884.123 
  "/>
<polyline clip-path="url(#clip3502)" style="stroke:#ed5d92; stroke-width:4; stroke-opacity:1; fill:none" points="
  278.435,1023.72 335.975,990.884 393.515,975.06 451.055,959.816 508.595,942.627 566.135,921.343 623.675,909.661 681.216,903.513 738.756,899.85 796.296,894.556 
  853.836,888.239 911.376,884.123 968.916,884.123 1026.46,884.123 1084,884.123 1141.54,884.123 1199.08,884.123 1256.62,884.123 1314.16,884.123 1371.7,884.123 
  1429.24,884.123 1486.78,884.123 1544.32,884.123 1601.86,884.123 1659.4,884.123 1716.94,884.123 1774.48,884.123 1832.02,884.123 1889.56,884.123 1947.1,884.123 
  2004.64,884.123 2062.18,884.123 2119.72,884.123 2177.26,884.123 2234.8,884.123 2292.34,884.123 
  "/>
<polyline clip-path="url(#clip3502)" style="stroke:#c68125; stroke-width:4; stroke-opacity:1; fill:none" points="
  278.435,743.117 335.975,702.626 393.515,661.635 451.055,628.958 508.595,601.92 566.135,584.173 623.675,577.652 681.216,583.172 738.756,596.726 796.296,613.667 
  853.836,632.038 911.376,650.286 968.916,668.099 1026.46,681.438 1084,691.613 1141.54,701.898 1199.08,711.355 1256.62,721.742 1314.16,734.321 1371.7,744.607 
  1429.24,754.41 1486.78,764.208 1544.32,773.977 1601.86,780.963 1659.4,787.946 1716.94,794.93 1774.48,801.914 1832.02,812.863 1889.56,824.766 1947.1,836.666 
  2004.64,848.57 2062.18,860.472 2119.72,872.376 2177.26,884.122 2234.8,884.123 2292.34,884.123 
  "/>
<polyline clip-path="url(#clip3502)" style="stroke:#00a98d; stroke-width:4; stroke-opacity:1; fill:none" points="
  278.435,893.455 335.975,897.287 393.515,884.135 451.055,884.123 508.595,886.02 566.135,898.916 623.675,907.399 681.216,910.476 738.756,910.753 796.296,911.476 
  853.836,912.283 911.376,915.96 968.916,920.046 1026.46,919.11 1084,914.134 1141.54,908.458 1199.08,901.065 1256.62,893.526 1314.16,886.838 1371.7,884.123 
  1429.24,884.123 1486.78,884.123 1544.32,884.123 1601.86,884.123 1659.4,884.123 1716.94,884.123 1774.48,884.123 1832.02,884.123 1889.56,884.123 1947.1,884.123 
  2004.64,884.123 2062.18,884.123 2119.72,884.123 2177.26,884.123 2234.8,884.123 2292.34,884.123 
  "/>
<polyline clip-path="url(#clip3502)" style="stroke:#8e971d; stroke-width:4; stroke-opacity:1; fill:none" points="
  278.435,1140.13 335.975,1073.27 393.515,1043.58 451.055,1023.71 508.595,1005.42 566.135,983.53 623.675,957.369 681.216,936.504 738.756,920.594 796.296,904.611 
  853.836,889.62 911.376,884.123 968.916,884.123 1026.46,884.123 1084,884.123 1141.54,884.123 1199.08,884.123 1256.62,884.123 1314.16,884.123 1371.7,884.123 
  1429.24,884.123 1486.78,884.123 1544.32,884.123 1601.86,884.123 1659.4,884.123 1716.94,884.123 1774.48,884.123 1832.02,884.123 1889.56,884.123 1947.1,884.123 
  2004.64,884.123 2062.18,884.123 2119.72,884.123 2177.26,884.123 2234.8,884.123 2292.34,884.123 
  "/>
<polyline clip-path="url(#clip3502)" style="stroke:#00a8cb; stroke-width:4; stroke-opacity:1; fill:none" points="
  278.435,1056.65 335.975,997.387 393.515,958.028 451.055,939.174 508.595,923.524 566.135,911.44 623.675,904.361 681.216,892.521 738.756,884.123 796.296,884.123 
  853.836,884.123 911.376,884.123 968.916,884.123 1026.46,884.123 1084,884.123 1141.54,884.123 1199.08,884.123 1256.62,884.123 1314.16,884.123 1371.7,884.123 
  1429.24,884.123 1486.78,884.123 1544.32,884.123 1601.86,884.123 1659.4,884.123 1716.94,884.123 1774.48,884.123 1832.02,884.123 1889.56,884.123 1947.1,884.123 
  2004.64,884.123 2062.18,884.123 2119.72,884.123 2177.26,884.123 2234.8,884.123 2292.34,884.123 
  "/>
<polyline clip-path="url(#clip3502)" style="stroke:#9b7fe8; stroke-width:4; stroke-opacity:1; fill:none" points="
  278.435,825.549 335.975,848.368 393.515,862.394 451.055,883.869 508.595,884.123 566.135,884.123 623.675,884.123 681.216,884.123 738.756,884.123 796.296,884.123 
  853.836,884.123 911.376,884.123 968.916,884.123 1026.46,884.123 1084,884.123 1141.54,884.123 1199.08,884.123 1256.62,884.123 1314.16,884.123 1371.7,884.123 
  1429.24,884.123 1486.78,884.123 1544.32,884.123 1601.86,884.123 1659.4,884.123 1716.94,884.123 1774.48,884.123 1832.02,884.123 1889.56,884.123 1947.1,884.123 
  2004.64,884.123 2062.18,884.123 2119.72,884.123 2177.26,884.123 2234.8,884.123 2292.34,884.123 
  "/>
<polyline clip-path="url(#clip3502)" style="stroke:#608cf6; stroke-width:4; stroke-opacity:1; fill:none" points="
  278.435,536.045 335.975,594.966 393.515,649.207 451.055,708.209 508.595,761.831 566.135,813.512 623.675,856.935 681.216,884.123 738.756,884.123 796.296,884.123 
  853.836,884.123 911.376,884.123 968.916,884.123 1026.46,884.123 1084,884.123 1141.54,884.123 1199.08,884.123 1256.62,884.123 1314.16,884.123 1371.7,884.123 
  1429.24,884.123 1486.78,884.123 1544.32,884.123 1601.86,884.123 1659.4,884.123 1716.94,884.123 1774.48,884.123 1832.02,884.123 1889.56,884.123 1947.1,884.123 
  2004.64,884.123 2062.18,884.123 2119.72,884.123 2177.26,884.123 2234.8,884.123 2292.34,884.123 
  "/>
<polyline clip-path="url(#clip3502)" style="stroke:#f05f73; stroke-width:4; stroke-opacity:1; fill:none" points="
  278.435,667.054 335.975,775.223 393.515,847.763 451.055,884.123 508.595,884.123 566.135,884.123 623.675,884.123 681.216,884.123 738.756,884.123 796.296,884.123 
  853.836,884.123 911.376,884.123 968.916,884.123 1026.46,884.123 1084,884.123 1141.54,884.123 1199.08,884.123 1256.62,884.123 1314.16,884.123 1371.7,884.123 
  1429.24,884.123 1486.78,884.123 1544.32,884.123 1601.86,884.123 1659.4,884.123 1716.94,884.123 1774.48,884.123 1832.02,884.123 1889.56,884.123 1947.1,884.123 
  2004.64,884.123 2062.18,884.123 2119.72,884.123 2177.26,884.123 2234.8,884.123 2292.34,884.123 
  "/>
<polyline clip-path="url(#clip3502)" style="stroke:#dd64b5; stroke-width:4; stroke-opacity:1; fill:none" points="
  278.435,691.247 335.975,733.279 393.515,773.271 451.055,792.665 508.595,805.893 566.135,816.225 623.675,827.487 681.216,840.694 738.756,856.24 796.296,871.319 
  853.836,884.123 911.376,884.123 968.916,884.123 1026.46,884.123 1084,884.123 1141.54,884.123 1199.08,884.123 1256.62,884.123 1314.16,884.123 1371.7,884.123 
  1429.24,884.123 1486.78,884.123 1544.32,884.123 1601.86,884.123 1659.4,884.123 1716.94,884.123 1774.48,884.123 1832.02,884.123 1889.56,884.123 1947.1,884.123 
  2004.64,884.123 2062.18,884.123 2119.72,884.123 2177.26,884.123 2234.8,884.123 2292.34,884.123 
  "/>
<polyline clip-path="url(#clip3502)" style="stroke:#6b9e32; stroke-width:4; stroke-opacity:1; fill:none" points="
  278.435,652.673 335.975,680.377 393.515,722.278 451.055,761.869 508.595,788.465 566.135,825.59 623.675,857.62 681.216,881.659 738.756,884.123 796.296,884.123 
  853.836,884.123 911.376,884.123 968.916,884.123 1026.46,884.123 1084,884.123 1141.54,884.123 1199.08,884.123 1256.62,884.123 1314.16,884.123 1371.7,884.123 
  1429.24,884.123 1486.78,884.123 1544.32,884.123 1601.86,884.123 1659.4,884.123 1716.94,884.123 1774.48,884.123 1832.02,884.123 1889.56,884.123 1947.1,884.123 
  2004.64,884.123 2062.18,884.123 2119.72,884.123 2177.26,884.123 2234.8,884.123 2292.34,884.123 
  "/>
<polyline clip-path="url(#clip3502)" style="stroke:#009af9; stroke-width:4; stroke-opacity:1; fill:none" points="
  278.435,757.108 335.975,774.244 393.515,797.715 451.055,822.554 508.595,840.785 566.135,857.458 623.675,881.314 681.216,884.123 738.756,884.123 796.296,884.123 
  853.836,884.123 911.376,884.123 968.916,884.123 1026.46,884.123 1084,884.123 1141.54,884.123 1199.08,884.123 1256.62,884.123 1314.16,884.123 1371.7,884.123 
  1429.24,884.123 1486.78,884.123 1544.32,884.123 1601.86,884.123 1659.4,884.123 1716.94,884.123 1774.48,884.123 1832.02,884.123 1889.56,884.123 1947.1,884.123 
  2004.64,884.123 2062.18,884.123 2119.72,884.123 2177.26,884.123 2234.8,884.123 2292.34,884.123 
  "/>
<polyline clip-path="url(#clip3502)" style="stroke:#e26f46; stroke-width:4; stroke-opacity:1; fill:none" points="
  278.435,705.477 335.975,739.008 393.515,771.889 451.055,803.936 508.595,837.294 566.135,876.249 623.675,884.123 681.216,884.123 738.756,884.123 796.296,884.123 
  853.836,884.123 911.376,884.123 968.916,884.123 1026.46,884.123 1084,884.123 1141.54,884.123 1199.08,884.123 1256.62,884.123 1314.16,884.123 1371.7,884.123 
  1429.24,884.123 1486.78,884.123 1544.32,884.123 1601.86,884.123 1659.4,884.123 1716.94,884.123 1774.48,884.123 1832.02,884.123 1889.56,884.123 1947.1,884.123 
  2004.64,884.123 2062.18,884.123 2119.72,884.123 2177.26,884.123 2234.8,884.123 2292.34,884.123 
  "/>
<polyline clip-path="url(#clip3502)" style="stroke:#3da44d; stroke-width:4; stroke-opacity:1; fill:none" points="
  278.435,1044.94 335.975,1006.18 393.515,988.164 451.055,961.548 508.595,929.79 566.135,897.092 623.675,884.123 681.216,884.123 738.756,884.123 796.296,884.123 
  853.836,884.123 911.376,884.123 968.916,884.123 1026.46,884.123 1084,884.123 1141.54,884.123 1199.08,884.123 1256.62,884.123 1314.16,884.123 1371.7,884.123 
  1429.24,884.123 1486.78,884.123 1544.32,884.123 1601.86,884.123 1659.4,884.123 1716.94,884.123 1774.48,884.123 1832.02,884.123 1889.56,884.123 1947.1,884.123 
  2004.64,884.123 2062.18,884.123 2119.72,884.123 2177.26,884.123 2234.8,884.123 2292.34,884.123 
  "/>
<polyline clip-path="url(#clip3502)" style="stroke:#c271d2; stroke-width:4; stroke-opacity:1; fill:none" points="
  278.435,858.993 335.975,841.664 393.515,820.775 451.055,814.807 508.595,830.774 566.135,845.498 623.675,858.021 681.216,869.465 738.756,878.447 796.296,884.123 
  853.836,884.123 911.376,884.123 968.916,884.123 1026.46,884.123 1084,884.123 1141.54,884.123 1199.08,884.123 1256.62,884.123 1314.16,884.123 1371.7,884.123 
  1429.24,884.123 1486.78,884.123 1544.32,884.123 1601.86,884.123 1659.4,884.123 1716.94,884.123 1774.48,884.123 1832.02,884.123 1889.56,884.123 1947.1,884.123 
  2004.64,884.123 2062.18,884.123 2119.72,884.123 2177.26,884.123 2234.8,884.123 2292.34,884.123 
  "/>
<polyline clip-path="url(#clip3502)" style="stroke:#ac8d18; stroke-width:4; stroke-opacity:1; fill:none" points="
  278.435,1112.64 335.975,1069.42 393.515,1035.9 451.055,1005.81 508.595,989.029 566.135,974.446 623.675,953.385 681.216,939.753 738.756,931.372 796.296,921.697 
  853.836,911.2 911.376,898.567 968.916,885.528 1026.46,884.123 1084,884.123 1141.54,884.123 1199.08,884.123 1256.62,884.123 1314.16,884.123 1371.7,884.123 
  1429.24,884.123 1486.78,884.123 1544.32,884.123 1601.86,884.123 1659.4,884.123 1716.94,884.123 1774.48,884.123 1832.02,884.123 1889.56,884.123 1947.1,884.123 
  2004.64,884.123 2062.18,884.123 2119.72,884.123 2177.26,884.123 2234.8,884.123 2292.34,884.123 
  "/>
<polyline clip-path="url(#clip3502)" style="stroke:#00a9ad; stroke-width:4; stroke-opacity:1; fill:none" points="
  278.435,1303.78 335.975,1209.31 393.515,1155.92 451.055,1108.86 508.595,1067.25 566.135,1026.2 623.675,997.954 681.216,977.88 738.756,963.245 796.296,947.383 
  853.836,931.144 911.376,917.304 968.916,904.536 1026.46,890.775 1084,884.123 1141.54,884.123 1199.08,884.123 1256.62,884.123 1314.16,884.123 1371.7,884.123 
  1429.24,884.123 1486.78,884.123 1544.32,884.123 1601.86,884.123 1659.4,884.123 1716.94,884.123 1774.48,884.123 1832.02,884.123 1889.56,884.123 1947.1,884.123 
  2004.64,884.123 2062.18,884.123 2119.72,884.123 2177.26,884.123 2234.8,884.123 2292.34,884.123 
  "/>
<polyline clip-path="url(#clip3502)" style="stroke:#ed5d92; stroke-width:4; stroke-opacity:1; fill:none" points="
  278.435,1239.43 335.975,1089.97 393.515,987.193 451.055,900.003 508.595,884.123 566.135,884.123 623.675,884.123 681.216,884.123 738.756,884.123 796.296,884.123 
  853.836,884.123 911.376,884.123 968.916,884.123 1026.46,884.123 1084,884.123 1141.54,884.123 1199.08,884.123 1256.62,884.123 1314.16,884.123 1371.7,884.123 
  1429.24,884.123 1486.78,884.123 1544.32,884.123 1601.86,884.123 1659.4,884.123 1716.94,884.123 1774.48,884.123 1832.02,884.123 1889.56,884.123 1947.1,884.123 
  2004.64,884.123 2062.18,884.123 2119.72,884.123 2177.26,884.123 2234.8,884.123 2292.34,884.123 
  "/>
<polyline clip-path="url(#clip3502)" style="stroke:#c68125; stroke-width:4; stroke-opacity:1; fill:none" points="
  278.435,941.963 335.975,892.391 393.515,884.123 451.055,884.123 508.595,884.123 566.135,884.123 623.675,884.123 681.216,884.123 738.756,884.123 796.296,884.123 
  853.836,884.123 911.376,884.123 968.916,884.123 1026.46,884.123 1084,884.123 1141.54,884.123 1199.08,884.123 1256.62,884.123 1314.16,884.123 1371.7,884.123 
  1429.24,884.123 1486.78,884.123 1544.32,884.123 1601.86,884.123 1659.4,884.123 1716.94,884.123 1774.48,884.123 1832.02,884.123 1889.56,884.123 1947.1,884.123 
  2004.64,884.123 2062.18,884.123 2119.72,884.123 2177.26,884.123 2234.8,884.123 2292.34,884.123 
  "/>
<polyline clip-path="url(#clip3502)" style="stroke:#00a98d; stroke-width:4; stroke-opacity:1; fill:none" points="
  278.435,1274.81 335.975,1151.96 393.515,1065.25 451.055,987.472 508.595,930.176 566.135,893.674 623.675,884.123 681.216,884.123 738.756,884.123 796.296,884.123 
  853.836,884.123 911.376,884.123 968.916,884.123 1026.46,884.123 1084,884.123 1141.54,884.123 1199.08,884.123 1256.62,884.123 1314.16,884.123 1371.7,884.123 
  1429.24,884.123 1486.78,884.123 1544.32,884.123 1601.86,884.123 1659.4,884.123 1716.94,884.123 1774.48,884.123 1832.02,884.123 1889.56,884.123 1947.1,884.123 
  2004.64,884.123 2062.18,884.123 2119.72,884.123 2177.26,884.123 2234.8,884.123 2292.34,884.123 
  "/>
<polyline clip-path="url(#clip3502)" style="stroke:#8e971d; stroke-width:4; stroke-opacity:1; fill:none" points="
  278.435,796.904 335.975,884.123 393.515,894.517 451.055,918.586 508.595,922.008 566.135,923.992 623.675,920.36 681.216,915.78 738.756,913.405 796.296,913.36 
  853.836,913.997 911.376,914.983 968.916,912.719 1026.46,905.146 1084,895.178 1141.54,885.42 1199.08,884.123 1256.62,884.123 1314.16,884.123 1371.7,884.123 
  1429.24,884.123 1486.78,884.123 1544.32,884.123 1601.86,884.123 1659.4,884.123 1716.94,884.123 1774.48,884.123 1832.02,884.123 1889.56,884.123 1947.1,884.123 
  2004.64,884.123 2062.18,884.123 2119.72,884.123 2177.26,884.123 2234.8,884.123 2292.34,884.123 
  "/>
<polyline clip-path="url(#clip3502)" style="stroke:#00a8cb; stroke-width:4; stroke-opacity:1; fill:none" points="
  278.435,878.421 335.975,900.667 393.515,898.857 451.055,886.167 508.595,884.123 566.135,884.123 623.675,884.123 681.216,884.123 738.756,884.123 796.296,884.123 
  853.836,884.123 911.376,884.123 968.916,884.123 1026.46,884.123 1084,884.123 1141.54,884.123 1199.08,884.123 1256.62,884.123 1314.16,884.123 1371.7,884.123 
  1429.24,884.123 1486.78,884.123 1544.32,884.123 1601.86,884.123 1659.4,884.123 1716.94,884.123 1774.48,884.123 1832.02,884.123 1889.56,884.123 1947.1,884.123 
  2004.64,884.123 2062.18,884.123 2119.72,884.123 2177.26,884.123 2234.8,884.123 2292.34,884.123 
  "/>
<polyline clip-path="url(#clip3502)" style="stroke:#9b7fe8; stroke-width:4; stroke-opacity:1; fill:none" points="
  278.435,1066.22 335.975,1066.7 393.515,1056.79 451.055,1044.58 508.595,1015.81 566.135,975.322 623.675,942.2 681.216,922.825 738.756,912.935 796.296,903.141 
  853.836,894.368 911.376,885.806 968.916,884.123 1026.46,884.123 1084,884.123 1141.54,884.123 1199.08,884.123 1256.62,884.123 1314.16,884.123 1371.7,884.123 
  1429.24,884.123 1486.78,884.123 1544.32,884.123 1601.86,884.123 1659.4,884.123 1716.94,884.123 1774.48,884.123 1832.02,884.123 1889.56,884.123 1947.1,884.123 
  2004.64,884.123 2062.18,884.123 2119.72,884.123 2177.26,884.123 2234.8,884.123 2292.34,884.123 
  "/>
<polyline clip-path="url(#clip3502)" style="stroke:#608cf6; stroke-width:4; stroke-opacity:1; fill:none" points="
  278.435,1038.74 335.975,1009.87 393.515,962.043 451.055,918.572 508.595,901.189 566.135,890.568 623.675,884.123 681.216,884.123 738.756,884.123 796.296,884.123 
  853.836,884.123 911.376,884.123 968.916,884.123 1026.46,884.123 1084,884.123 1141.54,884.123 1199.08,884.123 1256.62,884.123 1314.16,884.123 1371.7,884.123 
  1429.24,884.123 1486.78,884.123 1544.32,884.123 1601.86,884.123 1659.4,884.123 1716.94,884.123 1774.48,884.123 1832.02,884.123 1889.56,884.123 1947.1,884.123 
  2004.64,884.123 2062.18,884.123 2119.72,884.123 2177.26,884.123 2234.8,884.123 2292.34,884.123 
  "/>
<polyline clip-path="url(#clip3502)" style="stroke:#f05f73; stroke-width:4; stroke-opacity:1; fill:none" points="
  278.435,1044.3 335.975,1038.39 393.515,1029.96 451.055,1014.63 508.595,993.872 566.135,966.209 623.675,947.208 681.216,935.115 738.756,929.761 796.296,923.343 
  853.836,915.901 911.376,906.368 968.916,896.613 1026.46,886.911 1084,884.123 1141.54,884.123 1199.08,884.123 1256.62,884.123 1314.16,884.123 1371.7,884.123 
  1429.24,884.123 1486.78,884.123 1544.32,884.123 1601.86,884.123 1659.4,884.123 1716.94,884.123 1774.48,884.123 1832.02,884.123 1889.56,884.123 1947.1,884.123 
  2004.64,884.123 2062.18,884.123 2119.72,884.123 2177.26,884.123 2234.8,884.123 2292.34,884.123 
  "/>
<polyline clip-path="url(#clip3502)" style="stroke:#dd64b5; stroke-width:4; stroke-opacity:1; fill:none" points="
  278.435,1136.67 335.975,1053.28 393.515,996.569 451.055,948.292 508.595,910.554 566.135,884.123 623.675,884.123 681.216,884.123 738.756,884.123 796.296,884.123 
  853.836,884.123 911.376,884.123 968.916,884.123 1026.46,884.123 1084,884.123 1141.54,884.123 1199.08,884.123 1256.62,884.123 1314.16,884.123 1371.7,884.123 
  1429.24,884.123 1486.78,884.123 1544.32,884.123 1601.86,884.123 1659.4,884.123 1716.94,884.123 1774.48,884.123 1832.02,884.123 1889.56,884.123 1947.1,884.123 
  2004.64,884.123 2062.18,884.123 2119.72,884.123 2177.26,884.123 2234.8,884.123 2292.34,884.123 
  "/>
<polyline clip-path="url(#clip3502)" style="stroke:#6b9e32; stroke-width:4; stroke-opacity:1; fill:none" points="
  278.435,602.261 335.975,690.035 393.515,748.456 451.055,785.267 508.595,828.066 566.135,875.401 623.675,884.123 681.216,884.123 738.756,884.123 796.296,884.123 
  853.836,884.123 911.376,884.123 968.916,884.123 1026.46,884.123 1084,884.123 1141.54,884.123 1199.08,884.123 1256.62,884.123 1314.16,884.123 1371.7,884.123 
  1429.24,884.123 1486.78,884.123 1544.32,884.123 1601.86,884.123 1659.4,884.123 1716.94,884.123 1774.48,884.123 1832.02,884.123 1889.56,884.123 1947.1,884.123 
  2004.64,884.123 2062.18,884.123 2119.72,884.123 2177.26,884.123 2234.8,884.123 2292.34,884.123 
  "/>
<polyline clip-path="url(#clip3502)" style="stroke:#009af9; stroke-width:4; stroke-opacity:1; fill:none" points="
  278.435,434.433 335.975,556.176 393.515,647.83 451.055,726.529 508.595,792.891 566.135,853.703 623.675,884.123 681.216,884.123 738.756,884.123 796.296,884.123 
  853.836,884.123 911.376,884.123 968.916,884.123 1026.46,884.123 1084,884.123 1141.54,884.123 1199.08,884.123 1256.62,884.123 1314.16,884.123 1371.7,884.123 
  1429.24,884.123 1486.78,884.123 1544.32,884.123 1601.86,884.123 1659.4,884.123 1716.94,884.123 1774.48,884.123 1832.02,884.123 1889.56,884.123 1947.1,884.123 
  2004.64,884.123 2062.18,884.123 2119.72,884.123 2177.26,884.123 2234.8,884.123 2292.34,884.123 
  "/>
<polyline clip-path="url(#clip3502)" style="stroke:#e26f46; stroke-width:4; stroke-opacity:1; fill:none" points="
  278.435,968.282 335.975,889.222 393.515,884.123 451.055,883.786 508.595,868.308 566.135,853.353 623.675,853.83 681.216,858.164 738.756,862.775 796.296,868.762 
  853.836,876.703 911.376,884.12 968.916,884.123 1026.46,884.123 1084,884.123 1141.54,884.123 1199.08,884.123 1256.62,884.123 1314.16,884.123 1371.7,884.123 
  1429.24,884.123 1486.78,884.123 1544.32,884.123 1601.86,884.123 1659.4,884.123 1716.94,884.123 1774.48,884.123 1832.02,884.123 1889.56,884.123 1947.1,884.123 
  2004.64,884.123 2062.18,884.123 2119.72,884.123 2177.26,884.123 2234.8,884.123 2292.34,884.123 
  "/>
</svg>
