<?xml version="1.0" encoding="utf-8"?>
<svg xmlns="http://www.w3.org/2000/svg" xmlns:xlink="http://www.w3.org/1999/xlink" width="600" height="400" viewBox="0 0 2400 1600">
<defs>
  <clipPath id="clip390">
    <rect x="0" y="0" width="2400" height="1600"/>
  </clipPath>
</defs>
<path clip-path="url(#clip390)" d="
M0 1600 L2400 1600 L2400 0 L0 0  Z
  " fill="#ffffff" fill-rule="evenodd" fill-opacity="1"/>
<defs>
  <clipPath id="clip391">
    <rect x="480" y="0" width="1681" height="1600"/>
  </clipPath>
</defs>
<path clip-path="url(#clip390)" d="
M143.033 1423.18 L2352.76 1423.18 L2352.76 123.472 L143.033 123.472  Z
  " fill="#ffffff" fill-rule="evenodd" fill-opacity="1"/>
<defs>
  <clipPath id="clip392">
    <rect x="143" y="123" width="2211" height="1301"/>
  </clipPath>
</defs>
<polyline clip-path="url(#clip392)" style="stroke:#000000; stroke-width:2; stroke-opacity:0.1; fill:none" points="
  163.029,1423.18 163.029,123.472 
  "/>
<polyline clip-path="url(#clip392)" style="stroke:#000000; stroke-width:2; stroke-opacity:0.1; fill:none" points="
  588.467,1423.18 588.467,123.472 
  "/>
<polyline clip-path="url(#clip392)" style="stroke:#000000; stroke-width:2; stroke-opacity:0.1; fill:none" points="
  1013.9,1423.18 1013.9,123.472 
  "/>
<polyline clip-path="url(#clip392)" style="stroke:#000000; stroke-width:2; stroke-opacity:0.1; fill:none" points="
  1439.34,1423.18 1439.34,123.472 
  "/>
<polyline clip-path="url(#clip392)" style="stroke:#000000; stroke-width:2; stroke-opacity:0.1; fill:none" points="
  1864.78,1423.18 1864.78,123.472 
  "/>
<polyline clip-path="url(#clip392)" style="stroke:#000000; stroke-width:2; stroke-opacity:0.1; fill:none" points="
  2290.22,1423.18 2290.22,123.472 
  "/>
<polyline clip-path="url(#clip390)" style="stroke:#000000; stroke-width:4; stroke-opacity:1; fill:none" points="
  143.033,1423.18 2352.76,1423.18 
  "/>
<polyline clip-path="url(#clip390)" style="stroke:#000000; stroke-width:4; stroke-opacity:1; fill:none" points="
  163.029,1423.18 163.029,1407.58 
  "/>
<polyline clip-path="url(#clip390)" style="stroke:#000000; stroke-width:4; stroke-opacity:1; fill:none" points="
  588.467,1423.18 588.467,1407.58 
  "/>
<polyline clip-path="url(#clip390)" style="stroke:#000000; stroke-width:4; stroke-opacity:1; fill:none" points="
  1013.9,1423.18 1013.9,1407.58 
  "/>
<polyline clip-path="url(#clip390)" style="stroke:#000000; stroke-width:4; stroke-opacity:1; fill:none" points="
  1439.34,1423.18 1439.34,1407.58 
  "/>
<polyline clip-path="url(#clip390)" style="stroke:#000000; stroke-width:4; stroke-opacity:1; fill:none" points="
  1864.78,1423.18 1864.78,1407.58 
  "/>
<polyline clip-path="url(#clip390)" style="stroke:#000000; stroke-width:4; stroke-opacity:1; fill:none" points="
  2290.22,1423.18 2290.22,1407.58 
  "/>
<path clip-path="url(#clip390)" d="M 0 0 M163.029 1452.37 Q159.418 1452.37 157.589 1455.94 Q155.784 1459.48 155.784 1466.61 Q155.784 1473.71 157.589 1477.28 Q159.418 1480.82 163.029 1480.82 Q166.663 1480.82 168.469 1477.28 Q170.298 1473.71 170.298 1466.61 Q170.298 1459.48 168.469 1455.94 Q166.663 1452.37 163.029 1452.37 M163.029 1448.67 Q168.839 1448.67 171.895 1453.27 Q174.973 1457.86 174.973 1466.61 Q174.973 1475.33 171.895 1479.94 Q168.839 1484.52 163.029 1484.52 Q157.219 1484.52 154.14 1479.94 Q151.085 1475.33 151.085 1466.61 Q151.085 1457.86 154.14 1453.27 Q157.219 1448.67 163.029 1448.67 Z" fill="#000000" fill-rule="evenodd" fill-opacity="1" /><path clip-path="url(#clip390)" d="M 0 0 M565.342 1479.92 L572.981 1479.92 L572.981 1453.55 L564.67 1455.22 L564.67 1450.96 L572.934 1449.29 L577.61 1449.29 L577.61 1479.92 L585.249 1479.92 L585.249 1483.85 L565.342 1483.85 L565.342 1479.92 Z" fill="#000000" fill-rule="evenodd" fill-opacity="1" /><path clip-path="url(#clip390)" d="M 0 0 M600.318 1452.37 Q596.707 1452.37 594.879 1455.94 Q593.073 1459.48 593.073 1466.61 Q593.073 1473.71 594.879 1477.28 Q596.707 1480.82 600.318 1480.82 Q603.953 1480.82 605.758 1477.28 Q607.587 1473.71 607.587 1466.61 Q607.587 1459.48 605.758 1455.94 Q603.953 1452.37 600.318 1452.37 M600.318 1448.67 Q606.129 1448.67 609.184 1453.27 Q612.263 1457.86 612.263 1466.61 Q612.263 1475.33 609.184 1479.94 Q606.129 1484.52 600.318 1484.52 Q594.508 1484.52 591.43 1479.94 Q588.374 1475.33 588.374 1466.61 Q588.374 1457.86 591.43 1453.27 Q594.508 1448.67 600.318 1448.67 Z" fill="#000000" fill-rule="evenodd" fill-opacity="1" /><path clip-path="url(#clip390)" d="M 0 0 M995.05 1479.92 L1011.37 1479.92 L1011.37 1483.85 L989.425 1483.85 L989.425 1479.92 Q992.087 1477.16 996.67 1472.53 Q1001.28 1467.88 1002.46 1466.54 Q1004.7 1464.01 1005.58 1462.28 Q1006.49 1460.52 1006.49 1458.83 Q1006.49 1456.07 1004.54 1454.34 Q1002.62 1452.6 999.518 1452.6 Q997.319 1452.6 994.865 1453.37 Q992.434 1454.13 989.657 1455.68 L989.657 1450.96 Q992.481 1449.82 994.934 1449.25 Q997.388 1448.67 999.425 1448.67 Q1004.8 1448.67 1007.99 1451.35 Q1011.18 1454.04 1011.18 1458.53 Q1011.18 1460.66 1010.37 1462.58 Q1009.59 1464.48 1007.48 1467.07 Q1006.9 1467.74 1003.8 1470.96 Q1000.7 1474.15 995.05 1479.92 Z" fill="#000000" fill-rule="evenodd" fill-opacity="1" /><path clip-path="url(#clip390)" d="M 0 0 M1026.44 1452.37 Q1022.83 1452.37 1021 1455.94 Q1019.19 1459.48 1019.19 1466.61 Q1019.19 1473.71 1021 1477.28 Q1022.83 1480.82 1026.44 1480.82 Q1030.07 1480.82 1031.88 1477.28 Q1033.71 1473.71 1033.71 1466.61 Q1033.71 1459.48 1031.88 1455.94 Q1030.07 1452.37 1026.44 1452.37 M1026.44 1448.67 Q1032.25 1448.67 1035.3 1453.27 Q1038.38 1457.86 1038.38 1466.61 Q1038.38 1475.33 1035.3 1479.94 Q1032.25 1484.52 1026.44 1484.52 Q1020.63 1484.52 1017.55 1479.94 Q1014.49 1475.33 1014.49 1466.61 Q1014.49 1457.86 1017.55 1453.27 Q1020.63 1448.67 1026.44 1448.67 Z" fill="#000000" fill-rule="evenodd" fill-opacity="1" /><path clip-path="url(#clip390)" d="M 0 0 M1430.08 1465.22 Q1433.44 1465.94 1435.31 1468.2 Q1437.21 1470.47 1437.21 1473.81 Q1437.21 1478.92 1433.69 1481.72 Q1430.17 1484.52 1423.69 1484.52 Q1421.52 1484.52 1419.2 1484.08 Q1416.91 1483.67 1414.46 1482.81 L1414.46 1478.3 Q1416.4 1479.43 1418.72 1480.01 Q1421.03 1480.59 1423.55 1480.59 Q1427.95 1480.59 1430.24 1478.85 Q1432.56 1477.12 1432.56 1473.81 Q1432.56 1470.75 1430.41 1469.04 Q1428.28 1467.3 1424.46 1467.3 L1420.43 1467.3 L1420.43 1463.46 L1424.64 1463.46 Q1428.09 1463.46 1429.92 1462.09 Q1431.75 1460.7 1431.75 1458.11 Q1431.75 1455.45 1429.85 1454.04 Q1427.98 1452.6 1424.46 1452.6 Q1422.54 1452.6 1420.34 1453.02 Q1418.14 1453.44 1415.5 1454.31 L1415.5 1450.15 Q1418.16 1449.41 1420.48 1449.04 Q1422.81 1448.67 1424.87 1448.67 Q1430.2 1448.67 1433.3 1451.1 Q1436.4 1453.5 1436.4 1457.63 Q1436.4 1460.5 1434.76 1462.49 Q1433.11 1464.45 1430.08 1465.22 Z" fill="#000000" fill-rule="evenodd" fill-opacity="1" /><path clip-path="url(#clip390)" d="M 0 0 M1452.28 1452.37 Q1448.67 1452.37 1446.84 1455.94 Q1445.04 1459.48 1445.04 1466.61 Q1445.04 1473.71 1446.84 1477.28 Q1448.67 1480.82 1452.28 1480.82 Q1455.92 1480.82 1457.72 1477.28 Q1459.55 1473.71 1459.55 1466.61 Q1459.55 1459.48 1457.72 1455.94 Q1455.92 1452.37 1452.28 1452.37 M1452.28 1448.67 Q1458.09 1448.67 1461.15 1453.27 Q1464.23 1457.86 1464.23 1466.61 Q1464.23 1475.33 1461.15 1479.94 Q1458.09 1484.52 1452.28 1484.52 Q1446.47 1484.52 1443.39 1479.94 Q1440.34 1475.33 1440.34 1466.61 Q1440.34 1457.86 1443.39 1453.27 Q1446.47 1448.67 1452.28 1448.67 Z" fill="#000000" fill-rule="evenodd" fill-opacity="1" /><path clip-path="url(#clip390)" d="M 0 0 M1854.28 1453.37 L1842.48 1471.81 L1854.28 1471.81 L1854.28 1453.37 M1853.05 1449.29 L1858.93 1449.29 L1858.93 1471.81 L1863.86 1471.81 L1863.86 1475.7 L1858.93 1475.7 L1858.93 1483.85 L1854.28 1483.85 L1854.28 1475.7 L1838.68 1475.7 L1838.68 1471.19 L1853.05 1449.29 Z" fill="#000000" fill-rule="evenodd" fill-opacity="1" /><path clip-path="url(#clip390)" d="M 0 0 M1878.93 1452.37 Q1875.32 1452.37 1873.49 1455.94 Q1871.69 1459.48 1871.69 1466.61 Q1871.69 1473.71 1873.49 1477.28 Q1875.32 1480.82 1878.93 1480.82 Q1882.57 1480.82 1884.37 1477.28 Q1886.2 1473.71 1886.2 1466.61 Q1886.2 1459.48 1884.37 1455.94 Q1882.57 1452.37 1878.93 1452.37 M1878.93 1448.67 Q1884.74 1448.67 1887.8 1453.27 Q1890.88 1457.86 1890.88 1466.61 Q1890.88 1475.33 1887.8 1479.94 Q1884.74 1484.52 1878.93 1484.52 Q1873.12 1484.52 1870.05 1479.94 Q1866.99 1475.33 1866.99 1466.61 Q1866.99 1457.86 1870.05 1453.27 Q1873.12 1448.67 1878.93 1448.67 Z" fill="#000000" fill-rule="evenodd" fill-opacity="1" /><path clip-path="url(#clip390)" d="M 0 0 M2266.99 1449.29 L2285.34 1449.29 L2285.34 1453.23 L2271.27 1453.23 L2271.27 1461.7 Q2272.29 1461.35 2273.31 1461.19 Q2274.33 1461 2275.34 1461 Q2281.13 1461 2284.51 1464.18 Q2287.89 1467.35 2287.89 1472.76 Q2287.89 1478.34 2284.42 1481.44 Q2280.95 1484.52 2274.63 1484.52 Q2272.45 1484.52 2270.18 1484.15 Q2267.94 1483.78 2265.53 1483.04 L2265.53 1478.34 Q2267.61 1479.48 2269.83 1480.03 Q2272.06 1480.59 2274.53 1480.59 Q2278.54 1480.59 2280.88 1478.48 Q2283.21 1476.38 2283.21 1472.76 Q2283.21 1469.15 2280.88 1467.05 Q2278.54 1464.94 2274.53 1464.94 Q2272.66 1464.94 2270.78 1465.36 Q2268.93 1465.77 2266.99 1466.65 L2266.99 1449.29 Z" fill="#000000" fill-rule="evenodd" fill-opacity="1" /><path clip-path="url(#clip390)" d="M 0 0 M2302.96 1452.37 Q2299.35 1452.37 2297.52 1455.94 Q2295.71 1459.48 2295.71 1466.61 Q2295.71 1473.71 2297.52 1477.28 Q2299.35 1480.82 2302.96 1480.82 Q2306.59 1480.82 2308.4 1477.28 Q2310.23 1473.71 2310.23 1466.61 Q2310.23 1459.48 2308.4 1455.94 Q2306.59 1452.37 2302.96 1452.37 M2302.96 1448.67 Q2308.77 1448.67 2311.83 1453.27 Q2314.9 1457.86 2314.9 1466.61 Q2314.9 1475.33 2311.83 1479.94 Q2308.77 1484.52 2302.96 1484.52 Q2297.15 1484.52 2294.07 1479.94 Q2291.02 1475.33 2291.02 1466.61 Q2291.02 1457.86 2294.07 1453.27 Q2297.15 1448.67 2302.96 1448.67 Z" fill="#000000" fill-rule="evenodd" fill-opacity="1" /><path clip-path="url(#clip390)" d="M 0 0 M1193.66 1522.27 L1193.66 1532.4 L1205.72 1532.4 L1205.72 1536.95 L1193.66 1536.95 L1193.66 1556.3 Q1193.66 1560.66 1194.84 1561.9 Q1196.05 1563.14 1199.71 1563.14 L1205.72 1563.14 L1205.72 1568.04 L1199.71 1568.04 Q1192.93 1568.04 1190.35 1565.53 Q1187.77 1562.98 1187.77 1556.3 L1187.77 1536.95 L1183.47 1536.95 L1183.47 1532.4 L1187.77 1532.4 L1187.77 1522.27 L1193.66 1522.27 Z" fill="#000000" fill-rule="evenodd" fill-opacity="1" /><path clip-path="url(#clip390)" d="M 0 0 M1211.86 1532.4 L1217.72 1532.4 L1217.72 1568.04 L1211.86 1568.04 L1211.86 1532.4 M1211.86 1518.52 L1217.72 1518.52 L1217.72 1525.93 L1211.86 1525.93 L1211.86 1518.52 Z" fill="#000000" fill-rule="evenodd" fill-opacity="1" /><path clip-path="url(#clip390)" d="M 0 0 M1251.62 1539.24 Q1253.81 1535.29 1256.87 1533.41 Q1259.93 1531.54 1264.06 1531.54 Q1269.63 1531.54 1272.66 1535.45 Q1275.68 1539.33 1275.68 1546.53 L1275.68 1568.04 L1269.79 1568.04 L1269.79 1546.72 Q1269.79 1541.59 1267.98 1539.11 Q1266.16 1536.63 1262.44 1536.63 Q1257.89 1536.63 1255.25 1539.65 Q1252.61 1542.68 1252.61 1547.9 L1252.61 1568.04 L1246.72 1568.04 L1246.72 1546.72 Q1246.72 1541.56 1244.9 1539.11 Q1243.09 1536.63 1239.3 1536.63 Q1234.81 1536.63 1232.17 1539.68 Q1229.53 1542.71 1229.53 1547.9 L1229.53 1568.04 L1223.64 1568.04 L1223.64 1532.4 L1229.53 1532.4 L1229.53 1537.93 Q1231.53 1534.66 1234.34 1533.1 Q1237.14 1531.54 1240.99 1531.54 Q1244.87 1531.54 1247.58 1533.51 Q1250.31 1535.48 1251.62 1539.24 Z" fill="#000000" fill-rule="evenodd" fill-opacity="1" /><path clip-path="url(#clip390)" d="M 0 0 M1312.32 1548.76 L1312.32 1551.62 L1285.39 1551.62 Q1285.77 1557.67 1289.02 1560.85 Q1292.3 1564 1298.12 1564 Q1301.49 1564 1304.64 1563.17 Q1307.83 1562.35 1310.95 1560.69 L1310.95 1566.23 Q1307.8 1567.57 1304.49 1568.27 Q1301.18 1568.97 1297.77 1568.97 Q1289.24 1568.97 1284.24 1564 Q1279.28 1559.04 1279.28 1550.57 Q1279.28 1541.82 1283.99 1536.69 Q1288.73 1531.54 1296.75 1531.54 Q1303.94 1531.54 1308.11 1536.18 Q1312.32 1540.8 1312.32 1548.76 M1306.46 1547.04 Q1306.4 1542.23 1303.75 1539.37 Q1301.14 1536.5 1296.82 1536.5 Q1291.91 1536.5 1288.95 1539.27 Q1286.03 1542.04 1285.58 1547.07 L1306.46 1547.04 Z" fill="#000000" fill-rule="evenodd" fill-opacity="1" /><polyline clip-path="url(#clip392)" style="stroke:#000000; stroke-width:2; stroke-opacity:0.1; fill:none" points="
  143.033,1229.08 2352.76,1229.08 
  "/>
<polyline clip-path="url(#clip392)" style="stroke:#000000; stroke-width:2; stroke-opacity:0.1; fill:none" points="
  143.033,991.438 2352.76,991.438 
  "/>
<polyline clip-path="url(#clip392)" style="stroke:#000000; stroke-width:2; stroke-opacity:0.1; fill:none" points="
  143.033,753.798 2352.76,753.798 
  "/>
<polyline clip-path="url(#clip392)" style="stroke:#000000; stroke-width:2; stroke-opacity:0.1; fill:none" points="
  143.033,516.158 2352.76,516.158 
  "/>
<polyline clip-path="url(#clip392)" style="stroke:#000000; stroke-width:2; stroke-opacity:0.1; fill:none" points="
  143.033,278.518 2352.76,278.518 
  "/>
<polyline clip-path="url(#clip390)" style="stroke:#000000; stroke-width:4; stroke-opacity:1; fill:none" points="
  143.033,1423.18 143.033,123.472 
  "/>
<polyline clip-path="url(#clip390)" style="stroke:#000000; stroke-width:4; stroke-opacity:1; fill:none" points="
  143.033,1229.08 169.55,1229.08 
  "/>
<polyline clip-path="url(#clip390)" style="stroke:#000000; stroke-width:4; stroke-opacity:1; fill:none" points="
  143.033,991.438 169.55,991.438 
  "/>
<polyline clip-path="url(#clip390)" style="stroke:#000000; stroke-width:4; stroke-opacity:1; fill:none" points="
  143.033,753.798 169.55,753.798 
  "/>
<polyline clip-path="url(#clip390)" style="stroke:#000000; stroke-width:4; stroke-opacity:1; fill:none" points="
  143.033,516.158 169.55,516.158 
  "/>
<polyline clip-path="url(#clip390)" style="stroke:#000000; stroke-width:4; stroke-opacity:1; fill:none" points="
  143.033,278.518 169.55,278.518 
  "/>
<path clip-path="url(#clip390)" d="M 0 0 M50.9921 1229.53 L80.6679 1229.53 L80.6679 1233.46 L50.9921 1233.46 L50.9921 1229.53 Z" fill="#000000" fill-rule="evenodd" fill-opacity="1" /><path clip-path="url(#clip390)" d="M 0 0 M99.9039 1227.72 Q103.26 1228.44 105.135 1230.71 Q107.033 1232.98 107.033 1236.31 Q107.033 1241.43 103.515 1244.23 Q99.9965 1247.03 93.515 1247.03 Q91.3391 1247.03 89.0243 1246.59 Q86.7327 1246.17 84.279 1245.32 L84.279 1240.8 Q86.2234 1241.94 88.5382 1242.52 Q90.853 1243.09 93.3762 1243.09 Q97.7743 1243.09 100.066 1241.36 Q102.381 1239.62 102.381 1236.31 Q102.381 1233.26 100.228 1231.54 Q98.0984 1229.81 94.2789 1229.81 L90.2512 1229.81 L90.2512 1225.96 L94.4641 1225.96 Q97.9132 1225.96 99.7419 1224.6 Q101.571 1223.21 101.571 1220.62 Q101.571 1217.96 99.6724 1216.54 Q97.7974 1215.11 94.2789 1215.11 Q92.3576 1215.11 90.1586 1215.53 Q87.9595 1215.94 85.3206 1216.82 L85.3206 1212.65 Q87.9827 1211.91 90.2975 1211.54 Q92.6354 1211.17 94.6956 1211.17 Q100.02 1211.17 103.121 1213.6 Q106.223 1216.01 106.223 1220.13 Q106.223 1223 104.58 1224.99 Q102.936 1226.96 99.9039 1227.72 Z" fill="#000000" fill-rule="evenodd" fill-opacity="1" /><path clip-path="url(#clip390)" d="M 0 0 M95.0891 977.237 Q91.478 977.237 89.6493 980.802 Q87.8438 984.343 87.8438 991.473 Q87.8438 998.579 89.6493 1002.14 Q91.478 1005.69 95.0891 1005.69 Q98.7234 1005.69 100.529 1002.14 Q102.358 998.579 102.358 991.473 Q102.358 984.343 100.529 980.802 Q98.7234 977.237 95.0891 977.237 M95.0891 973.533 Q100.899 973.533 103.955 978.14 Q107.033 982.723 107.033 991.473 Q107.033 1000.2 103.955 1004.81 Q100.899 1009.39 95.0891 1009.39 Q89.279 1009.39 86.2003 1004.81 Q83.1447 1000.2 83.1447 991.473 Q83.1447 982.723 86.2003 978.14 Q89.279 973.533 95.0891 973.533 Z" fill="#000000" fill-rule="evenodd" fill-opacity="1" /><path clip-path="url(#clip390)" d="M 0 0 M99.9039 752.444 Q103.26 753.161 105.135 755.43 Q107.033 757.698 107.033 761.032 Q107.033 766.147 103.515 768.948 Q99.9965 771.749 93.515 771.749 Q91.3391 771.749 89.0243 771.309 Q86.7327 770.893 84.279 770.036 L84.279 765.522 Q86.2234 766.657 88.5382 767.235 Q90.853 767.814 93.3762 767.814 Q97.7743 767.814 100.066 766.078 Q102.381 764.342 102.381 761.032 Q102.381 757.976 100.228 756.263 Q98.0984 754.527 94.2789 754.527 L90.2512 754.527 L90.2512 750.685 L94.4641 750.685 Q97.9132 750.685 99.7419 749.319 Q101.571 747.93 101.571 745.337 Q101.571 742.675 99.6724 741.263 Q97.7974 739.828 94.2789 739.828 Q92.3576 739.828 90.1586 740.245 Q87.9595 740.661 85.3206 741.541 L85.3206 737.374 Q87.9827 736.634 90.2975 736.263 Q92.6354 735.893 94.6956 735.893 Q100.02 735.893 103.121 738.324 Q106.223 740.731 106.223 744.851 Q106.223 747.722 104.58 749.712 Q102.936 751.68 99.9039 752.444 Z" fill="#000000" fill-rule="evenodd" fill-opacity="1" /><path clip-path="url(#clip390)" d="M 0 0 M95.5058 514.294 Q92.3576 514.294 90.5058 516.447 Q88.6771 518.6 88.6771 522.35 Q88.6771 526.077 90.5058 528.253 Q92.3576 530.405 95.5058 530.405 Q98.6539 530.405 100.483 528.253 Q102.334 526.077 102.334 522.35 Q102.334 518.6 100.483 516.447 Q98.6539 514.294 95.5058 514.294 M104.788 499.642 L104.788 503.901 Q103.029 503.068 101.223 502.628 Q99.4409 502.188 97.6817 502.188 Q93.0521 502.188 90.5984 505.313 Q88.1679 508.438 87.8206 514.757 Q89.1864 512.743 91.2465 511.679 Q93.3067 510.591 95.7836 510.591 Q100.992 510.591 104.001 513.762 Q107.033 516.91 107.033 522.35 Q107.033 527.674 103.885 530.892 Q100.737 534.109 95.5058 534.109 Q89.5104 534.109 86.3392 529.526 Q83.1679 524.919 83.1679 516.193 Q83.1679 507.998 87.0567 503.137 Q90.9456 498.253 97.4965 498.253 Q99.2558 498.253 101.038 498.6 Q102.844 498.947 104.788 499.642 Z" fill="#000000" fill-rule="evenodd" fill-opacity="1" /><path clip-path="url(#clip390)" d="M 0 0 M85.4132 295.08 L85.4132 290.821 Q87.1725 291.654 88.978 292.094 Q90.7836 292.534 92.5197 292.534 Q97.1493 292.534 99.5798 289.432 Q102.034 286.307 102.381 279.964 Q101.038 281.955 98.978 283.02 Q96.9178 284.085 94.4178 284.085 Q89.2327 284.085 86.2003 280.96 Q83.191 277.812 83.191 272.372 Q83.191 267.048 86.3392 263.83 Q89.4873 260.613 94.7187 260.613 Q100.714 260.613 103.862 265.219 Q107.033 269.802 107.033 278.552 Q107.033 286.724 103.145 291.608 Q99.2789 296.469 92.728 296.469 Q90.9688 296.469 89.1632 296.122 Q87.3577 295.774 85.4132 295.08 M94.7187 280.427 Q97.8669 280.427 99.6956 278.275 Q101.547 276.122 101.547 272.372 Q101.547 268.645 99.6956 266.492 Q97.8669 264.316 94.7187 264.316 Q91.5706 264.316 89.7188 266.492 Q87.8901 268.645 87.8901 272.372 Q87.8901 276.122 89.7188 278.275 Q91.5706 280.427 94.7187 280.427 Z" fill="#000000" fill-rule="evenodd" fill-opacity="1" /><path clip-path="url(#clip390)" d="M 0 0 M1028.4 44.2197 Q1031.03 45.1109 1033.5 48.0275 Q1036.01 50.9442 1038.52 56.0483 L1046.83 72.576 L1038.04 72.576 L1030.3 57.061 Q1027.3 50.9847 1024.47 48.9997 Q1021.67 47.0148 1016.81 47.0148 L1007.9 47.0148 L1007.9 72.576 L999.716 72.576 L999.716 12.096 L1018.19 12.096 Q1028.56 12.096 1033.66 16.4305 Q1038.77 20.7649 1038.77 29.5149 Q1038.77 35.2267 1036.09 38.994 Q1033.46 42.7613 1028.4 44.2197 M1007.9 18.8205 L1007.9 40.2903 L1018.19 40.2903 Q1024.1 40.2903 1027.1 37.5762 Q1030.14 34.8216 1030.14 29.5149 Q1030.14 24.2082 1027.1 21.5346 Q1024.1 18.8205 1018.19 18.8205 L1007.9 18.8205 Z" fill="#000000" fill-rule="evenodd" fill-opacity="1" /><path clip-path="url(#clip390)" d="M 0 0 M1073.44 49.7694 Q1064.41 49.7694 1060.93 51.8354 Q1057.44 53.9013 1057.44 58.8839 Q1057.44 62.8538 1060.03 65.2034 Q1062.67 67.5124 1067.16 67.5124 Q1073.36 67.5124 1077.09 63.1374 Q1080.86 58.7219 1080.86 51.4303 L1080.86 49.7694 L1073.44 49.7694 M1088.31 46.6907 L1088.31 72.576 L1080.86 72.576 L1080.86 65.6895 Q1078.3 69.8214 1074.5 71.8063 Q1070.69 73.7508 1065.18 73.7508 Q1058.21 73.7508 1054.08 69.8619 Q1049.99 65.9325 1049.99 59.3701 Q1049.99 51.7138 1055.09 47.825 Q1060.24 43.9361 1070.4 43.9361 L1080.86 43.9361 L1080.86 43.2069 Q1080.86 38.0623 1077.45 35.2672 Q1074.09 32.4315 1067.97 32.4315 Q1064.08 32.4315 1060.4 33.3632 Q1056.71 34.295 1053.31 36.1584 L1053.31 29.2718 Q1057.4 27.692 1061.25 26.9223 Q1065.1 26.1121 1068.74 26.1121 Q1078.59 26.1121 1083.45 31.2163 Q1088.31 36.3204 1088.31 46.6907 Z" fill="#000000" fill-rule="evenodd" fill-opacity="1" /><path clip-path="url(#clip390)" d="M 0 0 M1133.84 45.1919 L1133.84 72.576 L1126.39 72.576 L1126.39 45.4349 Q1126.39 38.994 1123.88 35.7938 Q1121.36 32.5936 1116.34 32.5936 Q1110.31 32.5936 1106.82 36.4419 Q1103.34 40.2903 1103.34 46.9338 L1103.34 72.576 L1095.84 72.576 L1095.84 27.2059 L1103.34 27.2059 L1103.34 34.2544 Q1106.01 30.163 1109.62 28.1376 Q1113.26 26.1121 1118 26.1121 Q1125.82 26.1121 1129.83 30.9732 Q1133.84 35.7938 1133.84 45.1919 Z" fill="#000000" fill-rule="evenodd" fill-opacity="1" /><path clip-path="url(#clip390)" d="M 0 0 M1171.51 34.0924 L1171.51 9.54393 L1178.97 9.54393 L1178.97 72.576 L1171.51 72.576 L1171.51 65.7705 Q1169.17 69.8214 1165.56 71.8063 Q1162 73.7508 1156.97 73.7508 Q1148.75 73.7508 1143.56 67.1883 Q1138.42 60.6258 1138.42 49.9314 Q1138.42 39.2371 1143.56 32.6746 Q1148.75 26.1121 1156.97 26.1121 Q1162 26.1121 1165.56 28.0971 Q1169.17 30.0415 1171.51 34.0924 M1146.12 49.9314 Q1146.12 58.1548 1149.48 62.8538 Q1152.88 67.5124 1158.8 67.5124 Q1164.71 67.5124 1168.11 62.8538 Q1171.51 58.1548 1171.51 49.9314 Q1171.51 41.7081 1168.11 37.0496 Q1164.71 32.3505 1158.8 32.3505 Q1152.88 32.3505 1149.48 37.0496 Q1146.12 41.7081 1146.12 49.9314 Z" fill="#000000" fill-rule="evenodd" fill-opacity="1" /><path clip-path="url(#clip390)" d="M 0 0 M1204.37 32.4315 Q1198.37 32.4315 1194.89 37.1306 Q1191.4 41.7891 1191.4 49.9314 Q1191.4 58.0738 1194.85 62.7728 Q1198.33 67.4314 1204.37 67.4314 Q1210.32 67.4314 1213.81 62.7323 Q1217.29 58.0333 1217.29 49.9314 Q1217.29 41.8701 1213.81 37.1711 Q1210.32 32.4315 1204.37 32.4315 M1204.37 26.1121 Q1214.09 26.1121 1219.64 32.4315 Q1225.19 38.7509 1225.19 49.9314 Q1225.19 61.0714 1219.64 67.4314 Q1214.09 73.7508 1204.37 73.7508 Q1194.61 73.7508 1189.06 67.4314 Q1183.55 61.0714 1183.55 49.9314 Q1183.55 38.7509 1189.06 32.4315 Q1194.61 26.1121 1204.37 26.1121 Z" fill="#000000" fill-rule="evenodd" fill-opacity="1" /><path clip-path="url(#clip390)" d="M 0 0 M1268.33 35.9153 Q1271.13 30.8922 1275.02 28.5022 Q1278.9 26.1121 1284.17 26.1121 Q1291.26 26.1121 1295.11 31.0947 Q1298.96 36.0368 1298.96 45.1919 L1298.96 72.576 L1291.46 72.576 L1291.46 45.4349 Q1291.46 38.913 1289.15 35.7533 Q1286.84 32.5936 1282.1 32.5936 Q1276.31 32.5936 1272.95 36.4419 Q1269.59 40.2903 1269.59 46.9338 L1269.59 72.576 L1262.09 72.576 L1262.09 45.4349 Q1262.09 38.8725 1259.78 35.7533 Q1257.48 32.5936 1252.65 32.5936 Q1246.94 32.5936 1243.58 36.4824 Q1240.22 40.3308 1240.22 46.9338 L1240.22 72.576 L1232.72 72.576 L1232.72 27.2059 L1240.22 27.2059 L1240.22 34.2544 Q1242.77 30.082 1246.34 28.0971 Q1249.9 26.1121 1254.8 26.1121 Q1259.74 26.1121 1263.19 28.6237 Q1266.67 31.1352 1268.33 35.9153 Z" fill="#000000" fill-rule="evenodd" fill-opacity="1" /><path clip-path="url(#clip390)" d="M 0 0 M1328.81 27.2059 L1336.27 27.2059 L1345.58 62.6108 L1354.86 27.2059 L1363.65 27.2059 L1372.97 62.6108 L1382.24 27.2059 L1389.7 27.2059 L1377.83 72.576 L1369.04 72.576 L1359.27 35.3887 L1349.47 72.576 L1340.68 72.576 L1328.81 27.2059 Z" fill="#000000" fill-rule="evenodd" fill-opacity="1" /><path clip-path="url(#clip390)" d="M 0 0 M1418.13 49.7694 Q1409.1 49.7694 1405.62 51.8354 Q1402.13 53.9013 1402.13 58.8839 Q1402.13 62.8538 1404.73 65.2034 Q1407.36 67.5124 1411.86 67.5124 Q1418.05 67.5124 1421.78 63.1374 Q1425.55 58.7219 1425.55 51.4303 L1425.55 49.7694 L1418.13 49.7694 M1433 46.6907 L1433 72.576 L1425.55 72.576 L1425.55 65.6895 Q1423 69.8214 1419.19 71.8063 Q1415.38 73.7508 1409.87 73.7508 Q1402.9 73.7508 1398.77 69.8619 Q1394.68 65.9325 1394.68 59.3701 Q1394.68 51.7138 1399.78 47.825 Q1404.93 43.9361 1415.1 43.9361 L1425.55 43.9361 L1425.55 43.2069 Q1425.55 38.0623 1422.14 35.2672 Q1418.78 32.4315 1412.67 32.4315 Q1408.78 32.4315 1405.09 33.3632 Q1401.4 34.295 1398 36.1584 L1398 29.2718 Q1402.09 27.692 1405.94 26.9223 Q1409.79 26.1121 1413.43 26.1121 Q1423.28 26.1121 1428.14 31.2163 Q1433 36.3204 1433 46.6907 Z" fill="#000000" fill-rule="evenodd" fill-opacity="1" /><path clip-path="url(#clip390)" d="M 0 0 M1440.82 9.54393 L1448.27 9.54393 L1448.27 72.576 L1440.82 72.576 L1440.82 9.54393 Z" fill="#000000" fill-rule="evenodd" fill-opacity="1" /><path clip-path="url(#clip390)" d="M 0 0 M1455.81 9.54393 L1463.3 9.54393 L1463.3 46.7717 L1485.54 27.2059 L1495.06 27.2059 L1471 48.4326 L1496.07 72.576 L1486.35 72.576 L1463.3 50.4176 L1463.3 72.576 L1455.81 72.576 L1455.81 9.54393 Z" fill="#000000" fill-rule="evenodd" fill-opacity="1" /><polyline clip-path="url(#clip392)" style="stroke:#009af9; stroke-width:4; stroke-opacity:1; fill:none" points="
  205.573,897.153 248.117,734.91 290.66,644.396 333.204,608.005 375.748,639.427 418.292,692.081 460.835,614.375 503.379,620.355 545.923,598.665 588.467,614.05 
  631.01,640.933 673.554,707.779 716.098,778.195 758.642,752.275 801.185,705.349 843.729,676.198 886.273,698.467 928.817,756.68 971.36,813.509 1013.9,874.905 
  1056.45,952.497 1098.99,931.87 1141.54,968.98 1184.08,1038.76 1226.62,1016.76 1269.17,896.045 1311.71,1036.86 1354.25,1269.2 1396.8,1207.24 1439.34,1023.97 
  1481.89,1092.97 1524.43,1065.58 1566.97,1077.93 1609.52,893.124 1652.06,972.207 1694.6,966.903 1737.15,1105.07 1779.69,1174.82 1822.24,1194.92 1864.78,1130.44 
  1907.32,1219.54 1949.87,1246.82 1992.41,1266.03 2034.95,1144.67 2077.5,1111.92 2120.04,1129.95 2162.59,1144.68 2205.13,1023.33 2247.67,1272.32 2290.22,1386.4 
  
  "/>
<polyline clip-path="url(#clip392)" style="stroke:#e26f46; stroke-width:4; stroke-opacity:1; fill:none" points="
  205.573,974.113 248.117,990.533 290.66,888.138 333.204,795.485 375.748,793.048 418.292,883.365 460.835,848.933 503.379,873.834 545.923,917.312 588.467,967.681 
  631.01,914.944 673.554,987.842 716.098,999.436 758.642,1009.13 801.185,942.456 843.729,982.292 886.273,901.071 928.817,984.929 971.36,970.792 1013.9,751.086 
  1056.45,832.948 1098.99,857.065 1141.54,789.815 1184.08,1020.76 1226.62,1021.97 1269.17,1074.76 1311.71,868.176 1354.25,755.581 1396.8,730.401 1439.34,628.617 
  1481.89,738.016 1524.43,603.935 1566.97,571.851 1609.52,646.062 1652.06,544.54 1694.6,486.94 1737.15,518.365 1779.69,434.762 1822.24,492.902 1864.78,456.512 
  1907.32,321.359 1949.87,267.617 1992.41,244.869 2034.95,160.256 2077.5,184.565 2120.04,336.672 2162.59,204.417 2205.13,221.334 2247.67,234.302 2290.22,305.83 
  
  "/>
<path clip-path="url(#clip390)" d="
M1982.56 348.236 L2279.1 348.236 L2279.1 166.796 L1982.56 166.796  Z
  " fill="#ffffff" fill-rule="evenodd" fill-opacity="1"/>
<polyline clip-path="url(#clip390)" style="stroke:#000000; stroke-width:4; stroke-opacity:1; fill:none" points="
  1982.56,348.236 2279.1,348.236 2279.1,166.796 1982.56,166.796 1982.56,348.236 
  "/>
<polyline clip-path="url(#clip390)" style="stroke:#009af9; stroke-width:4; stroke-opacity:1; fill:none" points="
  2007.11,227.276 2154.42,227.276 
  "/>
<path clip-path="url(#clip390)" d="M 0 0 M2192.82 246.963 Q2191.01 251.593 2189.3 253.005 Q2187.59 254.417 2184.72 254.417 L2181.31 254.417 L2181.31 250.852 L2183.81 250.852 Q2185.57 250.852 2186.54 250.019 Q2187.52 249.185 2188.7 246.083 L2189.46 244.139 L2178.98 218.63 L2183.49 218.63 L2191.59 238.908 L2199.69 218.63 L2204.21 218.63 L2192.82 246.963 Z" fill="#000000" fill-rule="evenodd" fill-opacity="1" /><path clip-path="url(#clip390)" d="M 0 0 M2210.09 240.621 L2217.73 240.621 L2217.73 214.255 L2209.41 215.922 L2209.41 211.662 L2217.68 209.996 L2222.35 209.996 L2222.35 240.621 L2229.99 240.621 L2229.99 244.556 L2210.09 244.556 L2210.09 240.621 Z" fill="#000000" fill-rule="evenodd" fill-opacity="1" /><polyline clip-path="url(#clip390)" style="stroke:#e26f46; stroke-width:4; stroke-opacity:1; fill:none" points="
  2007.11,287.756 2154.42,287.756 
  "/>
<path clip-path="url(#clip390)" d="M 0 0 M2192.82 307.443 Q2191.01 312.073 2189.3 313.485 Q2187.59 314.897 2184.72 314.897 L2181.31 314.897 L2181.31 311.332 L2183.81 311.332 Q2185.57 311.332 2186.54 310.499 Q2187.52 309.665 2188.7 306.563 L2189.46 304.619 L2178.98 279.11 L2183.49 279.11 L2191.59 299.388 L2199.69 279.11 L2204.21 279.11 L2192.82 307.443 Z" fill="#000000" fill-rule="evenodd" fill-opacity="1" /><path clip-path="url(#clip390)" d="M 0 0 M2213.3 301.101 L2229.62 301.101 L2229.62 305.036 L2207.68 305.036 L2207.68 301.101 Q2210.34 298.346 2214.92 293.716 Q2219.53 289.064 2220.71 287.721 Q2222.96 285.198 2223.84 283.462 Q2224.74 281.703 2224.74 280.013 Q2224.74 277.258 2222.79 275.522 Q2220.87 273.786 2217.77 273.786 Q2215.57 273.786 2213.12 274.55 Q2210.69 275.314 2207.91 276.865 L2207.91 272.142 Q2210.73 271.008 2213.19 270.429 Q2215.64 269.851 2217.68 269.851 Q2223.05 269.851 2226.24 272.536 Q2229.44 275.221 2229.44 279.712 Q2229.44 281.841 2228.63 283.763 Q2227.84 285.661 2225.73 288.253 Q2225.16 288.925 2222.05 292.142 Q2218.95 295.337 2213.3 301.101 Z" fill="#000000" fill-rule="evenodd" fill-opacity="1" /></svg>
